<svg width="172" height="88" viewBox="0 0 172 88" fill="none" xmlns="http://www.w3.org/2000/svg">
<path d="M0 10C0 4.47715 4.47715 0 10 0H162C167.523 0 172 4.47715 172 10V78C172 83.5229 167.523 88 162 88H10C4.47716 88 0 83.5229 0 78V10Z" fill="#F8C300"/>
<path d="M33.0992 11.0625H35.3177V12C34.6047 12 32.7793 12 32.1592 12V8H26.9076L26.9259 11H29.0435V12H25.944V8H20.6261V11.0625H22.8447V12H19.5331V8H14.2814L14.2998 11H16.4174V12H13.318V8H8V11.0625H10.2186V13H11.2626V10.0625H9.04405V9.00004H12.274V13H17.4615V10H15.3377L15.3317 9.00004H18.4892V13H23.8887V10.0625H21.6702V9.00004H24.9V13H30.0876V10H27.9638L27.9576 9.00004H31.1151V13C32.1566 13 35.3931 13 36.3618 13V10.0625H34.1432V9.00004H37.3732V13H38.4172V8H33.0992V11.0625Z" fill="#B79002"/>
<path d="M58.2074 11.0625H60.4259V12C59.7129 12 57.8876 12 57.2674 12V8H52.0158L52.0341 11H54.1517V12H51.0523V8H45.7344V11.0625H47.9529V12H44.6413V8H39.3897L39.408 11H41.5256V12H38.4262V8H33.1082V11.0625H35.3268V13H36.3708V10.0625H34.1523V9.00004H37.3823V13H42.5697V10H40.446L40.4399 9.00004H43.5974V13H48.9969V10.0625H46.7784V9.00004H50.0083V13H55.1958V10H53.072L53.0659 9.00004H56.2234V13C57.2649 13 60.5014 13 61.47 13V10.0625H59.2515V9.00004H62.4814V13H63.5254V8H58.2074V11.0625Z" fill="#B79002"/>
<path d="M83.3365 11.0625H85.555V12C84.842 12 83.0166 12 82.3965 12V8H77.1449L77.1631 11H79.2808V12H76.1813V8H70.8634V11.0625H73.0819V12H69.7704V8H64.5187L64.5371 11H66.6547V12H63.5553V8H58.2373V11.0625H60.4559V13H61.4999V10.0625H59.2813V9.00004H62.5113V13H67.6988V10H65.575L65.569 9.00004H68.7265V13H74.126V10.0625H71.9075V9.00004H75.1373V13H80.3249V10H78.2011L78.1949 9.00004H81.3524V13C82.3939 13 85.6304 13 86.599 13V10.0625H84.3805V9.00004H87.6105V13H88.6545V8H83.3365V11.0625Z" fill="#B79002"/>
<path d="M108.445 11.0625H110.663V12C109.95 12 108.125 12 107.505 12V8H102.253L102.271 11H104.389V12H101.29V8H95.9717V11.0625H98.1902V12H94.8786V8H89.627L89.6453 11H91.7629V12H88.6635V8H83.3455V11.0625H85.5641V13H86.6081V10.0625H84.3896V9.00004H87.6195V13H92.807V10H90.6833L90.6772 9.00004H93.8347V13H99.2342V10.0625H97.0157V9.00004H100.246V13H105.433V10H103.309L103.303 9.00004H106.461V13C107.502 13 110.739 13 111.707 13V10.0625H109.489V9.00004H112.719V13H113.763V8H108.445V11.0625Z" fill="#B79002"/>
<path d="M133.574 11.0625H135.792V12C135.079 12 133.254 12 132.634 12V8H127.382L127.4 11H129.518V12H126.419V8H121.101V11.0625H123.319V12H120.008V8H114.756L114.774 11H116.892V12H113.793V8H108.475V11.0625H110.693V13H111.737V10.0625H109.519V9.00004H112.749V13H117.936V10H115.812L115.806 9.00004H118.964V13H124.363V10.0625H122.145V9.00004H125.375V13H130.562V10H128.438L128.432 9.00004H131.59V13C132.631 13 135.868 13 136.836 13V10.0625H134.618V9.00004H137.848V13H138.892V8H133.574V11.0625Z" fill="#B79002"/>
<path d="M158.682 11.0625H160.901V12C160.188 12 158.362 12 157.742 12V8H152.49L152.509 11H154.626V12H151.527V8H146.209V11.0625H148.427V12H145.116V8H139.864L139.883 11H142V12H138.901V8H133.583V11.0625H135.801V13H136.845V10.0625H134.627V9.00004H137.857V13H143.044V10H140.921L140.914 9.00004H144.072V13H149.472V10.0625H147.253V9.00004H150.483V13H155.67V10H153.547L153.54 9.00004H156.698V13C157.739 13 160.976 13 161.945 13V10.0625H159.726V9.00004H162.956V13H164V8H158.682V11.0625Z" fill="#B79002"/>
<path d="M33.0992 78.0625H35.3177V79C34.6047 79 32.7793 79 32.1592 79V75H26.9076L26.9259 78H29.0435V79H25.944V75H20.6261V78.0625H22.8447V79H19.5331V75H14.2814L14.2998 78H16.4174V79H13.318V75H8V78.0625H10.2186V80H11.2626V77.0625H9.04405V76H12.274V80H17.4615V77H15.3377L15.3317 76H18.4892V80H23.8887V77.0625H21.6702V76H24.9V80H30.0876V77H27.9638L27.9576 76H31.1151V80C32.1566 80 35.3931 80 36.3618 80V77.0625H34.1432V76H37.3732V80H38.4172V75H33.0992V78.0625Z" fill="#B79002"/>
<path d="M58.2074 78.0625H60.4259V79C59.7129 79 57.8876 79 57.2674 79V75H52.0158L52.0341 78H54.1517V79H51.0523V75H45.7344V78.0625H47.9529V79H44.6413V75H39.3897L39.408 78H41.5256V79H38.4262V75H33.1082V78.0625H35.3268V80H36.3708V77.0625H34.1523V76H37.3823V80H42.5697V77H40.446L40.4399 76H43.5974V80H48.9969V77.0625H46.7784V76H50.0083V80H55.1958V77H53.072L53.0659 76H56.2234V80C57.2649 80 60.5014 80 61.47 80V77.0625H59.2515V76H62.4814V80H63.5254V75H58.2074V78.0625Z" fill="#B79002"/>
<path d="M83.3365 78.0625H85.555V79C84.842 79 83.0166 79 82.3965 79V75H77.1449L77.1631 78H79.2808V79H76.1813V75H70.8634V78.0625H73.0819V79H69.7704V75H64.5187L64.5371 78H66.6547V79H63.5553V75H58.2373V78.0625H60.4559V80H61.4999V77.0625H59.2813V76H62.5113V80H67.6988V77H65.575L65.569 76H68.7265V80H74.126V77.0625H71.9075V76H75.1373V80H80.3249V77H78.2011L78.1949 76H81.3524V80C82.3939 80 85.6304 80 86.599 80V77.0625H84.3805V76H87.6105V80H88.6545V75H83.3365V78.0625Z" fill="#B79002"/>
<path d="M108.445 78.0625H110.663V79C109.95 79 108.125 79 107.505 79V75H102.253L102.271 78H104.389V79H101.29V75H95.9717V78.0625H98.1902V79H94.8786V75H89.627L89.6453 78H91.7629V79H88.6635V75H83.3455V78.0625H85.5641V80H86.6081V77.0625H84.3896V76H87.6195V80H92.807V77H90.6833L90.6772 76H93.8347V80H99.2342V77.0625H97.0157V76H100.246V80H105.433V77H103.309L103.303 76H106.461V80C107.502 80 110.739 80 111.707 80V77.0625H109.489V76H112.719V80H113.763V75H108.445V78.0625Z" fill="#B79002"/>
<path d="M133.574 78.0625H135.792V79C135.079 79 133.254 79 132.634 79V75H127.382L127.4 78H129.518V79H126.419V75H121.101V78.0625H123.319V79H120.008V75H114.756L114.774 78H116.892V79H113.793V75H108.475V78.0625H110.693V80H111.737V77.0625H109.519V76H112.749V80H117.936V77H115.812L115.806 76H118.964V80H124.363V77.0625H122.145V76H125.375V80H130.562V77H128.438L128.432 76H131.59V80C132.631 80 135.868 80 136.836 80V77.0625H134.618V76H137.848V80H138.892V75H133.574V78.0625Z" fill="#B79002"/>
<path d="M158.682 78.0625H160.901V79C160.188 79 158.362 79 157.742 79V75H152.49L152.509 78H154.626V79H151.527V75H146.209V78.0625H148.427V79H145.116V75H139.864L139.883 78H142V79H138.901V75H133.583V78.0625H135.801V80H136.845V77.0625H134.627V76H137.857V80H143.044V77H140.921L140.914 76H144.072V80H149.472V77.0625H147.253V76H150.483V80H155.67V77H153.547L153.54 76H156.698V80C157.739 80 160.976 80 161.945 80V77.0625H159.726V76H162.956V80H164V75H158.682V78.0625Z" fill="#B79002"/>
<path opacity="0.5" fill-rule="evenodd" clip-rule="evenodd" d="M92.7274 27.0052L92.6133 27.0467L92.6548 27.0052H92.7274ZM66.3387 31.3935C72.6774 26.7804 78.5527 27.0017 78.5527 27.0017L79.0264 27.4685C71.2699 29.3186 67.7531 32.7836 67.7531 32.7836C67.7531 32.7836 68.6937 32.3237 70.3362 31.6217C80.7832 27.5135 92.1914 27.8109 102.752 33.0119C102.752 33.0119 99.2286 29.7716 91.9493 27.6968L92.5926 27.0639C93.5989 27.0674 98.9243 27.2541 104.623 31.4211C104.623 31.4211 111 42.3141 111 55.697C110.962 55.6507 110.808 55.8092 110.526 56.1012C109.244 57.4254 105.303 61.4956 97.4062 61.6656C97.4062 61.6656 95.774 59.819 94.6121 58.2076C100.249 56.5892 102.358 53.3524 102.358 53.3524C101.018 54.1964 99.7636 54.7919 98.6533 55.3189L98.6533 55.319C98.2306 55.5196 97.8288 55.7103 97.4512 55.901C95.3938 56.8064 93.3332 57.2629 91.2757 57.7188L91.1298 57.7511C81.816 59.2625 76.3174 57.0009 71.3217 54.9462C70.968 54.8007 70.6169 54.6563 70.2671 54.5143L68.4585 53.5945C68.4585 53.5945 70.5645 56.8312 75.9764 58.4496C74.5551 60.0715 73.1477 61.9146 73.1477 61.9146C63.5134 61.6864 60 55.6693 60 55.6693C60 42.2657 66.3387 31.3935 66.3387 31.3935ZM93.3499 51.5161C95.8086 51.5161 97.8108 49.4413 97.8108 46.8823C97.8108 44.3406 95.819 42.2657 93.3499 42.2657V42.2761C90.9015 42.2761 88.8958 44.344 88.8889 46.903C88.8889 49.4413 90.8912 51.5161 93.3499 51.5161ZM81.8413 46.8823C81.8413 49.4413 79.8391 51.5161 77.3804 51.5161C74.9217 51.5161 72.9195 49.4413 72.9195 46.903C72.9195 44.344 74.9217 42.2761 77.3804 42.2761L77.3942 42.2657C79.8529 42.2657 81.8413 44.3406 81.8413 46.8823Z" fill="#B79002"/>
<path d="M46.12 39.8H51.416C52.6427 39.8 53.7307 40.0293 54.68 40.488C55.6293 40.9467 56.3653 41.5973 56.888 42.44C57.4107 43.2827 57.672 44.2693 57.672 45.4C57.672 46.5307 57.4107 47.5173 56.888 48.36C56.3653 49.2027 55.6293 49.8533 54.68 50.312C53.7307 50.7707 52.6427 51 51.416 51H46.12V39.8ZM51.288 48.472C52.248 48.472 53.016 48.2 53.592 47.656C54.1787 47.112 54.472 46.36 54.472 45.4C54.472 44.44 54.1787 43.688 53.592 43.144C53.016 42.6 52.248 42.328 51.288 42.328H49.288V48.472H51.288ZM59.8187 39.8H62.9867V51H59.8187V39.8ZM69.6566 51.224C68.75 51.224 67.87 51.112 67.0166 50.888C66.1633 50.664 65.47 50.3653 64.9366 49.992L65.9766 47.656C66.478 47.9867 67.0593 48.2533 67.7206 48.456C68.382 48.6587 69.0326 48.76 69.6726 48.76C70.8886 48.76 71.4966 48.456 71.4966 47.848C71.4966 47.528 71.3206 47.2933 70.9686 47.144C70.6273 46.984 70.0726 46.8187 69.3046 46.648C68.462 46.4667 67.758 46.2747 67.1926 46.072C66.6273 45.8587 66.142 45.5227 65.7366 45.064C65.3313 44.6053 65.1286 43.9867 65.1286 43.208C65.1286 42.5253 65.3153 41.912 65.6886 41.368C66.062 40.8133 66.6166 40.376 67.3526 40.056C68.0993 39.736 69.0113 39.576 70.0886 39.576C70.8246 39.576 71.55 39.6613 72.2646 39.832C72.9793 39.992 73.6086 40.232 74.1526 40.552L73.1766 42.904C72.11 42.328 71.0753 42.04 70.0726 42.04C69.4433 42.04 68.9846 42.136 68.6966 42.328C68.4086 42.5093 68.2646 42.7493 68.2646 43.048C68.2646 43.3467 68.4353 43.5707 68.7766 43.72C69.118 43.8693 69.6673 44.024 70.4246 44.184C71.278 44.3653 71.982 44.5627 72.5366 44.776C73.102 44.9787 73.5873 45.3093 73.9926 45.768C74.4086 46.216 74.6166 46.8293 74.6166 47.608C74.6166 48.28 74.43 48.888 74.0566 49.432C73.6833 49.976 73.1233 50.4133 72.3766 50.744C71.63 51.064 70.7233 51.224 69.6566 51.224ZM82.144 51.224C80.9707 51.224 79.9147 50.9787 78.976 50.488C78.048 49.9867 77.3173 49.2933 76.784 48.408C76.2507 47.5227 75.984 46.52 75.984 45.4C75.984 44.28 76.2507 43.2773 76.784 42.392C77.3173 41.5067 78.048 40.8187 78.976 40.328C79.9147 39.8267 80.9707 39.576 82.144 39.576C83.168 39.576 84.0907 39.7573 84.912 40.12C85.7333 40.4827 86.416 41.0053 86.96 41.688L84.944 43.512C84.2187 42.6373 83.3387 42.2 82.304 42.2C81.696 42.2 81.152 42.3333 80.672 42.6C80.2027 42.8667 79.8347 43.2453 79.568 43.736C79.312 44.216 79.184 44.7707 79.184 45.4C79.184 46.0293 79.312 46.5893 79.568 47.08C79.8347 47.56 80.2027 47.9333 80.672 48.2C81.152 48.4667 81.696 48.6 82.304 48.6C83.3387 48.6 84.2187 48.1627 84.944 47.288L86.96 49.112C86.416 49.7947 85.7333 50.3173 84.912 50.68C84.0907 51.0427 83.168 51.224 82.144 51.224ZM94.2661 51.224C93.0821 51.224 92.0155 50.9733 91.0661 50.472C90.1275 49.9707 89.3861 49.2773 88.8421 48.392C88.3088 47.5067 88.0421 46.5093 88.0421 45.4C88.0421 44.2907 88.3088 43.2933 88.8421 42.408C89.3861 41.5227 90.1275 40.8293 91.0661 40.328C92.0155 39.8267 93.0821 39.576 94.2661 39.576C95.4501 39.576 96.5115 39.8267 97.4501 40.328C98.3995 40.8293 99.1408 41.5227 99.6741 42.408C100.218 43.2933 100.49 44.2907 100.49 45.4C100.49 46.5093 100.218 47.5067 99.6741 48.392C99.1408 49.2773 98.3995 49.9707 97.4501 50.472C96.5115 50.9733 95.4501 51.224 94.2661 51.224ZM94.2661 48.6C94.8315 48.6 95.3435 48.4667 95.8021 48.2C96.2608 47.9333 96.6235 47.56 96.8901 47.08C97.1568 46.5893 97.2901 46.0293 97.2901 45.4C97.2901 44.7707 97.1568 44.216 96.8901 43.736C96.6235 43.2453 96.2608 42.8667 95.8021 42.6C95.3435 42.3333 94.8315 42.2 94.2661 42.2C93.7008 42.2 93.1888 42.3333 92.7301 42.6C92.2715 42.8667 91.9088 43.2453 91.6421 43.736C91.3755 44.216 91.2421 44.7707 91.2421 45.4C91.2421 46.0293 91.3755 46.5893 91.6421 47.08C91.9088 47.56 92.2715 47.9333 92.7301 48.2C93.1888 48.4667 93.7008 48.6 94.2661 48.6ZM107.525 48.024H105.797V51H102.629V39.8H107.749C108.763 39.8 109.643 39.9707 110.389 40.312C111.136 40.6427 111.712 41.1227 112.117 41.752C112.523 42.3707 112.725 43.1013 112.725 43.944C112.725 44.7547 112.533 45.464 112.149 46.072C111.776 46.6693 111.237 47.1387 110.533 47.48L112.949 51H109.557L107.525 48.024ZM109.525 43.944C109.525 43.4213 109.36 43.016 109.029 42.728C108.699 42.44 108.208 42.296 107.557 42.296H105.797V45.576H107.557C108.208 45.576 108.699 45.4373 109.029 45.16C109.36 44.872 109.525 44.4667 109.525 43.944ZM114.953 39.8H120.249C121.476 39.8 122.564 40.0293 123.513 40.488C124.462 40.9467 125.198 41.5973 125.721 42.44C126.244 43.2827 126.505 44.2693 126.505 45.4C126.505 46.5307 126.244 47.5173 125.721 48.36C125.198 49.2027 124.462 49.8533 123.513 50.312C122.564 50.7707 121.476 51 120.249 51H114.953V39.8ZM120.121 48.472C121.081 48.472 121.849 48.2 122.425 47.656C123.012 47.112 123.305 46.36 123.305 45.4C123.305 44.44 123.012 43.688 122.425 43.144C121.849 42.6 121.081 42.328 120.121 42.328H118.121V48.472H120.121Z" fill="#34353C"/>
</svg>
