<svg width="16" viewBox="0 0 16 12" fill="none" xmlns="http://www.w3.org/2000/svg">
<path d="M13.3337 2.00008C13.3337 2.00008 11.805 0.803415 10.0003 0.666748L9.83766 0.992415C11.469 1.39208 12.2177 1.96341 13.0003 2.66675C11.6513 1.97808 10.3203 1.33341 8.00033 1.33341C5.68033 1.33341 4.34933 1.97808 3.00033 2.66675C3.78299 1.96341 4.67366 1.32808 6.16299 0.992415L6.00033 0.666748C4.10699 0.845081 2.66699 2.00008 2.66699 2.00008C2.66699 2.00008 0.959992 4.47541 0.666992 9.33341C2.38699 11.3177 5.00033 11.3334 5.00033 11.3334L5.54699 10.6054C4.61899 10.2827 3.57233 9.70708 2.66699 8.66675C3.74633 9.48341 5.37533 10.3334 8.00033 10.3334C10.6253 10.3334 12.2543 9.48341 13.3337 8.66675C12.4287 9.70708 11.382 10.2827 10.4537 10.6054L11.0003 11.3334C11.0003 11.3334 13.6137 11.3177 15.3337 9.33341C15.0407 4.47541 13.3337 2.00008 13.3337 2.00008ZM5.83366 8.00008C5.18899 8.00008 4.66699 7.40341 4.66699 6.66675C4.66699 5.93008 5.18899 5.33341 5.83366 5.33341C6.47833 5.33341 7.00033 5.93008 7.00033 6.66675C7.00033 7.40341 6.47833 8.00008 5.83366 8.00008ZM10.167 8.00008C9.52232 8.00008 9.00033 7.40341 9.00033 6.66675C9.00033 5.93008 9.52232 5.33341 10.167 5.33341C10.8117 5.33341 11.3337 5.93008 11.3337 6.66675C11.3337 7.40341 10.8117 8.00008 10.167 8.00008Z" fill="currentColor"/>
</svg>
