<?xml version="1.0" encoding="UTF-8"?>
<!DOCTYPE svg PUBLIC "-//W3C//DTD SVG 1.1//EN" "http://www.w3.org/Graphics/SVG/1.1/DTD/svg11.dtd">
<!-- Creator: CorelDRAW 2020 (64-Bit Оценочная версия) -->
<svg xmlns="http://www.w3.org/2000/svg" xml:space="preserve" width="40.7717mm" height="42.6988mm" version="1.1" style="shape-rendering:geometricPrecision; text-rendering:geometricPrecision; image-rendering:optimizeQuality; fill-rule:evenodd; clip-rule:evenodd"
viewBox="0 0 1872.63 1961.14"
 xmlns:xlink="http://www.w3.org/1999/xlink"
 xmlns:xodm="http://www.corel.com/coreldraw/odm/2003">
 <defs>
  <style type="text/css">
   <![CDATA[
    .str0 {stroke:#89B7DE;stroke-width:9.19;stroke-miterlimit:22.9256}
    .fil5 {fill:#EBECEC}
    .fil0 {fill:#C5C6C6}
    .fil4 {fill:#2B2A29}
    .fil1 {fill:#86755D}
    .fil6 {fill:#E31E24}
    .fil2 {fill:#FAFAFA}
    .fil9 {fill:#96A7B1}
    .fil8 {fill:#748187}
    .fil3 {fill:#A2D9F7}
    .fil12 {fill:#A1D9F7}
    .fil16 {fill:#89B7DE}
    .fil18 {fill:#007EBB}
    .fil15 {fill:#076DA6}
    .fil20 {fill:#3C4A57}
    .fil21 {fill:#4A5D6C}
    .fil11 {fill:#69A3CB}
    .fil7 {fill:#86CDF9}
    .fil23 {fill:#BDE2DB}
    .fil24 {fill:#C7F3FE}
    .fil22 {fill:#FEB781}
    .fil14 {fill:#FF9466}
    .fil13 {fill:#FFB882}
    .fil17 {fill:#89B7DE;fill-rule:nonzero}
    .fil25 {fill:#88B7DD;fill-rule:nonzero}
    .fil19 {fill:#28547E;fill-opacity:0.501961}
    .fil10 {fill:url(#id2)}
   ]]>
  </style>
    <mask id="id0">
  <linearGradient id="id1" gradientUnits="userSpaceOnUse" x1="874.75" y1="1234.56" x2="868.27" y2="1743.58">
   <stop offset="0" style="stop-opacity:1; stop-color:white"/>
   <stop offset="1" style="stop-opacity:0; stop-color:white"/>
  </linearGradient>
     <rect style="fill:url(#id1)" x="580.12" y="1415.83" width="636.6" height="451.64"/>
    </mask>
  <linearGradient id="id2" gradientUnits="userSpaceOnUse" x1="906.07" y1="1175.44" x2="947.23" y2="1998.81">
   <stop offset="0" style="stop-opacity:1; stop-color:#CFE2EA"/>
   <stop offset="0.439216" style="stop-opacity:1; stop-color:#A2D9F7"/>
   <stop offset="1" style="stop-opacity:1; stop-color:#136498"/>
  </linearGradient>
 </defs>
 <g id="Слой_x0020_1">
  <metadata id="CorelCorpID_0Corel-Layer"/>
  <g id="_2124683305744">
   <path class="fil0" d="M502.17 691.05c2.89,0 5.77,0.08 8.63,0.23 4.58,-27.92 28.83,-49.24 58.06,-49.24 32.49,0 58.85,26.35 58.85,58.85 0,13.89 -4.82,26.65 -12.87,36.72 27.34,27.53 44.17,65.02 44.17,106.35 0,84.44 -70.23,152.91 -156.83,152.91 -44.53,0 -84.73,-18.11 -113.29,-47.18 -10.12,3.88 -21.17,6.02 -32.77,6.02 -9.96,0 -19.52,-1.58 -28.44,-4.48 -0.62,21.88 -18.56,39.44 -40.59,39.44 -22.42,0 -40.6,-18.18 -40.6,-40.6 0,-19.37 13.57,-35.57 31.72,-39.62 -5.96,-11.14 -9.33,-23.74 -9.33,-37.07 0,-33.98 21.83,-63.16 52.97,-75.73 -0.03,-0.62 -0.04,-1.25 -0.04,-1.88 0,-27.51 22.31,-49.82 49.82,-49.82 3.22,0 6.38,0.31 9.42,0.9 28.77,-34.06 72.33,-55.79 121.11,-55.79zm749.28 191.99c12.06,0 21.84,9.78 21.84,21.84 0,12.06 -9.78,21.84 -21.84,21.84 -4.26,0 -8.24,-1.23 -11.6,-3.33 -4.82,18.58 -21.72,32.32 -41.81,32.32 -23.25,0 -42.21,-18.39 -43.15,-41.41l-0.04 0c-19.01,0 -35.26,-11.8 -41.84,-28.47 -7.29,1.95 -14.95,2.99 -22.85,2.99 -9.91,0 -19.44,-1.64 -28.33,-4.66 0.65,4.8 1,9.7 1,14.69 0,51.91 -36.7,95.26 -85.57,105.51 -19.07,37.43 -57.98,63.08 -102.86,63.08 -63.7,0 -115.36,-51.66 -115.36,-115.37 0,-5.18 0.35,-10.28 1.01,-15.28 -43.84,-14.05 -75.58,-55.13 -75.58,-103.62 0,-35.43 16.96,-66.91 43.18,-86.78 -2.54,-5.5 -3.97,-11.64 -3.97,-18.1 0,-23.81 19.31,-43.13 43.13,-43.13 22.92,0 41.67,17.89 43.04,40.47 43.49,6.65 78.51,39.06 89,81.16 16.36,-10 35.59,-15.77 56.16,-15.77 16.87,0 32.84,3.88 47.06,10.8l-0.01 -1.11c0,-48.65 39.45,-88.1 88.1,-88.1 48.65,0 88.1,39.45 88.1,88.1 0,9.72 -1.58,19.07 -4.48,27.81 15.37,7.15 26.03,22.73 26.03,40.79l0 0.04c15.01,0.61 28.05,8.89 35.31,21.02 4.01,-4.5 9.83,-7.34 16.32,-7.34z"/>
   <g>
    <path class="fil1" d="M1139.54 1111.06c-19.61,-18.06 -19.29,-23.25 -9.39,-39.18 9.89,-15.93 3.77,-32.5 -1.71,-33.67 -5.47,-1.17 -2.09,0.51 0.8,5.75 2.89,5.24 3.24,14.15 -2.78,19.75 -6.02,5.59 -10.31,7.41 -77.67,-0.45 -67.36,-7.87 -101.8,-20.76 -101.8,-20.76 0,0 0.94,16.24 24.66,30.86 23.72,14.61 152.16,43.56 167.89,37.71z"/>
    <path class="fil2" d="M1098.57 1079.6c12.47,-7.1 17.66,-1.13 19.02,0.67 1.35,1.8 1.3,2.2 1.3,2.2 0,0 -6.47,3.11 -10.16,2.19 -3.7,-0.92 -10.16,-5.05 -10.16,-5.05z"/>
    <path class="fil3" d="M1112.43 1076.72c1.96,0.28 3.34,2.01 3.08,3.87 -0.26,1.86 -2.07,3.15 -4.02,2.87 -1.96,-0.28 -3.34,-2.01 -3.08,-3.87 0.26,-1.86 2.07,-3.15 4.02,-2.87z"/>
    <path class="fil4" d="M1112.15 1078.74c0.79,0.11 1.34,0.8 1.23,1.55 -0.11,0.74 -0.83,1.26 -1.61,1.15 -0.79,-0.11 -1.34,-0.8 -1.23,-1.55 0.11,-0.74 0.83,-1.26 1.61,-1.15z"/>
    <path class="fil5" d="M947.75 1047.75c24.5,-22.03 57.91,-59.18 40.3,-79.62 -17.61,-20.44 -17.61,-20.44 -17.61,-20.44l-15.6 0.38c0,0 32.21,-16.2 98.64,-1.26 66.43,14.95 103.75,57.31 103.75,57.31l-14.33 -11.44c0,0 -4,22.64 -30.27,45.35 -26.28,22.71 -48.17,27.17 -48.17,27.17 0,0 14.84,-31.65 -30.16,-35.65 -45,-3.99 -86.56,18.22 -86.56,18.22z"/>
    <path class="fil6" d="M994.79 940.57c29.89,34.03 22.48,69.6 14.47,89.2 -34.26,3.42 -61.51,17.98 -61.51,17.98 24.5,-22.03 57.91,-59.18 40.3,-79.62 -17.61,-20.44 -17.61,-20.44 -17.61,-20.44l-15.6 0.38c0,0 13.14,-6.61 39.95,-7.49z"/>
    <path class="fil6" d="M1027.02 942.16c5.43,25.98 -0.57,64.43 -5.11,86.9 4.08,-0.04 8.22,0.11 12.39,0.47 2.72,0.24 5.21,0.59 7.51,1.02 6.82,-23.09 18.61,-64.22 21.27,-81.34 -3.13,-0.86 -6.33,-1.67 -9.61,-2.4 -9.52,-2.14 -18.34,-3.64 -26.46,-4.64z"/>
    <path class="fil6" d="M1085.47 956.73c-4.63,22.97 -24.98,59.81 -34.58,76.32 4.91,1.89 8.4,4.34 10.82,7.04 12.66,-10.81 34.74,-30.76 43.03,-45.03 5.23,-9 8.51,-17.26 10.53,-23.69 -8.68,-5.12 -18.64,-10.18 -29.81,-14.64z"/>
    <path class="fil6" d="M1131.32 981.81c-11.75,26.48 -38.06,64.25 -64.71,75.34 -0.56,4.67 -2.14,8.03 -2.14,8.03 0,0 21.89,-4.46 48.17,-27.17 26.28,-22.7 30.27,-45.35 30.27,-45.35l14.33 11.44c0,0 -8.97,-10.17 -25.91,-22.3z"/>
   </g>
   <path class="fil7" d="M1303.03 1218.99c93.68,68.91 132.67,-0.79 132.67,-0.79 0,0 2.6,20.84 -10.39,32.57 -13,11.73 -37.69,16.94 -37.69,16.94 0,0 25.34,4.56 57.83,-6.52 32.49,-11.07 46.78,-42.99 33.14,-46.25 -13.65,-3.26 -7.79,5.86 -11.69,4.56 -3.9,-1.3 -3.25,-23.45 14.29,-20.19 17.55,3.26 29.9,33.22 20.8,52.76 -9.1,19.54 -18.84,44.95 -51.99,57.98 -33.14,13.03 -87.08,6.51 -87.08,6.51l-59.89 -97.58z"/>
   <path class="fil8" d="M1661.9 706.03c-2.7,0 -5.37,0.13 -8.01,0.38 -7.1,-33.51 -38.03,-58.74 -75.11,-58.74 -6.45,0 -12.71,0.77 -18.69,2.2 0.22,-2.14 0.34,-4.32 0.34,-6.52 0,-34.58 -28.04,-62.62 -62.61,-62.62 -6.16,0 -12.12,0.89 -17.74,2.55 0.31,-1.52 0.47,-3.1 0.47,-4.71 0,-13.11 -10.64,-23.75 -23.75,-23.75 -13.11,0 -23.75,10.64 -23.75,23.75 0,11.16 7.7,20.53 18.08,23.07 -8.71,9.75 -14.42,22.23 -15.66,36 -2.53,-0.51 -5.14,-0.77 -7.82,-0.77 -22.06,0 -39.95,17.89 -39.95,39.94 0,4.65 0.79,9.12 2.26,13.27 -12.92,-8.39 -28.34,-13.27 -44.9,-13.27 -16.74,0 -32.32,4.99 -45.34,13.55 -3.89,-3.1 -8.82,-4.95 -14.18,-4.95 -12.58,0 -22.78,10.2 -22.78,22.78 0,6.58 2.8,12.52 7.26,16.67 -4.28,9.28 -6.89,19.48 -7.44,30.23 -19.46,11.62 -32.5,32.88 -32.5,57.18 0,6.21 0.85,12.21 2.44,17.9 -14.62,11.36 -24.03,29.11 -24.03,49.05 0,34.27 27.8,62.07 62.07,62.07 26.69,0 49.45,-16.86 58.22,-40.5 7.18,3.37 15.19,5.25 23.64,5.25 1.17,0 2.32,-0.04 3.47,-0.11 12.48,15.01 31.28,24.56 52.32,24.56 16.39,0 31.43,-5.8 43.17,-15.46 8.02,1.64 16.33,2.51 24.84,2.51 14.98,0 29.33,-2.68 42.6,-7.58 15.08,25.15 42.6,41.98 74.05,41.98 35.88,0 66.65,-21.92 79.66,-53.09 9.34,26.98 34.97,46.37 65.12,46.37 36.61,0 66.56,-28.57 68.76,-64.63 1.47,0.16 2.95,0.24 4.46,0.24 22.65,0 41.02,-18.37 41.02,-41.02 0,-22.65 -18.37,-41.02 -41.02,-41.02 -2.43,0 -4.81,0.21 -7.12,0.62 1.81,-4.91 2.81,-10.2 2.81,-15.74 0,-25.04 -20.31,-45.34 -45.34,-45.34l-0.74 0c1.83,-2.84 2.9,-6.23 2.9,-9.86 0,-10.06 -8.16,-18.21 -18.21,-18.21 -10.06,0 -18.22,8.15 -18.22,18.21 0,7.33 4.33,13.65 10.57,16.53 -0.86,0.53 -1.71,1.09 -2.54,1.68 -15.45,-24.47 -42.42,-40.68 -73.09,-40.68zm146.82 -8.7c-3.58,0 -6.48,2.9 -6.48,6.48 0,3.58 2.9,6.48 6.48,6.48 3.58,0 6.48,-2.9 6.48,-6.48 0,-3.58 -2.9,-6.48 -6.48,-6.48zm-194.54 -95c-13.24,0 -23.97,10.73 -23.97,23.97 0,13.24 10.73,23.97 23.97,23.97 13.24,0 23.97,-10.73 23.97,-23.97 0,-13.24 -10.73,-23.97 -23.97,-23.97zm-307.45 15.12c-6.56,0 -11.87,5.32 -11.87,11.87 0,6.56 5.31,11.88 11.87,11.88 6.56,0 11.87,-5.32 11.87,-11.88 0,-6.55 -5.31,-11.87 -11.87,-11.87z"/>
   <path class="fil9" d="M323.38 369.21c4.6,0 9.14,0.23 13.63,0.64 12.08,-57.03 64.73,-99.98 127.84,-99.98 10.98,0 21.63,1.31 31.81,3.75 -0.38,-3.65 -0.57,-7.35 -0.57,-11.1 0,-58.85 47.72,-106.57 106.57,-106.57 10.49,0 20.62,1.52 30.19,4.34 -0.52,-2.59 -0.8,-5.27 -0.8,-8.01 0,-22.32 18.11,-40.42 40.42,-40.42 22.32,0 40.42,18.1 40.42,40.42 0,19 -13.11,34.93 -30.77,39.26 14.82,16.59 24.54,37.83 26.65,61.27 4.31,-0.85 8.75,-1.3 13.31,-1.3 37.54,0 67.98,30.44 67.98,67.99 0,7.91 -1.35,15.52 -3.84,22.58 22,-14.28 48.24,-22.59 76.42,-22.59 28.49,0 55.01,8.49 77.16,23.08 6.62,-5.28 15.01,-8.43 24.13,-8.43 21.41,0 38.78,17.36 38.78,38.77 0,11.21 -4.76,21.3 -12.36,28.38 7.28,15.79 11.73,33.16 12.66,51.45 33.12,19.77 55.31,55.96 55.31,97.33 0,10.56 -1.45,20.77 -4.15,30.47 24.88,19.33 40.9,49.54 40.9,83.48 0,58.34 -47.31,105.65 -105.65,105.65 -45.42,0 -84.16,-28.68 -99.08,-68.92 -12.22,5.73 -25.85,8.93 -40.24,8.93 -1.98,0 -3.95,-0.07 -5.9,-0.19 -21.23,25.54 -53.24,41.8 -89.04,41.8 -27.9,0 -53.49,-9.87 -73.48,-26.32 -13.65,2.8 -27.79,4.27 -42.27,4.27 -25.49,0 -49.92,-4.56 -72.51,-12.9 -25.67,42.81 -72.51,71.46 -126.04,71.46 -61.07,0 -113.44,-37.3 -135.58,-90.36 -15.89,45.93 -59.52,78.92 -110.84,78.92 -62.31,0 -113.27,-48.63 -117.03,-110 -2.49,0.27 -5.02,0.41 -7.58,0.41 -38.56,0 -69.82,-31.26 -69.82,-69.82 0,-38.56 31.26,-69.82 69.82,-69.82 4.13,0 8.18,0.36 12.13,1.05 -3.09,-8.34 -4.78,-17.36 -4.78,-26.77 0,-42.61 34.56,-77.17 77.17,-77.17l1.26 0.01c-3.12,-4.84 -4.94,-10.6 -4.94,-16.78 0,-17.12 13.88,-31 31,-31 17.12,0 31,13.88 31,31 0,12.47 -7.37,23.23 -18,28.14 1.47,0.9 2.91,1.86 4.32,2.86 26.29,-41.64 72.19,-69.23 124.4,-69.23zm-249.89 -14.82c6.09,0 11.02,4.94 11.02,11.03 0,6.09 -4.94,11.02 -11.02,11.02 -6.09,0 -11.03,-4.94 -11.03,-11.02 0,-6.09 4.94,-11.03 11.03,-11.03zm331.1 -161.69c22.53,0 40.8,18.27 40.8,40.79 0,22.53 -18.27,40.8 -40.8,40.8 -22.53,0 -40.8,-18.27 -40.8,-40.8 0,-22.52 18.27,-40.79 40.8,-40.79zm523.28 25.72c11.16,0 20.21,9.05 20.21,20.21 0,11.17 -9.05,20.21 -20.21,20.21 -11.16,0 -20.21,-9.05 -20.21,-20.21 0,-11.16 9.05,-20.21 20.21,-20.21z"/>
   <path class="fil0" d="M802.69 212.13c2.89,0 5.77,0.08 8.63,0.23 4.58,-27.92 28.83,-49.24 58.06,-49.24 32.49,0 58.85,26.35 58.85,58.85 0,13.89 -4.82,26.65 -12.87,36.72 27.34,27.53 44.17,65.02 44.17,106.35 0,84.44 -70.23,152.91 -156.83,152.91 -44.53,0 -84.73,-18.11 -113.29,-47.18 -10.12,3.88 -21.17,6.02 -32.77,6.02 -9.96,0 -19.52,-1.58 -28.44,-4.48 -0.62,21.88 -18.56,39.44 -40.59,39.44 -22.42,0 -40.6,-18.18 -40.6,-40.6 0,-19.37 13.57,-35.57 31.72,-39.62 -5.96,-11.14 -9.33,-23.74 -9.33,-37.07 0,-33.98 21.83,-63.16 52.97,-75.73 -0.03,-0.62 -0.04,-1.25 -0.04,-1.88 0,-27.51 22.31,-49.82 49.82,-49.82 3.22,0 6.38,0.31 9.42,0.9 28.77,-34.06 72.33,-55.79 121.11,-55.79zm749.28 191.99c12.06,0 21.84,9.78 21.84,21.84 0,12.06 -9.78,21.84 -21.84,21.84 -4.26,0 -8.24,-1.23 -11.6,-3.33 -4.82,18.58 -21.72,32.32 -41.81,32.32 -23.25,0 -42.21,-18.39 -43.15,-41.41l-0.04 0c-19.01,0 -35.26,-11.8 -41.84,-28.47 -7.29,1.95 -14.95,2.99 -22.85,2.99 -9.91,0 -19.44,-1.64 -28.33,-4.66 0.65,4.8 1,9.7 1,14.69 0,51.91 -36.7,95.26 -85.57,105.51 -19.07,37.43 -57.98,63.08 -102.86,63.08 -63.7,0 -115.36,-51.66 -115.36,-115.37 0,-5.18 0.35,-10.28 1.01,-15.28 -43.84,-14.05 -75.58,-55.13 -75.58,-103.62 0,-35.43 16.96,-66.91 43.18,-86.78 -2.54,-5.5 -3.97,-11.64 -3.97,-18.1 0,-23.81 19.31,-43.13 43.13,-43.13 22.92,0 41.67,17.89 43.04,40.47 43.49,6.65 78.51,39.06 89,81.16 16.36,-10 35.59,-15.77 56.16,-15.77 16.87,0 32.84,3.88 47.06,10.8l-0.01 -1.11c0,-48.65 39.45,-88.1 88.1,-88.1 48.65,0 88.1,39.45 88.1,88.1 0,9.72 -1.58,19.07 -4.48,27.81 15.37,7.15 26.03,22.73 26.03,40.79l0 0.04c15.01,0.61 28.05,8.89 35.31,21.02 4.01,-4.5 9.83,-7.34 16.32,-7.34z"/>
   <path class="fil10" d="M324.07 1358.56c14.86,0 29.29,1.89 43.04,5.45 36.06,-21.34 78.14,-33.6 123.07,-33.6 40.32,0 78.32,9.87 111.77,27.31 31.24,-17.39 67.2,-27.31 105.48,-27.31 34.33,0 66.8,7.98 95.67,22.17 28.27,-81.19 105.47,-139.47 196.28,-139.47 63.76,0 120.82,28.74 158.93,73.97 13.82,-4.18 28.48,-6.44 43.66,-6.44 59.06,0 110.19,34.02 134.88,83.51 4.35,-0.26 8.75,-0.4 13.17,-0.4 68.62,0 129.77,32.08 169.25,82.06 15.13,-6.02 31.65,-9.34 48.92,-9.34 73.15,0 132.47,59.32 132.47,132.46 0,46.44 -23.92,87.31 -60.1,110.96 5.28,15.29 8.16,31.7 8.16,48.78 0,82.47 -66.88,149.35 -149.35,149.35 -21.61,0 -42.14,-4.6 -60.68,-12.86 -29.66,51.16 -85.02,85.59 -148.4,85.59 -79.69,0 -146.69,-54.42 -165.89,-128.1 -29.84,21.76 -66.58,34.6 -106.33,34.6 -50.5,0 -96.17,-20.73 -128.96,-54.14 -31.8,27.27 -73.12,43.75 -118.28,43.75 -8.87,0 -17.59,-0.64 -26.12,-1.87 -3.09,64.66 -56.51,116.15 -121.93,116.15 -67.41,0 -122.07,-54.67 -122.07,-122.08 0,-8.5 0.87,-16.8 2.53,-24.82 -4.31,0.23 -8.66,0.35 -13.03,0.35 -88.48,0 -165.88,-47.51 -208.11,-118.38 -74.36,-18.74 -129.42,-86.06 -129.42,-166.23 0,-94.66 76.77,-171.42 171.42,-171.42z"/>
   <path class="fil4" style="mask:url(#id0)" d="M904.54 1643.85c44.04,-47.92 170.25,-164.16 170.25,-164.16l137.33 2.28c0,0 -8.13,13.07 -20.48,17.17 -12.35,4.11 -60.14,4.72 -72.78,31.59 -12.64,26.87 -48.54,93.69 -40.77,127.36 7.77,33.68 46.28,164.55 46.28,164.55l-108.86 34.58c-49.5,-0.68 -94.18,-21.27 -126.43,-54.12 -31.8,27.27 -73.12,43.75 -118.28,43.75 -8.87,0 -17.59,-0.64 -26.12,-1.87 -0.29,6.09 -1.03,12.06 -2.18,17.89l-157.8 -418.08 94.84 -24.37c0,0 57.91,184.57 100.65,224.72 42.74,40.15 56.99,90.67 124.34,-1.3z"/>
   <path class="fil7" d="M462.93 1336.93c199.07,-3.88 361.95,-265 573.95,-246.9 212,18.1 426.93,296.94 506.73,325.76 79.81,28.81 182.27,19.39 182.27,19.39l-139.61 37.49 -1071.63 -16.81 -51.71 -118.93z"/>
   <path class="fil11" d="M465.52 1441.63c290.85,-111.17 279.22,-214.58 484.75,-174.51 205.54,40.07 231.45,144.72 394.27,174.51 162.82,29.79 -879.02,0 -879.02,0z"/>
   <path class="fil12" d="M1026.54 1483l-783.36 0c0,0 -130.56,-1.3 -159,-127.97 -28.44,-126.68 64.64,-190.02 90.49,-199.07 25.85,-9.05 -21.98,56.87 -15.52,90.49 6.46,33.61 6.46,-43.95 84.02,-109.88 77.56,-65.93 129.27,-28.44 129.27,-18.1 0,10.34 3.88,21.97 -15.51,29.73 -19.39,7.76 -21.98,-7.76 -23.27,-19.39 -1.29,-11.63 -15.51,-23.27 -41.36,11.63 -25.85,34.91 6.46,113.76 25.85,122.81 19.39,9.05 32.32,2.59 18.1,-23.27 -14.22,-25.85 -5.17,-49.12 11.63,-34.9 16.81,14.22 27.15,45.24 40.07,51.71 12.93,6.46 47.83,5.17 56.88,-40.07 9.05,-45.25 -11.63,-59.47 -11.63,-59.47 0,0 56.88,60.76 40.07,90.49 -16.81,29.73 -16.81,32.32 -16.81,32.32 0,0 28.44,3.88 40.07,-16.81 11.63,-20.68 3.88,-60.76 3.88,-60.76 0,0 41.36,59.46 25.85,89.2 -15.51,29.73 -25.85,55.58 0,90.49 25.85,34.9 131.85,74.98 218.46,5.17 86.61,-69.8 246.9,-115.05 391.68,-59.47 144.78,55.58 401.6,155.53 487,116.72 85.39,-38.82 64.69,-124.21 64.69,-124.21 0,0 20.9,41.13 17.03,54.68 -3.87,13.55 -5.81,13.55 -2.58,20.65 3.23,7.1 34.84,-13.55 28.39,-51.62 -6.45,-38.07 -27.74,-55.49 -47.1,-56.13 -19.36,-0.65 -3.87,-23.23 20.65,-20 24.52,3.22 42.58,23.87 48.39,10.32 5.81,-13.55 -25.16,-38.07 -40.65,-42.59 -15.48,-4.51 -32.9,-4.51 -45.81,3.87 -12.91,8.39 -4.52,-19.35 14.19,-34.84 18.71,-15.49 45.16,-22.58 78.07,-13.55 32.9,9.03 88.39,25.81 97.42,113.55 9.03,87.75 -43.87,139.36 -70.33,151.62 -26.45,12.26 -110.97,25.16 -110.97,25.16l-605.78 1.38 -42.49 0.1z"/>
   <path class="fil13" d="M677.9 283.86c-89.51,25.43 -132.24,42.72 -187.16,140.37 -54.93,97.65 -49.84,143.42 -49.84,143.42l-64.09 -33.57c0,0 15.26,-69.17 -32.55,-91.55 -47.81,-22.38 -78.32,-4.07 -78.32,-4.07 0,0 -36.62,54.93 -27.47,87.48 9.16,32.55 44.76,62.05 44.76,62.05 0,0 17.29,98.67 72.22,162.75 54.93,64.08 103.76,84.43 135.29,73.24 31.53,-11.19 62.05,-62.05 72.22,-81.38 10.17,-19.33 12.2,-35.6 12.2,-35.6 0,0 5.09,69.17 20.35,82.39 15.26,13.22 8.14,30.52 13.22,42.72 5.08,12.21 3.21,608.57 3.21,608.57 0,0 -49.67,30.62 -73.02,31.12 -23.35,0.51 -30.46,-8.63 -40.11,-5.08 -9.65,3.55 -10.66,15.74 -10.66,15.74l156.88 -1.52 -12.69 -31.99c0,0 118.07,-348.32 124.18,-395.15 6.11,-46.83 20.37,-46.83 46.83,-12.22 26.47,34.62 221.95,335.97 221.95,335.97l48.75 79.01c0,0 -9.14,10.16 -2.54,18.79 6.6,8.63 6.6,8.63 6.6,8.63l134.03 -2.03c0,0 -5.08,-17.77 -14.73,-16.76 -9.65,1.02 -10.66,7.11 -28.94,5.08 -18.28,-2.03 -69.56,-24.37 -69.56,-24.37 0,0 -51.76,-182.51 -57.87,-243.54 -6.1,-61.03 -44.76,-248.19 -83.41,-307.19 -38.65,-59 -37.64,-84.43 -36.62,-151.56 1.02,-67.14 34.59,-106.8 34.59,-106.8l375.34 166.82c0,0 14.24,28.48 36.62,41.71 3.5,2.07 6.77,3.83 9.84,5.35 16.59,8.17 27.35,8.89 35.93,8.89 10.17,0 15.26,-27.47 15.26,-27.47 0,0 23.4,-12.2 19.33,-23.39 -4.07,-11.19 24.42,-27.47 21.36,-38.65 -3.05,-11.19 -8.14,-31.54 -34.59,-39.67 -26.45,-8.14 -27.46,5.08 -62.05,-24.42 -34.59,-29.5 -274.06,-256.93 -357.54,-328.19 -83.48,-71.27 -232.12,-128.28 -232.12,-128.28l-105.08 34.34z"/>
   <path class="fil14" d="M239.58 529.52c41.94,16.03 66.84,9.04 74.16,6.6 9.15,-3.05 14.24,-22.38 -1.02,-31.53 -15.26,-9.16 -29.5,-11.19 -29.5,-11.19 0,0 15.09,0.48 33.55,4.06 18.47,3.57 24.58,-3.06 22.92,-9.45 -1.65,-6.38 -17.45,-13.15 -25.09,-15.45 -7.64,-2.3 10.7,-7.15 23.05,-5.49 12.35,1.66 20.25,-12.38 20.25,-12.38 0,0 -1.41,10.34 -6.62,24.13 -5.22,13.79 -12.86,31.66 -8.79,36.13 4.08,4.47 5.73,8.17 16.18,4.6 10.38,-3.55 20.31,-9.24 20.44,-9.31 -0.05,7.79 -0.78,14.4 -1.41,18.68 -1.88,7.55 -5.64,16.87 -12.93,27.01 -18.28,25.39 -34.02,38.59 -34.02,38.59 0,0 26.91,66.51 43.15,74.13 16.25,7.62 68.04,54.32 108.14,28.94 40.11,-25.38 44.68,-74.63 45.19,-94.43 0.51,-19.8 6.09,-41.63 -3.05,-58.89 -9.14,-17.26 -17.77,-60.42 -2.54,-106.11 15.16,-45.46 28.18,-93.56 28.31,-94.04 33.93,-31.5 71.7,-44.27 127.94,-60.25l105.08 -34.34c0,0 43.15,16.55 96,42.96 -6.26,-2.08 -14.16,-2.82 -20.72,2.49 -13.2,10.66 -3.05,41.63 3.05,51.79 6.09,10.15 16.76,42.65 16.76,42.65l24.37 -11.68c0,0 -5.05,-38.01 3.56,-30.42 8.62,7.58 26.39,41.59 15.22,60.89 -11.17,19.29 -38.59,36.55 -60.93,32.49 -22.34,-4.06 -30.97,-6.09 -30.97,-6.09 0,0 -7.11,4.57 -26.4,36.55 -19.29,31.99 -39.6,46.71 -41.12,55.85 -1.52,9.14 -3.55,37.06 -3.55,37.06l33.33 6.94 17.32 -10.21 15.54 -27.83c0,0 7.9,21.71 3.06,49.28 -4.85,27.58 -64.95,36.26 -69.54,36.77 -4.58,0.51 49.54,18.16 92.19,19.18 42.65,1.02 75.65,-1.52 99.51,-50.27 23.86,-48.74 41.63,-104.08 41.63,-104.08 0,0 -10.66,54.83 -7.62,60.92 3.05,6.09 342.7,204.1 342.7,204.1l40.11 26.4c0,0 -7.62,9.65 -0.51,24.88 7.11,15.23 19.29,13.2 24.88,7.62 5.59,-5.59 25.39,-56.86 26.91,-61.94 1.52,-5.08 7.62,-4.57 20.31,2.03 12.69,6.6 15.74,11.68 6.6,13.71 -9.14,2.03 -26.4,1.52 -26.4,1.52 0,0 -10.66,13.2 -6.09,18.79 4.57,5.59 31.48,14.22 31.48,14.22 0,0 -25.89,-1.52 -31.48,-3.05 -5.59,-1.52 -12.19,9.14 -12.69,16.25 -0.51,7.11 17.26,17.26 17.26,17.26 0,0 -12.69,-5.59 -22.85,-4.57 -10.16,1.02 -16.76,-2.54 -16.76,6.6 0,4.03 -2.66,11.71 -5.64,19.03 -1.27,-0.71 -2.58,-1.45 -3.92,-2.24 -22.38,-13.23 -36.62,-41.71 -36.62,-41.71l-375.34 -166.82c0,0 -33.57,39.67 -34.59,106.8 -0.9,59.62 -1.81,86.35 25.08,132.91l0 0c-12.43,61.21 9.97,187.46 36.44,213.93 10.59,10.59 34.2,59.29 58.73,113.91 4.97,44.78 32.08,148.22 47.29,204.09l-27.91 26.4 -35.35 -57.31c0,0 -195.48,-301.35 -221.95,-335.97 -26.47,-34.62 -40.73,-34.62 -46.83,12.22 -5.02,38.51 -85.72,280.8 -114.26,365.74l-30.25 1.23c0.05,-17.76 0.11,-46.41 0.17,-81.7 24.04,-60.49 51.31,-148.95 56.78,-248.61 10.18,-185.29 -6.11,-266.74 -6.11,-266.74 0,0 59.81,16.53 99.49,19.59 39.67,3.05 102.74,9.15 113.92,-1.02 11.19,-10.17 8.14,-81.37 -14.24,-108.84 -22.38,-27.47 -57.98,-92.57 -92.57,-96.63 -34.59,-4.07 -82.39,-7.12 -104.77,3.05 -22.38,10.17 -35.6,31.53 -35.6,45.77 0,14.24 79.34,19.33 79.34,19.33 0,0 -61.03,-6.1 -63.07,5.08 -2.03,11.19 -4.07,28.48 7.12,36.62 11.19,8.14 73.24,13.22 73.24,13.22 0,0 -60.02,-5.08 -64.09,1.02 -4.07,6.1 1.02,33.57 12.21,33.57 11.19,0 -15.26,-7.12 -26.45,6.1 -11.19,13.22 -0.38,67.08 -36.3,104.74l-0 0c-0.53,-42.65 -1.29,-70.66 -2.35,-73.21 -5.08,-12.2 2.03,-29.5 -13.22,-42.72 -15.26,-13.22 -20.35,-82.39 -20.35,-82.39 0,0 -2.03,16.27 -12.2,35.6 -10.17,19.33 -40.69,70.19 -72.22,81.38 -31.54,11.19 -80.36,-9.16 -135.29,-73.24 -54.93,-64.09 -72.22,-162.75 -72.22,-162.75 0,0 -33.03,-27.37 -43.64,-58.48z"/>
   <path class="fil15" d="M287.58 607.63c35.38,13.84 60.74,-8.46 64.55,-17.06 4.38,-9.88 20.4,-47.54 20.4,-47.54l4.86 -8.64 63.5 33.27c0,0 -5.08,-45.78 49.85,-143.42 54.93,-97.66 97.65,-114.94 187.16,-140.37l105.08 -34.34c0,0 148.64,57.01 232.12,128.28 83.48,71.26 322.95,298.69 357.54,328.19 1.83,1.56 3.55,2.99 5.2,4.32 -21.89,14.8 -53.48,42.57 -65.39,85.12l-356.86 -158.61c0,0 -33.57,39.67 -34.58,106.81 -1.02,67.13 -2.03,92.56 36.62,151.56 38.65,59 77.3,246.16 83.41,307.2 4.85,48.56 38.61,174 52.21,223.26l-24.61 22.2 -43.35 -70.27c0,0 -195.48,-301.36 -221.95,-335.97 -26.47,-34.61 -40.73,-34.61 -46.83,12.22 -5.41,41.46 -98.54,319.13 -119.84,382.32l-24.71 -1.68c0.18,-63.25 1.56,-590.86 -3.22,-602.34 -5.09,-12.2 2.03,-29.5 -13.22,-42.72 -15.26,-13.22 -20.34,-82.39 -20.34,-82.39 0,0 -2.03,16.27 -12.21,35.6 -10.17,19.33 -40.69,70.19 -72.22,81.38 -31.54,11.19 -80.36,-9.16 -135.29,-73.24 -39.82,-46.46 -59.86,-111.09 -67.87,-143.12z"/>
   <path class="fil16" d="M645.86 562.85c28.19,65.13 226.45,-52.95 226.45,-52.95 0,0 -113.57,110.53 -182.51,124.02 -68.94,13.49 -43.95,-71.07 -43.95,-71.07z"/>
   <path class="fil17" d="M681.72 690.99l11.11 -36.57 14.77 1.27 -22.7 74.83 -9.53 -0.82 -17.64 -40.76c-1.39,-3.06 -2.68,-6.52 -3.85,-10.36l-0.54 -0.05c-1.42,5.63 -2.28,8.93 -2.57,9.92l-11.58 38.15 -14.66 -1.26 22.69 -74.83 11.02 0.95 16.61 38.95c1.93,4.34 3.22,7.79 3.86,10.36l0.64 0.06c0.67,-3.54 1.45,-6.82 2.36,-9.83zm41.3 -33.98l14.67 1.25 -22.7 74.83 -14.66 -1.26 22.7 -74.83zm7.38 77.41l22.7 -74.83 14.56 1.25 -6.64 22.07c-0.78,2.37 -1.63,4.75 -2.55,7.11l0.64 0.06c3.85,-3.77 6.19,-5.98 7.04,-6.62l26.34 -20.5 20.34 1.75 -43.34 32.62 20.22 42.17 -17.45 -1.49 -14.54 -31.66 -4.94 3.57 -7.81 25.75 -14.56 -1.25zm113.57 9.74l-45.07 -3.86 22.7 -74.83 45.07 3.86 -4.22 13.98 -30.4 -2.6 -4.48 14.5 29.54 2.54 -4.23 14.09 -29.54 -2.53 -5.55 18.17 30.41 2.61 -4.23 14.09z"/>
   <path class="fil18" d="M572.39 545.53c41.64,40.1 118.68,25.05 118.68,25.05l20.81 7.29c0,0 -29.91,14.89 -65.52,15.44 -35.61,0.55 -75.61,-22.52 -75.61,-22.52l1.64 -25.27z"/>
   <path class="fil18" d="M774.86 583.81c50.12,37.52 183.26,41.92 183.26,41.92l9.31 -23.07c0,0 -56.43,3.3 -107.39,-8.79 -50.96,-12.09 -58.17,-19.86 -58.17,-19.86l-27.02 9.79z"/>
   <path class="fil18" d="M603.39 788.55c68.67,42.38 266.92,42.76 294.73,35.83 27.81,-6.93 27.81,-6.93 27.81,-6.93l9.6 27.17c0,0 -84.38,17.99 -169.56,4.88 -85.18,-13.1 -157.24,-28.99 -157.24,-28.99l-5.34 -31.96z"/>
   <path class="fil19" d="M287.58 607.63c19.78,7.73 36.42,4.18 47.92,-1.96 8.45,19.28 26.36,57.32 38.42,62.97 16.25,7.62 68.03,54.32 108.14,28.94 40.11,-25.39 44.68,-74.63 45.19,-94.43 0.51,-19.8 6.09,-41.63 -3.05,-58.89 -9.14,-17.26 -17.77,-60.42 -2.54,-106.11 15.16,-45.46 28.18,-93.56 28.31,-94.04 33.93,-31.5 71.7,-44.27 127.94,-60.25l105.08 -34.34c0,0 43.15,16.56 96,42.96 -6.26,-2.08 -14.16,-2.82 -20.72,2.48 -13.2,10.66 -3.05,41.64 3.05,51.79 6.09,10.16 16.76,42.65 16.76,42.65l24.37 -11.68c0,0 -5.05,-38.01 3.57,-30.43 8.62,7.58 26.39,41.6 15.22,60.89 -11.17,19.29 -38.59,36.55 -60.93,32.5 -22.34,-4.06 -30.97,-6.1 -30.97,-6.1 0,0 -7.11,4.57 -26.4,36.56 -19.3,31.99 -39.6,46.71 -41.12,55.85 -1.52,9.14 -3.55,37.07 -3.55,37.07l33.33 6.94 17.32 -10.21 15.54 -27.83c0,0 7.9,21.7 3.05,49.28 -4.84,27.58 -64.95,36.26 -69.54,36.77 -4.58,0.51 49.54,18.17 92.19,19.18 42.65,1.02 75.65,-1.52 99.51,-50.27 23.86,-48.74 41.63,-104.08 41.63,-104.08 0,0 -10.66,54.83 -7.62,60.93 3.05,6.09 342.7,204.09 342.7,204.09l6.62 4.35c-8.61,12.01 -15.98,26.05 -20.52,42.23l-356.86 -158.61c0,0 -33.57,39.67 -34.58,106.81 -0.9,59.62 -1.81,86.35 25.08,132.91l0 0c-12.43,61.21 9.97,187.46 36.44,213.93 10.59,10.58 34.2,59.29 58.73,113.91 4.97,44.78 32.09,148.22 47.29,204.1l-27.91 26.4 -35.35 -57.31c0,0 -195.48,-301.36 -221.95,-335.97 -26.47,-34.61 -40.73,-34.61 -46.83,12.22 -5.02,38.51 -85.73,280.8 -114.26,365.74l-30.25 1.23c0.05,-17.76 0.11,-46.41 0.17,-81.7 24.04,-60.49 51.31,-148.95 56.78,-248.61 10.18,-185.29 -6.11,-266.74 -6.11,-266.74 0,0 59.81,16.54 99.49,19.59 39.66,3.05 102.74,9.15 113.92,-1.02 11.19,-10.17 8.14,-81.37 -14.24,-108.84 -22.38,-27.47 -57.98,-92.56 -92.57,-96.64 -34.59,-4.06 -82.39,-7.11 -104.77,3.05 -22.38,10.17 -35.6,31.54 -35.6,45.77 0,14.24 79.34,19.33 79.34,19.33 0,0 -61.03,-6.1 -63.07,5.08 -2.03,11.19 -4.07,28.48 7.12,36.62 11.19,8.14 73.24,13.22 73.24,13.22 0,0 -60.02,-5.08 -64.09,1.02 -4.07,6.1 1.02,33.57 12.21,33.57 11.19,0 -15.26,-7.12 -26.45,6.1 -11.19,13.22 -0.38,67.08 -36.3,104.74l-0 0c-0.53,-42.65 -1.29,-70.66 -2.35,-73.21 -5.09,-12.2 2.03,-29.5 -13.22,-42.72 -15.26,-13.22 -20.34,-82.39 -20.34,-82.39 0,0 -2.03,16.27 -12.21,35.6 -10.17,19.33 -40.69,70.19 -72.22,81.38 -31.54,11.19 -80.36,-9.16 -135.29,-73.24 -39.82,-46.46 -59.86,-111.09 -67.87,-143.12z"/>
   <path class="fil20" d="M726.25 78.19c6.09,13.71 -26.91,37.57 -26.91,45.69 0,8.12 -10.66,13.71 -12.19,5.08 -1.52,-8.63 5.08,-16.76 5.08,-16.76 0,0 -13.2,-6.09 -23.86,1.02 -10.66,7.11 -23.36,44.17 -23.36,44.17 0,0 -10.16,31.99 -24.88,40.11 -14.72,8.12 -36.55,33.51 -40.11,17.77 -3.55,-15.74 4.57,-15.74 4.57,-15.74 0,0 -4.06,-6.09 -14.73,8.63 -10.66,14.72 -7.62,32.49 2.54,36.55 10.16,4.06 17.26,8.12 17.26,8.12 0,0 -11.17,43.16 -22.34,44.17 -11.17,1.02 -16.25,-12.69 -9.14,-18.28 7.11,-5.58 7.11,-6.09 7.11,-6.09 0,0 -16.75,-4.06 -17.26,15.23 -0.51,19.3 12.69,25.9 12.69,25.9l-19.29 38.08c0,0 31.48,-34.02 38.59,-30.97 7.11,3.05 -6.6,41.63 -0.51,72.6 6.09,30.97 22.34,84.79 3.55,93.42 -18.79,8.63 -46.71,11.17 -46.71,-9.14 0,-20.31 11.17,-27.92 11.17,-27.92 0,0 -21.32,9.14 -17.77,37.06 3.55,27.93 37.25,38.05 64.71,30.93 27.47,-7.12 33.57,-14.24 33.57,-14.24 0,0 12.2,65.1 107.82,79.34 95.62,14.24 86.46,-55.95 86.46,-55.95 0,0 -10.17,35.6 -30.52,37.63 -20.34,2.03 -36.62,-16.27 -37.63,-39.67 -1.02,-23.4 54.93,-78.32 61.03,-95.62 6.1,-17.29 6.1,-17.29 6.1,-17.29 0,0 43.74,20.34 62.05,9.15 18.31,-11.19 31.54,-14.24 31.54,-46.79 0,-32.55 -31.54,-44.76 -31.54,-44.76 0,0 28.48,30.52 7.12,45.77 -21.36,15.26 -16.28,11.19 -32.55,-13.22 -16.28,-24.41 -26.45,-79.34 -26.45,-79.34 0,0 11.19,-12.21 26.45,-7.12 15.26,5.09 34.59,20.35 34.59,20.35 0,0 27.46,7.12 39.67,-22.38 12.2,-29.5 -17.29,-40.68 -17.29,-40.68 0,0 16.27,16.27 1.02,24.41 -15.26,8.14 -17.29,12.2 -44.75,-15.26 -27.47,-27.47 -27.47,-27.47 -27.47,-27.47 0,0 21.36,-17.29 8.14,-32.55 -13.22,-15.26 -27.47,-19.33 -27.47,-19.33 0,0 12.21,14.24 6.1,21.36 -6.1,7.12 -13.22,8.14 -13.22,8.14l-48.83 -44.76c0,0 2,-0.42 0.47,-17.53 -1.53,-17.11 -23.69,-34.98 -23.69,-34.98 0,0 7.39,6.89 9.17,16.59 1.78,9.7 -11.97,25.54 -23.18,21.45 -11.21,-4.08 -18.85,-4.09 -11.97,-19.15 6.88,-15.06 14.77,-30.13 7.02,-35.75z"/>
   <path class="fil21" d="M646.04 293.45c8.12,-16.25 -1.02,-22.34 -12.19,-22.34 -11.17,0 -20.82,11.68 -28.43,37.57 -7.62,25.9 15.74,75.14 15.74,75.14 0,0 21.83,-20.82 43.66,-12.19 21.83,8.63 17.77,10.16 17.77,10.16 0,0 -32.5,-13.71 -39.1,9.14 -6.6,22.85 16.25,59.91 35.54,70.57 19.29,10.66 19.29,10.66 19.29,10.66 0,0 -22.34,-22.85 -4.57,-53.31 17.77,-30.46 35.54,-50.26 31.48,-66 -4.06,-15.74 -10.16,-30.46 -10.16,-30.46 0,0 26.4,14.72 15.74,45.69 -10.66,30.97 -19.3,57.88 -5.59,77.68 13.71,19.8 29.45,23.35 43.16,2.54 13.71,-20.82 36.05,-85.29 33,-115.75 -3.05,-30.47 -12.69,-38.59 -18.79,-34.02 -6.09,4.57 -5.08,28.44 -5.08,28.44 0,0 -11.17,-11.17 -5.59,-25.9 5.59,-14.72 20.31,-17.77 30.97,-10.16 10.66,7.62 10.16,-9.65 9.65,-25.89 -0.51,-16.25 -5.08,-37.06 -10.66,-50.26 -5.59,-13.2 -12.19,-21.83 -12.19,-21.83l-146.72 0.51c0,0 -27.93,29.96 -33.51,47.22 -5.59,17.26 -5.59,17.26 -5.59,17.26 0,0 14.22,-7.62 32.5,-3.55 18.28,4.06 26.91,26.4 9.65,39.09z"/>
   <path class="fil22" d="M691.22 221.36c0,0 -23.87,7.11 -27.93,-2.54 -4.06,-9.65 -11.68,-12.69 23.86,-13.71 35.54,-1.02 69.56,-5.58 68.54,0 -1.02,5.59 -3.55,15.23 -13.2,16.25 -9.65,1.02 -22.85,-6.09 -22.85,-6.09 0,0 7.11,9.14 2.54,15.74 -4.57,6.6 -28.44,6.6 -30.47,2.54 -2.03,-4.06 -0.51,-12.19 -0.51,-12.19z"/>
   <path class="fil4" d="M681.21 205.64c3.42,0 6.19,2.62 6.19,5.86 0,3.23 -2.77,5.85 -6.19,5.85 -3.41,0 -6.18,-2.62 -6.18,-5.85 0,-3.23 2.77,-5.86 6.18,-5.86z"/>
   <path class="fil4" d="M734.44 203.01c3.62,0 6.56,2.7 6.56,6.02 0,3.33 -2.94,6.02 -6.56,6.02 -3.62,0 -6.56,-2.7 -6.56,-6.02 0,-3.33 2.94,-6.02 6.56,-6.02z"/>
   <polygon class="fil23" points="638.42,181.76 637.91,74.13 654.67,169.57 671.42,169.06 679.54,121.34 687.67,168.05 708.48,167.03 714.07,144.19 720.67,168.05 740.47,168.56 748.08,116.26 756.71,167.03 770.93,167.54 786.16,73.62 787.18,186.33 638.87,186.2 "/>
   <polygon class="fil23" points="1358.34,924.01 1377.4,850.7 1390.89,856.24 1212.12,1481.97 1203.8,1467.44 "/>
   <path class="fil23" d="M1413.68 723.47c-0.23,3.48 161.95,-546.28 161.95,-546.28l2.88 0.96 -148.5 549.11 -17.96 -0.41 1.63 -3.38z"/>
   <polygon class="fil23" points="1550.25,202.57 1571.76,190.3 1585.28,213.23 1627.93,0 "/>
   <path class="fil23" d="M1418.24 199.02l79.2 -132c0,0 -59.91,126.42 -49.25,194.45 10.66,68.03 35.03,71.08 50.27,72.1 15.23,1.02 36.49,-18.56 44.61,-46.07 8.12,-27.51 14.66,-32.95 12.39,-33.63 -2.26,-0.67 -29.8,106.48 -29.8,106.48 0,0 -37.19,19.66 -65.72,-17.11 -28.53,-36.77 -20.38,-112.1 -19.36,-124.61 1.02,-12.51 2.8,-24.77 2.8,-24.77l-25.14 5.16z"/>
   <path class="fil23" d="M1702.38 282.34l9.64 -153.64c0,0 -22.36,138.1 -69.73,188.08 -47.37,49.98 -69.17,38.67 -82.29,30.86 -13.12,-7.8 -19.52,-35.98 -10.61,-63.25 8.91,-27.26 6.62,-35.45 8.87,-34.72 2.24,0.73 -35.85,104.6 -35.85,104.6 0,0 19.47,37.29 63.82,23.19 44.35,-14.11 80.36,-80.77 86.62,-91.65 6.26,-10.88 11.74,-21.99 11.74,-21.99l17.78 18.51z"/>
   <path class="fil24" d="M486.02 1472.52c155.7,-67.7 205.01,-64.88 280.26,-31.14 75.26,33.74 166.08,-2.6 166.08,-2.6 0,0 -108.47,57.42 -148.76,42.43 -40.28,-14.98 -132.56,-65.14 -297.59,-8.7z"/>
   <path class="fil2 str0" d="M484.22 1177.6c145.14,0 262.84,117.7 262.84,262.84 0,145.14 -117.7,262.84 -262.84,262.84 -145.14,0 -262.84,-117.7 -262.84,-262.84 0,-145.14 117.7,-262.84 262.84,-262.84z"/>
   <path class="fil16 str0" d="M484.22 1184.58c141.28,0 255.86,114.57 255.86,255.86 0,141.28 -114.57,255.86 -255.86,255.86 -141.28,0 -255.86,-114.58 -255.86,-255.86 0,-141.28 114.58,-255.86 255.86,-255.86z"/>
   <path class="fil2 str0" d="M484.22 1192.74c136.77,0 247.69,110.92 247.69,247.69 0,136.77 -110.92,247.69 -247.69,247.69 -136.77,0 -247.69,-110.92 -247.69,-247.69 0,-136.77 110.92,-247.69 247.69,-247.69z"/>
   <path class="fil24" d="M761.81 1550.7c155.7,-67.7 205.01,-64.88 280.26,-31.14 75.26,33.74 166.08,-2.6 166.08,-2.6 0,0 -108.47,57.42 -148.76,42.43 -40.28,-14.98 -132.56,-65.14 -297.59,-8.7z"/>
   <path class="fil24" d="M1093.09 1600.42c103.81,-33.85 136.68,-32.44 186.86,-15.57 50.18,16.87 110.73,-1.3 110.73,-1.3 0,0 -72.32,28.71 -99.18,21.21 -26.86,-7.49 -88.38,-32.56 -198.41,-4.35z"/>
   <path class="fil24" d="M1252.45 1529.23c155.7,-67.7 205.01,-64.88 280.26,-31.14 75.26,33.74 166.08,-2.6 166.08,-2.6 0,0 -108.47,57.42 -148.76,42.43 -40.28,-14.98 -132.56,-65.14 -297.59,-8.7z"/>
   <path class="fil2" d="M649.38 1856.27c5.01,0 9.07,3.19 9.07,7.12 0,3.93 -4.06,7.12 -9.07,7.12 -5.01,0 -9.07,-3.19 -9.07,-7.12 0,-3.93 4.06,-7.12 9.07,-7.12z"/>
   <path class="fil2" d="M675.69 1790.67c3.7,0 6.7,2.7 6.7,6.01 0,3.32 -3,6.01 -6.7,6.01 -3.7,0 -6.7,-2.7 -6.7,-6.01 0,-3.32 3,-6.01 6.7,-6.01z"/>
   <path class="fil2" d="M649.02 1770.32c2.39,0 4.33,1.96 4.33,4.37 0,2.41 -1.94,4.37 -4.33,4.37 -2.39,0 -4.33,-1.96 -4.33,-4.37 0,-2.41 1.94,-4.37 4.33,-4.37z"/>
   <path class="fil2" d="M672.74 1744.16c1.08,0 1.96,0.99 1.96,2.2 0,1.22 -0.88,2.2 -1.96,2.2 -1.09,0 -1.97,-0.98 -1.97,-2.2 0,-1.21 0.88,-2.2 1.97,-2.2z"/>
   <path class="fil2" d="M639.6 1688.54c1.08,0 1.96,0.99 1.96,2.2 0,1.22 -0.88,2.2 -1.96,2.2 -1.09,0 -1.97,-0.98 -1.97,-2.2 0,-1.21 0.88,-2.2 1.97,-2.2z"/>
   <path class="fil2" d="M583.5 1701.81c1.08,0 1.96,0.99 1.96,2.2 0,1.22 -0.88,2.2 -1.96,2.2 -1.09,0 -1.97,-0.98 -1.97,-2.2 0,-1.21 0.88,-2.2 1.97,-2.2z"/>
   <path class="fil2" d="M614.25 1808.65c1.08,0 1.96,0.99 1.96,2.2 0,1.22 -0.88,2.2 -1.96,2.2 -1.09,0 -1.97,-0.98 -1.97,-2.2 0,-1.21 0.88,-2.2 1.97,-2.2z"/>
   <path class="fil2" d="M645.45 1875.49c1.08,0 1.96,0.99 1.96,2.2 0,1.22 -0.88,2.2 -1.96,2.2 -1.09,0 -1.97,-0.98 -1.97,-2.2 0,-1.21 0.88,-2.2 1.97,-2.2z"/>
   <path class="fil2" d="M640.9 1942.83c1.08,0 1.96,0.99 1.96,2.2 0,1.22 -0.88,2.2 -1.96,2.2 -1.09,0 -1.97,-0.98 -1.97,-2.2 0,-1.21 0.88,-2.2 1.97,-2.2z"/>
   <path class="fil2" d="M610.53 1720.27c1.08,0 1.96,0.99 1.96,2.2 0,1.22 -0.88,2.2 -1.96,2.2 -1.09,0 -1.97,-0.98 -1.97,-2.2 0,-1.21 0.88,-2.2 1.97,-2.2z"/>
   <path class="fil2" d="M650.32 1670.95c2.33,0 4.23,2.13 4.23,4.74 0,2.62 -1.9,4.74 -4.23,4.74 -2.34,0 -4.23,-2.13 -4.23,-4.74 0,-2.62 1.9,-4.74 4.23,-4.74z"/>
   <path class="fil2" d="M604.29 1708.95c3.59,0 6.5,3.26 6.5,7.28 0,4.02 -2.91,7.29 -6.5,7.29 -3.59,0 -6.5,-3.27 -6.5,-7.29 0,-4.02 2.91,-7.28 6.5,-7.28z"/>
   <path class="fil2" d="M652.38 1658.2c4.84,0 8.77,4.4 8.77,9.83 0,5.42 -3.93,9.83 -8.77,9.83 -4.85,0 -8.77,-4.4 -8.77,-9.83 0,-5.42 3.93,-9.83 8.77,-9.83z"/>
   <path class="fil13" d="M1085.4 1505.98c33.14,5.21 53.61,-5.21 72.45,-4.89 18.84,0.33 42.56,6.51 42.56,6.51 0,0 -34.76,-5.21 -47.11,0.33 -12.35,5.54 -67.91,-1.95 -67.91,-1.95z"/>
   <path class="fil2" d="M1105.53 1519.09c17.55,0 37.69,1.4 37.69,1.4 0,0 -16.9,2.52 -36.39,3.08 -19.49,0.56 -24.04,-1.4 -24.04,-1.4l22.74 -3.08z"/>
   <path class="fil2" d="M1080.19 1535.6c14.3,0.28 16.25,1.68 24.04,1.12 7.8,-0.56 20.79,0 20.79,0 0,0 -22.09,3.92 -33.14,4.48 -11.05,0.56 -25.99,-1.96 -25.99,-1.96l14.29 -3.64z"/>
   <path class="fil2" d="M1068.44 1125.43c71.89,10.01 161.76,77.08 161.76,77.08 0,0 -63.91,-76.08 -161.76,-77.08z"/>
   <path class="fil2" d="M1133.88 1174.48c26.1,11.74 54.87,29.17 67.91,39.9 13.04,10.74 -67.91,-39.9 -67.91,-39.9z"/>
   <path class="fil6" d="M1068.58 926.54c21.61,-7.82 47.44,1.3 42.73,5.53 -4.71,4.23 -7.47,6.19 11.86,5.7 19.33,-0.49 48.57,22.96 48.57,22.96 0,0 -24.04,-12.05 -38.34,-12.7 -14.3,-0.65 -32,2.12 -33.79,-1.79 -1.79,-3.91 3.25,-5.38 -0.81,-6.35 -4.06,-0.97 -25.5,3.42 -25.5,3.42l-4.71 -16.77z"/>
   <g>
    <path class="fil2" d="M1703.98 1373.83l0 -8.6 46.55 0 59.79 47.2 0 -47.2 62.31 0 0 139.68 -46.55 0 -59.79 -47.2 0 47.2 -62.31 0 0 -8.78c-3.76,2.08 -7.7,3.81 -11.79,5.19 -7.16,2.4 -14.63,3.56 -22.23,3.59l-46.26 0c-7.56,-0.03 -15.05,-1.19 -22.22,-3.6 -6.91,-2.32 -13.37,-5.64 -19.22,-9.93 -3.61,-2.63 -6.94,-5.58 -9.94,-8.81 -2.99,3.2 -6.27,6.12 -9.82,8.74 -5.87,4.31 -12.36,7.65 -19.29,9.98 -7.16,2.4 -14.64,3.58 -22.23,3.61l-275.09 0 0 -2.62c-5.25,1.72 -10.74,2.59 -16.34,2.62l-86.42 0c-6.95,-0.04 -13.73,-1.45 -20.1,-4.19 -5.44,-2.33 -10.38,-5.52 -14.75,-9.46 -0.05,0.03 -0.09,0.07 -0.14,0.1 -5.88,4.3 -12.35,7.63 -19.26,9.96 -7.16,2.4 -14.63,3.56 -22.23,3.59l-46.26 0c-7.56,-0.03 -15.05,-1.19 -22.22,-3.6 -6.91,-2.32 -13.37,-5.64 -19.22,-9.93 -5.87,-4.28 -10.97,-9.37 -15.21,-15.2 -2.26,-3.08 -4.25,-6.32 -5.97,-9.71 -6.24,2.54 -12.86,3.79 -19.66,3.82l-61.3 0 0 34.61 -62.31 0 0 -139.68 123.68 0c6.99,0.04 13.9,1.41 20.41,4.14 6.23,2.66 11.84,6.4 16.54,11.11 0.17,0.17 0.34,0.34 0.51,0.5 1.15,-0.93 2.34,-1.83 3.56,-2.69 5.87,-4.18 12.32,-7.39 19.21,-9.64 7.1,-2.29 14.52,-3.4 22.02,-3.43l46.26 0c7.44,0.03 14.84,1.15 21.97,3.44 6.85,2.24 13.32,5.46 19.18,9.63 1.43,1.02 2.82,2.08 4.16,3.2 0.53,-0.59 1.08,-1.17 1.65,-1.74 4.4,-4.36 9.57,-7.89 15.27,-10.39 6.02,-2.63 12.51,-3.96 19.16,-4.01l88.07 0c3.29,0.02 6.54,0.36 9.73,1.02l0 -1.14 275.15 0c7.39,0.03 14.74,1.14 21.83,3.39 6.85,2.21 13.33,5.41 19.2,9.56 3.73,2.63 7.17,5.61 10.3,8.91 3.09,-3.26 6.48,-6.2 10.15,-8.8 5.87,-4.18 12.32,-7.39 19.21,-9.64 7.1,-2.29 14.52,-3.4 22.02,-3.43l46.26 0c7.44,0.03 14.84,1.15 21.97,3.44 4.16,1.36 8.17,3.08 12,5.15zm-629.52 60.87c-0,-0.83 -0.12,-1.8 -0.51,-2.68 -0.37,-0.85 -0.87,-1.58 -1.57,-2.25 -0.75,-0.73 -1.59,-1.24 -2.52,-1.63 -1.09,-0.45 -2.17,-0.59 -3.28,-0.59l-46.03 0c-1.18,0 -2.29,0.14 -3.35,0.58 -0.92,0.38 -1.79,0.9 -2.57,1.66 -0.67,0.64 -1.16,1.38 -1.52,2.22 -0.38,0.87 -0.49,1.76 -0.49,2.58 0,1.08 0.15,2.07 0.56,3.06 0.43,1 1,1.88 1.82,2.71 0.72,0.73 1.57,1.28 2.49,1.68 0.99,0.42 1.96,0.58 2.99,0.58l46.05 0c1.07,-0 2.01,-0.17 2.98,-0.58 0.98,-0.42 1.81,-0.98 2.59,-1.76 0.76,-0.76 1.34,-1.65 1.79,-2.7 0.41,-0.96 0.56,-2.02 0.56,-2.87zm398.89 -7.16l0 15.06 47.53 0c1.02,-0 1.98,-0.15 2.94,-0.56 0.97,-0.42 1.82,-0.97 2.6,-1.75 0.79,-0.8 1.37,-1.69 1.82,-2.75 0.41,-0.96 0.55,-2 0.56,-2.91 -0,-0.79 -0.11,-1.8 -0.49,-2.66 -0.37,-0.85 -0.85,-1.58 -1.56,-2.26 -0.7,-0.68 -1.5,-1.19 -2.43,-1.57 -1.11,-0.45 -2.28,-0.6 -3.4,-0.61l-47.57 0zm204.42 7.16c-0,-0.83 -0.12,-1.8 -0.51,-2.68 -0.37,-0.85 -0.87,-1.58 -1.57,-2.25 -0.75,-0.73 -1.59,-1.24 -2.52,-1.63 -1.09,-0.45 -2.17,-0.59 -3.28,-0.59l-46.03 0c-1.18,0 -2.29,0.14 -3.35,0.58 -0.92,0.38 -1.79,0.9 -2.57,1.66 -0.67,0.64 -1.16,1.38 -1.52,2.22 -0.38,0.87 -0.49,1.76 -0.49,2.58 0,1.08 0.15,2.07 0.56,3.06 0.43,1 1,1.88 1.82,2.71 0.72,0.73 1.57,1.28 2.49,1.68 0.99,0.42 1.96,0.58 2.99,0.58l46.05 0c1.07,-0 2.01,-0.17 2.98,-0.58 0.98,-0.42 1.81,-0.98 2.59,-1.76 0.76,-0.76 1.34,-1.65 1.79,-2.7 0.41,-0.96 0.56,-2.02 0.56,-2.87z"/>
   </g>
   <path class="fil17" d="M966.55 1417.71c-0.02,-3.95 -0.77,-7.63 -2.23,-11.04 -1.49,-3.43 -3.51,-6.44 -6.13,-9.01 -2.59,-2.6 -5.62,-4.62 -9.05,-6.09 -3.43,-1.44 -7.11,-2.19 -11.06,-2.21l-99.45 0 0 91.42 14.05 0 0 -34.61 85.4 0c3.95,-0.02 7.63,-0.77 11.06,-2.24 3.43,-1.44 6.46,-3.47 9.05,-6.08 2.61,-2.59 4.64,-5.6 6.13,-9.03 1.46,-3.44 2.21,-7.15 2.23,-11.11zm-14.17 0c-0.02,2.65 -0.67,5.06 -1.94,7.21 -1.28,2.15 -2.99,3.86 -5.12,5.14 -2.15,1.25 -4.56,1.92 -7.23,1.94l-85.4 0 0 -28.59 85.4 0c2.67,0.02 5.08,0.69 7.23,1.98 2.13,1.28 3.84,2.99 5.12,5.14 1.28,2.15 1.92,4.53 1.94,7.17zm160.39 16.93c-0.02,-5.12 -0.79,-9.95 -2.36,-14.48 -1.55,-4.56 -3.72,-8.69 -6.54,-12.46 -2.82,-3.74 -6.17,-7 -9.99,-9.72 -3.85,-2.74 -8.07,-4.85 -12.67,-6.35 -4.62,-1.49 -9.47,-2.24 -14.59,-2.26l-46.15 0c-5.14,0.02 -10.01,0.77 -14.63,2.26 -4.6,1.5 -8.82,3.61 -12.67,6.35 -3.84,2.71 -7.17,5.98 -9.97,9.72 -2.82,3.76 -5,7.9 -6.54,12.46 -1.54,4.53 -2.32,9.37 -2.34,14.48 0.02,5.14 0.79,10.01 2.34,14.63 1.55,4.6 3.72,8.82 6.54,12.66 2.8,3.85 6.12,7.17 9.97,9.97 3.85,2.82 8.07,5 12.67,6.54 4.62,1.55 9.49,2.32 14.63,2.34l46.15 0c5.12,-0.02 9.97,-0.79 14.59,-2.34 4.6,-1.54 8.82,-3.72 12.67,-6.54 3.82,-2.8 7.17,-6.12 9.99,-9.97 2.82,-3.84 4.99,-8.07 6.54,-12.66 1.57,-4.62 2.34,-9.49 2.36,-14.63zm-14.17 0c-0.02,4.46 -0.86,8.61 -2.53,12.48 -1.65,3.87 -3.95,7.28 -6.88,10.2 -2.93,2.94 -6.31,5.25 -10.16,6.89 -3.87,1.65 -7.99,2.51 -12.41,2.53l-46.15 0c-4.45,-0.02 -8.59,-0.88 -12.46,-2.53 -3.84,-1.65 -7.25,-3.95 -10.16,-6.89 -2.93,-2.93 -5.2,-6.33 -6.86,-10.2 -1.65,-3.87 -2.48,-8.02 -2.51,-12.48 0.02,-4.41 0.86,-8.51 2.51,-12.29 1.65,-3.78 3.93,-7.09 6.86,-9.91 2.9,-2.84 6.31,-5.04 10.16,-6.63 3.87,-1.58 8.01,-2.38 12.46,-2.4l46.15 0c4.43,0.02 8.55,0.82 12.41,2.4 3.84,1.59 7.23,3.78 10.16,6.63 2.93,2.82 5.23,6.12 6.88,9.91 1.67,3.78 2.51,7.88 2.53,12.29zm159.39 17.81c-0.02,-3.91 -0.77,-7.59 -2.26,-11.02 -1.48,-3.43 -3.53,-6.43 -6.15,-9.05 -2.61,-2.61 -5.62,-4.66 -9.05,-6.15 -3.43,-1.48 -7.08,-2.24 -11.01,-2.26l-81.38 0c-1.9,-0.02 -3.66,-0.52 -5.27,-1.51 -1.61,-0.98 -2.91,-2.28 -3.89,-3.89 -0.98,-1.61 -1.48,-3.37 -1.51,-5.27 0.02,-1.94 0.54,-3.66 1.55,-5.14 0.98,-1.49 2.28,-2.64 3.89,-3.49 1.61,-0.84 3.37,-1.25 5.23,-1.28l87.9 0c1.47,0 2.88,0.25 4.24,0.75 1.36,0.5 2.59,1.25 3.66,2.26l9.53 -9.65c-2.34,-2.34 -5.02,-4.12 -8.01,-5.37 -2.99,-1.26 -6.12,-1.88 -9.42,-1.91l-87.9 0c-3.39,0.02 -6.56,0.69 -9.53,1.99 -2.99,1.31 -5.62,3.11 -7.92,5.39 -2.28,2.3 -4.07,4.93 -5.39,7.9 -1.3,2.99 -1.97,6.16 -1.98,9.55 0.02,3.41 0.71,6.54 2.03,9.41 1.34,2.88 3.14,5.39 5.46,7.52 2.3,2.13 4.93,3.78 7.92,4.97 2.97,1.17 6.1,1.78 9.43,1.8l81.38 0c1.92,0.02 3.76,0.39 5.48,1.17 1.71,0.77 3.22,1.84 4.53,3.17 1.34,1.34 2.38,2.87 3.14,4.6 0.75,1.71 1.15,3.55 1.15,5.48 0,1.92 -0.4,3.74 -1.15,5.45 -0.75,1.71 -1.8,3.24 -3.14,4.56 -1.32,1.34 -2.82,2.36 -4.53,3.14 -1.72,0.75 -3.55,1.13 -5.48,1.15l-86.15 0c-1.9,-0.02 -3.72,-0.39 -5.43,-1.15 -1.74,-0.75 -3.26,-1.78 -4.6,-3.11l-9.91 9.91c2.67,2.65 5.7,4.7 9.11,6.16 3.41,1.47 6.96,2.21 10.7,2.24l86.27 0c3.93,-0.02 7.59,-0.77 11.01,-2.24 3.43,-1.48 6.44,-3.51 9.05,-6.1 2.61,-2.59 4.66,-5.6 6.15,-9.01 1.48,-3.43 2.24,-7.09 2.26,-10.99zm139.82 28.34l0 -14.05 -113.74 0 0 -28.72 99.57 0 0 -14.05 -99.57 0 0 -20.57 106.72 0 0 -14.05 -120.76 0 0 91.42 127.79 0zm23.82 0l0 -91.42 -14.05 0 0 91.42 14.05 0zm145.47 -46.15c-0.02,-5.16 -0.81,-10.01 -2.36,-14.59 -1.57,-4.56 -3.76,-8.71 -6.58,-12.46 -2.82,-3.74 -6.17,-6.98 -10.01,-9.7 -3.84,-2.72 -8.07,-4.81 -12.67,-6.29 -4.6,-1.47 -9.42,-2.21 -14.52,-2.24l-85.78 0 0 91.42 85.78 0c5.12,-0.02 9.97,-0.81 14.59,-2.36 4.6,-1.55 8.82,-3.72 12.66,-6.54 3.83,-2.82 7.17,-6.16 9.99,-10.01 2.82,-3.83 4.99,-8.05 6.54,-12.67 1.57,-4.6 2.34,-9.45 2.36,-14.57zm-14.17 0c-0.02,4.41 -0.86,8.57 -2.51,12.41 -1.65,3.87 -3.93,7.28 -6.86,10.22 -2.9,2.94 -6.29,5.25 -10.16,6.92 -3.85,1.67 -8.01,2.53 -12.46,2.55l-71.73 0 0 -63.33 71.73 0c4.45,0.02 8.61,0.82 12.46,2.38 3.87,1.57 7.25,3.78 10.16,6.6 2.93,2.82 5.2,6.12 6.86,9.91 1.65,3.76 2.48,7.88 2.51,12.33zm163.15 0c-0.02,-5.12 -0.79,-9.95 -2.36,-14.48 -1.55,-4.56 -3.72,-8.69 -6.54,-12.46 -2.82,-3.74 -6.17,-7 -9.99,-9.72 -3.85,-2.74 -8.07,-4.85 -12.67,-6.35 -4.62,-1.49 -9.47,-2.24 -14.59,-2.26l-46.15 0c-5.14,0.02 -10.01,0.77 -14.63,2.26 -4.6,1.5 -8.82,3.61 -12.67,6.35 -3.84,2.71 -7.17,5.98 -9.97,9.72 -2.82,3.76 -5,7.9 -6.54,12.46 -1.54,4.53 -2.32,9.37 -2.34,14.48 0.02,5.14 0.79,10.01 2.34,14.63 1.55,4.6 3.72,8.82 6.54,12.66 2.8,3.85 6.12,7.17 9.97,9.97 3.85,2.82 8.07,5 12.67,6.54 4.62,1.55 9.49,2.32 14.63,2.34l46.15 0c5.12,-0.02 9.97,-0.79 14.59,-2.34 4.6,-1.54 8.82,-3.72 12.67,-6.54 3.82,-2.8 7.17,-6.12 9.99,-9.97 2.82,-3.84 4.99,-8.07 6.54,-12.66 1.57,-4.62 2.34,-9.49 2.36,-14.63zm-14.17 0c-0.02,4.46 -0.86,8.61 -2.53,12.48 -1.65,3.87 -3.95,7.28 -6.88,10.2 -2.93,2.94 -6.31,5.25 -10.16,6.89 -3.87,1.65 -7.99,2.51 -12.41,2.53l-46.15 0c-4.45,-0.02 -8.59,-0.88 -12.46,-2.53 -3.84,-1.65 -7.25,-3.95 -10.16,-6.89 -2.93,-2.93 -5.2,-6.33 -6.86,-10.2 -1.65,-3.87 -2.48,-8.02 -2.51,-12.48 0.02,-4.41 0.86,-8.51 2.51,-12.29 1.65,-3.78 3.93,-7.09 6.86,-9.91 2.9,-2.84 6.31,-5.04 10.16,-6.63 3.87,-1.58 8.01,-2.38 12.46,-2.4l46.15 0c4.43,0.02 8.55,0.82 12.41,2.4 3.84,1.59 7.23,3.78 10.16,6.63 2.93,2.82 5.23,6.12 6.88,9.91 1.67,3.78 2.51,7.88 2.53,12.29zm146.59 46.15l0 -91.42 -14.05 0 0 72.86 -92.3 -72.86 -14.05 0 0 91.42 14.05 0 0 -72.86 92.3 72.86 14.05 0z"/>
   <g>
    <path class="fil25" d="M557.11 1635.97l1.3 2.79 19.73 -9.2 7.16 15.36 2.79 -1.3 -8.46 -18.15 -22.51 10.49zm-23.15 17.18l2.73 9.53 2.96 -0.85 -2.74 -9.54c-0.26,-0.93 -0.34,-1.86 -0.22,-2.77 0.11,-0.91 0.39,-1.77 0.82,-2.56 0.43,-0.8 1.01,-1.48 1.71,-2.07 0.71,-0.59 1.52,-1.01 2.46,-1.28l5.97 -1.71c0.93,-0.26 1.86,-0.34 2.77,-0.22 0.92,0.11 1.77,0.4 2.57,0.84 0.8,0.44 1.49,1.02 2.08,1.74 0.58,0.71 1.02,1.53 1.29,2.46l2.73 9.53 2.96 -0.85 -2.74 -9.54c-0.31,-1.07 -0.77,-2.05 -1.38,-2.93 -0.61,-0.88 -1.31,-1.64 -2.14,-2.27 -0.83,-0.64 -1.73,-1.14 -2.71,-1.5 -0.97,-0.37 -2,-0.57 -3.06,-0.62 -1.06,-0.05 -2.13,0.08 -3.21,0.38l-5.97 1.72c-1.08,0.31 -2.05,0.77 -2.92,1.37 -0.87,0.61 -1.63,1.32 -2.26,2.14 -0.63,0.83 -1.13,1.73 -1.49,2.71 -0.35,0.98 -0.55,1.99 -0.6,3.06 -0.04,1.07 0.09,2.13 0.39,3.21zm-11.89 -8.07l3.82 19.66 3.02 -0.59 3.1 -2.5 -0.67 -3.43 -3.1 2.5 -3.16 -16.24 -3.02 0.59zm-30.32 9.69c0.08,0.86 0.32,1.64 0.7,2.37 0.38,0.72 0.88,1.35 1.5,1.86 0.62,0.52 1.31,0.91 2.09,1.17 0.78,0.25 1.59,0.34 2.46,0.27l-5.02 5.02 0.27 3.01 26.28 -2.3 -0.27 -3.01 -21.48 1.88 4.97 -4.99 0 -0.03 6.71 -0.59 -0.27 -3.06 -11.44 1c-0.59,0.05 -1.13,-0.05 -1.62,-0.3 -0.49,-0.24 -0.9,-0.58 -1.22,-1.03 -0.32,-0.45 -0.51,-0.96 -0.56,-1.55 -0.05,-0.57 0.05,-1.1 0.28,-1.6 0.24,-0.5 0.59,-0.9 1.03,-1.22 0.45,-0.32 0.95,-0.51 1.53,-0.57l13.85 -1.21c0.81,-0.06 1.59,0 2.37,0.21 0.77,0.21 1.48,0.54 2.15,1 0.66,0.45 1.24,0.99 1.71,1.64l2.06 -2.42c-0.72,-0.81 -1.53,-1.5 -2.45,-2.05 -0.91,-0.56 -1.88,-0.96 -2.92,-1.21 -1.05,-0.25 -2.1,-0.33 -3.18,-0.24l-13.85 1.21c-0.86,0.08 -1.64,0.31 -2.36,0.69 -0.73,0.38 -1.34,0.89 -1.86,1.5 -0.52,0.62 -0.9,1.31 -1.17,2.08 -0.26,0.77 -0.35,1.59 -0.28,2.46z"/>
    <path class="fil25" d="M451.01 1646.18l-0.27 3.07 21.68 1.9 -1.48 16.88 3.06 0.27 1.75 -19.96 -24.75 -2.16zm-28.74 3.51l-2.4 9.63 2.99 0.74 2.4 -9.62c0.24,-0.94 0.64,-1.78 1.19,-2.51 0.55,-0.73 1.21,-1.34 1.99,-1.81 0.78,-0.47 1.62,-0.78 2.53,-0.94 0.9,-0.15 1.82,-0.11 2.76,0.12l6.03 1.51c0.93,0.23 1.77,0.63 2.5,1.19 0.73,0.56 1.33,1.23 1.81,2.02 0.47,0.78 0.78,1.63 0.93,2.54 0.15,0.9 0.11,1.83 -0.12,2.77l-2.4 9.62 2.99 0.74 2.4 -9.62c0.27,-1.09 0.36,-2.17 0.27,-3.23 -0.08,-1.07 -0.32,-2.07 -0.72,-3.04 -0.4,-0.97 -0.93,-1.86 -1.6,-2.66 -0.66,-0.8 -1.44,-1.49 -2.35,-2.06 -0.89,-0.57 -1.88,-1 -2.97,-1.27l-6.03 -1.5c-1.09,-0.27 -2.16,-0.36 -3.22,-0.27 -1.06,0.09 -2.07,0.33 -3.03,0.73 -0.96,0.4 -1.84,0.94 -2.64,1.6 -0.8,0.68 -1.48,1.46 -2.05,2.35 -0.57,0.9 -0.99,1.89 -1.26,2.96zm-6.39 -12.92l-6.52 18.94 2.91 1 3.94 -0.62 1.13 -3.3 -3.93 0.62 5.39 -15.64 -2.91 -1zm-31.13 -6.69c-0.36,0.79 -0.56,1.58 -0.58,2.4 -0.02,0.82 0.1,1.6 0.38,2.36 0.28,0.76 0.68,1.45 1.23,2.06 0.55,0.61 1.21,1.09 1.99,1.47l-6.86 1.83 -1.28 2.74 23.91 11.15 1.28 -2.74 -19.55 -9.11 6.8 -1.84 0.01 -0.03 6.1 2.85 1.3 -2.78 -10.41 -4.86c-0.53,-0.25 -0.95,-0.61 -1.25,-1.06 -0.3,-0.46 -0.48,-0.96 -0.54,-1.51 -0.05,-0.55 0.05,-1.08 0.29,-1.62 0.25,-0.52 0.6,-0.94 1.05,-1.24 0.46,-0.31 0.96,-0.5 1.5,-0.55 0.55,-0.06 1.08,0.03 1.61,0.27l12.6 5.87c0.73,0.35 1.38,0.8 1.94,1.37 0.56,0.56 1.02,1.21 1.36,1.93 0.35,0.72 0.57,1.48 0.67,2.28l2.99 -1.06c-0.22,-1.07 -0.58,-2.07 -1.1,-3 -0.51,-0.94 -1.15,-1.77 -1.93,-2.51 -0.77,-0.74 -1.65,-1.34 -2.63,-1.8l-12.6 -5.88c-0.79,-0.36 -1.58,-0.55 -2.4,-0.58 -0.81,-0.03 -1.6,0.1 -2.36,0.37 -0.76,0.27 -1.45,0.68 -2.05,1.22 -0.61,0.54 -1.1,1.2 -1.47,1.98zm-30.89 -27.59l-1.81 2.49 17.61 12.79 -9.97 13.71 2.49 1.81 11.77 -16.2 -20.09 -14.6zm-26.94 -11.22l-6.89 7.13 2.21 2.14 6.89 -7.13c0.67,-0.69 1.44,-1.22 2.28,-1.58 0.85,-0.36 1.72,-0.55 2.63,-0.57 0.91,-0.02 1.79,0.13 2.65,0.45 0.86,0.32 1.64,0.82 2.34,1.48l4.46 4.32c0.69,0.67 1.23,1.44 1.58,2.29 0.35,0.85 0.54,1.73 0.56,2.65 0.01,0.91 -0.14,1.8 -0.46,2.66 -0.32,0.86 -0.82,1.64 -1.49,2.35l-6.88 7.13 2.22 2.14 6.89 -7.13c0.77,-0.81 1.39,-1.7 1.84,-2.66 0.46,-0.96 0.76,-1.96 0.9,-2.99 0.14,-1.04 0.12,-2.07 -0.06,-3.1 -0.17,-1.03 -0.51,-2.02 -1,-2.96 -0.48,-0.94 -1.13,-1.81 -1.94,-2.59l-4.46 -4.32c-0.81,-0.78 -1.69,-1.39 -2.65,-1.84 -0.96,-0.45 -1.96,-0.75 -2.99,-0.88 -1.03,-0.14 -2.06,-0.11 -3.09,0.06 -1.03,0.18 -2.01,0.52 -2.96,1.01 -0.94,0.49 -1.8,1.14 -2.58,1.93zm1.15 -14.12l-15.35 12.87 1.98 2.36 3.69 1.49 2.67 -2.24 -3.69 -1.49 12.67 -10.63 -1.97 -2.36zm-24.03 -21.29c-0.7,0.5 -1.27,1.1 -1.7,1.79 -0.44,0.7 -0.72,1.44 -0.86,2.24 -0.14,0.79 -0.13,1.58 0.04,2.39 0.17,0.8 0.5,1.55 0.99,2.26l-6.86 -1.84 -2.48 1.74 15.13 21.61 2.48 -1.73 -12.37 -17.67 6.8 1.81 0.02 -0.01 3.87 5.52 2.51 -1.76 -6.59 -9.42c-0.33,-0.48 -0.51,-1 -0.55,-1.54 -0.04,-0.55 0.06,-1.07 0.28,-1.57 0.23,-0.51 0.59,-0.92 1.06,-1.26 0.48,-0.32 0.99,-0.51 1.53,-0.55 0.56,-0.04 1.08,0.06 1.58,0.28 0.5,0.23 0.92,0.57 1.25,1.04l7.97 11.39c0.47,0.67 0.8,1.38 1.01,2.16 0.2,0.77 0.27,1.55 0.21,2.35 -0.06,0.8 -0.24,1.57 -0.56,2.31l3.12 0.57c0.34,-1.03 0.53,-2.08 0.55,-3.15 0.03,-1.07 -0.11,-2.11 -0.42,-3.14 -0.3,-1.02 -0.76,-1.98 -1.38,-2.88l-7.97 -11.39c-0.5,-0.7 -1.09,-1.26 -1.78,-1.69 -0.69,-0.43 -1.43,-0.72 -2.23,-0.86 -0.79,-0.14 -1.58,-0.13 -2.38,0.03 -0.8,0.17 -1.56,0.5 -2.27,0.99zm-13.09 -39.16l-2.82 1.25 8.86 19.88 -15.49 6.9 1.25 2.81 18.29 -8.15 -10.1 -22.69zm-18.39 -22.65l-9.43 3.07 0.95 2.93 9.43 -3.07c0.92,-0.29 1.85,-0.4 2.76,-0.31 0.92,0.07 1.78,0.32 2.59,0.73 0.81,0.41 1.52,0.96 2.13,1.64 0.61,0.68 1.06,1.49 1.36,2.41l1.92 5.91c0.29,0.91 0.4,1.84 0.31,2.76 -0.08,0.92 -0.34,1.78 -0.75,2.6 -0.41,0.81 -0.97,1.52 -1.66,2.13 -0.69,0.61 -1.5,1.07 -2.42,1.37l-9.43 3.06 0.96 2.93 9.43 -3.06c1.07,-0.35 2.03,-0.85 2.88,-1.48 0.86,-0.64 1.59,-1.37 2.2,-2.22 0.61,-0.85 1.08,-1.78 1.41,-2.77 0.34,-0.99 0.5,-2.01 0.51,-3.08 0.01,-1.06 -0.16,-2.13 -0.5,-3.2l-1.92 -5.91c-0.35,-1.06 -0.85,-2.02 -1.48,-2.88 -0.63,-0.85 -1.38,-1.58 -2.22,-2.18 -0.85,-0.61 -1.77,-1.07 -2.76,-1.4 -1,-0.32 -2.02,-0.48 -3.09,-0.49 -1.06,-0.01 -2.12,0.16 -3.18,0.5zm8.18 -12.29l-19.52 4.51 0.69 3 2.61 3 3.4 -0.79 -2.61 -3 16.12 -3.72 -0.69 -2.99zm-10.47 -30c-0.86,0.11 -1.64,0.37 -2.34,0.78 -0.71,0.41 -1.31,0.93 -1.81,1.57 -0.5,0.63 -0.86,1.34 -1.09,2.13 -0.23,0.79 -0.29,1.61 -0.19,2.46l-5.19 -4.85 -3 0.37 3.22 26.18 3 -0.37 -2.63 -21.41 5.16 4.79 0.03 -0 0.82 6.68 3.05 -0.37 -1.4 -11.4c-0.07,-0.58 0.01,-1.13 0.24,-1.63 0.22,-0.5 0.55,-0.92 0.99,-1.26 0.44,-0.33 0.95,-0.53 1.52,-0.61 0.58,-0.06 1.11,0.01 1.61,0.23 0.51,0.23 0.92,0.55 1.26,0.99 0.34,0.43 0.55,0.93 0.62,1.51l1.69 13.8c0.09,0.81 0.05,1.59 -0.13,2.37 -0.18,0.78 -0.49,1.5 -0.91,2.18 -0.43,0.68 -0.95,1.27 -1.58,1.78l2.48 1.97c0.79,-0.75 1.44,-1.58 1.97,-2.52 0.52,-0.93 0.89,-1.92 1.11,-2.97 0.21,-1.05 0.25,-2.11 0.12,-3.19l-1.69 -13.8c-0.11,-0.85 -0.37,-1.63 -0.78,-2.34 -0.41,-0.7 -0.93,-1.3 -1.57,-1.81 -0.63,-0.5 -1.34,-0.86 -2.12,-1.09 -0.78,-0.23 -1.6,-0.3 -2.46,-0.19zm8.26 -40.84l-3.07 -0.27 -1.9 21.69 -16.88 -1.48 -0.27 3.07 19.96 1.75 2.16 -24.75zm-3.77 -29.04l-9.62 -2.4 -0.74 2.99 9.62 2.4c0.94,0.24 1.78,0.64 2.51,1.19 0.73,0.55 1.34,1.21 1.81,1.99 0.48,0.78 0.78,1.62 0.94,2.53 0.15,0.9 0.11,1.82 -0.11,2.76l-1.51 6.03c-0.23,0.93 -0.63,1.77 -1.19,2.51 -0.56,0.73 -1.23,1.33 -2.02,1.81 -0.78,0.46 -1.63,0.78 -2.54,0.93 -0.9,0.15 -1.83,0.11 -2.77,-0.12l-9.63 -2.4 -0.74 2.99 9.62 2.4c1.09,0.27 2.17,0.36 3.22,0.27 1.07,-0.08 2.08,-0.32 3.05,-0.72 0.97,-0.4 1.86,-0.93 2.65,-1.6 0.8,-0.66 1.49,-1.44 2.07,-2.35 0.56,-0.89 1,-1.88 1.27,-2.97l1.5 -6.03c0.27,-1.09 0.35,-2.16 0.27,-3.22 -0.09,-1.06 -0.34,-2.07 -0.73,-3.03 -0.4,-0.96 -0.93,-1.84 -1.6,-2.64 -0.67,-0.8 -1.45,-1.48 -2.35,-2.06 -0.89,-0.57 -1.88,-0.99 -2.96,-1.26zm12.48 -6.22l-18.94 -6.52 -1 2.9 0.62 3.94 3.3 1.13 -0.62 -3.93 15.64 5.38 1 -2.9zm5.36 -31.4c-0.8,-0.32 -1.61,-0.46 -2.43,-0.45 -0.82,0.02 -1.6,0.18 -2.34,0.5 -0.74,0.32 -1.4,0.76 -1.99,1.34 -0.58,0.58 -1.03,1.26 -1.35,2.06l-2.2 -6.75 -2.8 -1.13 -9.88 24.45 2.81 1.13 8.07 -20 2.19 6.69 0.03 0.01 -2.52 6.24 2.85 1.15 4.3 -10.65c0.23,-0.54 0.56,-0.98 1,-1.3 0.44,-0.33 0.93,-0.53 1.47,-0.62 0.55,-0.08 1.09,-0.01 1.64,0.2 0.53,0.22 0.96,0.55 1.3,0.99 0.33,0.44 0.54,0.93 0.62,1.47 0.09,0.54 0.02,1.08 -0.19,1.62l-5.21 12.89c-0.3,0.75 -0.73,1.42 -1.26,2.02 -0.54,0.59 -1.15,1.07 -1.86,1.46 -0.7,0.39 -1.44,0.65 -2.24,0.79l1.21 2.93c1.05,-0.28 2.03,-0.69 2.94,-1.25 0.91,-0.56 1.71,-1.24 2.41,-2.06 0.69,-0.81 1.24,-1.72 1.66,-2.73l5.21 -12.89c0.32,-0.8 0.46,-1.6 0.45,-2.42 -0.01,-0.82 -0.18,-1.59 -0.49,-2.34 -0.31,-0.75 -0.75,-1.41 -1.33,-1.99 -0.57,-0.58 -1.26,-1.03 -2.06,-1.36zm27.83 -31.18l-2.49 -1.81 -12.79 17.61 -13.71 -9.96 -1.81 2.49 16.21 11.77 14.6 -20.09zm10.1 -27.28l-7.49 -6.5 -2.02 2.32 7.49 6.51c0.73,0.63 1.29,1.37 1.69,2.2 0.4,0.82 0.64,1.69 0.71,2.6 0.07,0.9 -0.04,1.8 -0.31,2.67 -0.28,0.88 -0.73,1.68 -1.36,2.42l-4.07 4.68c-0.64,0.73 -1.37,1.3 -2.2,1.69 -0.83,0.39 -1.7,0.62 -2.61,0.69 -0.91,0.06 -1.81,-0.05 -2.69,-0.32 -0.87,-0.28 -1.69,-0.73 -2.42,-1.36l-7.49 -6.51 -2.02 2.32 7.48 6.5c0.85,0.73 1.77,1.3 2.75,1.7 0.99,0.41 2,0.65 3.04,0.74 1.04,0.08 2.08,0.01 3.09,-0.22 1.02,-0.23 1.98,-0.61 2.9,-1.15 0.92,-0.54 1.75,-1.23 2.49,-2.07l4.07 -4.68c0.73,-0.85 1.3,-1.76 1.7,-2.75 0.4,-0.99 0.64,-1.99 0.72,-3.03 0.08,-1.04 0,-2.06 -0.23,-3.08 -0.24,-1.02 -0.62,-1.97 -1.16,-2.9 -0.54,-0.91 -1.23,-1.74 -2.07,-2.47zm14.82 0.75l-13.66 -14.65 -2.25 2.09 -1.3 3.76 2.38 2.55 1.3 -3.77 11.28 12.1 2.25 -2.09zm20.06 -24.43c-0.54,-0.68 -1.16,-1.21 -1.87,-1.61 -0.72,-0.39 -1.48,-0.64 -2.28,-0.74 -0.8,-0.1 -1.59,-0.04 -2.39,0.17 -0.79,0.21 -1.52,0.58 -2.21,1.11l1.48 -6.94 -1.86 -2.38 -20.79 16.24 1.86 2.38 16.99 -13.28 -1.45 6.88 0.01 0.02 -5.3 4.15 1.9 2.42 9.05 -7.07c0.46,-0.36 0.96,-0.57 1.51,-0.63 0.54,-0.06 1.07,0 1.58,0.2 0.51,0.21 0.95,0.53 1.31,0.99 0.35,0.46 0.56,0.96 0.63,1.51 0.06,0.55 0,1.07 -0.2,1.58 -0.2,0.51 -0.52,0.95 -0.97,1.3l-10.95 8.56c-0.65,0.5 -1.34,0.87 -2.1,1.12 -0.76,0.24 -1.54,0.35 -2.34,0.34 -0.8,-0.02 -1.58,-0.16 -2.33,-0.44l-0.41 3.14c1.05,0.29 2.1,0.42 3.17,0.39 1.07,-0.03 2.1,-0.23 3.11,-0.58 1.01,-0.35 1.94,-0.87 2.8,-1.53l10.96 -8.57c0.67,-0.53 1.2,-1.15 1.6,-1.86 0.4,-0.72 0.64,-1.47 0.74,-2.27 0.11,-0.8 0.06,-1.6 -0.15,-2.38 -0.21,-0.79 -0.57,-1.53 -1.11,-2.22zm39.74 -14.03l-1.35 -2.77 -19.56 9.54 -7.43 -15.23 -2.76 1.35 8.78 18 22.33 -10.89zm22.51 -18.13l-3.06 -9.43 -2.93 0.95 3.07 9.43c0.29,0.92 0.4,1.85 0.31,2.76 -0.07,0.91 -0.32,1.78 -0.73,2.59 -0.41,0.81 -0.96,1.52 -1.64,2.13 -0.68,0.61 -1.49,1.07 -2.41,1.36l-5.91 1.92c-0.91,0.29 -1.84,0.4 -2.76,0.31 -0.91,-0.09 -1.78,-0.34 -2.6,-0.75 -0.81,-0.41 -1.52,-0.97 -2.14,-1.66 -0.61,-0.68 -1.07,-1.49 -1.37,-2.42l-3.06 -9.43 -2.93 0.95 3.06 9.43c0.35,1.07 0.85,2.02 1.48,2.88 0.63,0.86 1.37,1.59 2.21,2.2 0.86,0.61 1.78,1.08 2.77,1.41 0.99,0.33 2.02,0.5 3.08,0.51 1.06,0.01 2.13,-0.15 3.2,-0.49l5.91 -1.92c1.06,-0.35 2.02,-0.84 2.87,-1.47 0.85,-0.63 1.58,-1.38 2.18,-2.23 0.61,-0.85 1.07,-1.76 1.4,-2.75 0.32,-1 0.48,-2.02 0.5,-3.09 0.01,-1.06 -0.16,-2.13 -0.5,-3.18zm12.13 7.79l-4.51 -19.52 -3 0.69 -3 2.61 0.79 3.4 3 -2.61 3.72 16.12 2.99 -0.69zm29.95 -10.7c-0.11,-0.86 -0.37,-1.64 -0.78,-2.34 -0.41,-0.71 -0.93,-1.31 -1.57,-1.81 -0.63,-0.49 -1.34,-0.85 -2.14,-1.08 -0.79,-0.23 -1.6,-0.29 -2.46,-0.19l4.84 -5.19 -0.37 -3.01 -26.18 3.22 0.37 3 21.41 -2.63 -4.79 5.16 0 0.03 -6.68 0.82 0.37 3.05 11.4 -1.4c0.58,-0.07 1.12,0.01 1.63,0.24 0.5,0.23 0.92,0.55 1.25,0.99 0.34,0.45 0.54,0.95 0.61,1.52 0.07,0.58 -0.01,1.12 -0.23,1.61 -0.23,0.51 -0.56,0.93 -0.99,1.26 -0.43,0.33 -0.94,0.54 -1.51,0.62l-13.8 1.69c-0.81,0.1 -1.59,0.06 -2.37,-0.12 -0.78,-0.18 -1.5,-0.49 -2.18,-0.92 -0.68,-0.42 -1.27,-0.95 -1.78,-1.58l-1.97 2.48c0.75,0.79 1.58,1.44 2.52,1.97 0.93,0.52 1.92,0.89 2.97,1.1 1.05,0.21 2.11,0.25 3.19,0.13l13.8 -1.69c0.86,-0.11 1.63,-0.37 2.34,-0.78 0.71,-0.41 1.31,-0.93 1.81,-1.57 0.5,-0.63 0.87,-1.34 1.1,-2.12 0.23,-0.78 0.29,-1.6 0.19,-2.47zm40.93 7.21l0.22 -3.08 -21.72 -1.52 1.18 -16.91 -3.07 -0.22 -1.4 19.98 24.78 1.74zm28.47 -5.09l1.72 -9.76 -3.03 -0.54 -1.72 9.76c-0.17,0.96 -0.51,1.82 -1.02,2.59 -0.5,0.77 -1.12,1.42 -1.86,1.94 -0.74,0.53 -1.55,0.9 -2.45,1.11 -0.89,0.22 -1.81,0.24 -2.77,0.07l-6.12 -1.07c-0.95,-0.17 -1.81,-0.51 -2.58,-1.02 -0.77,-0.51 -1.41,-1.13 -1.94,-1.88 -0.52,-0.75 -0.89,-1.57 -1.1,-2.47 -0.21,-0.9 -0.24,-1.83 -0.08,-2.78l1.72 -9.76 -3.03 -0.54 -1.72 9.77c-0.19,1.11 -0.21,2.19 -0.04,3.23 0.16,1.06 0.46,2.05 0.93,2.99 0.47,0.94 1.06,1.79 1.78,2.54 0.71,0.76 1.54,1.39 2.48,1.9 0.93,0.51 1.95,0.86 3.06,1.06l6.11 1.07c1.1,0.19 2.18,0.21 3.23,0.05 1.05,-0.17 2.04,-0.48 2.97,-0.95 0.93,-0.46 1.77,-1.06 2.52,-1.78 0.75,-0.73 1.37,-1.55 1.89,-2.49 0.51,-0.93 0.85,-1.95 1.05,-3.05zm7.06 13.04l5.19 -19.35 -2.97 -0.79 -3.88 0.89 -0.9 3.37 3.88 -0.9 -4.28 15.98 2.97 0.8zm31.26 4.88c0.3,-0.81 0.44,-1.62 0.41,-2.43 -0.03,-0.82 -0.21,-1.6 -0.54,-2.33 -0.32,-0.73 -0.78,-1.39 -1.37,-1.97 -0.59,-0.56 -1.28,-1.01 -2.08,-1.32l6.71 -2.31 1.08 -2.82 -24.62 -9.46 -1.09 2.82 20.14 7.73 -6.66 2.31 -0.01 0.02 -6.28 -2.41 -1.1 2.87 10.72 4.12c0.55,0.22 0.99,0.54 1.33,0.98 0.34,0.43 0.55,0.92 0.64,1.47 0.09,0.54 0.03,1.08 -0.17,1.63 -0.21,0.54 -0.53,0.97 -0.96,1.31 -0.44,0.34 -0.92,0.56 -1.46,0.65 -0.54,0.09 -1.08,0.05 -1.62,-0.16l-12.98 -4.98c-0.76,-0.3 -1.43,-0.7 -2.03,-1.23 -0.6,-0.53 -1.1,-1.13 -1.49,-1.84 -0.4,-0.69 -0.68,-1.43 -0.83,-2.23l-2.9 1.27c0.29,1.05 0.72,2.02 1.3,2.92 0.58,0.9 1.28,1.69 2.11,2.37 0.82,0.68 1.74,1.22 2.76,1.61l12.98 4.98c0.8,0.31 1.61,0.44 2.43,0.42 0.82,-0.04 1.59,-0.22 2.33,-0.54 0.74,-0.33 1.39,-0.78 1.96,-1.36 0.57,-0.58 1.02,-1.28 1.33,-2.09zm32.17 27.04l1.64 -2.61 -18.46 -11.53 8.98 -14.38 -2.61 -1.63 -10.61 16.98 21.06 13.17zm27.1 10.22l6.5 -7.49 -2.32 -2.02 -6.51 7.48c-0.63,0.73 -1.37,1.3 -2.2,1.69 -0.82,0.4 -1.69,0.64 -2.6,0.71 -0.9,0.07 -1.8,-0.04 -2.67,-0.31 -0.88,-0.28 -1.68,-0.73 -2.41,-1.36l-4.69 -4.07c-0.73,-0.64 -1.3,-1.37 -1.69,-2.2 -0.39,-0.83 -0.62,-1.7 -0.69,-2.61 -0.06,-0.91 0.05,-1.81 0.32,-2.68 0.28,-0.88 0.73,-1.69 1.36,-2.43l6.51 -7.48 -2.32 -2.02 -6.5 7.48c-0.73,0.85 -1.3,1.77 -1.7,2.76 -0.41,0.99 -0.65,1.99 -0.74,3.03 -0.08,1.05 -0.01,2.08 0.22,3.1 0.23,1.02 0.61,1.98 1.15,2.9 0.54,0.91 1.23,1.74 2.07,2.48l4.68 4.08c0.85,0.73 1.76,1.29 2.75,1.69 0.99,0.4 1.99,0.65 3.03,0.73 1.04,0.08 2.06,0 3.08,-0.23 1.02,-0.24 1.97,-0.62 2.9,-1.16 0.91,-0.54 1.74,-1.23 2.47,-2.07zm-0.54 14.33l14.41 -13.91 -2.14 -2.21 -3.79 -1.24 -2.5 2.43 3.78 1.24 -11.9 11.49 2.13 2.21zm24.61 20.08c0.67,-0.55 1.19,-1.18 1.58,-1.9 0.38,-0.73 0.62,-1.49 0.7,-2.29 0.08,-0.8 0.01,-1.59 -0.21,-2.38 -0.23,-0.79 -0.61,-1.51 -1.15,-2.19l6.97 1.36 2.35 -1.91 -16.6 -20.5 -2.35 1.9 13.57 16.76 -6.91 -1.33 -0.02 0.01 -4.23 -5.23 -2.39 1.94 7.22 8.93c0.37,0.45 0.58,0.96 0.66,1.5 0.07,0.54 0.02,1.07 -0.17,1.58 -0.2,0.52 -0.52,0.96 -0.97,1.33 -0.45,0.36 -0.95,0.58 -1.49,0.66 -0.55,0.07 -1.07,0.02 -1.59,-0.17 -0.51,-0.19 -0.96,-0.5 -1.32,-0.95l-8.75 -10.81c-0.51,-0.63 -0.89,-1.32 -1.15,-2.08 -0.26,-0.75 -0.38,-1.53 -0.38,-2.33 0,-0.8 0.13,-1.58 0.4,-2.35l-3.15 -0.35c-0.28,1.06 -0.39,2.11 -0.34,3.17 0.05,1.07 0.26,2.1 0.63,3.1 0.38,1 0.9,1.93 1.58,2.77l8.75 10.81c0.55,0.66 1.18,1.18 1.9,1.57 0.73,0.38 1.48,0.61 2.29,0.7 0.8,0.09 1.59,0.02 2.38,-0.19 0.79,-0.22 1.52,-0.6 2.19,-1.14zm14.72 39.33l2.75 -1.4 -9.88 -19.39 15.1 -7.7 -1.4 -2.74 -17.85 9.09 11.28 22.13zm18.42 22.1l9.37 -3.23 -1 -2.91 -9.37 3.22c-0.92,0.31 -1.84,0.44 -2.75,0.37 -0.92,-0.06 -1.79,-0.29 -2.6,-0.68 -0.82,-0.39 -1.54,-0.93 -2.16,-1.61 -0.62,-0.67 -1.09,-1.47 -1.41,-2.38l-2.02 -5.87c-0.31,-0.91 -0.44,-1.83 -0.36,-2.75 0.07,-0.92 0.3,-1.78 0.71,-2.61 0.4,-0.82 0.94,-1.53 1.63,-2.16 0.68,-0.62 1.47,-1.09 2.39,-1.41l9.37 -3.23 -1 -2.91 -9.37 3.23c-1.07,0.37 -2.02,0.88 -2.85,1.53 -0.85,0.66 -1.57,1.4 -2.16,2.26 -0.59,0.86 -1.05,1.8 -1.36,2.79 -0.31,1 -0.46,2.03 -0.45,3.09 0.01,1.06 0.19,2.12 0.55,3.18l2.02 5.87c0.37,1.06 0.88,2.01 1.53,2.85 0.65,0.84 1.41,1.55 2.26,2.14 0.86,0.59 1.79,1.04 2.78,1.35 1,0.3 2.03,0.45 3.09,0.44 1.06,-0.01 2.12,-0.2 3.17,-0.55zm-7.39 12.3l19.43 -4.85 -0.74 -2.98 -2.66 -2.96 -3.39 0.85 2.66 2.96 -16.05 4.01 0.75 2.99zm11.28 29.59c0.85,-0.13 1.63,-0.4 2.32,-0.82 0.7,-0.42 1.3,-0.96 1.78,-1.6 0.49,-0.64 0.84,-1.35 1.06,-2.15 0.21,-0.79 0.26,-1.61 0.14,-2.47l5.28 4.75 2.99 -0.42 -3.67 -26.12 -3 0.43 3 21.35 -5.24 -4.7 -0.03 0 -0.94 -6.67 -3.04 0.43 1.6 11.38c0.07,0.58 0,1.13 -0.22,1.63 -0.21,0.5 -0.53,0.93 -0.96,1.27 -0.44,0.34 -0.94,0.56 -1.52,0.64 -0.57,0.08 -1.11,0 -1.62,-0.21 -0.51,-0.22 -0.93,-0.54 -1.27,-0.96 -0.34,-0.43 -0.56,-0.93 -0.64,-1.5l-1.94 -13.77c-0.11,-0.81 -0.08,-1.59 0.08,-2.37 0.17,-0.78 0.46,-1.51 0.88,-2.2 0.41,-0.68 0.92,-1.29 1.55,-1.8l-2.52 -1.92c-0.78,0.76 -1.41,1.61 -1.92,2.55 -0.51,0.94 -0.86,1.93 -1.05,2.99 -0.19,1.05 -0.22,2.11 -0.08,3.19l1.94 13.77c0.12,0.85 0.4,1.62 0.81,2.32 0.42,0.7 0.96,1.29 1.6,1.78 0.64,0.49 1.35,0.84 2.14,1.06 0.79,0.22 1.61,0.27 2.47,0.15zm-6.27 41.38l3.08 0.06 0.38 -21.77 16.95 0.3 0.06 -3.08 -20.03 -0.34 -0.43 24.83zm5.12 28.38l9.76 1.72 0.54 -3.03 -9.77 -1.72c-0.95,-0.17 -1.82,-0.51 -2.59,-1.02 -0.77,-0.5 -1.42,-1.12 -1.94,-1.86 -0.53,-0.74 -0.9,-1.55 -1.11,-2.45 -0.22,-0.89 -0.24,-1.81 -0.07,-2.77l1.07 -6.12c0.17,-0.95 0.51,-1.81 1.02,-2.58 0.51,-0.77 1.13,-1.41 1.88,-1.94 0.74,-0.52 1.57,-0.89 2.47,-1.1 0.9,-0.21 1.82,-0.24 2.78,-0.08l9.77 1.72 0.53 -3.03 -9.76 -1.72c-1.11,-0.19 -2.19,-0.21 -3.23,-0.04 -1.06,0.16 -2.05,0.46 -2.99,0.93 -0.94,0.47 -1.79,1.06 -2.54,1.78 -0.76,0.71 -1.39,1.54 -1.9,2.48 -0.51,0.93 -0.86,1.95 -1.06,3.06l-1.08 6.11c-0.19,1.1 -0.21,2.18 -0.05,3.23 0.17,1.05 0.47,2.04 0.95,2.97 0.46,0.93 1.06,1.77 1.78,2.52 0.73,0.75 1.55,1.37 2.48,1.89 0.94,0.51 1.95,0.85 3.05,1.05zm-12.93 6.95l19.35 5.19 0.79 -2.97 -0.89 -3.88 -3.37 -0.9 0.89 3.88 -15.97 -4.28 -0.8 2.97zm-4.66 31.6c0.81,0.31 1.62,0.44 2.43,0.41 0.82,-0.03 1.6,-0.21 2.33,-0.54 0.74,-0.32 1.39,-0.78 1.97,-1.37 0.56,-0.59 1.01,-1.28 1.32,-2.08l2.31 6.71 2.82 1.08 9.45 -24.62 -2.82 -1.09 -7.73 20.14 -2.31 -6.66 -0.02 -0.01 2.41 -6.28 -2.87 -1.1 -4.12 10.72c-0.22,0.55 -0.54,0.99 -0.98,1.33 -0.43,0.34 -0.91,0.55 -1.46,0.64 -0.55,0.09 -1.09,0.03 -1.63,-0.17 -0.54,-0.21 -0.97,-0.53 -1.32,-0.96 -0.34,-0.44 -0.56,-0.92 -0.64,-1.46 -0.1,-0.54 -0.05,-1.08 0.16,-1.62l4.98 -12.98c0.29,-0.75 0.7,-1.43 1.23,-2.03 0.52,-0.6 1.13,-1.09 1.83,-1.49 0.69,-0.4 1.43,-0.68 2.23,-0.83l-1.27 -2.9c-1.04,0.29 -2.02,0.72 -2.92,1.3 -0.9,0.58 -1.69,1.28 -2.37,2.11 -0.68,0.82 -1.22,1.74 -1.61,2.76l-4.98 12.98c-0.31,0.8 -0.44,1.61 -0.41,2.43 0.03,0.82 0.21,1.59 0.54,2.33 0.32,0.74 0.77,1.39 1.35,1.96 0.58,0.57 1.28,1.02 2.09,1.33zm-26.15 32.39l2.61 1.63 11.53 -18.45 14.38 8.98 1.63 -2.61 -16.98 -10.61 -13.16 21.07zm-9.92 27.35l7.49 6.5 2.02 -2.32 -7.49 -6.51c-0.73,-0.63 -1.3,-1.37 -1.69,-2.2 -0.4,-0.82 -0.64,-1.69 -0.71,-2.6 -0.07,-0.91 0.04,-1.8 0.31,-2.67 0.28,-0.87 0.73,-1.68 1.36,-2.41l4.07 -4.69c0.64,-0.72 1.37,-1.29 2.2,-1.69 0.83,-0.39 1.7,-0.62 2.61,-0.69 0.91,-0.06 1.81,0.05 2.69,0.33 0.87,0.28 1.69,0.73 2.42,1.36l7.49 6.51 2.02 -2.32 -7.48 -6.51c-0.85,-0.73 -1.77,-1.3 -2.76,-1.7 -0.99,-0.41 -1.99,-0.65 -3.03,-0.74 -1.04,-0.08 -2.08,-0.01 -3.1,0.22 -1.02,0.23 -1.98,0.61 -2.9,1.15 -0.92,0.53 -1.75,1.23 -2.49,2.07l-4.07 4.69c-0.73,0.85 -1.3,1.76 -1.7,2.75 -0.4,0.99 -0.64,1.99 -0.73,3.03 -0.08,1.03 -0,2.06 0.23,3.08 0.24,1.02 0.63,1.97 1.16,2.9 0.54,0.91 1.24,1.74 2.07,2.48zm-14.23 -0.1l13.91 14.41 2.21 -2.14 1.24 -3.79 -2.43 -2.51 -1.24 3.78 -11.49 -11.9 -2.21 2.14zm-19.59 24.93c0.55,0.67 1.18,1.19 1.91,1.58 0.72,0.38 1.48,0.62 2.29,0.7 0.8,0.08 1.59,0.02 2.38,-0.21 0.79,-0.23 1.52,-0.61 2.19,-1.14l-1.36 6.97 1.91 2.35 20.5 -16.6 -1.91 -2.35 -16.76 13.57 1.33 -6.91 -0.01 -0.02 5.23 -4.24 -1.93 -2.39 -8.93 7.23c-0.46,0.36 -0.96,0.58 -1.51,0.66 -0.54,0.07 -1.07,0.02 -1.58,-0.17 -0.52,-0.2 -0.96,-0.52 -1.33,-0.97 -0.36,-0.45 -0.58,-0.95 -0.66,-1.49 -0.07,-0.55 -0.02,-1.08 0.17,-1.59 0.19,-0.52 0.5,-0.96 0.95,-1.33l10.8 -8.75c0.63,-0.51 1.33,-0.89 2.09,-1.15 0.75,-0.25 1.52,-0.38 2.33,-0.38 0.8,0 1.58,0.13 2.35,0.4l0.35 -3.15c-1.05,-0.28 -2.11,-0.39 -3.17,-0.34 -1.07,0.05 -2.1,0.26 -3.1,0.64 -1,0.38 -1.92,0.9 -2.77,1.58l-10.8 8.75c-0.67,0.55 -1.18,1.18 -1.57,1.89 -0.38,0.73 -0.61,1.48 -0.7,2.29 -0.09,0.8 -0.02,1.59 0.19,2.38 0.22,0.79 0.6,1.52 1.14,2.19z"/>
   </g>
   <path class="fil17" d="M497.7 1446.55l0 -6.01 -108.16 7.36 0.93 -5.91 107.23 -7.16 0 -5.91 -21.26 1.35 0 -29.24 -11.61 0 0 30.07 -73.42 4.87 5.7 -34.94 -11.92 0 -8.51 53.61 88.15 -5.91 0 27.89 11.61 0 0 -28.62 21.26 -1.45zm97.27 11.2c-0.02,-2.8 -0.53,-5.41 -1.57,-7.83 -1.04,-2.42 -2.49,-4.55 -4.32,-6.39 -1.85,-1.83 -3.98,-3.27 -6.39,-4.3 -2.42,-1.04 -5.03,-1.58 -7.83,-1.59 -2.78,0.01 -5.39,0.55 -7.83,1.59 -2.42,1.04 -4.54,2.47 -6.39,4.3 -1.83,1.85 -3.27,3.97 -4.3,6.39 -1.04,2.42 -1.57,5.03 -1.59,7.83 0.02,2.8 0.55,5.39 1.59,7.83 1.04,2.42 2.47,4.55 4.3,6.4 1.85,1.83 3.98,3.27 6.39,4.3 2.44,1.04 5.05,1.57 7.83,1.59 2.8,-0.02 5.41,-0.55 7.83,-1.59 2.42,-1.04 4.54,-2.47 6.39,-4.3 1.83,-1.85 3.28,-3.98 4.32,-6.4 1.04,-2.43 1.55,-5.03 1.57,-7.83zm-16.9 -56.72l-11.62 0 -46.87 78.81 11.62 0 46.87 -78.81zm-34.53 22.09c-0.01,-2.8 -0.55,-5.41 -1.59,-7.83 -1.03,-2.42 -2.47,-4.55 -4.3,-6.39 -1.85,-1.83 -3.97,-3.27 -6.39,-4.3 -2.42,-1.04 -5.03,-1.58 -7.83,-1.59 -2.8,0.01 -5.39,0.55 -7.83,1.59 -2.42,1.04 -4.55,2.47 -6.4,4.3 -1.83,1.85 -3.27,3.97 -4.3,6.39 -1.03,2.42 -1.57,5.03 -1.59,7.83 0.02,2.78 0.56,5.39 1.59,7.83 1.04,2.42 2.48,4.55 4.3,6.4 1.85,1.83 3.98,3.27 6.4,4.3 2.43,1.03 5.03,1.57 7.83,1.59 2.8,-0.02 5.41,-0.56 7.83,-1.59 2.42,-1.04 4.55,-2.47 6.39,-4.3 1.83,-1.85 3.27,-3.98 4.3,-6.4 1.04,-2.43 1.58,-5.04 1.59,-7.83l0 0zm42.83 34.53c-0.02,2.13 -0.55,4.06 -1.57,5.79 -1.04,1.73 -2.4,3.11 -4.13,4.15 -1.75,1.02 -3.66,1.56 -5.81,1.57 -2.13,-0.01 -4.06,-0.55 -5.79,-1.57 -1.73,-1.04 -3.11,-2.42 -4.15,-4.15 -1.02,-1.73 -1.55,-3.67 -1.57,-5.79 0.02,-2.13 0.55,-4.06 1.57,-5.79 1.04,-1.75 2.42,-3.11 4.15,-4.15 1.73,-1.02 3.67,-1.56 5.79,-1.58 2.14,0.02 4.06,0.55 5.81,1.58 1.73,1.03 3.1,2.4 4.13,4.15 1.02,1.73 1.55,3.66 1.57,5.79l0 0zm-51.43 -34.64c-0.02,2.13 -0.56,4.06 -1.58,5.79 -1.04,1.73 -2.4,3.11 -4.15,4.15 -1.73,1.02 -3.65,1.56 -5.79,1.57 -2.13,-0.01 -4.06,-0.55 -5.79,-1.57 -1.73,-1.04 -3.11,-2.42 -4.15,-4.15 -1.02,-1.73 -1.56,-3.67 -1.58,-5.79 0.02,-2.14 0.56,-4.06 1.58,-5.79 1.03,-1.75 2.42,-3.11 4.15,-4.15 1.73,-1.02 3.66,-1.55 5.79,-1.57 2.14,0.02 4.06,0.55 5.79,1.57 1.75,1.04 3.11,2.41 4.15,4.15 1.02,1.73 1.56,3.65 1.58,5.79l0 0z"/>
  </g>
 </g>
</svg>
