<svg width="78" height="74" viewBox="0 0 78 74" fill="none" xmlns="http://www.w3.org/2000/svg">
<g filter="url(#filter0_d)">
<path d="M57.3634 41.9884C43.0861 17.7616 43.7643 18.9122 43.7385 18.8685C42.7847 17.0716 41.0153 16 38.9994 16C36.9833 16 35.214 17.0717 34.2603 18.8686C34.2351 18.9114 34.9399 17.7155 20.6355 41.9884C19.7411 43.6942 19.7935 45.7009 20.7756 47.3562C21.7577 49.0117 23.4822 50 25.3885 50H52.6105C56.6684 50.0001 59.2684 45.6221 57.3634 41.9884ZM40.117 44.3382H37.8818V42.0735H40.117V44.3382ZM40.117 39.8088H37.8818V25.0879H40.117V39.8088Z" fill="#F8C300"/>
</g>
<defs>
<filter id="filter0_d" x="0" y="0" width="78" height="74" filterUnits="userSpaceOnUse" color-interpolation-filters="sRGB">
<feFlood flood-opacity="0" result="BackgroundImageFix"/>
<feColorMatrix in="SourceAlpha" type="matrix" values="0 0 0 0 0 0 0 0 0 0 0 0 0 0 0 0 0 0 127 0"/>
<feOffset dy="4"/>
<feGaussianBlur stdDeviation="10"/>
<feColorMatrix type="matrix" values="0 0 0 0 0.972549 0 0 0 0 0.764706 0 0 0 0 0 0 0 0 0.7 0"/>
<feBlend mode="normal" in2="BackgroundImageFix" result="effect1_dropShadow"/>
<feBlend mode="normal" in="SourceGraphic" in2="effect1_dropShadow" result="shape"/>
</filter>
</defs>
</svg>
