<svg width="46" height="33" viewBox="0 0 46 33" fill="none" xmlns="http://www.w3.org/2000/svg">
  <path
    d="M44.5493 5.7525C44.0308 3.82468 42.5108 2.30499 40.5832 1.78589C37.0619 0.822388 22.976 0.822388 22.976 0.822388C22.976 0.822388 8.89072 0.822388 5.36932 1.74936C3.47885 2.26791 1.92181 3.82495 1.40326 5.7525C0.476562 9.27362 0.476562 16.576 0.476562 16.576C0.476562 16.576 0.476562 23.9151 1.40326 27.3994C1.92236 29.327 3.44177 30.8466 5.3696 31.3657C8.92779 32.3295 22.9766 32.3295 22.9766 32.3295C22.9766 32.3295 37.0619 32.3295 40.5832 31.4026C42.5111 30.8837 44.0308 29.364 44.5499 27.4365C45.4763 23.9151 45.4763 16.613 45.4763 16.613C45.4763 16.613 45.5134 9.27362 44.5493 5.7525ZM18.4914 23.3221V9.8298L30.2045 16.576L18.4914 23.3221Z"
    fill="#F8C300"/>
</svg>
