<?xml version="1.0" encoding="UTF-8"?>
<!DOCTYPE svg PUBLIC "-//W3C//DTD SVG 1.1//EN" "http://www.w3.org/Graphics/SVG/1.1/DTD/svg11.dtd">
<!-- Creator: CorelDRAW 2020 (64-Bit Оценочная версия) -->
<svg xmlns="http://www.w3.org/2000/svg" xml:space="preserve" width="38.4124mm" height="39.318mm" version="1.1" style="shape-rendering:geometricPrecision; text-rendering:geometricPrecision; image-rendering:optimizeQuality; fill-rule:evenodd; clip-rule:evenodd"
viewBox="0 0 14531.63 14874.22"
 xmlns:xlink="http://www.w3.org/1999/xlink"
 xmlns:xodm="http://www.corel.com/coreldraw/odm/2003">
 <defs>
  <style type="text/css">
   <![CDATA[
    .str1 {stroke:#B2B3B3;stroke-width:75.66;stroke-miterlimit:22.9256}
    .str2 {stroke:#BD2A2C;stroke-width:75.66;stroke-miterlimit:22.9256}
    .str0 {stroke:#523630;stroke-width:75.66;stroke-miterlimit:22.9256}
    .fil13 {fill:none}
    .fil30 {fill:#FEFEFE}
    .fil21 {fill:#D9DADA}
    .fil22 {fill:#B2B3B3}
    .fil3 {fill:#2B2A29}
    .fil33 {fill:#5B5A50}
    .fil15 {fill:#86776F}
    .fil8 {fill:#86755D}
    .fil1 {fill:#D7B56D}
    .fil6 {fill:#FECC00}
    .fil4 {fill:#D19563}
    .fil12 {fill:#A75F4A}
    .fil7 {fill:#EF7F1A}
    .fil5 {fill:#E31E24}
    .fil31 {fill:#FAFAFA}
    .fil11 {fill:#EDB61B}
    .fil18 {fill:#B7CBD8}
    .fil19 {fill:#96A7B1}
    .fil26 {fill:#748187}
    .fil17 {fill:#4E565A}
    .fil0 {fill:#6F5C48}
    .fil2 {fill:#523630}
    .fil28 {fill:#063666}
    .fil27 {fill:#083869}
    .fil25 {fill:#472623}
    .fil23 {fill:#673A35}
    .fil10 {fill:#92E1E7}
    .fil29 {fill:#B32218}
    .fil9 {fill:#D6FFFF}
    .fil24 {fill:#FAF2B9}
    .fil14 {fill:#FF9466}
    .fil20 {fill:#FFB882}
    .fil32 {fill:#BD2A2C;fill-rule:nonzero}
    .fil16 {fill:#2B2A29;fill-opacity:0.501961}
   ]]>
  </style>
    <mask id="id0">
  <linearGradient id="id1" gradientUnits="userSpaceOnUse" x1="12502.85" y1="11137.89" x2="13443.02" y2="12787.3">
   <stop offset="0" style="stop-opacity:1; stop-color:white"/>
   <stop offset="1" style="stop-opacity:0; stop-color:white"/>
  </linearGradient>
     <rect style="fill:url(#id1)" x="11625.33" y="11316.52" width="2944.13" height="2941.36"/>
    </mask>
 </defs>
 <g id="Слой_x0020_1">
  <metadata id="CorelCorpID_0Corel-Layer"/>
  <g id="_2124672704832">
   <g>
    <path class="fil0" d="M2138.56 10340.64l0 -4275.04c0,-3195.7 2614.66,-5810.36 5810.32,-5810.36l0.08 0c3195.7,0 5810.36,2614.85 5810.36,5810.36l0 4275.04 -11620.76 0z"/>
    <path class="fil1" d="M2581.9 8805.97l1179.1 0c89.77,0 163.24,73.47 163.24,163.28l0 780.03c0,89.77 -73.47,163.24 -163.24,163.24l-1179.1 0c-89.81,0 -163.28,-73.47 -163.28,-163.24l0 -780.03c0,-89.81 73.47,-163.28 163.28,-163.28z"/>
    <path class="fil1" d="M13310.68 8712.34l-1179.1 0c-89.81,0 -163.28,73.47 -163.28,163.24l0 780.03c0,89.81 73.47,163.28 163.28,163.28l1179.1 0c89.77,0 163.24,-73.47 163.24,-163.28l0 -780.03c0,-89.77 -73.47,-163.24 -163.24,-163.24z"/>
    <path class="fil1" d="M2557.19 7616.01l1179.07 0c89.81,0 163.28,73.47 163.28,163.28l0 779.99c0,89.81 -73.47,163.28 -163.28,163.28l-1179.07 0c-89.81,0 -163.28,-73.47 -163.28,-163.28l0 -779.99c0,-89.81 73.47,-163.28 163.28,-163.28z"/>
    <path class="fil1" d="M13335.39 7522.34l-1179.1 0c-89.81,0 -163.28,73.47 -163.28,163.28l0 780.03c0,89.77 73.47,163.24 163.28,163.24l1179.1 0c89.77,0 163.24,-73.47 163.24,-163.24l0 -780.03c0,-89.81 -73.47,-163.28 -163.24,-163.28z"/>
    <path class="fil1" d="M2618.63 6348.69l1177.25 65.79c89.66,4.99 158.93,82.43 153.89,172.09l-43.47 778.82c-5.03,89.66 -82.47,158.89 -172.13,153.89l-1177.25 -65.75c-89.66,-5.03 -158.93,-82.47 -153.89,-172.13l43.47 -778.78c5.03,-89.66 82.47,-158.93 172.13,-153.93z"/>
    <path class="fil1" d="M13273.95 6255.06l-1177.29 65.75c-89.66,4.99 -158.89,82.43 -153.89,172.09l43.51 778.82c4.99,89.66 82.43,158.93 172.09,153.89l1177.29 -65.75c89.66,-4.99 158.89,-82.43 153.89,-172.09l-43.51 -778.82c-4.99,-89.66 -82.47,-158.93 -172.09,-153.89z"/>
    <path class="fil1" d="M2812.02 5078.68l1166.54 171.49c88.86,13.09 150.87,96.43 137.78,185.29l-113.45 771.71c-13.05,88.86 -96.39,150.83 -185.26,137.78l-1166.54 -171.49c-88.86,-13.05 -150.87,-96.43 -137.78,-185.26l113.42 -771.74c13.09,-88.83 96.43,-150.83 185.29,-137.78z"/>
    <path class="fil1" d="M13080.56 4985.05l-1166.58 171.49c-88.83,13.05 -150.83,96.43 -137.78,185.26l113.45 771.74c13.05,88.83 96.43,150.83 185.26,137.78l1166.58 -171.52c88.83,-13.05 150.83,-96.39 137.78,-185.26l-113.45 -771.71c-13.05,-88.86 -96.43,-150.87 -185.26,-137.78z"/>
    <path class="fil1" d="M3232.28 3703.46l1094.85 437.62c83.42,33.33 124.35,128.81 91.02,212.19l-289.52 724.3c-33.33,83.38 -128.81,124.35 -212.19,91.02l-1094.85 -437.66c-83.42,-33.29 -124.35,-128.78 -91.02,-212.19l289.52 -724.3c33.33,-83.38 128.81,-124.31 212.19,-90.98z"/>
    <path class="fil1" d="M12660.3 3609.79l-1094.89 437.62c-83.38,33.33 -124.35,128.81 -91.02,212.23l289.52 724.27c33.33,83.42 128.81,124.35 212.19,91.02l1094.89 -437.62c83.38,-33.33 124.31,-128.81 90.98,-212.19l-289.48 -724.3c-33.33,-83.38 -128.81,-124.35 -212.19,-91.02z"/>
    <path class="fil1" d="M4074.5 2450.89l984.05 649.55c74.94,49.48 95.75,151.28 46.3,226.23l-429.72 650.95c-49.48,74.94 -151.25,95.79 -226.19,46.34l-984.05 -649.59c-74.94,-49.48 -95.79,-151.25 -46.3,-226.19l429.72 -650.99c49.44,-74.94 151.25,-95.79 226.19,-46.3z"/>
    <path class="fil1" d="M11818.08 2357.22l-984.05 649.59c-74.94,49.44 -95.79,151.25 -46.3,226.19l429.72 650.99c49.44,74.94 151.25,95.79 226.19,46.3l984.01 -649.59c74.94,-49.44 95.79,-151.25 46.34,-226.19l-429.72 -650.95c-49.48,-74.94 -151.25,-95.79 -226.19,-46.34z"/>
    <path class="fil1" d="M5355.82 1398.9l721.43 932.64c54.93,71.01 41.76,174.06 -29.24,229.03l-616.98 477.23c-71.01,54.97 -174.1,41.8 -229.03,-29.24l-721.43 -932.64c-54.97,-71.01 -41.8,-174.06 29.24,-229.03l616.98 -477.23c71.01,-54.97 174.06,-41.8 229.03,29.24z"/>
    <path class="fil1" d="M10536.76 1305.23l-721.43 932.64c-54.97,71.01 -41.8,174.1 29.24,229.03l616.94 477.27c71.05,54.93 174.1,41.76 229.03,-29.24l721.47 -932.64c54.93,-71.05 41.76,-174.1 -29.24,-229.03l-616.98 -477.27c-71.05,-54.93 -174.1,-41.76 -229.03,29.24z"/>
    <path class="fil1" d="M6863.37 774.69l381.48 1115.7c29.05,84.97 -16.68,178.26 -101.65,207.27l-738.07 252.37c-84.97,29.05 -178.26,-16.68 -207.31,-101.65l-381.45 -1115.7c-29.05,-84.97 16.68,-178.22 101.65,-207.27l738.07 -252.37c84.97,-29.05 178.22,16.68 207.27,101.65z"/>
    <path class="fil1" d="M9029.17 681.06l-381.48 1115.66c-29.05,84.97 16.72,178.26 101.69,207.31l738.04 252.37c84.97,29.05 178.26,-16.72 207.31,-101.69l381.48 -1115.66c29.05,-84.97 -16.68,-178.26 -101.65,-207.31l-738.07 -252.37c-84.97,-29.05 -178.26,16.72 -207.31,101.69z"/>
    <path class="fil1" d="M8479.76 652.16l0.61 1179.1c0.04,89.81 -73.39,163.31 -163.16,163.35l-780.03 0.38c-89.81,0.08 -163.31,-73.35 -163.35,-163.16l-0.61 -1179.1c-0.04,-89.81 73.39,-163.28 163.2,-163.35l780.03 -0.38c89.77,-0.04 163.28,73.39 163.31,163.16z"/>
    <path class="fil2" d="M4366.48 10142.49l0 -4029.45c0,-1976.27 1616.95,-3593.22 3593.22,-3593.22l0.04 0c1976.31,0 3593.26,1617.07 3593.26,3593.22l0 4029.45 -7186.52 0z"/>
    <path class="fil3" d="M5015.27 9454.31l0 -3301.89c0,-1619.41 1324.98,-2944.43 2944.43,-2944.43l0.04 0c1619.45,0 2944.43,1325.09 2944.43,2944.43l0 3301.89 -5888.9 0z"/>
    <polygon class="fil4" points="5734.13,9050.4 6971,8654.61 7894.52,9066.89 6377.29,9454.31 "/>
    <polygon class="fil4" points="8778.62,7908.71 9981.1,8399.22 10424.59,9308.21 9012.53,8631.31 "/>
    <path class="fil5" d="M7402.38 9223.17c-3103.73,-1256.54 -753.96,-3895.34 -892.16,-4259.76 -138.23,-364.38 -138.23,-364.38 -138.23,-364.38 0,0 565.45,414.66 427.22,1068.07 -138.2,653.41 -138.2,741.37 -138.2,741.37 0,0 728.81,-389.54 615.69,-1030.39 -113.08,-640.85 -339.26,-1030.39 -213.59,-1231.42 125.64,-201.07 477.5,-477.5 477.5,-477.5 0,0 -351.86,251.31 -125.67,615.73 226.19,364.38 678.57,904.72 615.73,1206.3 -62.84,301.55 -62.84,301.55 -62.84,301.55 0,0 615.73,-376.94 439.78,-1068.07 -175.91,-691.13 -150.75,-779.08 -50.24,-992.67 100.52,-213.63 113.08,-263.91 113.08,-263.91 0,0 -201.03,364.42 163.35,1005.27 364.42,640.85 854.48,1156.03 527.77,1796.88 -326.7,640.85 -326.7,640.85 -326.7,640.85 0,0 615.73,-263.87 716.25,-615.69 100.52,-351.86 -100.52,-929.88 -100.52,-929.88 0,0 653.41,892.16 603.13,1658.68 -50.28,766.49 -163.35,2575.96 -2651.36,2198.98z"/>
    <path class="fil6" d="M7382.29 9185.49c-1595.84,-590.57 -238.75,-2035.66 75.4,-2965.5 314.15,-929.88 25.12,-1306.86 25.12,-1306.86 0,0 552.89,1118.35 87.96,1960.27 -464.94,841.92 -603.13,1859.71 -188.47,2312.09z"/>
    <path class="fil7" d="M8630.78 6590.65c-364.38,-590.57 -188.47,-917.28 100.55,-1432.45 288.99,-515.21 -12.6,-867.04 -12.6,-867.04 0,0 703.69,276.43 351.86,992.67 -351.86,716.25 -427.26,791.64 -439.82,1306.82z"/>
   </g>
   <polygon class="fil8" points="297.23,11604.64 1453.26,10625.24 13202.38,10625.24 14432.4,11439.51 14102.14,12100.03 14366.35,12661.47 13375.56,13189.89 13705.82,13817.39 12847.15,14312.78 11955.44,14246.73 11526.1,14543.96 10039.93,14411.86 9181.25,14709.09 8355.6,14444.88 6803.37,14742.12 5713.51,14312.78 4260.36,14709.09 3302.61,14874.22 2113.67,13982.52 858.68,13916.47 1254.99,12991.74 -0,12826.6 660.52,12397.27 "/>
   <polygon class="fil3" style="mask:url(#id0)" points="13697.28,11354.35 14531.63,12424.43 13375.56,13189.89 13705.82,13817.39 13007.81,14220.06 11663.16,11480.03 "/>
   <g>
    <polygon class="fil9" points="1879.23,10509.67 914.18,6832.43 1230.33,6732.59 2478.24,10310 2345.12,10842.47 "/>
    <path class="fil6" d="M659.01 5374.29c100.78,0 182.53,78.95 182.53,176.29 0,97.38 -81.75,176.33 -182.53,176.33 -100.82,0 -182.53,-78.95 -182.53,-176.33 0,-97.34 81.71,-176.29 182.53,-176.29z"/>
    <path class="fil6" d="M594.7 6803.37c72.14,0 130.67,53.87 130.67,120.3 0,66.47 -58.52,120.3 -130.67,120.3 -72.14,0 -130.67,-53.83 -130.67,-120.3 0,-66.43 58.52,-120.3 130.67,-120.3z"/>
    <path class="fil6" d="M1451.33 6525.43c68.74,0 124.46,58.52 124.46,130.7 0,72.14 -55.72,130.67 -124.46,130.67 -68.74,0 -124.46,-58.52 -124.46,-130.67 0,-72.18 55.72,-130.7 124.46,-130.7z"/>
    <polygon class="fil6" points="594.7,6923.67 594.7,6803.37 1413.8,6531.52 1451.33,6656.14 1230.33,6732.59 914.18,6832.43 "/>
    <polygon class="fil6" points="659.01,5726.9 882.93,6707.74 1159.32,6616 788.01,5675.3 "/>
    <polygon class="fil10" points="2345.12,10842.47 1072.23,6782.49 914.18,6832.43 1879.23,10509.67 "/>
   </g>
   <g>
    <polygon class="fil6" points="3889.25,2014.52 3625.76,1714.44 4333.45,176.78 4366.56,1785.3 4058.46,2063.28 3921.14,2820.5 3653.11,2763.98 "/>
    <polygon class="fil11" points="4334.63,232.88 4366.56,1785.3 4058.46,2063.28 3921.14,2820.5 3758.16,2786.15 "/>
    <polygon class="fil12" points="1777.02,10235.32 3699.79,2773.85 3885.88,2813.08 2194.21,10281.86 "/>
   </g>
   <g>
    <polygon class="fil6" points="3025.31,2148.4 2740.82,1868.15 3335.56,283.35 3484.8,1885.29 3197.63,2184.79 3115.38,2949.95 2843.99,2912.99 "/>
    <polygon class="fil11" points="3340.78,339.26 3484.8,1885.29 3197.63,2184.79 3115.38,2949.95 2950.37,2927.48 "/>
    <polygon class="fil12" points="1512.88,10500.37 2891.28,2919.42 3079.71,2945.11 1932.35,10516.63 "/>
   </g>
   <path class="fil12 str0" d="M1554.38 11501.74l-342.82 -2971.17c0,0 1820.18,132.1 1861.07,32.65 40.89,-99.49 -244.88,2873.23 -244.88,2873.23l-1273.38 65.3z"/>
   <line class="fil13 str0" x1="1726.25" y1="8563.52" x2="1876.09" y2= "11485.25" />
   <line class="fil13 str0" x1="2173.86" y1="8586.25" x2="2191.07" y2= "11469.09" />
   <line class="fil13 str0" x1="2620.79" y1="8599.68" x2="2484.26" y2= "11454.07" />
   <path class="fil6 str0" d="M1177.74 8944.96c12.18,69.46 73.39,383.19 73.39,383.19l1842.61 65.22 8.17 -423.97 -1924.18 -24.44z"/>
   <path class="fil14" d="M12220.9 7082c-72.79,157.72 -273.44,210.94 -334.38,313.46 -60.98,102.52 59.02,228.69 127.83,199.1 68.85,-29.58 88.52,-41.39 76.72,15.78 -11.8,57.2 -72.75,118.3 23.61,195.21 96.39,76.87 149.47,63.1 169.14,37.45 19.67,-25.65 -47.17,47.29 70.82,108.42 117.99,61.13 307.49,-194.98 365.86,-260.24 58.33,-65.26 180.94,-368.7 82.58,-528.38 -98.32,-159.68 -477.95,-321.33 -582.17,-80.81z"/>
   <polygon class="fil15" points="12456.36,10239.11 12519.19,7364.67 12688.9,7362.89 12778.37,10239.11 "/>
   <path class="fil16" d="M2335.73 8592.57c337.71,1413.65 -882.47,2032.67 -882.47,2032.67l101.12 876.5c0,0 1328.04,-68.1 1273.38,-65.3 -54.63,2.8 320.31,-2819.17 320.31,-2819.17l-812.34 -24.7z"/>
   <path class="fil17" d="M2216.76 7916.31c471.78,1163.71 2248.76,1745.54 2767.68,1965.71 518.96,220.14 267.35,723.36 -47.17,912.06 -314.52,188.7 -1226.58,456.05 -1493.93,456.05 -267.31,0 -456.05,15.74 -456.05,15.74l47.21 172.96 5959.94 15.74 125.82 -283.05c0,0 -1053.62,62.87 -1383.84,-78.65 -330.26,-141.52 -896.36,-503.22 -817.75,-974.97 78.65,-471.78 518.96,-707.66 896.36,-1037.88 377.4,-330.22 1431.02,-424.61 1431.02,-424.61l324.59 -110.58 -104.41 -659.95 -7249.47 31.44z"/>
   <path class="fil18" d="M3679.89 11219.11l4417.29 -53.76c435.13,41.27 1023.09,6.17 1023.09,6.17l-65.56 147.43 -60.26 135.62 -5959.94 -15.74 -47.21 -172.96c0,0 188.74,-15.74 456.05,-15.74 55.08,0 137.59,-11.35 236.55,-31.02z"/>
   <path class="fil19" d="M6016.31 10537.55c-1413.69,274.88 -2136.37,679.1 -2136.37,679.1l3989.57 -48.54c0,0 -1389.86,-724.8 -1853.21,-630.56z"/>
   <path class="fil20" d="M6762.4 11409.32c-149.2,-78.54 -141.37,-23.53 -204.21,-227.74 -62.8,-204.21 -141.37,-573.32 -141.37,-675.43 0,-102.1 137.48,-2222.28 208.14,-2418.62 70.71,-196.34 86.41,-188.51 518.35,-188.51 431.95,0 1500.06,0 1625.73,31.44 125.67,31.4 325.91,196 475.15,258.84 149.2,62.84 274.88,204.21 274.88,204.21l966 2835.17c0,0 -109.94,70.71 -117.8,117.84 -7.87,47.1 -7.87,109.94 -7.87,109.94l1115.25 7.87c0,0 -39.27,-188.51 -164.94,-164.94 -125.64,23.57 -212.04,54.97 -212.04,54.97l-518.35 -259.18c0,0 -7.83,-3180.76 -15.7,-3345.7 -7.87,-164.9 -164.94,-345.54 -212.04,-361.28 -47.14,-15.7 -1555.06,-824.63 -1586.46,-966 -31.44,-141.37 62.84,-1107.38 62.84,-1107.38l2992.25 1657.17c0,0 7.87,117.8 164.94,149.2 157.07,31.4 164.94,70.67 164.94,70.67 0,0 180.64,39.27 172.77,172.81 -7.87,133.5 7.87,369.11 86.41,369.11 78.54,0 125.64,0 125.64,0 0,0 125.67,-157.07 117.8,-282.75 -7.83,-125.64 -70.67,-353.41 -70.67,-353.41 0,0 148.3,343.16 148.3,408.23 0,65.07 -9.84,185.33 -9.84,185.33 0,0 214.39,-201.11 177.01,-414.02 -37.38,-212.91 -72.79,-534.28 -273.4,-640.74 -200.62,-106.46 -271.43,-157.72 -381.6,-260.24 -110.12,-102.52 -2587.57,-3334.76 -2823.45,-3743.64 -235.91,-408.87 -1022.18,-691.92 -1446.75,-723.36 -424.61,-31.48 -1556.84,-31.48 -2091.5,188.7 -183.78,75.66 -336.01,156.96 -473.22,250.14 -261.94,177.95 -469.33,399.53 -737.62,709.1 -408.87,471.75 -424.61,2107.24 -440.35,2406.02 -15.7,298.79 0,896.36 235.91,1037.88 235.87,141.52 1100.76,345.96 1100.76,345.96 0,0 -123.29,117.12 -162.56,258.5 -39.27,141.37 -180.64,596.89 -39.27,698.96 141.37,102.1 164.9,141.37 164.9,141.37l706.86 2473.93c0,0 -31.44,188.51 -94.27,243.48 -62.8,54.97 -47.1,70.67 7.87,227.78 54.97,157.07 70.67,361.24 47.14,471.22 -23.57,109.94 111.22,88.15 279.38,98.02 168.19,9.84 285.2,17.74 301.93,3.93 16.72,-13.81 -4.92,-48.31 -15.85,-54.85z"/>
   <path class="fil21" d="M6411.03 10262.34c36.77,-593.45 137.14,-2002.26 194.15,-2160.58 70.67,-196.34 86.37,-188.51 518.32,-188.51 431.99,0 1500.1,0 1625.73,31.44 125.67,31.4 325.91,196 475.15,258.84 149.2,62.84 274.88,204.21 274.88,204.21l781.24 2292.95c100.55,19.37 193.88,21.34 277.94,12.9 -2.38,-857.66 -8.51,-2821.21 -14.64,-2949.88 -7.83,-164.9 -164.9,-345.54 -212.04,-361.24 -47.14,-15.74 -1555.06,-824.67 -1586.46,-966.04 -31.4,-141.33 62.84,-1107.38 62.84,-1107.38l2876.56 1593.08c118.07,-159.57 306.28,-404.98 482.38,-596.4 -386.74,-471.78 -2548.27,-3298.33 -2767.84,-3678.95 -235.87,-408.87 -1022.14,-691.92 -1446.75,-723.36 -424.57,-31.48 -1556.8,-31.48 -2091.5,188.7 -183.78,75.66 -335.97,156.96 -473.22,250.14 -261.94,177.95 -469.33,399.53 -737.62,709.13 -408.87,471.75 -424.61,2107.2 -440.31,2405.99 -15.74,298.79 0,896.36 235.87,1037.88 235.87,141.52 1100.79,345.96 1100.79,345.96 0,0 -123.33,117.12 -162.6,258.5 -39.27,141.37 -180.64,596.89 -39.27,699 141.37,102.07 164.94,141.33 164.94,141.33l626.78 2193.79c93.71,49.22 186.39,84.1 274.69,108.5zm841.62 -3272.53l427.6 -843.39 220.85 104.53c0,0 320.65,-16.49 551.12,77.78 230.46,94.27 114.4,140.92 114.4,140.92l230.09 135.28c0,0 57.81,122.38 8.28,195.62 -49.56,73.24 -157.75,122.53 -157.75,122.53 0,0 99.42,51.41 48.27,173.64 -51.15,122.23 -225.28,127.98 -225.28,127.98 0,0 95.26,59.66 10.78,139.33 -84.48,79.67 -363.78,95.45 -454.23,83.61 -90.49,-11.84 -537.87,-325.68 -537.87,-325.68l-236.25 -132.14z"/>
   <path class="fil14" d="M4845.64 2858.25c-325.19,644.86 -294.89,1194.27 -274.42,1883.24 23.57,793.23 196.34,1217.35 416.25,1327.29 219.91,109.97 1335.12,534.05 1335.12,534.05l636.16 -942.44 871.77 526.19c0,0 502.65,23.57 675.43,-86.37 172.77,-109.97 70.67,-353.45 23.57,-479.09 -47.14,-125.67 -581.19,-384.85 -706.86,-384.85 -125.64,0 -125.64,117.8 -125.64,117.8 0,0 104.3,154.65 175.12,186.16 70.78,31.55 173.07,106.46 173.07,106.46l-334.38 -110.39 7.87 189.27c0,0 208.48,161.65 259.63,169.56 51.15,7.91 86.56,35.49 86.56,35.49 0,0 -334.38,-86.78 -405.2,-94.65 -70.78,-7.87 -232.09,55.23 -232.09,55.23 0,0 180.98,-106.46 180.98,-157.72 0,-51.3 -3.93,-220.82 -3.93,-220.82 0,0 -243.89,94.61 -334.38,94.61 -90.45,0 -90.45,0 -90.45,0 0,0 416.97,-177.43 428.77,-212.91 11.8,-35.49 51.15,-141.94 -39.34,-153.78 -90.49,-11.84 -145.53,-27.58 -338.32,55.19 -192.75,82.81 -464.18,299.69 -464.18,299.69 0,0 -503.49,-248.4 -700.21,-339.11 -196.68,-90.68 -302.91,-67.04 -302.91,-67.04 0,0 174.17,-1021.16 229.14,-1248.9 54.97,-227.78 31.4,-204.21 31.4,-204.21 0,0 7.87,1107.38 23.57,1248.75 15.7,141.37 102.1,204.21 243.48,251.31 141.37,47.14 1170.21,-70.67 1264.45,-117.8 94.24,-47.1 149.2,-620.42 149.2,-620.42 0,0 7.87,604.72 196.34,636.12 188.51,31.44 1170.21,141.37 1264.49,47.14 94.24,-94.24 109.94,-1413.69 109.94,-1413.69l1822.07 2222.62 706.83 644.03 386.51 -317.7 0.11 0.11c26.41,32.12 44.15,52.77 51.37,59.51 20.39,18.95 39.42,36.13 58.15,52.28l0 0 -354.78 378.57 128.09 337.3c-22.4,-7.72 -51.34,-15.66 -88.83,-23.15 -157.07,-31.4 -164.94,-149.2 -164.94,-149.2l-2992.25 -1657.17c0,0 -94.27,966 -62.84,1107.38 31.4,141.37 1539.33,950.3 1586.46,966 26.94,9 89.77,71.88 140.16,154.88 -167.32,98.09 -153.59,266.33 -297.23,716.89 -172.81,541.92 -55.01,1288.02 70.67,1916.35 91.97,459.91 259.71,1016.51 343.01,1281.89l-248.77 -1.74c0,0 0,-62.84 7.87,-109.94 7.87,-47.14 117.8,-117.84 117.8,-117.84l-966 -2835.17c0,0 -125.67,-141.37 -274.88,-204.21 -149.24,-62.84 -349.48,-227.44 -475.15,-258.84 -125.67,-31.44 -1193.78,-31.44 -1625.73,-31.44 -431.95,0 -447.65,-7.83 -518.35,188.51 -15.66,43.54 -34.61,181.89 -54.67,371.72 -255.55,-631.24 -628.4,-514.61 -758.2,-246.39 -55.5,114.66 -89.39,236.1 -109.97,337.56l-172.77 -604.61c0,0 -23.53,-39.27 -164.9,-141.37 -141.37,-102.07 0,-557.58 39.27,-698.96 39.27,-141.37 162.56,-258.5 162.56,-258.5 0,0 -864.88,-204.44 -1100.76,-345.96 -235.91,-141.52 -251.61,-739.1 -235.91,-1037.88 15.74,-298.79 31.48,-1934.24 440.35,-2406.02 61.29,-70.71 119.39,-136.83 175.69,-198.88z"/>
   <path class="fil22" d="M4845.64 2858.25c-325.19,644.86 -294.89,1194.27 -274.42,1883.24 23.57,793.23 196.34,1217.35 416.25,1327.29 219.91,109.97 1335.12,534.05 1335.12,534.05l636.16 -942.44 871.77 526.19c0,0 502.65,23.57 675.43,-86.37 172.77,-109.97 70.67,-353.45 23.57,-479.09 -47.14,-125.67 -581.19,-384.85 -706.86,-384.85 -125.64,0 -125.64,117.8 -125.64,117.8 0,0 104.3,154.65 175.12,186.16 70.78,31.55 173.07,106.46 173.07,106.46l-334.38 -110.39 7.87 189.27c0,0 208.48,161.65 259.63,169.56 51.15,7.91 86.56,35.49 86.56,35.49 0,0 -334.38,-86.78 -405.2,-94.65 -70.78,-7.87 -232.09,55.23 -232.09,55.23 0,0 180.98,-106.46 180.98,-157.72 0,-51.3 -3.93,-220.82 -3.93,-220.82 0,0 -243.89,94.61 -334.38,94.61 -90.45,0 -90.45,0 -90.45,0 0,0 416.97,-177.43 428.77,-212.91 11.8,-35.49 51.15,-141.94 -39.34,-153.78 -90.49,-11.84 -145.53,-27.58 -338.32,55.19 -192.75,82.81 -464.18,299.69 -464.18,299.69 0,0 -503.49,-248.4 -700.21,-339.11 -196.68,-90.68 -302.91,-67.04 -302.91,-67.04 0,0 174.17,-1021.16 229.14,-1248.9 54.97,-227.78 31.4,-204.21 31.4,-204.21 0,0 7.87,1107.38 23.57,1248.75 15.7,141.37 102.1,204.21 243.48,251.31 141.37,47.14 1170.21,-70.67 1264.45,-117.8 94.24,-47.1 149.2,-620.42 149.2,-620.42 0,0 7.87,604.72 196.34,636.12 188.51,31.44 1170.21,141.37 1264.49,47.14 94.24,-94.24 109.94,-1413.69 109.94,-1413.69l1822.07 2222.62 706.83 644.03 325.08 -267.24c-158.36,177.08 -321.75,389.31 -431.65,537.19l-2869.98 -1589.41c0,0 -94.27,966 -62.84,1107.38 31.4,141.37 1539.33,950.3 1586.46,966 26.94,9 89.77,71.88 140.16,154.88 -167.32,98.09 -153.59,266.33 -297.23,716.89 -172.81,541.92 -55.01,1288.02 70.67,1916.35 34.58,172.96 79.9,359.62 127.38,539.31 -27.92,-2.08 -56.52,-5.41 -85.8,-10.25l-787.67 -2311.86c0,0 -125.67,-141.37 -274.88,-204.21 -149.24,-62.84 -349.48,-227.44 -475.15,-258.84 -125.67,-31.44 -1193.78,-31.44 -1625.73,-31.44 -431.95,0 -447.65,-7.83 -518.35,188.51 -15.66,43.54 -34.61,181.89 -54.67,371.72 -255.55,-631.24 -628.4,-514.61 -758.2,-246.39 -55.5,114.66 -89.39,236.1 -109.97,337.56l-172.77 -604.61c0,0 -23.53,-39.27 -164.9,-141.37 -141.37,-102.07 0,-557.58 39.27,-698.96 39.27,-141.37 162.56,-258.5 162.56,-258.5 0,0 -864.88,-204.44 -1100.76,-345.96 -235.91,-141.52 -251.61,-739.1 -235.91,-1037.88 15.74,-298.79 31.48,-1934.24 440.35,-2406.02 61.29,-70.71 119.39,-136.83 175.69,-198.88zm2407.01 4131.55l427.6 -843.39 220.85 104.53c0,0 320.65,-16.49 551.12,77.78 230.46,94.27 114.4,140.92 114.4,140.92l230.09 135.28c0,0 57.81,122.38 8.28,195.62 -49.56,73.24 -157.75,122.53 -157.75,122.53 0,0 99.42,51.41 48.27,173.64 -51.15,122.23 -225.28,127.98 -225.28,127.98 0,0 95.26,59.66 10.78,139.33 -84.48,79.67 -363.78,95.45 -454.23,83.61 -90.49,-11.84 -537.87,-325.68 -537.87,-325.68l-236.25 -132.14z"/>
   <path class="fil22" d="M8969.74 2232.38c96.35,247.9 79.97,501.41 62.38,671.34 -23.53,227.78 -274.88,486.92 -274.88,486.92 0,0 47.14,259.18 -227.74,455.52 -274.88,196.38 -785.4,306.31 -1099.55,259.18 -314.15,-47.1 -471.22,-141.37 -471.22,-141.37 0,0 -479.09,0 -753.96,-361.24 -274.88,-361.28 -463.35,-918.9 -463.35,-1021.01 0,-73.88 -33.03,-254.75 -232.92,-298.37 110.65,-66.92 232.32,-127.83 372.29,-185.45 534.66,-220.17 1666.89,-220.17 2091.5,-188.7 265.42,19.63 672.14,137.63 997.44,323.19z"/>
   <path class="fil23" d="M6255.32 508.97c0,0 62.95,-216.88 177.01,-212.91 114.1,3.93 -43.24,-122.27 169.18,-153.78 212.42,-31.55 216.35,106.46 216.35,106.46 0,0 98.32,-260.24 314.71,-248.4 216.35,11.8 177.01,307.52 177.01,307.52 0,0 145.53,-74.9 177.01,55.19 31.48,130.14 -149.47,386.44 -149.47,386.44l-1215.53 11.46c0,0 -133.77,-90.34 -27.54,-169.18 106.23,-78.88 161.27,-82.81 161.27,-82.81z"/>
   <path class="fil13" d="M6013.4 812.6c-76.68,-3.93 -43.28,37.45 -13.77,74.9 29.51,37.45 120,9.84 88.52,-41.42 -31.48,-51.22 -74.75,-33.48 -74.75,-33.48z"/>
   <path class="fil24" d="M5934.75 871.73c-232.13,88.71 -202.62,153.78 -275.37,297.69 -72.79,143.91 -90.49,244.46 -285.2,201.11 -194.71,-43.35 -226.19,-37.45 -226.19,-37.45l208.48 299.66c0,0 247.83,15.78 324.55,-122.23 76.72,-138.01 141.6,-473.15 178.98,-530.35 37.38,-57.16 112.09,-76.87 112.09,-76.87l-37.34 -31.55z"/>
   <path class="fil24" d="M5999.63 932.86l55.08 9.84c0,0 -59.02,110.39 3.93,339.11 62.95,228.69 165.21,508.63 70.82,761 -94.43,252.37 -153.4,295.72 -153.4,295.72l-255.7 -311.5c0,0 279.3,-63.1 263.57,-315.43 -15.78,-252.37 -62.95,-583.57 -39.34,-662.45 23.57,-78.84 55.04,-116.29 55.04,-116.29z"/>
   <path class="fil23" d="M5469.81 2307.25c-241.21,-157.98 -95.64,-552.29 128.59,-595.64 224.22,-43.39 0.68,-135.24 106.53,-250.97 105.89,-115.72 121.63,-115.72 121.63,-115.72 0,0 -123.86,-239.09 1.97,-282.1 125.82,-43.01 324.55,-210.79 324.55,-210.79l1211.6 -23.68c0,0 133.77,-102.48 275.37,11.84 141.6,114.36 121.93,354.89 121.93,354.89 0,0 110.16,-130.14 114.1,47.29 3.93,177.46 3.93,177.46 3.93,177.46 0,0 578.24,35.45 743.45,323.3 165.24,287.85 146.9,387.99 146.9,387.99 0,0 301.59,400.63 136.34,787.03 -165.21,386.44 -298.94,358.82 -298.94,358.82 0,0 39.31,193.24 -373.73,461.34 -413.03,268.14 -857.54,185.29 -983.44,157.72 -125.9,-27.62 -346.15,-173.49 -346.15,-173.49 0,0 -141.64,0 -283.24,-67.04 -141.64,-67 -578.28,-492.86 -653.03,-875.32 -74.72,-382.5 -74.72,-441.63 -74.72,-441.63l-88.41 -208.33 -335.22 177.05z"/>
   <path class="fil25" d="M6849.34 1873.26c-94.43,212.91 -689.12,49.37 -689.12,49.37l-187.79 -936.12c-49.26,32.23 -100.82,61.59 -143.91,76.3 -125.82,43.01 -1.97,282.1 -1.97,282.1 0,0 -15.74,0 -121.63,115.72 -105.85,115.72 117.69,207.58 -106.53,250.97 -224.22,43.35 -369.79,437.66 -128.59,595.64l335.22 -177.05 88.41 208.33c0,0 0,59.13 74.72,441.63 74.75,382.47 511.39,808.33 653.03,875.32 141.6,67.04 283.24,67.04 283.24,67.04 0,0 220.25,145.87 346.15,173.49 125.9,27.58 570.41,110.43 983.44,-157.72 413.03,-268.11 373.73,-461.34 373.73,-461.34 0,0 133.73,27.62 298.94,-358.82 165.24,-386.4 -136.34,-787.03 -136.34,-787.03 0,0 6.02,-32.99 -20.05,-115.46 -196.68,-95.86 -552.78,1.85 -705.09,137.55 -177.01,157.72 -177.01,157.72 -177.01,157.72 0,0 117.99,-153.78 397.3,-177.43 279.3,-23.64 401.23,0 452.38,78.88 51.15,78.84 66.88,382.47 23.61,540.18 -43.28,157.72 -220.29,272.08 -322.58,248.4 -102.26,-23.64 -515.33,-114.36 -656.93,-315.43 -141.6,-201.07 -141.6,-201.07 -141.6,-201.07 0,0 216.35,465.24 538.9,575.67 322.58,110.39 295.04,256.26 236.02,346.98 -58.98,90.68 -365.82,228.69 -708.07,216.88 -342.22,-11.84 -495.66,-23.68 -420.9,-114.36 74.75,-90.68 255.66,-240.56 196.68,-449.5 -58.98,-208.98 -58.98,-208.98 -58.98,-208.98 0,0 47.17,362.76 -118.03,508.63 -165.21,145.91 -534.96,74.94 -652.99,0 -118.03,-74.9 -417.01,-291.79 -306.84,-587.51 110.16,-295.72 283.2,-272.08 263.57,-276.01 -19.67,-3.93 -259.67,59.13 -350.12,-78.88 -90.45,-137.97 -35.41,-307.52 200.65,-287.81 236.02,19.71 409.1,-256.3 409.1,-256.3z"/>
   <path class="fil26" d="M2385.63 8234.16c1323.5,861.29 3182.99,779.76 3182.99,779.76l-172.77 -856.03 -392.76 -253.65 -2786.33 12.07c45.09,111.22 102.18,217.11 168.88,317.85z"/>
   <path class="fil15" d="M11663.13 10239.11l1908.48 0c69.12,0 125.67,56.56 125.67,125.67l0 989.57c0,69.12 -56.56,125.67 -125.67,125.67l-1908.48 0c-69.12,0 -125.64,-56.56 -125.64,-125.67l0 -989.57c0,-69.12 56.52,-125.67 125.64,-125.67z"/>
   <polygon class="fil6" points="11860.94,10239.11 12034.02,10239.11 12034.02,11480.03 11860.94,11480.03 "/>
   <polygon class="fil6" points="13202.34,10236.72 13375.45,10236.72 13375.45,11477.6 13202.34,11477.6 "/>
   <polygon class="fil24" points="7337.12,749.5 6160.93,760.58 6082.25,761.34 6094.05,930.9 7392.17,907.21 "/>
   <path class="fil20" d="M6436.3 1053.09c-137.7,-110.39 -161.27,-98.55 -184.92,-7.87 -23.61,90.68 19.67,315.43 114.1,252.37 94.39,-63.1 125.86,-153.78 70.82,-244.5z"/>
   <path class="fil20" d="M6676.26 1033.38c66.85,-78.84 593.98,-86.75 684.43,-19.71 90.49,67.04 62.99,106.46 -7.83,126.2 -70.82,19.71 -118.03,0 -145.57,110.39 -27.5,110.39 -94.39,185.33 -157.34,90.68 -62.95,-94.61 59.02,-134.07 -133.77,-130.1 -192.75,3.93 -326.48,15.78 -239.92,-177.46z"/>
   <path class="fil3" d="M6867.76 1053.17c28.75,0 52.13,23.42 52.13,52.24 0,28.86 -23.38,52.24 -52.13,52.24 -28.79,0 -52.13,-23.38 -52.13,-52.24 0,-28.83 23.34,-52.24 52.13,-52.24z"/>
   <path class="fil3" d="M7239.48 1048.25c18.5,0 33.44,15.89 33.44,35.49 0,19.6 -14.94,35.49 -33.44,35.49 -18.46,0 -33.44,-15.89 -33.44,-35.49 0,-19.6 14.98,-35.49 33.44,-35.49z"/>
   <path class="fil20" d="M7571.33 7121.19l416.25 -879.64c0,0 234.63,8.44 417.54,51.83 182.95,43.35 228.19,69 243.93,98.59 15.7,29.58 0,76.87 0,76.87 0,0 206.48,92.68 243.86,151.81 37.38,59.13 -3.93,230.65 -55.04,252.37 -51.15,21.68 -108.2,49.26 -108.2,49.26 0,0 59.02,33.56 59.02,88.75 0,55.19 -98.36,185.29 -153.44,197.14 -55.04,11.84 -82.58,15.78 -82.58,15.78 0,0 62.95,39.42 47.21,98.55 -15.78,59.17 -228.19,138.04 -397.33,126.2 -169.14,-11.84 -631.2,-327.5 -631.2,-327.5z"/>
   <g>
    <path class="fil27" d="M8260.72 4848.82l189.57 -321.45c47.86,11.27 129.99,176.48 157.72,228.84l-243.1 0c-63.29,42.41 -81.03,60.83 -81.03,162.07 18.5,26.63 45.96,81.03 92.61,81.03l405.17 0c42.82,0 127.34,-78.69 127.34,-138.91l0 -23.15c0,-79.82 -154.2,-307.64 -196.79,-370.4 -63.44,-93.48 -118.56,-289.4 -266.25,-289.4 -131.31,0 -367.18,590.35 -439.86,590.35l-254.68 0 0 -520.89c0,-28.03 -53.04,-81.03 -81.03,-81.03l-46.3 0c-71.05,0 -104.19,55.08 -104.19,127.34l0 601.92c0,62.42 57.24,104.19 115.76,104.19l451.47 0c127.15,0 108.57,-102.82 173.6,-150.49z"/>
    <path class="fil27" d="M6512.8 5010.89c63.03,0 81.75,-88.64 81.15,-161.95 -1.06,-133.09 -25.88,-128.59 104.03,-127.49 150.23,1.29 358.9,34.54 358.9,-115.69 0,-65.03 -39.23,-127.34 -92.61,-127.34l-497.77 0c-57.2,0 -104.19,46.95 -104.19,104.19l0 324.09c0,45.21 44.19,104.19 81.03,104.19l69.46 0z"/>
   </g>
   <path class="fil28" d="M7195.75 4895.12c0,58.52 41.76,115.76 104.19,115.76l23.15 0c71.08,0 104.19,-55.08 104.19,-127.34l0 -601.92c0,-78.8 -43.16,-127.34 -115.76,-127.34 -46.3,0 -115.76,49.18 -115.76,92.61l0 648.23z"/>
   <path class="fil29" d="M6362.31 4339.51c0,90.83 49.03,47.74 69.46,104.19l567.23 0c47.63,0 115.76,-56.63 115.76,-92.61l0 -34.73c0,-58.22 -57.58,-115.76 -115.76,-115.76l-486.2 0c-100.55,0 -150.49,25.91 -150.49,127.34l0 11.58z"/>
   <path class="fil13 str1" d="M4344.27 4877.65c660.45,-676.18 1695.68,-51.6 1695.68,-51.6"/>
   <path class="fil13 str1" d="M10370.3 3947.47c-677.89,328.56 -710.84,710.04 -710.84,710.04"/>
   <path class="fil13 str1" d="M5744.87 8699.97c168.69,-218.7 286.49,-422.91 372.86,-399.34 86.41,23.53 423.85,456.2 423.85,456.2"/>
   <path class="fil13 str1" d="M9914.67 9487.83c429.6,-1151.49 457.98,-1210.24 546.2,-1210.77 88.22,-0.53 88.22,-0.53 88.22,-0.53"/>
   <path class="fil30 str2" d="M3971.49 9874.27c1195.45,0 2164.89,969.45 2164.89,2164.89 0,1195.45 -969.45,2164.89 -2164.89,2164.89 -1195.45,0 -2164.89,-969.45 -2164.89,-2164.89 0,-1195.45 969.45,-2164.89 2164.89,-2164.89z"/>
   <path class="fil30 str2" d="M3971.49 9931.77c1163.71,0 2107.39,943.68 2107.39,2107.39 0,1163.67 -943.68,2107.39 -2107.39,2107.39 -1163.67,0 -2107.39,-943.72 -2107.39,-2107.39 0,-1163.71 943.72,-2107.39 2107.39,-2107.39z"/>
   <path class="fil31 str2" d="M3971.49 9999.03c1126.56,0 2040.16,913.61 2040.16,2040.16 0,1126.56 -913.61,2040.13 -2040.16,2040.13 -1126.56,0 -2040.13,-913.57 -2040.13,-2040.13 0,-1126.56 913.57,-2040.16 2040.13,-2040.16z"/>
   <g>
    <path class="fil31" d="M12155.83 11469.81l0 -9.5 1450.01 0 0 514.23 -467.89 0 0 643.5 -514.23 0 0 -643.5 -174.55 0c7.6,13.47 14.49,27.35 20.69,41.65 23.11,53.45 34.65,110.5 34.92,169.67 -0.26,59.13 -11.84,116.18 -35.07,169.78 -22.17,50.96 -53.45,96.92 -92.87,136 -39.23,38.97 -85.08,69.76 -136.23,91.89 -53.3,22.77 -110.31,34.16 -168.76,34.5l-711.82 0c-10.97,-0.08 -21.87,-0.53 -32.72,-1.44l0 1.44 -1450.05 0 0 -352.2 -542.41 0 0 352.2 -1646.27 0 0 -39.34c-7.79,3.03 -15.66,5.9 -23.61,8.63 -59.58,20.43 -122,30.45 -185.37,30.72l-410.99 0c-62.16,-0.26 -123.67,-9.95 -182.49,-29.77 -57.16,-19.14 -110.69,-46.65 -159.19,-82.43 -47.48,-35.07 -89.13,-76.76 -124.35,-124.35 -35.75,-48.46 -63.25,-102.03 -82.32,-158.96 -19.86,-59.05 -29.58,-120.76 -29.81,-183.71 0.23,-62.38 9.91,-124.39 30.04,-183.29 19.33,-56.94 47.17,-110.28 83.45,-158.4 35.67,-47.25 77.78,-88.26 125.64,-122.08 48.69,-34.8 101.92,-61.06 158.66,-79.29 58.37,-18.88 119.09,-27.96 180.83,-28.22l410.99 0c62.57,0.26 124.92,10.25 184.69,30.45 8.02,2.76 15.96,5.64 23.83,8.74l0 -39.19 3580.89 0 0 23.68c41.95,-14.79 86.22,-22.36 131.42,-22.66l725.4 0c9.87,0.08 19.75,0.49 29.55,1.25z"/>
   </g>
   <path class="fil32" d="M7788.18 12260.21l0 -243.74 -710.61 0 0 117.73 592.88 0 0 85.76c-16.19,17.02 -34.46,31.66 -54.59,44.22 -20.13,12.41 -41.65,22.02 -64.73,28.9 -22.89,6.92 -46.83,10.37 -71.76,10.52l-410.08 0c-36.66,-0.15 -70.74,-7.23 -102.6,-21 -31.66,-13.77 -59.73,-32.72 -83.64,-56.97 -24.1,-24.29 -42.86,-52.36 -56.48,-84.21 -13.58,-31.66 -20.47,-65.9 -20.66,-102.26 0.19,-36.66 7.07,-70.55 20.66,-101.54 13.62,-31.17 32.38,-58.37 56.48,-81.6 23.91,-23.27 51.98,-41.5 83.64,-54.4 31.85,-12.9 65.94,-19.44 102.6,-19.63l410.08 0c31.48,0.19 61.44,5.52 89.51,16.19 28.22,10.67 53.87,25.46 76.76,44.75 22.93,19.1 42.18,41.5 57.84,67.15l84.7 -84.7c-23.23,-32.19 -50.77,-60.26 -82.62,-84.02 -31.66,-23.76 -66.81,-42.18 -105.02,-55.27 -38.21,-12.9 -78.69,-19.6 -121.17,-19.79l-410.08 0c-42.18,0.19 -82.09,6.36 -119.96,18.61 -38.06,12.22 -72.82,29.43 -104.34,51.98 -31.66,22.36 -59.05,49.07 -82.47,80.05 -23.23,30.79 -41.12,65.07 -53.87,102.6 -12.75,37.34 -19.29,77.29 -19.44,119.62 0.15,42.18 6.7,82.13 19.44,120 12.75,38.06 30.64,72.82 53.87,104.34 23.42,31.66 50.81,59.05 82.47,82.43 31.51,23.27 66.28,41.16 104.34,53.91 37.87,12.75 77.78,19.26 119.96,19.44l410.08 0c42.48,-0.19 82.96,-6.89 121.17,-19.97 38.21,-13.09 73.35,-31.51 105.02,-55.08 31.85,-23.76 59.39,-51.83 82.62,-84.02zm1151.68 159.08l0 -115.69 -936.84 0 0 -236.52 820.13 0 0 -115.69 -820.13 0 0 -169.41 878.99 0 0 -115.69 -994.68 0 0 752.98 1052.52 0zm1075.22 -637.29l0 -115.69 -994.68 0 0 752.98 115.69 0 0 -352.2 820.13 0 0 -115.69 -820.13 0 0 -169.41 878.99 0zm1113.47 637.29l0 -115.69 -936.84 0 0 -236.52 820.13 0 0 -115.69 -820.13 0 0 -169.41 878.99 0 0 -115.69 -994.68 0 0 752.98 1052.52 0zm1177.48 -233.41c-0.15,-32.19 -6.36,-62.5 -18.57,-90.76 -12.22,-28.22 -29.09,-53 -50.62,-74.53 -21.53,-21.53 -46.3,-38.4 -74.56,-50.62 -28.22,-12.22 -58.33,-18.42 -90.72,-18.57l-670.32 0c-15.66,-0.19 -30.15,-4.31 -43.39,-12.41 -13.24,-8.1 -23.95,-18.76 -32,-32 -8.1,-13.28 -12.22,-27.73 -12.41,-43.39 0.19,-16 4.46,-30.11 12.75,-42.33 8.1,-12.26 18.76,-21.71 32,-28.75 13.24,-6.89 27.73,-10.33 43.05,-10.52l724.04 0c12.07,0 23.76,2.08 34.96,6.2 11.2,4.12 21.34,10.33 30.11,18.57l78.5 -79.52c-19.26,-19.29 -41.31,-33.9 -65.94,-44.22 -24.59,-10.37 -50.43,-15.51 -77.63,-15.7l-724.04 0c-27.88,0.19 -54.06,5.71 -78.5,16.38 -24.63,10.82 -46.3,25.65 -65.26,44.41 -18.76,18.92 -33.56,40.63 -44.41,65.07 -10.67,24.63 -16.19,50.77 -16.34,78.65 0.15,28.07 5.83,53.91 16.68,77.48 11.01,23.76 25.84,44.41 44.94,61.97 18.92,17.55 40.63,31.17 65.22,40.97 24.48,9.65 50.28,14.64 77.67,14.83l670.32 0c15.85,0.15 30.98,3.25 45.13,9.65 14.11,6.36 26.48,15.13 37.34,26.14 11.01,11.01 19.63,23.61 25.84,37.87 6.17,14.11 9.46,29.28 9.46,45.13 0,15.81 -3.29,30.79 -9.46,44.9 -6.2,14.11 -14.83,26.71 -25.84,37.53 -10.86,11.01 -23.23,19.44 -37.34,25.84 -14.15,6.2 -29.28,9.31 -45.13,9.46l-709.59 0c-15.66,-0.15 -30.64,-3.25 -44.75,-9.46 -14.3,-6.2 -26.86,-14.64 -37.87,-25.65l-81.6 81.6c22.02,21.87 46.99,38.74 75.06,50.77 28.07,12.07 57.31,18.23 88.15,18.42l710.61 0c32.38,-0.19 62.5,-6.36 90.72,-18.42 28.26,-12.22 53.04,-28.9 74.56,-50.28 21.53,-21.34 38.4,-46.12 50.62,-74.19 12.22,-28.22 18.42,-58.37 18.57,-90.53zm1101.06 -410.08l0 -116.71 -1052.48 0 0 116.71 467.89 0 0 643.5 116.71 0 0 -643.5 467.89 0z"/>
   <g>
    <path class="fil32" d="M4571.86 13649.08l10.71 23 162.48 -75.74 58.98 126.51 22.96 -10.71 -69.68 -149.51 -185.45 86.44zm-190.7 141.49l22.51 78.5 24.4 -6.96 -22.55 -78.57c-2.12,-7.64 -2.76,-15.28 -1.82,-22.81 0.95,-7.49 3.18,-14.56 6.77,-21.11 3.56,-6.58 8.28,-12.22 14.11,-17.02 5.83,-4.84 12.56,-8.32 20.24,-10.55l49.14 -14.11c7.68,-2.12 15.32,-2.76 22.81,-1.78 7.57,0.95 14.56,3.29 21.19,6.92 6.58,3.63 12.26,8.4 17.1,14.3 4.8,5.83 8.36,12.64 10.59,20.28l22.51 78.5 24.4 -6.96 -22.55 -78.54c-2.53,-8.85 -6.36,-16.87 -11.35,-24.1 -4.99,-7.26 -10.82,-13.47 -17.67,-18.73 -6.85,-5.3 -14.26,-9.42 -22.32,-12.37 -8.02,-3.03 -16.46,-4.69 -25.23,-5.07 -8.74,-0.38 -17.55,0.64 -26.44,3.14l-49.18 14.15c-8.89,2.53 -16.87,6.32 -24.06,11.31 -7.19,4.99 -13.39,10.86 -18.57,17.67 -5.22,6.85 -9.31,14.22 -12.29,22.32 -2.91,8.06 -4.54,16.42 -4.96,25.2 -0.34,8.78 0.72,17.55 3.22,26.41zm-97.94 -66.51l31.44 161.95 24.89 -4.84 25.5 -20.62 -5.49 -28.22 -25.5 20.62 -25.99 -133.73 -24.85 4.84zm-249.76 79.82c0.64,7.07 2.61,13.54 5.79,19.52 3.14,5.9 7.26,11.08 12.37,15.28 5.07,4.27 10.82,7.49 17.25,9.61 6.43,2.04 13.13,2.84 20.24,2.23l-41.39 41.35 2.19 24.82 216.43 -18.95 -2.19 -24.78 -176.93 15.47 40.89 -41.08 0 -0.23 55.23 -4.84 -2.19 -25.2 -94.24 8.25c-4.84,0.38 -9.27,-0.42 -13.32,-2.46 -4.05,-2.01 -7.41,-4.77 -10.06,-8.51 -2.61,-3.71 -4.16,-7.94 -4.58,-12.75 -0.42,-4.69 0.42,-9.08 2.35,-13.17 2.01,-4.09 4.84,-7.45 8.47,-10.06 3.71,-2.65 7.83,-4.2 12.6,-4.69l114.1 -9.99c6.66,-0.53 13.13,0.04 19.48,1.7 6.36,1.74 12.22,4.46 17.7,8.21 5.41,3.71 10.18,8.13 14.11,13.54l16.95 -19.9c-5.9,-6.7 -12.64,-12.33 -20.16,-16.87 -7.49,-4.62 -15.51,-7.91 -24.06,-9.95 -8.63,-2.04 -17.33,-2.72 -26.22,-1.97l-114.1 9.95c-7.07,0.64 -13.54,2.57 -19.44,5.71 -5.98,3.14 -11.05,7.3 -15.36,12.37 -4.27,5.07 -7.45,10.78 -9.61,17.14 -2.12,6.36 -2.88,13.13 -2.31,20.24z"/>
    <path class="fil32" d="M3697.98 13733.21l-2.19 25.27 178.6 15.62 -12.18 139.07 25.23 2.19 14.38 -164.37 -203.83 -17.78zm-236.71 28.94l-19.79 79.29 24.63 6.13 19.75 -79.26c2.01,-7.76 5.3,-14.68 9.84,-20.69 4.54,-6.02 9.99,-11.01 16.38,-14.91 6.43,-3.9 13.35,-6.43 20.81,-7.72 7.45,-1.21 15.02,-0.91 22.77,0.98l49.67 12.41c7.64,1.93 14.56,5.22 20.62,9.84 6.05,4.65 10.97,10.14 14.87,16.61 3.86,6.43 6.39,13.39 7.64,20.92 1.25,7.41 0.95,15.09 -0.98,22.85l-19.75 79.26 24.63 6.13 19.75 -79.22c2.23,-9 2.95,-17.86 2.19,-26.59 -0.68,-8.78 -2.65,-17.06 -5.9,-25.04 -3.29,-7.98 -7.68,-15.32 -13.17,-21.9 -5.45,-6.62 -11.88,-12.26 -19.33,-16.99 -7.34,-4.69 -15.47,-8.21 -24.48,-10.48l-49.63 -12.37c-8.97,-2.19 -17.78,-2.95 -26.48,-2.23 -8.74,0.76 -17.06,2.72 -24.97,6.02 -7.94,3.29 -15.13,7.72 -21.75,13.2 -6.58,5.56 -12.18,11.99 -16.91,19.37 -4.69,7.38 -8.13,15.55 -10.4,24.4zm-52.66 -106.42l-53.72 156.01 23.95 8.25 32.42 -5.11 9.31 -27.2 -32.38 5.11 44.38 -128.81 -23.95 -8.25zm-256.38 -55.08c-2.99,6.47 -4.58,13.05 -4.8,19.79 -0.19,6.77 0.79,13.2 3.1,19.44 2.27,6.24 5.64,11.92 10.14,16.95 4.54,4.99 9.95,9 16.38,12.07l-56.48 15.09 -10.52 22.58 196.91 91.81 10.52 -22.55 -161.01 -75.06 55.99 -15.13 0.08 -0.23 50.28 23.45 10.71 -22.93 -85.76 -40.02c-4.35,-2.04 -7.79,-4.99 -10.33,-8.74 -2.46,-3.78 -3.97,-7.87 -4.43,-12.41 -0.42,-4.54 0.38,-8.93 2.38,-13.32 2.04,-4.31 4.96,-7.72 8.66,-10.21 3.78,-2.57 7.91,-4.09 12.37,-4.5 4.5,-0.45 8.89,0.26 13.24,2.23l103.81 48.39c6.02,2.88 11.39,6.58 16,11.27 4.62,4.65 8.4,9.95 11.24,15.89 2.88,5.9 4.73,12.18 5.52,18.8l24.59 -8.74c-1.78,-8.78 -4.77,-17.02 -9.04,-24.7 -4.16,-7.72 -9.5,-14.6 -15.93,-20.66 -6.36,-6.09 -13.58,-11.05 -21.68,-14.83l-103.77 -48.42c-6.47,-2.95 -12.98,-4.54 -19.75,-4.77 -6.7,-0.23 -13.17,0.83 -19.41,3.06 -6.24,2.19 -11.92,5.6 -16.91,10.03 -5.03,4.43 -9.08,9.91 -12.11,16.34zm-254.45 -227.25l-14.91 20.54 145.04 105.36 -82.09 112.92 20.5 14.91 96.96 -133.47 -165.51 -120.26zm-221.91 -92.42l-56.75 58.75 18.23 17.63 56.78 -58.75c5.52,-5.67 11.84,-10.06 18.8,-12.98 7,-2.99 14.19,-4.54 21.68,-4.69 7.49,-0.19 14.75,1.06 21.83,3.71 7.07,2.61 13.47,6.73 19.26,12.22l36.77 35.56c5.71,5.52 10.1,11.84 12.98,18.84 2.91,7.04 4.46,14.26 4.58,21.83 0.11,7.49 -1.13,14.79 -3.82,21.9 -2.65,7.11 -6.73,13.54 -12.29,19.33l-56.71 58.75 18.27 17.63 56.75 -58.75c6.36,-6.7 11.42,-14 15.13,-21.9 3.82,-7.94 6.28,-16.12 7.41,-24.67 1.13,-8.55 1.02,-17.06 -0.45,-25.5 -1.4,-8.51 -4.16,-16.61 -8.25,-24.4 -3.97,-7.76 -9.31,-14.87 -15.96,-21.3l-36.77 -35.56c-6.66,-6.39 -13.96,-11.42 -21.87,-15.17 -7.94,-3.75 -16.12,-6.17 -24.59,-7.26 -8.51,-1.13 -16.99,-0.91 -25.42,0.53 -8.51,1.51 -16.53,4.27 -24.36,8.32 -7.72,4.05 -14.79,9.38 -21.22,15.93zm9.46 -116.29l-126.43 106.04 16.3 19.41 30.42 12.29 21.98 -18.46 -30.42 -12.29 104.37 -87.58 -16.23 -19.41zm-197.89 -175.38c-5.79,4.12 -10.44,9.04 -14,14.75 -3.59,5.75 -5.94,11.84 -7.07,18.42 -1.13,6.51 -1.06,13.05 0.3,19.71 1.4,6.58 4.12,12.79 8.17,18.61l-56.48 -15.13 -20.39 14.3 124.61 177.95 20.39 -14.26 -101.88 -145.53 55.99 14.91 0.19 -0.11 31.85 45.43 20.69 -14.53 -54.25 -77.55c-2.72,-3.97 -4.2,-8.21 -4.54,-12.71 -0.3,-4.5 0.49,-8.81 2.35,-12.94 1.93,-4.16 4.84,-7.6 8.74,-10.4 3.93,-2.65 8.13,-4.16 12.6,-4.5 4.58,-0.34 8.89,0.45 12.98,2.31 4.12,1.85 7.6,4.69 10.33,8.55l65.67 93.82c3.86,5.49 6.62,11.39 8.32,17.78 1.66,6.32 2.23,12.75 1.74,19.33 -0.49,6.62 -2.01,12.94 -4.65,19.07l25.69 4.73c2.84,-8.47 4.35,-17.1 4.54,-25.91 0.23,-8.78 -0.91,-17.36 -3.44,-25.88 -2.5,-8.44 -6.28,-16.34 -11.39,-23.68l-65.67 -93.82c-4.12,-5.75 -9,-10.37 -14.68,-13.96 -5.71,-3.56 -11.8,-5.9 -18.39,-7.11 -6.51,-1.17 -13.05,-1.06 -19.63,0.23 -6.58,1.36 -12.82,4.09 -18.69,8.13zm-107.82 -322.54l-23.19 10.29 72.94 163.77 -127.56 56.82 10.33 23.11 150.68 -67.11 -83.19 -186.88zm-151.44 -186.54l-77.67 25.27 7.79 24.14 77.7 -25.27c7.6,-2.38 15.21,-3.29 22.74,-2.57 7.57,0.61 14.68,2.61 21.34,5.98 6.7,3.37 12.52,7.87 17.55,13.54 4.99,5.64 8.74,12.26 11.24,19.82l15.81 48.69c2.42,7.53 3.29,15.17 2.57,22.7 -0.68,7.57 -2.76,14.64 -6.2,21.41 -3.4,6.7 -7.98,12.52 -13.66,17.55 -5.67,4.99 -12.33,8.81 -19.9,11.31l-77.7 25.23 7.87 24.14 77.67 -25.23c8.81,-2.91 16.68,-6.96 23.68,-12.22 7.07,-5.26 13.09,-11.31 18.12,-18.27 4.99,-7.04 8.93,-14.64 11.58,-22.81 2.76,-8.13 4.12,-16.57 4.2,-25.35 0.08,-8.74 -1.29,-17.52 -4.09,-26.33l-15.81 -48.65c-2.88,-8.74 -6.96,-16.65 -12.18,-23.68 -5.22,-7 -11.35,-13.01 -18.31,-17.93 -7,-4.99 -14.56,-8.78 -22.7,-11.5 -8.21,-2.61 -16.61,-3.93 -25.42,-4.05 -8.74,-0.08 -17.48,1.32 -26.22,4.09zm67.38 -101.2l-160.78 37.11 5.67 24.7 21.53 24.74 27.99 -6.47 -21.49 -24.74 132.75 -30.68 -5.67 -24.67zm-86.25 -247.11c-7.11,0.87 -13.51,3.06 -19.29,6.43 -5.86,3.4 -10.82,7.64 -14.91,12.94 -4.09,5.22 -7.07,11.01 -8.97,17.55 -1.85,6.47 -2.38,13.24 -1.59,20.28l-42.71 -39.91 -24.74 3.06 26.48 215.67 24.7 -3.03 -21.64 -176.33 42.48 39.46 0.23 -0.04 6.73 55.01 25.16 -3.03 -11.5 -93.93c-0.61,-4.8 0.08,-9.27 1.97,-13.39 1.82,-4.12 4.54,-7.57 8.13,-10.37 3.63,-2.72 7.79,-4.39 12.56,-5.03 4.77,-0.53 9.15,0.11 13.28,1.93 4.16,1.89 7.6,4.54 10.37,8.13 2.76,3.56 4.5,7.68 5.11,12.41l13.96 113.68c0.76,6.66 0.42,13.13 -1.06,19.56 -1.51,6.39 -4.01,12.33 -7.53,17.93 -3.52,5.56 -7.79,10.44 -13.01,14.64l20.43 16.23c6.51,-6.17 11.88,-13.05 16.19,-20.73 4.31,-7.68 7.3,-15.85 9.12,-24.48 1.74,-8.63 2.08,-17.4 1.02,-26.25l-13.92 -113.68c-0.95,-7.04 -3.06,-13.39 -6.39,-19.26 -3.37,-5.79 -7.68,-10.74 -12.9,-14.87 -5.18,-4.09 -11.05,-7.11 -17.48,-9 -6.43,-1.89 -13.2,-2.46 -20.28,-1.59zm68.06 -336.35l-25.27 -2.23 -15.62 178.64 -139.07 -12.22 -2.19 25.27 164.37 14.38 17.78 -203.83zm-31.06 -239.2l-79.26 -19.79 -6.13 24.63 79.26 19.75c7.72,1.97 14.68,5.26 20.66,9.84 6.05,4.54 11.05,9.99 14.91,16.38 3.93,6.43 6.43,13.32 7.72,20.81 1.25,7.41 0.95,15.02 -0.95,22.77l-12.41 49.63c-1.93,7.68 -5.22,14.6 -9.84,20.66 -4.65,6.05 -10.14,10.97 -16.61,14.87 -6.43,3.82 -13.39,6.39 -20.92,7.64 -7.45,1.25 -15.09,0.91 -22.85,-0.98l-79.29 -19.75 -6.09 24.63 79.22 19.75c9,2.23 17.86,2.95 26.56,2.19 8.81,-0.68 17.1,-2.65 25.08,-5.9 7.98,-3.29 15.28,-7.68 21.87,-13.17 6.62,-5.45 12.29,-11.88 17.02,-19.33 4.65,-7.34 8.21,-15.47 10.48,-24.48l12.37 -49.63c2.19,-8.97 2.91,-17.78 2.23,-26.52 -0.76,-8.7 -2.76,-17.02 -6.05,-24.93 -3.29,-7.94 -7.68,-15.13 -13.2,-21.75 -5.52,-6.58 -11.95,-12.18 -19.37,-16.95 -7.34,-4.69 -15.51,-8.13 -24.4,-10.37zm102.82 -51.26l-155.98 -53.72 -8.25 23.91 5.11 32.42 27.2 9.34 -5.14 -32.38 128.81 44.34 8.25 -23.91zm44.15 -258.61c-6.62,-2.65 -13.24,-3.82 -19.97,-3.71 -6.73,0.15 -13.17,1.48 -19.29,4.09 -6.09,2.61 -11.54,6.24 -16.38,11.01 -4.77,4.77 -8.47,10.4 -11.16,16.99l-18.08 -55.61 -23.08 -9.31 -81.41 201.41 23.15 9.34 66.51 -164.71 18.01 55.12 0.23 0.08 -20.77 51.41 23.45 9.5 35.45 -87.73c1.85,-4.46 4.62,-8.06 8.25,-10.74 3.59,-2.69 7.64,-4.39 12.11,-5.07 4.54,-0.68 9,-0.11 13.47,1.66 4.39,1.82 7.91,4.5 10.67,8.13 2.72,3.63 4.46,7.64 5.11,12.11 0.72,4.46 0.19,8.89 -1.55,13.32l-42.9 106.19c-2.5,6.2 -5.98,11.69 -10.37,16.61 -4.43,4.84 -9.5,8.85 -15.32,12.03 -5.75,3.18 -11.88,5.37 -18.46,6.47l9.99 24.14c8.66,-2.27 16.72,-5.67 24.21,-10.33 7.53,-4.62 14.11,-10.25 19.82,-16.95 5.71,-6.7 10.25,-14.19 13.66,-22.47l42.9 -106.19c2.61,-6.58 3.82,-13.17 3.75,-19.9 -0.11,-6.73 -1.51,-13.13 -4.05,-19.26 -2.57,-6.17 -6.2,-11.58 -10.93,-16.38 -4.69,-4.77 -10.37,-8.51 -16.99,-11.24zm229.22 -256.79l-20.54 -14.94 -105.36 145.04 -112.92 -82.05 -14.94 20.5 133.5 96.96 120.26 -165.51zm83.19 -224.68l-61.66 -53.57 -16.65 19.14 61.66 53.61c5.98,5.22 10.63,11.31 13.92,18.12 3.33,6.77 5.3,13.88 5.86,21.37 0.57,7.45 -0.3,14.79 -2.57,21.98 -2.27,7.23 -5.98,13.85 -11.24,19.9l-33.52 38.59c-5.26,5.98 -11.31,10.67 -18.16,13.96 -6.85,3.25 -14.04,5.14 -21.53,5.67 -7.53,0.53 -14.91,-0.38 -22.13,-2.65 -7.19,-2.31 -13.92,-6.05 -19.94,-11.24l-61.66 -53.61 -16.61 19.14 61.63 53.57c7,6.05 14.56,10.71 22.66,14.04 8.13,3.37 16.46,5.37 25.01,6.13 8.59,0.64 17.1,0.08 25.46,-1.82 8.44,-1.85 16.34,-5.03 23.91,-9.5 7.57,-4.43 14.38,-10.1 20.5,-17.06l33.56 -38.59c6.02,-7.04 10.67,-14.53 14,-22.62 3.33,-8.13 5.3,-16.42 5.94,-24.97 0.68,-8.55 0.04,-16.99 -1.85,-25.38 -1.97,-8.36 -5.14,-16.27 -9.57,-23.87 -4.43,-7.49 -10.14,-14.3 -17.02,-20.35zm122.04 6.17l-112.51 -120.64 -18.54 17.25 -10.67 30.98 19.6 21.03 10.67 -31.02 92.91 99.65 18.54 -17.25zm165.24 -201.18c-4.43,-5.56 -9.57,-9.95 -15.43,-13.24 -5.94,-3.22 -12.18,-5.26 -18.76,-6.09 -6.58,-0.79 -13.13,-0.34 -19.67,1.36 -6.51,1.74 -12.56,4.77 -18.2,9.15l12.18 -57.2 -15.32 -19.63 -171.22 133.77 15.32 19.63 139.97 -109.37 -11.92 56.71 0.11 0.19 -43.69 34.16 15.62 19.94 74.56 -58.26c3.82,-2.95 7.94,-4.69 12.45,-5.18 4.46,-0.53 8.85,0 13.05,1.66 4.24,1.7 7.83,4.39 10.82,8.13 2.91,3.78 4.62,7.94 5.18,12.41 0.53,4.5 0,8.85 -1.63,13.05 -1.63,4.2 -4.27,7.79 -8.02,10.74l-90.23 70.52c-5.33,4.12 -11.05,7.15 -17.29,9.19 -6.28,1.97 -12.67,2.91 -19.29,2.8 -6.58,-0.15 -13.01,-1.32 -19.22,-3.63l-3.4 25.84c8.63,2.42 17.33,3.48 26.1,3.22 8.81,-0.26 17.33,-1.85 25.65,-4.8 8.28,-2.91 16,-7.15 23.08,-12.6l90.26 -70.55c5.52,-4.35 9.91,-9.46 13.17,-15.36 3.29,-5.9 5.3,-12.11 6.09,-18.69 0.87,-6.62 0.45,-13.17 -1.21,-19.6 -1.7,-6.51 -4.73,-12.6 -9.12,-18.27zm327.31 -115.57l-11.12 -22.81 -161.12 78.61 -61.21 -125.48 -22.74 11.12 72.29 148.22 183.89 -89.66zm185.41 -149.32l-25.23 -77.7 -24.14 7.83 25.27 77.7c2.38,7.57 3.29,15.21 2.57,22.74 -0.61,7.53 -2.61,14.68 -5.98,21.34 -3.37,6.7 -7.87,12.48 -13.54,17.52 -5.64,5.03 -12.26,8.78 -19.82,11.24l-48.69 15.85c-7.53,2.42 -15.17,3.29 -22.74,2.57 -7.53,-0.72 -14.64,-2.76 -21.37,-6.2 -6.7,-3.4 -12.52,-7.98 -17.59,-13.69 -4.99,-5.64 -8.78,-12.29 -11.27,-19.9l-25.23 -77.67 -24.14 7.83 25.23 77.7c2.91,8.78 6.96,16.65 12.22,23.68 5.22,7.07 11.31,13.09 18.23,18.12 7.07,4.99 14.64,8.89 22.81,11.58 8.13,2.72 16.61,4.09 25.38,4.16 8.74,0.08 17.52,-1.25 26.33,-4.05l48.65 -15.85c8.74,-2.88 16.65,-6.92 23.64,-12.14 7.04,-5.22 13.01,-11.35 17.93,-18.35 4.99,-7 8.81,-14.53 11.5,-22.66 2.65,-8.21 3.97,-16.65 4.09,-25.42 0.08,-8.74 -1.32,-17.52 -4.12,-26.22zm99.87 64.2l-37.11 -160.74 -24.7 5.67 -24.74 21.49 6.47 28.03 24.74 -21.53 30.68 132.79 24.67 -5.71zm246.66 -88.11c-0.91,-7.07 -3.06,-13.47 -6.43,-19.29 -3.4,-5.83 -7.68,-10.78 -12.94,-14.91 -5.22,-4.05 -11.05,-7.04 -17.59,-8.93 -6.47,-1.85 -13.2,-2.42 -20.24,-1.59l39.87 -42.71 -3.06 -24.78 -215.63 26.52 3.03 24.7 176.33 -21.64 -39.46 42.48 0.04 0.23 -55.04 6.73 3.06 25.12 93.93 -11.5c4.8,-0.57 9.23,0.08 13.39,1.97 4.09,1.85 7.57,4.54 10.33,8.13 2.76,3.67 4.43,7.79 5.03,12.56 0.57,4.77 -0.11,9.19 -1.89,13.28 -1.89,4.2 -4.58,7.64 -8.13,10.4 -3.56,2.72 -7.72,4.46 -12.41,5.11l-113.68 13.92c-6.66,0.79 -13.13,0.45 -19.56,-1.02 -6.39,-1.51 -12.37,-4.05 -17.93,-7.57 -5.6,-3.48 -10.48,-7.79 -14.64,-13.01l-16.23 20.47c6.17,6.51 13.05,11.88 20.73,16.19 7.64,4.27 15.81,7.3 24.48,9.08 8.63,1.74 17.36,2.08 26.25,1.06l113.64 -13.96c7.07,-0.91 13.43,-3.06 19.26,-6.39 5.83,-3.37 10.78,-7.64 14.87,-12.9 4.12,-5.18 7.15,-11.01 9.04,-17.44 1.89,-6.43 2.42,-13.2 1.59,-20.32zm337.15 59.36l1.78 -25.35 -178.86 -12.52 9.76 -139.25 -25.31 -1.78 -11.5 164.6 204.13 14.3zm234.47 -41.95l14.19 -80.43 -24.97 -4.43 -14.19 80.43c-1.44,7.87 -4.24,14.98 -8.36,21.3 -4.12,6.36 -9.23,11.69 -15.36,16 -6.09,4.39 -12.79,7.41 -20.16,9.15 -7.34,1.78 -14.94,1.97 -22.81,0.61l-50.39 -8.85c-7.79,-1.44 -14.94,-4.24 -21.26,-8.44 -6.36,-4.16 -11.65,-9.31 -16,-15.47 -4.27,-6.17 -7.3,-12.94 -9.08,-20.32 -1.74,-7.38 -1.97,-15.06 -0.64,-22.93l14.19 -80.43 -24.97 -4.43 -14.19 80.47c-1.59,9.12 -1.7,18.01 -0.34,26.63 1.32,8.7 3.82,16.87 7.64,24.59 3.86,7.72 8.7,14.72 14.68,20.92 5.86,6.24 12.71,11.42 20.43,15.62 7.68,4.16 16.04,7.11 25.2,8.74l50.35 8.85c9.08,1.59 17.93,1.7 26.59,0.42 8.66,-1.36 16.8,-3.93 24.48,-7.79 7.64,-3.82 14.6,-8.7 20.77,-14.64 6.17,-6.02 11.27,-12.79 15.55,-20.5 4.16,-7.68 7,-16.08 8.66,-25.08zm58.18 107.44l42.71 -159.38 -24.48 -6.54 -31.93 7.34 -7.45 27.77 31.97 -7.38 -35.26 131.61 24.44 6.58zm257.51 40.18c2.5,-6.66 3.59,-13.32 3.37,-20.05 -0.26,-6.73 -1.7,-13.17 -4.46,-19.22 -2.65,-6.05 -6.43,-11.42 -11.31,-16.19 -4.84,-4.62 -10.52,-8.28 -17.14,-10.86l55.31 -19.03 8.89 -23.23 -202.81 -77.89 -8.97 23.23 165.89 63.67 -54.82 18.99 -0.08 0.19 -51.75 -19.86 -9.08 23.64 88.3 33.9c4.54,1.78 8.13,4.46 10.93,8.06 2.76,3.52 4.54,7.57 5.26,12.07 0.76,4.46 0.26,8.93 -1.44,13.43 -1.74,4.46 -4.35,8.02 -7.91,10.82 -3.59,2.8 -7.6,4.58 -12.03,5.33 -4.46,0.76 -8.89,0.38 -13.35,-1.32l-106.95 -41.01c-6.24,-2.46 -11.77,-5.79 -16.76,-10.1 -4.92,-4.35 -9.04,-9.34 -12.29,-15.13 -3.29,-5.67 -5.6,-11.77 -6.81,-18.35l-23.91 10.44c2.38,8.63 5.94,16.65 10.67,24.02 4.77,7.41 10.55,13.92 17.36,19.48 6.77,5.64 14.34,10.06 22.7,13.28l106.87 41.05c6.62,2.53 13.28,3.63 19.97,3.44 6.77,-0.3 13.13,-1.78 19.22,-4.43 6.09,-2.69 11.46,-6.39 16.15,-11.2 4.69,-4.8 8.36,-10.55 10.97,-17.18zm265 222.71l13.47 -21.49 -152.04 -94.99 74 -118.45 -21.49 -13.39 -87.43 139.86 173.49 108.46zm223.24 84.21l53.57 -61.66 -19.14 -16.65 -53.61 61.63c-5.22,6.02 -11.31,10.67 -18.12,13.96 -6.77,3.33 -13.88,5.26 -21.37,5.86 -7.45,0.57 -14.79,-0.34 -21.98,-2.57 -7.23,-2.27 -13.85,-6.02 -19.86,-11.24l-38.63 -33.56c-5.98,-5.26 -10.67,-11.27 -13.96,-18.16 -3.25,-6.85 -5.14,-14 -5.67,-21.53 -0.49,-7.49 0.38,-14.87 2.65,-22.09 2.31,-7.23 6.05,-13.92 11.24,-19.97l53.61 -61.63 -19.14 -16.65 -53.57 61.63c-6.05,7 -10.71,14.56 -14.04,22.7 -3.37,8.13 -5.37,16.42 -6.13,24.97 -0.64,8.63 -0.08,17.14 1.82,25.5 1.89,8.4 5.03,16.34 9.5,23.91 4.43,7.53 10.1,14.34 17.06,20.47l38.59 33.59c7.04,5.98 14.53,10.63 22.62,13.96 8.13,3.33 16.42,5.33 24.97,5.98 8.55,0.64 16.99,0.04 25.38,-1.85 8.36,-1.97 16.27,-5.14 23.87,-9.57 7.49,-4.46 14.3,-10.14 20.35,-17.02zm-4.46 118.07l118.71 -114.59 -17.59 -18.23 -31.21 -10.18 -20.62 19.97 31.17 10.18 -98.02 94.61 17.55 18.23zm202.7 165.4c5.52,-4.5 9.8,-9.72 12.98,-15.66 3.14,-5.98 5.07,-12.26 5.75,-18.88 0.68,-6.58 0.11,-13.13 -1.7,-19.63 -1.85,-6.47 -4.99,-12.45 -9.46,-18.05l57.43 11.2 19.33 -15.7 -136.72 -168.84 -19.33 15.66 111.75 138.08 -56.9 -10.97 -0.19 0.11 -34.88 -43.09 -19.67 15.96 59.51 73.54c3.03,3.75 4.8,7.91 5.45,12.37 0.57,4.46 0.15,8.81 -1.44,13.05 -1.63,4.31 -4.27,7.91 -7.98,10.97 -3.71,2.99 -7.83,4.77 -12.29,5.45 -4.5,0.61 -8.85,0.15 -13.09,-1.44 -4.24,-1.55 -7.91,-4.12 -10.9,-7.79l-72.11 -89.02c-4.16,-5.22 -7.3,-10.9 -9.46,-17.14 -2.12,-6.2 -3.14,-12.6 -3.1,-19.22 0,-6.58 1.06,-13.01 3.29,-19.33l-25.91 -2.91c-2.31,8.7 -3.18,17.4 -2.76,26.14 0.38,8.81 2.12,17.33 5.22,25.57 3.1,8.25 7.45,15.89 13.01,22.85l72.07 89.02c4.5,5.45 9.68,9.76 15.62,12.94 5.98,3.14 12.22,5.03 18.84,5.75 6.58,0.76 13.13,0.19 19.6,-1.59 6.47,-1.82 12.48,-4.96 18.05,-9.42zm121.21 323.98l22.62 -11.54 -81.41 -159.72 124.39 -63.4 -11.5 -22.55 -147.01 74.9 92.91 182.31zm151.7 182l77.21 -26.63 -8.25 -23.95 -77.21 26.56c-7.57,2.53 -15.13,3.59 -22.66,3.03 -7.57,-0.53 -14.72,-2.38 -21.45,-5.64 -6.77,-3.25 -12.67,-7.64 -17.78,-13.24 -5.11,-5.52 -9,-12.07 -11.61,-19.63l-16.65 -48.39c-2.53,-7.49 -3.59,-15.09 -2.99,-22.66 0.61,-7.57 2.5,-14.68 5.83,-21.53 3.29,-6.73 7.76,-12.64 13.39,-17.78 5.56,-5.11 12.14,-9 19.71,-11.65l77.21 -26.59 -8.25 -23.98 -77.21 26.59c-8.78,3.03 -16.61,7.26 -23.49,12.6 -7,5.41 -12.94,11.54 -17.82,18.61 -4.88,7.11 -8.63,14.79 -11.2,22.96 -2.57,8.21 -3.78,16.68 -3.71,25.46 0.08,8.74 1.55,17.48 4.54,26.22l16.65 48.39c3.06,8.7 7.26,16.53 12.6,23.49 5.37,6.89 11.58,12.75 18.61,17.59 7.11,4.84 14.72,8.55 22.93,11.08 8.21,2.5 16.68,3.67 25.46,3.63 8.74,-0.11 17.48,-1.63 26.14,-4.54zm-60.91 101.27l160.06 -39.95 -6.13 -24.55 -21.9 -24.4 -27.92 6.96 21.94 24.36 -132.22 32.99 6.17 24.59zm92.87 243.7c7.04,-1.06 13.39,-3.29 19.14,-6.77 5.79,-3.48 10.67,-7.87 14.64,-13.2 4.01,-5.26 6.92,-11.16 8.7,-17.7 1.74,-6.51 2.16,-13.24 1.17,-20.35l43.47 39.15 24.63 -3.44 -30.19 -215.18 -24.7 3.52 24.74 175.87 -43.16 -38.7 -0.23 0.04 -7.72 -54.93 -25.04 3.52 13.17 93.71c0.61,4.8 0.04,9.27 -1.78,13.43 -1.74,4.12 -4.39,7.64 -7.94,10.44 -3.59,2.84 -7.76,4.58 -12.48,5.3 -4.69,0.64 -9.12,0.04 -13.32,-1.7 -4.16,-1.78 -7.68,-4.43 -10.48,-7.91 -2.84,-3.56 -4.62,-7.64 -5.3,-12.33l-15.96 -113.42c-0.91,-6.66 -0.68,-13.09 0.68,-19.56 1.4,-6.43 3.82,-12.45 7.26,-18.12 3.37,-5.6 7.57,-10.59 12.75,-14.83l-20.73 -15.85c-6.39,6.24 -11.65,13.28 -15.81,21 -4.2,7.72 -7.07,15.93 -8.66,24.63 -1.59,8.66 -1.82,17.4 -0.64,26.29l15.96 113.38c1.02,7.04 3.29,13.32 6.7,19.1 3.48,5.75 7.87,10.63 13.17,14.68 5.3,4.01 11.16,6.92 17.63,8.7 6.47,1.78 13.24,2.23 20.35,1.25zm-51.64 340.82l25.35 0.45 3.14 -179.28 139.59 2.46 0.45 -25.35 -164.98 -2.84 -3.56 204.55zm42.14 233.79l80.43 14.19 4.43 -24.97 -80.47 -14.19c-7.83,-1.44 -14.98,-4.24 -21.3,-8.36 -6.32,-4.12 -11.69,-9.23 -15.96,-15.36 -4.39,-6.09 -7.41,-12.79 -9.15,-20.16 -1.78,-7.34 -1.97,-14.94 -0.61,-22.81l8.85 -50.39c1.44,-7.79 4.24,-14.94 8.4,-21.26 4.2,-6.36 9.34,-11.65 15.51,-16 6.13,-4.27 12.94,-7.3 20.32,-9.08 7.38,-1.74 15.02,-1.97 22.89,-0.64l80.47 14.19 4.39 -24.97 -80.43 -14.19c-9.15,-1.59 -18.01,-1.7 -26.63,-0.34 -8.74,1.32 -16.91,3.82 -24.59,7.64 -7.72,3.86 -14.75,8.7 -20.92,14.68 -6.24,5.86 -11.42,12.71 -15.62,20.43 -4.16,7.68 -7.11,16.04 -8.74,25.2l-8.89 50.35c-1.59,9.08 -1.7,17.93 -0.38,26.59 1.36,8.66 3.9,16.8 7.79,24.48 3.82,7.64 8.7,14.6 14.64,20.77 6.02,6.17 12.79,11.27 20.47,15.55 7.72,4.16 16.08,7 25.12,8.66zm-106.53 57.24l159.38 42.75 6.54 -24.48 -7.3 -31.97 -27.77 -7.45 7.34 31.97 -131.57 -35.26 -6.62 24.44zm-38.36 260.27c6.66,2.53 13.32,3.59 20.05,3.37 6.73,-0.26 13.17,-1.7 19.22,-4.46 6.09,-2.65 11.42,-6.43 16.19,-11.31 4.65,-4.84 8.28,-10.52 10.9,-17.14l18.99 55.31 23.27 8.89 77.86 -202.81 -23.23 -8.97 -63.67 165.89 -18.99 -54.82 -0.19 -0.08 19.86 -51.75 -23.64 -9.08 -33.9 88.3c-1.78,4.54 -4.46,8.13 -8.06,10.93 -3.52,2.76 -7.53,4.54 -12.03,5.26 -4.5,0.76 -8.97,0.26 -13.43,-1.44 -4.46,-1.74 -8.02,-4.35 -10.86,-7.91 -2.8,-3.59 -4.58,-7.6 -5.3,-12.03 -0.79,-4.46 -0.42,-8.89 1.29,-13.35l41.05 -106.95c2.42,-6.2 5.75,-11.77 10.1,-16.76 4.31,-4.92 9.34,-9 15.09,-12.26 5.71,-3.29 11.77,-5.64 18.35,-6.85l-10.44 -23.91c-8.59,2.38 -16.61,5.94 -24.02,10.67 -7.38,4.77 -13.88,10.55 -19.48,17.36 -5.6,6.77 -10.06,14.34 -13.28,22.7l-41.05 106.87c-2.53,6.62 -3.59,13.28 -3.4,20.01 0.26,6.73 1.74,13.13 4.43,19.18 2.65,6.09 6.36,11.46 11.16,16.15 4.8,4.69 10.55,8.36 17.18,10.97zm-215.41 266.82l21.49 13.43 94.99 -152 118.45 73.96 13.39 -21.49 -139.9 -87.43 -108.42 173.53zm-81.71 225.24l61.66 53.53 16.65 -19.1 -61.66 -53.61c-6.02,-5.22 -10.67,-11.31 -13.96,-18.12 -3.33,-6.77 -5.26,-13.92 -5.83,-21.37 -0.57,-7.49 0.3,-14.79 2.53,-22.02 2.31,-7.19 6.02,-13.81 11.24,-19.86l33.56 -38.63c5.26,-5.94 11.31,-10.63 18.16,-13.92 6.85,-3.25 14.04,-5.14 21.53,-5.71 7.53,-0.49 14.87,0.42 22.13,2.69 7.19,2.27 13.88,6.05 19.94,11.24l61.66 53.61 16.61 -19.14 -61.63 -53.61c-7,-6.05 -14.56,-10.67 -22.7,-14.04 -8.13,-3.37 -16.42,-5.37 -24.97,-6.09 -8.59,-0.68 -17.14,-0.08 -25.5,1.82 -8.4,1.85 -16.34,5.03 -23.87,9.5 -7.57,4.39 -14.38,10.1 -20.5,17.02l-33.56 38.63c-6.02,7 -10.67,14.53 -14,22.62 -3.33,8.13 -5.3,16.42 -5.98,24.97 -0.64,8.51 -0.04,16.95 1.85,25.35 2.01,8.4 5.18,16.27 9.57,23.87 4.46,7.53 10.18,14.34 17.06,20.39zm-117.2 -0.83l114.59 118.71 18.23 -17.59 10.18 -31.21 -19.97 -20.66 -10.18 31.17 -94.61 -98.02 -18.23 17.59zm-161.35 205.34c4.54,5.52 9.72,9.8 15.7,12.98 5.94,3.14 12.22,5.07 18.84,5.75 6.58,0.68 13.13,0.15 19.63,-1.7 6.47,-1.85 12.48,-4.99 18.05,-9.42l-11.2 57.39 15.7 19.37 168.88 -136.76 -15.7 -19.33 -138.08 111.79 10.97 -56.9 -0.11 -0.19 43.09 -34.92 -15.93 -19.67 -73.54 59.55c-3.78,2.99 -7.91,4.8 -12.41,5.41 -4.46,0.57 -8.78,0.15 -13.05,-1.44 -4.31,-1.63 -7.91,-4.27 -10.97,-7.98 -2.99,-3.71 -4.77,-7.83 -5.41,-12.26 -0.61,-4.54 -0.15,-8.89 1.44,-13.09 1.55,-4.27 4.09,-7.91 7.79,-10.93l88.98 -72.07c5.22,-4.2 10.93,-7.34 17.18,-9.5 6.17,-2.08 12.56,-3.14 19.18,-3.1 6.58,0 13.01,1.1 19.33,3.29l2.91 -25.91c-8.66,-2.27 -17.4,-3.18 -26.14,-2.76 -8.78,0.42 -17.33,2.16 -25.57,5.26 -8.25,3.1 -15.85,7.41 -22.85,13.01l-88.98 72.07c-5.49,4.5 -9.76,9.68 -12.94,15.59 -3.14,5.98 -5.03,12.22 -5.79,18.84 -0.72,6.58 -0.19,13.13 1.59,19.6 1.82,6.47 4.96,12.52 9.42,18.05z"/>
   </g>
   <path class="fil33" d="M11846.94 12927.31c342.29,0 363.32,147.84 310.66,279.79 -52.62,131.95 -105.28,121.36 -384.4,142.51 -279.11,21.11 -416.06,-21.11 -379.18,-126.69 36.88,-105.55 42.14,-131.95 42.14,-131.95 0,0 -147.46,237.54 -68.47,269.2 78.99,31.66 447.61,84.44 647.73,31.66 200.12,-52.77 242.23,-237.54 242.23,-306.16 0,-68.59 -160.29,-208.37 -410.73,-158.36z"/>
   <path class="fil33" d="M10955.62 13657.36c-224.9,0 -238.71,-97.11 -204.13,-183.78 34.58,-86.71 69.19,-79.78 252.56,-93.63 183.4,-13.88 273.36,13.85 249.11,83.19 -24.21,69.38 -27.65,86.75 -27.65,86.75 0,0 96.88,-156.09 44.98,-176.9 -51.9,-20.81 -294.09,-55.5 -425.59,-20.81 -131.46,34.69 -159.15,156.09 -159.15,201.15 0,45.09 105.32,136.91 269.88,104.03z"/>
   <path class="fil33" d="M7012.08 12946.91c516.24,0 547.98,222.94 468.57,421.92 -79.41,198.99 -158.77,183.06 -579.75,214.92 -420.94,31.89 -627.46,-31.82 -571.85,-191.01 55.61,-159.23 63.56,-199.06 63.56,-199.06 0,0 -222.41,358.26 -103.24,406 119.13,47.78 675.05,127.38 976.86,47.78 301.81,-79.63 365.37,-358.26 365.37,-461.72 0,-103.47 -241.74,-314.26 -619.51,-238.82z"/>
   <path class="fil33" d="M7989.13 13349.91c342.29,0 363.32,147.8 310.66,279.76 -52.62,131.95 -105.28,121.4 -384.4,142.51 -279.11,21.15 -416.02,-21.07 -379.18,-126.66 36.88,-105.59 42.14,-131.99 42.14,-131.99 0,0 -147.46,237.58 -68.47,269.24 78.99,31.66 447.61,84.44 647.73,31.66 200.12,-52.81 242.27,-237.58 242.27,-306.16 0,-68.62 -160.29,-208.37 -410.76,-158.36z"/>
   <path class="fil33" d="M9727.37 13184.6c342.29,0 363.32,147.8 310.66,279.76 -52.62,131.95 -105.28,121.4 -384.4,142.51 -279.11,21.15 -416.02,-21.11 -379.18,-126.66 36.88,-105.59 42.14,-131.99 42.14,-131.99 0,0 -147.46,237.54 -68.47,269.2 78.99,31.66 447.61,84.48 647.73,31.66 200.12,-52.77 242.27,-237.54 242.27,-306.12 0,-68.62 -160.29,-208.37 -410.76,-158.36z"/>
   <path class="fil33" d="M8255.5 12714.1c386.78,0 410.54,167.02 351.03,316.11 -59.47,149.09 -118.94,137.14 -434.33,161.01 -315.36,23.87 -470.08,-23.83 -428.39,-143.11 41.65,-119.28 47.59,-149.13 47.59,-149.13 0,0 -166.61,268.41 -77.36,304.2 89.28,35.75 505.76,95.41 731.87,35.75 226.11,-59.62 273.7,-268.41 273.7,-345.92 0,-77.51 -181.09,-235.42 -464.11,-178.9z"/>
   <path class="fil33" d="M7097.81 14079.97c-224.9,0 -238.71,-97.11 -204.13,-183.82 34.61,-86.67 69.19,-79.75 252.56,-93.63 183.4,-13.88 273.36,13.88 249.11,83.23 -24.21,69.38 -27.65,86.71 -27.65,86.71 0,0 96.88,-156.05 44.98,-176.86 -51.9,-20.81 -294.09,-55.5 -425.56,-20.81 -131.5,34.69 -159.19,156.05 -159.19,201.15 0,45.06 105.32,136.91 269.88,104.03z"/>
   <path class="fil33" d="M6723.93 12935.9c-224.9,0 -238.71,-97.11 -204.13,-183.78 34.58,-86.71 69.15,-79.78 252.56,-93.67 183.36,-13.85 273.33,13.88 249.11,83.23 -24.21,69.38 -27.69,86.71 -27.69,86.71 0,0 96.88,-156.05 44.98,-176.86 -51.9,-20.81 -294.06,-55.5 -425.56,-20.81 -131.5,34.69 -159.15,156.09 -159.15,201.15 0,45.09 105.32,136.91 269.88,104.03z"/>
   <path class="fil33" d="M10240.73 13913.36c-224.9,0 -238.71,-97.11 -204.13,-183.82 34.58,-86.67 69.15,-79.75 252.56,-93.63 183.36,-13.88 273.33,13.88 249.11,83.23 -24.21,69.38 -27.69,86.71 -27.69,86.71 0,0 96.88,-156.05 44.98,-176.86 -51.9,-20.81 -294.06,-55.5 -425.56,-20.81 -131.46,34.69 -159.15,156.09 -159.15,201.15 0,45.06 105.32,136.91 269.88,104.03z"/>
   <path class="fil32" d="M3454.12 11989.6c-0.15,-34.8 -5.41,-67.6 -16.04,-98.4 -10.52,-30.95 -25.27,-59.05 -44.45,-84.63 -19.18,-25.38 -41.88,-47.55 -67.87,-66.01 -26.1,-18.57 -54.78,-32.91 -86.03,-43.16 -31.36,-10.06 -64.31,-15.17 -99.08,-15.32l-279.42 0c-34.92,0.15 -68.02,5.26 -99.38,15.32 -31.25,10.25 -59.92,24.59 -86.03,43.16 -26.14,18.46 -48.69,40.63 -67.72,66.01 -19.18,25.57 -33.93,53.68 -44.45,84.63 -10.52,30.79 -15.78,63.59 -15.89,98.4 0.11,34.92 5.37,67.98 15.89,99.38 10.52,31.21 25.27,59.89 44.45,86.03 19.03,26.1 41.58,48.69 67.72,67.72 26.1,19.18 54.78,33.93 86.03,44.45 31.36,10.48 64.46,15.74 99.38,15.89l279.42 0c34.77,-0.15 67.72,-5.41 99.08,-15.89 31.25,-10.52 59.92,-25.27 86.03,-44.45 25.99,-19.03 48.69,-41.61 67.87,-67.72 19.18,-26.14 33.93,-54.82 44.45,-86.03 10.63,-31.4 15.89,-64.46 16.04,-99.38zm-96.28 0c-0.11,30.23 -5.79,58.49 -17.18,84.74 -11.2,26.25 -26.82,49.41 -46.68,69.31 -19.9,20.01 -42.9,35.64 -69,46.83 -26.29,11.2 -54.25,17.02 -84.32,17.18l-279.42 0c-30.23,-0.15 -58.33,-5.98 -84.63,-17.18 -26.1,-11.2 -49.26,-26.82 -69,-46.83 -19.86,-19.9 -35.33,-43.05 -46.57,-69.31 -11.2,-26.25 -16.87,-54.51 -17.02,-84.74 0.15,-29.96 5.83,-57.81 17.02,-83.49 11.24,-25.69 26.71,-48.12 46.57,-67.3 19.75,-19.29 42.9,-34.2 69,-44.98 26.29,-10.82 54.4,-16.19 84.63,-16.34l279.42 0c30.08,0.15 58.03,5.52 84.32,16.34 26.1,10.78 49.1,25.69 69,44.98 19.86,19.18 35.49,41.61 46.68,67.3 11.39,25.69 17.06,53.53 17.18,83.49zm293.91 313.46l0 -107.33 -115.84 0 0 107.33 115.84 0zm960.86 -192.52c-0.11,-26.82 -5.26,-51.83 -15.17,-75.09 -10.1,-23.3 -23.87,-43.88 -41.61,-61.47 -17.59,-17.74 -38.06,-31.51 -61.47,-41.61 -23.27,-9.91 -48.27,-15.02 -75.09,-15.17l-503.45 0 23 -139.71 622.69 0 0 -95.41 -705.31 0 -52.81 330.53 615.88 0c18.16,0.11 34.5,4.69 49.1,13.47 14.49,8.81 26.14,20.47 34.8,35.22 8.66,14.75 13.05,31.1 13.2,49.26 -0.15,17.89 -4.69,34.09 -13.35,48.69 -8.81,14.64 -20.43,26.29 -35.07,34.96 -14.6,8.78 -30.79,13.2 -48.69,13.47l-431.04 0c-25.12,-0.15 -49.26,-4.39 -72.52,-12.9 -23.15,-8.55 -44.3,-20.73 -63.63,-36.36 -19.14,-15.62 -35.49,-34.09 -48.69,-55.5l-69.84 68.97c19.86,27.12 43.16,50.43 69.84,70.02 26.71,19.56 55.8,34.61 87.16,45.13 31.51,10.52 64.05,15.89 97.68,16.04l431.04 0c26.67,-0.15 51.53,-5.26 74.83,-15.06 23.27,-9.91 43.73,-23.72 61.47,-41.31 17.74,-17.59 31.66,-37.91 41.73,-61.17 10.06,-23.15 15.21,-48.16 15.32,-74.98zm834.81 37.49c-0.15,-23 -4.39,-44.45 -12.94,-64.31 -8.51,-19.9 -20.43,-37.34 -35.49,-52.55 -15.17,-15.02 -32.65,-26.82 -52.51,-35.33 -19.9,-8.51 -41.31,-12.94 -64.31,-13.05 -22.89,0.11 -44.3,4.54 -64.31,13.05 -19.9,8.51 -37.34,20.32 -52.55,35.33 -15.06,15.21 -26.82,32.65 -35.33,52.55 -8.55,19.86 -12.94,41.31 -13.09,64.31 0.15,23 4.54,44.3 13.09,64.31 8.51,19.86 20.28,37.34 35.33,52.51 15.21,15.06 32.65,26.86 52.55,35.37 20.01,8.51 41.42,12.9 64.31,13.05 23,-0.15 44.41,-4.54 64.31,-13.05 19.86,-8.51 37.34,-20.32 52.51,-35.37 15.06,-15.17 26.97,-32.65 35.49,-52.51 8.55,-20.01 12.79,-41.31 12.94,-64.31zm-138.84 -465.96l-95.41 0 -385.04 647.39 95.41 0 385.04 -647.39zm-283.65 181.44c-0.15,-23 -4.58,-44.41 -13.09,-64.31 -8.51,-19.86 -20.28,-37.34 -35.33,-52.51 -15.21,-15.06 -32.65,-26.86 -52.55,-35.37 -19.86,-8.51 -41.31,-12.9 -64.31,-13.05 -23,0.15 -44.3,4.54 -64.31,13.05 -19.86,8.51 -37.34,20.32 -52.51,35.37 -15.06,15.17 -26.86,32.65 -35.37,52.51 -8.51,19.9 -12.9,41.31 -13.05,64.31 0.15,22.85 4.54,44.3 13.05,64.31 8.51,19.9 20.32,37.34 35.37,52.55 15.17,15.06 32.65,26.82 52.51,35.33 20.01,8.51 41.31,12.94 64.31,13.09 23,-0.15 44.45,-4.58 64.31,-13.09 19.9,-8.51 37.34,-20.28 52.55,-35.33 15.06,-15.21 26.82,-32.65 35.33,-52.55 8.51,-20.01 12.94,-41.46 13.09,-64.31l0 0zm351.79 283.65c-0.15,17.48 -4.54,33.37 -12.9,47.59 -8.55,14.19 -19.75,25.54 -33.93,34.05 -14.34,8.4 -30.11,12.79 -47.7,12.94 -17.48,-0.15 -33.37,-4.54 -47.59,-12.94 -14.19,-8.51 -25.54,-19.86 -34.05,-34.05 -8.4,-14.22 -12.79,-30.11 -12.94,-47.59 0.15,-17.44 4.54,-33.37 12.94,-47.55 8.51,-14.34 19.86,-25.54 34.05,-34.05 14.22,-8.4 30.11,-12.79 47.59,-12.94 17.59,0.15 33.37,4.54 47.7,12.94 14.19,8.51 25.38,19.71 33.93,34.05 8.36,14.19 12.75,30.11 12.9,47.55l0 0zm-422.49 -284.49c-0.15,17.44 -4.54,33.37 -12.94,47.55 -8.51,14.19 -19.75,25.54 -34.09,34.09 -14.19,8.36 -29.92,12.75 -47.55,12.9 -17.44,-0.15 -33.37,-4.54 -47.55,-12.9 -14.19,-8.55 -25.54,-19.9 -34.09,-34.09 -8.36,-14.19 -12.75,-30.11 -12.9,-47.55 0.15,-17.63 4.54,-33.37 12.9,-47.55 8.55,-14.38 19.9,-25.57 34.09,-34.09 14.19,-8.4 30.11,-12.79 47.55,-12.94 17.63,0.15 33.37,4.54 47.55,12.94 14.34,8.51 25.57,19.71 34.09,34.09 8.4,14.19 12.79,29.92 12.94,47.55l0 0z"/>
  </g>
 </g>
</svg>
