<?xml version="1.0" encoding="utf-8"?>
<!-- Generator: Adobe Illustrator 17.1.0, SVG Export Plug-In . SVG Version: 6.00 Build 0)  -->
<!DOCTYPE svg PUBLIC "-//W3C//DTD SVG 1.1//EN" "http://www.w3.org/Graphics/SVG/1.1/DTD/svg11.dtd">
<svg version="1.1"
	 id="svg4819" xmlns:svg="http://www.w3.org/2000/svg" xmlns:rdf="http://www.w3.org/1999/02/22-rdf-syntax-ns#" xmlns:cc="http://creativecommons.org/ns#" xmlns:dc="http://purl.org/dc/elements/1.1/"
	 xmlns="http://www.w3.org/2000/svg" xmlns:xlink="http://www.w3.org/1999/xlink" x="0px" y="0px" viewBox="0 0 680 680"
	 enable-background="new 0 0 680 680" xml:space="preserve">
<title  id="title5399">Greek Key Round Border</title>
<g id="layer1" transform="translate(-32.047234,-186.18103)">
	<path fill="#68686C" d="M679.2,563.5l-1.3,9.2l15.4,2.5l3.7-48.9l-18.7-0.2v0l-0.4-15.3l9.3-0.6l0.1,3.2l-6.2,0.2l0.2,9.4l15.6-0.2
		l-4.2-48.8l-18.5,3l0,0l-2.8-15.1l9.1-2l0.7,3.1l-6.1,1.3l1.7,9.2l15.4-2.5L680.3,423l-17.7,6.1l0,0l-5.3-14.5l8.7-3.5l1.2,3
		l-5.8,2.2l3.2,8.8l14.7-5.1l-19.4-45l-16.6,8.6l0,0h0l-7.5-13.5l8.1-4.7l1.6,2.7l-5.4,3.1l4.6,8.2l13.7-7.5l-26.4-41.3L616.8,342
		l0,0l-9.6-12.1l7.2-6l2.1,2.5l-4.9,3.9l5.8,7.4l12.4-9.4l-32.7-36.5l-13.1,13.4l0,0l-11.4-10.4l6.2-7l2.3,2.1l-4.1,4.7l6.9,6.3
		l10.6-11.4l-38.2-30.8l-10.6,15.4l0,0l-12.9-8.4l4.9-8l2.8,1.7l-3.4,5.2l7.8,5.1l8.8-12.9l-42.6-24.3l-8.2,16.8l0,0l-14.1-6.3
		l3.7-8.6l2.9,1.2l-2.5,5.7l8.6,3.8l6.5-14.2l-45.9-17.1l-5.2,17.9l0,0l-14.9-3.9l2.2-9.1l3.1,0.7l-1.5,6.1l9,2.4l4.4-15l-48.4-9.6
		l-2.1,18.6h0l-15.3-1.5l0.6-9.3l3.3,0.3l-0.5,6.2l9.3,0.9l1.7-15.5l-49-1.7l0.7,18.7h0l-15.4,1l-0.8-9.3l3.1-0.3l0.5,6.2l9.3-0.6
		l-1-15.5l-48.7,6.2l3.9,18.3h0l-15,3.5l-2.4-9l3.2-0.8l1.5,6.1l9.1-2.1l-3.2-15.2l-47,13.9l6.5,17.5h0v0l-14.3,5.8l-3.7-8.6
		l2.9-1.2l2.5,5.7l8.7-3.6l-5.8-14.5l-44.2,21.3l9.4,16.2l0,0l-13.2,8l-5.1-7.8l2.6-1.7l3.4,5.2l8-4.8l-7.8-13.5l-40.2,28l11.7,14.6
		l0,0l-11.7,10l-6.2-7l2.3-2.1l4.1,4.7l7.1-6.1l-10-11.9l-35.2,34.2l14,12.4l0,0l-9.9,11.8l-7.3-5.8l2-2.4l4.9,3.9l6-7.1L126,312.8
		l-29.3,39.3l15.7,10.2l0,0l-7.9,13.1l-8.2-4.5l1.6-2.8l5.4,3.1l4.8-8l-13.3-8.2l-22.6,43.5l17.2,7.4l0,0l-5.7,14.3l-8.8-3.3
		l1.1-2.9l5.8,2.2l3.4-8.7l-14.5-5.8l-15.3,46.6l18.2,4.3l0,0l-3.3,15l-9.2-1.7l0.6-3.2l6.1,1.3l2-9.1l-15.2-3.6l-7.6,48.4l18.6,1.6
		v0l-0.9,15.4l-9.3-0.3l0.1-3.1l6.2,0.2l0.5-9.3l-15.6-1l0.3,49.1l18.6-1.7v0l1.6,15.3l-9.3,1.3l-0.4-3.2l6.2-0.7l-1-9.3l-15.5,1.4
		l8.1,48.4l18.2-4.4l0,0l4,14.9l-9,2.7l-0.9-3l6-1.8l-2.5-9L56.4,607l15.9,46.8l17.1-7.5l0,0l0,0l0.1,0.2l6.3,13.8l-8.4,4.2
		l-1.4-2.9l5.7-2.6l-3.9-8.5l-14.3,6.2l23,43.3l15.9-9.9l0,0l8.6,12.8l-7.7,5.3l-1.8-2.6l5.1-3.5l-5.2-7.8l-13,8.6l29.7,39l14-12.4
		l0,0l10.5,11.3l-6.7,6.5l-2.2-2.3l4.5-4.4l-6.4-6.8l-11.7,10.3l35.7,34l11.7-14.6l0,0l12.2,9.5l-5.5,7.5l-2.6-1.9l3.8-5l-7.4-5.8
		l-9.8,12.1l40.4,27.7l9.5-16.1l0,0l13.5,7.4l-4.4,8.3l-2.8-1.5l2.9-5.5l-8.2-4.5l-7.6,13.6l44.4,20.8l6.6-17.5l0,0l14.5,5.1
		l-2.9,8.9l-3-1l1.9-5.9l-8.8-3.1l-5.5,14.6l47.5,13.5l3.5-18.4l0,0l15.2,2.7l-1.3,9.3l-3.2-0.5l1-6.1l-9.2-1.6l-2.9,15.3l48.8,5.6
		l0.7-18.7h0l15.4,0.2l0.1,9.4l-3.3,0l0.1-6.2l-9.4-0.2l-0.6,15.6l49-2.2v0l-2.1-18.6h0l15.3-2.2l1.5,9.2l-3.1,0.5l-1-6.2l-9.3,1.4
		l2.1,15.4l48-10l-5.2-18l0,0l14.7-4.7l3,8.8l-3,1l-2-5.9l-8.9,2.8l4.4,15l46.1-17.7l-8.2-16.8l0,0l13.8-7l4.5,8.2l-2.9,1.5
		l-2.9-5.5l-8.4,4.2l6.8,14l42.3-24.7l-10.6-15.4l0,0l12.5-9.1l5.7,7.4l-2.5,1.9l-3.8-5l-7.6,5.5l9.1,12.6l37.8-31.2L584,747.2l0,0
		l10.8-11l6.9,6.4l-2.2,2.3l-4.5-4.3l-6.6,6.7l10.9,11.1l32.4-36.8l-14.9-11.3l0,0l8.9-12.5l7.7,5.3l-1.8,2.6l-5.1-3.5l-5.4,7.6
		l12.6,9.1l26-41.6l-16.6-8.6l0,0l6.8-13.8l8.5,3.9l-1.4,2.9l-5.6-2.7l-4.2,8.4l13.8,7.2l19-45.2l-17.7-6.1l0,0l4.5-14.7l9,2.6
		l-0.9,3l-6-1.7l-2.7,9l14.9,4.7l11.5-47.7l-18.5-3v0l2.1-15.3l9.3,1l-0.3,3.1L679.2,563.5z M673.7,556.6l-2.4,18.2l-0.5,3.1l18.5,3
		l-9.9,41.1l-8.9-2.8l0.9-3l6,1.7l2.6-9.2l-15.1-4l-5.2,17.4l-1,3l17.7,6.1L660,670l-8.4-4.1l1.4-2.8l5.6,2.7l4.1-8.7l-14.2-6.5
		l-8,16.5l-1.4,2.6l16.4,9l-22.3,35.6l-7.6-5.5l1.8-2.5l5.1,3.6l5.5-8.1l-13.1-8.5l-10.5,14.9l-1.9,2.5l14.9,11.3L599.4,754
		l-6.5-6.7l2.2-2.3l4.5,4.4l6.6-7l-11.4-10.6L581.9,745l-2.2,2l12.7,13.7L560,787.5l-5.5-7.6l2.5-1.8l3.6,5l7.8-5.9l-9.7-12.2
		l-14.7,10.8l-2.6,1.8l10.6,15.4l-36.5,21.3l-4.1-8.4l2.8-1.4l2.9,5.5l8.5-4.5l-7.5-13.6l-16.4,8.4l-2.7,1.3l7.8,17l-39.3,15.1
		l-2.8-8.9l3-1l1.9,5.9l9.1-3.1l-5.1-14.7l-17.5,5.6l-3,0.9l5.2,18l-41.4,8.7l-1.3-9.3l3.1-0.5l1,6.2l9.5-1.6l-2.9-15.3l-18,2.7v0
		l-3.2,0.3l2.1,18.6l-42,1.9l0.1-9.3l3.1,0l-0.1,6.2l9.6,0l-0.2-15.6l-18.4-0.2l-3.2-0.1l-0.7,18.7l-42.1-4.9l1.8-9.2l3.1,0.5
		l-1,6.1l9.5,1.5l2.2-15.4l-18.1-3.1l-2.9-0.6l-4,18.3l-40.5-11.5l3.1-8.8l3,1l-2.1,5.9l9.1,3l4.8-14.8l-17.4-6l-3-1.1l-6.6,17.5
		l-38.3-18l4.6-8.2l2.8,1.5l-2.9,5.5l8.5,4.4l6.9-14l-16-8.6l-2.7-1.6l-9.5,16.1l-34.7-23.7l5.7-7.4l2.5,1.9l-3.8,4.9l7.7,5.7
		l9.2-12.6l-14.6-11.2l-2.3-1.9l-12.1,14.3l-30.5-29l6.9-6.4l2.1,2.3l-4.6,4.2l6.7,6.9l11.1-10.9l-12.6-13.4l-2.1-2.4l-14,12.4
		l-25.6-33.7l7.8-5.1l1.8,2.7l-5.1,3.5l5.5,7.8l12.6-9.2l-10.2-15.1l-1.7-2.7l-15.9,9.9l-19.9-37.3l8.6-3.8l1.3,2.9l-5.6,2.6
		l4.2,8.6l14-6.9l-7.4-15.9l-1.5-3.5l-17.3,7.1l-13.5-39.8l9-2.4l0.8,3l-6,1.6l2.8,9.4l14.8-4.8l-4.9-17.5l-0.8-3.1l-18.2,4.4
		l-7-41.8l9.3-0.8l0.3,3.2l-6.2,0.7l1.2,9.5l15.4-2.2l-2-18.3l-0.2-3l-18.7,1.2L50,506.7l9.3,0.6l-0.2,3.1l-6.2-0.4l-0.3,9.8
		l15.6,0.2l0.9-18.2l0.3-3.1L50.7,497l6.5-41.5l9.1,1.9l-0.6,3.1l-6.1-1.3l-1.9,9.4l15.3,2.9l3.8-18l0.7-2.9l-18.1-4.8l13.1-39.9
		l8.7,3.5l-1.2,2.9l-5.8-2.3l-3.4,9.2l14.7,5.1l6.7-17l1.2-2.9L76.4,397l19.5-37.5l8,4.9l-1.6,2.7l-5.4-3.1l-4.8,8.3l13.7,7.5
		l9.2-15.7l1.7-2.7L101,351.2l25.1-33.8l7.2,6l-2,2.4l-4.8-4l-6,7.4l12.2,9.7l11.8-14.1l2.1-2.4l-14-12.4l30.4-29.5l6,7.2l-2.4,2.1
		l-4.1-4.7l-7.1,6.4l10.6,11.4l13.7-11.9l2.5-2l-11.7-14.6l34.5-24.1l4.9,8l-2.7,1.6l-3.3-5.3l-8.1,5.1l8.5,13.1l15.7-9.7l2.6-1.5
		l-9-16.4l37.9-18.2l3.5,8.7l-2.9,1.2l-2.3-5.8l-9,3.9l6.5,14.2l16.8-7l3-1.1l-6.5-17.5l40.6-12l2,9.2l-3.1,0.7l-1.5-6.1l-9.3,2.3
		l4,15.1l17.9-4.2l2.9-0.6l-3.4-18.4l41.7-5.3l0.6,9.3l-3.1,0.2l-0.4-6.2l-9.8,0.8l1.7,15.5l18.2-1.3l3.2-0.1l-0.7-18.7l42.3,1.5
		l-1,9.3l-3.2-0.3l0.5-6.2l-9.6-0.7l-1,15.5l18.3,1.7l2.9,0.4l2.5-18.5L455,215l-2.4,9l-3-0.8l1.6-6l-9.5-2.3l-3.2,15.2l17.6,4.6
		l3,0.9l5.2-18l39.7,14.8l-3.9,8.5l-2.9-1.3l2.4-5.7l-8.8-3.7l-5.8,14.5l16.7,7.3l2.8,1.4l8.2-16.8l36.5,20.8l-5.1,7.8l-2.6-1.7
		l3.4-5.2l-8.1-5.1l-8.2,13.3l15.4,10l2.5,1.7l10.9-15.2l32.7,26.5l-6.4,6.9l-2.3-2.2l4.1-4.7l-7.2-6.3l-10,11.9l13.5,12.2l2.3,2.2
		l13.1-13.4l28.1,31.3l-7.3,5.8l-2-2.4l4.9-3.9l-6.1-7.4l-11.9,10l11.5,14.4l1.8,2.4l15.2-10.9l22.6,35.4l-8.2,4.5l-1.5-2.8l5.5-3
		l-4.9-8.4l-13.3,8.2l8.9,15.9l1.5,2.8l16.6-8.6l16.8,38.8l-8.8,3l-1.1-3l5.8-2.2l-3.5-9l-14.5,5.8l6.4,17.3l0.9,2.8l17.8-5.7
		l10.3,40.8l-9.2,1.7l-0.6-3.1l6.1-1.2l-2-9.4l-15.2,3.2l3.5,18.1l0.5,3.1l18.5-3l3.6,42.2l-9.3,0.1l-0.1-3.2l6.2-0.2l-0.4-9.6
		l-15.6,1l0.6,18.2v0.2l0,3l18.7,0.2l-3.2,41.9l-9.3-1.3l0.4-3.1l6.2,0.8l1.1-9.5L673.7,556.6z"/>
	<path fill="#68686C" d="M674.6,544.5l-0.7,9.2l15.5,1.3l1.3-22.5l-18.7-0.2l0.1-6v0l0-0.2l-1.8-33l9.3-1l0.3,3.1l-6.2,0.7l0.8,9
		l15.6-1l-2.4-22.4l-18.5,2.5l-0.9-6l-7.1-32.3l9-2.6l0.8,3l-6,1.6l2.3,8.9l15.2-3.6l-5.9-21.7l-17.8,5.6l-1.8-5.7l-12.3-31l8.5-3.9
		l1.3,2.9l-5.7,2.6l3.6,8.3l14.5-5.8l-9.4-20.5l-16.8,8.2l-2.8-5.4l-17-28.4l7.7-5.3l1.7,2.6l-5.2,3.4l5,7.8l13.3-8.2l-12.5-18.7
		l-15.2,10.9l-3.6-4.9l-21.5-25.5l6.8-6.4l2.1,2.3l-4.6,4.2l6.2,6.8l11.7-10.3l-15.2-16.3L584,313.7l-4.3-4.2l-25.1-21.5l5.7-7.5
		l2.4,1.9l-3.9,4.9l7.2,5.8l10-11.9l-17.8-13.8l-10.9,15.2l-4.9-3.5l-28.5-17.4l4.5-8.2l2.7,1.5l-3,5.5l8,4.6l7.8-13.5l-19.8-10.8
		l-8.2,16.8l-5.7-2.8l-30.7-12.5l3-8.8l3,1l-2,5.9l8.5,3.2l5.8-14.5l-21.2-7.4l-5.7,17.8l-5.8-1.7l-32.3-7.5l1.5-9.2l3,0.6l-1.1,6.1
		l9,1.8l3.3-15.2l-22.2-4l-2.5,18.5l-6-0.8l-33.3-2.2l0.1-9.3l3.1,0l-0.1,6.2l9,0.3l1-15.5l-22.5-0.3l0.2,18.7l-6,0.2l-33,3.1
		L325,220l3.1-0.4l0.8,6.2l9.1-1.2l-1.7-15.5l-22.3,3.3l3.4,18.4l-5.9,1.1l-32.3,8.5l-2.8-8.9l3-1l1.9,5.9l8.8-2.6l-4.3-15
		l-21.3,6.8l6.1,17.7l-5.7,2.1l-30.3,13.4l-4.3-8.3l2.8-1.4l2.7,5.6l8.3-4l-6.5-14.2l-20.1,10.1l9,16.4l-5.3,3l-27.9,18.2l-5.5-7.6
		l2.6-1.8l3.6,5.1l7.6-5.3l-8.8-12.9l-18.2,13.3l11.7,14.6l-4.9,3.9l-24.4,22.3l-6.7-6.5l2.2-2.2l4.3,4.5l6.6-6.4l-10.6-11.4
		l-15.8,16l13.7,12.7l-4,4.5L126,353.2l-7.6-5.5l1.8-2.5l5.1,3.6l5.5-7.4l-12.4-9.4l-13.1,18.3l15.7,10.2l-3.4,5.3l-16.1,28.9
		l-8.4-4.1l1.4-2.8l5.6,2.7l4.2-8L90.6,375l-10,20.2l17,7.8l-2.4,5.5l-11.3,31.1l-9-2.6l0.9-2.9l5.9,1.9l2.9-8.8l-14.7-5.1
		l-6.6,21.5l18.1,4.8l-1.5,5.8L73.8,487l-9.3-1.3l0.4-3.1l6.2,0.9l1.4-9.1l-15.4-2.5l-3,22.1l18.6,2.1l-0.5,6l-0.8,33l-9.4,0.4
		l-0.1-3.1l6.2-0.1l0-9.2l-15.6-0.2l0.6,22.5l18.7-1.2l0.4,6l4.5,33l-9.2,1.8l-0.6-3.1l6.1-1.2l-1.5-8.9L56.1,574l4.1,22.1l18.3-4
		l1.4,5.9l9.6,31.6l-8.7,3.3l-1-2.9l5.9-2.1l-3-8.7l-14.8,4.8l7.7,21.2l17.3-7.1l2.3,5.6l14.8,29.9l-8.2,4.6l-1.5-2.7l5.4-3
		l-4.3-8.1l-13.8,7.3l10.9,19.5l16.1-9.5l3.2,5.1l19.3,27l-7.3,5.9l-1.9-2.4l5-3.8l-5.6-7.3l-12.6,9.2l14,17.6l14.3-12.1l4,4.5
		l23.3,23.5l-6.2,7l-2.3-2.1l4.3-4.6l-6.7-6.4l-10.9,11.1l16.6,15.2l12.1-14.3l4.6,3.9l27,19.7l-5.1,7.8l-2.6-1.7l3.4-5.2l-7.6-5.2
		l-8.9,12.8l18.8,12.3l9.5-16.1l5.4,3.2l29.5,14.9l-3.8,8.6l-2.9-1.3l2.5-5.7l-8.2-3.8l-6.9,14l20.6,9.1l7.1-17.3l5.6,2.2l31.5,10
		l-2.2,9.1l-3-0.8l1.6-6l-8.9-2.5l-4.5,14.9l21.8,5.7l4-18.3l5.9,1.3l33,4.8l-0.8,9.3l-3.1-0.3l0.5-6.2l-9-1l-2.2,15.4l22.4,2.1
		l1.2-18.7l6,0.3l33.3-0.5l0.6,9.3l-3.1,0.2l-0.4-6.2l-9.2,0.4l0.6,15.6l22.5-1.5l-2.1-18.6l6.3-0.7l32.6-5.8l2.2,9.1l-3,0.7
		l-1.3-6.1l-9,1.9l2.9,15.3l21.9-5l-4.8-18.1l5.8-1.6l31.5-11l3.5,8.7l-2.9,1.2l-2.3-5.8l-8.6,3.3l5.4,14.6l20.8-8.5l-7.8-17
		l5.5-2.5l29.3-15.9l4.9,8l-2.7,1.6l-3.3-5.3l-7.8,4.6l7.5,13.7l19.2-11.7l-10.2-15.7l5-3.4l26.2-20.3l6.2,7l-2.4,2l-4-4.8l-7.1,5.9
		l9.7,12.2l17.1-14.7l-12.7-13.7l4.4-4.1l22.7-24.4l7.2,6l-2,2.4l-4.8-4l-6.1,6.9l11.7,10.3l14.4-17.1l-14.6-11.7l3.7-4.8l18.4-27.5
		l8.1,4.7l-1.6,2.7l-5.3-3.3l-4.9,7.8l13.1,8.5l11.5-19.3l-16.4-9l2.9-5.3l13.9-30.3l8.7,3.5l-1.2,2.9l-5.8-2.3l-3.6,8.5l14.3,6.1
		l8.3-20.9l-17.7-6.1l2-6l8.7-31.9l9.1,2l-0.6,3.1l-6.1-1.3l-2.1,8.8l15.1,4l4.8-22l-18.4-3.4l1-5.9l3.5-33.2l9.3,0.6l-0.2,3.1
		L674.6,544.5z M668.7,538.2l-3.6,35.6l-1.6,8.9l18.4,3.4l-3.4,15.5l-9.1-2.2l0.7-3l6.1,1.4l2-9.2l-15.3-3.2l-9.3,34.6l-3,8.6
		l17.5,6.5l-5.9,14.8l-8.6-3.7l1.2-2.9l5.7,2.5l3.5-8.8l-14.6-5.4l-14.7,32.7l-4.3,8l16.4,9l-8.2,13.7l-7.8-5.1l1.6-2.6l5.3,3.3
		l4.9-8.1l-13.5-7.8l-19.8,29.9l-5.6,7.2l14.6,11.7l-10.2,12.2l-7-6.2l2.1-2.3l4.7,4.1l6.1-7.3l-12.2-9.7l-24.3,26.3l-6.4,6l12.4,14
		l-12.1,10.4l-5.8-7.3l2.3-1.9l4,4.8l7.2-6.2l-10.3-11.7l-28.2,22.1l-7.6,5.1l10.2,15.7l-13.6,8.3l-4.7-8.1l2.7-1.6l3.1,5.4l8.1-4.9
		l-8.5-13.1L499,794.7l-8,3.6l7.4,17.2l-14.7,6l-3.3-8.8l2.8-1.1l2.3,5.8l8.7-3.6l-6.1-14.3l-33.8,12l-8.8,2.4l4.8,18.1l-15.5,3.6
		l-2-9.1l3.1-0.7l1.3,6.1l9.2-2.1l-3.6-15.1l-35.3,6.5l-9,1l1.6,18.6l-15.9,1l-0.4-9.3l3-0.1l0.4,6.2l9.4-0.6l-1.3-15.5l-35.8,0.7
		l-9.1-0.5l-1.2,18.7l-15.8-1.5l1.1-9.3l3.1,0.4L337,837l9.4,0.9l1.4-15.5l-35.8-5l-8.5-1.9l-4.4,18.2l-15.4-4l2.7-9l2.9,0.8l-1.6,6
		l9.1,2.4l3.7-15.1l-34.2-10.6l-8.5-3.3l-7.1,17.3l-14.5-6.5l4-8.5l2.8,1.3l-2.6,5.6l8.6,3.8l6.2-14.3l-32.1-16l-7.8-4.7l-9.9,15.9
		l-13.3-8.7l5.3-7.7l2.6,1.8l-3.5,5.1l7.9,5.2l8.3-13.2l-29.1-21l-6.7-5.6l-12.4,14l-11.7-10.7l6.5-6.7l2.2,2.1l-4.3,4.6l7,6.4
		l10.3-11.7l-25.4-25.4l-5.9-6.9l-14.3,12.1l-9.9-12.5l7.4-5.7l1.9,2.5l-5,3.8l5.9,7.4l12.1-9.8l-21-29.1l-4.8-7.8l-16.1,9.5
		l-7.8-13.9l8.3-4.4l1.5,2.8l-5.5,2.9l4.6,8.3l13.4-7.9l-16-32.1l-3.3-8.1l-17.5,6.7l-5.4-15l8.9-2.9l1,2.9l-5.9,2.1L79,637
		l14.6-5.5l-10.7-34.2l-2-8.8l-18.3,4l-2.9-15.6l9.2-1.5l0.5,3.1l-6.1,1l1.7,9.3l15.3-2.9l-5-35.8l-0.6-8.7L56,542l-0.4-15.8
		l9.4-0.1l0,3.1l-6.2,0.1l0.2,9.4l15.6-0.6l0.7-35.8l0.9-9l-18.6-2.1l2.2-15.8l9.2,1.5l-0.5,3.1l-6.2-1l-1.3,9.4l15.5,1.7l6.5-35.2
		l2.2-8.5l-18-5.2l4.7-15.2l8.8,3l-0.9,2.9l-5.9-1.9l-2.8,9l15,4.4l12-33.8l3.7-8.3l-17-7.8l7-14.3l8.3,4.3l-1.4,2.8l-5.5-2.9
		l-4.2,8.5l14,6.8l17.3-31.4l5-7.6l-15.4-10.6l9.2-12.9l7.4,5.7l-1.8,2.4l-5.1-3.6l-5.5,7.7l12.9,8.8l22.1-28.2l6.1-6.7l-13.7-12.7
		l11.2-11.3l6.5,6.7l-2.2,2.2l-4.3-4.5l-6.7,6.7l11.2,10.9l26.3-24.3l7.1-5.6l-11.3-14.9l12.9-9.4l5.3,7.7l-2.5,1.7l-3.6-5l-7.6,5.6
		l9.4,12.4l29.9-19.8l7.9-4.4l-9-16.4l14.2-7.2l4.1,8.4l-2.8,1.4l-2.7-5.6l-8.4,4.3l7.2,13.8l32.7-14.7l8.5-3.1l-6.1-17.7l15.2-4.8
		l2.6,9l-3,0.9l-1.7-6l-9,2.9l5.1,14.7l34.6-9.3l8.6-1.6l-3-18.5l15.7-2.3l1,9.3l-3,0.4l-0.8-6.2l-9.3,1.4l2.5,15.4l35.7-3.6
		l9.1-0.2l-0.2-18.7l15.9,0.2l-0.4,9.3l-3.1-0.1l0.2-6.2l-9.4-0.2l-0.2,15.6l36.1,2.2l8.7,1.2l3-18.5l15.7,2.8l-1.9,9.1l-3-0.6
		l1.1-6.1l-9.3-1.7l-2.5,15.4l35,7.9l8.7,2.6l5.7-17.8l15,5.3l-3.3,8.8l-2.9-1.1l2.2-5.8l-8.9-3.1l-5.1,14.7l33.3,13.4l8.2,4
		l8.6-16.6l14,7.6l-4.7,8.1l-2.6-1.5l3-5.5l-8.3-4.5l-7.2,13.8l30.7,18.5l7.4,5.3l10.9-15.2l12.6,9.7l-5.8,7.3l-2.5-2l3.9-4.9
		l-7.5-5.8l-9.4,12.4l27.3,23.2l6.5,6.4l13.4-13.1l10.8,11.6l-7,6.2l-2.1-2.4l4.7-4.1l-6.5-6.9l-11.2,10.9l23.2,27.3l5.4,7.3
		l15.2-10.9l8.8,13.2l-7.8,5.1l-1.7-2.6l5.2-3.4l-5.2-7.8l-12.9,8.8l18.6,30.7l4.1,8.1l16.8-8.2l6.6,14.5l-8.6,3.7l-1.2-2.9l5.7-2.5
		l-3.9-8.6l-14,6.8l13.4,33.3l2.7,8.3l18-5.2l4.2,15.3l-9.1,2.2l-0.7-2.9l6-1.6l-2.5-9.1l-15,4.3l7.9,35l1.3,9l18.5-2.5l1.7,15.8
		l-9.3,0.8l-0.3-3.1l6.2-0.5l-1-9.4l-15.5,1.7l2.2,36l-0.2,8.8l18.7,0.7l-0.9,15.9l-9.3-0.8l0.2-3l6.2,0.4l0.5-9.4L668.7,538.2z"/>
</g>
</svg>
