<svg width="7" viewBox="0 0 7 7" fill="none" xmlns="http://www.w3.org/2000/svg">
<path d="M6.78678 2.58321C6.6696 2.47366 6.48013 2.47415 6.36357 2.58428L2.76627 5.98354C2.29956 6.42218 1.54156 6.42218 1.07398 5.98295C0.606758 5.54359 0.606758 4.83118 1.07404 4.392L4.77783 0.892654C5.06921 0.618812 5.54293 0.618812 5.83515 0.893247C6.12728 1.16781 6.12728 1.61299 5.83508 1.88764L2.76683 4.77135C2.76663 4.77153 2.76646 4.77174 2.76627 4.77193C2.64938 4.88118 2.46047 4.88104 2.34382 4.7714C2.22697 4.66158 2.22697 4.48358 2.34382 4.37376L3.82483 2.98152C3.94168 2.87167 3.94167 2.69358 3.82479 2.58376C3.70791 2.47394 3.51843 2.47395 3.40158 2.5838L1.92058 3.97602C1.57002 4.3055 1.57002 4.83965 1.92061 5.16915C2.27118 5.49864 2.83952 5.49864 3.19011 5.16915C3.19051 5.16876 3.19084 5.16835 3.19123 5.16797L6.25827 2.28537C6.78421 1.79106 6.78421 0.989713 6.25827 0.495397C5.73226 0.00137143 4.8797 0.00137143 4.35406 0.495397L0.650271 3.99477C-0.0501745 4.65309 -0.0501746 5.72158 0.650776 6.3807C1.35219 7.03959 2.48906 7.03959 3.19005 6.38076L6.78793 2.98097C6.90447 2.87083 6.90395 2.69275 6.78678 2.58321Z" fill="currentColor"/>
</svg>
