<?xml version="1.0" encoding="UTF-8"?>
<!DOCTYPE svg PUBLIC "-//W3C//DTD SVG 1.1//EN" "http://www.w3.org/Graphics/SVG/1.1/DTD/svg11.dtd">
<!-- Creator: CorelDRAW 2020 (64-Bit Оценочная версия) -->
<svg xmlns="http://www.w3.org/2000/svg" xml:space="preserve" width="56.004mm" height="33.594mm" version="1.1" style="shape-rendering:geometricPrecision; text-rendering:geometricPrecision; image-rendering:optimizeQuality; fill-rule:evenodd; clip-rule:evenodd"
viewBox="0 0 1861.48 1116.61"
 xmlns:xlink="http://www.w3.org/1999/xlink"
 xmlns:xodm="http://www.corel.com/coreldraw/odm/2003">
 <defs>
  <style type="text/css">
   <![CDATA[
    .str0 {stroke:#FCFCFC;stroke-width:6.65;stroke-miterlimit:22.9256}
    .fil4 {fill:none}
    .fil2 {fill:#FEFEFE}
    .fil9 {fill:#EBECEC}
    .fil7 {fill:#D9DADA}
    .fil8 {fill:#9D9E9E}
    .fil10 {fill:#5B5B5B}
    .fil11 {fill:#FFF383}
    .fil5 {fill:#FECC00}
    .fil0 {fill:#FCFCFC}
    .fil6 {fill:#DA9F24}
    .fil3 {fill:#523630}
    .fil1 {fill:#523630;fill-rule:nonzero}
   ]]>
  </style>
 </defs>
 <g id="Слой_x0020_1">
  <metadata id="CorelCorpID_0Corel-Layer"/>
  <g id="_2442945962992">
   <g>
    <path class="fil0" d="M1556.07 575.87l305.41 0 0 332.93 -435.99 0 0 -200.53 -23.83 0 0 200.53 -636.06 0 0 -332.93 137.53 0 0 207.06 165.6 0 0 -207.06 132.86 0 0 207.06 67.67 0 0 -207.06 132.39 0 0 76.5 29.28 -76.5 125.13 0zm6.94 127.73l0 77 16.37 0 0 -77 -16.37 0z"/>
   </g>
   <path class="fil1" d="M892.65 800.4l165.56 0 0 90.94 -275.15 0 0 -298 102.6 0 0 256.03 6.99 -48.97zm242.97 0l200.53 0 -49.43 -6.99 0 -200.07 97.47 0 0 298 -298 0 0 -298 97.93 0 0 200.07 -48.5 6.99zm307.32 -101.66l55.03 -7.93 -62.03 0 -30.31 0 37.31 -97.47 102.6 0 0 298 -102.6 0 0 -192.6zm296.14 99.33l6.99 43.37 0 -62.02 -149.23 0 0 -75.09 149.23 0 0 -64.82 -6.99 46.63 -165.56 0 0 -92.8 270.49 0 0 140.84 -27.98 7.46 27.98 7.93 0 141.77 -270.49 0 0 -93.27 165.56 0z"/>
   <g>
    <path class="fil0" d="M1788.07 923.4l0 -0.13 39.19 0 0 3.55 4.49 -3.55 27.79 0 0 62.68 -72.07 0 -0.95 -1.65 0 1.65 -47.56 0 0 -3.55 -1.47 1.16 0 2.39 -82.36 0 0 -0.46c-1.58,0.51 -2.34,0.44 -5.88,0.46l-21.94 0 0 -1.4c-2.69,0.91 -5.52,1.38 -8.4,1.4l-56.05 0 0 -3.55 -4.49 3.55 -27.79 0 0 -10.51 -2.46 0 0 10.51 -96.21 0 -0.87 -5.28 -0.47 0.03 -0.83 5.25 -53.46 0 0 -3.55 -4.49 3.55 -27.79 0c-0.07,0 -0.15,0 -0.22,0l-14.08 0c-3.37,-0.01 -6.73,-0.55 -9.94,-1.62 -1.18,-0.4 -2.33,-0.86 -3.45,-1.38 -0.6,0.26 -1.35,0.57 -2.28,0.96 -3.17,1.33 -6.61,2.02 -10.1,2.04l-47.68 0c-0.06,0 -0.12,0 -0.18,0l-14.08 0c-3.37,-0.01 -6.73,-0.55 -9.94,-1.62 -3.08,-1.03 -5.98,-2.52 -8.59,-4.44 -1.81,-1.32 -3.47,-2.83 -4.95,-4.5 -0.48,0.03 -0.97,0.04 -1.45,0.05l-8.49 0 0 10.51 -84.22 0 0 -3.55 -4.49 3.55 -148.07 0 0 4.19 -39.11 0 0 -4.19 -1.39 0 0 4.19 -39.11 0 0 -4.19 -13.12 0c-3.37,-0.01 -6.73,-0.55 -9.94,-1.62 -3.08,-1.03 -5.98,-2.52 -8.59,-4.44 -1.81,-1.32 -3.47,-2.83 -4.95,-4.5 -0.48,0.03 -0.97,0.04 -1.45,0.05l-8.49 0 0 10.51 -79.85 0 0 -62.68 88.38 0c3.46,0.02 6.9,0.71 10.12,2.06 0.54,0.23 1,0.43 1.42,0.6 0.71,-0.23 1.75,-0.53 3.58,-1.13 3.15,-1.02 6.46,-1.52 9.8,-1.54l14.08 0c3.3,0.01 6.6,0.52 9.78,1.54 5.82,1.9 3.57,0.75 8.56,4.3 0.86,0.61 1.52,1.07 2.04,1.43 0.3,-0.25 0.63,-0.54 1,-0.87 3.81,-3.3 2.95,-2.79 7.66,-4.62 4.99,-1.96 4.08,-1.74 9.4,-1.77l199.65 0 0 3.55 1.47 -1.16 0 -2.39 84.39 0c3.46,0.02 6.9,0.71 10.12,2.06 0.54,0.23 1,0.43 1.42,0.6 0.71,-0.23 1.75,-0.53 3.58,-1.13 3.15,-1.02 6.46,-1.52 9.8,-1.54l14.08 0c0.05,0 0.1,0 0.14,0l46.63 0c5.16,0.03 4.43,-0.16 9.32,1.8 1.44,0.58 2.39,0.94 3.13,1.27 0.79,-0.4 1.69,-0.58 4.6,-1.53 3.15,-1.02 6.46,-1.52 9.8,-1.54l14.08 0c0.06,0 0.12,0 0.18,0l16.86 0 2.56 -9.09 15.73 7.79 15.73 -7.86 2.59 9.15 39.92 0 0 -0.31 82.36 0 0 0.31 50.02 0 0 3.55 1.47 -1.16 0 -2.39 73.32 0 5.26 9.14 5.23 -9.14 0.09 0 0 -0.31 82.36 0 0 0.31 8.37 0 0 3.55 1.47 -1.16 0 -2.39 39.19 0 0 0.51c0.57,-0.19 1.03,-0.31 1.54,-0.38z"/>
   </g>
   <path class="fil1" d="M819.79 968.49l0 -27.75 -36.55 0 0 27.75 4.26 0 0 -23.49 28.02 0 0 23.49 4.26 0zm42.94 -19.15c-0.01,-1.2 -0.24,-2.32 -0.68,-3.35 -0.45,-1.04 -1.06,-1.95 -1.86,-2.73 -0.79,-0.79 -1.71,-1.4 -2.75,-1.85 -1.04,-0.44 -2.16,-0.66 -3.35,-0.67l-30.19 0 0 27.75 4.26 0 0 -10.51 25.93 0c1.2,-0.01 2.31,-0.24 3.35,-0.68 1.04,-0.44 1.96,-1.05 2.75,-1.85 0.79,-0.78 1.41,-1.7 1.86,-2.74 0.45,-1.05 0.67,-2.17 0.68,-3.38zm-4.3 0c-0.01,0.81 -0.2,1.54 -0.59,2.19 -0.39,0.65 -0.91,1.17 -1.56,1.56 -0.65,0.38 -1.38,0.58 -2.19,0.59l-25.93 0 0 -8.68 25.93 0c0.81,0.01 1.54,0.21 2.19,0.6 0.65,0.39 1.17,0.91 1.56,1.56 0.39,0.65 0.58,1.38 0.59,2.18zm48.69 5.14c-0.01,-1.55 -0.24,-3.02 -0.72,-4.4 -0.47,-1.38 -1.13,-2.64 -1.98,-3.78 -0.86,-1.14 -1.87,-2.13 -3.03,-2.95 -1.17,-0.83 -2.45,-1.47 -3.85,-1.93 -1.4,-0.45 -2.88,-0.68 -4.43,-0.68l-14.01 0c-1.56,0.01 -3.04,0.23 -4.44,0.68 -1.4,0.46 -2.68,1.1 -3.85,1.93 -1.17,0.82 -2.18,1.81 -3.03,2.95 -0.85,1.14 -1.52,2.4 -1.98,3.78 -0.47,1.38 -0.7,2.85 -0.71,4.4 0.01,1.56 0.24,3.04 0.71,4.44 0.47,1.4 1.13,2.68 1.98,3.85 0.85,1.17 1.86,2.18 3.03,3.03 1.17,0.85 2.45,1.52 3.85,1.98 1.4,0.47 2.88,0.7 4.44,0.71l14.01 0c1.56,-0.01 3.03,-0.24 4.43,-0.71 1.4,-0.47 2.68,-1.13 3.85,-1.98 1.16,-0.85 2.17,-1.86 3.03,-3.03 0.86,-1.17 1.52,-2.45 1.98,-3.85 0.48,-1.4 0.71,-2.88 0.72,-4.44zm-4.3 0c-0.01,1.35 -0.26,2.62 -0.77,3.79 -0.5,1.17 -1.2,2.21 -2.09,3.09 -0.89,0.9 -1.91,1.59 -3.08,2.09 -1.17,0.5 -2.42,0.76 -3.77,0.77l-14.01 0c-1.35,-0.01 -2.61,-0.27 -3.78,-0.77 -1.17,-0.5 -2.2,-1.2 -3.08,-2.09 -0.89,-0.89 -1.58,-1.92 -2.08,-3.09 -0.5,-1.17 -0.75,-2.44 -0.76,-3.79 0.01,-1.34 0.26,-2.58 0.76,-3.73 0.5,-1.15 1.19,-2.15 2.08,-3.01 0.88,-0.86 1.92,-1.53 3.08,-2.01 1.17,-0.48 2.43,-0.72 3.78,-0.73l14.01 0c1.35,0.01 2.6,0.25 3.77,0.73 1.17,0.48 2.2,1.15 3.08,2.01 0.89,0.86 1.59,1.86 2.09,3.01 0.51,1.15 0.76,2.39 0.77,3.73zm51.51 18.2l0 -8.45 -3.54 0 0 -23.49 -19.15 0c-1.09,0.01 -2.11,0.2 -3.06,0.57 -0.96,0.37 -1.82,0.89 -2.59,1.56 -0.77,0.67 -1.41,1.44 -1.92,2.32l-10.93 19.03 -3.5 0 0 8.45 4.19 0 0 -4.19 36.32 0 0 4.19 4.19 0zm-7.8 -27.68l0 19.23 -28.4 0 9.67 -16.83c0.25,-0.45 0.58,-0.86 0.96,-1.22 0.39,-0.36 0.82,-0.64 1.31,-0.86 0.49,-0.21 1.02,-0.32 1.58,-0.33l14.88 0zm51.01 23.49l-4.41 -27.75 -31.79 0 -4.38 27.75 4.34 0 0.68 -4.3 30.19 -1.98 1.03 6.28 4.34 0zm-6.36 -12.68l-28.21 1.9 2.02 -12.72 24.48 0 1.72 10.81zm0.68 4.22l-29.58 2.02 0.34 -2.17 28.89 -1.94 0.34 2.09zm61.82 8.45l-7.35 -12.75c-0.51,-0.88 -1.15,-1.66 -1.92,-2.33 -0.77,-0.67 -1.63,-1.2 -2.59,-1.58 -0.96,-0.38 -1.98,-0.58 -3.06,-0.58l-1.14 0 2.4 -3.88c0.27,-0.44 0.59,-0.83 0.97,-1.19 0.38,-0.36 0.81,-0.64 1.28,-0.85 0.48,-0.21 0.99,-0.32 1.55,-0.33l3.39 0 0 -4.26 -3.39 0c-1.09,0.01 -2.12,0.2 -3.07,0.59 -0.95,0.39 -1.81,0.91 -2.58,1.59 -0.76,0.67 -1.4,1.45 -1.93,2.32l-3.62 6.02 -3.58 0 0 -10.51 -4.26 0 0 10.51 -3.58 0 -3.62 -6.02c-0.53,-0.87 -1.17,-1.64 -1.93,-2.32 -0.76,-0.67 -1.63,-1.2 -2.58,-1.59 -0.95,-0.39 -1.97,-0.58 -3.07,-0.59l-3.39 0 0 4.26 3.39 0c0.56,0.01 1.08,0.12 1.56,0.33 0.48,0.21 0.9,0.5 1.28,0.85 0.38,0.36 0.7,0.75 0.97,1.19l2.4 3.88 -1.14 0c-1.08,0.01 -2.1,0.2 -3.06,0.58 -0.96,0.38 -1.82,0.9 -2.59,1.58 -0.77,0.67 -1.41,1.45 -1.92,2.33l-7.35 12.75 4.99 0 6.09 -10.58c0.25,-0.45 0.58,-0.86 0.96,-1.21 0.39,-0.36 0.82,-0.64 1.31,-0.86 0.49,-0.21 1.01,-0.32 1.57,-0.32l9.71 0 0 12.98 4.26 0 0 -12.98 9.71 0c0.57,0 1.09,0.11 1.58,0.32 0.49,0.22 0.92,0.5 1.31,0.86 0.39,0.36 0.71,0.76 0.96,1.21l6.09 10.58 4.99 0zm43.21 0l-4.41 -27.75 -31.79 0 -4.38 27.75 4.34 0 0.68 -4.3 30.19 -1.98 1.03 6.28 4.34 0zm-6.36 -12.68l-28.21 1.9 2.02 -12.72 24.48 0 1.72 10.81zm0.68 4.22l-29.58 2.02 0.34 -2.17 28.89 -1.94 0.34 2.09zm54.86 8.45l0 -27.75 -4.26 0 -28.02 22.12 0 -22.12 -4.26 0 0 27.75 4.26 0 28.02 -22.12 0 22.12 4.26 0zm38.53 -23.49l0 -4.26 -34.41 0 0 27.75 4.26 0 0 -23.49 30.15 0zm41.08 4.34c-0.01,-1.2 -0.24,-2.32 -0.68,-3.35 -0.45,-1.04 -1.06,-1.95 -1.86,-2.73 -0.79,-0.79 -1.71,-1.4 -2.75,-1.85 -1.04,-0.44 -2.16,-0.66 -3.35,-0.67l-30.19 0 0 27.75 4.26 0 0 -10.51 25.93 0c1.2,-0.01 2.31,-0.24 3.35,-0.68 1.04,-0.44 1.96,-1.05 2.75,-1.85 0.79,-0.78 1.41,-1.7 1.86,-2.74 0.45,-1.05 0.67,-2.17 0.68,-3.38zm-4.3 0c-0.01,0.81 -0.2,1.54 -0.59,2.19 -0.39,0.65 -0.91,1.17 -1.56,1.56 -0.65,0.38 -1.38,0.58 -2.19,0.59l-25.93 0 0 -8.68 25.93 0c0.81,0.01 1.54,0.21 2.19,0.6 0.65,0.39 1.17,0.91 1.56,1.56 0.39,0.65 0.58,1.38 0.59,2.18zm48.69 5.14c-0.01,-1.55 -0.24,-3.02 -0.72,-4.4 -0.47,-1.38 -1.13,-2.64 -1.98,-3.78 -0.86,-1.14 -1.87,-2.13 -3.03,-2.95 -1.17,-0.83 -2.45,-1.47 -3.85,-1.93 -1.4,-0.45 -2.88,-0.68 -4.43,-0.68l-14.01 0c-1.56,0.01 -3.04,0.23 -4.44,0.68 -1.4,0.46 -2.68,1.1 -3.85,1.93 -1.17,0.82 -2.18,1.81 -3.03,2.95 -0.85,1.14 -1.52,2.4 -1.98,3.78 -0.47,1.38 -0.7,2.85 -0.71,4.4 0.01,1.56 0.24,3.04 0.71,4.44 0.47,1.4 1.13,2.68 1.98,3.85 0.85,1.17 1.86,2.18 3.03,3.03 1.17,0.85 2.45,1.52 3.85,1.98 1.4,0.47 2.88,0.7 4.44,0.71l14.01 0c1.56,-0.01 3.03,-0.24 4.43,-0.71 1.4,-0.47 2.68,-1.13 3.85,-1.98 1.16,-0.85 2.17,-1.86 3.03,-3.03 0.86,-1.17 1.52,-2.45 1.98,-3.85 0.48,-1.4 0.71,-2.88 0.72,-4.44zm-4.3 0c-0.01,1.35 -0.26,2.62 -0.77,3.79 -0.5,1.17 -1.2,2.21 -2.09,3.09 -0.89,0.9 -1.91,1.59 -3.08,2.09 -1.17,0.5 -2.42,0.76 -3.77,0.77l-14.01 0c-1.35,-0.01 -2.61,-0.27 -3.78,-0.77 -1.17,-0.5 -2.2,-1.2 -3.08,-2.09 -0.89,-0.89 -1.58,-1.92 -2.08,-3.09 -0.5,-1.17 -0.75,-2.44 -0.76,-3.79 0.01,-1.34 0.26,-2.58 0.76,-3.73 0.5,-1.15 1.19,-2.15 2.08,-3.01 0.88,-0.86 1.92,-1.53 3.08,-2.01 1.17,-0.48 2.43,-0.72 3.78,-0.73l14.01 0c1.35,0.01 2.6,0.25 3.77,0.73 1.17,0.48 2.2,1.15 3.08,2.01 0.89,0.86 1.59,1.86 2.09,3.01 0.51,1.15 0.76,2.39 0.77,3.73zm46.79 5.41c-0.01,-1.01 -0.17,-1.96 -0.49,-2.86 -0.31,-0.89 -0.76,-1.72 -1.33,-2.45 -0.58,-0.74 -1.25,-1.37 -2.03,-1.89 0.52,-0.65 0.92,-1.37 1.2,-2.16 0.29,-0.79 0.43,-1.63 0.43,-2.53 -0.01,-1.04 -0.2,-2 -0.59,-2.89 -0.39,-0.88 -0.93,-1.65 -1.62,-2.3 -0.68,-0.66 -1.49,-1.17 -2.39,-1.53 -0.91,-0.36 -1.88,-0.55 -2.93,-0.55l-29.09 0 0 27.75 30.19 0c1.2,-0.01 2.31,-0.24 3.35,-0.67 1.04,-0.45 1.96,-1.06 2.75,-1.85 0.79,-0.79 1.41,-1.69 1.86,-2.74 0.45,-1.03 0.67,-2.15 0.68,-3.35zm-6.51 -11.92c-0.01,0.58 -0.15,1.12 -0.43,1.61 -0.28,0.5 -0.64,0.89 -1.09,1.19 -0.45,0.3 -0.93,0.46 -1.45,0.47l-25.09 0 0 -6.25 24.82 0c0.59,0 1.13,0.12 1.62,0.36 0.49,0.24 0.88,0.58 1.17,1.03 0.29,0.44 0.44,0.96 0.45,1.58zm2.17 11.92c-0.01,0.8 -0.2,1.52 -0.59,2.17 -0.38,0.65 -0.9,1.17 -1.55,1.56 -0.65,0.39 -1.37,0.59 -2.16,0.6l-25.93 0 0 -8.68 25.93 0c0.8,0.01 1.52,0.2 2.16,0.59 0.64,0.39 1.17,0.9 1.55,1.56 0.39,0.65 0.58,1.38 0.59,2.19zm49.57 -5.41c-0.01,-1.55 -0.24,-3.02 -0.72,-4.4 -0.47,-1.38 -1.13,-2.64 -1.98,-3.78 -0.86,-1.14 -1.87,-2.13 -3.03,-2.95 -1.17,-0.83 -2.45,-1.47 -3.85,-1.93 -1.4,-0.45 -2.88,-0.68 -4.43,-0.68l-14.01 0c-1.56,0.01 -3.04,0.23 -4.44,0.68 -1.4,0.46 -2.68,1.1 -3.85,1.93 -1.17,0.82 -2.18,1.81 -3.03,2.95 -0.85,1.14 -1.52,2.4 -1.98,3.78 -0.47,1.38 -0.7,2.85 -0.71,4.4 0.01,1.56 0.24,3.04 0.71,4.44 0.47,1.4 1.13,2.68 1.98,3.85 0.85,1.17 1.86,2.18 3.03,3.03 1.17,0.85 2.45,1.52 3.85,1.98 1.4,0.47 2.88,0.7 4.44,0.71l14.01 0c1.56,-0.01 3.03,-0.24 4.43,-0.71 1.4,-0.47 2.68,-1.13 3.85,-1.98 1.16,-0.85 2.17,-1.86 3.03,-3.03 0.86,-1.17 1.52,-2.45 1.98,-3.85 0.48,-1.4 0.71,-2.88 0.72,-4.44zm-4.3 0c-0.01,1.35 -0.26,2.62 -0.77,3.79 -0.5,1.17 -1.2,2.21 -2.09,3.09 -0.89,0.9 -1.91,1.59 -3.08,2.09 -1.17,0.5 -2.42,0.76 -3.77,0.77l-14.01 0c-1.35,-0.01 -2.61,-0.27 -3.78,-0.77 -1.17,-0.5 -2.2,-1.2 -3.08,-2.09 -0.89,-0.89 -1.58,-1.92 -2.08,-3.09 -0.5,-1.17 -0.75,-2.44 -0.76,-3.79 0.01,-1.34 0.26,-2.58 0.76,-3.73 0.5,-1.15 1.19,-2.15 2.08,-3.01 0.88,-0.86 1.92,-1.53 3.08,-2.01 1.17,-0.48 2.43,-0.72 3.78,-0.73l14.01 0c1.35,0.01 2.6,0.25 3.77,0.73 1.17,0.48 2.2,1.15 3.08,2.01 0.89,0.86 1.59,1.86 2.09,3.01 0.51,1.15 0.76,2.39 0.77,3.73zm31.33 -11.8l-0.99 -3.5c-0.72,0.36 -1.48,0.62 -2.27,0.79 -0.78,0.17 -1.57,0.24 -2.38,0.24 -0.8,0 -1.6,-0.07 -2.38,-0.24 -0.78,-0.17 -1.54,-0.43 -2.27,-0.79l-0.99 3.5c0.85,0.34 1.74,0.61 2.64,0.79 0.91,0.18 1.83,0.28 2.76,0.28l0.53 0c0.91,0 1.83,-0.1 2.73,-0.28 0.9,-0.18 1.78,-0.45 2.64,-0.79l-0.04 0zm13.21 25.81l0 -27.75 -4.26 0 -28.02 22.12 0 -22.12 -4.26 0 0 27.75 4.26 0 28.02 -22.12 0 22.12 4.26 0zm53.07 0l-4.41 -27.75 -31.79 0 -4.38 27.75 4.34 0 0.68 -4.3 30.19 -1.98 1.03 6.28 4.34 0zm-6.36 -12.68l-28.21 1.9 2.02 -12.72 24.48 0 1.72 10.81zm0.68 4.22l-29.58 2.02 0.34 -2.17 28.89 -1.94 0.34 2.09zm56.87 8.45l0 -28.06 -47.43 0 0 28.06 4.3 0 0 -23.72 17.24 0 0 23.72 4.3 0 0 -23.72 17.28 0 0 23.72 4.3 0zm42.94 -19.15c-0.01,-1.2 -0.24,-2.32 -0.68,-3.35 -0.45,-1.04 -1.06,-1.95 -1.86,-2.73 -0.79,-0.79 -1.71,-1.4 -2.75,-1.85 -1.04,-0.44 -2.16,-0.66 -3.35,-0.67l-30.19 0 0 27.75 4.26 0 0 -10.51 25.93 0c1.2,-0.01 2.31,-0.24 3.35,-0.68 1.04,-0.44 1.96,-1.05 2.75,-1.85 0.79,-0.78 1.41,-1.7 1.86,-2.74 0.45,-1.05 0.67,-2.17 0.68,-3.38zm-4.3 0c-0.01,0.81 -0.2,1.54 -0.59,2.19 -0.39,0.65 -0.91,1.17 -1.56,1.56 -0.65,0.38 -1.38,0.58 -2.19,0.59l-25.93 0 0 -8.68 25.93 0c0.81,0.01 1.54,0.21 2.19,0.6 0.65,0.39 1.17,0.91 1.56,1.56 0.39,0.65 0.58,1.38 0.59,2.18zm43.67 19.15l0 -27.75 -4.26 0 -28.02 22.12 0 -22.12 -4.26 0 0 27.75 4.26 0 28.02 -22.12 0 22.12 4.26 0zm42.9 -8.64c-0.01,-1.2 -0.24,-2.32 -0.67,-3.35 -0.45,-1.04 -1.06,-1.95 -1.85,-2.73 -0.78,-0.79 -1.69,-1.4 -2.73,-1.85 -1.04,-0.44 -2.15,-0.66 -3.35,-0.67l-25.93 0 0 -6.25 32.4 0 0 -4.26 -36.66 0 0 27.75 30.19 0c1.2,-0.01 2.31,-0.24 3.35,-0.68 1.04,-0.45 1.95,-1.07 2.73,-1.86 0.79,-0.78 1.4,-1.71 1.85,-2.75 0.44,-1.04 0.66,-2.16 0.67,-3.36zm-4.3 0c-0.01,0.81 -0.2,1.54 -0.59,2.2 -0.38,0.66 -0.9,1.18 -1.55,1.57 -0.65,0.39 -1.37,0.59 -2.16,0.6l-25.93 0 0 -8.72 25.93 0c0.8,0 1.52,0.2 2.16,0.59 0.64,0.39 1.17,0.91 1.55,1.56 0.39,0.64 0.58,1.38 0.59,2.19zm46.98 -19.11l-4.99 0 -8.45 14.77 -11.34 0c-0.53,-0.01 -1.04,-0.11 -1.52,-0.32 -0.48,-0.21 -0.91,-0.49 -1.3,-0.85 -0.39,-0.36 -0.72,-0.77 -0.99,-1.23l-7.12 -12.37 -4.99 0 8.34 14.54c0.53,0.91 1.18,1.69 1.96,2.37 0.78,0.67 1.66,1.19 2.62,1.56 0.96,0.37 1.97,0.56 3.03,0.57l8.83 0 -1.18 2.06c-0.27,0.46 -0.59,0.87 -0.99,1.23 -0.39,0.36 -0.83,0.64 -1.31,0.85 -0.48,0.21 -1,0.31 -1.55,0.32l-4.45 0 0 4.26 4.45 0c1.06,-0.01 2.07,-0.2 3.03,-0.57 0.96,-0.37 1.83,-0.89 2.61,-1.56 0.79,-0.67 1.44,-1.46 1.97,-2.37l13.33 -23.26zm49.87 27.75l0 -28.06 -47.43 0 0 28.06 4.3 0 0 -23.72 17.24 0 0 23.72 4.3 0 0 -23.72 17.28 0 0 23.72 4.3 0zm40.65 0l0 -27.75 -4.26 0 -28.02 22.12 0 -22.12 -4.26 0 0 27.75 4.26 0 28.02 -22.12 0 22.12 4.26 0zm41.88 0l-7.35 -12.75c-0.51,-0.88 -1.15,-1.66 -1.92,-2.33 -0.77,-0.67 -1.63,-1.2 -2.59,-1.58 -0.96,-0.38 -1.98,-0.58 -3.06,-0.58l-1.14 0 2.4 -3.88c0.27,-0.44 0.59,-0.83 0.97,-1.19 0.38,-0.36 0.81,-0.64 1.28,-0.85 0.48,-0.21 1,-0.32 1.56,-0.33l3.39 0 0 -4.26 -3.39 0c-1.1,0.01 -2.12,0.2 -3.07,0.59 -0.95,0.39 -1.81,0.91 -2.58,1.59 -0.76,0.67 -1.4,1.45 -1.93,2.32l-3.62 6.02 -12.45 0 0 -10.51 -4.26 0 0 27.75 4.26 0 0 -12.98 18.58 0c0.56,0 1.09,0.11 1.58,0.32 0.49,0.22 0.92,0.5 1.31,0.86 0.39,0.36 0.71,0.76 0.96,1.21l6.09 10.58 4.99 0zm39.51 0l0 -27.75 -4.26 0 -28.02 22.12 0 -22.12 -4.26 0 0 27.75 4.26 0 28.02 -22.12 0 22.12 4.26 0z"/>
   <g>
    <path class="fil0" d="M251.38 425.28c4.7,-7.76 10.16,-15.86 15.79,-22.39l5.39 -6.25 2.75 0.07c3.09,-5.62 6.21,-11.23 9.28,-16.86 1.9,-3.49 5.14,-8.92 6.6,-12.79 1.94,-15.26 6.31,-44.59 16.44,-54.71 0.61,-0.65 1.24,-1.43 1.86,-2.25l-1.07 -30.23c-13.43,-5.33 -25.48,-15.17 -29.87,-28.97 -0.42,-1.32 -0.95,-2.91 -1.51,-4.62l-15.2 -3.5 4.03 -30.3c-5.26,-6.27 -9.37,-14.89 -10.75,-22.81l-1.03 -5.94c-13.9,-11.92 -26.35,-31.75 -31.71,-48.23 -4.5,-13.86 -3.92,-33.38 -1.35,-47.65l5.36 -29.7 23.06 19.42c9.4,7.83 23.15,15.38 34.21,20.27 1.51,0.67 3.46,1.48 5.64,2.31 0.77,-5.54 2.14,-10.94 3.54,-15.51l26.04 -84.64 7.96 87.28c0.39,1.3 1.23,2.95 1.98,4.3 2.66,1.52 8.15,3.42 10.57,4.42 9.52,3.93 18.38,8.4 27.11,13.89 20.68,13.01 42.42,43.09 48.34,66.75 1.52,6.09 1.25,12.14 -1.72,17.78 -1.68,3.18 -3.47,4.95 -5.17,6.62l13.51 0.08 -4.93 49.15 -11.22 0.86c-3.45,10.49 -10.07,20.08 -19.05,26.06 -3.19,2.13 -6.96,4.44 -11,6.39 0.11,0.31 0.21,0.62 0.3,0.94 12.21,4.07 21.07,18.62 15.23,31.5 0.31,1.48 0.48,3.03 0.5,4.74 2.12,4.63 2.77,10.07 1.92,15.37 -0.5,3.06 -1.52,6.13 -2.95,9.05 0.58,4.19 -0.03,8.6 -2.02,12.79 -2.88,6.06 -9.1,13.86 -13.82,19.68 6.79,3.85 11.62,10.18 14.05,19.91 0.3,1.19 0.6,2.38 0.91,3.56 1.28,0.7 2.56,1.4 3.82,2.12l1.27 0.72 1.13 0.92c3.98,3.23 7.96,6.47 11.94,9.7 171.44,26.53 298.66,174.82 298.66,348.93 0,194.98 -158.13,353.11 -353.11,353.11 -194.98,0 -353.11,-158.13 -353.11,-353.11 0,-155.98 102.5,-293.53 251.38,-338.22z"/>
   </g>
   <path class="fil2" d="M400.26 431.14c163.02,22.93 288.49,163.02 288.49,332.36 0,185.34 -150.3,335.64 -335.64,335.64 -185.34,0 -335.64,-150.3 -335.64,-335.64 0,-154.09 103.89,-283.97 245.44,-323.38 9.44,-16.49 17.5,-25.83 17.5,-25.83l5.16 0.12c11.73,-21.82 22.23,-39.39 22.81,-44.01 0.78,-6.21 5.42,-39.54 11.63,-45.74 1.63,-1.63 4.16,-5.07 7.16,-9.26l-1.73 -48.88c0,0 -24.81,-3.87 -30.23,-20.93 -3.33,-10.47 -4.04,-13.35 -4.08,-14l-9.87 -2.27 1.55 -11.63 13.96 0.09c0,0 -10.47,-9 -16.67,-15.59 -6.2,-6.59 -7.75,-15.51 -7.75,-15.51l5.82 5.43c5.81,5.42 16.66,5.42 16.66,5.42l-1.56 -13.18c0,0 -12.4,-2.72 -24.41,-11.24 -12.01,-8.53 -24.81,-27.52 -29.85,-43.02 -5.04,-15.51 -0.77,-39.15 -0.77,-39.15 0,0 14.73,12.4 38.37,22.87 23.64,10.46 35.28,8.53 35.28,8.53l-4.27 -6.2c-4.26,-6.2 1.94,-26.36 1.94,-26.36 0,0 0.39,4.27 5.04,12.02 4.66,7.75 18.61,7.75 42.64,22.87 24.02,15.11 38.37,46.9 40.69,56.2 2.32,9.3 -6.2,5.81 -12.02,22.86 -2.71,6.2 -0.78,14.62 -0.78,14.62l17.06 0.11 -1.56 15.51 -10.07 0.77c0,0 0,18.61 -13.96,27.91 -13.96,9.3 -18.61,7.75 -18.61,7.75l-0.31 17.1c2.2,2.31 1.81,6.71 -0.19,10.45l-0.26 14.45c2.1,-1.89 4.2,-4.25 6.18,-7.11 6.98,-10.07 14.73,0.77 10.08,5.43 -4.65,4.65 0.36,5.13 0.36,10.38 0,5.25 -0.19,5.25 -0.19,5.25 0,0 3.3,0.97 2.34,6.99 -0.98,6.03 -6.02,10.11 -6.02,10.11 0,0 4.66,2.53 2.52,7 -2.13,4.47 -13,17.89 -13,17.89 0,0 -1.27,-0.3 -3.25,-0.29l-0.4 22.26c7.2,0.6 13.26,1.7 15.71,11.48 0.83,3.31 1.85,7.23 3.09,11.27 5.8,3 9.98,5.36 9.98,5.36 0,0 6.13,4.97 15.65,12.72z"/>
   <path class="fil3" d="M351.34 423.02c185.34,0 335.64,150.3 335.64,335.64 0,185.34 -150.3,335.64 -335.64,335.64 -185.34,0 -335.64,-150.3 -335.64,-335.64 0,-185.34 150.3,-335.64 335.64,-335.64z"/>
   <path class="fil0" d="M232.71 563.5c-9.8,-89.42 45.92,-154.04 45.92,-154.04l51.29 1.21c0,0 -19.58,83.68 -14.15,87.7 5.43,4.02 48.24,6.59 61.91,8.79 13.67,2.2 -7.22,-29.98 -13.41,-34.12 -6.19,-4.14 -6.57,14.29 -6.57,14.29l-29.03 -0.85c0,0 -3.56,-30.74 -2.81,-55.15 0.56,-18.39 4.96,-31.76 7.45,-33.75 5.79,-4.63 49.54,16.01 49.54,16.01 0,0 94.93,77.02 118.14,97.18 23.21,20.16 18.06,55.31 14.45,82.71 -0.82,6.2 -7.26,75.33 -29.91,74.49 -77.32,-2.88 -252.8,-104.47 -252.8,-104.47z"/>
   <path class="fil0" d="M348.91 522.21c133.17,0 241.16,107.99 241.16,241.16 0,133.17 -107.99,241.16 -241.16,241.16 -133.17,0 -241.16,-107.99 -241.16,-241.16 0,-133.17 107.99,-241.16 241.16,-241.16z"/>
   <path class="fil2" d="M348.91 540.66c122.98,0 222.72,99.73 222.72,222.72 0,122.98 -99.73,222.72 -222.72,222.72 -122.99,0 -222.72,-99.73 -222.72,-222.72 0,-122.99 99.73,-222.72 222.72,-222.72z"/>
   <path class="fil4 str0" d="M351.34 435.66c178.36,0 323.01,144.64 323.01,323.01 0,178.36 -144.64,323.01 -323.01,323.01 -178.36,0 -323.01,-144.64 -323.01,-323.01 0,-178.36 144.64,-323.01 323.01,-323.01z"/>
   <path class="fil5" d="M499.87 615.08c35.95,37.18 58.07,87.8 58.07,143.58 0,58.19 -24.08,110.76 -62.8,148.31l-14.97 -14.97c34.89,-33.72 56.6,-81 56.6,-133.34 0,-49.92 -19.74,-95.24 -51.84,-128.58l14.94 -15zm-286.79 297.09c-41.96,-37.82 -68.35,-92.58 -68.35,-153.5 0,-53.9 20.66,-102.98 54.48,-139.77l15.7 14.2c-30.42,33.03 -49.01,77.13 -49.01,125.57 0,55.08 24.03,104.54 62.17,138.51l-14.99 14.99z"/>
   <path class="fil4 str0" d="M275.75 1015.07l21.71 4.54 -3.89 41.48 28.84 1.94 2.92 -38.24 25.6 0.65 1.62 38.57 37.46 -2.6 -7.46 -38.09m6.22 35.19l-6.63 -37.51 30.75 -8.45 11.55 36.83 29.24 -9.85 -12.69 -34.85m-0.49 -1.91l19.9 -9.79 22.48 35.09 23.92 -16.23 -21.24 -31.93 20.57 -15.25 25.02 29.39 23.07 -20.48 -25.31 -27.12m1.77 2.3l14.5 -16.79 34.4 23.51 15.68 -24.29 -32.03 -21.09 12.98 -22.07 34.51 17.27 13.23 -27.87 -33.89 -15.07m2.49 2.53l6.79 -21.12 40.85 8.2 4.95 -28.49 -37.73 -6.9 3.32 -25.39 38.52 2.42 1.29 -30.83 -37.08 -0.63m-0.46 0.53l-2 -22.09 40.81 -8.41 -6.58 -28.16 -37.43 8.4 -6.86 -24.67 36.4 -12.83 -10.86 -28.88 -34.39 13.91m0.19 1.5l-10.47 -19.55 34.28 -23.69 -17.06 -23.35 -31.17 22.35 -15.96 -20.03 28.5 -26.03 -21.28 -22.34 -26.21 26.24m3.42 -1.9l-17.29 -13.9 22.3 -35.2 -24.82 -14.82 -19.96 32.75 -22.52 -12.2 16.06 -35.1 -28.31 -12.25 -13.88 34.4m-1.65 -1.65l-21.34 -6.04 6.77 -41.12 -28.64 -3.95 -5.58 37.94 -25.49 -2.43 1.07 -38.58 -30.85 -0.22 0.66 37.08m0.32 1.71l-22.01 2.78 -9.83 -40.49 -27.91 7.56 9.69 37.11 -24.42 7.72 -14.09 -35.93 -28.48 11.86 15.1 33.88m1.13 -0.56l-19.18 11.15 -24.87 -33.43 -22.74 17.86 23.42 30.37 -19.46 16.65 -27.01 -27.58 -21.58 22.05 27.13 25.28m-1.53 -1.69l-13.29 17.76 -35.96 -21.06 -13.95 25.32 33.43 18.81 -11.41 22.93 -35.64 -14.83 -11.25 28.72 34.85 12.67m-0.52 3.22l-5.29 21.54 -41.33 -5.33 -2.95 28.76 38.12 4.25 -1.54 25.56 -38.6 0.28 0.87 30.84 37.04 -1.95m-3.43 0.18l3.54 21.9 -40.12 11.23 8.52 27.63 36.75 -10.98 8.57 24.13 -35.43 15.34 12.85 28.05 33.33 -16.27m0.7 1.21l11.82 18.77 -32.54 26.02 18.64 22.1 29.54 -24.47 17.32 18.87 -26.62 27.96 22.79 20.8 24.32 -28m1.55 1.47l18.21 12.66 -19.79 36.67 25.79 13.06 17.63 -34.07 23.32 10.6 -13.58 36.14 29.1 10.24 11.45 -35.28"/>
   <path class="fil6" d="M352.34 481.85l-20.94 -1.56 -7.75 -218.6c0,0 -24.81,-3.87 -30.23,-20.93 -5.43,-17.05 -3.88,-13.96 -3.88,-13.96l-10.07 -2.32 1.55 -11.63 119.39 0.77 -1.56 15.51 -10.07 0.77c0,0 0,18.61 -13.96,27.91 -13.96,9.3 -18.61,7.75 -18.61,7.75l-3.87 216.28z"/>
   <path class="fil7" d="M216.13 956.03c3.53,-3.93 6.35,-6.36 7.52,-5.97 4.65,1.56 9.3,1.56 11.63,-2.32 2.33,-3.88 6.2,-7.76 4.65,-14.73 -1.55,-6.98 13.95,-37.21 13.95,-37.21 0,0 16.28,1.55 17.83,-3.87 1.56,-5.42 5.43,-41.87 4.66,-55.04 -0.78,-13.17 -17.83,-34.1 -20.93,-48.06 -3.1,-13.95 -24.03,-64.34 -15.51,-124.81 8.53,-60.46 0.77,-74.42 0.77,-112.4 0,-37.99 15.51,-86.82 31.01,-118.6 15.51,-31.78 34.11,-61.24 34.89,-67.44 0.78,-6.21 5.42,-39.54 11.63,-45.74 6.2,-6.2 25.58,-38.76 33.33,-38.76 7.75,0 6.97,9.3 2.32,14.73 -4.65,5.42 -17.05,17.05 -12.4,17.83 4.65,0.77 13.18,-3.1 20.15,-13.18 6.98,-10.07 14.73,0.77 10.08,5.43 -4.65,4.65 0.36,5.13 0.36,10.38 0,5.25 -0.19,5.25 -0.19,5.25 0,0 3.3,0.97 2.34,6.99 -0.98,6.03 -6.02,10.11 -6.02,10.11 0,0 4.66,2.53 2.52,7 -2.13,4.47 -13,17.89 -13,17.89 0,0 -9.25,-2.21 -16.62,5.54 -7.36,7.75 -12.4,12.4 -12.4,12.4 0,0 9.69,2.33 19.38,3.49 9.68,1.16 18.6,-0.39 21.7,12.01 3.11,12.4 8.92,33.33 18.61,36.82 9.69,3.49 56.97,44.18 80.23,65.11 23.25,20.93 34.88,36.43 36.43,43.41 1.56,6.98 -2.32,68.99 -6.97,85.27 -4.66,16.27 -21.71,68.99 -25.58,80.62 -3.88,11.63 -16.28,9.31 -12.41,24.8 3.88,15.51 0,70.55 -8.52,95.35 -8.53,24.8 -9.31,32.56 -4.65,47.28 2.9,9.17 15.41,48.98 26.49,87.64 -35.99,21.38 -78.02,33.65 -122.91,33.65 -49.74,0 -95.96,-15.08 -134.36,-40.9zm178.84 -292.02l28.68 -31c0,0 10.85,-44.19 15.5,-48.84 4.65,-4.65 7.75,-7.75 7.75,-7.75l-2.32 -13.96c0,0 -49.61,-50.39 -56.59,-68.99 -6.98,-18.6 -11.63,-21.7 -21.7,-27.13 -10.08,-5.43 -19.38,-13.95 -24.81,-17.83 -5.43,-3.88 -8.14,-8.91 -8.92,-11.23 -0.77,-2.33 5.82,-5.05 5.82,-5.05 0,0 -7.36,0 -10.07,-1.55 -2.72,-1.56 -5.43,-12.02 -3.11,-12.79 2.33,-0.77 5.82,-1.16 5.82,-1.16l-10.08 -1.94c0,0 -18.61,72.09 -19.77,81.01 -1.16,8.91 1.94,13.18 1.94,13.18 0,0 3.49,3.88 6.2,5.43 2.71,1.55 30.62,1.94 43.03,1.94 12.4,0 21.7,1.16 23.25,6.2 1.55,5.04 6.05,7.93 6.05,7.93 0,0 9.06,-0.18 12.55,6.02 3.48,6.2 8.14,2.71 8.53,12.4 0.39,9.68 3.1,27.91 0,46.5 -3.1,18.61 -12.02,25.59 -12.02,35.27 0,9.69 -5.04,13.57 4.27,33.33zm-79.08 -20.92c-13.18,-5.43 -16.28,-13.19 -16.28,-21.71 0,-8.53 1.56,-75.2 1.56,-75.2 0,0 12.4,0 13.18,7.75 0.77,7.75 -6.98,50.39 -3.1,57.37 3.87,6.97 11.62,10.85 11.62,10.85 0,0 2.32,24.81 -6.98,20.94z"/>
   <path class="fil5" d="M384.11 198.9c5.82,-17.06 14.34,-13.56 12.02,-22.86 -2.33,-9.3 -16.67,-41.09 -40.69,-56.2 -24.04,-15.12 -37.99,-15.12 -42.64,-22.87 -4.65,-7.75 -5.04,-12.02 -5.04,-12.02 0,0 -6.2,20.16 -1.94,26.36 4.27,6.2 4.27,6.2 4.27,6.2 0,0 -11.63,1.93 -35.28,-8.53 -23.64,-10.46 -38.37,-22.87 -38.37,-22.87 0,0 -4.26,23.65 0.77,39.15 5.04,15.5 17.84,34.49 29.85,43.02 12.02,8.53 24.41,11.24 24.41,11.24l1.56 13.18c0,0 -10.85,0 -16.66,-5.42 -5.82,-5.43 -5.82,-5.43 -5.82,-5.43 0,0 1.55,8.92 7.75,15.51 6.2,6.59 16.67,15.59 16.67,15.59l88.36 0.58c0,0 -1.93,-8.42 0.78,-14.62z"/>
   <path class="fil8" d="M327.53 567.51c15.11,-4.27 25.58,0.77 25.58,0.77 0,0 0,15.12 0.39,17.83 0.39,2.71 12.4,1.55 13.18,3.88 0.78,2.32 -9.69,3.88 -14.33,3.1 -4.66,-0.78 -1.56,-16.37 -3.7,-15.4 -2.13,0.97 -14.07,2.33 -16.88,0.4 -2.82,-1.94 -4.23,-10.57 -4.23,-10.57z"/>
   <path class="fil8" d="M366.88 566.71c0.1,5.54 -0.1,9.91 0.88,11.76 0.96,1.85 13.48,1.45 17.07,1.17 3.59,-0.29 5.43,-11.67 5.43,-11.67 0,0 -9.21,-2.83 -23.38,-1.26z"/>
   <path class="fil8" d="M321.81 646.23c0,0 12.03,8.75 22.51,9.53 10.49,0.78 13.98,-4.08 15.72,-7.97 1.75,-3.89 7.96,-5.83 14.95,-6.8 6.98,-0.97 11.25,-13.42 11.25,-14.59 0,-1.17 -2.33,3.5 -17.07,3.7 -14.75,0.19 -30.27,-3.89 -35.13,-7.2 -4.86,-3.3 -5.05,-15.94 -3.49,-20.41 1.56,-4.48 0.39,-5.83 -1.17,-9.14 -1.55,-3.31 -0.14,-24.11 -0.14,-24.11 0,0 -0.88,-14 0,-15.85 0.87,-1.84 7.12,-12.54 12.56,-14.29 5.43,-1.75 21.35,-2.33 21.35,-2.33l7.95 0.78c0,0 -1.94,-7 -8.73,-7 -6.8,0 -21.55,1.56 -30.27,3.11 -8.74,1.56 -32.8,-3.69 -32.8,-3.69l-6.4 -5.06c0,0 7.37,11.28 12.03,14.78 4.66,3.5 6.79,8.04 8.83,12.09 2.04,4.05 -3.05,40.57 -3.05,40.57 0,0 -1.28,11.52 -0.37,15.25 0.91,3.72 6.02,10.29 8.36,11.9 2.33,1.61 4.18,2.68 4.18,2.68l-0.9 16.82 -0.16 7.27z"/>
   <path class="fil8" d="M289.93 701.23c5.42,17.44 0.38,29.06 12.4,33.32 12.02,4.27 56.2,-0.39 66.28,0 10.08,0.39 5.81,-11.63 11.24,-9.68 5.42,1.93 5.81,12.78 13.56,14.72 7.75,1.94 47.28,8.14 47.28,8.14l6.59 -12.78c0,0 -24.03,-11.63 -37.6,-11.63 -13.57,0 -14.73,-2.71 -14.73,-2.71 0,0 -4.27,-13.18 -15.51,-10.86 -11.24,2.32 -10.07,8.14 -12.4,10.08 -2.32,1.94 -53.49,5.05 -58.53,3.88 -5.04,-1.16 -18.6,-22.48 -18.6,-22.48z"/>
   <path class="fil8" d="M258.92 653.16c-0.77,14.72 -3.49,18.6 5.42,18.99 8.92,0.39 21.32,-4.65 21.32,-4.65 0,0 -5.64,-5.01 -13.87,-4.83 -8.23,0.19 -12.87,-9.5 -12.87,-9.5z"/>
   <path class="fil8" d="M327.53 751.23c2.32,12.02 2.32,22.48 7.37,24.02 5.04,1.56 12.4,-13.18 20.54,-15.12 8.13,-1.93 47.28,-1.16 55.42,2.33 8.14,3.49 15.12,15.89 20.16,18.21 5.04,2.33 8.91,-5.04 5.04,-9.69 -3.88,-4.65 -17.06,-19.38 -53.88,-17.83 -36.82,1.55 -41.09,8.91 -43.8,11.24 -2.72,2.32 -10.85,-13.17 -10.85,-13.17z"/>
   <path class="fil8" d="M216.13 956.03c3.53,-3.93 6.35,-6.36 7.52,-5.97 4.65,1.56 9.3,1.56 11.63,-2.32 2.33,-3.88 6.2,-7.76 4.65,-14.73 -1.55,-6.98 13.95,-37.21 13.95,-37.21 0,0 16.28,1.55 17.83,-3.87 1.56,-5.42 5.43,-41.87 4.66,-55.04 -0.78,-13.17 -17.83,-34.1 -20.93,-48.06 -2.19,-9.89 -13.35,-38.07 -16.63,-75.16 3.88,-2.26 7.41,-3.47 10.04,-2.74 11.24,3.1 22.48,-0.39 26.35,-10.46 3.88,-10.08 6.2,-17.06 7.37,-12.79 1.16,4.26 18.21,46.51 15.5,55.42 -2.71,8.91 -26.35,8.14 -19.37,23.25 6.98,15.12 14.34,22.09 20.93,24.81 6.59,2.72 36.05,20.15 33.33,50.78 -2.71,30.62 -10.08,63.95 -10.08,63.95 0,0 20.18,-87.06 24.03,-125.2 2.71,14.35 -21.32,134.11 -21.32,134.11l58.14 11.24 40.7 -130.62c0,0 -29.07,120.15 -30.23,127.52 -1.16,7.37 -3.1,0.39 -2.71,18.99 0.25,12.04 1.15,32.33 4.48,50.73 -14.73,2.81 -29.93,4.28 -45.47,4.28 -49.74,0 -95.96,-15.08 -134.36,-40.9z"/>
   <path class="fil8" d="M423.9 632.03l14.87 28.88c0,0 -1.16,-38.76 6.58,-56.2 7.76,-17.44 14.73,-24.8 14.73,-24.8 0,0 10.08,-12.79 5.43,-20.94 -4.66,-8.14 -3.49,-5.04 -21.71,-29.06 -18.22,-24.04 -16.28,-26.75 -22.1,-38.38 -5.81,-11.63 -8.53,-18.22 -27.51,-29.07 -18.99,-10.85 -31.48,-19.26 -57.98,-18.93 1.35,1.68 3.09,3.43 5.27,4.98 5.42,3.88 14.72,12.4 24.81,17.83 10.07,5.43 14.72,8.53 21.7,27.13 6.98,18.61 56.59,68.99 56.59,68.99l2.32 13.96c0,0 -3.1,3.1 -7.75,7.75 -4.24,4.24 -13.63,41.34 -15.26,47.86z"/>
   <path class="fil8" d="M349.25 602.43l0.97 5.84 17.66 0.19 0.39 -6.03c0,0 -9.71,-3.3 -19.02,0z"/>
   <path class="fil8" d="M355.46 609.62c0.02,-1.29 0.78,6.04 0.78,6.04l7.96 -0.39 0.07 -6.85 -8.81 1.2z"/>
   <path class="fil9" d="M362.24 541.44c12.82,0.45 21.14,1.12 24.29,2.92 3.15,1.81 1.12,11.5 -7.2,12.62 -8.32,1.13 -14.39,0.9 -16.42,-2.03 -2.03,-2.93 -0.67,-13.52 -0.67,-13.52z"/>
   <path class="fil9" d="M382.25 689.68c1.35,9.91 12.14,11.27 16.64,18.03 4.49,6.76 26.52,11.26 30.57,6.76 4.06,-4.51 -4.05,-18.03 -9.44,-20.28 -5.4,-2.26 -34.63,-12.61 -37.77,-4.51z"/>
   <path class="fil9" d="M287.03 407.72c10.47,-20.3 20.13,-41.12 26.42,-40.67 6.3,0.45 13.33,-1.7 7.79,6.53 -5.54,8.23 -28.03,52.5 -30.28,57 -2.24,4.51 -12.03,-9.35 -3.93,-22.86z"/>
   <path class="fil9" d="M347.8 389.82c8.55,2.94 14.85,1.01 16.31,5.18 1.46,4.17 4.83,8.35 -1.02,6.99 -5.84,-1.36 -15.4,-8.56 -18.44,-10.03 -3.03,-1.46 3.14,-2.14 3.14,-2.14z"/>
   <path class="fil10" d="M322.44 387.78c-0.67,4.73 2.7,6.08 8.99,6.98 6.3,0.9 14.62,4.51 14.62,4.51 0,0 -23.23,-2.67 -25.26,-4.47 -2.02,-1.8 -0.28,-8.39 1.65,-7.02z"/>
   <path class="fil10" d="M318.24 405.03c-0.9,6.19 -0.32,7.52 3.71,9.12 4.03,1.61 20.02,3.94 20.02,3.94 0,0 -17.65,-6.09 -19.45,-7.43 -1.8,-1.35 -2.13,-7.09 -2.13,-7.09 0,0 -2.81,-1.36 -2.14,1.46z"/>
   <path class="fil11" d="M357.51 179.61c2.25,-34.25 -18.43,-47.76 -29.68,-54.52 -11.24,-6.76 -11.24,-6.76 -11.24,-6.76 0,0 38.85,39.41 40.92,61.28z"/>
   <polygon class="fil5" points="187.92,617.61 216.8,643.98 227.9,604.69 "/>
   <polygon class="fil5" points="507.65,906.21 478.76,879.85 467.67,919.13 "/>
  </g>
 </g>
</svg>
