<?xml version="1.0" encoding="UTF-8"?>
<!DOCTYPE svg PUBLIC "-//W3C//DTD SVG 1.1//EN" "http://www.w3.org/Graphics/SVG/1.1/DTD/svg11.dtd">
<!-- Creator: CorelDRAW 2020 (64-Bit Оценочная версия) -->
<svg xmlns="http://www.w3.org/2000/svg" xml:space="preserve" width="20.4794mm" height="39.2177mm" version="1.1" style="shape-rendering:geometricPrecision; text-rendering:geometricPrecision; image-rendering:optimizeQuality; fill-rule:evenodd; clip-rule:evenodd"
viewBox="0 0 294.53 564.01"
 xmlns:xlink="http://www.w3.org/1999/xlink"
 xmlns:xodm="http://www.corel.com/coreldraw/odm/2003">
 <defs>
  <style type="text/css">
   <![CDATA[
    .str0 {stroke:#FCFCFC;stroke-width:2.88;stroke-miterlimit:22.9256}
    .fil3 {fill:none}
    .fil8 {fill:#EBECEC}
    .fil6 {fill:#D9DADA}
    .fil7 {fill:#9D9E9E}
    .fil9 {fill:#5B5B5B}
    .fil10 {fill:#FFF383}
    .fil4 {fill:#FECC00}
    .fil0 {fill:#FCFCFC}
    .fil5 {fill:#DA9F24}
    .fil2 {fill:#523630}
    .fil1 {fill:#523630;fill-rule:nonzero}
   ]]>
  </style>
 </defs>
 <g id="Слой_x0020_1">
  <metadata id="CorelCorpID_0Corel-Layer"/>
  <path class="fil0" d="M166.39 149.8c70.54,9.92 124.82,70.54 124.82,143.8 0,80.19 -65.03,145.23 -145.23,145.23 -80.19,0 -145.23,-65.03 -145.23,-145.23 0,-66.67 44.95,-122.87 106.2,-139.92 4.09,-7.13 7.57,-11.18 7.57,-11.18l2.23 0.05c5.08,-9.44 9.62,-17.04 9.87,-19.04 0.34,-2.69 2.35,-17.11 5.03,-19.79 0.7,-0.7 1.8,-2.19 3.1,-4.01l-0.75 -21.15c0,0 -10.73,-1.68 -13.08,-9.06 -1.44,-4.53 -1.75,-5.77 -1.77,-6.06l-4.27 -0.98 0.67 -5.03 6.04 0.04c0,0 -4.53,-3.89 -7.21,-6.75 -2.68,-2.85 -3.35,-6.71 -3.35,-6.71l2.52 2.35c2.51,2.35 7.21,2.35 7.21,2.35l-0.67 -5.7c0,0 -5.36,-1.18 -10.56,-4.87 -5.2,-3.69 -10.73,-11.91 -12.91,-18.61 -2.18,-6.71 -0.33,-16.94 -0.33,-16.94 0,0 6.37,5.37 16.6,9.89 10.23,4.53 15.26,3.69 15.26,3.69l-1.85 -2.68c-1.85,-2.68 0.84,-11.41 0.84,-11.41 0,0 0.17,1.85 2.18,5.2 2.01,3.35 8.05,3.35 18.45,9.9 10.39,6.54 16.6,20.29 17.61,24.32 1.01,4.03 -2.68,2.51 -5.2,9.89 -1.17,2.68 -0.34,6.33 -0.34,6.33l7.38 0.05 -0.67 6.71 -4.36 0.33c0,0 0,8.05 -6.04,12.08 -6.04,4.02 -8.05,3.35 -8.05,3.35l-0.13 7.4c0.95,1 0.79,2.9 -0.08,4.52l-0.11 6.25c0.91,-0.82 1.82,-1.84 2.67,-3.08 3.02,-4.36 6.37,0.34 4.36,2.35 -2.01,2.01 0.16,2.22 0.16,4.49 0,2.27 -0.08,2.27 -0.08,2.27 0,0 1.43,0.42 1.01,3.03 -0.42,2.61 -2.61,4.38 -2.61,4.38 0,0 2.01,1.09 1.09,3.03 -0.92,1.94 -5.63,7.74 -5.63,7.74 0,0 -0.55,-0.13 -1.41,-0.13l-0.17 9.63c3.12,0.26 5.74,0.74 6.8,4.97 0.36,1.43 0.8,3.13 1.34,4.88 2.51,1.3 4.32,2.32 4.32,2.32 0,0 2.65,2.15 6.77,5.5z"/>
  <g id="_2442958864784">
   <polygon class="fil0" points="209.34,450.63 294.53,450.63 294.53,542.94 175.51,542.94 175.51,490.99 175.4,490.99 175.4,542.94 4.57,542.94 4.57,450.63 46.26,450.63 46.26,504.27 83.09,504.27 83.09,450.63 123.58,450.63 123.58,504.27 135.04,504.27 135.04,450.63 175.4,450.63 175.4,457.07 177.87,450.63 "/>
  </g>
  <path class="fil1" d="M40.51 511.83l42.89 0 0 23.56 -71.28 0 0 -77.2 26.58 0 0 66.33 1.81 -12.69zm62.94 0l51.95 0 -12.81 -1.81 0 -51.83 25.25 0 0 77.2 -77.2 0 0 -77.2 25.37 0 0 51.83 -12.56 1.81zm79.61 -26.34l14.26 -2.05 -16.07 0 -7.85 0 9.66 -25.25 26.58 0 0 77.2 -26.58 0 0 -49.9zm76.72 25.73l1.81 11.23 0 -16.07 -38.66 0 0 -19.45 38.66 0 0 -16.79 -1.81 12.08 -42.89 0 0 -24.04 70.07 0 0 36.48 -7.25 1.93 7.25 2.05 0 36.73 -70.07 0 0 -24.16 42.89 0z"/>
  <g id="_2442958865120">
   <path class="fil0" d="M269.43 540.63l24.58 0 0 22.3 -140.29 0c-1.92,-0.01 -1.65,0.06 -3.42,-0.54 -1.26,0.51 -1.56,0.53 -3.25,0.54l-16.05 0c-1.96,-0.01 -1.63,0.06 -3.55,-0.58 -1.27,-0.43 -1.48,-0.46 -2.07,-0.87l0 1.45 -61.34 0 0 1.08 -26.69 0 0 -1.08 -0.37 0c-1.96,-0.01 -1.63,0.06 -3.55,-0.58 -1.27,-0.43 -1.48,-0.46 -2.07,-0.87l0 1.45 -26.75 0 0 -22.3 25.93 0c1.64,0.01 1.97,0.03 3.13,0.5 1.69,-0.55 1.4,-0.49 3.32,-0.5l3.66 0c1.96,0.01 1.6,-0.05 3.46,0.55 1,0.33 1.35,0.42 1.73,0.63 0.3,-0.15 0.67,-0.29 1.23,-0.51 1.63,-0.64 1.77,-0.66 3.53,-0.67l73.97 0c1.64,0.01 1.97,0.03 3.13,0.5 1.69,-0.55 1.4,-0.49 3.32,-0.5l15.78 0c1.64,0.01 1.89,0.03 3.32,0.6 0.05,-0.02 0.11,-0.04 0.17,-0.05 1.85,-0.59 1.48,-0.53 3.46,-0.54l5.77 0 1.03 -3.64 5.99 2.95 6.01 -3.01 1.04 3.69 5.01 0 0 -0.08 27.4 0 0 0.08 29.01 0 0 -0.08 27.4 0 0 0.08 7.04 0z"/>
  </g>
  <path class="fil1" d="M21.64 555.37l0 -7.19 -9.47 0 0 7.19 1.1 0 0 -6.08 7.26 0 0 6.08 1.1 0zm11.12 -4.96c-0,-0.31 -0.06,-0.6 -0.18,-0.87 -0.12,-0.27 -0.28,-0.51 -0.48,-0.71 -0.2,-0.2 -0.44,-0.36 -0.71,-0.48 -0.27,-0.11 -0.56,-0.17 -0.87,-0.17l-7.82 0 0 7.19 1.1 0 0 -2.72 6.72 0c0.31,-0 0.6,-0.06 0.87,-0.18 0.27,-0.11 0.51,-0.27 0.71,-0.48 0.21,-0.2 0.37,-0.44 0.48,-0.71 0.12,-0.27 0.17,-0.56 0.18,-0.87zm-1.11 0c-0,0.21 -0.05,0.4 -0.15,0.57 -0.1,0.17 -0.23,0.3 -0.4,0.4 -0.17,0.1 -0.36,0.15 -0.57,0.15l-6.72 0 0 -2.25 6.72 0c0.21,0 0.4,0.05 0.57,0.16 0.17,0.1 0.3,0.23 0.4,0.4 0.1,0.17 0.15,0.36 0.15,0.56zm12.61 1.33c-0,-0.4 -0.06,-0.78 -0.19,-1.14 -0.12,-0.36 -0.29,-0.68 -0.51,-0.98 -0.22,-0.29 -0.48,-0.55 -0.79,-0.77 -0.3,-0.22 -0.63,-0.38 -1,-0.5 -0.36,-0.12 -0.74,-0.18 -1.15,-0.18l-3.63 0c-0.4,0 -0.79,0.06 -1.15,0.18 -0.36,0.12 -0.69,0.28 -1,0.5 -0.3,0.21 -0.56,0.47 -0.78,0.77 -0.22,0.29 -0.39,0.62 -0.51,0.98 -0.12,0.36 -0.18,0.74 -0.18,1.14 0,0.4 0.06,0.79 0.18,1.15 0.12,0.36 0.29,0.69 0.51,1 0.22,0.3 0.48,0.56 0.78,0.78 0.3,0.22 0.63,0.39 1,0.51 0.36,0.12 0.75,0.18 1.15,0.18l3.63 0c0.4,-0 0.78,-0.06 1.15,-0.18 0.36,-0.12 0.69,-0.29 1,-0.51 0.3,-0.22 0.56,-0.48 0.79,-0.78 0.22,-0.3 0.39,-0.63 0.51,-1 0.12,-0.36 0.18,-0.75 0.19,-1.15zm-1.11 0c-0,0.35 -0.07,0.68 -0.2,0.98 -0.13,0.3 -0.31,0.57 -0.54,0.8 -0.23,0.23 -0.5,0.41 -0.8,0.54 -0.3,0.13 -0.63,0.2 -0.98,0.2l-3.63 0c-0.35,-0 -0.67,-0.07 -0.98,-0.2 -0.3,-0.13 -0.57,-0.31 -0.8,-0.54 -0.23,-0.23 -0.41,-0.5 -0.54,-0.8 -0.13,-0.3 -0.2,-0.63 -0.2,-0.98 0,-0.35 0.07,-0.67 0.2,-0.97 0.13,-0.3 0.31,-0.56 0.54,-0.78 0.23,-0.22 0.5,-0.4 0.8,-0.52 0.3,-0.13 0.63,-0.19 0.98,-0.19l3.63 0c0.35,0 0.67,0.06 0.98,0.19 0.3,0.13 0.57,0.3 0.8,0.52 0.23,0.22 0.41,0.48 0.54,0.78 0.13,0.3 0.2,0.62 0.2,0.97zm13.34 4.71l0 -2.19 -0.92 0 0 -6.08 -4.96 0c-0.28,0 -0.55,0.05 -0.79,0.15 -0.25,0.1 -0.47,0.23 -0.67,0.4 -0.2,0.17 -0.37,0.37 -0.5,0.6l-2.83 4.93 -0.91 0 0 2.19 1.08 0 0 -1.08 9.41 0 0 1.08 1.09 0zm-2.02 -7.17l0 4.98 -7.36 0 2.5 -4.36c0.07,-0.12 0.15,-0.22 0.25,-0.31 0.1,-0.09 0.21,-0.17 0.34,-0.22 0.13,-0.05 0.26,-0.08 0.41,-0.08l3.86 0zm13.21 6.08l-1.14 -7.19 -8.23 0 -1.13 7.19 1.12 0 0.18 -1.11 7.82 -0.51 0.27 1.63 1.12 0zm-1.65 -3.28l-7.31 0.49 0.52 -3.29 6.34 0 0.44 2.8zm0.18 1.09l-7.66 0.52 0.09 -0.56 7.49 -0.5 0.09 0.54zm16.02 2.19l-1.9 -3.3c-0.13,-0.23 -0.3,-0.43 -0.5,-0.61 -0.2,-0.17 -0.42,-0.31 -0.67,-0.41 -0.25,-0.1 -0.51,-0.15 -0.79,-0.15l-0.3 0 0.62 -1.01c0.07,-0.11 0.15,-0.21 0.25,-0.31 0.1,-0.09 0.21,-0.17 0.33,-0.22 0.12,-0.05 0.26,-0.08 0.4,-0.08l0.88 0 0 -1.1 -0.88 0c-0.28,0 -0.55,0.05 -0.8,0.15 -0.25,0.1 -0.47,0.24 -0.67,0.41 -0.2,0.17 -0.36,0.38 -0.5,0.6l-0.94 1.56 -0.93 0 0 -2.72 -1.1 0 0 2.72 -0.93 0 -0.94 -1.56c-0.14,-0.22 -0.3,-0.43 -0.5,-0.6 -0.2,-0.17 -0.42,-0.31 -0.67,-0.41 -0.25,-0.1 -0.51,-0.15 -0.8,-0.15l-0.88 0 0 1.1 0.88 0c0.14,0 0.28,0.03 0.4,0.08 0.12,0.05 0.23,0.13 0.33,0.22 0.1,0.09 0.18,0.19 0.25,0.31l0.62 1.01 -0.29 0c-0.28,0 -0.55,0.05 -0.79,0.15 -0.25,0.1 -0.47,0.23 -0.67,0.41 -0.2,0.17 -0.36,0.38 -0.5,0.61l-1.9 3.3 1.29 0 1.58 -2.74c0.07,-0.12 0.15,-0.22 0.25,-0.31 0.1,-0.09 0.21,-0.17 0.34,-0.22 0.13,-0.05 0.26,-0.08 0.41,-0.08l2.51 0 0 3.36 1.1 0 0 -3.36 2.52 0c0.15,0 0.28,0.03 0.41,0.08 0.13,0.06 0.24,0.13 0.34,0.22 0.1,0.09 0.18,0.2 0.25,0.31l1.58 2.74 1.29 0zm11.19 0l-1.14 -7.19 -8.23 0 -1.13 7.19 1.12 0 0.18 -1.11 7.82 -0.51 0.27 1.63 1.12 0zm-1.65 -3.28l-7.31 0.49 0.52 -3.29 6.34 0 0.44 2.8zm0.18 1.09l-7.66 0.52 0.09 -0.56 7.49 -0.5 0.09 0.54zm14.21 2.19l0 -7.19 -1.1 0 -7.26 5.73 0 -5.73 -1.1 0 0 7.19 1.1 0 7.26 -5.73 0 5.73 1.1 0zm9.98 -6.08l0 -1.1 -8.92 0 0 7.19 1.1 0 0 -6.08 7.81 0zm10.64 1.12c-0,-0.31 -0.06,-0.6 -0.18,-0.87 -0.12,-0.27 -0.28,-0.51 -0.48,-0.71 -0.2,-0.2 -0.44,-0.36 -0.71,-0.48 -0.27,-0.11 -0.56,-0.17 -0.87,-0.17l-7.82 0 0 7.19 1.1 0 0 -2.72 6.72 0c0.31,-0 0.6,-0.06 0.87,-0.18 0.27,-0.11 0.51,-0.27 0.71,-0.48 0.21,-0.2 0.37,-0.44 0.48,-0.71 0.12,-0.27 0.17,-0.56 0.18,-0.87zm-1.11 0c-0,0.21 -0.05,0.4 -0.15,0.57 -0.1,0.17 -0.23,0.3 -0.4,0.4 -0.17,0.1 -0.36,0.15 -0.57,0.15l-6.72 0 0 -2.25 6.72 0c0.21,0 0.4,0.05 0.57,0.16 0.17,0.1 0.3,0.23 0.4,0.4 0.1,0.17 0.15,0.36 0.15,0.56zm12.61 1.33c-0,-0.4 -0.06,-0.78 -0.19,-1.14 -0.12,-0.36 -0.29,-0.68 -0.51,-0.98 -0.22,-0.29 -0.48,-0.55 -0.79,-0.77 -0.3,-0.22 -0.63,-0.38 -1,-0.5 -0.36,-0.12 -0.74,-0.18 -1.15,-0.18l-3.63 0c-0.4,0 -0.79,0.06 -1.15,0.18 -0.36,0.12 -0.69,0.28 -1,0.5 -0.3,0.21 -0.56,0.47 -0.78,0.77 -0.22,0.29 -0.39,0.62 -0.51,0.98 -0.12,0.36 -0.18,0.74 -0.18,1.14 0,0.4 0.06,0.79 0.18,1.15 0.12,0.36 0.29,0.69 0.51,1 0.22,0.3 0.48,0.56 0.78,0.78 0.3,0.22 0.63,0.39 1,0.51 0.36,0.12 0.75,0.18 1.15,0.18l3.63 0c0.4,-0 0.78,-0.06 1.15,-0.18 0.36,-0.12 0.69,-0.29 1,-0.51 0.3,-0.22 0.56,-0.48 0.79,-0.78 0.22,-0.3 0.39,-0.63 0.51,-1 0.12,-0.36 0.18,-0.75 0.19,-1.15zm-1.11 0c-0,0.35 -0.07,0.68 -0.2,0.98 -0.13,0.3 -0.31,0.57 -0.54,0.8 -0.23,0.23 -0.5,0.41 -0.8,0.54 -0.3,0.13 -0.63,0.2 -0.98,0.2l-3.63 0c-0.35,-0 -0.67,-0.07 -0.98,-0.2 -0.3,-0.13 -0.57,-0.31 -0.8,-0.54 -0.23,-0.23 -0.41,-0.5 -0.54,-0.8 -0.13,-0.3 -0.2,-0.63 -0.2,-0.98 0,-0.35 0.07,-0.67 0.2,-0.97 0.13,-0.3 0.31,-0.56 0.54,-0.78 0.23,-0.22 0.5,-0.4 0.8,-0.52 0.3,-0.13 0.63,-0.19 0.98,-0.19l3.63 0c0.35,0 0.67,0.06 0.98,0.19 0.3,0.13 0.57,0.3 0.8,0.52 0.23,0.22 0.41,0.48 0.54,0.78 0.13,0.3 0.2,0.62 0.2,0.97zm12.12 1.4c-0,-0.26 -0.04,-0.51 -0.12,-0.74 -0.08,-0.23 -0.2,-0.44 -0.35,-0.63 -0.15,-0.19 -0.33,-0.35 -0.53,-0.49 0.14,-0.17 0.24,-0.36 0.31,-0.56 0.07,-0.2 0.11,-0.42 0.11,-0.65 -0,-0.27 -0.05,-0.52 -0.16,-0.75 -0.1,-0.23 -0.24,-0.43 -0.42,-0.6 -0.18,-0.17 -0.39,-0.3 -0.62,-0.4 -0.23,-0.09 -0.49,-0.14 -0.76,-0.14l-7.53 0 0 7.19 7.82 0c0.31,-0 0.6,-0.06 0.87,-0.17 0.27,-0.12 0.51,-0.27 0.71,-0.48 0.21,-0.2 0.37,-0.44 0.48,-0.71 0.12,-0.27 0.17,-0.56 0.18,-0.87zm-1.69 -3.09c-0,0.15 -0.04,0.29 -0.11,0.42 -0.07,0.13 -0.17,0.23 -0.28,0.31 -0.12,0.08 -0.24,0.12 -0.38,0.12l-6.5 0 0 -1.62 6.43 0c0.15,0 0.29,0.03 0.42,0.09 0.13,0.06 0.23,0.15 0.3,0.27 0.07,0.11 0.12,0.25 0.12,0.41zm0.56 3.09c-0,0.21 -0.05,0.4 -0.15,0.56 -0.1,0.17 -0.23,0.3 -0.4,0.4 -0.17,0.1 -0.35,0.15 -0.56,0.16l-6.72 0 0 -2.25 6.72 0c0.21,0 0.39,0.05 0.56,0.15 0.17,0.1 0.3,0.23 0.4,0.4 0.1,0.17 0.15,0.36 0.15,0.57zm12.84 -1.4c-0,-0.4 -0.06,-0.78 -0.19,-1.14 -0.12,-0.36 -0.29,-0.68 -0.51,-0.98 -0.22,-0.29 -0.48,-0.55 -0.79,-0.77 -0.3,-0.22 -0.63,-0.38 -1,-0.5 -0.36,-0.12 -0.74,-0.18 -1.15,-0.18l-3.63 0c-0.4,0 -0.79,0.06 -1.15,0.18 -0.36,0.12 -0.69,0.28 -1,0.5 -0.3,0.21 -0.56,0.47 -0.78,0.77 -0.22,0.29 -0.39,0.62 -0.51,0.98 -0.12,0.36 -0.18,0.74 -0.18,1.14 0,0.4 0.06,0.79 0.18,1.15 0.12,0.36 0.29,0.69 0.51,1 0.22,0.3 0.48,0.56 0.78,0.78 0.3,0.22 0.63,0.39 1,0.51 0.36,0.12 0.75,0.18 1.15,0.18l3.63 0c0.4,-0 0.78,-0.06 1.15,-0.18 0.36,-0.12 0.69,-0.29 1,-0.51 0.3,-0.22 0.56,-0.48 0.79,-0.78 0.22,-0.3 0.39,-0.63 0.51,-1 0.12,-0.36 0.18,-0.75 0.19,-1.15zm-1.11 0c-0,0.35 -0.07,0.68 -0.2,0.98 -0.13,0.3 -0.31,0.57 -0.54,0.8 -0.23,0.23 -0.5,0.41 -0.8,0.54 -0.3,0.13 -0.63,0.2 -0.98,0.2l-3.63 0c-0.35,-0 -0.67,-0.07 -0.98,-0.2 -0.3,-0.13 -0.57,-0.31 -0.8,-0.54 -0.23,-0.23 -0.41,-0.5 -0.54,-0.8 -0.13,-0.3 -0.2,-0.63 -0.2,-0.98 0,-0.35 0.07,-0.67 0.2,-0.97 0.13,-0.3 0.31,-0.56 0.54,-0.78 0.23,-0.22 0.5,-0.4 0.8,-0.52 0.3,-0.13 0.63,-0.19 0.98,-0.19l3.63 0c0.35,0 0.67,0.06 0.98,0.19 0.3,0.13 0.57,0.3 0.8,0.52 0.23,0.22 0.41,0.48 0.54,0.78 0.13,0.3 0.2,0.62 0.2,0.97zm8.12 -3.06l-0.26 -0.91c-0.19,0.09 -0.38,0.16 -0.59,0.2 -0.2,0.04 -0.41,0.06 -0.62,0.06 -0.21,0 -0.41,-0.02 -0.62,-0.06 -0.2,-0.04 -0.4,-0.11 -0.59,-0.2l-0.26 0.91c0.22,0.09 0.45,0.16 0.68,0.2 0.24,0.05 0.47,0.07 0.71,0.07l0.14 0c0.24,0 0.47,-0.02 0.71,-0.07 0.23,-0.05 0.46,-0.12 0.68,-0.2l-0.01 0zm3.42 6.69l0 -7.19 -1.1 0 -7.26 5.73 0 -5.73 -1.1 0 0 7.19 1.1 0 7.26 -5.73 0 5.73 1.1 0zm13.75 0l-1.14 -7.19 -8.23 0 -1.13 7.19 1.12 0 0.18 -1.11 7.82 -0.51 0.27 1.63 1.12 0zm-1.65 -3.28l-7.31 0.49 0.52 -3.29 6.34 0 0.44 2.8zm0.18 1.09l-7.66 0.52 0.09 -0.56 7.49 -0.5 0.09 0.54zm14.73 2.19l0 -7.27 -12.29 0 0 7.27 1.11 0 0 -6.14 4.47 0 0 6.14 1.11 0 0 -6.14 4.48 0 0 6.14 1.11 0zm11.12 -4.96c-0,-0.31 -0.06,-0.6 -0.18,-0.87 -0.12,-0.27 -0.28,-0.51 -0.48,-0.71 -0.2,-0.2 -0.44,-0.36 -0.71,-0.48 -0.27,-0.11 -0.56,-0.17 -0.87,-0.17l-7.82 0 0 7.19 1.1 0 0 -2.72 6.72 0c0.31,-0 0.6,-0.06 0.87,-0.18 0.27,-0.11 0.51,-0.27 0.71,-0.48 0.21,-0.2 0.37,-0.44 0.48,-0.71 0.12,-0.27 0.17,-0.56 0.18,-0.87zm-1.11 0c-0,0.21 -0.05,0.4 -0.15,0.57 -0.1,0.17 -0.23,0.3 -0.4,0.4 -0.17,0.1 -0.36,0.15 -0.57,0.15l-6.72 0 0 -2.25 6.72 0c0.21,0 0.4,0.05 0.57,0.16 0.17,0.1 0.3,0.23 0.4,0.4 0.1,0.17 0.15,0.36 0.15,0.56zm11.31 4.96l0 -7.19 -1.1 0 -7.26 5.73 0 -5.73 -1.1 0 0 7.19 1.1 0 7.26 -5.73 0 5.73 1.1 0zm11.11 -2.24c-0,-0.31 -0.06,-0.6 -0.18,-0.87 -0.12,-0.27 -0.27,-0.5 -0.48,-0.71 -0.2,-0.2 -0.44,-0.36 -0.71,-0.48 -0.27,-0.11 -0.56,-0.17 -0.87,-0.17l-6.72 0 0 -1.62 8.39 0 0 -1.1 -9.5 0 0 7.19 7.82 0c0.31,-0 0.6,-0.06 0.87,-0.18 0.27,-0.12 0.51,-0.28 0.71,-0.48 0.2,-0.2 0.36,-0.44 0.48,-0.71 0.11,-0.27 0.17,-0.56 0.18,-0.87zm-1.11 0c-0,0.21 -0.05,0.4 -0.15,0.57 -0.1,0.17 -0.23,0.31 -0.4,0.41 -0.17,0.1 -0.35,0.16 -0.56,0.16l-6.72 0 0 -2.26 6.72 0c0.21,0 0.39,0.05 0.56,0.15 0.17,0.1 0.3,0.23 0.4,0.4 0.1,0.17 0.15,0.36 0.15,0.57zm12.17 -4.95l-1.29 0 -2.19 3.83 -2.94 0c-0.14,-0 -0.27,-0.03 -0.39,-0.08 -0.12,-0.05 -0.24,-0.13 -0.34,-0.22 -0.1,-0.09 -0.19,-0.2 -0.26,-0.32l-1.84 -3.21 -1.29 0 2.16 3.77c0.14,0.23 0.31,0.44 0.51,0.61 0.2,0.17 0.43,0.31 0.68,0.4 0.25,0.09 0.51,0.15 0.79,0.15l2.29 0 -0.3 0.53c-0.07,0.12 -0.16,0.23 -0.26,0.32 -0.1,0.09 -0.21,0.17 -0.34,0.22 -0.13,0.05 -0.26,0.08 -0.4,0.08l-1.15 0 0 1.1 1.15 0c0.27,-0 0.54,-0.05 0.79,-0.15 0.25,-0.09 0.47,-0.23 0.68,-0.4 0.2,-0.17 0.37,-0.38 0.51,-0.61l3.45 -6.03zm12.92 7.19l0 -7.27 -12.29 0 0 7.27 1.11 0 0 -6.14 4.47 0 0 6.14 1.11 0 0 -6.14 4.48 0 0 6.14 1.11 0zm10.53 0l0 -7.19 -1.1 0 -7.26 5.73 0 -5.73 -1.1 0 0 7.19 1.1 0 7.26 -5.73 0 5.73 1.1 0zm10.85 0l-1.9 -3.3c-0.13,-0.23 -0.3,-0.43 -0.5,-0.61 -0.2,-0.17 -0.42,-0.31 -0.67,-0.41 -0.25,-0.1 -0.51,-0.15 -0.79,-0.15l-0.29 0 0.62 -1.01c0.07,-0.11 0.15,-0.21 0.25,-0.31 0.1,-0.09 0.21,-0.17 0.33,-0.22 0.12,-0.05 0.26,-0.08 0.4,-0.08l0.88 0 0 -1.1 -0.88 0c-0.28,0 -0.55,0.05 -0.8,0.15 -0.25,0.1 -0.47,0.24 -0.67,0.41 -0.2,0.17 -0.36,0.38 -0.5,0.6l-0.94 1.56 -3.23 0 0 -2.72 -1.1 0 0 7.19 1.1 0 0 -3.36 4.81 0c0.15,0 0.28,0.03 0.41,0.08 0.13,0.06 0.24,0.13 0.34,0.22 0.1,0.09 0.18,0.2 0.25,0.31l1.58 2.74 1.29 0zm10.24 0l0 -7.19 -1.1 0 -7.26 5.73 0 -5.73 -1.1 0 0 7.19 1.1 0 7.26 -5.73 0 5.73 1.1 0z"/>
  <path class="fil2" d="M145.23 146.28c80.19,0 145.23,65.03 145.23,145.23 0,80.19 -65.03,145.23 -145.23,145.23 -80.19,0 -145.23,-65.03 -145.23,-145.23 0,-80.19 65.03,-145.23 145.23,-145.23z"/>
  <path class="fil0" d="M93.9 207.06c-4.24,-38.69 19.87,-66.65 19.87,-66.65l22.19 0.52c0,0 -8.47,36.21 -6.12,37.94 2.35,1.74 20.87,2.85 26.79,3.8 5.92,0.95 -3.13,-12.97 -5.8,-14.76 -2.68,-1.79 -2.84,6.18 -2.84,6.18l-12.56 -0.37c0,0 -1.54,-13.3 -1.22,-23.86 0.24,-7.96 2.15,-13.74 3.22,-14.6 2.5,-2 21.43,6.93 21.43,6.93 0,0 41.07,33.32 51.12,42.05 10.04,8.72 7.81,23.93 6.25,35.79 -0.35,2.68 -3.14,32.59 -12.94,32.23 -33.46,-1.24 -109.38,-45.2 -109.38,-45.2z"/>
  <path class="fil0" d="M144.18 189.2c57.62,0 104.35,46.73 104.35,104.35 0,57.62 -46.73,104.35 -104.35,104.35 -57.62,0 -104.35,-46.73 -104.35,-104.35 0,-57.62 46.73,-104.35 104.35,-104.35z"/>
  <path class="fil3 str0" d="M145.23 151.75c77.17,0 139.76,62.58 139.76,139.76 0,77.17 -62.58,139.76 -139.76,139.76 -77.17,0 -139.76,-62.58 -139.76,-139.76 0,-77.17 62.58,-139.76 139.76,-139.76z"/>
  <path class="fil4" d="M209.49 229.38c15.55,16.09 25.13,37.99 25.13,62.13 0,25.18 -10.42,47.92 -27.17,64.17l-6.48 -6.48c15.1,-14.59 24.49,-35.05 24.49,-57.69 0,-21.6 -8.54,-41.21 -22.43,-55.63l6.46 -6.49zm-124.09 128.54c-18.16,-16.36 -29.57,-40.06 -29.57,-66.42 0,-23.32 8.94,-44.56 23.57,-60.47l6.79 6.14c-13.16,14.29 -21.21,33.37 -21.21,54.33 0,23.83 10.4,45.23 26.9,59.93l-6.49 6.49z"/>
  <path class="fil3 str0" d="M112.52 402.45l9.4 1.96 -1.68 17.95 12.48 0.84 1.26 -16.55 11.08 0.28 0.7 16.69 16.21 -1.12 -3.23 -16.48m2.69 15.23l-2.87 -16.23 13.31 -3.65 5 15.94 12.65 -4.26 -5.49 -15.08m-0.21 -0.83l8.61 -4.24 9.73 15.18 10.35 -7.02 -9.19 -13.82 8.9 -6.6 10.83 12.71 9.98 -8.86 -10.95 -11.73m0.77 1l6.27 -7.26 14.88 10.17 6.79 -10.51 -13.86 -9.13 5.61 -9.55 14.93 7.47 5.73 -12.06 -14.66 -6.52m1.08 1.09l2.94 -9.14 17.67 3.55 2.14 -12.33 -16.32 -2.98 1.44 -10.99 16.67 1.05 0.56 -13.34 -16.05 -0.27m-0.2 0.23l-0.87 -9.56 17.66 -3.64 -2.85 -12.18 -16.19 3.63 -2.97 -10.67 15.75 -5.55 -4.7 -12.49 -14.88 6.02m0.08 0.65l-4.53 -8.46 14.83 -10.25 -7.38 -10.1 -13.49 9.67 -6.9 -8.67 12.33 -11.26 -9.21 -9.67 -11.34 11.35m1.48 -0.82l-7.48 -6.01 9.65 -15.23 -10.74 -6.41 -8.64 14.17 -9.74 -5.28 6.95 -15.19 -12.25 -5.3 -6.01 14.88m-0.71 -0.71l-9.23 -2.61 2.93 -17.79 -12.39 -1.71 -2.41 16.42 -11.03 -1.05 0.46 -16.69 -13.35 -0.09 0.29 16.05m0.14 0.74l-9.52 1.2 -4.25 -17.52 -12.08 3.27 4.19 16.06 -10.56 3.34 -6.1 -15.55 -12.32 5.13 6.53 14.66m0.49 -0.24l-8.3 4.83 -10.76 -14.46 -9.84 7.73 10.13 13.14 -8.42 7.2 -11.69 -11.93 -9.34 9.54 11.74 10.94m-0.66 -0.73l-5.75 7.68 -15.56 -9.11 -6.04 10.96 14.46 8.14 -4.94 9.92 -15.42 -6.42 -4.87 12.43 15.08 5.48m-0.23 1.4l-2.29 9.32 -17.88 -2.31 -1.28 12.45 16.49 1.84 -0.67 11.06 -16.7 0.12 0.38 13.34 16.03 -0.84m-1.48 0.08l1.53 9.47 -17.36 4.86 3.69 11.95 15.9 -4.75 3.71 10.44 -15.33 6.64 5.56 12.14 14.42 -7.04m0.3 0.52l5.11 8.12 -14.08 11.26 8.07 9.56 12.78 -10.59 7.49 8.16 -11.52 12.1 9.86 9 10.52 -12.11m0.67 0.64l7.88 5.48 -8.56 15.87 11.16 5.65 7.63 -14.74 10.09 4.59 -5.87 15.64 12.59 4.43 4.96 -15.26"/>
  <path class="fil5" d="M145.66 171.73l-9.06 -0.67 -3.35 -94.58c0,0 -10.73,-1.68 -13.08,-9.06 -2.35,-7.38 -1.68,-6.04 -1.68,-6.04l-4.36 -1 0.67 -5.03 51.66 0.34 -0.67 6.71 -4.36 0.33c0,0 0,8.05 -6.04,12.08 -6.04,4.02 -8.05,3.35 -8.05,3.35l-1.67 93.58z"/>
  <path class="fil6" d="M86.73 376.9c1.53,-1.7 2.75,-2.75 3.25,-2.58 2.01,0.67 4.02,0.67 5.03,-1.01 1.01,-1.68 2.68,-3.36 2.01,-6.38 -0.67,-3.02 6.04,-16.1 6.04,-16.1 0,0 7.05,0.67 7.71,-1.68 0.67,-2.35 2.35,-18.11 2.01,-23.82 -0.34,-5.7 -7.72,-14.76 -9.06,-20.79 -1.34,-6.04 -10.4,-27.84 -6.71,-54 3.69,-26.16 0.34,-32.2 0.34,-48.63 0,-16.44 6.71,-37.56 13.42,-51.32 6.71,-13.75 14.76,-26.5 15.09,-29.18 0.34,-2.69 2.35,-17.11 5.03,-19.79 2.68,-2.68 11.07,-16.77 14.42,-16.77 3.35,0 3.02,4.03 1.01,6.37 -2.01,2.35 -7.38,7.38 -5.37,7.71 2.01,0.33 5.7,-1.34 8.72,-5.7 3.02,-4.36 6.37,0.34 4.36,2.35 -2.01,2.01 0.16,2.22 0.16,4.49 0,2.27 -0.08,2.27 -0.08,2.27 0,0 1.43,0.42 1.01,3.03 -0.42,2.61 -2.61,4.38 -2.61,4.38 0,0 2.01,1.09 1.09,3.03 -0.92,1.94 -5.63,7.74 -5.63,7.74 0,0 -4,-0.95 -7.19,2.4 -3.19,3.35 -5.37,5.37 -5.37,5.37 0,0 4.19,1.01 8.39,1.51 4.19,0.5 8.05,-0.17 9.39,5.2 1.34,5.37 3.86,14.42 8.05,15.93 4.19,1.51 24.65,19.12 34.72,28.17 10.06,9.06 15.09,15.76 15.76,18.78 0.67,3.02 -1,29.85 -3.02,36.9 -2.01,7.04 -9.39,29.85 -11.07,34.88 -1.68,5.03 -7.05,4.03 -5.37,10.73 1.68,6.71 0,30.53 -3.69,41.26 -3.69,10.73 -4.03,14.09 -2.01,20.46 1.25,3.97 6.67,21.19 11.46,37.92 -15.57,9.25 -33.76,14.56 -53.18,14.56 -21.52,0 -41.52,-6.52 -58.13,-17.7zm77.38 -126.35l12.41 -13.41c0,0 4.69,-19.12 6.71,-21.13 2.01,-2.01 3.35,-3.35 3.35,-3.35l-1.01 -6.04c0,0 -21.47,-21.8 -24.49,-29.85 -3.02,-8.05 -5.03,-9.39 -9.39,-11.74 -4.36,-2.35 -8.39,-6.04 -10.73,-7.72 -2.35,-1.68 -3.52,-3.86 -3.86,-4.86 -0.33,-1.01 2.52,-2.18 2.52,-2.18 0,0 -3.19,0 -4.36,-0.67 -1.18,-0.67 -2.35,-5.2 -1.34,-5.54 1.01,-0.33 2.52,-0.5 2.52,-0.5l-4.36 -0.84c0,0 -8.05,31.19 -8.55,35.05 -0.5,3.86 0.84,5.7 0.84,5.7 0,0 1.51,1.68 2.68,2.35 1.17,0.67 13.25,0.84 18.62,0.84 5.36,0 9.39,0.5 10.06,2.68 0.67,2.18 2.62,3.43 2.62,3.43 0,0 3.92,-0.08 5.43,2.61 1.51,2.68 3.52,1.17 3.69,5.37 0.17,4.19 1.34,12.07 0,20.12 -1.34,8.05 -5.2,11.07 -5.2,15.26 0,4.19 -2.18,5.87 1.85,14.42zm-34.22 -9.05c-5.7,-2.35 -7.04,-5.71 -7.04,-9.39 0,-3.69 0.67,-32.54 0.67,-32.54 0,0 5.36,0 5.7,3.35 0.33,3.35 -3.02,21.8 -1.34,24.82 1.67,3.02 5.03,4.69 5.03,4.69 0,0 1.01,10.73 -3.02,9.06z"/>
  <path class="fil4" d="M159.41 49.31c2.52,-7.38 6.21,-5.87 5.2,-9.89 -1.01,-4.03 -7.21,-17.78 -17.61,-24.32 -10.4,-6.54 -16.44,-6.54 -18.45,-9.9 -2.01,-3.36 -2.18,-5.2 -2.18,-5.2 0,0 -2.68,8.72 -0.84,11.41 1.85,2.68 1.85,2.68 1.85,2.68 0,0 -5.03,0.84 -15.26,-3.69 -10.23,-4.53 -16.6,-9.89 -16.6,-9.89 0,0 -1.85,10.23 0.33,16.94 2.18,6.7 7.72,14.92 12.91,18.61 5.2,3.69 10.56,4.87 10.56,4.87l0.67 5.7c0,0 -4.7,0 -7.21,-2.35 -2.52,-2.35 -2.52,-2.35 -2.52,-2.35 0,0 0.67,3.86 3.35,6.71 2.68,2.85 7.21,6.75 7.21,6.75l38.23 0.25c0,0 -0.84,-3.64 0.34,-6.33z"/>
  <path class="fil7" d="M134.93 208.8c6.54,-1.85 11.07,0.33 11.07,0.33 0,0 0,6.54 0.17,7.71 0.17,1.17 5.37,0.67 5.7,1.68 0.34,1.01 -4.19,1.68 -6.2,1.34 -2.01,-0.34 -0.68,-7.08 -1.6,-6.66 -0.92,0.42 -6.09,1.01 -7.3,0.17 -1.22,-0.84 -1.83,-4.57 -1.83,-4.57z"/>
  <path class="fil7" d="M151.95 208.45c0.04,2.4 -0.04,4.29 0.38,5.09 0.42,0.8 5.83,0.63 7.39,0.5 1.55,-0.13 2.35,-5.05 2.35,-5.05 0,0 -3.99,-1.22 -10.12,-0.55z"/>
  <path class="fil7" d="M132.45 242.86c0,0 5.21,3.79 9.74,4.12 4.54,0.34 6.05,-1.77 6.8,-3.45 0.76,-1.68 3.44,-2.52 6.47,-2.94 3.02,-0.42 4.87,-5.81 4.87,-6.31 0,-0.5 -1.01,1.51 -7.39,1.6 -6.38,0.08 -13.1,-1.68 -15.2,-3.12 -2.1,-1.43 -2.18,-6.9 -1.51,-8.83 0.67,-1.94 0.17,-2.52 -0.5,-3.95 -0.67,-1.43 -0.06,-10.43 -0.06,-10.43 0,0 -0.38,-6.06 0,-6.86 0.38,-0.8 3.08,-5.43 5.44,-6.18 2.35,-0.76 9.24,-1.01 9.24,-1.01l3.44 0.34c0,0 -0.84,-3.03 -3.78,-3.03 -2.94,0 -9.32,0.67 -13.1,1.35 -3.78,0.67 -14.19,-1.6 -14.19,-1.6l-2.77 -2.19c0,0 3.19,4.88 5.2,6.39 2.01,1.51 2.94,3.48 3.82,5.23 0.88,1.75 -1.32,17.55 -1.32,17.55 0,0 -0.55,4.99 -0.16,6.6 0.4,1.61 2.61,4.45 3.62,5.15 1.01,0.7 1.81,1.16 1.81,1.16l-0.39 7.28 -0.07 3.14z"/>
  <path class="fil7" d="M118.66 266.66c2.34,7.55 0.17,12.57 5.36,14.42 5.2,1.85 24.32,-0.17 28.68,0 4.36,0.17 2.52,-5.03 4.87,-4.19 2.35,0.84 2.51,5.53 5.87,6.37 3.35,0.84 20.46,3.52 20.46,3.52l2.85 -5.53c0,0 -10.4,-5.03 -16.27,-5.03 -5.87,0 -6.37,-1.17 -6.37,-1.17 0,0 -1.85,-5.7 -6.71,-4.7 -4.86,1.01 -4.36,3.52 -5.37,4.36 -1.01,0.84 -23.14,2.18 -25.32,1.68 -2.18,-0.5 -8.05,-9.72 -8.05,-9.72z"/>
  <path class="fil7" d="M105.24 245.86c-0.34,6.37 -1.51,8.05 2.35,8.22 3.86,0.17 9.22,-2.01 9.22,-2.01 0,0 -2.44,-2.17 -6,-2.09 -3.56,0.08 -5.57,-4.11 -5.57,-4.11z"/>
  <path class="fil7" d="M134.93 288.29c1,5.2 1,9.72 3.19,10.39 2.18,0.67 5.36,-5.7 8.89,-6.54 3.52,-0.84 20.46,-0.5 23.98,1.01 3.52,1.51 6.54,6.87 8.72,7.88 2.18,1.01 3.86,-2.18 2.18,-4.19 -1.68,-2.01 -7.38,-8.39 -23.31,-7.71 -15.93,0.67 -17.78,3.86 -18.95,4.86 -1.17,1.01 -4.69,-5.7 -4.69,-5.7z"/>
  <path class="fil7" d="M86.73 376.9c1.53,-1.7 2.75,-2.75 3.25,-2.58 2.01,0.67 4.02,0.67 5.03,-1.01 1.01,-1.68 2.68,-3.36 2.01,-6.38 -0.67,-3.02 6.04,-16.1 6.04,-16.1 0,0 7.05,0.67 7.71,-1.68 0.67,-2.35 2.35,-18.11 2.01,-23.82 -0.34,-5.7 -7.72,-14.76 -9.06,-20.79 -0.95,-4.28 -5.77,-16.47 -7.19,-32.52 1.68,-0.98 3.21,-1.5 4.34,-1.19 4.86,1.34 9.73,-0.17 11.4,-4.53 1.68,-4.36 2.68,-7.38 3.19,-5.54 0.5,1.84 7.88,20.12 6.7,23.98 -1.17,3.86 -11.4,3.52 -8.38,10.06 3.02,6.54 6.2,9.56 9.05,10.73 2.85,1.18 15.6,8.72 14.42,21.97 -1.17,13.25 -4.36,27.67 -4.36,27.67 0,0 8.73,-37.67 10.4,-54.17 1.17,6.21 -9.22,58.03 -9.22,58.03l25.16 4.86 17.61 -56.52c0,0 -12.58,51.99 -13.08,55.17 -0.5,3.19 -1.34,0.17 -1.17,8.22 0.11,5.21 0.5,13.99 1.94,21.95 -6.37,1.22 -12.95,1.85 -19.68,1.85 -21.52,0 -41.52,-6.52 -58.13,-17.7z"/>
  <path class="fil7" d="M176.62 236.71l6.43 12.5c0,0 -0.5,-16.77 2.85,-24.31 3.36,-7.55 6.37,-10.73 6.37,-10.73 0,0 4.36,-5.54 2.35,-9.06 -2.01,-3.52 -1.51,-2.18 -9.39,-12.57 -7.88,-10.4 -7.04,-11.57 -9.56,-16.6 -2.52,-5.03 -3.69,-7.88 -11.91,-12.58 -8.22,-4.7 -13.62,-8.33 -25.09,-8.19 0.58,0.73 1.34,1.48 2.28,2.15 2.35,1.68 6.37,5.37 10.73,7.72 4.36,2.35 6.37,3.69 9.39,11.74 3.02,8.05 24.49,29.85 24.49,29.85l1.01 6.04c0,0 -1.34,1.34 -3.35,3.35 -1.84,1.84 -5.9,17.89 -6.6,20.71z"/>
  <path class="fil7" d="M144.32 223.91l0.42 2.53 7.64 0.08 0.17 -2.61c0,0 -4.2,-1.43 -8.23,0z"/>
  <path class="fil7" d="M147.01 227.02c0.01,-0.56 0.34,2.61 0.34,2.61l3.44 -0.17 0.03 -2.96 -3.81 0.52z"/>
  <path class="fil8" d="M149.94 197.52c5.55,0.2 9.15,0.49 10.51,1.26 1.36,0.78 0.49,4.98 -3.11,5.46 -3.6,0.49 -6.22,0.39 -7.1,-0.88 -0.88,-1.27 -0.29,-5.85 -0.29,-5.85z"/>
  <path class="fil8" d="M158.6 261.66c0.58,4.29 5.25,4.88 7.2,7.8 1.94,2.92 11.48,4.87 13.23,2.92 1.75,-1.95 -1.75,-7.8 -4.08,-8.77 -2.34,-0.98 -14.98,-5.46 -16.34,-1.95z"/>
  <path class="fil8" d="M117.4 139.66c4.53,-8.78 8.71,-17.79 11.43,-17.6 2.72,0.2 5.77,-0.73 3.37,2.83 -2.4,3.56 -12.13,22.71 -13.1,24.66 -0.97,1.95 -5.2,-4.04 -1.7,-9.89z"/>
  <path class="fil8" d="M143.7 131.92c3.7,1.27 6.43,0.44 7.06,2.24 0.63,1.81 2.09,3.61 -0.44,3.02 -2.53,-0.59 -6.66,-3.7 -7.98,-4.34 -1.31,-0.63 1.36,-0.93 1.36,-0.93z"/>
  <path class="fil9" d="M132.72 131.03c-0.29,2.05 1.17,2.63 3.89,3.02 2.73,0.39 6.33,1.95 6.33,1.95 0,0 -10.05,-1.15 -10.93,-1.93 -0.87,-0.78 -0.12,-3.63 0.71,-3.04z"/>
  <path class="fil9" d="M130.91 138.5c-0.39,2.68 -0.14,3.25 1.6,3.95 1.74,0.7 8.66,1.71 8.66,1.71 0,0 -7.64,-2.63 -8.42,-3.22 -0.78,-0.59 -0.92,-3.07 -0.92,-3.07 0,0 -1.22,-0.59 -0.93,0.63z"/>
  <path class="fil10" d="M147.9 40.96c0.97,-14.82 -7.97,-20.66 -12.84,-23.59 -4.86,-2.92 -4.86,-2.92 -4.86,-2.92 0,0 16.81,17.05 17.7,26.52z"/>
  <polygon class="fil4" points="74.52,230.48 87.02,241.88 91.82,224.89 "/>
  <polygon class="fil4" points="212.86,355.35 200.36,343.94 195.56,360.94 "/>
 </g>
</svg>
