<svg  viewBox="0 0 82 60" fill="none" xmlns="http://www.w3.org/2000/svg">
<path fill-rule="evenodd" clip-rule="evenodd" d="M63.3125 9.72656H49.1328V7.03125C49.1328 3.15422 45.9786 0 42.1016 0H33.8984C30.0214 0 26.8672 3.15422 26.8672 7.03125V9.72656H12.6875C11.393 9.72656 10.3438 10.7759 10.3438 12.0703C10.3438 13.3648 11.393 14.4141 12.6875 14.4141H15.1147L15.6998 22H20.4013L19.8161 14.4141H56.1839L55.5987 22H60.3002L60.8853 14.4141H63.3125C64.607 14.4141 65.6562 13.3648 65.6562 12.0703C65.6562 10.7759 64.607 9.72656 63.3125 9.72656ZM22.0982 44H17.3968L17.971 51.4438L17.9737 51.4764C18.1865 53.8112 19.2574 55.9677 20.9889 57.5486C22.7205 59.1294 24.9654 60 27.3099 60H48.6901C53.5729 60 57.5866 56.3634 58.0263 51.5411C58.1438 50.2519 57.1941 49.1116 55.9051 48.9941C54.6147 48.8766 53.4757 49.8262 53.3581 51.1153C53.14 53.5082 51.1332 55.3125 48.6901 55.3125H27.3099C24.8751 55.3125 22.8714 53.4878 22.6432 51.0654L22.0982 44ZM44.4453 9.72656H31.5547V7.03125C31.5547 5.73891 32.6061 4.6875 33.8984 4.6875H42.1016C43.3939 4.6875 44.4453 5.73891 44.4453 7.03125V9.72656Z" fill="white"/>
<path d="M5.71132 41C5.56259 41 5.43617 40.9479 5.33206 40.8438C5.22794 40.7397 5.17589 40.6133 5.17589 40.4646V28.1718H1.04856C0.899831 28.1718 0.773409 28.1198 0.669296 28.0157C0.565183 27.9115 0.513127 27.7777 0.513127 27.6141V25.9408C0.513127 25.7772 0.557747 25.6434 0.646986 25.5393C0.751099 25.4352 0.884958 25.3831 1.04856 25.3831H12.4489C12.6125 25.3831 12.7464 25.4352 12.8505 25.5393C12.9546 25.6434 13.0066 25.7772 13.0066 25.9408V27.6141C13.0066 27.7777 12.9546 27.9115 12.8505 28.0157C12.7464 28.1198 12.6125 28.1718 12.4489 28.1718H8.34389V40.4646C8.34389 40.6133 8.29183 40.7397 8.18772 40.8438C8.09848 40.9479 7.97206 41 7.80845 41H5.71132ZM15.8053 41C15.6566 41 15.5302 40.9479 15.426 40.8438C15.3219 40.7397 15.2699 40.6133 15.2699 40.4646V25.9408C15.2699 25.7772 15.3145 25.6434 15.4037 25.5393C15.5079 25.4352 15.6417 25.3831 15.8053 25.3831H21.5836C23.413 25.3831 24.8408 25.807 25.8671 26.6548C26.9082 27.5025 27.4288 28.7073 27.4288 30.269C27.4288 31.3547 27.1685 32.2694 26.6479 33.0131C26.1273 33.7419 25.3986 34.2699 24.4615 34.5971L27.6965 40.2861C27.7411 40.3753 27.7634 40.4571 27.7634 40.5315C27.7634 40.6654 27.7113 40.7769 27.6072 40.8661C27.518 40.9554 27.4139 41 27.2949 41H25.2424C25.0044 41 24.8185 40.9479 24.6846 40.8438C24.5508 40.7248 24.4318 40.5761 24.3277 40.3976L21.472 35.1102H18.4156V40.4646C18.4156 40.6133 18.3635 40.7397 18.2594 40.8438C18.1553 40.9479 18.0214 41 17.8578 41H15.8053ZM21.5166 32.5669C22.409 32.5669 23.0783 32.3735 23.5245 31.9868C23.9707 31.5852 24.1938 31.0052 24.1938 30.2466C24.1938 29.4881 23.9707 28.9081 23.5245 28.5065C23.0783 28.09 22.409 27.8818 21.5166 27.8818H18.4156V32.5669H21.5166ZM29.3436 41C29.2097 41 29.0982 40.9554 29.0089 40.8661C28.9197 40.7769 28.8751 40.6654 28.8751 40.5315L28.9197 40.3307L34.274 25.9408C34.4228 25.569 34.6905 25.3831 35.0772 25.3831H37.5313C37.918 25.3831 38.1857 25.569 38.3344 25.9408L43.6888 40.3307L43.7334 40.5315C43.7334 40.6654 43.6814 40.7769 43.5773 40.8661C43.488 40.9554 43.3839 41 43.2649 41H41.2793C40.967 41 40.7513 40.8587 40.6324 40.5761L39.6061 37.8766H33.0024L31.9761 40.5761C31.8571 40.8587 31.6415 41 31.3291 41H29.3436ZM33.7832 35.2887H38.8253L36.3042 28.4172L33.7832 35.2887ZM51.0192 41.2231C49.6806 41.2231 48.5353 41.0223 47.5834 40.6207C46.6316 40.2192 45.9102 39.6912 45.4194 39.0367C44.9286 38.3823 44.6683 37.6684 44.6385 36.895C44.6385 36.776 44.6832 36.6719 44.7724 36.5826C44.8616 36.4785 44.9732 36.4265 45.1071 36.4265H47.1372C47.3009 36.4265 47.4347 36.4637 47.5388 36.538C47.6429 36.6124 47.7396 36.7165 47.8289 36.8504C47.9776 37.3561 48.3122 37.7799 48.8328 38.122C49.3682 38.4641 50.097 38.6352 51.0192 38.6352C52.0603 38.6352 52.8411 38.4641 53.3617 38.122C53.8971 37.7651 54.1649 37.2817 54.1649 36.6719C54.1649 36.2703 54.031 35.9357 53.7633 35.6679C53.4956 35.4002 53.0865 35.1697 52.5362 34.9763C52.0008 34.7681 51.1976 34.5227 50.1268 34.2401C48.3717 33.8237 47.0852 33.2734 46.2672 32.5892C45.4491 31.905 45.0401 30.9234 45.0401 29.6443C45.0401 28.7816 45.2781 28.0157 45.754 27.3464C46.23 26.6622 46.9067 26.1268 47.7842 25.7401C48.6766 25.3534 49.7103 25.16 50.8853 25.16C52.1198 25.16 53.1832 25.3757 54.0756 25.807C54.9829 26.2383 55.6671 26.7812 56.1281 27.4356C56.6041 28.0752 56.8569 28.7147 56.8867 29.3543C56.8867 29.4732 56.842 29.5848 56.7528 29.6889C56.6636 29.7781 56.552 29.8228 56.4181 29.8228H54.2987C53.9715 29.8228 53.7484 29.6889 53.6294 29.4212C53.5551 28.9452 53.265 28.5511 52.7593 28.2388C52.2536 27.9115 51.629 27.7479 50.8853 27.7479C50.0673 27.7479 49.4203 27.9041 48.9443 28.2164C48.4833 28.5288 48.2527 28.9824 48.2527 29.5774C48.2527 29.9789 48.3717 30.3136 48.6097 30.5813C48.8477 30.849 49.2195 31.087 49.7252 31.2952C50.2309 31.4886 50.9671 31.7117 51.9339 31.9645C53.2576 32.262 54.3061 32.5966 55.0796 32.9684C55.8678 33.3403 56.4479 33.8088 56.8197 34.374C57.1916 34.9392 57.3775 35.6605 57.3775 36.538C57.3775 37.5048 57.1098 38.3451 56.5743 39.059C56.0538 39.7581 55.3101 40.2935 54.3433 40.6654C53.3914 41.0372 52.2834 41.2231 51.0192 41.2231ZM60.4468 41C60.2981 41 60.1717 40.9479 60.0676 40.8438C59.9634 40.7397 59.9114 40.6133 59.9114 40.4646V25.9408C59.9114 25.7772 59.956 25.6434 60.0452 25.5393C60.1494 25.4352 60.2832 25.3831 60.4468 25.3831H62.4993C62.6629 25.3831 62.7968 25.4352 62.9009 25.5393C63.005 25.6434 63.0571 25.7772 63.0571 25.9408V31.6745H69.5716V25.9408C69.5716 25.7772 69.6236 25.6434 69.7277 25.5393C69.8318 25.4352 69.9583 25.3831 70.107 25.3831H72.1818C72.3454 25.3831 72.4718 25.4352 72.5611 25.5393C72.6652 25.6434 72.7172 25.7772 72.7172 25.9408V40.4646C72.7172 40.6133 72.6652 40.7397 72.5611 40.8438C72.4718 40.9479 72.3454 41 72.1818 41H70.107C69.9583 41 69.8318 40.9479 69.7277 40.8438C69.6236 40.7397 69.5716 40.6133 69.5716 40.4646V34.5078H63.0571V40.4646C63.0571 40.6133 63.005 40.7397 62.9009 40.8438C62.7968 40.9479 62.6629 41 62.4993 41H60.4468Z" fill="white"/>
</svg>
