<svg width="142" height="142" viewBox="0 0 142 142" fill="none" xmlns="http://www.w3.org/2000/svg">
<path d="M63.2506 141.587C42.2353 139.224 23.3834 127.647 11.65 109.898C-11.697 74.5827 1.32088 26.3382 39.3229 7.34566C49.4951 2.26078 59.2746 0 71.099 0C82.7039 0 92.749 2.30097 102.556 7.20579C123.585 17.723 137.769 37.1649 141.398 60.443C142.193 65.5475 142.203 76.4414 141.415 81.3447C138.979 96.538 132.659 109.311 122.209 120.16C116.064 126.54 110.18 130.83 102.214 134.74C90.3102 140.581 76.2579 143.051 63.2493 141.589L63.2506 141.587ZM69.0637 136.566C69.1893 134.372 69.1736 132.47 69.0281 132.34C68.8833 132.21 67.4513 132.019 65.8462 131.916L62.9269 131.729L62.692 133.296C62.513 134.49 62.3027 134.862 61.8066 134.862C61.449 134.862 61.0679 134.719 60.9594 134.543C60.7295 134.171 61.0911 131.206 61.4337 130.652C61.5981 130.385 63.0065 130.394 66.1949 130.682L70.7223 131.091L70.7582 134.667C70.7796 136.634 70.7654 138.763 70.7298 139.399L70.6664 140.556H73.1662C75.8856 140.556 83.1311 139.689 85.5926 139.069C86.5527 138.827 87.0669 138.519 86.9623 138.247C86.8705 138.007 86.4282 136.183 85.9791 134.192C85.4756 131.959 85.0119 130.631 84.7689 130.724C84.5525 130.807 83.1299 131.076 81.608 131.322L78.8406 131.768L79.0658 133.27C79.2683 134.62 79.2103 134.793 78.4912 134.981C78.051 135.096 77.6652 135.156 77.6335 135.115C77.6015 135.074 77.4699 134.065 77.34 132.873L77.1037 130.705L80.7621 130.06C82.7744 129.706 84.8885 129.4 85.4596 129.381C86.5884 129.344 86.35 128.773 88.5305 136.73C88.7319 137.465 89.1208 138.065 89.3963 138.065C90.9432 138.065 102.363 133.581 103.407 132.564C103.811 132.17 103.623 131.583 102.249 128.941C101.347 127.207 100.472 125.575 100.305 125.314C100.064 124.939 99.4472 125.116 97.3701 126.156C95.9237 126.88 94.6803 127.528 94.607 127.594C94.5337 127.661 94.7238 128.342 95.0301 129.107C95.5746 130.467 95.5685 130.506 94.7572 130.876C93.9737 131.233 93.8865 131.14 93.1776 129.196C92.3086 126.812 92.2901 126.678 92.8335 126.678C93.057 126.678 94.9796 125.852 97.1061 124.842C99.2327 123.832 101.023 123.071 101.083 123.152C101.144 123.232 102.103 124.899 103.215 126.856C104.327 128.813 105.381 130.637 105.557 130.91C105.81 131.302 106.602 130.929 109.382 129.104C112.767 126.883 118.582 122.212 118.582 121.714C118.582 121.58 117.356 120.139 115.857 118.51L113.132 115.549L110.81 117.466C109.533 118.52 108.477 119.52 108.464 119.687C108.45 119.855 108.847 120.476 109.345 121.067L110.249 122.142L109.5 122.667C109.088 122.956 108.706 123.136 108.653 123.067C107.96 122.174 106.267 119.492 106.36 119.435C106.978 119.052 110.38 116.233 111.696 115.014L113.35 113.482L116.787 116.886C118.677 118.758 120.38 120.193 120.57 120.076C121.741 119.352 130.146 108.478 130.146 107.687C130.146 107.279 123.259 103.177 123.003 103.433C122.842 103.594 121.983 104.767 121.095 106.039C119.336 108.557 119.314 108.314 121.428 109.759C122.09 110.211 122.099 110.288 121.555 110.85C120.904 111.523 120.6 111.413 118.746 109.832C117.903 109.113 117.656 108.686 117.892 108.358C118.076 108.103 119.244 106.397 120.488 104.565C121.732 102.734 122.792 101.189 122.845 101.132C122.897 101.075 124.731 102.076 126.919 103.356C129.108 104.636 131.049 105.683 131.232 105.683C131.977 105.683 137.619 93.0105 137.619 91.3356C137.619 91.007 136.427 90.4949 134.15 89.8462C132.242 89.3024 130.465 88.8402 130.201 88.819C129.912 88.7959 129.318 89.9073 128.699 91.6273C128.136 93.193 127.671 94.4967 127.665 94.5244C127.658 94.5521 128.296 94.831 129.079 95.1442C130.569 95.7402 130.697 95.9292 130.172 96.7582C129.899 97.19 129.629 97.1766 128.309 96.6658C125.676 95.6467 125.726 95.8201 127.064 92.3108C127.729 90.5649 128.388 88.616 128.527 87.9799C128.683 87.267 128.997 86.8234 129.345 86.8234C129.656 86.8234 131.744 87.3162 133.986 87.9185C136.228 88.5209 138.188 88.8812 138.342 88.7192C139.088 87.9337 141.131 74.0897 140.623 73.2668C140.513 73.0901 138.616 72.9454 136.406 72.9454H132.387L132.163 75.8576C132.039 77.4593 132.002 78.8338 132.081 78.9122C132.159 78.9905 132.881 79.1428 133.684 79.2506C134.973 79.4235 135.118 79.5355 134.915 80.1993C134.788 80.6132 134.647 80.996 134.601 81.0499C134.555 81.1038 133.596 81.0396 132.469 80.9071L130.42 80.6663L130.648 77.7845C130.774 76.1995 130.971 74.062 131.086 73.0345L131.296 71.1663H140.822V69.7807C140.822 66.3869 139.39 55.7376 138.863 55.2108C138.655 55.0034 131.501 56.5693 131.128 56.9035C130.983 57.0339 131.103 58.3889 131.395 59.9146C131.687 61.4405 131.926 62.7767 131.926 62.8839C131.926 62.9911 132.646 62.9801 133.527 62.8593C135.037 62.6524 135.128 62.6881 135.128 63.4846C135.128 64.4845 134.547 64.7613 132.447 64.7613C130.925 64.7613 130.886 64.7321 130.671 63.4269C130.283 61.0664 129.365 56.4537 129.198 56.0166C129.091 55.7384 130.505 55.1908 133.319 54.4206C135.675 53.7758 137.786 53.135 138.01 52.9967C138.299 52.8179 138.081 51.7297 137.255 49.2343C136.07 45.6519 133.207 38.8584 132.645 38.2946C132.419 38.0678 126.288 40.9752 125.251 41.8009C125.024 41.9814 127.716 47.3245 128.033 47.3245C128.229 47.3245 128.933 47.0975 129.597 46.8201C130.655 46.3783 130.83 46.3819 131.009 46.8492C131.374 47.8006 131.235 48.018 129.9 48.5755C127.485 49.5845 127.036 49.6007 126.755 48.6891C126.614 48.2322 125.728 46.3092 124.787 44.416L123.074 40.9737L127.307 38.602L131.541 36.2302L130.063 33.86C128.217 30.8981 125.328 27.0275 123.319 24.8238L121.784 23.1397L118.848 25.9174C116.094 28.523 115.527 29.3062 116.186 29.5919C116.337 29.6571 117.163 30.5511 118.021 31.5787C118.88 32.6062 119.724 33.4468 119.897 33.4468C120.07 33.4468 120.699 33.0867 121.294 32.6467C122.347 31.8684 122.389 31.8649 122.867 32.5182C123.313 33.1277 123.213 33.3005 121.792 34.3859C120.93 35.0437 120.075 35.5819 119.891 35.5819C119.706 35.5819 119.099 34.9814 118.541 34.2475C117.983 33.5136 116.691 31.9262 115.669 30.7201L113.812 28.5272L116.998 25.2837C118.749 23.4998 120.183 21.9078 120.183 21.7458C120.183 21.0078 112.29 14.4321 109.094 12.5059L107.791 11.7208L107.093 12.7091C106.709 13.2527 105.713 14.8154 104.88 16.1817L103.365 18.6658L104.359 19.3842C104.906 19.7793 106.039 20.615 106.877 21.2413L108.399 22.38L109.446 21.0749C110.355 19.9421 110.569 19.8328 111.068 20.2467C111.857 20.9016 111.821 21.0294 110.337 22.8594L109.032 24.4689L106.868 22.7931C105.677 21.8715 104.074 20.729 103.304 20.2542C102.534 19.7794 101.751 19.2881 101.566 19.1625C101.38 19.0369 102.29 17.1385 103.588 14.9439C104.887 12.7493 105.949 10.837 105.949 10.6945C105.949 10.1049 92.7296 4.26767 91.3941 4.26767C91.0927 4.26767 88.6598 12.0244 88.9003 12.2183C89.1427 12.4131 94.2252 14.231 94.5284 14.231C94.6832 14.231 95.0653 13.5801 95.3777 12.7846C95.8873 11.4872 96.0215 11.3785 96.6772 11.7296C97.0794 11.9448 97.4085 12.1821 97.4085 12.2568C97.4085 12.453 95.9641 15.7938 95.815 15.9432C95.7232 16.0348 87.3447 13.2874 86.8385 12.9995C86.7983 12.9767 87.3185 10.9191 87.995 8.42725C88.6711 5.9353 89.2244 3.83881 89.2244 3.7683C89.2244 3.27404 80.9899 1.78023 76.9152 1.5355L73.3243 1.31982L73.0806 5.33444C72.9464 7.54254 72.9005 9.41304 72.9788 9.49114C73.0567 9.56929 74.4783 9.72902 76.1373 9.84613L79.1538 10.059L79.3893 8.58653C79.5954 7.29852 79.7405 7.11406 80.5498 7.11406C81.4223 7.11406 81.4617 7.18981 81.2451 8.44843C80.6707 11.7856 80.6572 11.8162 79.848 11.5997C79.427 11.487 77.3795 11.2894 75.2978 11.1605L71.5131 10.9262L71.3704 6.35617C71.2921 3.84263 71.0647 1.62281 70.8655 1.4233C70.1983 0.756065 56.216 2.30548 55.3541 3.14207C54.9445 3.53993 56.9198 11.4306 57.3846 11.2524C57.6119 11.1651 59.0075 10.8905 60.486 10.6421L63.1738 10.1904L63.1218 8.56339C63.0766 7.15801 63.172 6.92173 63.8221 6.82893C64.4968 6.73264 64.6003 6.94788 64.8227 8.91242C64.959 10.1174 65.0206 11.1399 64.9597 11.1847C64.8985 11.2294 63.1673 11.5509 61.1124 11.899C59.0573 12.2472 56.9757 12.6058 56.4864 12.696C55.6206 12.8556 55.5648 12.7356 54.3951 8.21251C52.9988 2.81232 53.7713 3.13778 47.5903 5.34517C43.2014 6.91257 38.3383 9.18464 38.3383 9.66779C38.3383 10.2621 41.9448 16.722 42.2764 16.722C42.517 16.722 46.7035 14.8282 47.5457 14.3383C47.6194 14.2956 47.4123 13.5935 47.086 12.7782C46.427 11.1307 46.4127 11.2054 47.449 10.8874C48.0987 10.6882 48.2994 10.9239 48.9691 12.6741C49.3933 13.7829 49.6972 14.7213 49.6442 14.7591C49.5908 14.797 47.6664 15.7249 45.3673 16.821L41.1876 18.8139L38.8405 14.8323C37.5495 12.6424 36.4332 10.7889 36.3595 10.7135C35.9457 10.2898 28.7341 15.3132 25.0648 18.581L23.3564 20.1025L24.478 21.3479C25.0947 22.0329 26.3967 23.4262 27.3714 24.4442L29.1435 26.2949L30.2712 25.2942C30.8918 24.7437 31.9532 23.8098 32.6301 23.2187L33.8609 22.1441L32.9176 20.9071C32.2102 19.9797 32.0757 19.5684 32.3807 19.2636C33.0827 18.5613 33.556 18.8076 34.7808 20.513L35.9701 22.1688L35.079 22.9149C30.0488 27.1267 29.0991 27.9781 29.093 28.2802C29.0895 28.4723 27.4871 27.0364 25.5328 25.0894L21.9797 21.5494L20.5214 22.961C17.632 25.7587 11.8388 33.4797 12.0823 34.2096C12.2072 34.5846 18.2985 38.4285 18.7676 38.4285C18.8992 38.4285 19.7703 37.3207 20.7041 35.9666L22.4015 33.5048L21.2069 32.4296C20.1437 31.4727 20.071 31.2952 20.5461 30.8161C21.0222 30.3361 21.2624 30.4189 22.7644 31.5802C24.3384 32.7969 24.4152 32.9305 23.9312 33.6095C23.6462 34.0092 22.4876 35.7306 21.3567 37.4347C20.2258 39.1387 19.1647 40.5399 18.9985 40.5483C18.8323 40.5569 17.231 39.7056 15.4401 38.6571C13.6491 37.6086 11.8343 36.5678 11.4069 36.3443C10.6699 35.959 10.5287 36.1441 8.66369 39.9411C7.58229 42.1427 6.13509 45.5003 5.4476 47.4024L4.19786 50.861L5.52194 51.2226C6.25033 51.4215 8.09753 51.9728 9.62695 52.4475C11.5706 53.0508 12.4442 53.1863 12.5274 52.8975C12.5933 52.6701 13.063 51.314 13.5718 49.8839C14.0803 48.4538 14.4967 47.2385 14.4967 47.1831C14.4967 47.1278 13.8562 46.8711 13.0734 46.6127C11.4874 46.0893 11.5087 46.1183 12.014 45.1739C12.366 44.5165 12.4443 44.5259 14.3352 45.4534C15.7841 46.164 16.2311 46.5545 16.0574 46.9578C15.9282 47.2573 15.244 49.1838 14.5369 51.2387C13.8298 53.2937 13.2256 55.0273 13.1946 55.0911C13.1626 55.1549 11.0315 54.6473 8.45729 53.9632C5.1668 53.0886 3.73416 52.8429 3.63242 53.1355C2.74925 55.6769 1.03439 68.1406 1.50306 68.6114C1.63543 68.7443 3.54771 68.9063 5.7529 68.9713L9.7622 69.0896L9.99208 66.6584C10.3554 62.8086 10.3298 62.6265 9.42593 62.6211C7.82218 62.6114 7.09798 62.2416 7.28486 61.5277C7.47736 60.7911 7.86381 60.7315 10.2914 61.0643L11.8791 61.282L11.6062 63.2883C11.4564 64.3919 11.2308 66.5357 11.1055 68.0525L10.8774 70.8103H1.22924L1.48117 74.8135C1.71354 78.5056 2.84331 86.319 3.19596 86.6719C3.36677 86.8426 10.8604 85.2405 11.1238 84.9769C11.2171 84.8837 11.0409 83.4468 10.7324 81.7837L10.1712 78.7599L8.59773 78.9988C7.04979 79.2337 7.0238 79.221 7.0238 78.2265C7.0238 77.2682 7.106 77.2154 8.59588 77.2154C9.46059 77.2154 10.4118 77.122 10.7093 77.0077C11.1178 76.851 11.3014 77.1344 11.458 78.1643C11.5718 78.9146 11.9554 81.0236 12.3102 82.8513L12.955 86.174L12.2134 86.4512C11.8056 86.6036 9.75059 87.1742 7.64651 87.7191C5.28476 88.3307 3.82117 88.8845 3.82117 89.1665C3.82117 90.5567 8.67487 102.686 9.68904 103.829C9.80112 103.955 16.3373 100.423 16.7471 100.015C16.9678 99.795 14.9249 95.0486 14.3153 94.3637C14.2616 94.3033 13.6115 94.5071 12.8706 94.8166C11.797 95.2653 11.4657 95.2876 11.2362 94.9264C10.6708 94.0354 10.9622 93.6426 12.6027 93.0836C14.7911 92.338 15.1149 92.365 15.3999 93.317C15.5319 93.7574 16.3432 95.5147 17.203 97.2221C18.0631 98.9296 18.7665 100.47 18.7665 100.646C18.7665 100.821 17.0069 101.959 14.8562 103.174C12.7055 104.388 10.8676 105.509 10.7719 105.663C10.4004 106.265 18.5875 117.388 20.0132 118.22C20.4477 118.473 26.1448 113.7 26.2095 113.029C26.238 112.736 25.5306 111.819 23.3425 109.314L22.3187 108.142L21.0665 109.097C20.3779 109.622 19.7734 109.989 19.7235 109.913C19.6734 109.837 19.4332 109.513 19.1894 109.192C18.8083 108.691 19.0012 108.427 20.5729 107.298L22.3991 105.986L22.9521 106.776C23.2563 107.21 24.6256 108.835 25.9953 110.386L28.4855 113.208L25.2274 116.48C23.435 118.279 21.9689 119.923 21.9689 120.132C21.9689 120.793 28.3345 126.168 32.1709 128.748L34.3668 130.224L36.5727 126.654C37.7857 124.691 38.7195 123.043 38.6469 122.991C38.5746 122.939 37.411 122.121 36.061 121.173L33.6064 119.449L32.673 120.592C32.0172 121.396 31.5571 121.666 31.1243 121.5C30.2736 121.173 30.329 120.976 31.8083 119.077C32.9406 117.624 33.1857 117.468 33.7177 117.862C34.0537 118.111 35.5105 119.148 36.9556 120.167C38.4006 121.186 39.8575 122.227 40.1923 122.48C40.7506 122.902 40.609 123.271 38.5131 126.855C37.2545 129.008 36.2196 130.874 36.2136 131.002C36.1958 131.346 39.5101 133.148 42.9636 134.675C45.9391 135.991 50.8446 137.791 50.983 137.619C51.167 137.39 53.3167 129.799 53.2178 129.727C52.6811 129.337 47.4976 127.76 47.2513 127.912C47.0759 128.02 46.8279 128.586 46.6998 129.168C46.413 130.473 46.0906 130.697 45.3141 130.129C44.7548 129.72 44.7665 129.561 45.4871 127.828C45.9127 126.804 46.3838 125.966 46.5336 125.966C46.6834 125.966 48.2235 126.509 49.9558 127.172C51.6877 127.836 53.6316 128.49 54.2753 128.627C55.2745 128.839 55.4101 128.988 55.2016 129.644C54.3429 132.349 52.9808 137.863 53.117 138.084C53.4999 138.703 63.5207 140.436 67.1949 140.519L68.8308 140.555L69.0592 136.566L69.0637 136.566ZM73.4455 137.459C73.3224 136.716 73.2203 134.57 73.2181 132.691L73.2146 129.273L69.0334 129.028C66.7339 128.893 63.7506 128.614 62.4037 128.407C60.622 128.134 59.8886 128.14 59.71 128.429C59.5751 128.647 59.1755 130.362 58.8218 132.24C58.0927 136.112 58.0784 136.081 60.7298 136.45C61.6273 136.575 62.882 136.767 63.5178 136.877C64.612 137.066 64.6744 137.019 64.6744 135.999C64.6744 134.373 65.0156 133.795 65.9749 133.795C66.8144 133.795 66.8396 133.869 66.7375 136.019L66.6314 138.243L64.3185 138.234C61.9919 138.225 56.899 137.47 56.1854 137.029C55.9235 136.867 56.1352 135.388 56.8537 132.358C57.4319 129.919 57.9066 127.839 57.9091 127.735C57.9091 127.632 56.7522 127.249 55.3335 126.884C53.2995 126.361 48.1511 124.446 45.6314 123.275C45.2958 123.119 41.9007 129.459 41.9007 130.242C41.9007 130.562 46.9246 133.083 47.5633 133.083C47.7134 133.083 48.0511 132.432 48.3141 131.635C48.7101 130.435 48.9176 130.221 49.5275 130.385C49.9321 130.494 50.3687 130.585 50.4975 130.588C50.8202 130.594 49.2926 135.218 48.9677 135.218C48.6105 135.218 40.4293 131.737 39.7654 131.303C39.3153 131.008 39.5857 130.279 41.4877 126.653C42.7288 124.289 43.6896 122.313 43.6227 122.262C43.5562 122.212 42.4609 121.554 41.1887 120.8C38.4548 119.18 37.0321 118.175 34.5455 116.105L32.7065 114.574L29.9751 117.644C27.7269 120.171 27.3283 120.792 27.7219 121.158C27.9852 121.402 29.1406 122.354 30.29 123.274L32.3792 124.947L33.2823 123.677C34.2951 122.254 34.3872 122.218 35.2935 122.88C35.9031 123.326 35.864 123.467 34.6029 125.367L33.2659 127.38L32.3343 126.66C31.8223 126.264 30.8426 125.564 30.1576 125.105C29.4726 124.646 27.9578 123.397 26.7914 122.33L24.6705 120.39L27.8589 117.096C29.6125 115.284 31.0472 113.677 31.0472 113.524C31.0472 113.371 30.054 112.19 28.8402 110.9C27.6264 109.609 25.7301 107.353 24.6259 105.886L22.6183 103.219L19.3602 105.393C17.5678 106.589 16.0494 107.61 15.9853 107.661C15.7953 107.814 19.5146 112.8 19.8185 112.8C19.9722 112.8 20.5049 112.48 21.0027 112.089C22.0888 111.234 22.4545 111.204 23.0492 111.921C23.4242 112.373 23.3563 112.62 22.6481 113.379C22.1791 113.882 21.3881 114.585 20.891 114.942L19.9868 115.59L18.3787 113.572C16.4407 111.141 13.7887 107.259 13.7887 106.854C13.7887 106.693 14.7096 106.014 15.8348 105.344C16.9603 104.674 18.7256 103.588 19.7583 102.93L21.6361 101.735L19.9932 98.7218C19.0897 97.0642 17.8108 94.3897 17.151 92.7784C16.4917 91.167 15.8255 89.8487 15.6711 89.8487C14.6762 89.8487 8.45822 92.0647 8.45467 92.4204C8.44755 93.0036 10.188 97.5995 10.5509 97.9628C10.7086 98.1203 11.4309 97.9663 12.1562 97.6203C13.2995 97.075 13.5183 97.0607 13.8041 97.5123C14.4161 98.48 14.15 98.9078 12.3768 99.8062C11.405 100.299 10.4655 100.702 10.2894 100.702C9.91147 100.702 6.71282 92.7342 6.58289 91.4704C6.49892 90.653 6.74907 90.5234 10.7637 89.3058C15.6903 87.8116 15.3786 88.3894 14.2139 82.9101C13.8186 81.0508 13.3805 78.4295 13.2399 77.0848L12.9844 74.6402L9.02746 74.8946C6.85074 75.0345 5.01213 75.2053 4.94098 75.2742C4.78939 75.4209 5.46514 81.4671 5.65375 81.6541C5.72421 81.7238 6.4498 81.6584 7.26644 81.5087C8.59265 81.2656 8.77271 81.3164 8.95205 81.9844C9.06237 82.3957 9.15489 82.8314 9.15737 82.9527C9.15737 83.074 8.17878 83.3668 6.9764 83.6034C5.30428 83.9323 4.72996 83.9351 4.53244 83.6151C4.28085 83.2081 3.65956 78.8906 3.32437 75.2193L3.15819 73.4001L7.84035 73.1456C10.4152 73.0056 12.6471 72.814 12.7993 72.7198C12.952 72.6256 13.0765 71.0876 13.0765 69.3021C13.0765 67.5166 13.2584 64.6386 13.4804 62.9067C13.7025 61.1747 13.8103 59.6838 13.7203 59.5935C13.4964 59.3699 6.28657 57.9105 6.14244 58.0598C6.07945 58.1254 5.80012 59.54 5.52185 61.2036C4.96175 64.5488 5.0226 64.6834 7.11601 64.737C7.91597 64.7572 8.0946 64.9244 8.0946 65.6516C8.0946 66.5093 8.01169 66.5412 5.78163 66.5412H3.46867V65.3311C3.46867 64.2288 4.78884 55.8256 4.98601 55.6722C5.03227 55.6363 6.99155 56.0592 9.34009 56.6119C11.6886 57.1647 13.7867 57.6233 14.0024 57.6311C14.2177 57.6389 14.6838 56.5644 15.0376 55.2433C15.3916 53.9222 16.3065 51.3201 17.0705 49.4608C17.8349 47.6015 18.5412 45.8284 18.6401 45.5204C18.776 45.0978 17.9316 44.5481 15.1955 43.2782C13.2021 42.3529 11.5389 41.6441 11.4998 41.7031C11.2172 42.1294 9.16223 47.0409 9.16223 47.2903C9.16223 47.463 9.80275 47.8607 10.5856 48.1739C12.1253 48.79 12.2438 49.0036 11.5627 49.9349C11.1443 50.5072 11.0069 50.5085 9.33874 49.9555C8.36085 49.6314 7.4179 49.2364 7.24317 49.0779C6.86527 48.7351 8.06088 45.3321 9.79704 41.8103C10.4724 40.4403 11.0756 39.2631 11.1379 39.1943C11.2001 39.1254 13.0829 40.0462 15.3216 41.2403C17.5605 42.4346 19.4743 43.4116 19.5742 43.4116C19.6746 43.4116 20.4037 42.3222 21.1947 40.9909C22.3669 39.0177 24.3685 36.2229 27.0234 32.8521C27.2515 32.5624 26.447 31.6633 24.3955 29.9165C22.7693 28.5316 21.326 27.3985 21.1879 27.3985C20.8303 27.3984 17.3466 31.7611 17.3466 32.2094C17.3466 32.4147 17.827 32.8664 18.4142 33.2132C19.5892 33.9073 19.7617 34.5515 18.9522 35.2232C18.5191 35.5826 18.0986 35.4543 16.6392 34.518C15.6585 33.8885 14.8565 33.2701 14.8572 33.1438C14.8572 32.7168 16.8001 30.0277 19.0942 27.2704L21.3759 24.5286L22.2968 25.3565C22.8035 25.8119 24.3821 27.2583 25.8047 28.5707C28.2241 30.8027 29.0895 31.3563 29.0895 30.6715C29.0895 30.3196 34.7435 25.3685 36.9244 23.8107C37.8019 23.184 38.573 22.6274 38.6377 22.5739C38.8246 22.4204 34.4388 16.0109 34.1512 16.0169C34.0096 16.0205 32.8001 16.829 31.4635 17.8149L29.0339 19.6074L29.9865 20.8564C30.9177 22.0773 30.9244 22.1216 30.2815 22.8325C29.6253 23.5576 29.6189 23.5546 28.1112 21.8414C27.2796 20.8964 26.5989 20.0024 26.5989 19.8548C26.5989 19.2801 34.9648 13.2062 35.2765 13.5546C35.3477 13.6338 36.4142 15.2999 37.6464 17.257C38.8791 19.2141 39.996 20.9435 40.1288 21.1002C40.2615 21.2567 42.0354 20.5147 44.0709 19.4511C46.1063 18.3875 48.7726 17.1394 49.9957 16.6774C51.2191 16.2154 52.2197 15.6795 52.2197 15.4866C52.2197 14.9931 50.0213 8.77784 49.7245 8.43242C49.5334 8.20995 44.2004 10.0414 43.7531 10.483C43.6958 10.5396 43.9328 11.1814 44.2801 11.9092C44.8911 13.191 44.8897 13.2482 44.2271 13.7325C43.851 14.0075 43.4471 14.2325 43.3297 14.2325C43.1368 14.2325 41.1886 10.5169 41.1886 10.1491C41.1886 9.83693 48.5975 6.76514 50.5052 6.28632C51.3696 6.0694 51.4276 6.1816 52.7513 10.6197L54.1099 15.1758L56.8122 14.5265C59.4838 13.8846 62.1907 13.4019 65.4749 12.9818L67.1651 12.7655L67.1295 10.7413C67.1117 9.62792 66.99 7.8363 66.8626 6.75987C66.6644 5.08456 66.5285 4.81241 65.9193 4.86957C65.5279 4.90636 64.1063 5.0414 62.7602 5.16968L60.3127 5.4029L60.5194 7.14886C60.724 8.87615 60.7151 8.8949 59.7216 8.8949C58.7761 8.8949 58.6922 8.76765 58.2904 6.72528C58.0555 5.53198 57.9146 4.51115 57.9772 4.45669C58.2413 4.22678 62.9505 3.55342 65.8305 3.33389L68.9442 3.09644L68.9477 7.50803C68.9477 9.93438 69.0708 12.0955 69.2146 12.3105C69.3683 12.5403 71.4557 12.8018 74.28 12.9452C76.9221 13.0793 79.8045 13.3298 80.6852 13.502C81.5659 13.6741 82.3242 13.7778 82.3701 13.7324C82.4993 13.6052 83.8878 6.7411 83.8878 6.23054C83.8878 5.94118 82.9249 5.63597 81.2044 5.38011C77.482 4.82642 77.6015 4.79347 77.3817 6.43375C77.1472 8.18106 77.0368 8.31589 76.0861 8.01414C75.4925 7.82576 75.3487 7.48763 75.3526 6.29139C75.3526 5.47283 75.4569 4.43077 75.5789 3.97566C75.785 3.20573 75.9269 3.16405 77.62 3.37517C80.3095 3.71052 86.1819 4.68136 86.3232 4.81392C86.3901 4.87715 86.0069 6.81448 85.471 9.11914C84.9351 11.4238 84.4796 13.5337 84.459 13.8078C84.4341 14.1383 85.318 14.5417 87.0812 15.005C88.544 15.3893 91.3111 16.3553 93.2301 17.1518C95.1495 17.9483 96.7761 18.5381 96.8448 18.4625C97.0821 18.2016 100.257 11.835 100.257 11.6199C100.257 11.3412 98.6649 10.5224 96.3481 9.60904L94.5102 8.88463L93.9401 10.336C93.4305 11.6324 93.2722 11.7629 92.4548 11.5578C91.9516 11.4315 91.5008 11.2889 91.4527 11.2409C91.4046 11.193 91.7011 10.1596 92.1114 8.94465C92.7743 6.98214 92.943 6.76126 93.6212 6.96645C95.0968 7.4126 100.449 9.67759 101.763 10.4124L103.093 11.1553L101.435 14.2064C100.523 15.8845 99.4939 17.7668 99.1473 18.3894L98.5168 19.5215L101.233 21.2145C102.727 22.1457 105.203 23.8522 106.735 25.0067L109.521 27.1058L111.059 25.3842C111.905 24.4373 113.103 23.0806 113.722 22.3693L114.848 21.0759L112.324 19.0106L109.799 16.9454L108.675 18.2504C107.643 19.4487 107.495 19.5128 106.866 19.0333C106.261 18.5722 106.237 18.4078 106.654 17.6272C106.914 17.1409 107.543 16.2461 108.051 15.6386L108.975 14.534L111.999 16.857C113.663 18.1346 115.585 19.6583 116.27 20.243L117.515 21.3061L116.092 22.8315C115.309 23.6705 114.582 24.441 114.477 24.5436C114.372 24.6462 113.508 25.5721 112.558 26.6011L110.829 28.4721L112.988 30.6933C115.414 33.1889 117.091 35.1775 118.405 37.1136C118.894 37.835 119.421 38.4262 119.575 38.4275C119.729 38.4275 121.295 37.4618 123.055 36.2784C125.127 34.8856 126.166 33.9758 126.003 33.6986C125.307 32.5126 122.594 29.178 122.325 29.178C122.156 29.178 121.548 29.5732 120.974 30.0561L119.93 30.9343L119.18 30.1351L118.429 29.3359L120.21 27.8017C121.672 26.5424 122.085 26.3452 122.514 26.7015C123.171 27.2468 126.529 31.7124 127.768 33.6883L128.699 35.174L127.021 36.1562C126.099 36.6964 124.276 37.8282 122.972 38.6713L120.6 40.2042L122.502 43.854C124.14 46.9985 125.015 48.9633 125.98 51.6654C126.174 52.2087 126.569 52.1437 129.951 51.0112C132.016 50.3196 133.706 49.617 133.706 49.4498C133.706 48.6586 131.768 44.0401 131.372 43.8883C131.125 43.7936 130.414 43.9797 129.79 44.3018C129.168 44.624 128.614 44.8357 128.561 44.7724C128.508 44.709 128.279 44.3009 128.053 43.8656C127.668 43.1259 127.783 43.0024 129.8 41.9841L131.959 40.8942L132.97 43.1316C133.526 44.3621 134.426 46.6245 134.969 48.159C135.761 50.3968 135.863 51.0069 135.484 51.241C135.224 51.4016 133.197 52.0676 130.98 52.721C128.762 53.3745 126.947 54.089 126.946 54.3088C126.946 54.5286 127.26 55.9698 127.646 57.5114C128.032 59.0529 128.535 61.8636 128.765 63.7572L129.183 67.2002L132.423 67.0266C137.675 66.7452 137.4 66.915 137.116 64.1209C136.709 60.1226 136.713 60.128 134.968 60.3671C133.601 60.5544 133.434 60.4946 133.238 59.7482C133.12 59.2937 133.08 58.8641 133.151 58.7936C133.221 58.723 134.214 58.4479 135.356 58.1823C136.787 57.8498 137.505 57.816 137.665 58.0739C137.87 58.4058 138.361 61.9776 138.889 66.9865L139.068 68.6768L137.009 68.6803C135.877 68.6803 133.63 68.7853 132.015 68.911L129.08 69.1395V72.3877C129.08 75.0005 128.651 80.0152 128.261 81.9485C128.204 82.2355 135.831 84.0709 136.097 83.8337C136.306 83.6462 137.138 77.5663 136.977 77.4046C136.874 77.302 136.176 77.218 135.426 77.218C134.148 77.218 134.062 77.151 134.062 76.1505C134.062 75.2222 134.189 75.0834 135.04 75.0869C135.579 75.0904 136.638 75.193 137.394 75.318L138.769 75.5451L138.524 78.0718C138.259 80.8035 137.381 85.7604 137.115 86.0259C137.025 86.1159 134.944 85.7423 132.489 85.1956C130.035 84.6489 127.937 84.2916 127.827 84.4016C127.717 84.5116 127.296 85.7722 126.891 87.203C126.486 88.6337 125.532 91.3292 124.771 93.193C124.009 95.0567 123.386 96.6296 123.386 96.6883C123.386 96.8726 130.027 99.9918 130.419 99.9918C130.762 99.9918 132.994 95.1259 132.994 94.3794C132.994 94.201 132.354 93.8632 131.571 93.6287C130.021 93.1643 129.911 92.9786 130.616 92.0146C131.067 91.3982 131.161 91.3981 133.107 92.011C134.219 92.3617 135.129 92.8284 135.129 93.0482C135.129 93.7973 131.615 102.113 131.013 102.789C130.95 102.86 129.045 101.931 126.781 100.725C124.516 99.5193 122.53 98.615 122.367 98.7156C122.205 98.8162 121.463 99.9395 120.719 101.212C119.975 102.484 118.326 104.84 117.055 106.448L114.744 109.37L115.644 110.107C116.139 110.513 117.515 111.693 118.7 112.731L120.856 114.617L122.497 112.553C124.998 109.404 124.995 109.415 123.562 108.53C122.14 107.651 122.073 107.441 122.96 106.638C123.558 106.097 123.725 106.142 125.461 107.311C126.634 108.101 127.23 108.723 127.072 108.993C126.465 110.031 121.908 115.944 121.271 116.52C120.584 117.142 120.482 117.078 117.103 113.943L113.639 110.729L111.129 113.062C109.748 114.345 107.458 116.272 106.039 117.344C104.62 118.416 103.459 119.355 103.459 119.431C103.459 119.675 107.805 125.968 107.973 125.968C108.193 125.968 110.863 124.079 112.177 122.993L113.245 122.112L112.194 121.009L111.142 119.906L111.896 119.152L112.649 118.399L113.836 119.74C115.688 121.83 115.763 122.068 114.804 122.839C113.251 124.088 108.988 127.23 108.002 127.853L107.028 128.468L105.135 125.528C104.094 123.91 102.947 122.086 102.587 121.473L101.933 120.359L97.9812 122.41C95.8077 123.538 93.2289 124.747 92.2503 125.095C91.2717 125.444 90.3188 125.863 90.133 126.027C89.6879 126.418 92.1027 133.44 92.6819 133.44C92.9193 133.44 93.9602 133.104 94.9949 132.693C96.0297 132.281 97.2267 131.808 97.6549 131.642C98.4167 131.346 98.4214 131.308 97.857 129.871C97.3599 128.606 97.3506 128.358 97.7901 128.081C98.0701 127.903 98.4665 127.755 98.6704 127.752C99.054 127.747 101.113 131.636 100.86 131.889C100.543 132.205 92.8039 135.234 91.7964 135.435L90.715 135.651L89.8207 132.678C89.3286 131.042 88.7279 129.024 88.4856 128.192C88.2433 127.36 88.0276 126.68 88.0059 126.68C87.9846 126.68 86.2089 127.077 84.0603 127.562C81.9117 128.048 78.9707 128.552 77.5249 128.683L74.8959 128.921L75.0799 132.8C75.1809 134.933 75.351 136.765 75.4581 136.872C75.5652 136.979 77.0452 136.951 78.7469 136.809L81.8409 136.552L81.6356 134.818C81.452 133.266 81.5028 133.085 82.1252 133.085C82.5074 133.085 82.9404 133.045 83.087 132.996C83.4383 132.879 84.2735 137.112 83.9549 137.396C83.671 137.65 79.4354 138.293 76.02 138.601L73.6672 138.813L73.4441 137.461L73.4455 137.459ZM76.5947 127.382C89.7972 125.909 101.128 120.662 110.356 111.747C122.707 99.8159 128.697 84.2108 127.594 66.8343C126.75 53.5275 120.875 40.5685 111.311 30.9168C96.3434 15.8108 73.8818 10.3886 53.4651 16.9518C49.712 18.1584 42.7036 21.5572 39.5874 23.6818C32.3504 28.6163 26.6036 34.6627 22.3585 41.8096C11.1121 60.7438 11.7582 84.2967 24.0271 102.642C27.1549 107.319 34.0942 114.346 38.7617 117.562C49.7625 125.142 63.8673 128.802 76.5955 127.382L76.5947 127.382Z" fill="#99999B"/>
</svg>
