<svg width="60" viewBox="0 0 80 113" fill="none" xmlns="http://www.w3.org/2000/svg">
<circle cx="40" cy="73" r="40" fill="#2B2C31" fill-opacity="0.75"/>
<path fill-rule="evenodd" clip-rule="evenodd" d="M30.6411 40.4296C31.0809 39.7076 31.5878 38.9582 32.1118 38.3503L32.6532 37.7222L32.8963 37.7278C33.1731 37.2246 33.452 36.7223 33.7275 36.218C33.9069 35.8897 34.2014 35.3948 34.342 35.0304C34.529 33.562 34.9415 30.8169 35.915 29.8437C35.9617 29.7936 36.0088 29.7362 36.0562 29.6754L35.9597 26.9529C34.6953 26.4336 33.5732 25.4959 33.1581 24.1898C33.1234 24.0809 33.0813 23.9543 33.0369 23.8184L31.5708 23.4814L31.9555 20.582C31.4639 19.9819 31.0836 19.1727 30.954 18.4249L30.8645 17.9083C29.5554 16.7718 28.3902 14.9107 27.8839 13.3557C27.4551 12.0353 27.5082 10.1851 27.7533 8.82557L28.2917 5.84197L30.6087 7.79364C31.484 8.522 32.7637 9.22432 33.7933 9.67984C33.9012 9.7276 34.0344 9.7837 34.1834 9.84248C34.2585 9.36792 34.3767 8.9094 34.499 8.51165L37.1176 0L37.9147 8.77047C37.9471 8.87433 38.0106 9.00157 38.0714 9.11144C38.3328 9.25338 38.8174 9.42002 39.0522 9.51754C39.9409 9.8859 40.7711 10.3054 41.5866 10.8183C43.5533 12.0553 45.6132 14.9047 46.1756 17.1552C46.3255 17.7547 46.2968 18.3511 46.0042 18.9055C45.9007 19.1019 45.7918 19.2418 45.684 19.36L46.8128 19.367L46.3269 24.2028L45.2535 24.2849C44.9155 25.2651 44.288 26.1564 43.4444 26.7188C43.1769 26.8972 42.8704 27.0869 42.5431 27.2545C43.6712 27.7107 44.4624 29.0649 43.9273 30.2855C43.9514 30.4121 43.9654 30.5447 43.9681 30.688C44.1685 31.1375 44.2296 31.6621 44.1478 32.1751C44.101 32.4626 44.0072 32.7508 43.8759 33.025C43.9253 33.4294 43.8632 33.8536 43.6712 34.2563C43.4127 34.8 42.878 35.484 42.4419 36.0243C43.046 36.4057 43.4778 37.0072 43.7006 37.8965C43.7243 37.9917 43.7483 38.0865 43.7731 38.181C43.8793 38.2391 43.9848 38.2976 44.0896 38.357L44.2172 38.4292L44.3311 38.5217C44.6968 38.8186 45.0625 39.1158 45.4278 39.413C61.5648 41.9257 73.5349 55.889 73.5349 72.2824C73.5349 90.6519 58.637 105.55 40.2675 105.55C21.898 105.55 7 90.6519 7 72.2824C7 57.6018 16.6378 44.6535 30.6411 40.4296Z" fill="#FBFBFC"/>
<path fill-rule="evenodd" clip-rule="evenodd" d="M44.6947 41.0779C60.0008 43.2302 71.7806 56.3833 71.7806 72.2821C71.7806 89.6831 57.6691 103.795 40.2677 103.795C22.8667 103.795 8.75488 89.6831 8.75488 72.2821C8.75488 57.8146 18.5092 45.6211 31.7985 41.9204C32.6852 40.3725 33.4412 39.4956 33.4412 39.4956L33.9255 39.5069C35.0269 37.4584 36.0127 35.809 36.0675 35.3748C36.1403 34.7921 36.5768 31.6628 37.1592 31.0808C37.3122 30.9281 37.55 30.6049 37.8312 30.2108L37.6685 25.6218C37.6685 25.6218 35.3395 25.2585 34.8302 23.6568C34.5169 22.674 34.4511 22.4038 34.4468 22.342L33.5204 22.1289L33.6653 21.0366L34.9758 21.0456C34.9758 21.0456 33.9929 20.2003 33.4108 19.5815C32.8284 18.963 32.6831 18.1251 32.6831 18.1251L33.2292 18.6354C33.7745 19.1447 34.7934 19.1447 34.7934 19.1447L34.6475 17.9077C34.6475 17.9077 33.4833 17.6522 32.3552 16.852C31.2274 16.0515 30.0265 14.2679 29.5529 12.8131C29.0801 11.3571 29.4805 9.13688 29.4805 9.13688C29.4805 9.13688 30.8634 10.3017 33.0832 11.2839C35.3027 12.2664 36.3951 12.0848 36.3951 12.0848L35.9944 11.5023C35.594 10.9206 36.1764 9.02734 36.1764 9.02734C36.1764 9.02734 36.2128 9.42809 36.6489 10.1561C37.0864 10.8838 38.3959 10.8838 40.6528 12.3035C42.9087 13.7222 44.2552 16.7064 44.4736 17.5801C44.6917 18.4534 43.8915 18.1251 43.3452 19.7268C43.0904 20.3089 43.272 21.0993 43.272 21.0993L44.8744 21.1094L44.7281 22.5651L43.7823 22.6376C43.7823 22.6376 43.7823 24.3848 42.4719 25.2585C41.1617 26.1311 40.7249 25.9862 40.7249 25.9862L40.6962 27.5915C40.9029 27.8079 40.8665 28.2211 40.6788 28.5724L40.6545 29.9286C40.8518 29.7506 41.0492 29.5292 41.2345 29.261C41.8898 28.3152 42.6175 29.3338 42.1807 29.771C41.7438 30.2075 42.2144 30.2525 42.2144 30.7455C42.2144 31.2384 42.1964 31.2384 42.1964 31.2384C42.1964 31.2384 42.5063 31.3292 42.4158 31.895C42.3239 32.4613 41.8504 32.8447 41.8504 32.8447C41.8504 32.8447 42.2875 33.0822 42.0871 33.502C41.8874 33.9221 40.8665 35.1818 40.8665 35.1818C40.8665 35.1818 40.747 35.1534 40.5609 35.1547L40.5235 37.2443C41.1998 37.3004 41.7689 37.404 41.9986 38.322C42.0765 38.6333 42.1723 39.0013 42.2889 39.38C42.8332 39.6615 43.2256 39.8836 43.2256 39.8836C43.2256 39.8836 43.8007 40.3505 44.6947 41.0779Z" fill="white"/>
<path fill-rule="evenodd" clip-rule="evenodd" d="M40.1007 40.3162C57.5021 40.3162 71.6136 54.4277 71.6136 71.829C71.6136 89.2304 57.5021 103.342 40.1007 103.342C22.6997 103.342 8.58789 89.2304 8.58789 71.829C8.58789 54.4277 22.6997 40.3162 40.1007 40.3162Z" fill="#3F2828"/>
<path fill-rule="evenodd" clip-rule="evenodd" d="M41.6228 47.8976C42.6223 47.9577 43.6048 48.0783 44.568 48.2556L45.6266 44.3045L48.7659 45.1458L47.7176 49.0578C48.6707 49.3704 49.5974 49.7401 50.4948 50.1632L52.4975 46.6943L55.3118 48.3187L53.3345 51.7432C54.2108 52.3109 55.0483 52.9324 55.8422 53.6047L58.8742 50.5723L61.1725 52.8703L58.1772 55.8659C58.9062 56.6717 59.5822 57.5274 60.199 58.426L63.7053 56.4016L65.3303 59.2155L61.8555 61.2216C62.3935 62.286 62.8553 63.3954 63.234 64.5422L67.0035 63.5326L67.8447 66.6715L64.0432 67.6898C64.2119 68.5951 64.3308 69.5175 64.3959 70.4546L68.4378 70.4543L68.4381 73.7044H64.4086C64.3478 74.6782 64.2299 75.6367 64.0573 76.5758L67.8604 77.595L67.0195 80.7336L63.2577 79.726C62.9221 80.7526 62.52 81.7495 62.0562 82.7113L65.6402 84.7809L64.0152 87.5951L60.4515 85.5376C59.8567 86.4393 59.2031 87.2996 58.4965 88.1124L61.5863 91.2019L59.2883 93.5006L56.2062 90.4185C55.5189 91.0239 54.7975 91.5913 54.0445 92.117L56.0996 95.6763L53.285 97.3014L51.2616 93.7961C50.3909 94.245 49.4899 94.6427 48.5622 94.9854L49.6335 98.9832L46.4939 99.8244L45.4436 95.9041C44.3122 96.1559 43.151 96.3289 41.9661 96.4167V100.479H38.716V96.4421C37.6179 96.3783 36.5392 96.242 35.4849 96.0373L34.4283 99.9794L31.2894 99.1388L32.3434 95.2051C31.3144 94.8568 30.3166 94.4417 29.3548 93.9644L27.2708 97.5735L24.4566 95.9485L26.5461 92.329C25.6882 91.7493 24.869 91.1161 24.0935 90.4345L21.3387 93.1893L19.0407 90.891L21.8002 88.1311C21.1527 87.3881 20.5496 86.605 19.9948 85.7864L16.4188 87.8513L14.7941 85.0367L18.3568 82.9798C17.968 82.198 17.6201 81.3925 17.3155 80.5659L13.1881 81.672L12.3472 78.5331L16.4001 77.4471C16.155 76.3403 15.985 75.2055 15.8968 74.0477H11.7617V70.7976H15.8634C15.9262 69.6738 16.0658 68.5708 16.2762 67.4927L12.1852 66.3967L13.0264 63.2571L17.1098 64.3512C17.4344 63.3957 17.8164 62.4676 18.2519 61.5699L14.7607 59.5542L16.3854 56.7395L19.8633 58.748C20.4156 57.9157 21.0174 57.1189 21.6653 56.3625L18.9693 53.6664L21.2672 51.3685L23.9393 54.0401C24.8015 53.269 25.7189 52.5584 26.6854 51.9151L24.6503 48.3899L27.4642 46.7648L29.505 50.2994C30.4812 49.8236 31.4944 49.4108 32.5387 49.0675L31.4938 45.1678L34.6327 44.3269L35.687 48.262C36.5663 48.099 37.4626 47.9831 38.3727 47.9176V43.8022H41.6228V47.8976V47.8976Z" stroke="#FBFBFC" stroke-width="0.5"/>
<path fill-rule="evenodd" clip-rule="evenodd" d="M39.874 49.6284C52.3771 49.6284 62.5165 59.7678 62.5165 72.2709C62.5165 84.7741 52.3771 94.9135 39.874 94.9135C27.3708 94.9135 17.2314 84.7741 17.2314 72.2709C17.2314 59.7678 27.3708 49.6284 39.874 49.6284Z" fill="#FBFBFC"/>
<path fill-rule="evenodd" clip-rule="evenodd" d="M39.8732 51.3601C51.4198 51.3601 60.7838 60.7237 60.7838 72.2704C60.7838 83.8171 51.4198 93.181 39.8732 93.181C28.3265 93.181 18.9629 83.8171 18.9629 72.2704C18.9629 60.7237 28.3265 51.3601 39.8732 51.3601Z" fill="#26262D"/>
<path fill-rule="evenodd" clip-rule="evenodd" d="M40.1026 41.502C56.8488 41.502 70.4292 55.0821 70.4292 71.8282C70.4292 88.5743 56.8488 102.155 40.1026 102.155C23.3565 102.155 9.77637 88.5743 9.77637 71.8282C9.77637 55.0821 23.3565 41.502 40.1026 41.502V41.502Z" stroke="#FBFBFC" stroke-width="0.2"/>
<path fill-rule="evenodd" clip-rule="evenodd" d="M54.0474 58.3479C57.4224 61.8385 59.4996 66.591 59.4996 71.8285C59.4996 77.2918 57.239 82.2274 53.6035 85.753L52.1982 84.3477C55.4744 81.1818 57.5122 76.7431 57.5122 71.8285C57.5122 67.1414 55.6584 62.8861 52.6447 59.7562L54.0474 58.3479ZM27.1211 86.2409C23.1818 82.6899 20.7041 77.5483 20.7041 71.8285C20.7041 66.768 22.6441 62.1601 25.819 58.7062L27.2931 60.0391C24.4368 63.1402 22.6915 67.2807 22.6915 71.8285C22.6915 76.9996 24.9481 81.644 28.5288 84.833L27.1211 86.2409Z" fill="#F8C300"/>
<path fill-rule="evenodd" clip-rule="evenodd" d="M40.1962 45.8387L38.2305 45.6924L37.5031 25.1685C37.5031 25.1685 35.1737 24.8048 34.6644 23.2032C34.1552 21.6025 34.3004 21.893 34.3004 21.893L33.355 21.6753L33.4999 20.5833L44.709 20.6561L44.5627 22.1118L43.6169 22.1843C43.6169 22.1843 43.6169 23.9312 42.3065 24.8048C40.996 25.6778 40.5595 25.5325 40.5595 25.5325L40.1962 45.8387Z" fill="#C39229"/>
<path fill-rule="evenodd" clip-rule="evenodd" d="M27.4053 90.3582C27.7369 89.9895 28.0011 89.7611 28.1113 89.7978C28.5484 89.9441 28.9846 89.9441 29.203 89.5798C29.4217 89.2157 29.7851 88.8514 29.6395 88.1965C29.4942 87.5413 30.9496 84.7026 30.9496 84.7026C30.9496 84.7026 32.4785 84.8485 32.6237 84.3392C32.7697 83.83 33.1334 80.4085 33.0609 79.1712C32.9878 77.9346 31.3864 75.9695 31.0955 74.6591C30.8047 73.3493 28.8396 68.6181 29.6395 62.9411C30.4403 57.2641 29.7123 55.9543 29.7123 52.3882C29.7123 48.8215 31.1687 44.2369 32.6237 41.2527C34.0795 38.2687 35.8261 35.5029 35.8992 34.9211C35.972 34.338 36.4085 31.2091 36.9909 30.6267C37.5734 30.0446 39.3924 26.9875 40.1205 26.9875C40.8482 26.9875 40.775 27.8612 40.3386 28.3708C39.9017 28.8798 38.7376 29.9718 39.1744 30.0446C39.6105 30.1168 40.4117 29.7534 41.0663 28.807C41.7215 27.8612 42.4492 28.8798 42.0124 29.3169C41.5755 29.7534 42.0461 29.7988 42.0461 30.2914C42.0461 30.7847 42.0281 30.7847 42.0281 30.7847C42.0281 30.7847 42.338 30.8755 42.2475 31.4412C42.1556 32.0076 41.6821 32.3907 41.6821 32.3907C41.6821 32.3907 42.1192 32.6281 41.9189 33.0479C41.7192 33.4681 40.6979 34.7277 40.6979 34.7277C40.6979 34.7277 39.8293 34.5207 39.1376 35.2481C38.4463 35.9758 37.9731 36.4129 37.9731 36.4129C37.9731 36.4129 38.8832 36.6313 39.7932 36.7405C40.7022 36.8497 41.5391 36.7041 41.8304 37.8683C42.1219 39.0328 42.6679 40.9979 43.5776 41.3255C44.4874 41.6534 48.9264 45.4739 51.1105 47.439C53.2939 49.4043 54.3849 50.8597 54.5305 51.5149C54.6765 52.1698 54.3128 57.9924 53.876 59.521C53.4388 61.0488 51.8375 65.9985 51.4745 67.0899C51.1105 68.1816 49.9456 67.9638 50.3093 69.4186C50.6733 70.8743 50.3093 76.0427 49.5094 78.3714C48.7083 80.6994 48.6351 81.4278 49.0723 82.8107C49.3445 83.6713 50.5187 87.409 51.5596 91.0388C48.1803 93.0456 44.2349 94.1981 40.02 94.1981C35.3502 94.1981 31.0104 92.7821 27.4053 90.3582ZM44.1965 62.9411L46.8892 60.0306C46.8892 60.0306 47.9078 55.8815 48.3446 55.445C48.7811 55.0085 49.0723 54.7173 49.0723 54.7173L48.8542 53.4072C48.8542 53.4072 44.1965 48.6763 43.5409 46.9293C42.886 45.1827 42.4492 44.8922 41.5034 44.3822C40.5566 43.8726 39.6837 43.0724 39.1744 42.7081C38.6647 42.3444 38.4099 41.8715 38.3368 41.6534C38.265 41.4343 38.8832 41.1795 38.8832 41.1795C38.8832 41.1795 38.1919 41.1795 37.937 41.0346C37.6819 40.8883 37.4274 39.9065 37.6455 39.8333C37.8646 39.7609 38.1919 39.7245 38.1919 39.7245L37.2458 39.5421C37.2458 39.5421 35.4988 46.3108 35.3899 47.1477C35.2804 47.985 35.5716 48.3854 35.5716 48.3854C35.5716 48.3854 35.8992 48.7494 36.1537 48.8947C36.4085 49.0406 39.0288 49.077 40.1933 49.077C41.3575 49.077 42.2308 49.1856 42.3767 49.6595C42.5217 50.1323 42.9448 50.4039 42.9448 50.4039C42.9448 50.4039 43.7957 50.3865 44.1233 50.9692C44.4503 51.551 44.8874 51.2237 44.9238 52.1338C44.9606 53.0428 45.215 54.754 44.9238 56.5C44.633 58.2469 43.7957 58.9021 43.7957 59.8115C43.7957 60.7212 43.3228 61.0856 44.1965 62.9411ZM36.7719 60.9767C35.5349 60.4667 35.2437 59.7387 35.2437 58.9389C35.2437 58.1377 35.3899 51.879 35.3899 51.879C35.3899 51.879 36.5538 51.879 36.6276 52.6067C36.6994 53.334 35.972 57.3372 36.3364 57.9924C36.6994 58.647 37.4274 59.011 37.4274 59.011C37.4274 59.011 37.6455 61.3401 36.7719 60.9767Z" fill="#C2C1C1"/>
<path fill-rule="evenodd" clip-rule="evenodd" d="M43.1773 19.2731C43.7236 17.6714 44.5238 17.9997 44.3057 17.1264C44.0873 16.2527 42.7405 13.2685 40.4849 11.8498C38.228 10.4305 36.9185 10.4305 36.481 9.70243C36.0449 8.97439 36.0085 8.57397 36.0085 8.57397C36.0085 8.57397 35.4261 10.4669 35.8265 11.049C36.2272 11.631 36.2272 11.6311 36.2272 11.6311C36.2272 11.6311 35.1349 11.8127 32.915 10.8305C30.6955 9.84803 29.3126 8.68352 29.3126 8.68352C29.3126 8.68352 28.9122 10.9033 29.3851 12.3594C29.8586 13.8145 31.0595 15.5978 32.1873 16.3983C33.3154 17.1988 34.4796 17.454 34.4796 17.454L34.6256 18.691C34.6256 18.691 33.6067 18.691 33.0613 18.1817C32.5149 17.6714 32.5149 17.6714 32.5149 17.6714C32.5149 17.6714 32.6605 18.5093 33.243 19.1281C33.8251 19.747 34.8079 20.5919 34.8079 20.5919L43.1041 20.646C43.1041 20.646 42.9225 19.8555 43.1773 19.2731Z" fill="#F8C300"/>
<path fill-rule="evenodd" clip-rule="evenodd" d="M37.8647 53.8811C39.2837 53.4804 40.2659 53.9533 40.2659 53.9533C40.2659 53.9533 40.2659 55.3726 40.3023 55.6271C40.3387 55.8819 41.4668 55.773 41.5393 55.9914C41.6121 56.2095 40.6299 56.3551 40.1935 56.2826C39.7563 56.2095 40.0468 54.7458 39.8465 54.8366C39.6468 54.9281 38.526 55.0557 38.2618 54.874C37.9977 54.6913 37.8647 53.8811 37.8647 53.8811Z" fill="#838281"/>
<path fill-rule="evenodd" clip-rule="evenodd" d="M41.5615 53.8054C41.5709 54.3254 41.5522 54.7362 41.644 54.9098C41.7342 55.0832 42.9097 55.0461 43.247 55.0194C43.584 54.992 43.7566 53.924 43.7566 53.924C43.7566 53.924 42.8917 53.6588 41.5615 53.8054Z" fill="#838281"/>
<path fill-rule="evenodd" clip-rule="evenodd" d="M37.3282 61.2717C37.3282 61.2717 38.458 62.0932 39.4415 62.1664C40.426 62.2392 40.754 61.7827 40.9176 61.418C41.0812 61.0526 41.6647 60.8703 42.3209 60.7791C42.9765 60.6876 43.3772 59.5191 43.3772 59.4095C43.3772 59.3 43.1588 59.7382 41.7742 59.7569C40.3893 59.7746 38.9319 59.3912 38.476 59.0809C38.0202 58.771 38.0025 57.5838 38.1481 57.164C38.2943 56.7439 38.1848 56.6163 38.0385 56.3064C37.8929 55.9955 38.0255 54.0421 38.0255 54.0421C38.0255 54.0421 37.943 52.7277 38.0255 52.5543C38.1077 52.381 38.6944 51.3768 39.2051 51.2128C39.7153 51.0485 41.2095 50.9937 41.2095 50.9937L41.9559 51.0665C41.9559 51.0665 41.7742 50.409 41.1364 50.409C40.4985 50.409 39.1135 50.5556 38.2943 50.7012C37.4741 50.8475 35.2146 50.3549 35.2146 50.3549L34.6138 49.8796C34.6138 49.8796 35.3054 50.9383 35.7429 51.2669C36.1804 51.5955 36.3808 52.022 36.5721 52.4024C36.7635 52.7821 36.2856 56.2112 36.2856 56.2112C36.2856 56.2112 36.1657 57.2932 36.2512 57.6429C36.337 57.9922 36.8166 58.6094 37.0356 58.7596C37.2541 58.9106 37.4281 59.0108 37.4281 59.0108L37.3429 60.5898L37.3282 61.2717Z" fill="#838281"/>
<path fill-rule="evenodd" clip-rule="evenodd" d="M34.3364 66.4358C34.845 68.0732 34.3725 69.1642 35.5006 69.5647C36.6294 69.9651 40.7769 69.5283 41.7233 69.5647C42.6697 69.6014 42.2693 68.4729 42.7793 68.6553C43.2882 68.837 43.3246 69.8555 44.0523 70.0372C44.7797 70.2199 48.492 70.8017 48.492 70.8017L49.1108 69.6014C49.1108 69.6014 46.8543 68.5093 45.5809 68.5093C44.3072 68.5093 44.1983 68.2549 44.1983 68.2549C44.1983 68.2549 43.7975 67.0176 42.7419 67.2356C41.6869 67.4537 41.7964 68.0001 41.5774 68.1817C41.3593 68.3644 36.5556 68.6553 36.0824 68.5461C35.6098 68.4365 34.3364 66.4358 34.3364 66.4358Z" fill="#838281"/>
<path fill-rule="evenodd" clip-rule="evenodd" d="M31.4267 61.9226C31.3539 63.3049 31.0991 63.6692 31.936 63.7053C32.7732 63.7424 33.9374 63.2685 33.9374 63.2685C33.9374 63.2685 33.4077 62.7979 32.6353 62.8146C31.8628 62.8323 31.4267 61.9226 31.4267 61.9226Z" fill="#838281"/>
<path fill-rule="evenodd" clip-rule="evenodd" d="M37.8647 71.1296C38.0825 72.2578 38.0825 73.2396 38.556 73.3852C39.0289 73.5311 39.7202 72.1482 40.4847 71.9655C41.2481 71.7839 44.924 71.857 45.6881 72.1846C46.4522 72.5122 47.1074 73.6764 47.581 73.8945C48.0535 74.1136 48.4179 73.4216 48.0535 72.9851C47.6895 72.5483 46.4522 71.1654 42.9954 71.3113C39.5382 71.4566 39.1378 72.1482 38.8833 72.3663C38.6282 72.5844 37.8647 71.1296 37.8647 71.1296Z" fill="#838281"/>
<path fill-rule="evenodd" clip-rule="evenodd" d="M27.4053 90.3581C27.7369 89.9894 28.0011 89.761 28.1113 89.7977C28.5484 89.944 28.9846 89.944 29.203 89.5796C29.4217 89.2156 29.7851 88.8512 29.6395 88.1964C29.4942 87.5411 30.9496 84.7025 30.9496 84.7025C30.9496 84.7025 32.4785 84.8484 32.6237 84.3391C32.7697 83.8298 33.1334 80.4084 33.0609 79.1711C32.9878 77.9344 31.3864 75.9694 31.0955 74.6589C30.8895 73.7305 29.8425 71.0842 29.5346 67.6023C29.8986 67.3896 30.2302 67.2767 30.477 67.3449C31.532 67.6357 32.5877 67.3081 32.9514 66.3624C33.315 65.4162 33.5334 64.761 33.643 65.1611C33.7525 65.5612 35.3532 69.528 35.0981 70.3649C34.8432 71.2021 32.6237 71.1296 33.279 72.5483C33.9339 73.9676 34.6252 74.6225 35.2437 74.877C35.8625 75.1325 38.628 76.7692 38.3735 79.645C38.1187 82.5194 37.4274 85.6492 37.4274 85.6492C37.4274 85.6492 39.322 77.4752 39.6837 73.8945C39.9378 75.2414 37.6819 86.4858 37.6819 86.4858L43.1405 87.5411L46.962 75.2778C46.962 75.2778 44.2322 86.5589 44.1233 87.2499C44.0145 87.9415 43.8321 87.2866 43.8685 89.0329C43.8922 90.1627 43.9771 92.0683 44.2893 93.7955C42.9067 94.0597 41.4794 94.198 40.02 94.198C35.3502 94.198 31.0104 92.782 27.4053 90.3581Z" fill="#838281"/>
<path fill-rule="evenodd" clip-rule="evenodd" d="M46.9126 59.9388L48.3089 62.6502C48.3089 62.6502 48.1997 59.0114 48.9271 57.3739C49.6555 55.7365 50.31 55.0456 50.31 55.0456C50.31 55.0456 51.2565 53.8443 50.82 53.0795C50.3828 52.3158 50.4924 52.607 48.7818 50.3514C47.0716 48.0945 47.2536 47.8397 46.7072 46.748C46.1616 45.6559 45.9067 45.0378 44.1241 44.0185C42.3411 42.9996 41.1685 42.2101 38.6802 42.2409C38.8067 42.3988 38.9704 42.5628 39.1751 42.7084C39.6844 43.0728 40.5574 43.8729 41.5041 44.3825C42.4499 44.8925 42.8867 45.1831 43.5416 46.9297C44.1972 48.6766 48.8549 53.4075 48.8549 53.4075L49.073 54.7176C49.073 54.7176 48.7818 55.0088 48.3453 55.4453C47.9469 55.8441 47.0653 59.3269 46.9126 59.9388Z" fill="#838281"/>
<path fill-rule="evenodd" clip-rule="evenodd" d="M39.9038 57.1597L39.9953 57.7077L41.6538 57.7258L41.6898 57.1597C41.6898 57.1597 40.7785 56.8498 39.9038 57.1597Z" fill="#838281"/>
<path fill-rule="evenodd" clip-rule="evenodd" d="M40.4883 57.8346C40.4903 57.713 40.5614 58.4013 40.5614 58.4013L41.3085 58.3646L41.3152 57.7217L40.4883 57.8346Z" fill="#838281"/>
<path fill-rule="evenodd" clip-rule="evenodd" d="M41.1254 51.4326C42.3287 51.475 43.1101 51.5382 43.4057 51.7071C43.7013 51.8768 43.5112 52.7868 42.7301 52.8924C41.9486 52.9979 41.3796 52.9772 41.1889 52.702C40.9985 52.4268 41.1254 51.4326 41.1254 51.4326Z" fill="#DEDEDD"/>
<path fill-rule="evenodd" clip-rule="evenodd" d="M43.0049 65.3511C43.1315 66.2815 44.1447 66.4091 44.5672 67.0436C44.9893 67.6782 47.0575 68.1006 47.4375 67.6782C47.8183 67.255 47.0575 65.9853 46.5512 65.7743C46.0443 65.5622 43.3001 64.5897 43.0049 65.3511Z" fill="#DEDEDD"/>
<path fill-rule="evenodd" clip-rule="evenodd" d="M34.0617 38.8792C35.0446 36.9737 35.9516 35.0183 36.5421 35.0607C37.1328 35.1031 37.7934 34.9014 37.2734 35.6739C36.7531 36.4463 34.6422 40.6025 34.4308 41.0259C34.22 41.4491 33.3016 40.1483 34.0617 38.8792Z" fill="#DEDEDD"/>
<path fill-rule="evenodd" clip-rule="evenodd" d="M39.7683 37.1987C40.5712 37.4746 41.1626 37.2932 41.2995 37.685C41.4368 38.0771 41.753 38.4688 41.204 38.3412C40.6557 38.214 39.7583 37.5377 39.4731 37.3998C39.1886 37.2625 39.7683 37.1987 39.7683 37.1987Z" fill="#DEDEDD"/>
<path fill-rule="evenodd" clip-rule="evenodd" d="M37.387 37.0069C37.3239 37.4511 37.6401 37.5774 38.2312 37.6622C38.8227 37.747 39.6038 38.0856 39.6038 38.0856C39.6038 38.0856 37.4227 37.8352 37.2327 37.6658C37.0427 37.4972 37.2066 36.8784 37.387 37.0069Z" fill="#4D4948"/>
<path fill-rule="evenodd" clip-rule="evenodd" d="M36.9923 38.6262C36.9082 39.2073 36.9623 39.3319 37.3407 39.4828C37.7184 39.6338 39.2199 39.8529 39.2199 39.8529C39.2199 39.8529 37.5624 39.2815 37.3938 39.1549C37.2248 39.028 37.1934 38.489 37.1934 38.489C37.1934 38.489 36.9292 38.3614 36.9923 38.6262Z" fill="#4D4948"/>
<path fill-rule="evenodd" clip-rule="evenodd" d="M40.6789 17.4621C40.8903 14.2467 38.9487 12.978 37.893 12.3428C36.8374 11.7083 36.8374 11.7083 36.8374 11.7083C36.8374 11.7083 40.4852 15.4082 40.6789 17.4621Z" fill="#FFF974"/>
<path fill-rule="evenodd" clip-rule="evenodd" d="M24.7568 58.5849L27.4693 61.0602L28.5105 57.3716L24.7568 58.5849Z" fill="#F8C300"/>
<path fill-rule="evenodd" clip-rule="evenodd" d="M54.7778 85.6806L52.0657 83.2053L51.0244 86.8939L54.7778 85.6806Z" fill="#F8C300"/>
</svg>
