<?xml version="1.0" encoding="UTF-8"?>
<!DOCTYPE svg PUBLIC "-//W3C//DTD SVG 1.1//EN" "http://www.w3.org/Graphics/SVG/1.1/DTD/svg11.dtd">
<!-- Creator: CorelDRAW 2020 (64-Bit Оценочная версия) -->
<svg xmlns="http://www.w3.org/2000/svg" xml:space="preserve" width="250.351mm" height="102.777mm" version="1.1" style="shape-rendering:geometricPrecision; text-rendering:geometricPrecision; image-rendering:optimizeQuality; fill-rule:evenodd; clip-rule:evenodd"
viewBox="0 0 26544.55 10897.34"
 xmlns:xlink="http://www.w3.org/1999/xlink"
 xmlns:xodm="http://www.corel.com/coreldraw/odm/2003">
 <defs>
  <style type="text/css">
   <![CDATA[
    .str0 {stroke:#0A0B10;stroke-width:21.21;stroke-miterlimit:22.9256}
    .fil7 {fill:#EBECEC}
    .fil3 {fill:#D9DADA}
    .fil6 {fill:#C5C6C6}
    .fil2 {fill:#5B5B5B}
    .fil12 {fill:#434242}
    .fil8 {fill:#FCD5A6}
    .fil11 {fill:#FECC00}
    .fil1 {fill:#FCFCFC}
    .fil13 {fill:#E7AF1F}
    .fil9 {fill:#D1A97C}
    .fil4 {fill:#0A0B10}
    .fil0 {fill:#15161B}
    .fil5 {fill:#38393E}
    .fil10 {fill:#393A45}
   ]]>
  </style>
    <mask id="id0">
  <linearGradient id="id1" gradientUnits="userSpaceOnUse" x1="12701.97" y1="9033.99" x2="12766.89" y2="3323.89">
   <stop offset="0" style="stop-opacity:1; stop-color:white"/>
   <stop offset="1" style="stop-opacity:0; stop-color:white"/>
  </linearGradient>
     <rect style="fill:url(#id1)" x="15786.24" y="1190.12" width="4430.87" height="2945.85"/>
    </mask>
    <mask id="id2">
  <linearGradient id="id3" gradientUnits="userSpaceOnUse" x1="12701.96" y1="9033.97" x2="12766.87" y2="3323.88">
   <stop offset="0" style="stop-opacity:1; stop-color:white"/>
   <stop offset="1" style="stop-opacity:0; stop-color:white"/>
  </linearGradient>
     <rect style="fill:url(#id3)" x="19338.37" y="5974.5" width="5229.38" height="3625.29"/>
    </mask>
    <mask id="id4">
  <linearGradient id="id5" gradientUnits="userSpaceOnUse" x1="12701.97" y1="9034" x2="12766.87" y2="3323.91">
   <stop offset="0" style="stop-opacity:1; stop-color:white"/>
   <stop offset="1" style="stop-opacity:0; stop-color:white"/>
  </linearGradient>
     <rect style="fill:url(#id5)" x="18742.64" y="8832.88" width="2623.54" height="1539.46"/>
    </mask>
    <mask id="id6">
  <linearGradient id="id7" gradientUnits="userSpaceOnUse" x1="12701.97" y1="9034" x2="12766.87" y2="3323.91">
   <stop offset="0" style="stop-opacity:1; stop-color:white"/>
   <stop offset="1" style="stop-opacity:0; stop-color:white"/>
  </linearGradient>
     <rect style="fill:url(#id7)" x="4788.1" y="6980.32" width="14485.86" height="3614.51"/>
    </mask>
    <mask id="id8">
  <linearGradient id="id9" gradientUnits="userSpaceOnUse" x1="12701.96" y1="9034.02" x2="12766.91" y2="3323.87">
   <stop offset="0" style="stop-opacity:1; stop-color:white"/>
   <stop offset="1" style="stop-opacity:0; stop-color:white"/>
  </linearGradient>
     <rect style="fill:url(#id9)" x="17771" y="5322.25" width="5451.65" height="2272.16"/>
    </mask>
    <mask id="id10">
  <linearGradient id="id11" gradientUnits="userSpaceOnUse" x1="12701.97" y1="9034" x2="12766.89" y2="3323.9">
   <stop offset="0" style="stop-opacity:1; stop-color:white"/>
   <stop offset="1" style="stop-opacity:0; stop-color:white"/>
  </linearGradient>
     <rect style="fill:url(#id11)" x="3628.79" y="686.05" width="11806.47" height="7313.76"/>
    </mask>
    <mask id="id12">
  <linearGradient id="id13" gradientUnits="userSpaceOnUse" x1="12701.96" y1="9033.98" x2="12766.9" y2="3323.89">
   <stop offset="0" style="stop-opacity:1; stop-color:white"/>
   <stop offset="1" style="stop-opacity:0; stop-color:white"/>
  </linearGradient>
     <rect style="fill:url(#id13)" x="12301.52" y="2124.48" width="7432.48" height="4936.65"/>
    </mask>
    <mask id="id14">
  <linearGradient id="id15" gradientUnits="userSpaceOnUse" x1="12701.95" y1="9033.97" x2="12766.9" y2="3323.88">
   <stop offset="0" style="stop-opacity:1; stop-color:white"/>
   <stop offset="1" style="stop-opacity:0; stop-color:white"/>
  </linearGradient>
     <rect style="fill:url(#id15)" x="16893.51" y="7918.61" width="5451.66" height="2272.17"/>
    </mask>
    <mask id="id16">
  <linearGradient id="id17" gradientUnits="userSpaceOnUse" x1="12701.95" y1="9033.97" x2="12766.91" y2="3323.89">
   <stop offset="0" style="stop-opacity:1; stop-color:white"/>
   <stop offset="1" style="stop-opacity:0; stop-color:white"/>
  </linearGradient>
     <rect style="fill:url(#id17)" x="3790.87" y="2209.65" width="11071.72" height="4940.63"/>
    </mask>
    <mask id="id18">
  <linearGradient id="id19" gradientUnits="userSpaceOnUse" x1="12701.98" y1="9034.02" x2="12766.89" y2="3323.89">
   <stop offset="0" style="stop-opacity:1; stop-color:white"/>
   <stop offset="1" style="stop-opacity:0; stop-color:white"/>
  </linearGradient>
     <rect style="fill:url(#id19)" x="2510.02" y="5097.21" width="15891.48" height="5207.58"/>
    </mask>
 </defs>
 <g id="Слой_x0020_1">
  <metadata id="CorelCorpID_0Corel-Layer"/>
  <path class="fil4" d="M-0.01 10897.35c3668.41,-1169.65 8272.65,-1866.38 13272.28,-1866.38 4999.63,0 9603.85,696.73 13272.28,1866.38l-26544.56 0z"/>
  <g id="_2443077722512">
   <path class="fil4" d="M10529.05 4428.05c-710.82,23.15 -1001.61,-752.2 -1173.91,-810.09 -172.34,-57.85 -473.89,-138.87 -570.82,-451.32 -96.93,-312.45 -172.31,-786.94 -86.17,-1041.55 86.17,-254.6 140.01,-1330.85 43.1,-1527.57 -96.94,-196.75 -355.87,-156.06 -431.24,-260.23 -75.4,-104.16 -393.43,-359.08 -285.73,-335.93 107.7,23.14 433.68,231.77 562.92,289.65 129.24,57.85 533,175.13 640.7,221.41 107.68,46.31 359.52,24.07 423.97,61.59 64.46,37.5 34.93,132.71 5.38,144.25 -29.53,11.55 -131.58,28.87 -187.98,46.19 -56.39,17.29 -177.23,34.62 -228.25,20.19 -51.01,-14.44 -80.54,-17.29 -77.86,17.31 2.66,34.62 423.63,596.53 563.57,856.61 139.95,260.08 325.59,713.64 325.59,713.64 0,0 527.25,-63.61 742.45,40.46 215.23,104.06 328.21,381.56 328.21,381.56 0,0 274.39,-86.72 441.17,-23.11 166.78,63.58 209.83,98.27 209.83,98.27 0,0 69.94,-150.3 10.75,-277.5 -59.17,-127.18 -80.71,-312.16 -231.35,-369.99 -150.64,-57.81 -263.63,-416.25 -86.07,-716.86 177.55,-300.62 349.7,-572.35 699.42,-491.4 349.72,80.94 451.94,190.78 489.59,219.67 37.68,28.91 105.18,41.89 156.19,47.67 51.04,5.75 24.19,124.06 32.24,155.8 8.06,31.75 190.66,57.7 233.61,77.91 42.96,20.21 150.37,121.19 139.65,173.12 -10.75,51.93 -118.16,124.08 -85.95,158.72 32.24,34.61 107.42,103.87 102.04,126.96 -5.38,23.06 13.43,2.88 34.93,23.06 21.46,20.21 -21.49,155.83 2.68,173.15 24.15,17.3 170.12,86.89 191.64,156.27 21.51,69.37 -107.62,248.59 -295.91,369.99 -188.32,121.4 -215.23,167.66 -199.09,219.69 16.15,52.04 59.2,34.69 129.13,46.26 69.96,11.55 112.98,63.58 112.98,63.58 0,0 172.17,-184.98 338.95,-161.86 166.81,23.11 263.64,52.03 263.64,52.03 0,0 177.55,-410.45 500.34,-433.59 322.82,-23.11 500.36,40.48 500.36,40.48 0,0 -69.94,-213.92 5.4,-491.42 75.31,-277.5 629.46,-670.6 656.37,-728.43 26.91,-57.81 -156.01,-92.49 -263.62,-161.86 -107.62,-69.37 -179.04,-225.49 -118,-305.85 61.04,-80.35 118.4,-39.42 145.27,26.94 26.84,66.37 96.48,41.72 128.72,56.15 32.21,14.44 162.33,-15.32 213.34,-26.87 51.02,-11.55 305.78,-31.15 381.18,-57.71 75.38,-26.56 310.56,-99.77 289.07,-53.59 -21.47,46.17 -401.85,229.84 -442.14,278.89 -40.28,49.04 -113.22,400 -75.56,729.52 37.65,329.53 177.55,1011.71 107.61,1196.71 -69.96,185.01 -285.17,277.5 -387.38,485.62 -102.24,208.12 -365.86,676.4 -677.91,786.24 -312.04,109.84 -559.56,190.79 -559.56,190.79l-150.64 271.72c0,0 53.8,208.12 37.65,329.53 -16.14,121.4 107.62,219.67 69.96,433.58 -37.67,213.91 -96.84,277.5 -96.84,277.5 0,0 96.84,167.66 86.07,213.91 -10.77,46.24 -10.77,69.37 -10.77,69.37 0,0 543.41,-358.44 984.59,-317.98 441.17,40.48 677.91,63.61 790.89,283.3 112.98,219.67 86.07,699.52 37.65,867.16 -48.42,167.66 -215.2,393.12 -365.83,890.33 -150.67,497.17 -199.09,537.62 -199.09,537.62 0,0 333.59,237.04 500.36,479.86 166.81,242.81 355.1,346.87 355.1,439.36 0,92.52 32.28,329.53 -53.8,427.82 -86.07,98.27 -64.56,167.64 -209.83,254.36 -145.26,86.71 -215.2,92.51 -215.2,92.51 0,0 16.14,40.46 177.55,75.15 161.41,34.68 150.64,138.75 80.7,254.37 -69.96,115.61 -96.84,92.5 -209.82,109.84 -112.98,17.35 -1737.83,40.46 -1915.36,5.78 -177.55,-34.69 -118.38,-219.67 -64.56,-277.5 53.79,-57.81 64.56,-144.53 64.56,-144.53 0,0 -333.58,-132.97 -661.77,-80.94 -328.2,52.03 -478.85,57.83 -710.19,167.66 -231.33,109.84 -651,86.72 -807.03,86.72 -156.03,0 -371.24,46.26 -381.98,-46.26 -10.77,-92.49 -10.77,-213.89 59.16,-231.24 69.96,-17.35 269.02,92.49 306.68,-23.11 37.65,-115.64 328.18,-485.62 387.38,-497.19 59.19,-11.58 112.98,-312.19 225.97,-375.77 112.98,-63.61 172.17,-80.94 172.17,-80.94 0,0 -446.56,-109.84 -564.92,-323.76 -118.38,-213.9 -263.64,-687.95 -102.24,-1057.94 161.41,-370.02 301.3,-439.4 306.68,-780.47 5.4,-341.1 -177.55,-450.93 -505.74,-693.75 -328.18,-242.81 -462.68,-578.11 -494.97,-757.35 -32.28,-179.21 -43.05,-335.31 -43.05,-335.31 0,0 -365.86,28.91 -567.02,-563.03zm2832.1 4771.73l-677.91 -190.79 312.04 416.3 365.86 -225.51z"/>
   <path class="fil8" d="M11209.06 2892.51c177.55,132.96 312.05,433.59 312.05,433.59l279.77 -28.9c0,0 -107.61,-109.85 -172.17,-167.65 -64.56,-57.82 118.37,-11.57 199.07,46.25 80.7,57.81 96.85,80.93 96.85,80.93l236.72 0c0,0 -435.79,-370 -570.3,-404.68 -134.5,-34.69 -381.99,40.47 -381.99,40.47z"/>
   <path class="fil8" d="M11241.33 3285.63c-112.98,-294.84 -209.82,-508.74 -430.42,-647.49 -220.58,-138.75 -473.45,-167.65 -554.16,-167.65 -80.7,0 -134.5,5.78 -134.5,5.78 0,0 193.68,1057.96 1119.08,809.36z"/>
   <path class="fil8" d="M11090.69 3470.63c-414.27,-28.9 -1006.09,-416.24 -1006.09,-416.24 0,0 -139.88,161.86 -263.63,144.53 -123.75,-17.35 -398.14,-104.07 -564.92,-404.69 -166.78,-300.61 -166.78,-300.61 -166.78,-300.61 0,0 -21.52,502.96 145.26,607.02 166.79,104.07 263.63,138.75 263.63,138.75 0,0 102.22,167.66 333.58,300.62 231.35,132.97 387.37,92.5 387.37,92.5 0,0 -252.87,-190.78 -204.45,-271.71 48.42,-80.94 575.69,341.09 1076.04,109.84z"/>
   <path class="fil7" d="M8895.56 3123.75c-233.25,-786.67 -37.66,-1208.27 -37.66,-1352.8 0,-144.53 0,-277.5 0,-277.5 0,0 -17.57,572.35 -19.54,815.15 -1.97,242.81 57.2,815.14 57.2,815.14z"/>
   <path class="fil9" d="M8958.68 846.39c-21.48,-227.95 -10.74,-262.58 -102.04,-328.95 -91.3,-66.36 -211.48,-137.42 -327.46,-189.47 -115.99,-52.06 -363.56,-199.06 -363.56,-199.06 0,0 256.11,229.88 429.74,289.59 173.62,59.71 161.93,116.26 229.07,153.77 67.13,37.51 85.93,54.82 134.26,274.12z"/>
   <path class="fil9" d="M8991.43 684.38c4.05,-125.53 29.65,-183.59 70.74,-161.09 41.09,22.5 149.52,101.6 216.23,113.93 66.69,12.33 109.13,-7.99 111.82,17.41 2.69,25.39 -43.1,62.4 -166.37,60.22 -123.28,-2.18 -140.12,12.34 -179.19,52.97 -39.07,40.63 -49.18,77.62 -49.18,77.62l-4.05 -161.07z"/>
   <path class="fil8" d="M9858.63 2927.19c96.84,-387.34 177.55,-664.84 -134.51,-1133.11 -312.05,-468.28 -591.82,-901.86 -591.82,-901.86 0,0 -26.9,190.78 -91.46,456.71 -64.56,265.93 102.22,838.28 102.22,838.28 0,0 -75.32,-578.12 -53.8,-722.65 21.51,-144.53 59.17,-190.78 59.17,-190.78 0,0 21.52,1439.52 710.19,1653.42z"/>
   <path class="fil7" d="M11601.81 4667.34c59.19,-427.81 -656.39,-722.65 -656.39,-722.65 0,0 112.98,786.25 656.39,722.65z"/>
   <path class="fil8" d="M11835.07 2893.93c93.98,-144.27 64.44,-216.42 64.44,-216.42 0,0 107.42,144.27 75.2,204.87 -32.22,60.6 -139.64,11.55 -139.64,11.55z"/>
   <path class="fil8" d="M12374.82 3208.45c-225.57,-184.67 -271.22,-620.38 -198.71,-686.74 72.5,-66.37 48.33,432.82 198.71,686.74z"/>
   <path class="fil8" d="M12766.88 3323.87c-145.02,-11.55 -155.76,-2.88 -271.22,-201.99 -115.47,-199.1 -158.44,-556.9 -158.44,-556.9l429.66 758.88z"/>
   <path class="fil8" d="M12750.77 3046.86l-158.43 -323.17c0,0 279.27,14.42 281.95,126.96 2.69,112.53 -123.52,196.21 -123.52,196.21z"/>
   <path class="fil8" d="M12914.57 3367.15c-99.36,-100.99 -67.13,-302.98 -32.22,-300.09 34.92,2.88 107.42,294.33 32.22,300.09z"/>
   <path class="fil7" d="M13078.38 3257.5c-67.13,-83.68 -123.52,-204.86 -99.35,-216.41 24.16,-11.55 244.37,-8.65 206.77,63.48 -37.6,72.14 -107.42,152.93 -107.42,152.93z"/>
   <path class="fil8" d="M13126.71 3346.95c59.08,-150.04 174.55,-421.29 384.01,-415.51 209.46,5.77 378.63,132.73 448.45,245.27 69.82,112.53 77.88,360.68 77.88,360.68l-107.42 -181.79c0,0 37.6,323.18 26.86,352.03 -10.74,28.86 -10.74,28.86 -10.74,28.86 0,0 -410.86,-331.83 -515.59,-323.18 -104.73,8.65 -53.7,-31.73 -32.22,-57.71 21.48,-25.97 147.69,-225.07 214.83,-161.59 67.14,63.48 115.47,72.14 115.47,72.14 0,0 -40.28,-155.82 -177.23,-158.7 -136.96,-2.88 -279.28,230.84 -279.28,230.84l-145.01 8.66z"/>
   <path class="fil8" d="M14104.18 3367.15c10.74,-236.62 -225.57,-366.46 -225.57,-366.46 0,0 110.1,-300.09 343.73,-377.99 233.62,-77.91 714.3,-5.78 714.3,-5.78 0,0 -53.7,-147.16 -48.34,-372.23 5.38,-225.07 260.48,-516.5 351.78,-605.95 91.3,-89.46 209.46,-222.18 209.46,-222.18 0,0 -171.86,262.58 -252.42,360.69 -80.56,98.1 -225.57,300.08 -158.44,271.23 67.14,-28.86 190.66,-271.23 244.37,-294.33 53.71,-23.08 198.72,132.74 69.82,357.81 -128.89,225.07 -392.05,251.03 -392.05,251.03 0,0 8.05,216.42 42.96,288.55 34.9,72.14 -276.59,-5.77 -354.47,17.31 -77.88,23.08 209.46,152.93 220.2,317.4 10.74,164.47 -24.17,432.82 -373.27,562.68 -349.09,129.84 -349.09,129.84 -349.09,129.84 0,0 134.26,-259.7 153.06,-418.39 18.79,-158.7 -61.76,-213.53 -61.76,-213.53 0,0 -2.69,256.81 -134.28,320.29z"/>
   <path class="fil9" d="M14163.26 3984.65c64.44,80.79 21.48,164.47 37.6,164.47 16.11,0 700.87,-98.11 883.48,-447.25 182.6,-349.14 400.11,-614.61 494.1,-652.12 93.99,-37.5 222.88,-129.84 222.88,-129.84 0,0 -99.78,-657.54 -126.68,-935.04 -26.9,-277.5 -15.64,-698.14 11.22,-767.4 26.86,-69.25 75.19,-164.47 131.58,-233.72 56.39,-69.25 72.5,-92.34 24.16,-75.03 -48.33,17.31 -204.09,98.11 -233.62,135.62 -29.54,37.51 -26.85,568.44 -26.85,568.44 0,0 -5.38,-444.37 -24.17,-490.53 -18.8,-46.18 -83.98,-85.11 -183.34,-87.99 -99.36,-2.88 -246.62,-124.43 -230.51,-75.38 16.11,49.05 130.13,179.12 325.23,247.05 195.09,67.93 60.62,54.59 64.66,169.96 4.03,115.37 -37.81,375.39 7.85,401.36 45.65,25.97 187.97,975.29 182.6,1050.32 -5.38,75.02 -118.16,103.88 -284.65,219.29 -166.5,115.42 -239,236.62 -239,236.62 0,0 80.56,-210.65 85.94,-363.57 5.37,-152.93 -88.62,-340.48 -88.62,-340.48 0,0 -75.2,484.76 -136.96,643.46 -61.76,158.7 -72.5,377.99 -343.72,571.33 -271.22,193.32 -553.19,190.44 -553.19,190.44z"/>
   <path class="fil8" d="M12295.86 5852.48c-548.78,127.19 -753.23,-115.62 -618.72,-173.43 134.51,-57.81 381.99,92.5 500.36,34.68 118.36,-57.81 -118.37,-52.03 -285.16,-80.93 -166.78,-28.9 -215.21,-185 -37.66,-173.43 177.55,11.56 360.48,75.15 328.19,-11.57 -32.28,-86.72 -193.68,-98.28 -285.16,-150.31 -91.46,-52.03 -86.07,-132.97 75.32,-144.53 161.41,-11.57 295.92,-312.19 494.99,-422.03 199.07,-109.85 763.98,-202.35 763.98,-202.35l-188.31 -138.75c0,0 -150.65,115.62 -624.1,63.6 -473.46,-52.03 -817.79,-439.37 -801.66,-491.4 16.15,-52.03 258.26,-156.1 408.9,-167.65 150.65,-11.57 150.65,-11.57 150.65,-11.57 0,0 -209.83,-69.36 -457.33,-40.46 -247.48,28.9 -247.48,11.56 -193.68,-75.15 53.8,-86.72 290.53,-335.32 656.39,-329.53 365.85,5.78 640.25,57.81 726.33,115.61 86.09,57.82 425.03,635.93 425.03,635.93 0,0 -112.98,-491.39 -193.68,-554.99 -80.7,-63.6 -80.96,-77.62 -80.96,-77.62 0,0 276.59,-37.51 435.02,43.28 158.44,80.79 601.53,395.31 628.37,571.33 26.86,176.02 34.92,265.47 -48.34,363.57 -83.24,98.1 -456.51,34.62 -456.51,34.62 0,0 310.95,103.55 362.14,225.44 51.19,121.9 86.23,327.96 60.63,358.44 -25.6,30.48 -138.76,-207.52 -257.32,-217.68 -118.56,-10.16 -114.43,-54.56 -138.59,6.02 -24.16,60.6 -10.74,201.99 18.8,334.72 29.54,132.73 5.37,138.5 -104.73,230.84 -110.1,92.33 -249.74,132.73 -381.32,106.76 -131.58,-25.97 -230.94,-158.7 -128.9,-314.51 102.04,-155.82 381.32,-233.73 437.72,-262.58 56.39,-28.85 153.06,-89.45 18.79,-115.42 -134.26,-25.97 -252.41,63.49 -389.37,147.17 -136.95,83.68 -252.42,112.53 -413.55,89.45 -161.11,-23.08 -314.19,-31.75 -314.19,-31.75 0,0 -16.11,135.62 -67.13,178.9 -51.02,43.28 8.06,181.79 212.14,170.24 204.09,-11.54 504.84,300.09 504.84,300.09 0,0 -24.16,49.05 -61.76,152.93 -37.59,103.88 -13.42,227.96 -13.42,227.96 0,0 -153.06,-173.14 -239,-193.33 -85.93,-20.2 -32.22,-8.65 123.53,274.12 155.75,282.78 204.09,421.29 204.09,421.29l-233.62 227.95c0,0 -42.97,-92.33 -153.06,-109.64 -110.1,-17.31 -120.84,-20.2 -120.84,-20.2 0,0 -123.52,-403.97 -204.09,-447.25 -80.56,-43.28 -83.25,-43.28 -83.25,-43.28 0,0 29.54,-144.27 126.22,-222.18 96.67,-77.91 155.75,-135.62 155.75,-135.62 0,0 -136.95,25.98 -242.76,44.21z"/>
   <path class="fil8" d="M13397.94 6272.83c-2.68,-17.31 -96.68,-201.99 -179.92,-279.9 -83.24,-77.9 -51.02,-176.01 64.44,-227.95 115.48,-51.93 359.84,-118.3 389.38,-51.93 29.54,66.36 -2.69,320.28 -51.02,406.86 -48.34,86.56 -298.08,328.95 -298.08,328.95l-107.41 -176.02 182.6 0z"/>
   <path class="fil7" d="M13806.11 6151.64c64.44,-124.08 -72.5,-337.6 -56.4,-389.54 16.12,-51.93 241.68,8.66 284.65,75.03 42.97,66.36 75.2,279.89 -228.25,314.51z"/>
   <path class="fil7" d="M13811.48 5381.22c0,-129.85 -128.9,-409.74 -88.62,-415.52 40.28,-5.77 324.93,193.33 351.77,274.13 26.86,80.79 42.97,354.91 -24.16,337.6 -67.14,-17.31 -238.99,-196.21 -238.99,-196.21z"/>
   <path class="fil8" d="M12661.71 6858.41c-349.72,121.4 -403.52,370 -403.52,370 0,0 150.65,-196.57 252.87,-208.12 102.22,-11.57 102.22,-11.57 102.22,-11.57 0,0 -139.88,202.35 -129.12,300.62 10.76,98.28 26.9,86.72 26.9,86.72 0,0 150.65,-502.96 968.44,-919.21 817.79,-416.25 1092.19,-641.71 1452.65,-659.06 360.48,-17.35 469.04,42.41 469.04,42.41 0,0 -77.88,20.2 -139.64,92.33 -61.76,72.14 -21.48,54.83 -21.48,54.83 0,0 204.09,-129.84 273.91,-46.17 69.82,83.68 163.8,308.75 163.8,308.75 0,0 -46.01,-267.67 -97.03,-336.93 -51.02,-69.25 113.14,-104.56 207.13,-6.45 93.98,98.11 187.98,528.05 131.58,698.29 -56.4,170.24 -83.43,308.7 -298.64,476.36 -215.21,167.66 -172.17,531.87 -204.45,716.87 -32.29,185 -548.79,1549.36 -591.82,1664.99 -43.05,115.61 -279.78,254.36 -274.39,323.74 5.38,69.37 225.97,-138.75 387.38,-69.37 161.4,69.37 807.03,404.69 914.63,416.25 107.61,11.57 182.93,75.15 118.36,115.62 -64.56,40.47 -150.64,28.9 -150.64,28.9 0,0 -53.49,-57.85 -123.31,-75.16 -69.82,-17.31 -128.9,-63.48 -51.02,-8.65 77.88,54.82 131.58,109.64 120.84,124.08 -10.74,14.42 -102.04,28.85 -177.24,-5.78 -75.19,-34.62 -228.25,25.98 -292.69,37.51 -64.46,11.55 -1354.27,3.16 -1354.27,3.16 0,0 -53.81,-179.21 69.94,-329.53 123.75,-150.31 252.87,-468.28 317.43,-670.61 64.56,-202.35 64.56,-202.35 64.56,-202.35 0,0 -225.96,792.03 -193.68,907.65 32.29,115.62 242.11,121.4 317.43,121.4 75.32,0 398.14,-202.35 398.14,-202.35 0,0 -365.85,57.82 -468.08,34.69 -102.22,-23.12 -123.75,-132.97 26.9,-370 150.65,-237.03 344.33,-751.56 435.79,-1040.61 91.47,-289.06 204.46,-786.24 204.46,-786.24 0,0 -91.47,231.24 -279.78,277.49 -188.3,46.25 -301.28,-40.46 -269.01,-271.71 32.29,-231.25 91.46,-439.37 365.85,-526.1 274.39,-86.71 425.04,-156.09 236.73,-167.65 -188.31,-11.56 -414.28,34.69 -306.67,-52.03 107.6,-86.72 349.71,-109.85 468.08,-75.15 118.36,34.68 177.55,-335.31 -32.29,-422.03 -209.82,-86.72 -511.11,-161.87 -860.83,404.68 -349.72,566.56 -425.04,820.93 -747.85,953.9 -322.82,132.96 -758.62,109.84 -936.16,52.03 -177.55,-57.82 -328.19,-404.68 -328.19,-404.68 0,0 -32.28,369.99 118.37,566.56 150.65,196.56 833.93,98.28 833.93,98.28 0,0 -177.55,231.25 -349.72,283.28 -172.17,52.03 -769.37,-23.12 -1000.72,-549.21 -231.36,-526.1 242.11,-1075.31 376.62,-1150.46 134.5,-75.15 258.24,5.78 258.24,5.78z"/>
   <path class="fil9" d="M12618.68 7471.22c0,0 252.87,265.93 758.61,28.9 505.74,-237.03 1016.85,-739.99 1016.85,-739.99 0,0 -516.49,768.9 -973.82,936.56 -457.32,167.65 -532.64,127.18 -532.64,127.18l-269.01 -352.65z"/>
   <path class="fil9" d="M13872.26 6841.06c204.45,-445.15 973.82,-953.89 1033,-809.36 59.19,144.53 -425.04,202.35 -1033,809.36z"/>
   <polygon class="fil7" points="14087.47,8170.75 14351.1,7875.9 14372.62,8367.3 "/>
   <path class="fil9" d="M12242.31 9395.34c56.59,-197.35 206.12,-435.37 276.19,-354.1 70.05,81.28 -75.45,371.53 -199.4,478.91 -123.94,107.39 -234.42,227.83 -276.19,300.39 -41.76,72.57 -219.6,129.16 -202.09,59.5 17.52,-69.66 56.6,-177.04 99.7,-163.98 43.11,13.06 57.93,-37.73 68.71,-85.62 10.78,-47.89 48.5,-101.59 101.05,-103.04 52.55,-1.45 132.04,-132.07 132.04,-132.07z"/>
   <path class="fil9" d="M11767.93 9940.28c-91.3,72.14 -249.73,-8.65 -298.07,34.63 -48.34,43.28 -163.8,187.56 -16.12,167.36 147.7,-20.2 314.19,-201.99 314.19,-201.99z"/>
   <path class="fil9" d="M12570.85 9764.27c2.69,-196.22 171.86,-271.23 273.91,-207.75 102.04,63.48 5.38,31.73 -93.98,60.6 -99.36,28.85 -179.92,147.16 -179.92,147.16z"/>
   <path class="fil9" d="M15068.22 9048.67l279.28 -715.6c0,0 558.55,539.58 679.39,706.95 120.83,167.36 142.32,464.56 72.5,588.63 -69.82,124.08 -228.26,256.81 -228.26,256.81 0,0 153.06,-204.87 131.58,-363.57 -21.48,-158.7 -16.11,-389.54 -69.82,-409.74 -53.7,-20.2 40.28,314.51 -40.28,438.59 -80.56,124.08 -206.77,204.87 -346.41,210.65 -139.64,5.77 -601.51,-161.59 -601.51,-161.59l51.02 -121.19c0,0 271.22,124.08 445.77,118.31 174.55,-5.78 204.09,-66.37 204.09,-66.37 0,0 -59.08,-132.73 -260.48,-158.69 -201.39,-25.98 -314.19,-222.18 -316.87,-323.18z"/>
   <path class="fil8" d="M12701.18 1548.02c-153.06,-98.11 -265.85,-126.96 -303.45,-51.94 -37.6,75.03 -40.28,173.14 -40.28,173.14 0,0 77.88,-108.78 171.86,-107.77 93.98,1.01 118.16,6.78 118.16,6.78 0,0 -85.94,132.73 -112.79,144.27 -26.85,11.54 -112.78,31.73 -112.78,31.73 0,0 21.48,37.51 80.56,34.63 59.08,-2.88 179.92,-158.7 179.92,-158.7 0,0 56.4,23.08 18.8,69.26 -37.6,46.17 -51.02,77.9 -51.02,77.9l115.47 -37.5c0,0 72.5,14.42 56.4,75.02 -16.12,60.6 -18.8,271.23 -2.69,360.69 16.12,89.45 96.68,181.79 96.68,181.79 0,0 -72.5,-219.3 -40.28,-268.35 32.22,-49.06 123.52,-115.42 155.75,-86.57 32.22,28.86 -37.59,106.77 -45.65,213.53 -8.06,106.76 -5.38,115.41 -5.38,115.41 0,0 53.71,-187.56 104.74,-187.56 51.02,0 75.19,0 75.19,31.75 0,31.73 -126.21,199.1 -126.21,199.1 0,0 198.71,-25.98 244.37,20.19 45.65,46.18 -51.02,210.65 -300.76,222.18 -249.74,11.55 -405.49,-259.69 -381.31,-507.84 24.16,-248.15 -292.7,66.36 -381.32,-152.94 -88.62,-219.29 32.22,-375.11 -21.48,-438.59 -53.7,-63.48 -268.54,0 -290.02,-75.03 -21.48,-75.02 112.78,-259.69 228.26,-326.06 115.47,-66.36 145.01,-51.93 290.01,51.94 145.02,103.88 222.88,201.99 265.85,201.99 42.97,0 93.99,-34.63 93.99,5.77 0,40.4 -80.56,181.79 -80.56,181.79z"/>
   <path class="fil8" d="M12830.01 1525.08c220.59,92.5 252.87,63.6 263.63,109.85 10.76,46.25 -112.98,34.68 -107.61,115.62 5.39,80.93 -156.02,-225.47 -156.02,-225.47z"/>
   <path class="fil4" d="M11540.17 1427.09c5.47,17.84 8.5,37.36 8.5,57.81 0,53.98 -21.05,101.49 -52.89,128.93 9.19,12.04 16.74,26.08 22.22,41.54 26.2,-53.48 73.22,-89.15 126.87,-89.15 82.22,0 148.9,83.78 148.9,187.09 0,103.29 -66.68,187.08 -148.9,187.08 -10.91,0 -21.53,-1.47 -31.76,-4.26 -9.65,34.67 -31.53,62.14 -59.13,74.24 8.04,19.18 12.6,41.04 12.6,64.22 0,18 -2.76,35.2 -7.74,50.97 2.75,-0.31 5.55,-0.48 8.38,-0.48 40.44,0 73.79,32.6 78.55,74.68 11.67,10.21 21.02,23.38 27,38.47 9.34,-3.02 19.27,-4.65 29.53,-4.65 49.43,0 90.68,37.68 100.24,87.75 36.52,19.51 61.62,59.99 61.62,106.79 0,65.81 -49.66,119.19 -110.92,119.19 -59.84,0 -108.61,-50.93 -110.84,-114.63 -17.9,-13.91 -31.44,-33.91 -38.01,-57.15 -5.59,1.12 -11.35,1.72 -17.24,1.72 -33.02,0 -62.02,-18.5 -78.51,-46.39 -13.77,10.73 -30.71,17.07 -49.02,17.07 -46.13,0 -83.55,-40.21 -83.55,-89.79 0,-12.78 2.49,-24.93 6.97,-35.93 -29.27,-10.16 -50.47,-39.69 -50.47,-74.52 0,-14.17 3.5,-27.47 9.64,-38.94 -5.69,3.98 -12.47,6.3 -19.76,6.3 -20.03,0 -36.26,-17.44 -36.26,-38.96 0,-6.29 1.39,-12.21 3.84,-17.47 -2.03,-1.09 -4.01,-2.27 -5.95,-3.5 -6.98,12.55 -19.74,20.97 -34.33,20.97 -22.06,0 -39.96,-19.23 -39.96,-42.93 0,-17.77 10.04,-33.03 24.35,-39.56 -17.31,-3.29 -30.47,-19.53 -30.47,-39.09 0,-9.4 3.05,-18.05 8.13,-24.84 -4.41,-5.55 -8.02,-11.86 -10.59,-18.74 -8.91,-14.69 -14.08,-32.21 -14.08,-51.03 0,-17.17 4.3,-33.26 11.81,-47.1 -1.8,-4.29 -2.8,-9.04 -2.8,-14.06 0,-18.94 14.29,-34.29 31.91,-34.29 3.09,0 6.08,0.47 8.91,1.35 -1.7,-5.29 -2.62,-10.96 -2.62,-16.87 0,-21.71 12.41,-40.31 30.02,-48.06 -3.89,-12.52 -6.03,-26.16 -6.03,-40.42 0,-53.14 29.68,-97.57 69.34,-108.58 -7.41,-20.25 -11.58,-42.96 -11.58,-66.96 0,-68.83 34.22,-127.13 81.38,-146.73 -1.18,-7.41 -1.79,-15.06 -1.79,-22.86 0,-62.53 38.99,-114.15 89.38,-121.75 4.69,-33.24 27.8,-58.49 55.6,-58.49 8.98,0 17.47,2.64 25.01,7.33 9.25,-54.58 47.83,-95.53 94.03,-95.53 18.13,0 35.11,6.31 49.57,17.29 7.69,-36.45 34.11,-63.31 65.52,-63.31 11.43,0 22.21,3.56 31.66,9.84 -1.15,-4.94 -1.76,-10.18 -1.76,-15.59 0,-30.71 19.82,-55.61 44.27,-55.61 15.12,0 28.49,9.54 36.47,24.12 15.68,-15.12 35.32,-24.12 56.62,-24.12 10.75,0 21.09,2.31 30.71,6.53 3.8,-15.5 16.91,-26.93 32.53,-26.93 4.62,0 9.01,1 13.02,2.81 10,-17.6 28.04,-29.35 48.64,-29.35 31.45,0 56.96,27.41 56.96,61.2 0,3.89 -0.35,7.69 -1,11.39 5.59,-3.05 11.92,-4.76 18.62,-4.76 22.73,0 41.17,19.81 41.17,44.25 0,23.67 -17.3,42.99 -39.05,44.17 -8.94,20.1 -28.01,33.98 -50.11,33.98 -30.64,0 -55.5,-26.71 -55.5,-59.64 0,-5.37 0.67,-10.56 1.9,-15.51 -8.15,-4.73 -15.11,-11.51 -20.26,-19.73l-1.74 0.82c10.84,19.12 17.21,42.5 17.21,67.74 0,9.93 -0.99,19.59 -2.85,28.79l1.31 -0.02c33.71,0 61.05,34.34 61.05,76.69 0,42.35 -27.34,76.7 -61.05,76.7 -11.58,0 -22.39,-4.05 -31.62,-11.09 -20.57,30.17 -51.1,49.29 -85.18,49.29 -6.2,0 -12.27,-0.63 -18.19,-1.84 -13.87,13.29 -31.16,21.16 -49.93,21.16 -21.32,0 -40.76,-10.17 -55.39,-26.87 -10.66,7.37 -22.9,11.54 -35.91,11.54 -15.17,0 -29.31,-5.69 -41.1,-15.46 -7.73,7.07 -16.33,12.73 -25.54,16.69 24.93,6.21 43.75,33.83 43.75,67 0,37.7 -24.34,68.28 -54.35,68.28 -30.02,0 -54.36,-30.58 -54.36,-68.28 0,-26.42 11.95,-49.34 29.43,-60.69 -27.25,-1.58 -51.54,-17.41 -68.25,-41.69 -0.71,1.28 -1.46,2.53 -2.25,3.75 9.82,18.83 15.48,41.08 15.48,64.91 0,49.7 -24.61,92.49 -60,111.79zm1600.17 1413.13c-7.08,3.8 -15.08,5.94 -23.53,5.94 -14.5,0 -27.64,-6.3 -37.17,-16.49 -0.8,0.87 -1.64,1.69 -2.52,2.46 -22.14,52.75 -71.51,89.48 -128.84,89.48 -78,0 -141.27,-67.99 -141.27,-151.8 0,-44.31 17.71,-84.21 45.9,-111.96 -7.72,-8.08 -13.56,-18.21 -16.83,-29.55 -9.11,3.95 -18.71,6.85 -28.71,8.54l0.02 1.33c0,72.69 -54.87,131.65 -122.52,131.65 -67.66,0 -122.52,-58.95 -122.52,-131.65 0,-17.03 3.01,-33.3 8.5,-48.24 -26.27,46.58 -73.9,77.68 -128.26,77.68 -82.77,0 -149.89,-72.13 -149.89,-161.07 0,-7.93 0.55,-15.73 1.58,-23.35 -12.74,-19.95 -20.19,-44.1 -20.19,-70.12 0,-24.92 6.84,-48.15 18.61,-67.6 -11.63,-15.47 -18.61,-35.15 -18.61,-56.6 0,-49.76 37.56,-90.11 83.86,-90.11 46.31,0 83.87,40.35 83.87,90.11 0,4.37 -0.3,8.67 -0.86,12.88 21.49,11.45 39.19,29.86 50.54,52.51 10.2,3.8 19.92,8.74 29,14.69 2.92,-2.3 5.99,-4.37 9.22,-6.19l-0.02 -2.57c0,-76.05 57.4,-137.74 128.19,-137.74 70.79,0 128.18,61.69 128.18,137.74l0 0.02 1.31 -0.02c53.73,0 99.79,35.16 119.4,85.25 29.74,-49.61 81.6,-82.44 140.56,-82.44 64.77,0 120.95,39.63 148.7,97.55 23.9,-28.99 58.77,-47.29 97.65,-47.29 19.79,0 38.55,4.76 55.34,13.23 13.42,-7.69 28.53,-12.37 44.63,-13.13 -2.14,-10.34 -3.28,-21.08 -3.28,-32.1 0,-10.15 0.95,-20.05 2.77,-29.59l-2.77 0.08c-30.33,0 -54.93,-26.44 -54.93,-59.04 0,-32.6 24.6,-59.04 54.93,-59.04 22,0 40.97,13.88 49.75,33.93 23.78,-21.18 54.31,-33.93 87.6,-33.93l3.77 0.06c4.03,-10.8 13.86,-18.43 25.35,-18.43 15.07,0 27.29,13.13 27.29,29.33l-0.06 2 0.71 0.35c4.97,-9.48 14.43,-15.88 25.28,-15.88 15.37,0 27.94,12.86 28.92,29.11 3.22,-1.37 6.74,-2.14 10.41,-2.14 15.53,0 28.13,13.54 28.13,30.24 0,15.73 -11.2,28.67 -25.51,30.1l1.03 2.38c4.49,-1.46 9.26,-2.26 14.19,-2.26 26.91,0 48.72,23.44 48.72,52.35 0,23.45 -14.37,43.31 -34.15,49.97 9.25,14.56 14.65,32.14 14.65,51.06 0,14.66 -3.23,28.51 -8.99,40.77 8.11,7.95 13.2,19.38 13.2,32.11 0,23.96 -18.08,43.4 -40.39,43.4 -2.1,0 -4.17,-0.18 -6.18,-0.51 -2.19,20.69 -11.42,39.11 -25.04,52.43 4.65,9.84 7.27,20.97 7.27,32.77 0,26.78 -13.54,50.16 -33.64,62.68 3.1,5.67 4.89,12.3 4.89,19.36 0,20.27 -14.66,36.85 -33.23,38.16 -11,96.6 -87.63,171.47 -180.51,171.47 -75.54,0 -140.31,-49.51 -167.8,-119.95 -11.74,6.73 -25.18,10.54 -39.4,10.54 -17.11,0 -33.02,-5.5 -46.3,-14.92zm76.78 -159.71c-0.85,-4.03 -1.52,-8.13 -1.96,-12.32 -1.58,3.35 -3.32,6.58 -5.23,9.69 2.44,0.75 4.85,1.65 7.19,2.63zm284.48 -80.04c-2.52,1.95 -5.2,3.69 -7.98,5.21 4.75,3.37 9.37,6.96 13.81,10.76 -2.43,-5.05 -4.4,-10.39 -5.82,-15.97zm-877.3 -76.73c9.77,-7.92 21.29,-13.48 33.83,-15.88 -0.17,-2.82 -0.23,-5.65 -0.23,-8.52l0.01 -1.41 -0.01 0c-17.28,0 -33.72,-3.67 -48.76,-10.34 -5.03,4.75 -10.67,8.74 -16.8,11.8l0.15 7.15c0,21.83 -4.06,42.63 -11.39,61.65 10.76,-18.36 25.61,-33.67 43.2,-44.44zm-408.52 -267.58c31.79,0 57.55,27.69 57.55,61.84 0,34.16 -25.77,61.85 -57.55,61.85 -31.79,0 -57.55,-27.68 -57.55,-61.85 0,-34.14 25.77,-61.84 57.55,-61.84z"/>
   <path class="fil10" d="M11552.64 1428.41c5.4,17.56 8.38,36.77 8.38,56.88 0,53.13 -20.72,99.88 -52.05,126.89 9.04,11.85 16.48,25.67 21.87,40.88 25.79,-52.63 72.06,-87.73 124.85,-87.73 80.92,0 146.53,82.45 146.53,184.11 0,101.65 -65.61,184.1 -146.53,184.1 -10.73,0 -21.18,-1.44 -31.25,-4.19 -9.49,34.12 -31.02,61.16 -58.19,73.06 7.91,18.88 12.39,40.39 12.39,63.2 0,17.72 -2.71,34.64 -7.62,50.16 2.71,-0.31 5.46,-0.48 8.25,-0.48 39.79,0 72.61,32.1 77.3,73.49 11.49,10.05 20.69,23.02 26.57,37.86 9.19,-2.98 18.96,-4.58 29.06,-4.58 48.64,0 89.23,37.08 98.64,86.35 35.94,19.2 60.65,59.05 60.65,105.1 0,64.77 -48.88,117.3 -109.16,117.3 -58.89,0 -106.88,-50.12 -109.07,-112.82 -17.62,-13.69 -30.94,-33.37 -37.42,-56.24 -5.49,1.1 -11.16,1.69 -16.96,1.69 -32.49,0 -61.03,-18.21 -77.27,-45.66 -13.55,10.57 -30.21,16.81 -48.23,16.81 -45.4,0 -82.23,-39.57 -82.23,-88.35 0,-12.58 2.45,-24.54 6.86,-35.36 -28.82,-10 -49.67,-39.06 -49.67,-73.34 0,-13.94 3.46,-27.03 9.49,-38.33 -5.6,3.92 -12.28,6.2 -19.46,6.2 -19.7,0 -35.68,-17.17 -35.68,-38.34 0,-6.18 1.36,-12.01 3.79,-17.19 -2,-1.07 -3.95,-2.23 -5.86,-3.45 -6.86,12.35 -19.42,20.63 -33.78,20.63 -21.73,0 -39.33,-18.92 -39.33,-42.24 0,-17.49 9.87,-32.5 23.96,-38.92 -17.04,-3.24 -30,-19.23 -30,-38.48 0,-9.26 3.01,-17.76 8.01,-24.45 -4.34,-5.46 -7.88,-11.68 -10.42,-18.44 -8.76,-14.45 -13.86,-31.7 -13.86,-50.23 0,-16.89 4.24,-32.73 11.63,-46.35 -1.77,-4.23 -2.76,-8.91 -2.76,-13.84 0,-18.64 14.07,-33.75 31.41,-33.75 3.04,0 5.98,0.47 8.76,1.34 -1.66,-5.22 -2.57,-10.8 -2.57,-16.61 0,-21.36 12.2,-39.67 29.54,-47.29 -3.83,-12.33 -5.95,-25.74 -5.95,-39.78 0,-52.29 29.21,-96.02 68.25,-106.86 -7.29,-19.93 -11.4,-42.28 -11.4,-65.9 0,-67.74 33.67,-125.1 80.08,-144.4 -1.16,-7.29 -1.76,-14.82 -1.76,-22.5 0,-61.53 38.36,-112.34 87.96,-119.81 4.61,-32.71 27.36,-57.56 54.72,-57.56 8.84,0 17.19,2.6 24.62,7.21 9.09,-53.73 47.07,-94.02 92.53,-94.02 17.84,0 34.54,6.21 48.78,17.02 7.56,-35.87 33.56,-62.3 64.48,-62.3 11.24,0 21.85,3.51 31.15,9.69 -1.13,-4.88 -1.73,-10.02 -1.73,-15.35 0,-30.22 19.5,-54.72 43.56,-54.72 14.88,0 28.04,9.39 35.89,23.74 15.44,-14.88 34.77,-23.74 55.72,-23.74 10.59,0 20.76,2.27 30.23,6.43 3.73,-15.26 16.65,-26.5 32.01,-26.5 4.55,0 8.86,0.98 12.81,2.76 9.85,-17.31 27.61,-28.88 47.87,-28.88 30.95,0 56.05,26.97 56.05,60.22 0,3.84 -0.34,7.57 -0.98,11.22 5.5,-3.01 11.73,-4.69 18.32,-4.69 22.37,0 40.51,19.49 40.51,43.54 0,23.29 -17.03,42.32 -38.44,43.48 -8.79,19.77 -27.57,33.43 -49.3,33.43 -30.15,0 -54.63,-26.28 -54.63,-58.69 0,-5.28 0.66,-10.4 1.88,-15.27 -8.03,-4.65 -14.88,-11.33 -19.93,-19.42l-1.72 0.82c10.67,18.8 16.93,41.82 16.93,66.66 0,9.78 -0.98,19.28 -2.8,28.33l1.29 -0.02c33.17,0 60.08,33.8 60.08,75.47 0,41.68 -26.91,75.48 -60.08,75.48 -11.4,0 -22.04,-3.99 -31.12,-10.91 -20.24,29.68 -50.29,48.51 -83.84,48.51 -6.11,0 -12.07,-0.61 -17.9,-1.82 -13.65,13.07 -30.67,20.83 -49.14,20.83 -20.98,0 -40.1,-10.01 -54.5,-26.44 -10.5,7.25 -22.54,11.36 -35.35,11.36 -14.93,0 -28.83,-5.6 -40.44,-15.22 -7.61,6.97 -16.06,12.53 -25.14,16.42 24.54,6.11 43.05,33.3 43.05,65.93 0,37.11 -23.95,67.2 -53.49,67.2 -29.53,0 -53.49,-30.09 -53.49,-67.2 0,-26 11.76,-48.55 28.97,-59.73 -26.81,-1.56 -50.71,-17.12 -67.16,-41.02 -0.71,1.26 -1.44,2.49 -2.22,3.7 9.66,18.52 15.23,40.42 15.23,63.87 0,48.9 -24.22,91.02 -59.05,110.02zm1574.77 1390.68c-6.98,3.74 -14.83,5.85 -23.16,5.85 -14.28,0 -27.2,-6.2 -36.58,-16.23 -0.8,0.85 -1.62,1.65 -2.48,2.42 -21.79,51.91 -70.37,88.06 -126.8,88.06 -76.75,0 -139.03,-66.92 -139.03,-149.4 0,-43.61 17.43,-82.86 45.18,-110.18 -7.6,-7.95 -13.35,-17.92 -16.56,-29.08 -8.97,3.9 -18.43,6.74 -28.27,8.4l0.02 1.31c0,71.54 -53.99,129.55 -120.57,129.55 -66.58,0 -120.57,-58.01 -120.57,-129.55 0,-16.76 2.96,-32.78 8.37,-47.48 -25.86,45.84 -72.74,76.44 -126.23,76.44 -81.46,0 -147.52,-70.98 -147.52,-158.5 0,-7.81 0.54,-15.48 1.56,-22.98 -12.54,-19.65 -19.87,-43.41 -19.87,-69 0,-24.52 6.73,-47.38 18.31,-66.53 -11.44,-15.23 -18.31,-34.59 -18.31,-55.7 0,-48.97 36.96,-88.68 82.53,-88.68 45.57,0 82.53,39.71 82.53,88.68 0,4.29 -0.3,8.52 -0.85,12.67 21.15,11.28 38.56,29.39 49.75,51.68 10.03,3.73 19.6,8.59 28.53,14.44 2.87,-2.26 5.9,-4.29 9.08,-6.09l-0.02 -2.52c0,-74.85 56.49,-135.56 126.15,-135.56 69.66,0 126.15,60.71 126.15,135.56l0 0.02 1.29 -0.02c52.87,0 98.2,34.61 117.49,83.89 29.27,-48.82 80.31,-81.13 138.34,-81.13 63.74,0 119.03,39.01 146.33,96 23.52,-28.52 57.84,-46.54 96.1,-46.54 19.47,0 37.94,4.69 54.46,13.03 13.21,-7.57 28.09,-12.18 43.92,-12.92 -2.1,-10.17 -3.22,-20.74 -3.22,-31.59 0,-9.98 0.93,-19.73 2.72,-29.13l-2.72 0.08c-29.85,0 -54.05,-26.02 -54.05,-58.09 0,-32.08 24.21,-58.1 54.05,-58.1 21.65,0 40.32,13.67 48.96,33.4 23.4,-20.86 53.45,-33.4 86.2,-33.4l3.72 0.06c3.97,-10.63 13.64,-18.13 24.94,-18.13 14.84,0 26.87,12.92 26.87,28.86l-0.06 1.97 0.7 0.34c4.9,-9.33 14.2,-15.63 24.87,-15.63 15.13,0 27.5,12.66 28.47,28.65 3.17,-1.35 6.63,-2.11 10.25,-2.11 15.28,0 27.67,13.33 27.67,29.76 0,15.49 -11.03,28.21 -25.11,29.61l1.01 2.34c4.42,-1.44 9.12,-2.22 13.97,-2.22 26.48,0 47.95,23.06 47.95,51.51 0,23.08 -14.14,42.62 -33.62,49.18 9.11,14.32 14.43,31.63 14.43,50.26 0,14.43 -3.19,28.06 -8.85,40.12 7.98,7.81 13,19.07 13,31.59 0,23.58 -17.8,42.71 -39.75,42.71 -2.07,0 -4.1,-0.17 -6.09,-0.5 -2.16,20.36 -11.24,38.49 -24.64,51.6 4.58,9.68 7.15,20.63 7.15,32.24 0,26.36 -13.32,49.38 -33.1,61.7 3.05,5.58 4.81,12.1 4.81,19.04 0,19.95 -14.43,36.26 -32.7,37.56 -10.83,95.08 -86.24,168.75 -177.65,168.75 -74.33,0 -138.07,-48.71 -165.14,-118.03 -11.55,6.62 -24.78,10.36 -38.77,10.36 -16.84,0 -32.49,-5.41 -45.56,-14.67zm75.56 -157.17c-0.84,-3.98 -1.5,-8.02 -1.93,-12.13 -1.56,3.3 -3.27,6.48 -5.15,9.53 2.41,0.74 4.77,1.63 7.08,2.6zm279.95 -78.78c-2.48,1.92 -5.11,3.63 -7.85,5.12 4.67,3.32 9.22,6.85 13.58,10.59 -2.39,-4.96 -4.34,-10.22 -5.74,-15.71zm-863.36 -75.51c9.62,-7.8 20.96,-13.26 33.3,-15.63 -0.16,-2.78 -0.23,-5.57 -0.23,-8.39l0.01 -1.39 -0.01 0c-17.01,0 -33.18,-3.62 -47.99,-10.18 -4.94,4.68 -10.5,8.6 -16.52,11.62l0.14 7.03c0,21.48 -4,41.96 -11.21,60.66 10.59,-18.07 25.2,-33.13 42.51,-43.73zm-402.03 -263.32c31.29,0 56.64,27.25 56.64,60.86 0,33.61 -25.35,60.86 -56.64,60.86 -31.28,0 -56.64,-27.25 -56.64,-60.86 0,-33.61 25.36,-60.86 56.64,-60.86z"/>
   <path class="fil9" d="M12377.5 2305.29l-255.11 -372.23c0,0 -252.42,-66.36 -295.39,54.83 -42.96,121.19 8.06,256.8 260.48,291.43 252.42,34.63 290.01,25.97 290.01,25.97z"/>
   <path class="fil4" d="M12194.9 2192.76c-96.67,-124.08 -131.58,-173.14 -131.58,-173.14 0,0 -161.11,-31.73 -169.17,14.43 -8.06,46.17 51.02,129.84 96.67,150.04 45.66,20.2 26.86,-5.77 2.69,-51.93 -24.17,-46.17 32.22,-46.17 77.87,8.65 45.66,54.83 123.52,51.94 123.52,51.94z"/>
   <path class="fil10" d="M12888.78 2009.22c9.5,0 18.27,3.33 25.36,8.98 5.18,-4.19 11.56,-6.75 18.47,-7.03 0.15,-14.59 11.22,-26.39 24.83,-26.39 6.32,0 12.08,2.54 16.47,6.71l0.02 0c-1.92,-3.29 -3.04,-7.18 -3.04,-11.36 0,-11.76 8.89,-21.31 19.83,-21.31 10.96,0 19.85,9.55 19.85,21.31 0,9.63 -5.93,17.76 -14.07,20.41 11.11,8.74 63.84,-6.23 63.84,13.81 0,20.03 -62.14,69.11 -83.78,72.43l32.38 21.27c15.26,10.01 -44.42,14.57 -60.83,19.51 8.32,9.24 13.46,21.84 13.46,35.72 0,14.87 -5.88,28.26 -15.29,37.63 2.61,6.49 4.05,13.67 4.05,21.18 0,29.65 -22.37,53.68 -49.96,53.68 -2.81,0 -5.55,-0.25 -8.23,-0.73 -4.04,2.11 -8.59,3.31 -13.39,3.31 -2.62,0 -5.16,-0.37 -7.59,-1.02l-1.37 1.02 0.35 0c24.6,0 44.55,21.44 44.55,47.88 0,7.55 -1.62,14.7 -4.53,21.05 19.05,10 32.18,31.02 32.18,55.34 0,33.99 -25.66,61.56 -57.3,61.56 -13.03,0 -25.04,-4.67 -34.67,-12.54 -6.93,3.34 -14.61,5.21 -22.71,5.21 -30.64,0 -55.5,-26.71 -55.5,-59.65 0,-19.95 9.14,-37.63 23.15,-48.46 -22.54,-3.55 -39.86,-24.43 -39.86,-49.64 0,-14.14 5.44,-26.92 14.2,-36.04 -8.85,-11.3 -14.2,-25.89 -14.2,-41.83 0,-34.41 24.9,-62.58 56.39,-64.86 -1.71,-2.71 -3.26,-5.57 -4.63,-8.52 -7.46,-8.23 -12.08,-19.48 -12.08,-31.87 0,-9.07 2.46,-17.51 6.7,-24.61 6.35,-26.05 24.46,-46.49 47.36,-53.32 6.27,-16.89 21.64,-28.82 39.59,-28.82zm532.07 255.25c14.94,0 27.06,13.03 27.06,29.08 0,16.04 -12.12,29.07 -27.06,29.07 -14.94,0 -27.06,-13.03 -27.06,-29.07 0,-16.05 12.12,-29.08 27.06,-29.08zm-135.65 -39.12c12.64,0 23.78,6.86 30.41,17.3 8.33,-9.96 20.4,-16.22 33.83,-16.22 25.11,0 45.48,21.88 45.48,48.87 0,26.97 -20.37,48.86 -45.48,48.86 -18.32,0 -34.12,-11.66 -41.31,-28.44 -6.3,5.4 -14.26,8.63 -22.93,8.63 -20.3,0 -36.77,-17.69 -36.77,-39.5 0,-21.82 16.47,-39.51 36.77,-39.51zm-122.16 -367.29c13.74,0 24.9,11.98 24.9,26.75 0,8.79 -3.95,16.58 -10.03,21.46 9.55,4.93 16.15,15.42 16.15,27.57 0,0.84 -0.03,1.65 -0.1,2.48 4.34,-1.61 8.98,-2.48 13.82,-2.48 23.28,0 42.17,20.28 42.17,45.31 0,25.01 -18.88,45.31 -42.17,45.31 -23.27,0 -42.17,-20.29 -42.17,-45.31 0,-5.2 0.82,-10.19 2.32,-14.84 -0.77,0.06 -1.54,0.1 -2.32,0.1 -14.45,0 -26.38,-11.58 -28.19,-26.58 -5.33,7.11 -13.5,11.7 -22.66,11.7 -16.04,0 -29.05,-13.99 -29.05,-31.23 0,-1.19 0.05,-2.36 0.18,-3.51 -1.04,-3.21 -1.6,-6.65 -1.6,-10.23 0,-17.23 13.02,-31.22 29.05,-31.22 10.69,0 20.04,6.22 25.09,15.47 -0.19,-1.3 -0.28,-2.63 -0.28,-3.99 0,-14.77 11.14,-26.75 24.9,-26.75zm-12.53 49.88c-3.49,-2.18 -6.43,-5.27 -8.57,-8.95 0.3,1.81 0.45,3.67 0.45,5.56 0,1.19 -0.05,2.35 -0.18,3.5 0.68,2.06 1.15,4.21 1.4,6.44 1.95,-2.56 4.27,-4.77 6.9,-6.54z"/>
   <path class="fil4" d="M11297.25 6081.86c911.67,-397.3 1620.03,-3067.36 1800.25,-3120 180.21,-52.64 138.42,54.02 143.34,34.32 4.93,-19.7 155.21,-146.7 212.55,-105.71 57.33,40.99 3.5,272.45 -5.17,397.67 -8.67,125.21 -2.16,188.81 -38.91,180.95 -36.76,-7.86 -27.77,253.95 -30.98,412.2 -3.2,158.25 -126.77,1097.19 -406.83,1730.71 -280.06,633.53 -890.54,1469.63 -890.54,1469.63 0,0 -310.71,387.26 -309.63,701.44 1.08,314.18 60.07,701.27 206.8,891.81 146.73,190.53 102.18,224.74 83.07,429.95 -19.1,205.22 -256.69,612.41 -301.55,700.57 -44.85,88.15 -26,160.94 -188.76,136.11 -162.77,-24.84 -146.29,-221.03 -260.87,-193.67 -114.59,27.37 -101.85,-47.88 -146.42,-116.28 -44.56,-68.41 0,-150.5 -82.76,-75.25 -82.76,75.25 -95.49,-581.44 89.12,-896.1 184.62,-314.66 299.2,-595.12 222.81,-875.58 -76.38,-280.46 -682.21,-1442.37 -95.51,-1702.77z"/>
   <path class="fil11" d="M11271.74 6369.67c509.62,-177.31 1262.7,-1644.62 1403.01,-2055.77 140.3,-411.16 397.6,-1288.53 461.04,-1129.91 63.43,158.62 -385.89,1483.38 -590.19,1855.19 -204.3,371.81 -227.55,283.42 -171.91,305.47 55.64,22.04 442.62,-552.55 561.61,-910.05 119,-357.5 201.75,-658.48 208.11,-590.07 6.37,68.4 -339.97,1372.85 -494.65,1551.74 -154.68,178.89 -453.88,890.3 -721.25,1102.35 -267.37,212.06 -311.94,164.18 -273.74,82.09 38.19,-82.09 502.64,-540.98 513.18,-703.98 10.54,-163.01 -608.67,772.38 -748.73,854.47 -140.05,82.09 494.61,-594.39 352.35,-546.87 -142.27,47.51 -460.57,416.9 -466.93,505.82 -6.37,88.93 254.64,355.71 292.83,526.72 38.2,171 -120.95,136.8 -152.78,41.03 -31.83,-95.77 108.65,276.7 197.92,989.37 89.29,712.67 114.8,904.55 38.27,1096.42 -76.52,191.87 -331.62,164.46 -293.35,-41.12 38.27,-205.58 178.56,-397.45 -12.76,-232.99 -191.32,164.46 -153.05,0 -38.27,-232.99 114.79,-232.99 199.92,-620.49 136.06,-957.64 -63.86,-337.15 -204.39,-633.04 -281.05,-970.18 -76.66,-337.15 -54.29,-481.65 81.22,-539.12z"/>
   <path class="fil11" d="M11825.66 6909.05c267.36,-191.53 642.46,-742.63 858.32,-1050.5 215.87,-307.87 255.73,-536.49 255.73,-536.49 0,0 -536.26,1530.59 -1114.05,1586.98z"/>
   <path class="fil4 str0" d="M13163.03 1858.08c13.75,0 24.91,11.98 24.91,26.75 0,8.78 -3.95,16.57 -10.02,21.45 9.54,4.92 16.14,15.43 16.14,27.58 0,0.83 -0.02,1.64 -0.1,2.47 4.34,-1.62 8.99,-2.47 13.82,-2.47 23.27,0 42.17,20.27 42.17,45.29 0,25.03 -18.89,45.32 -42.17,45.32 -23.27,0 -42.17,-20.28 -42.17,-45.32 0,-5.2 0.82,-10.19 2.32,-14.84 -0.78,0.07 -1.53,0.1 -2.32,0.1 -14.44,0 -26.39,-11.57 -28.19,-26.56 -5.33,7.1 -13.5,11.7 -22.67,11.7 -16.02,0 -29.05,-14 -29.05,-31.25 0,-1.19 0.07,-2.35 0.18,-3.49 -1.04,-3.23 -1.58,-6.65 -1.58,-10.24 0,-17.22 13.01,-31.22 29.05,-31.22 10.68,0 20.03,6.23 25.09,15.47 -0.2,-1.3 -0.3,-2.64 -0.3,-3.98 0,-14.77 11.15,-26.75 24.9,-26.75zm-12.52 49.87c-3.5,-2.17 -6.44,-5.28 -8.56,-8.95 0.3,1.82 0.42,3.67 0.42,5.56 0,1.19 -0.04,2.35 -0.18,3.5 0.68,2.06 1.16,4.22 1.4,6.45 1.97,-2.57 4.29,-4.78 6.91,-6.55z"/>
   <ellipse class="fil12" cx="11521.22" cy="1547.73" rx="47.52" ry="53.51"/>
   <ellipse class="fil12" cx="11567.52" cy="1489.91" rx="21.96" ry="23.6"/>
   <ellipse class="fil12" cx="11578.13" cy="1417.35" rx="35.04" ry="37.65"/>
   <ellipse class="fil12" cx="11601.54" cy="1363.55" rx="28.42" ry="30.54"/>
   <ellipse class="fil12" cx="11748.52" cy="1366.75" rx="27.54" ry="29.59"/>
   <ellipse class="fil12" cx="11713.8" cy="1282.05" rx="27.95" ry="30.03"/>
   <ellipse class="fil12" cx="11637.79" cy="1282.29" rx="83.16" ry="84.46"/>
   <g>
    <path class="fil9" d="M9993.72 3137.24c59.84,95.48 124.72,182.81 192,260.09 -93.67,-37.84 -155.91,-61.91 -171.07,-36.54 -48.4,80.92 204.44,271.73 204.44,271.73 0,0 -156.01,40.44 -387.36,-92.52 -231.35,-132.99 -333.59,-300.61 -333.59,-300.61 0,0 -96.82,-34.68 -263.62,-138.75 -166.81,-104.06 -145.27,-607.03 -145.27,-607.03 0,0 0,0 166.78,300.59 166.81,300.67 441.2,387.36 564.95,404.7 59.66,8.37 123.08,-24.94 172.74,-61.67z"/>
    <path class="fil9" d="M8895.56 3123.75c-233.26,-786.7 -37.65,-1208.26 -37.65,-1352.81 0,-144.55 0,-277.47 0,-277.47 0,0 -17.57,572.31 -19.57,815.12 -1.96,242.82 57.22,815.15 57.22,815.15z"/>
    <path class="fil9" d="M9089.52 1130.73c370.04,470.57 531.45,946.51 626.17,1346.68 35.27,148.96 86.81,291.67 149.33,424.28l-6.41 25.52c-688.65,-213.9 -710.16,-1653.43 -710.16,-1653.43 0,0 -37.68,46.26 -59.2,190.79 -21.53,144.52 53.82,722.63 53.82,722.63 0,0 -166.81,-572.31 -102.23,-838.27 19.62,-80.75 35.73,-154.57 48.69,-218.2z"/>
    <path class="fil9" d="M11601.81 4667.35c59.19,-427.82 -656.4,-722.64 -656.4,-722.64 0,0 112.98,786.24 656.4,722.64z"/>
    <path class="fil9" d="M11790.82 3855.36c160.76,-9.74 348.08,-6.35 440.9,19.04 201.21,55.04 344.95,106.67 344.95,106.67l282.13 -552.99c20.72,8.2 37.65,16.64 50.41,25.2 3.82,2.57 8.15,6.18 12.89,10.69l-425.87 996.65c-24.57,-1.92 -50.07,-4.29 -76.64,-7.21 -473.43,-52.03 -817.78,-439.36 -801.65,-491.42 8.69,-27.99 82.8,-71.02 172.87,-106.63zm545.65 979.11l-24.9 58.27 -38.47 9.48c20.57,-23.17 41.63,-46.06 63.36,-67.75z"/>
    <path class="fil9" d="M12880.67 3385.27l60.1 35.02 -629.2 1472.45 -80.97 19.93c269.76,-538.69 492.37,-1136.99 650.08,-1527.41z"/>
   </g>
   <path class="fil9" d="M12080.57 7253.65c76.51,124.92 231.28,362.95 699.36,311.8 597.37,-65.3 1113.57,-834.27 1519.15,-1087.03 405.57,-252.75 863.91,68.48 931.43,94.16 47.69,18.15 98.19,-118.3 109.33,49.05 -12.58,-9.12 -26.43,-17 -41.81,-23.36 -209.83,-86.72 -511.11,-161.89 -860.83,404.68 -349.73,566.55 -425.04,820.92 -747.85,953.9 -322.82,132.95 -758.62,109.84 -936.16,52.03 -177.55,-57.83 -328.19,-404.7 -328.19,-404.7 0,0 -32.28,370.02 118.36,566.57 150.67,196.56 833.95,98.27 833.95,98.27 0,0 -177.56,231.26 -349.73,283.3 -172.18,52.03 -769.36,-23.15 -1000.73,-549.23 -116.62,-265.17 -54.14,-536.17 53.73,-749.44zm3249.72 -233.35c-22.64,391.31 -229.57,1055 -409.63,1569.18 89.49,-292.23 194.44,-754.03 194.44,-754.03 0,0 -91.47,231.24 -279.77,277.47 -188.32,46.26 -301.3,-40.46 -269.02,-271.7 32.29,-231.24 91.47,-439.36 365.86,-526.09 274.39,-86.71 425.03,-156.09 236.71,-167.66 -188.29,-11.57 -414.26,34.69 -306.67,-52.03 107.61,-86.72 349.73,-109.84 468.08,-75.14zm-681.57 2298.7l-0.47 1.17 0 -0.03 0.47 -1.13z"/>
   <path class="fil4" d="M12695.33 7571.72c27.01,-1.04 55.16,-3.05 84.59,-6.28l0.08 0c125.68,44.07 324.71,62.41 597.28,-65.3 505.73,-237.04 1016.84,-740.01 1016.84,-740.01 0,0 -516.49,768.9 -973.82,936.57 -457.32,167.61 -532.65,127.17 -532.65,127.17l-192.34 -252.15z"/>
   <path class="fil6" d="M14057.25 6669c84.41,-76.46 165.09,-142.75 241.78,-190.56 -76.1,54.46 -157.17,117.37 -241.78,190.56z"/>
   <polygon class="fil9" points="14087.48,8170.75 14351.08,7875.91 14372.59,8367.28 "/>
   <path class="fil13" d="M11149.1 6660.52c69.17,51.9 137.5,99.78 203.67,143.84 76.12,120.12 216.49,290.63 243.71,412.52 38.2,171 -120.95,136.8 -152.78,41.03 -31.83,-95.77 108.65,276.7 197.92,989.37 89.29,712.67 114.8,904.55 38.27,1096.42 -76.52,191.87 -331.62,164.46 -293.35,-41.12 38.27,-205.58 178.56,-397.45 -12.76,-232.99 -191.32,164.46 -153.05,0 -38.27,-232.99 114.79,-232.99 199.92,-620.49 136.06,-957.64 -63.86,-337.15 -204.39,-633.04 -281.05,-970.18 -22.35,-98.25 -36.25,-180.11 -41.43,-248.27z"/>
   <g>
    <path class="fil9" d="M14419.82 3577.39c87.33,-176.86 221.96,-378.7 449.69,-591.12 10.74,164.49 -24.15,432.82 -373.28,562.7l-76.42 28.43zm731.28 -1275.55c-5.94,-112.38 -30.68,-215.74 -59.4,-301.01 66.64,-80.02 149.83,-228.81 191.34,-246.67 53.7,-23.09 198.72,132.74 69.82,357.79 -53.57,93.54 -130.34,152.7 -201.76,189.89zm-79.19 -355.75c-10,-25.84 -20.05,-49.34 -29.59,-70.28 73.28,-105.58 154.18,-194.37 197.78,-237.06 91.29,-89.46 209.46,-222.17 209.46,-222.17 0,0 -171.88,262.56 -252.42,360.68 -37.09,45.15 -87.81,112.29 -125.22,168.83z"/>
    <path class="fil9" d="M14197.82 4147.18c27.15,-42.64 47.72,-100.98 70.73,-172.1 106.59,-16.35 279.28,-60.72 447.9,-180.89 271.2,-193.33 281.95,-412.61 343.72,-571.33 61.76,-158.68 136.96,-643.46 136.96,-643.46 0,0 93.97,187.56 88.61,340.49 -5.38,152.94 -85.95,363.56 -85.95,363.56 0,0 72.51,-121.19 239,-236.6 166.51,-115.41 279.29,-144.27 284.66,-219.3 5.38,-75.01 -136.96,-1024.35 -182.6,-1050.31 -45.65,-25.98 -3.82,-285.99 -7.86,-401.35 -4.04,-115.37 130.44,-102.05 -64.65,-169.98 -195.09,-67.94 -309.12,-198 -325.23,-247.05 -16.12,-49.05 131.16,72.5 230.51,75.39 99.35,2.88 164.55,41.82 183.32,87.98 18.81,46.15 24.19,490.52 24.19,490.52 0,0 -2.69,-530.91 26.86,-568.44 29.53,-37.49 185.3,-118.3 233.62,-135.61 48.33,-17.3 32.21,5.77 -24.17,75.03 -56.4,69.25 -104.73,164.48 -131.59,233.73 -26.84,69.24 -38.11,489.9 -11.22,767.4 26.91,277.5 126.69,935.03 126.69,935.03 0,0 -128.88,92.35 -222.88,129.84 -93.97,37.5 -311.5,302.98 -494.11,652.13 -182.6,349.12 -867.35,447.24 -883.48,447.24 -1.44,0 -2.41,-0.68 -3.02,-1.94z"/>
    <path class="fil9" d="M13639.96 5337.57c0.95,-81.24 4.05,-159.37 9.96,-230.93 4.04,23.19 8.72,46.58 13.87,69.71 19.98,89.83 15.34,121.5 -23.82,161.22zm66.28 -516.51c145.09,-331.47 -292.67,-168.72 -88.13,-351.65 0,0 310.99,103.53 362.14,225.42 51.22,121.91 86.23,327.98 60.66,358.46 -25.6,30.47 -138.79,-207.54 -257.32,-217.68 -35.36,-3.03 -59.8,-9.14 -77.35,-14.56zm-88.13 -351.65c175.3,-156.75 391.79,-149.45 522.19,-257.32 5.78,91.11 -8.1,154.83 -65.66,222.68 -83.23,98.12 -456.53,34.64 -456.53,34.64z"/>
    <path class="fil9" d="M13663.91 5981.59c-6.52,-89 -12.66,-187.63 -17.16,-289.36 12.13,4.49 20.83,11.25 25.09,20.81 19.14,43.01 12.34,164.63 -7.93,268.55z"/>
    <path class="fil9" d="M13806.11 6151.63c64.46,-124.05 -72.5,-337.59 -56.41,-389.52 16.14,-51.93 241.7,8.63 284.67,75.03 42.95,66.36 75.16,279.9 -228.26,314.49z"/>
    <path class="fil9" d="M13811.48 5381.2c0,-129.82 -128.9,-409.75 -88.65,-415.52 40.3,-5.75 324.94,193.36 351.81,274.13 26.86,80.79 42.95,354.92 -24.15,337.61 -67.14,-17.27 -239,-196.22 -239,-196.22z"/>
   </g>
   <path class="fil9" d="M12043.07 1176.31c39.23,42.38 172.69,107.5 182.26,221.05 9.57,113.55 233.15,295.9 -19.17,371.57l-24.65 7.55c-0.72,-130.09 50.68,-223.29 12.13,-268.87 -53.7,-63.48 -268.53,0 -290.02,-75.03 -16.02,-55.96 54.59,-172.9 139.45,-256.27z"/>
   <path class="fil4" d="M11704.41 1060.71l0.7 0.46 4.14 2.96c145.61,109.64 294.59,69.81 333.83,112.19 8.9,9.61 22.66,20.4 38.71,32.65 -11.18,18.02 -28.63,29.62 -48.19,29.62 -11.59,0 -22.43,-4.03 -31.61,-11.09 -20.59,30.18 -51.11,49.35 -85.22,49.35 -6.19,0 -12.27,-0.66 -18.23,-1.84 -13.84,13.24 -31.1,21.15 -49.89,21.15 -21.33,0 -40.75,-10.19 -55.37,-26.88 -10.69,7.37 -22.94,11.51 -35.92,11.51 -15.17,0 -29.33,-5.67 -41.11,-15.45 -7.72,7.06 -16.36,12.77 -25.53,16.67 24.93,6.21 43.73,33.89 43.73,67 0,37.74 -24.33,68.33 -54.38,68.33 -30,0 -54.31,-30.59 -54.31,-68.33 0,-26.42 11.94,-49.29 29.41,-60.67 -27.25,-1.58 -51.54,-17.44 -68.24,-41.67 -0.68,1.26 -1.47,2.49 -2.24,3.75 9.82,18.83 15.46,41.04 15.46,64.87 0,49.73 -24.6,92.51 -60,111.8 5.49,17.82 8.49,37.35 8.49,57.83 0,53.97 -21.05,101.49 -52.88,128.92 9.19,12.03 16.75,26.08 22.24,41.53 26.18,-53.48 73.2,-89.12 126.86,-89.12 82.22,0 148.9,83.75 148.9,187.07 0,103.28 -66.68,187.07 -148.9,187.07 -10.9,0 -21.53,-1.45 -31.77,-4.26 -9.64,34.68 -31.53,62.16 -59.12,74.24 8.04,19.21 12.58,41.08 12.58,64.23 0,18 -2.72,35.2 -7.72,50.97 2.74,-0.3 5.56,-0.49 8.38,-0.49 40.43,0 73.78,32.63 78.54,74.69 11.7,10.21 21.02,23.36 27.03,38.45 9.32,-3 19.25,-4.65 29.52,-4.65 49.44,0 90.71,37.67 100.23,87.78 36.48,19.51 61.63,59.99 61.63,106.76 0,53.89 -33.33,99.48 -79.01,114.2 -31.17,-5.14 -63.86,-11.24 -97.39,-17.98 -26.5,-20.83 -44.07,-54.01 -45.37,-91.66 -17.91,-13.9 -31.45,-33.89 -38.02,-57.13 -5.6,1.11 -11.32,1.7 -17.24,1.7 -33.01,0 -62.02,-18.5 -78.51,-46.38 -13.75,10.75 -30.73,17.06 -49.03,17.06 -46.1,0 -83.53,-40.2 -83.53,-89.75 0,-12.77 2.5,-24.94 6.98,-35.92 -29.29,-10.17 -50.48,-39.71 -50.48,-74.55 0,-14.13 3.52,-27.48 9.66,-38.96 -5.73,4.01 -12.5,6.33 -19.77,6.33 -20,0 -36.27,-17.46 -36.27,-38.96 0,-6.28 1.4,-12.23 3.84,-17.46 -2.01,-1.09 -4,-2.3 -5.92,-3.52 -7.02,12.56 -19.75,20.98 -34.37,20.98 -22.06,0 -39.96,-19.25 -39.96,-42.95 0,-17.74 10.04,-33.02 24.35,-39.52 -17.34,-3.33 -30.45,-19.57 -30.45,-39.12 0,-9.39 3.02,-18.08 8.11,-24.86 -4.41,-5.53 -7.97,-11.86 -10.57,-18.72 -8.9,-14.69 -14.11,-32.22 -14.11,-51.04 0,-17.12 4.34,-33.25 11.81,-47.08 -1.78,-4.33 -2.78,-9.02 -2.78,-14.07 0,-18.93 14.27,-34.28 31.93,-34.28 3.09,0 6.06,0.47 8.89,1.34 -1.69,-5.29 -2.64,-10.98 -2.64,-16.84 0,-21.74 12.44,-40.33 30.05,-48.07 -3.9,-12.54 -6.02,-26.18 -6.02,-40.42 0,-53.14 29.68,-97.6 69.34,-108.62 -7.42,-20.21 -11.58,-42.96 -11.58,-66.93 0,-68.84 34.17,-127.15 81.36,-146.76 -1.18,-7.4 -1.76,-15.03 -1.76,-22.87 0,-62.49 38.94,-114.13 89.37,-121.7 4.68,-33.26 27.81,-58.51 55.56,-58.51 9.02,0 17.49,2.62 25.03,7.27 9.28,-54.53 47.86,-95.5 94.05,-95.5 16.14,0 31.37,5.03 44.71,13.86z"/>
   <path class="fil10" d="M11714.32 1067.86c143.98,104.96 289.97,66.55 328.75,108.45 9.75,10.53 25.3,22.47 43.34,36.19 -10.97,18.44 -28.49,30.4 -48.2,30.4 -11.4,0 -22.03,-3.98 -31.11,-10.91 -20.25,29.69 -50.27,48.53 -83.84,48.53 -6.1,0 -12.08,-0.63 -17.93,-1.81 -13.64,13.05 -30.63,20.81 -49.09,20.81 -21,0 -40.12,-10.02 -54.52,-26.44 -10.5,7.25 -22.55,11.36 -35.33,11.36 -14.95,0 -28.85,-5.61 -40.46,-15.22 -7.6,6.97 -16.1,12.54 -25.12,16.4 24.51,6.11 43.03,33.35 43.03,65.93 0,37.13 -23.95,67.24 -53.5,67.24 -29.53,0 -53.48,-30.11 -53.48,-67.24 0,-25.98 11.76,-48.52 28.97,-59.69 -26.83,-1.56 -50.72,-17.16 -67.16,-41.02 -0.68,1.24 -1.44,2.47 -2.22,3.71 9.66,18.51 15.24,40.39 15.24,63.85 0,48.92 -24.22,91.03 -59.05,109.99 5.39,17.57 8.34,36.78 8.34,56.92 0,53.12 -20.7,99.86 -52.03,126.89 9.02,11.83 16.48,25.64 21.87,40.87 25.78,-52.64 72.06,-87.72 124.86,-87.72 80.9,0 146.53,82.43 146.53,184.11 0,101.64 -65.63,184.09 -146.53,184.09 -10.75,0 -21.2,-1.43 -31.27,-4.2 -9.48,34.13 -31.01,61.18 -58.18,73.06 7.91,18.89 12.37,40.41 12.37,63.21 0,17.71 -2.68,34.64 -7.58,50.16 2.68,-0.29 5.44,-0.49 8.24,-0.49 39.77,0 72.6,32.12 77.27,73.5 11.51,10.04 20.7,23 26.59,37.84 9.16,-2.96 18.94,-4.58 29.05,-4.58 48.65,0 89.26,37.09 98.65,86.4 35.91,19.18 60.64,59.02 60.64,105.05 0,64.76 -48.88,117.3 -109.15,117.3 -58.9,0 -106.9,-50.09 -109.1,-112.82 -17.61,-13.68 -30.93,-33.36 -37.41,-56.23 -5.49,1.11 -11.15,1.68 -16.95,1.68 -32.49,0 -61.04,-18.22 -77.27,-45.66 -13.54,10.58 -30.23,16.8 -48.24,16.8 -45.39,0 -82.22,-39.57 -82.22,-88.32 0,-12.56 2.46,-24.55 6.86,-35.37 -28.82,-9.99 -49.69,-39.05 -49.69,-73.35 0,-13.92 3.48,-27.02 9.51,-38.33 -5.62,3.93 -12.29,6.21 -19.47,6.21 -19.68,0 -35.69,-17.18 -35.69,-38.33 0,-6.18 1.38,-12.02 3.8,-17.2 -1.98,-1.06 -3.95,-2.25 -5.84,-3.44 -6.89,12.36 -19.45,20.63 -33.82,20.63 -21.69,0 -39.33,-18.94 -39.33,-42.27 0,-17.46 9.89,-32.48 23.97,-38.88 -17.06,-3.26 -29.97,-19.27 -29.97,-38.5 0,-9.25 2.98,-17.78 7.99,-24.47 -4.34,-5.44 -7.86,-11.67 -10.41,-18.44 -8.76,-14.43 -13.88,-31.7 -13.88,-50.22 0,-16.88 4.26,-32.74 11.62,-46.36 -1.76,-4.22 -2.72,-8.87 -2.72,-13.83 0,-18.63 14.04,-33.74 31.4,-33.74 3.05,0 5.98,0.46 8.76,1.34 -1.66,-5.22 -2.6,-10.81 -2.6,-16.59 0,-21.4 12.24,-39.69 29.55,-47.3 -3.81,-12.35 -5.91,-25.77 -5.91,-39.78 0,-52.29 29.21,-96.03 68.24,-106.88 -7.29,-19.91 -11.4,-42.27 -11.4,-65.88 0,-67.75 33.65,-125.13 80.06,-144.43 -1.15,-7.27 -1.73,-14.79 -1.73,-22.48 0,-61.52 38.33,-112.34 87.94,-119.78 4.61,-32.73 27.37,-57.6 54.7,-57.6 8.87,0 17.21,2.58 24.63,7.19 9.12,-53.68 47.09,-93.99 92.55,-93.99 15.89,0 30.91,4.94 44.04,13.66z"/>
   <path class="fil10" d="M11521.24 1494.22c26.23,0 47.52,23.97 47.52,53.51 0,29.55 -21.29,53.51 -47.52,53.51 -26.25,0 -47.54,-23.96 -47.54,-53.51 0,-29.54 21.29,-53.51 47.54,-53.51z"/>
   <path class="fil10" d="M11567.52 1466.3c12.12,0 21.96,10.58 21.96,23.6 0,13.03 -9.84,23.6 -21.96,23.6 -12.13,0 -21.97,-10.57 -21.97,-23.6 0,-13.02 9.84,-23.6 21.97,-23.6z"/>
   <path class="fil10" d="M11578.12 1379.71c19.37,0 35.06,16.86 35.06,37.65 0,20.8 -15.69,37.66 -35.06,37.66 -19.34,0 -35.03,-16.86 -35.03,-37.66 0,-20.79 15.69,-37.65 35.03,-37.65z"/>
   <path class="fil10" d="M11601.54 1333.01c15.69,0 28.43,13.68 28.43,30.54 0,16.86 -12.73,30.55 -28.43,30.55 -15.69,0 -28.42,-13.69 -28.42,-30.55 0,-16.86 12.72,-30.54 28.42,-30.54z"/>
   <path class="fil10" d="M11748.52 1337.16c15.22,0 27.56,13.27 27.56,29.59 0,16.35 -12.34,29.62 -27.56,29.62 -15.19,0 -27.55,-13.27 -27.55,-29.62 0,-16.32 12.35,-29.59 27.55,-29.59z"/>
   <path class="fil10" d="M11713.8 1252.02c15.44,0 27.95,13.44 27.95,30.03 0,16.59 -12.51,30.04 -27.95,30.04 -15.44,0 -27.95,-13.44 -27.95,-30.04 0,-16.58 12.51,-30.03 27.95,-30.03z"/>
   <path class="fil10" d="M11637.79 1197.82c45.94,0 83.19,37.82 83.19,84.46 0,46.65 -37.25,84.46 -83.19,84.46 -45.91,0 -83.16,-37.81 -83.16,-84.46 0,-46.64 37.25,-84.46 83.16,-84.46z"/>
  </g>
 </g>
</svg>
