<?xml version="1.0" encoding="UTF-8"?>
<!DOCTYPE svg PUBLIC "-//W3C//DTD SVG 1.1//EN" "http://www.w3.org/Graphics/SVG/1.1/DTD/svg11.dtd">
<!-- Creator: CorelDRAW 2020 (64-Bit Оценочная версия) -->
<svg xmlns="http://www.w3.org/2000/svg" xml:space="preserve" width="44.0135mm" height="37.9958mm" version="1.1" style="shape-rendering:geometricPrecision; text-rendering:geometricPrecision; image-rendering:optimizeQuality; fill-rule:evenodd; clip-rule:evenodd"
viewBox="0 0 1031.99 890.9"
 xmlns:xlink="http://www.w3.org/1999/xlink"
 xmlns:xodm="http://www.corel.com/coreldraw/odm/2003">
 <defs>
  <style type="text/css">
   <![CDATA[
    .str0 {stroke:#2B2A29;stroke-width:4.69;stroke-miterlimit:22.9256}
    .str4 {stroke:#F08365;stroke-width:4.69;stroke-miterlimit:22.9256}
    .str2 {stroke:#E31E24;stroke-width:4.69;stroke-miterlimit:22.9256}
    .str3 {stroke:#BD2A2C;stroke-width:4.69;stroke-miterlimit:22.9256}
    .str1 {stroke:#523630;stroke-width:4.69;stroke-miterlimit:22.9256}
    .fil8 {fill:none}
    .fil5 {fill:#FEFEFE}
    .fil3 {fill:#2B2A29}
    .fil19 {fill:#FFFBDB}
    .fil2 {fill:#AF9778}
    .fil1 {fill:#86755D}
    .fil11 {fill:#FECC00}
    .fil16 {fill:#A76281}
    .fil9 {fill:#F08143}
    .fil14 {fill:#E31E24}
    .fil12 {fill:#FCFCFC}
    .fil7 {fill:#FAFAFA}
    .fil20 {fill:#E9B320}
    .fil0 {fill:#D4E4EC}
    .fil15 {fill:#BD2A2C}
    .fil22 {fill:#B0CB1F}
    .fil17 {fill:#523630}
    .fil18 {fill:#0B233F}
    .fil4 {fill:#FAF2B9}
    .fil13 {fill:#FE9466}
    .fil10 {fill:#FEB780}
    .fil21 {fill:#F08365;fill-rule:nonzero}
    .fil6 {fill:#2B2A29;fill-opacity:0.109804}
   ]]>
  </style>
    <mask id="id0">
  <linearGradient id="id1" gradientUnits="userSpaceOnUse" x1="520.47" y1="447.21" x2="381.62" y2="900.54">
   <stop offset="0" style="stop-opacity:1; stop-color:white"/>
   <stop offset="1" style="stop-opacity:0; stop-color:white"/>
  </linearGradient>
     <rect style="fill:url(#id1)" x="146.89" y="735.89" width="531.81" height="157.35"/>
    </mask>
    <mask id="id2">
  <linearGradient id="id3" gradientUnits="userSpaceOnUse" x1="536.07" y1="121.67" x2="533.92" y2="147.21">
   <stop offset="0" style="stop-opacity:1; stop-color:white"/>
   <stop offset="1" style="stop-opacity:0; stop-color:white"/>
  </linearGradient>
     <rect style="fill:url(#id3)" x="461.61" y="121.95" width="149.12" height="28.95"/>
    </mask>
 </defs>
 <g id="Слой_x0020_1">
  <metadata id="CorelCorpID_0Corel-Layer"/>
  <g id="_2124139421904">
   <path class="fil0" d="M206.98 304.48c9.13,0 17.89,1.42 26.08,4.02 5.23,-16.53 20.34,-28.69 38.4,-29.51 5.94,-45.86 45.14,-81.29 92.61,-81.29 39.32,0 72.97,24.31 86.74,58.71l1.37 -0.26c0.27,-46.95 38.42,-84.95 85.44,-84.95 43.57,0 79.54,32.63 84.79,74.79 3.26,-0.39 6.57,-0.6 9.93,-0.6 29.01,0 54.51,15.05 69.13,37.77 8.39,-2.17 17.19,-3.33 26.26,-3.33 20.54,0 39.7,5.93 55.86,16.15 11.09,-19.9 32.35,-33.37 56.74,-33.37 35.84,0 64.91,29.07 64.91,64.91 0,4.08 -0.38,8.06 -1.1,11.93 3.98,-0.87 8.12,-1.33 12.36,-1.33 31.82,0 57.63,25.81 57.63,57.63 0,21.94 -12.27,41.03 -30.33,50.76 6.57,8.98 10.46,20.06 10.46,32.04 0,29.99 -24.32,54.32 -54.32,54.32 -27.95,0 -50.96,-21.12 -53.98,-48.26 -1.14,0.47 -2.3,0.92 -3.47,1.32 2.03,6 3.14,12.43 3.14,19.12 0,8.22 -1.66,16.04 -4.67,23.17 -1.29,0.64 -2.5,1.39 -3.63,2.23 -0.78,-20.26 -6.47,-43.43 -31.45,-43.43 -4.12,0 -6.51,0.26 -10.36,1.71 -0.66,0.17 -1.52,0.2 -2.2,0.26l-6.55 0.55 -13.99 25.17 -1.06 8.86 -53.94 0 -0.06 -4.35 -1.45 0.57 0 -13.54 -3.78 0c-6.65,-12.24 -14.62,-19.23 -29.7,-19.23 -12.43,0 -22.86,8.21 -27.34,19.23l-3.04 0 -1.54 15.39 -25 0 0 -13.46 -36.18 0 0 13.46 -55.78 0 0 36.54 -5.77 0 0 7.69 -4.21 0 0 -7.69 -29.71 0 -2.05 -4.09 -6.71 -4.03 0 -13.04 -13.51 0 -0.01 -6.3 -10.06 -17.76 -5.02 -5.03 -5.82 -2.14 -1.17 -14.14 -25.59 2.1 0 11.41c-3.43,1.53 -6.51,3.76 -9.17,6.89 -3.59,4.24 -5.05,8.74 -7.98,13.13l-2.08 3.11 0 4.6 -0.48 -6.75 -8.66 -32.49 -11.09 -13.85 -25.21 -11.95 -23.8 -49.24 0 49.17 -3.83 0 -3.48 3.02c-5.07,4.41 -10.14,7.14 -14.97,11.1 -6.77,5.55 -11.26,15.89 -14.98,23.64l-0.91 1.89 -1.46 13.08 -4.5 2.51 -0.01 3.19c-4.95,-10.31 -8.76,-17.72 -17.78,-21.39l-0.6 -12.04 -25.96 0 0 12.26c-3.61,1.49 -6.89,3.65 -9.67,6.61l-30.67 -6.37 -0.04 18.16 -12.93 10.41 -1.11 20.73c-2.5,0.49 -5.09,0.75 -7.74,0.75 -22.09,0 -40,-17.91 -40,-40 0,-22.09 17.91,-40 40,-40 4.95,0 9.69,0.9 14.07,2.55 2.74,-6.98 6.24,-13.6 10.42,-19.78 -0.25,-0.82 -0.49,-1.65 -0.71,-2.48 -0.64,0.01 -1.29,0.02 -1.94,0.02 -15.01,0 -29.05,-3.82 -41.1,-10.48 -2.31,13.38 -13.98,23.56 -28.01,23.56 -15.7,0 -28.43,-12.73 -28.43,-28.43 0,-14.3 10.56,-26.13 24.31,-28.13 -4.9,-9.74 -7.64,-20.62 -7.64,-32.09 0,-41.74 36.22,-75.58 80.88,-75.58z"/>
   <path class="fil1" d="M11.92 693.51l961.57 -5.29 17.44 34.43 -22.52 6.62 63.59 54.32 -50.34 -3.97 22.52 33.12 -169.57 3.97 -41.07 -10.6 -133.8 49.02 -38.42 -47.69 -233.16 83.46 -62.26 -33.12 -72.86 26.5 -128.5 -42.39 -72.86 -64.91 -51.67 -6.62 37.09 -29.14c0,0 -34.44,-21.2 -25.17,-47.69z"/>
   <path class="fil2" d="M141.75 822.01l241.26 -128.02 320.17 0 175.83 121.68 -44.4 1.04 -41.07 -10.6 -133.8 49.02 -38.42 -47.69 -233.16 83.46 -62.26 -33.12 -72.86 26.5 -113.78 -37.54 -14.72 -4.85 -6.57 -5.85c6.76,-4.66 14.63,-9.35 23.79,-14.02z"/>
   <polygon class="fil3" style="mask:url(#id0)" points="149.24,850.03 361.88,743.51 407.06,741.14 394.78,845.85 648.85,738.23 676.36,742.75 643.84,765.04 590.37,818.51 388.16,890.9 325.89,857.78 253.03,884.27 "/>
   <g>
    <polygon class="fil4" points="46.07,679.96 221.09,679.96 221.09,686.45 46.07,686.45 "/>
    <polygon class="fil4" points="53.72,675.41 213.77,675.41 213.77,680.23 53.72,680.23 "/>
    <polygon class="fil4" points="60.17,670.54 208.06,670.54 208.06,675.36 60.17,675.36 "/>
    <polygon class="fil4" points="65.85,667.12 201.86,667.12 201.86,670.6 65.85,670.6 "/>
    <polygon class="fil4" points="70.47,664.77 194.59,664.77 194.59,666.91 70.47,666.91 "/>
    <polygon class="fil4" points="73.49,662.45 191.33,662.45 191.33,664.49 73.49,664.49 "/>
    <g>
     <polygon class="fil4" points="82.42,605.48 94.78,605.48 94.78,657.71 82.42,657.71 "/>
     <path class="fil5" d="M85.25 606.53l0 0c0.4,0 0.73,0.38 0.73,0.85l0 48.43c0,0.47 -0.33,0.85 -0.73,0.85l0 0c-0.4,0 -0.73,-0.38 -0.73,-0.85l0 -48.43c0,-0.47 0.33,-0.85 0.73,-0.85z"/>
     <path class="fil5" d="M88.63 606.56l0 0c0.4,0 0.73,0.38 0.73,0.85l0 48.43c0,0.47 -0.33,0.85 -0.73,0.85l0 0c-0.4,0 -0.73,-0.38 -0.73,-0.85l0 -48.43c0,-0.47 0.33,-0.85 0.73,-0.85z"/>
     <path class="fil5" d="M92.01 606.45l0 0c0.4,0 0.73,0.38 0.73,0.85l0 48.43c0,0.47 -0.33,0.85 -0.73,0.85l0 0c-0.4,0 -0.73,-0.38 -0.73,-0.85l0 -48.43c0,-0.47 0.33,-0.85 0.73,-0.85z"/>
     <path class="fil4" d="M78.25 601.08l20.36 0c0.28,-0.06 0.58,-0.09 0.89,-0.09 1.81,0 3.29,1.14 3.29,2.54 0,1.4 -1.47,2.54 -3.29,2.54 -1.82,0 -3.29,-1.14 -3.29,-2.54 0,-0.38 0.11,-0.74 0.3,-1.07l-15.84 0c0.22,0.34 0.34,0.72 0.34,1.13 0,1.4 -1.47,2.54 -3.29,2.54 -1.82,0 -3.29,-1.14 -3.29,-2.54 0,-1.4 1.47,-2.54 3.29,-2.54 0.18,0 0.35,0.01 0.52,0.03zm21.35 1.13c0.92,0 1.66,0.57 1.66,1.28 0,0.71 -0.75,1.28 -1.66,1.28 -0.92,0 -1.66,-0.58 -1.66,-1.28 0,-0.71 0.74,-1.28 1.66,-1.28zm-21.78 0.1c0.92,0 1.66,0.57 1.66,1.28 0,0.71 -0.75,1.28 -1.66,1.28 -0.92,0 -1.66,-0.57 -1.66,-1.28 0,-0.71 0.74,-1.28 1.66,-1.28zm4.3 0.65l13 0 0 1.82 -13 0 0 -1.82z"/>
     <path class="fil4" d="M78.25 661.82l20.36 0c0.28,0.06 0.58,0.09 0.89,0.09 1.82,0 3.29,-1.14 3.29,-2.54 0,-1.4 -1.47,-2.54 -3.29,-2.54 -1.81,0 -3.29,1.14 -3.29,2.54 0,0.38 0.11,0.74 0.3,1.07l-15.84 0c0.22,-0.34 0.34,-0.72 0.34,-1.13 0,-1.4 -1.47,-2.54 -3.29,-2.54 -1.81,0 -3.29,1.14 -3.29,2.54 0,1.4 1.47,2.54 3.29,2.54 0.18,0 0.35,-0.01 0.52,-0.03zm21.35 -1.13c0.92,0 1.66,-0.58 1.66,-1.28 0,-0.71 -0.75,-1.28 -1.66,-1.28 -0.92,0 -1.66,0.57 -1.66,1.28 0,0.71 0.75,1.28 1.66,1.28zm-21.78 -0.1c0.92,0 1.66,-0.58 1.66,-1.28 0,-0.71 -0.75,-1.28 -1.66,-1.28 -0.92,0 -1.66,0.58 -1.66,1.28 0,0.71 0.75,1.28 1.66,1.28zm4.3 -0.66l13 0 0 -1.82 -13 0 0 1.82z"/>
    </g>
    <g>
     <polygon class="fil4" points="172.4,605.41 184.75,605.41 184.75,657.64 172.4,657.64 "/>
     <path class="fil5" d="M175.23 606.46l0 0c0.4,0 0.73,0.38 0.73,0.85l0 48.43c0,0.47 -0.33,0.85 -0.73,0.85l0 0c-0.4,0 -0.73,-0.38 -0.73,-0.85l0 -48.43c0,-0.47 0.33,-0.85 0.73,-0.85z"/>
     <path class="fil5" d="M178.61 606.49l0 0c0.4,0 0.73,0.38 0.73,0.85l0 48.43c0,0.47 -0.33,0.85 -0.73,0.85l0 0c-0.4,0 -0.73,-0.38 -0.73,-0.85l0 -48.43c0,-0.47 0.33,-0.85 0.73,-0.85z"/>
     <path class="fil5" d="M181.99 606.38l0 0c0.4,0 0.73,0.38 0.73,0.85l0 48.43c0,0.47 -0.33,0.85 -0.73,0.85l0 0c-0.4,0 -0.73,-0.38 -0.73,-0.85l0 -48.43c0,-0.47 0.33,-0.85 0.73,-0.85z"/>
     <path class="fil4" d="M168.22 601.01l20.37 0c0.28,-0.06 0.58,-0.09 0.89,-0.09 1.82,0 3.29,1.14 3.29,2.54 0,1.4 -1.47,2.54 -3.29,2.54 -1.82,0 -3.29,-1.14 -3.29,-2.54 0,-0.38 0.11,-0.74 0.3,-1.07l-15.84 0c0.22,0.34 0.34,0.72 0.34,1.13 0,1.4 -1.47,2.54 -3.29,2.54 -1.82,0 -3.29,-1.14 -3.29,-2.54 0,-1.4 1.47,-2.54 3.29,-2.54 0.18,0 0.35,0.01 0.52,0.03zm21.35 1.13c0.92,0 1.66,0.58 1.66,1.28 0,0.71 -0.74,1.28 -1.66,1.28 -0.92,0 -1.66,-0.58 -1.66,-1.28 0,-0.71 0.75,-1.28 1.66,-1.28zm-21.78 0.1c0.92,0 1.66,0.57 1.66,1.28 0,0.71 -0.74,1.28 -1.66,1.28 -0.92,0 -1.66,-0.58 -1.66,-1.28 0,-0.71 0.75,-1.28 1.66,-1.28zm4.3 0.66l13 0 0 1.82 -13 0 0 -1.82z"/>
     <path class="fil4" d="M168.22 661.75l20.37 0c0.28,0.06 0.58,0.09 0.89,0.09 1.82,0 3.29,-1.14 3.29,-2.54 0,-1.4 -1.47,-2.54 -3.29,-2.54 -1.82,0 -3.29,1.14 -3.29,2.54 0,0.38 0.11,0.74 0.3,1.07l-15.84 0c0.22,-0.34 0.34,-0.72 0.34,-1.13 0,-1.4 -1.47,-2.54 -3.29,-2.54 -1.82,0 -3.29,1.14 -3.29,2.54 0,1.4 1.47,2.54 3.29,2.54 0.18,0 0.35,-0.01 0.52,-0.03zm21.35 -1.13c0.92,0 1.66,-0.57 1.66,-1.28 0,-0.71 -0.74,-1.28 -1.66,-1.28 -0.92,0 -1.66,0.58 -1.66,1.28 0,0.71 0.75,1.28 1.66,1.28zm-21.78 -0.1c0.92,0 1.66,-0.57 1.66,-1.28 0,-0.71 -0.74,-1.28 -1.66,-1.28 -0.92,0 -1.66,0.57 -1.66,1.28 0,0.71 0.74,1.28 1.66,1.28zm4.3 -0.65l13 0 0 -1.82 -13 0 0 1.82z"/>
    </g>
    <g>
     <polygon class="fil4" points="129.15,605.61 141.51,605.61 141.51,657.84 129.15,657.84 "/>
     <path class="fil5" d="M131.98 606.66l0 0c0.4,0 0.73,0.38 0.73,0.85l0 48.43c0,0.47 -0.33,0.85 -0.73,0.85l0 0c-0.4,0 -0.73,-0.38 -0.73,-0.85l0 -48.43c0,-0.47 0.33,-0.85 0.73,-0.85z"/>
     <path class="fil5" d="M135.37 606.69l0 0c0.4,0 0.73,0.38 0.73,0.85l0 48.43c0,0.47 -0.33,0.85 -0.73,0.85l0 0c-0.4,0 -0.73,-0.38 -0.73,-0.85l0 -48.43c0,-0.47 0.33,-0.85 0.73,-0.85z"/>
     <path class="fil5" d="M138.75 606.58l0 0c0.4,0 0.73,0.38 0.73,0.85l0 48.43c0,0.47 -0.33,0.85 -0.73,0.85l0 0c-0.4,0 -0.73,-0.38 -0.73,-0.85l0 -48.43c0,-0.47 0.33,-0.85 0.73,-0.85z"/>
     <path class="fil4" d="M124.98 601.21l20.37 0c0.28,-0.06 0.58,-0.09 0.89,-0.09 1.82,0 3.29,1.14 3.29,2.54 0,1.4 -1.47,2.54 -3.29,2.54 -1.82,0 -3.29,-1.14 -3.29,-2.54 0,-0.38 0.11,-0.74 0.3,-1.07l-15.84 0c0.22,0.34 0.34,0.72 0.34,1.13 0,1.4 -1.47,2.54 -3.29,2.54 -1.82,0 -3.29,-1.14 -3.29,-2.54 0,-1.4 1.47,-2.54 3.29,-2.54 0.18,0 0.35,0.01 0.52,0.03zm21.35 1.13c0.92,0 1.66,0.57 1.66,1.28 0,0.71 -0.74,1.28 -1.66,1.28 -0.92,0 -1.66,-0.57 -1.66,-1.28 0,-0.71 0.75,-1.28 1.66,-1.28zm-21.78 0.09c0.92,0 1.66,0.58 1.66,1.28 0,0.71 -0.74,1.28 -1.66,1.28 -0.92,0 -1.66,-0.57 -1.66,-1.28 0,-0.71 0.75,-1.28 1.66,-1.28zm4.3 0.66l13 0 0 1.82 -13 0 0 -1.82z"/>
     <path class="fil4" d="M124.98 661.96l20.37 0c0.28,0.06 0.58,0.09 0.89,0.09 1.82,0 3.29,-1.14 3.29,-2.54 0,-1.4 -1.47,-2.54 -3.29,-2.54 -1.82,0 -3.29,1.14 -3.29,2.54 0,0.38 0.11,0.74 0.3,1.07l-15.84 0c0.22,-0.34 0.34,-0.72 0.34,-1.13 0,-1.4 -1.47,-2.54 -3.29,-2.54 -1.82,0 -3.29,1.14 -3.29,2.54 0,1.4 1.47,2.54 3.29,2.54 0.18,0 0.35,-0.01 0.52,-0.03zm21.35 -1.13c0.92,0 1.66,-0.57 1.66,-1.28 0,-0.71 -0.74,-1.28 -1.66,-1.28 -0.92,0 -1.66,0.57 -1.66,1.28 0,0.71 0.75,1.28 1.66,1.28zm-21.78 -0.1c0.92,0 1.66,-0.57 1.66,-1.28 0,-0.71 -0.74,-1.28 -1.66,-1.28 -0.92,0 -1.66,0.57 -1.66,1.28 0,0.71 0.74,1.28 1.66,1.28zm4.3 -0.65l13 0 0 -1.82 -13 0 0 1.82z"/>
    </g>
    <polygon class="fil4" points="70.84,598.22 196.15,598.22 196.15,599.56 70.84,599.56 "/>
    <polygon class="fil4" points="71.46,589.3 196.77,589.3 196.77,590.65 71.46,590.65 "/>
    <polygon class="fil4" points="75.8,591.89 191.44,591.89 191.44,597.07 75.8,597.07 "/>
    <polygon class="fil4" points="61.65,587.87 207.32,588.06 134.86,555.86 "/>
    <polygon class="fil5" points="75.45,586.03 193.53,586.18 134.79,560.08 "/>
    <polygon class="fil4" points="81.51,584.7 187.47,584.84 134.76,561.42 "/>
    <path class="fil6" d="M135.52 570.76c4.23,0 7.67,2.65 7.67,5.92 0,3.27 -3.44,5.93 -7.67,5.93 -4.23,0 -7.67,-2.65 -7.67,-5.93 0,-3.27 3.44,-5.92 7.67,-5.92z"/>
    <path class="fil5" d="M134.66 568.88c4.37,0 7.91,2.73 7.91,6.11 0,3.37 -3.54,6.11 -7.91,6.11 -4.37,0 -7.91,-2.73 -7.91,-6.11 0,-3.37 3.54,-6.11 7.91,-6.11z"/>
    <path class="fil4" d="M317.61 592.05c0,-4.43 1.34,-5.77 5.77,-5.77 2.7,0 3.85,2.62 3.85,5.77l0 40.39 -5.77 0 0 -7.69 -3.85 0 0 -32.7zm21.16 30.77l-7.78 1.59 0.09 -41.98 7.7 1.92 2.07 34.62 1.78 0 1.93 -36.54 3.75 -2.21c3.11,2.5 3.94,0.64 3.94,6.06l0 32.7 -7.69 0 -5.77 3.85zm-32.7 -26.93l7.7 0 0 25 -7.7 -1.92 0 -23.08zm-9.62 19.23c0,-5.32 1.48,-4.63 5.77,-5.77l0 5.77c0,5.32 -1.48,4.63 -5.77,5.77l0 -5.77zm88.48 -78.86c4.29,1.15 5.77,0.45 5.77,5.77l0 17.31c-2.99,-2 -5.77,-2.55 -5.77,-7.69l0 -15.39zm-11.54 0c0,-3.15 1.15,-5.77 3.85,-5.77 2.69,0 3.85,2.62 3.85,5.77l0 17.31c-5.43,-0.45 -7.7,0.04 -7.7,-5.77l0 -11.54zm-51.93 15.39l-5.77 1.92 -11.33 4.58 -0.21 -10.35c0,-7.39 0.74,-8.86 7.69,-9.62l1.93 15.39 1.21 -23.13 6.48 1.98 2.13 17.3 3.64 0.01 0 -17.31c0,-3.72 3.43,-7.69 5.77,-7.69 2.59,0 2.88,2.13 3.85,3.85l2.13 17.3 3.64 0.01c0,-15.06 -4.29,-20.85 9.62,-21.16l0 3.85 2.13 17.3 3.64 0.01c0,-8.91 -2.76,-19.23 5.77,-19.23 2.69,0 3.85,2.62 3.85,5.77l0 17.31 -3.85 0 -26.93 0 -15.39 1.93zm-15.39 -30.77l-3.74 2.09 -0.1 38.3 -19.23 17.31c-1.32,2.35 -1.93,2.06 -1.93,5.77l0 46.16 6.51 -0.69 -4.59 -5.08 5.77 0 1.59 8.76 4.19 -8.76 21.16 0 0.39 7.04 9.22 6.42c9.71,-6.5 13.59,-3.78 11.54,-13.46l19.98 0.79 6.95 6.9 0 -7.69c-4.24,-2.25 -7.7,-1.68 -7.7,-7.69l0 -28.85c0,-4.43 1.34,-5.77 5.77,-5.77 6.7,0 3.85,32.56 3.85,40.39l3.85 -34.62c5.25,-3.33 5.16,-4.34 7.69,1.92l3.85 30.77c0,-9.66 -3.16,-25 5.77,-25 6.08,0 3.85,15.04 3.85,21.16l3.85 -7.7 3.85 1.92 2.01 9.35 13.38 4.12 0 -44.24 -20.28 -20.2 -2.8 -39.43c-7.58,-7.99 -21.32,-13.46 -36.54,-13.46l-13.46 0c-20.04,0 -23.61,6.09 -34.62,13.46z"/>
    <path class="fil4" d="M502.26 665.13l5.77 0 0 13.46 -5.77 0 0 -13.46zm-17.31 -5.77l-40.39 2.05 0 32.57 125.02 0 0 -32.7c-12.59,0 -43.42,4.51 -46.16,-5.77l-7.69 -7.7c-7.64,-0.64 -4.63,-1.92 -9.62,-1.92 -11.96,0 -14.57,8.64 -21.16,13.46z"/>
    <path class="fil4" d="M259.91 630.51l5.77 0 0 34.62 -5.77 0 0 -34.62zm-7.69 0l5.77 0 0 34.62 -5.77 0 0 -34.62zm7.69 -26.93l5.77 0 0 23.08 -5.77 0 0 -23.08zm-7.69 3.85c0,-3.71 0.6,-3.42 1.92,-5.77 3.02,2.21 3.85,0.35 3.85,5.77l0 19.23 -5.77 0 0 -19.23zm7.69 -36.54l5.77 0 0 15.39 -5.77 0 0 -15.39zm-7.69 3.85c0,-3.71 0.6,-3.43 1.92,-5.77 3.02,2.21 3.85,0.35 3.85,5.77l0 11.54 -5.77 0 0 -11.54zm-13.46 1.92l0 117.33 38.47 0 0 -32.7 -5.77 0 1.28 -10.65 6.42 -8.58 0 -76.94 -40.39 0 0 11.54z"/>
    <path class="fil4" d="M927.33 672.83l9.62 0 0 17.31 -9.62 0 0 -17.31zm-17.31 0l9.62 0 0 17.31 -9.62 0 0 -17.31zm-15.39 0l9.62 0 0 17.31 -9.62 0 0 -17.31zm32.7 -38.47l9.62 0 0 17.31 -9.62 0 0 -17.31zm-17.31 0l9.62 0 0 17.31 -9.62 0 0 -17.31zm-15.39 11.54l0 -9.62 9.59 -2.18 0.02 17.56 -9.62 0 0 -5.77zm-7.69 11.54l-7.7 0 -9.62 0 -9.62 0 -7.69 0 -9.62 0 -28.85 0 -61.55 1.92 113.48 0 7.28 4.51 0.42 3.18 -5.81 1.82 1.96 25.11 1.92 0c0,-9.45 -3.05,-23.08 5.77,-23.08l1.92 0c8.82,0 5.77,13.63 5.77,23.08l57.7 0 0 -67.32 -44.24 0 -9.62 -0.48 -1.92 31.26z"/>
    <path class="fil4" d="M404.16 667.06c0,-4.43 1.34,-5.77 5.77,-5.77l1.92 0c4.43,0 5.77,1.34 5.77,5.77l0 23.08 -13.46 0 0 -23.08zm-125.02 -25l-6.42 8.58 -1.28 10.65 5.77 0 0 32.7 7.69 0c0,-32.82 -2.23,-31.36 11.54,-51.93l5.77 -3.85c13.21,3.08 19.23,4.85 19.23,21.16 10.81,-0.24 9.62,-0.85 9.72,-11.38l3.74 -2.09c8.16,-2.18 3.36,-3.85 9.62,-3.85l3.85 0c7.06,0 9.3,2.98 13.46,5.77l3.85 1.93c0,13.3 1.09,12.2 9.62,7.69l-0.02 -7.71 3.87 -7.68 5.77 0c12.35,0 18.45,-0.53 21.14,9.39l-13.45 2.15 1.93 3.85 1.92 36.54 44.24 0 0 -40.39 -5.77 0 -1.92 5.77 3.85 0 0 28.85 -13.46 0 0 -28.85 6.06 -0.87 -4.52 -1.44 4.23 -3.46 0 -1.92 -9.6 -1.99 -0.02 -7.63 -3.85 0c-5.45,-3.65 -10.18,-9.62 -19.23,-9.62l-5.77 0c-6.63,0 -7.45,1.42 -13.46,1.92l-7.48 6.1c-4.7,-3.33 -10.26,-8.02 -17.53,-8.02l-7.69 0c-8.99,0 -15.8,7.69 -17.31,7.69 -7.13,0 -8.88,-7.69 -23.08,-7.69l-1.92 0c-15.28,0 -14.13,6.38 -23.08,9.62z"/>
    <path class="fil4" d="M584.96 542.04l7.69 0 0 17.31 -7.69 0 0 -17.31zm-3.85 1.93l0 13.46 -7.66 2.19 -0.04 -17.57 7.69 1.93zm-17.31 -1.93l5.77 0 0 17.31 -5.77 0 0 -17.31zm67.32 0l5.77 0 0 15.39 -5.77 0 0 -15.39zm-11.54 0l5.77 0 0 15.39 -5.77 0 0 -15.39zm-28.85 -15.39l-46.16 0 0 34.62 98.09 0 0 -25 0 -9.62 -30.77 0 0 -13.46 -11.54 0 0 13.46 -9.62 0z"/>
    <path class="fil4" d="M752.3 693.99l5.77 0c0,-9.45 -3.05,-23.08 5.77,-23.08l1.92 0c8.82,0 5.77,13.63 5.77,23.08l13.46 0 0 -19.23c3.47,-2.33 3.38,-3.85 7.7,-3.85l1.92 0c8.82,0 5.77,13.63 5.77,23.08l13.46 0 1.92 -23.08 12.25 -0.05 1.21 23.13 13.46 0c0,-9.45 -3.05,-23.08 5.77,-23.08l1.93 0c5.42,0 3.56,0.83 5.77,3.85l1.92 19.23 7.69 0 3.85 0 -1.96 -25.11 5.81 -1.82 -0.42 -3.18 -7.28 -4.51 -113.48 0 0 34.62z"/>
    <path class="fil4" d="M538.8 570.89l36.54 1.92 0 3.85 -11.61 0.02 1.99 9.6 1.92 3.85 2.06 19.59 5.63 -2.28c0.87,-10.43 3.73,-5.53 3.08,-9.64l0.82 -13.01 21.1 -2.36 0.11 4.27 7.37 -2.29 5.98 21.11 1.71 3.84 2.13 -17.3 3.85 -7.7 26.67 -0.02 2.18 -9.59 9.39 -10.37 -1.7 -1.17 -119.25 0 0 7.69z"/>
    <path class="fil4" d="M334.92 472.79c-17.85,15.51 -14.6,5.08 -26.93,30.77l-1.93 17.31c11.01,-7.37 14.58,-13.46 34.62,-13.46l13.46 0c15.23,0 28.97,5.47 36.54,13.46l-7.69 -28.85 -7.7 -9.62 -24.21 -11.48 -0.9 1.9 -3.74 -7.73 0 7.69 -11.54 0z"/>
    <polygon class="fil4" points="509.95,597.82 509.95,590.12 517.64,590.12 517.57,601.9 509.95,599.74 494.56,601.66 486.87,607.43 484.95,611.28 483.02,618.97 527.66,618.81 523.41,607.43 521.49,605.51 521.53,587.94 529.18,590.12 533.03,590.12 538.8,590.12 545.25,602.21 552.26,593.97 552.5,588.48 558.14,583.93 565.73,586.27 563.73,576.68 575.35,576.66 575.35,572.81 538.8,570.89 509.95,570.89 507.75,565.17 504.18,565.12 505.59,574.83 502.26,574.74 502.26,568.97 500.06,574.68 496.59,572.65 496.49,599.74 "/>
    <path class="fil4" d="M438.78 568.97l3.85 0 0 17.31 -3.85 0 0 -17.31zm-9.62 5.77c0,-3.71 0.6,-3.43 1.93,-5.77 3.01,2.21 3.85,0.35 3.85,5.77l0 11.54 -5.77 0 0 -11.54zm-13.46 5.77l0 61.55 3.85 0 0.02 7.63 9.6 1.99 0.1 -19.07 3.75 -2.09 -3.85 -5.77 0 -21.16 5.77 0 0 17.31 3.85 -17.31 3.85 0 2.19 7.66 11.29 -1.8 -0.02 -44.33 -40.39 0 0 15.39z"/>
    <path class="fil4" d="M227.21 645.9l3.85 0 0 25 -3.85 0 0 -25zm-5.77 0l3.85 0 0 25 -3.85 0 0 -25zm0 -23.08l3.85 0 0 19.23 -3.85 0 0 -19.23zm5.77 0l3.85 0 0 17.31 -3.85 0 0 -17.31zm0 -25l3.85 0 0 11.54 -3.85 0 0 -11.54zm-5.77 0l3.85 0 0 11.54 -3.85 0 0 -11.54zm-9.62 96.17l25 0 0 -100.02 -25 0 0 100.02z"/>
    <path class="fil4" d="M683.06 588.2l2.13 17.3 -11.75 0.01 0 -19.24 9.62 1.93zm-25 -1.93l9.62 0 0 17.31 -9.62 0 0 -17.31zm50.01 -9.62c-5.07,2.51 1.58,1.92 -5.77,1.92l-50.01 0 0 40.39 42.32 0 2.41 -13.38 -6.26 -2 0 -15.39 9.62 0 0 3.85 44.39 1.85 -5.92 -13.39c-4.26,-2.25 -9.38,-5.77 -15.39,-5.77l-5.77 0c-9.74,0 -1.17,6.84 -9.62,1.92z"/>
    <path class="fil4" d="M696.52 693.99l13.31 -0 2.08 -32.69c1.3,-4.87 3.71,-9.62 9.62,-9.62 6.6,0 10.06,4.05 11.54,9.62l1.92 32.7 9.62 0 3.85 0 0 -53.86 -51.93 0 0 53.86z"/>
    <path class="fil4" d="M846.54 609.36l9.62 0 0 21.16 -9.62 0 0 -21.16zm21.16 1.92l5.77 0 0 9.62 -5.77 0 0 -9.62zm-46.16 0l5.77 0 0 9.62 -5.77 0 0 -9.62zm-11.54 21.16l75.01 0 0 -28.85 -75.01 0 0 28.85z"/>
    <path class="fil4" d="M815.77 517.03l3.85 0 0 11.54 -3.85 0 0 -11.54zm-15.39 1.93l3.85 0 0 9.62 -3.85 0 0 -9.62zm-7.69 -25l-9.62 17.31 -3.86 32.19 46.17 -1.41 -1.93 -13.46c0,-17.89 -2.36,-36.54 -19.23,-36.54 -7.25,0 -3.64,1.27 -11.54,1.93z"/>
    <polygon class="fil4" points="619.58,655.52 694.6,655.52 694.6,640.13 692.41,632.47 619.58,632.44 "/>
    <path class="fil4" d="M792.69 592.05l0 -25.01c1.45,-2.17 4.52,-7.69 7.69,-7.69 5.87,0 7.76,1.85 11.54,3.85l0 25 69.24 0 -36.54 -13.46 -22.7 10.56c1.94,-4.42 3.46,-4.33 3.46,-8.64l0 -26.93 -44.24 0 0 32.7c0,6.23 6.73,7.07 11.54,9.62z"/>
    <path class="fil4" d="M708.06 576.66c8.44,4.91 -0.12,-1.92 9.62,-1.92l5.77 0c6,0 11.13,3.52 15.39,5.77 10.37,6.94 9.62,19.17 9.62,34.62l1.93 0 0 -13.46c0,-9.66 -3.16,-25 5.77,-25l1.92 0c4.43,0 5.77,1.34 5.77,5.77l-0.08 13.23 -7.62 2.16 44.24 0 -7.69 -3.85 -13.47 -5.77 -7.62 2.16 -0.08 -7.93c0,-5.14 2.78,-5.69 5.77,-7.69l0 -13.47 -71.16 0 0 9.62c0,3.71 0.6,3.42 1.92,5.77z"/>
    <path class="fil4" d="M719.6 603.59l5.77 0 0 13.47 -5.77 0 0 -13.47zm-21.16 0l-2.32 30.74 52.33 0.04 0 -15.39 -19.23 0 4.18 -11.42 2.55 7.8 0.96 -11.77 5.77 0 0 13.47 1.92 0 0 -21.16 -32.7 0 0.72 17.31 -0.72 5.77 -9.62 0 0 -3.85 0 -11.54 3.85 0 2.16 11.52 1.68 0.02 0 -19.23 -11.54 0 0 7.69z"/>
    <path class="fil4" d="M948.49 609.36l9.62 0 0 17.31 -9.62 0 0 -17.31zm-31.74 4.81l0.96 6.73 -6.73 -0.96 5.77 -5.77zm-22.12 4.81l0 -9.62 9.62 0c-0.71,8.55 -1.63,7.71 -9.62,9.62zm-1.92 3.85l44.49 -0.35 -6.03 -5.42c-5.91,-3.13 -7.41,-1.6 -9.62,-7.7l9.62 0 0 5.77 13.46 7.69 0 7.7 0.84 -2.25 20.31 8.01 0 -32.7 -76.94 0 -1.99 18.82 5.84 0.42z"/>
    <path class="fil4" d="M521.49 628.59l3.85 0 0 13.46 -3.85 0 0 -13.46zm-19.23 1.93l5.77 0 0 11.54 -5.77 0 0 -11.54zm-17.31 28.85c6.59,-4.83 9.2,-13.46 21.16,-13.46 4.98,0 1.98,1.29 9.62,1.92l3.46 0.39 4.23 3.46 0 3.85 8.02 1.89 -2.25 -28.82 0 -7.69 -26.94 0.66 -18.63 -0.58 -4.43 38.39 5.77 0z"/>
    <polygon class="fil4" points="531.11,624.74 540.72,624.74 540.72,642.05 534.95,642.05 534.95,659.36 569.58,659.36 569.58,647.82 617.66,647.82 615.74,643.98 573.42,642.05 573.42,630.51 570.97,646.23 567.65,642.05 559.96,642.05 559.96,624.74 567.65,624.74 571.5,628.59 571.5,620.9 542.64,620.84 "/>
    <path class="fil4" d="M242.6 528.57l3.85 0 0 15.39 -3.85 0 0 -15.39zm-5.77 19.23l44.24 0 0 -3.85 -17.31 0 -9.62 0 0 -11.54c0,-4.43 1.34,-5.77 5.77,-5.77 2.6,0 2.88,2.13 3.85,3.85l2.16 11.52 5.53 0.02 0 -13.46 3.85 0 2.15 13.45 1.69 0.01 0 -17.31c-4.38,-9.14 -6.1,-16.22 -18.75,-17.31l-0.48 -9.62 -1.92 0 0 9.62c-22.48,1.87 -16.97,22.42 -21.16,40.39z"/>
    <path class="fil4" d="M448.4 528.57l5.77 0 0 15.39 -5.77 0 0 -15.39zm-32.7 13.46l3.85 -13.46 3.85 0 1.92 13.46 5.77 0c0,-5.53 -1.49,-15.39 3.85,-15.39 4.43,0 5.77,1.34 5.77,5.77l0 11.54 -9.62 0 -15.39 0 0 3.85 42.32 0 -0.05 -21.13 -7.64 -13.49 -1.93 -1.93 -10.66 -3.92 -0.8 -9.71 -2 0.16 0 9.62c-13.56,1.13 -13.55,8.82 -19.23,17.31l0 17.31z"/>
    <path class="fil4" d="M781.15 607.43l21.16 0 0 46.16 -21.16 0 0 -46.16zm-26.93 0l21.16 0 0 46.16 -21.16 0 0 -46.16zm-1.92 -5.77l0 15.39 0 38.47 53.86 0 0 -51.93 -5.77 -5.77 -44.24 0 -3.85 3.85z"/>
    <path class="fil4" d="M850.39 567.04l5.72 2.2 0.05 5.5 -11.54 0 36.54 13.46 0 -1.93c-7.98,-1.86 -8.91,-1.13 -9.62,-9.62l25 0 0 17.31c0,5.81 -2.26,5.32 -7.69,5.77l-1.92 -13.47 0 11.54 -78.86 0 0 1.93 78.7 0.1 2.09 3.74 76.94 0c-13.61,-9.46 -53.78,-9.57 -53.85,-9.62l-3.75 2.09 -2.02 -9.78 0 11.54 -3.85 -1.92 -3.74 2.09 -0.1 -21.32 13.46 0 -1.93 -3.85 -51.93 1.63 7.69 -17.02 -7.48 7.86 -0.21 -15.56 -7.69 1.93 5.77 0 0 15.39 -5.77 0z"/>
    <path class="fil4" d="M621.51 668.98l13.46 1.92 0 23.08 3.85 0 0 -19.23c2.2,-3.28 4.19,-7.7 9.62,-7.7 5.14,0 5.69,2.78 7.7,5.77l1.92 21.16 3.85 0 0 -23.08c1.55,-1.08 4.75,-3.85 5.77,-3.85 5.2,0 5.3,0.92 10.39,1.88l1.15 25.05 3.85 0 1.94 -24.94 9.6 -1.99 0 -7.69 -75.01 0 1.92 9.62z"/>
    <path class="fil4" d="M679.21 518.96l5.77 0 0 9.62 -5.77 0 0 -9.62zm-13.46 -1.93l3.85 0 0 11.54 -3.85 0 0 -11.54zm-5.77 13.47l0 13.46 44.24 0 -0.21 -14.08 -11.33 4.46c-1.01,-4.31 -1.93,-4.42 -1.93,-9.62l0 -13.47 -28.85 0 -1.93 19.24z"/>
    <path class="fil4" d="M292.61 665.13c1.74,-7.47 4.34,-11.54 13.46,-11.54 4.03,0 6.78,7.61 7.7,11.54l-21.16 0zm-7.69 28.85l7.69 0 0.03 -25.26 9.59 2.18 0 23.08 1.92 0 0 -25 9.62 0 0 25 7.69 0c0,-30.6 5.67,-51.93 -25,-51.93 -13.77,20.57 -11.54,19.11 -11.54,51.93z"/>
    <path class="fil4" d="M346.46 653.59c7.59,0 10.05,5.15 11.54,11.54l-19.23 0c0.48,-5.74 2.1,-11.54 7.69,-11.54zm-11.54 -7.69l-6.06 17.32 2.22 30.77 7.7 0 0 -25 7.69 0 0 25 1.92 0c0,-15.8 -4.81,-24.68 9.62,-25l0 25 7.69 0 -3.85 -46.16c-4.17,-2.79 -6.4,-5.77 -13.46,-5.77l-3.85 0c-6.25,0 -1.45,1.67 -9.62,3.85z"/>
    <path class="fil4" d="M646.51 593.97l0 13.46 -7.66 2.19 -0.04 -17.57 7.69 1.92zm-28.85 -1.92l11.54 0 0 28.85 -11.54 0 -1.92 3.85 76.94 0 0 -3.85 -42.32 0 0 -46.16 -2.18 9.59 -26.67 0.02 -3.85 7.7z"/>
    <path class="fil4" d="M754.22 532.42l7.7 0 0 13.46 -7.7 0 0 -13.46zm-15.39 0l7.69 0 0 13.46 -7.69 0 0 -13.46zm-13.46 0l5.77 0 0 13.46 -5.77 0 0 -13.46zm-15.39 0l5.77 0 0 13.46 -5.77 0 -2.21 3.75 69.53 0.09 -1.92 -3.85 -5.77 0 0 -13.46 7.69 0 0 -3.85 -71.16 0 0 15.39 1.92 0 1.92 -11.54z"/>
    <path class="fil4" d="M202.21 572.81l0 57.7c0,11.64 -3.96,33.95 5.77,36.54l0.61 -61.64 -4.73 -21.3 4.13 -5.54c0,-14.53 0.15,-25.81 11.54,-28.85l0 -13.46c0,-7.35 0.59,-0.7 -1.92,-5.77l-7.58 -2.34 -5.65 4.55 -2.15 40.11z"/>
    <path class="fil4" d="M279.14 642.05c8.95,-3.24 7.8,-9.62 23.08,-9.62l1.92 0c14.2,0 15.95,7.69 23.08,7.69 1.51,0 8.32,-7.69 17.31,-7.69l7.69 0c7.27,0 12.83,4.69 17.53,8.02l7.48 -6.1 -3.85 -1.92c-7.96,-3.21 -3.85,-29.71 -3.85,-44.24l-3.85 34.62 -1.92 1.93 0 7.69 -6.95 -6.9 -19.98 -0.79c2.05,9.68 -1.83,6.96 -11.54,13.46l-9.22 -6.42 -0.39 -7.04 -21.16 0 -4.19 8.76 -1.59 -8.76 -5.77 0 4.59 5.08 -6.51 0.69 0 -46.16c0,-3.71 0.6,-3.42 1.93,-5.77l-1.93 -15.39 -42.31 0 0 1.92 40.39 0 0 76.94z"/>
    <path class="fil4" d="M454.17 640.13l3.85 0 2.16 11.52 -7.93 0.02 1.92 -11.54zm-17.31 9.62l0 -11.54 3.85 0 0 11.54 4.79 9.22 31.75 0.4 0 -5.77 2.19 -21.12 -44.51 -0.03 1.92 17.31z"/>
    <polygon class="fil4" points="844.62,574.74 856.16,574.74 856.11,569.24 850.39,567.04 850.39,551.65 858.08,549.73 858.29,565.29 865.78,557.43 875.4,551.65 886.92,549.49 886.94,547.81 827.31,547.81 827.31,580.51 "/>
    <polygon class="fil4" points="865.78,557.43 858.09,574.45 910.02,572.81 900.4,555.5 888.86,551.65 875.4,551.65 "/>
    <polygon class="fil4" points="813.85,655.52 813.85,643.98 823.46,643.98 823.46,655.52 833.08,655.52 833.08,643.98 842.7,643.98 842.7,655.52 850.39,655.52 850.39,642.05 861.93,642.05 861.93,655.52 869.62,655.52 869.62,643.98 879.24,643.98 879.24,655.52 885.01,655.52 885.01,640.13 808.08,640.13 808.08,655.52 "/>
    <polygon class="fil4" points="667.67,567.04 679.21,559.35 684.98,559.35 690.75,565.12 698.44,570.89 704.25,572.71 704.21,549.73 659.97,549.73 659.97,568.97 "/>
    <path class="fil4" d="M592.65 618.97l3.85 0 0 9.62 -3.85 0 0 -9.62zm-3.85 9.62l2.15 13.45 -17.54 0.01 42.32 1.93 -1.92 -30.77 -9.55 0.83 -0.07 14.55 1.93 0 0 -9.62 3.85 0 0 11.54 -7.69 0 0 -17.31 -17.31 0 3.85 15.39z"/>
    <polygon class="fil4" points="588.81,659.36 603.25,661.25 604.2,693.99 615.74,693.99 615.74,649.75 590.73,649.75 "/>
    <path class="fil4" d="M375.31 693.99l7.7 0 0 -23.08 9.62 -1.92 -0.02 -3.59 -9.59 -2.18 0 -3.85 6.18 -5.36 3.43 -0.41 13.45 -2.15c-2.7,-9.92 -8.79,-9.39 -21.14,-9.39l-8.09 9.28 0.4 6.11 -4.13 5.54 2.2 31.01z"/>
    <polygon class="fil4" points="571.5,693.99 584.96,693.99 584.68,664.9 588.81,659.36 590.73,649.75 571.5,649.75 "/>
    <path class="fil4" d="M892.71 622.82l-5.77 1.93 0 32.7 1.92 -31.26 9.62 0.48 44.24 0 0 67.32 1.92 0 0.02 -18.98 9.59 -2.18 -7.69 0 0 -15.39 7.69 0 -9.62 -1.92 0 -7.7 32.7 0 -3.85 -3.85 -28.85 1.92 0 -7.69c0,-3.15 1.15,-5.77 3.85,-5.77 7.26,0 11.62,4.68 17.31,7.69l0 -3.85 -20.31 -8.01 -0.84 2.25 0 -7.7 -13.46 -7.69 0 1.93 6.03 5.42 -44.49 0.35z"/>
    <polygon class="fil4" points="442.63,603.59 442.63,615.13 465.71,613.2 467.63,609.36 463.79,609.36 458.02,609.36 458.02,593.97 484.95,593.97 484.95,607.43 484.95,611.28 486.87,607.43 486.87,592.05 458.02,592.05 458.85,582.5 486.87,582.43 484.95,574.74 483.02,574.74 479.27,576.95 479.17,565.12 477,574.71 475.33,574.74 473.4,567.04 473.4,576.66 465.71,576.66 465.71,567.04 463.53,574.7 459.94,574.74 459.94,563.2 415.7,563.2 415.7,565.12 456.1,565.12 456.11,609.45 444.82,611.25 "/>
    <path class="fil4" d="M442.63 615.13l-1.92 1.93c-9.17,17.32 -5.02,13.46 13.46,13.46l21.16 0 0 -7.7 -9.62 -9.62 -23.08 1.92z"/>
    <polygon class="fil4" points="521.49,605.51 523.41,607.43 529.24,615.45 544.86,614.01 538.81,616.78 561.88,617.05 561.88,613.2 565.73,613.2 565.73,617.05 567.65,617.05 571.5,617.05 571.4,611.57 567.65,609.36 552.27,611.32 552.26,593.97 545.25,602.21 538.8,590.12 538.8,605.51 533.03,605.51 533.03,590.12 529.18,590.12 529.18,605.51 "/>
    <polygon class="fil4" points="758.07,649.75 771.53,649.75 771.53,609.36 758.07,609.36 "/>
    <polygon class="fil4" points="784.99,649.75 798.46,649.75 798.46,609.36 784.99,609.36 "/>
    <path class="fil4" d="M413.78 563.2l0 -7.69 46.16 0 0 7.69c7.64,-0.64 4.63,-1.93 9.62,-1.93 7.35,0 0.7,-0.59 5.78,1.95l7.68 -3.87 -1.92 -3.85 -5.69 3.99c-5.15,-2.66 1.5,-2.07 -5.85,-2.07 -4.07,0 -2.54,0.69 -7.7,1.92l1.93 -9.62 -5.77 -1.92 -42.32 0 0 -3.85 -4.43 6.57 2.51 12.66z"/>
    <polygon class="fil4" points="613.81,605.51 611.89,605.51 611.89,609.36 613.81,613.2 615.74,643.98 617.66,647.82 569.58,647.82 569.58,659.36 569.58,661.29 569.58,693.99 571.5,693.99 571.5,649.75 590.73,649.75 615.74,649.75 615.74,693.99 617.66,693.99 617.38,674.52 621.51,668.98 619.58,659.36 619.58,655.52 619.58,632.44 615.74,624.74 617.66,620.9 617.66,592.05 615.52,609.35 "/>
    <path class="fil4" d="M469.56 605.51l0 -7.7 5.77 0 0 13.46c-4.29,-1.14 -5.77,-0.45 -5.77,-5.77zm-5.77 3.85l0 -11.54 3.85 0 0 11.54 -1.92 3.85 9.62 9.62 2.78 3.46 6.83 -15 0 -3.85 0 -13.46 -26.93 0 0 15.39 5.77 0z"/>
    <polygon class="fil4" points="811.92,588.2 808.08,592.05 885.01,592.05 885.01,595.89 808.08,595.89 808.08,597.82 886.94,597.82 886.94,586.27 881.17,586.27 881.17,588.2 "/>
    <path class="fil4" d="M663.82 509.34l36.54 -1.92 0 -1.92c-3.97,-7.5 -7.85,-13.47 -19.23,-13.47 -8.73,0 -16.51,7.64 -17.31,17.31z"/>
    <path class="fil4" d="M954.25 657.44l0 15.39 3.57 0.23 4.13 5.54c-6.36,3.36 -10.78,6.21 -11.54,15.39l5.77 0 0 -5.77c0.78,-0.42 7.47,-3.85 7.69,-3.85 3.26,0 7.19,2.56 9.62,3.85l0 5.77 3.85 0 0 -28.85 -3.74 2.09 -0.1 11.38 -1.93 -5.77 -9.62 0 0 -15.39 9.62 0 -11.52 -2.17 -0.02 7.94 -3.85 0 -1.93 -5.77z"/>
    <polygon class="fil4" points="808.08,640.13 885.01,640.13 885.01,634.36 808.08,634.36 "/>
    <path class="fil4" d="M677.28 568.97l3.85 0 0 3.85 -3.85 0 0 -3.85zm-9.62 -1.93l-12.06 8.8 46.68 0.82 -3.85 -5.77 -7.69 -5.77 -1.6 2.24 -9.94 -8.01 -11.54 7.69z"/>
    <path class="fil4" d="M296.45 642.05c30.68,0 25,21.33 25,51.93l9.62 0 -2.22 -30.77 6.06 -17.32 -3.74 2.09c-0.1,10.53 1.09,11.14 -9.72,11.38 0,-16.31 -6.03,-18.08 -19.23,-21.16l-5.77 3.85z"/>
    <polygon class="fil4" points="619.58,655.52 619.58,659.36 694.6,659.36 694.6,667.06 694.6,693.99 696.52,693.99 696.52,640.13 694.6,640.13 694.6,655.52 "/>
    <polygon class="fil4" points="373.39,632.44 377.24,634.36 381.08,632.44 382.14,624.54 383.01,630.51 397.47,629.96 402.19,623.09 396.47,620.9 394.55,609.36 390.7,617.05 381.08,620.9 377.24,590.12 377.24,620.9 373.11,626.43 "/>
    <polygon class="fil4" points="552.26,593.97 552.27,611.32 567.65,609.36 567.65,590.12 565.73,586.27 558.14,583.93 552.5,588.48 "/>
    <polygon class="fil4" points="413.78,563.2 415.7,563.2 459.94,563.2 459.94,555.5 413.78,555.5 "/>
    <polygon class="fil4" points="236.83,563.2 238.75,563.2 281.06,563.2 282.99,555.5 236.83,555.5 "/>
    <path class="fil4" d="M835 543.96l36.54 -1.93c-3.85,-5.76 -5.58,-11.54 -15.39,-11.54l-3.85 0c-10.44,0 -13.74,6.72 -17.31,13.46z"/>
    <path class="fil4" d="M881.17 586.27l5.77 0 1.92 13.47c5.43,-0.45 7.69,0.04 7.69,-5.77l0 -17.31 -25 0c0.71,8.48 1.64,7.76 9.62,9.62z"/>
    <path class="fil4" d="M584.96 595.89l0.54 5.1 7.15 6.5 -11.54 -0.06c-4.68,-0.36 -1.59,-4.86 -3.85,1.92l34.62 0 0 -3.85 -5.77 -7.7 -3.85 -1.92 -9.62 -1.92 -3.85 0 -3.85 1.92z"/>
    <polygon class="fil4" points="617.66,620.9 629.2,620.9 629.2,592.05 617.66,592.05 "/>
    <path class="fil4" d="M409.93 630.51l0 -3.85 3.85 0 0 3.85 -3.85 0zm-3.81 -5.66l2.3 7.48 -8.04 -2.05 0.06 -3.25 5.67 -2.18zm-7.74 -13.57l-1.92 9.62 5.72 2.19 -4.72 6.87 -14.46 0.55 -0.87 -5.97 -1.05 7.9 -3.85 1.92c6.02,-0.5 6.83,-1.92 13.46,-1.92l5.77 0c9.05,0 13.78,5.96 19.23,9.62l0 -61.55 -1.92 0 0 44.24 -13.38 -4.12 -2.01 -9.35z"/>
    <path class="fil4" d="M213.75 565.12l3.85 0 0 9.62 5.77 -7.7c0,-2.39 7.37,-6.8 7.69,7.7l3.85 0 0 -9.62 -12.07 -6.57 10.13 0.87 -1.91 -9.69 -3.85 0c-9.13,0.76 -18.42,7.4 -13.46,15.39z"/>
    <polygon class="fil4" points="808.08,595.89 885.01,595.89 885.01,592.05 808.08,592.05 "/>
    <polygon class="fil4" points="706.14,553.58 706.14,557.43 777.3,557.43 777.3,553.58 "/>
    <polygon class="fil4" points="486.87,592.05 486.87,582.43 458.85,582.5 458.02,592.05 "/>
    <path class="fil4" d="M948.49 642.05l0 -3.85 3.85 0 0 3.85 -3.85 0zm25 1.93l0 -1.93 -7.7 -1.92c-5.69,-3.01 -10.04,-7.69 -17.31,-7.69 -2.7,0 -3.85,2.62 -3.85,5.77l0 7.69 28.85 -1.92z"/>
    <path class="fil4" d="M944.64 693.99l5.77 0c0.76,-9.18 5.18,-12.02 11.54,-15.39l-4.13 -5.54 -3.57 -0.23 -9.59 2.18 -0.02 18.98z"/>
    <polygon class="fil4" points="902.32,595.89 902.32,586.27 906.17,586.27 908.19,596.06 911.94,593.97 911.94,576.66 898.48,576.66 898.58,597.98 "/>
    <polygon class="fil4" points="575.35,630.51 573.42,630.51 573.42,642.05 590.96,642.04 588.81,628.59 "/>
    <polygon class="fil4" points="494.56,601.66 509.95,599.74 509.95,597.82 496.49,599.74 496.59,572.65 500.06,574.68 502.26,568.97 502.26,574.74 505.59,574.83 504.18,565.12 507.75,565.17 509.95,570.89 509.95,563.2 494.56,563.2 "/>
    <polygon class="fil4" points="306.07,618.97 313.76,620.9 313.76,595.89 306.07,595.89 "/>
    <path class="fil4" d="M459.94 563.2l0 11.54 3.59 -0.04 2.19 -7.66c0.96,-1.71 1.25,-3.85 3.85,-3.85 2.81,0 2.82,2.37 3.85,3.85l1.93 7.7 1.67 -0.03 2.18 -9.59 3.85 0 0 9.62 1.92 0 0 -3.85 -1.92 -11.54 -7.68 3.87c-5.09,-2.54 1.57,-1.95 -5.78,-1.95 -4.98,0 -1.98,1.29 -9.62,1.93z"/>
    <path class="fil4" d="M956.18 693.99l17.31 0 0 -5.77c-2.43,-1.28 -6.36,-3.85 -9.62,-3.85 -0.22,0 -6.91,3.43 -7.69,3.85l0 5.77z"/>
    <polygon class="fil4" points="567.65,642.05 567.65,624.74 559.96,624.74 559.96,642.05 "/>
    <path class="fil4" d="M481.1 555.5l-9.62 -5.77 -3.85 0 -3.85 0 -1.93 9.62c5.16,-1.23 3.63,-1.92 7.7,-1.92 7.35,0 0.7,-0.59 5.85,2.07l5.69 -3.99z"/>
    <polygon class="fil4" points="702.29,522.8 702.29,511.26 692.67,511.26 692.67,528.57 694.6,528.57 694.6,517.03 700.37,517.03 700.37,528.57 702.29,528.57 "/>
    <path class="fil4" d="M465.71 567.04l0 9.62 7.69 0 0 -9.62c-1.02,-1.47 -1.03,-3.85 -3.85,-3.85 -2.6,0 -2.89,2.13 -3.85,3.85z"/>
    <polygon class="fil4" points="850.39,567.04 856.16,567.04 856.16,551.65 850.39,551.65 "/>
    <polygon class="fil4" points="338.77,584.35 338.77,622.82 344.54,618.97 344.54,582.43 342.61,618.97 340.84,618.97 "/>
    <path class="fil4" d="M683.06 588.2l0 15.39 -7.69 0 0 -15.39 7.69 0zm0 0l-9.62 -1.93 0 19.24 11.75 -0.01 -2.13 -17.3z"/>
    <polygon class="fil4" points="275.29,528.57 275.29,542.04 271.45,542.04 265.92,542.02 263.76,530.5 263.76,543.96 281.06,543.96 279.14,524.73 279.14,542.04 277.45,542.02 "/>
    <polygon class="fil4" points="415.7,542.04 415.7,543.96 431.09,543.96 431.09,542.04 425.32,542.04 423.4,528.57 423.4,542.04 419.55,542.04 419.55,528.57 "/>
    <polygon class="fil4" points="227.21,520.88 227.21,515.11 217.61,513.12 217.59,520.88 "/>
    <polygon class="fil4" points="584.96,595.89 588.81,593.97 592.65,593.97 592.65,588.2 582.78,588.23 "/>
    <path class="fil4" d="M296.45 615.13l0 5.77c4.29,-1.14 5.77,-0.45 5.77,-5.77l0 -5.77c-4.29,1.14 -5.77,0.45 -5.77,5.77z"/>
    <polygon class="fil4" points="867.7,620.9 873.47,620.9 873.47,611.28 867.7,611.28 "/>
    <polygon class="fil4" points="821.54,620.9 827.31,620.9 827.31,611.28 821.54,611.28 "/>
    <polygon class="fil4" points="815.77,528.57 819.62,528.57 819.62,517.03 815.77,517.03 "/>
    <polygon class="fil4" points="463.79,609.36 467.63,609.36 467.63,597.82 463.79,597.82 "/>
    <polygon class="fil4" points="602.27,595.89 606.12,597.82 606.12,588.2 599.93,588.31 "/>
    <polygon class="fil4" points="646.51,607.43 640.74,607.43 640.74,593.97 646.51,593.97 638.82,592.05 638.85,609.62 "/>
    <polygon class="fil4" points="483.02,574.74 483.02,565.12 479.17,565.12 479.27,576.95 "/>
    <polygon class="fil4" points="800.38,528.57 804.23,528.57 804.23,518.96 800.38,518.96 "/>
    <polygon class="fil4" points="440.71,617.05 442.63,615.13 442.63,603.59 438.78,603.59 "/>
    <polygon class="fil4" points="400.45,627.03 400.39,630.28 408.43,632.33 406.13,624.85 "/>
    <polygon class="fil4" points="690.75,565.12 684.98,559.35 679.21,559.35 689.15,567.36 "/>
    <polygon class="fil4" points="458.02,640.13 458.02,649.75 454.17,649.75 454.17,640.13 452.25,651.67 460.18,651.65 "/>
    <polygon class="fil4" points="467.63,549.73 471.48,549.73 471.48,542.04 467.63,542.04 "/>
    <polygon class="fil4" points="910.98,619.94 917.71,620.9 916.75,614.17 "/>
    <polygon class="fil4" points="396.47,620.9 398.39,611.28 394.55,609.36 "/>
    <polygon class="fil4" points="523.41,655.52 523.41,651.67 519.18,648.21 515.72,647.82 "/>
    <polygon class="fil4" points="677.28,568.97 677.28,572.81 681.13,572.81 681.13,568.97 "/>
    <polygon class="fil4" points="561.88,617.05 565.73,617.05 565.73,613.2 561.88,613.2 "/>
    <polygon class="fil4" points="948.49,642.05 952.33,642.05 952.33,638.21 948.49,638.21 "/>
    <polygon class="fil4" points="409.93,630.51 413.78,630.51 413.78,626.67 409.93,626.67 "/>
    <polygon class="fil4" points="36.28,686.51 215.5,686.51 215.5,693.99 36.28,693.99 "/>
   </g>
   <path class="fil7" d="M149.38 331.41c0.39,0 0.77,-0.01 1.16,-0.03 0.61,3.74 3.87,6.6 7.78,6.6 4.36,0 7.89,-3.53 7.89,-7.89 0,-1.86 -0.65,-3.58 -1.73,-4.93 3.66,-3.69 5.92,-8.72 5.92,-14.26 0,-11.32 -9.42,-20.5 -21.03,-20.5 -5.97,0 -11.36,2.43 -15.19,6.33 -1.36,-0.52 -2.84,-0.81 -4.39,-0.81 -1.34,0 -2.62,0.21 -3.81,0.6 -0.08,-2.93 -2.49,-5.29 -5.44,-5.29 -3.01,0 -5.44,2.44 -5.44,5.44 0,2.6 1.82,4.77 4.25,5.31 -0.8,1.49 -1.25,3.18 -1.25,4.97 0,4.56 2.93,8.47 7.1,10.15 -0,0.08 -0,0.17 -0,0.25 0,3.69 2.99,6.68 6.68,6.68 0.43,0 0.86,-0.04 1.26,-0.12 3.86,4.57 9.7,7.48 16.24,7.48zm100.47 -25.75c1.62,0 2.93,-1.31 2.93,-2.93 0,-1.62 -1.31,-2.93 -2.93,-2.93 -0.57,0 -1.11,0.16 -1.56,0.45 -0.65,-2.49 -2.91,-4.33 -5.61,-4.33 -3.12,0 -5.66,2.46 -5.78,5.55l-0 0c-2.55,0 -4.73,1.58 -5.61,3.82 -0.98,-0.26 -2,-0.4 -3.06,-0.4 -1.33,0 -2.61,0.22 -3.8,0.63 0.09,-0.64 0.13,-1.3 0.13,-1.97 0,-6.96 -4.92,-12.77 -11.48,-14.15 -2.56,-5.02 -7.77,-8.46 -13.79,-8.46 -8.54,0 -15.47,6.93 -15.47,15.47 0,0.69 0.05,1.38 0.14,2.05 -5.88,1.88 -10.13,7.39 -10.13,13.89 0,4.75 2.27,8.97 5.79,11.64 -0.34,0.74 -0.53,1.56 -0.53,2.43 0,3.19 2.59,5.78 5.78,5.78 3.07,0 5.59,-2.4 5.77,-5.43 5.83,-0.89 10.53,-5.24 11.93,-10.88 2.19,1.34 4.77,2.11 7.53,2.11 2.26,0 4.4,-0.52 6.31,-1.45l-0 0.15c0,6.52 5.29,11.82 11.82,11.82 6.52,0 11.82,-5.29 11.82,-11.82 0,-1.3 -0.21,-2.56 -0.6,-3.73 2.06,-0.96 3.49,-3.05 3.49,-5.47l0 -0c2.01,-0.08 3.76,-1.19 4.73,-2.82 0.54,0.6 1.32,0.98 2.19,0.98z"/>
   <path class="fil7" d="M716.55 402.67c-0.46,0 -0.91,0.02 -1.36,0.06 -1.2,-5.66 -6.43,-9.93 -12.7,-9.93 -1.09,0 -2.15,0.13 -3.16,0.37 0.04,-0.36 0.06,-0.73 0.06,-1.1 0,-5.85 -4.74,-10.59 -10.59,-10.59 -1.04,0 -2.05,0.15 -3,0.43 0.05,-0.26 0.08,-0.52 0.08,-0.79 0,-2.22 -1.8,-4.02 -4.01,-4.02 -2.22,0 -4.02,1.8 -4.02,4.02 0,1.89 1.3,3.47 3.06,3.9 -1.47,1.65 -2.44,3.76 -2.65,6.09 -0.43,-0.08 -0.87,-0.13 -1.32,-0.13 -3.73,0 -6.76,3.02 -6.76,6.75 0,0.79 0.14,1.54 0.38,2.24 -2.19,-1.42 -4.79,-2.24 -7.59,-2.24 -2.83,0 -5.47,0.84 -7.66,2.29 -0.66,-0.53 -1.49,-0.84 -2.4,-0.84 -2.13,0 -3.85,1.72 -3.85,3.85 0,1.11 0.47,2.12 1.23,2.82 -0.72,1.57 -1.17,3.29 -1.26,5.11 -3.29,1.96 -5.5,5.56 -5.5,9.67 0,1.05 0.14,2.06 0.41,3.03 -2.47,1.92 -4.06,4.92 -4.06,8.29 0,5.8 4.7,10.49 10.49,10.49 4.51,0 8.36,-2.85 9.85,-6.85 1.21,0.57 2.57,0.89 4,0.89 0.2,0 0.39,-0.01 0.59,-0.02 2.11,2.54 5.29,4.15 8.85,4.15 2.77,0 5.32,-0.98 7.3,-2.61 1.36,0.28 2.76,0.42 4.2,0.42 2.53,0 4.96,-0.45 7.2,-1.28 2.55,4.25 7.21,7.1 12.52,7.1 6.07,0 11.27,-3.71 13.47,-8.98 1.58,4.56 5.91,7.84 11.01,7.84 6.19,0 11.25,-4.83 11.63,-10.93 0.25,0.03 0.5,0.04 0.75,0.04 3.83,0 6.94,-3.11 6.94,-6.94 0,-3.83 -3.11,-6.94 -6.94,-6.94 -0.41,0 -0.81,0.04 -1.2,0.11 0.3,-0.83 0.47,-1.73 0.47,-2.66 0,-4.23 -3.43,-7.66 -7.67,-7.66l-0.12 0c0.31,-0.48 0.49,-1.05 0.49,-1.67 0,-1.7 -1.38,-3.08 -3.08,-3.08 -1.7,0 -3.08,1.38 -3.08,3.08 0,1.24 0.73,2.31 1.79,2.79 -0.15,0.09 -0.29,0.19 -0.43,0.28 -2.61,-4.14 -7.17,-6.88 -12.36,-6.88zm24.83 -1.47c-0.6,0 -1.09,0.49 -1.09,1.09 0,0.6 0.49,1.1 1.09,1.1 0.6,0 1.09,-0.49 1.09,-1.1 0,-0.6 -0.49,-1.09 -1.09,-1.09zm-32.89 -16.06c-2.24,0 -4.05,1.81 -4.05,4.05 0,2.24 1.81,4.05 4.05,4.05 2.24,0 4.05,-1.81 4.05,-4.05 0,-2.24 -1.81,-4.05 -4.05,-4.05zm-51.99 2.55c-1.11,0 -2.01,0.9 -2.01,2.01 0,1.11 0.9,2.01 2.01,2.01 1.11,0 2.01,-0.9 2.01,-2.01 0,-1.11 -0.9,-2.01 -2.01,-2.01z"/>
   <path class="fil7" d="M478.74 255.63c0.58,0 1.17,0.02 1.74,0.05 0.93,-5.64 5.82,-9.94 11.72,-9.94 6.56,0 11.88,5.32 11.88,11.88 0,2.8 -0.97,5.38 -2.6,7.41 5.52,5.56 8.91,13.13 8.91,21.47 0,17.04 -14.17,30.86 -31.65,30.86 -8.99,0 -17.1,-3.66 -22.87,-9.52 -2.04,0.78 -4.27,1.21 -6.61,1.21 -2.01,0 -3.94,-0.32 -5.74,-0.91 -0.12,4.42 -3.74,7.96 -8.19,7.96 -4.53,0 -8.19,-3.67 -8.19,-8.2 0,-3.91 2.74,-7.18 6.4,-8 -1.2,-2.25 -1.88,-4.79 -1.88,-7.48 0,-6.86 4.41,-12.75 10.69,-15.29 -0,-0.13 -0.01,-0.25 -0.01,-0.38 0,-5.55 4.5,-10.05 10.06,-10.05 0.65,0 1.28,0.06 1.9,0.18 5.81,-6.87 14.6,-11.26 24.45,-11.26zm151.24 38.75c2.43,0 4.41,1.97 4.41,4.41 0,2.43 -1.97,4.41 -4.41,4.41 -0.86,0 -1.66,-0.25 -2.34,-0.67 -0.97,3.75 -4.38,6.52 -8.44,6.52 -4.69,0 -8.52,-3.71 -8.71,-8.36l-0.01 0c-3.84,0 -7.12,-2.38 -8.45,-5.75 -1.47,0.4 -3.02,0.6 -4.61,0.6 -2,0 -3.93,-0.33 -5.72,-0.94 0.13,0.97 0.2,1.96 0.2,2.97 0,10.48 -7.41,19.23 -17.27,21.3 -3.85,7.55 -11.7,12.73 -20.76,12.73 -12.86,0 -23.29,-10.43 -23.29,-23.29 0,-1.04 0.07,-2.08 0.2,-3.08 -8.85,-2.83 -15.25,-11.13 -15.25,-20.91 0,-7.15 3.42,-13.51 8.72,-17.52 -0.51,-1.11 -0.8,-2.35 -0.8,-3.65 0,-4.81 3.9,-8.71 8.71,-8.71 4.63,0 8.41,3.61 8.69,8.17 8.78,1.34 15.85,7.88 17.96,16.38 3.3,-2.02 7.18,-3.18 11.33,-3.18 3.41,0 6.63,0.78 9.5,2.18l-0 -0.22c0,-9.82 7.96,-17.78 17.78,-17.78 9.82,0 17.78,7.96 17.78,17.78 0,1.96 -0.32,3.85 -0.91,5.61 3.1,1.44 5.25,4.59 5.25,8.23l0 0.01c3.03,0.12 5.66,1.79 7.13,4.24 0.81,-0.91 1.99,-1.48 3.3,-1.48z"/>
   <g>
    <path class="fil8 str0" d="M339.59 95.52c-45.17,-19.63 -18.55,-59.42 -18.55,-59.42"/>
    <path class="fil9" d="M317.7 39.72c-3.48,-8.57 7.27,-17.99 7.27,-17.99 0,0 3.82,13.56 -7.27,17.99z"/>
    <path class="fil9" d="M314.33 44.89c-7.84,-4.91 -4.64,-18.84 -4.64,-18.84 0,0 11.04,8.76 4.64,18.84z"/>
    <path class="fil9" d="M318.83 45.59c9.24,0.44 14.57,-12.82 14.57,-12.82 0,0 -14.06,0.9 -14.57,12.82z"/>
    <path class="fil9" d="M315.08 56.69c9.22,0.78 15.03,-12.28 15.03,-12.28 0,0 -14.08,0.38 -15.03,12.28z"/>
    <path class="fil9" d="M316.31 70.82c8.86,-2.67 9.45,-16.95 9.45,-16.95 0,0 -12.96,5.53 -9.45,16.95z"/>
    <path class="fil9" d="M310.05 56.28c-7.84,-4.91 -4.64,-18.84 -4.64,-18.84 0,0 11.03,8.76 4.64,18.84z"/>
    <path class="fil9" d="M310.59 68.19c-8.87,-2.61 -9.55,-16.89 -9.55,-16.89 0,0 12.99,5.46 9.55,16.89z"/>
    <path class="fil9" d="M313.92 78.82c-9.25,-0.12 -13.76,-13.69 -13.76,-13.69 0,0 13.98,1.75 13.76,13.69z"/>
    <path class="fil9" d="M323.4 89.33c-8.94,2.38 -16.94,-9.47 -16.94,-9.47 0,0 13.93,-2.09 16.94,9.47z"/>
   </g>
   <g>
    <path class="fil8 str0" d="M350.62 73.79c45.16,-19.63 18.55,-59.42 18.55,-59.42"/>
    <path class="fil9" d="M372.51 17.99c3.48,-8.57 -7.26,-17.99 -7.26,-17.99 0,0 -3.82,13.56 7.26,17.99z"/>
    <path class="fil9" d="M375.88 23.16c7.84,-4.91 4.64,-18.84 4.64,-18.84 0,0 -11.03,8.76 -4.64,18.84z"/>
    <path class="fil9" d="M371.38 23.86c-9.24,0.44 -14.56,-12.82 -14.56,-12.82 0,0 14.06,0.89 14.56,12.82z"/>
    <path class="fil9" d="M375.13 34.96c-9.22,0.78 -15.02,-12.28 -15.02,-12.28 0,0 14.08,0.38 15.02,12.28z"/>
    <path class="fil9" d="M373.91 49.09c-8.86,-2.67 -9.45,-16.95 -9.45,-16.95 0,0 12.95,5.53 9.45,16.95z"/>
    <path class="fil9" d="M380.15 34.55c7.84,-4.91 4.64,-18.84 4.64,-18.84 0,0 -11.04,8.76 -4.64,18.84z"/>
    <path class="fil9" d="M379.62 46.46c8.87,-2.61 9.55,-16.89 9.55,-16.89 0,0 -12.99,5.46 -9.55,16.89z"/>
    <path class="fil9" d="M376.29 57.09c9.25,-0.12 13.76,-13.69 13.76,-13.69 0,0 -13.98,1.75 -13.76,13.69z"/>
    <path class="fil9" d="M366.81 67.6c8.94,2.38 16.94,-9.47 16.94,-9.47 0,0 -13.93,-2.09 -16.94,9.47z"/>
   </g>
   <path class="fil10" d="M714.15 82.67l13.63 -9.67c0,0 7.16,-8.76 7.63,-19.38 0.48,-10.61 9.01,-9.68 8.08,0.01 -0.94,9.69 -1,17.22 -6.31,23.91 -5.32,6.68 -11.55,11.52 -11.55,11.52 0,0 11.54,-5.75 15.24,-7.59 3.69,-1.84 7.01,-16.91 9.09,-19.67 2.08,-2.76 5.65,-3.1 6.68,2.43 1.03,5.53 -1.98,17.96 -3.83,21.76 -1.85,3.8 -17.75,12.3 -17.75,12.3 0,0 16.93,-3.55 18.55,-4.35 1.61,-0.8 2.77,-6.56 5.54,-8.51 2.77,-1.95 4.83,3.35 3.33,7.26 -1.5,3.91 -1.16,7.48 -4.04,8.63 -2.88,1.15 -19.7,6.65 -23.39,8.49 -3.69,1.84 -16.36,9.31 -23.05,11.48 -6.68,2.18 -11.97,-0.94 -11.97,-0.94l-11.71 -24.08c0,0 -1.25,-7.72 4.97,-14.85 6.23,-7.13 10.04,-12.19 13.84,-14.38 3.8,-2.18 11.17,-2.4 12.44,-1.59 1.27,0.81 -1.28,6.68 -6.11,7.94 -4.84,1.26 -5.19,7.48 -6.58,9.89 -1.38,2.42 -2.3,1.73 7.31,-0.6z"/>
   <path class="fil11" d="M416.14 66.59c5.38,-2.69 3.23,-9.95 -1.61,-10.49 -4.84,-0.54 1.61,-9.95 -5.91,-13.98 -7.53,-4.03 -2.96,-17.48 -15.06,-16.13 -12.1,1.34 -10.49,6.72 -18.55,0.54 -8.06,-6.18 -18.82,3.5 -19.36,6.72 -0.54,3.23 -16.67,-4.57 -23.12,6.45 -6.45,11.02 -1.88,24.73 -1.88,24.73 0,0 -21.51,7.53 -19.09,21.78 2.42,14.25 7.26,18.82 11.83,20.7 4.57,1.88 -6.99,4.57 -4.84,9.14 2.15,4.57 9.68,9.95 5.65,13.98 -4.03,4.03 0.54,8.07 0.54,8.07 0,0 -1.17,-2.66 1.25,-5.23 2.43,-2.57 5.87,-4.33 3.64,-8.11 -2.23,-3.79 -2.09,-5 -0.81,-6.02 1.28,-1.02 8.7,2.77 8.16,5.88 -0.54,3.11 -8.9,11.09 -6.81,15.14 2.09,4.06 3.78,5.14 2.29,7.44 -1.48,2.3 -1.82,2.84 -1.82,2.84 0,0 6.74,-3.38 5.6,-7.17 -1.15,-3.79 -3.78,-4.06 -1.96,-6.42 1.82,-2.37 12.34,-11.16 12,-13.39 -0.34,-2.23 6.88,5.68 7.28,11.56 0.41,5.88 -1.95,6.69 -0.07,9.33 1.89,2.64 9.89,-0.26 9.89,-0.26l52.26 -72.35 0.49 -4.77z"/>
   <path class="fil12" d="M824.86 267.92c-1.89,-3.4 -3.01,-7.17 -3.31,-11.02 -3.64,1.56 -7.98,1.28 -11.48,-1.13 -5.44,-3.74 -6.83,-11.18 -3.09,-16.63 3.74,-5.44 11.18,-6.83 16.63,-3.09 1.21,0.83 2.22,1.85 3.02,2.98 8.09,-11.12 23.23,-14.27 35.03,-7.54 0.42,-0.89 0.93,-1.76 1.5,-2.6 5.97,-8.7 17.87,-10.91 26.57,-4.94 7.43,5.1 10.13,14.53 7.03,22.6 1.29,0.48 2.53,1.12 3.72,1.93 7.01,4.81 9.29,13.94 5.71,21.37 2.52,0.05 5.04,0.34 7.53,0.88l0.29 -0.44c6.09,-8.87 18.23,-11.13 27.1,-5.04 4.28,2.94 7.03,7.3 8.03,12.01 4.73,0.02 9.5,1.42 13.69,4.29 2.57,1.76 4.69,3.93 6.34,6.35 2.34,0.33 4.65,1.2 6.73,2.63 7.22,4.96 9.06,14.83 4.1,22.05 -3.29,4.79 -8.74,7.21 -14.15,6.85 -6.76,6.45 -16.68,8.46 -25.39,5.22 -0.9,1.93 -1.96,3.82 -3.21,5.64 -12.06,17.57 -36.1,22.04 -53.67,9.98 -10.88,-7.47 -16.74,-19.54 -16.75,-31.81 -3.84,-0.61 -7.59,-2.06 -11.01,-4.4 -6.41,-4.4 -10.31,-11.07 -11.39,-18.19 -4.22,5.92 -12.44,7.4 -18.46,3.26 -6.09,-4.18 -7.64,-12.51 -3.46,-18.6 0.68,-0.99 1.47,-1.86 2.34,-2.61zm-48.61 -37.03c2,1.37 2.51,4.11 1.14,6.11 -1.37,2 -4.11,2.51 -6.11,1.14 -2,-1.37 -2.51,-4.11 -1.13,-6.11 1.37,-2 4.11,-2.51 6.11,-1.13zm237.35 90.16c2.96,2.03 3.71,6.08 1.68,9.03 -2.03,2.96 -6.08,3.71 -9.03,1.68 -2.96,-2.03 -3.71,-6.08 -1.68,-9.03 2.03,-2.96 6.08,-3.71 9.03,-1.68zm-67.48 27.39c3.48,2.39 4.36,7.15 1.97,10.63 -2.39,3.48 -7.15,4.37 -10.63,1.98 -3.48,-2.39 -4.37,-7.15 -1.98,-10.63 2.39,-3.48 7.15,-4.36 10.63,-1.97zm36.68 -15.62c5.57,3.82 6.98,11.44 3.16,17.01 -3.82,5.57 -11.44,6.98 -17,3.16 -5.57,-3.82 -6.98,-11.44 -3.16,-17.01 3.82,-5.57 11.44,-6.98 17,-3.16zm-175.07 -128.54c2.61,1.79 3.27,5.36 1.48,7.97 -1.79,2.61 -5.36,3.27 -7.97,1.48 -2.61,-1.79 -3.27,-5.36 -1.48,-7.97 1.79,-2.61 5.36,-3.27 7.97,-1.48z"/>
   <path class="fil0" d="M153.34 244.13c-3.7,-1.21 -7.09,-3.22 -9.92,-5.84 -1.61,3.62 -4.98,6.36 -9.19,6.98 -6.53,0.96 -12.61,-3.56 -13.57,-10.1 -0.96,-6.53 3.56,-12.61 10.1,-13.57 1.45,-0.21 2.88,-0.15 4.24,0.14 -1.62,-13.65 7.34,-26.26 20.58,-29.33 -0.29,-0.94 -0.52,-1.92 -0.67,-2.93 -1.53,-10.44 5.7,-20.15 16.14,-21.68 8.92,-1.31 17.31,3.78 20.51,11.8 1.27,-0.52 2.62,-0.9 4.04,-1.11 8.41,-1.23 16.28,3.91 18.71,11.79 1.88,-1.68 3.93,-3.18 6.12,-4.47l-0.08 -0.52c-1.56,-10.65 5.81,-20.55 16.46,-22.11 5.14,-0.75 10.11,0.58 14.05,3.35 3.49,-3.2 7.93,-5.42 12.96,-6.15 3.08,-0.45 6.11,-0.3 8.97,0.35 1.95,-1.35 4.22,-2.28 6.72,-2.65 8.67,-1.27 16.72,4.73 17.99,13.39 0.84,5.75 -1.51,11.23 -5.72,14.64 -0.57,9.33 -6.48,17.55 -15.08,21.08 0.65,2.03 1.15,4.14 1.47,6.32 3.09,21.09 -11.5,40.7 -32.59,43.79 -13.06,1.91 -25.55,-2.96 -33.91,-11.95 -3.23,2.16 -6.97,3.65 -11.06,4.25 -7.69,1.13 -15.09,-1.11 -20.72,-5.6 0.93,7.22 -4.1,13.88 -11.33,14.94 -7.31,1.07 -14.1,-3.99 -15.18,-11.29 -0.18,-1.19 -0.19,-2.37 -0.05,-3.51zm-60.83 5.87c2.4,-0.35 4.64,1.31 4.99,3.71 0.35,2.4 -1.31,4.64 -3.71,4.99 -2.4,0.35 -4.63,-1.31 -4.98,-3.71 -0.35,-2.4 1.31,-4.63 3.71,-4.98zm235.39 -95.15c3.55,-0.52 6.85,1.94 7.37,5.49 0.52,3.55 -1.94,6.85 -5.49,7.37 -3.55,0.52 -6.85,-1.94 -7.37,-5.48 -0.52,-3.55 1.94,-6.85 5.49,-7.37zm-30.89 65.95c4.18,-0.61 8.06,2.28 8.67,6.46 0.61,4.18 -2.28,8.06 -6.46,8.67 -4.18,0.61 -8.06,-2.28 -8.67,-6.45 -0.61,-4.18 2.28,-8.06 6.45,-8.67zm16.3 -36.38c6.68,-0.98 12.9,3.65 13.88,10.33 0.98,6.68 -3.65,12.9 -10.33,13.88 -6.68,0.98 -12.89,-3.65 -13.87,-10.33 -0.98,-6.68 3.65,-12.9 10.33,-13.88zm-215.78 24.68c3.13,-0.46 6.04,1.71 6.5,4.84 0.46,3.13 -1.71,6.04 -4.84,6.5 -3.13,0.46 -6.04,-1.71 -6.5,-4.84 -0.46,-3.13 1.71,-6.04 4.84,-6.5z"/>
   <path class="fil10" d="M345.61 744.37l61.46 -3.24c0,0 56.07,-271.71 48.52,-282.5 -7.55,-10.78 20.49,-7.55 26.96,3.24 6.47,10.78 147.72,233.98 147.72,233.98 0,0 4.62,0.57 2.46,14.04 -2.15,13.47 1.62,16.7 9.16,19.39 7.54,2.69 5.93,14.01 12.39,14.54 6.46,0.54 22.08,-1.08 22.08,-1.08 0,0 3.23,-8.62 -3.77,-8.08 -7,0.54 -11.85,2.15 -11.85,2.15 0,0 -2.67,-0.03 -5.23,-6.66 -2.56,-6.63 -86.87,-231.42 -86.87,-231.42 0,0 -23.55,-57.35 -36.49,-101.56 -12.94,-44.21 -9.7,-129.39 -9.7,-129.39 0,0 8.5,-5.49 10.92,-13.02 2.42,-7.53 0.54,-37.91 0.54,-37.91 0,0 97.05,-2.69 103.5,-5.92 5.86,-2.93 51.04,-68.92 67.72,-84.97l-20.36 -28.34c-22.06,18.62 -58.84,48.69 -62.81,48.29 -5.39,-0.54 -66.79,-16.7 -91.03,-18.85 -24.24,-2.15 -63.02,-8.08 -79.18,-9.16 -16.16,-1.08 -26.93,-6.46 -30.7,-11.31 -3.77,-4.85 7,-5.39 7,-11.31 0,-5.93 -14.05,-29.52 -25.34,-38.39 -11.29,-8.87 -22.85,-10.75 -36.02,-6.18 -13.17,4.57 -17.48,12.9 -14.25,20.97 3.23,8.07 10.75,10.76 17.74,12.37 6.99,1.61 12.37,10.49 6.99,10.49 -5.38,0 -14.79,-13.44 -21.51,-11.02 -6.72,2.42 -14.79,16.94 -4.3,17.21 10.49,0.27 11.02,0 13.44,1.61 2.42,1.61 5.11,-1.61 6.99,-0.54 1.88,1.08 -6.99,4.3 -6.99,4.3 0,0 8.87,7.53 6.18,18.82 -2.69,11.29 -14.03,34.47 -26.96,42.55 -12.93,8.08 -35.01,20.47 -41.47,35.55 -6.46,15.08 -4.85,45.25 -4.31,72.18 0.54,26.93 -5.93,59.79 -5.39,68.41 0.54,8.62 1.01,6.13 -14.09,28.77 -15.1,22.64 -17.25,32.35 -17.25,32.35 0,0 -3.98,0.33 -6.94,4.63 -2.96,4.3 -8.07,35.49 -6.99,41.13 1.08,5.65 8.07,8.34 10.49,5.38 2.42,-2.96 1.34,5.65 9.14,4.84 7.8,-0.81 10.22,-2.69 10.22,-2.69 0,0 -2.42,5.11 2.69,6.99 5.11,1.88 13.44,2.96 16.94,-3.5 3.5,-6.45 4.3,-19.89 4.3,-19.89 0,0 17.21,-19.89 25.27,-26.08 8.07,-6.19 21.24,-31.99 24.46,-46.51 3.23,-14.52 14.52,-47.05 19.36,-44.63 4.84,2.42 16.94,20.7 19.36,43.02 2.42,22.31 6.99,50.54 3.22,60.22 -3.76,9.68 -3.76,101.8 -0.53,128.74 3.23,26.93 5.9,97.09 6.71,110.53 0.81,13.44 2.15,63.45 2.15,63.45 0,0 -39.25,10.75 -44.63,9.41 -5.38,-1.35 -15.33,0.27 -11.12,4.61z"/>
   <path class="fil13" d="M364.99 106.28l3.81 -1.84 0.08 -0.04c0,0 5.25,14.63 28.7,8.42 16.93,-4.49 21.53,-7.51 22.78,-8.84 -0.28,0.74 -0.15,1.58 0.67,2.63 1.96,2.52 5.81,5.18 11.32,7.31l0 0c0,0 -22.68,26.59 -36.66,34.12 -13.98,7.53 -41.62,21.45 -53.47,20.54l1.78 -1.1c12.93,-8.08 24.27,-31.26 26.96,-42.55 2.45,-10.28 -4.69,-17.44 -5.98,-18.64zm55.85 -3.07l0 -0 0 0 -0 0z"/>
   <path class="fil14" d="M411.77 718.07c13.33,-65.82 50.02,-250.58 43.82,-259.43 -7.55,-10.78 20.49,-7.55 26.96,3.24 5.96,9.94 126.39,200.27 145.24,230.06l11.54 -4.79c-25.16,-67 -70.7,-188.41 -70.7,-188.41 0,0 -23.55,-57.35 -36.49,-101.56 -12.94,-44.21 -9.7,-129.39 -9.7,-129.39 0,0 8.5,-5.49 10.92,-13.02 2.42,-7.53 0.54,-37.91 0.54,-37.91 0,0 97.05,-2.69 103.5,-5.92 6.45,-3.23 60.5,-82.79 71.81,-88.18 0.83,-0.4 1.71,-0.75 2.61,-1.06 -10.26,-6.51 -20.24,-15.77 -22.54,-27.9 -21.12,17.97 -63.08,52.55 -67.33,52.12 -5.39,-0.54 -66.79,-16.7 -91.03,-18.85 -24.24,-2.15 -63.02,-8.08 -79.18,-9.16 -0.64,-0.04 -1.27,-0.09 -1.89,-0.15 -23.77,16.02 -47.97,24.51 -82.39,17.4 -4.93,11.67 -13.74,26.24 -23.44,32.3 -12.93,8.08 -35.01,20.47 -41.47,35.55 -6.46,15.08 -4.85,45.25 -4.31,72.18 0.22,11.15 -0.76,23.32 -1.94,34.36 -1.67,15.63 -3.76,29 -3.45,34.05 0.54,8.62 1.01,6.13 -14.09,28.77 -9.21,13.81 -13.6,22.8 -15.63,27.72 12.79,4.53 37.65,14.3 52.05,26.3 4.17,-4.36 8.44,-8.56 11.44,-10.86 8.06,-6.18 21.24,-31.99 24.46,-46.51 3.23,-14.52 14.52,-47.05 19.36,-44.63 4.84,2.42 16.94,20.7 19.36,43.02 2.42,22.31 6.99,50.54 3.22,60.22 -3.76,9.68 -3.76,101.8 -0.53,128.74 3.23,26.93 5.9,97.09 6.71,110.53 0.53,8.79 1.28,33.18 1.74,49.03l10.82 2.13z"/>
   <path class="fil13" d="M410.88 722.49c12.48,-61.52 51.05,-254.79 44.71,-263.85 -7.55,-10.78 20.49,-7.55 26.96,3.24 4.12,6.87 63.03,100.08 105.19,166.75 -1.07,-6.33 -2.34,-14.01 -3.83,-23.34 -3.96,-24.73 -0.88,-43.32 3.61,-56.22l-18.88 -50.32c0,0 -23.55,-57.35 -36.49,-101.56 -10.85,-37.08 -10.33,-102.99 -9.88,-123.27 -33.06,12.02 -64.6,10.45 -64.6,10.45l-7.54 -28.01 1.08 30.16 -4.85 12.39c0,0 -33.94,20.47 -44.71,16.7 -10.77,-3.77 -33.4,-29.63 -33.4,-29.63 0,0 25.86,-4.85 46.86,-11.85 21.01,-7 32.86,-26.39 32.86,-26.39 0,0 -37.71,19.93 -53.33,12.93 -15.62,-7 -8.62,-12.93 -8.62,-12.93l46.32 -25.32c0,0 -19.93,6.46 -37.17,10.77 -17.24,4.31 -39.53,1.42 -58.35,-16.32 -11.25,-10.61 -13.95,-25.34 -14.3,-35.49 -8.61,6.28 -16.53,13.58 -19.99,21.65 -6.26,14.61 -4.94,43.38 -4.36,69.64l0 0.07c0,0 28.75,10.55 33.34,11.76 4.59,1.21 4.51,11.67 8,22.16 3.5,10.48 -2.42,25.27 -9.68,28.77 -7.26,3.5 -33.91,-22.56 -33.91,-22.56l0 0.01c-0.67,5.91 -1.36,11.42 -1.93,16.17 3.51,2.48 13.67,9.76 21.33,16.32 9.41,8.06 8.6,10.22 8.33,29.03 -0.27,18.82 -15.86,35.22 -31.45,37.91 -15.59,2.69 -30.7,-7.59 -30.7,-7.59l-3.94 1.59 0 0c0.02,0.01 12.06,5.73 19.04,8.68 6.99,2.96 6.99,5.92 4.57,11.83 -2.42,5.92 -12.1,1.88 -12.1,1.88l-1.08 7.8c0,0 1.88,-1.61 9.68,-3.76 7.8,-2.15 9.41,5.91 9.41,5.91 0,0 3.23,-4.03 8.33,-4.03 5.11,0 5.92,6.99 5.92,6.99 0,0 17.21,-19.89 25.27,-26.08 8.06,-6.18 21.24,-31.99 24.46,-46.51 3.23,-14.52 14.52,-47.05 19.36,-44.63 4.84,2.42 16.94,20.7 19.36,43.02 2.42,22.31 6.99,50.54 3.22,60.22 -3.76,9.68 -3.76,101.8 -0.53,128.74 3.23,26.93 5.9,97.09 6.71,110.53 0.58,9.69 1.44,38.36 1.88,53.62l9.79 1.96z"/>
   <path class="fil15" d="M410.88 722.49c12.48,-61.52 51.05,-254.79 44.71,-263.85 -7.55,-10.78 20.49,-7.55 26.96,3.24 4.12,6.87 63.03,100.08 105.19,166.75 -1.07,-6.33 -2.34,-14.01 -3.83,-23.34 -3.96,-24.73 -0.88,-43.32 3.61,-56.22l-18.88 -50.32c0,0 -23.55,-57.35 -36.49,-101.56 -10.85,-37.08 -10.33,-102.99 -9.88,-123.27 -33.06,12.02 -64.6,10.45 -64.6,10.45l-7.54 -28.01 1.08 30.16 -6.63 5.51c0,0 -45.89,17.73 -56.66,13.96 -3.37,-1.18 -2.52,-5.44 -5.31,-8.18 -6.12,-6.02 -14.35,-11.83 -14.35,-11.83 0,0 25.86,-4.85 46.86,-11.85 21.01,-7 32.86,-26.39 32.86,-26.39 0,0 -37.71,19.93 -53.33,12.93 -15.62,-7 -8.62,-12.93 -8.62,-12.93l46.32 -25.32c0,0 -19.93,6.46 -37.17,10.77 -17.24,4.31 -39.53,1.42 -58.35,-16.32 -11.25,-10.61 -13.95,-25.34 -14.3,-35.49 -8.61,6.28 -16.53,13.58 -19.99,21.65 -6.26,14.61 -4.94,43.38 -4.36,69.64l0 0.07c0,0 28.75,10.55 33.34,11.76 4.59,1.21 4.51,11.67 8,22.16 3.5,10.48 -2.42,25.27 -9.68,28.77 -7.26,3.5 -33.91,-22.56 -33.91,-22.56l0 0.01c-0.67,5.91 -1.36,11.42 -1.93,16.17 3.51,2.48 13.67,9.76 21.33,16.32 9.41,8.06 8.6,10.22 8.33,29.03 -0.26,18.7 -15.66,35.01 -31.16,37.85l25.18 11.56c3.32,-3.39 6.54,-6.44 8.94,-8.28 8.06,-6.18 21.24,-31.99 24.46,-46.51 3.23,-14.52 14.52,-47.05 19.36,-44.63 4.84,2.42 16.94,20.7 19.36,43.02 0.98,9.06 2.32,19.1 3.31,28.48 1.44,13.7 2.15,25.99 -0.09,31.74 -3.76,9.68 -3.76,101.8 -0.53,128.74 3.23,26.93 5.9,97.09 6.71,110.53 0.58,9.69 1.44,38.36 1.88,53.62l9.79 1.96z"/>
   <path class="fil15" d="M715.03 120.77l0 0c0,0 -22.51,-5.01 -25.75,-6.62 -3.23,-1.62 -46.32,43.09 -61.94,54.94 -15.62,11.85 -21.01,11.85 -45.25,11.85 -24.24,0 -53.86,-0.54 -53.86,-0.54l5.66 36.46c0,0 97.05,-2.69 103.5,-5.92 6.45,-3.23 60.5,-82.79 71.81,-88.18 1.78,-0.85 3.75,-1.5 5.81,-2z"/>
   <path class="fil14" d="M412.96 431.41c-1.08,-49.56 18.31,-98.57 40.94,-110.96 22.62,-12.39 42.02,0.54 47.94,5.39 5.93,4.85 14.01,14.54 14.01,30.16 0,15.62 2.69,29.09 3.77,37.71 1.08,8.62 -48.48,22.08 -73.25,45.78 -24.78,23.7 -33.4,-8.08 -33.4,-8.08zm29.53 -74.21c16.94,0.27 21.51,-30.11 21.51,-30.11 0,0 0.54,11.56 5.92,16.4 5.38,4.84 23.12,1.08 23.12,1.08 0,0 -3.22,4.03 -9.41,5.64 -6.18,1.61 -14.52,1.35 -14.52,1.35 0,0 0.27,13.44 5.91,16.4 5.65,2.96 17.74,-0.27 17.74,-0.27 0,0 -3.23,4.03 -9.68,5.11 -6.45,1.07 -15.33,-1.88 -15.33,-1.88 0,0 -4.84,11.02 -13.71,12.1 -8.87,1.07 -8.87,1.07 -8.87,1.07 0,0 9.14,-3.76 14.52,-11.29 5.38,-7.53 1.07,-18.82 1.07,-18.82 0,0 -9.41,6.72 -18.28,3.23z"/>
   <path class="fil13" d="M251.59 418.89l8.98 5.56c0,0 -2.02,0 -5.66,3.52 -3.64,3.51 -6.41,8.45 -6.41,8.45l3.1 -17.53z"/>
   <path class="fil13" d="M248.03 445.19c6.21,7.44 10.66,6.09 13.36,2.71 2.7,-3.38 6.61,-8.11 6.61,-8.11 0,0 -7.28,10.28 -6.34,12.57 0.94,2.3 8.77,6.49 11.2,4.73 2.43,-1.76 12,-13.25 12,-13.25 0,0 -6.2,8.25 -4.45,12.98 1.75,4.73 4.86,4.73 9.17,3.25 4.31,-1.49 12.09,-17.04 12.1,-17.07 -0.42,4.21 -1.54,12.65 -4.09,17.36 -3.5,6.45 -11.83,5.38 -16.94,3.49 -5.11,-1.88 -2.69,-6.99 -2.69,-6.99 0,0 -2.42,1.88 -10.22,2.69 -7.8,0.81 -6.72,-7.8 -9.14,-4.84 -2.42,2.96 -9.41,0.27 -10.48,-5.38 -0.16,-0.86 -0.19,-2.3 -0.09,-4.15z"/>
   <path class="fil16" d="M410.13 80.3c-4.18,6.76 -15.51,6.9 -15.51,6.9 0,0 11.47,7.44 18.61,2.57 7.15,-4.87 -3.1,-9.47 -3.1,-9.47z"/>
   <path class="fil7" d="M410.13 80.3c-4.18,6.76 -15.51,6.9 -15.51,6.9 0,0 2.03,1.32 4.91,2.48 5.4,-0.75 10.98,-3.88 14.83,-6.47 -1.67,-1.76 -4.23,-2.9 -4.23,-2.9z"/>
   <path class="fil17" d="M388.04 73.31c-5.13,-3.65 -8.09,0.54 -6.74,1.76 1.35,1.22 8.36,1.89 6.74,-1.76z"/>
   <path class="fil17" d="M399.63 68.03c-4.05,-2.84 -4.59,-5.55 -2.43,-6.49 2.16,-0.95 6.61,3.11 2.43,6.49z"/>
   <path class="fil11" d="M384.66 64.52c-4.18,-2.64 -13.15,5.27 -15.18,7.98 -2.02,2.7 1.89,4.53 3.44,1.42 1.55,-3.11 8.86,-9.86 11.74,-9.4z"/>
   <path class="fil11" d="M389.18 62.42c0,-5.21 2.76,-7.98 4.05,-7.71 1.28,0.27 0.34,2.91 -4.05,7.71z"/>
   <path class="fil11" d="M205.64 444.58c-7.8,11.02 -25.54,-0.81 -27.69,-14.25 -2.15,-13.44 8.06,-29.03 24.73,-24.2 6.77,1.97 14.7,7.57 24.35,13.57 7.11,4.42 15.16,9.05 24.38,12.6 -1.25,2 -2.43,4.54 -3.16,7.65 -2.21,-0.75 -4.49,-1.54 -6.86,-2.36 -58.07,-20.16 -46.24,-12.37 -43.82,-9.14 2.42,3.23 15.86,9.41 8.06,16.13zm94.34 -7.06c26.84,-3.26 39.49,-15.11 44.65,-27.9 6.18,-15.33 12.4,-47.93 -10.31,-65.48 -22.71,-17.55 -32.2,-22.33 -50.01,-29.09 -17.8,-6.76 -35.74,-4.87 -31.7,-26.37 4.05,-21.5 26.98,-17.17 31.43,-12.84 4.45,4.33 7.15,10.82 4.32,13.66 -2.83,2.84 -7.82,6.22 -10.66,2.84 -2.83,-3.38 -1.48,-6.08 -4.72,-4.87 -3.24,1.22 -8.77,5.68 -0.94,12.98 7.82,7.3 19.02,10.82 44.11,19.88 25.09,9.06 50.26,34.72 57.79,50.58 7.53,15.86 6.45,43.02 -7.26,60.22 -13.71,17.21 -36.38,23.4 -45.17,24.2 -8.79,0.8 -10.72,1.18 -21.39,-0.68 0.97,-4.29 -0.13,-17.11 -0.13,-17.11l-0 -0.03z"/>
   <path class="fil11" d="M254.17 345.08c2.72,0 4.92,2.27 4.92,5.07 0,2.8 -2.2,5.07 -4.92,5.07 -2.72,0 -4.92,-2.27 -4.92,-5.07 0,-2.8 2.21,-5.07 4.92,-5.07z"/>
   <path class="fil11" d="M239.46 352.79c3.09,0 5.6,2.67 5.6,5.95 0,3.28 -2.51,5.95 -5.6,5.95 -3.09,0 -5.6,-2.67 -5.6,-5.95 0,-3.28 2.5,-5.95 5.6,-5.95z"/>
   <path class="fil11" d="M240.34 369.82c2.46,0 4.45,2.33 4.45,5.21 0,2.87 -1.99,5.21 -4.45,5.21 -2.46,0 -4.45,-2.33 -4.45,-5.21 0,-2.87 1.99,-5.21 4.45,-5.21z"/>
   <line class="fil8 str1" x1="334.52" y1="423.94" x2="244.16" y2= "377.7" />
   <line class="fil8 str1" x1="343.24" y1="412.69" x2="244.37" y2= "361.6" />
   <line class="fil8 str1" x1="347.77" y1="400" x2="258.49" y2= "352.58" />
   <g>
    <path class="fil15" d="M412.02 135.29c-5.61,5.27 -11.48,10.15 -16.31,12.75 -13.98,7.53 -41.62,21.45 -53.47,20.54l0.1 -0.06 1.68 -1.05c0.18,-0.11 0.36,-0.23 0.54,-0.35l0.15 -0.11 0.42 -0.29 0.14 -0.1 0.5 -0.36 0.04 -0.03 0 0 0.05 -0.04 0.5 -0.38 0.12 -0.09 0.45 -0.36 0.12 -0.1 0.49 -0.4 0.06 -0.05 0 0 0.44 -0.38 0.05 -0.04 0.25 -0.22 0.33 -0.3 0.16 -0.14 0.53 -0.5 0 -0 0.53 -0.51 0.12 -0.12 0.4 -0.41 0.17 -0.17 0.5 -0.52 0 -0 0.42 -0.45 0.07 -0.07 0.17 -0.19 0.37 -0.41 0.16 -0.18 0.33 -0.38 0.16 -0.19 0 -0.01 0.15 -0.18 0.34 -0.4 0.16 -0.19 0.31 -0.37 0.22 -0.26 0.06 -0.07 0.4 -0.5 0.01 -0.01 0.4 -0.51 0.04 -0.04 0.21 -0.27 0.35 -0.45 0.06 -0.08 0.14 -0.18 0.39 -0.52 0.01 -0.01 0.01 -0.01 0.46 -0.63 0.05 -0.06 0.26 -0.37 0.25 -0.35 0.04 -0.07 0.46 -0.66 0 -0 0.01 -0.01c0.31,-0.45 0.62,-0.91 0.92,-1.37l0.11 -0.17 0.44 -0.68 0.01 -0.01 0.36 -0.57 0.11 -0.18 0.25 -0.39 0.23 -0.36 0.13 -0.21 0.34 -0.56 0.01 -0.02 0.04 -0.07 0.4 -0.66 0.03 -0.05 0.37 -0.62 0.07 -0.11 0.12 -0.21 0.32 -0.56 0.01 -0.02 0.33 -0.58 0.1 -0.18 0.04 -0.06c0.28,-0.49 0.55,-0.99 0.82,-1.49l0.01 -0.02 0.31 -0.58 0.09 -0.17 0.21 -0.41 0.19 -0.37 0.01 -0.01 0.39 -0.76 0.01 -0.02c0.39,-0.76 0.77,-1.53 1.13,-2.28l0.01 -0.02 0.34 -0.71 0.01 -0.03 0.19 -0.4 0.16 -0.35 0.1 -0.21 0.24 -0.54 0.01 -0.02 0.25 -0.56 0.07 -0.16 0.03 -0.06c0.21,-0.47 0.41,-0.94 0.6,-1.4l0.01 -0.02 0.01 -0.03c16.94,3.5 31.41,3.21 44.57,0.12zm-49.77 10.5c0.28,-0.5 0.55,-0.99 0.82,-1.49l-0.82 1.49z"/>
   </g>
   <polygon class="fil11" points="252.69,377.64 287.97,315.7 295.36,317.81 233.52,423.6 227.03,419.7 "/>
   <path class="fil15" d="M518.21 380.18c-45.49,16.01 -81.58,18.58 -103.52,17.99 -0.77,4.33 -1.4,8.73 -1.88,13.19 12.46,0.73 28.9,0.63 44.24,-2.78 20.93,-4.66 48.17,-12.02 62.92,-16.11 -0.54,-3.6 -1.19,-7.74 -1.76,-12.29z"/>
   <path class="fil14" d="M526.99 372.68c-80.98,31.82 -134.31,19.34 -134.31,19.34l1.3 13.33c0,0 33.75,6.13 63.32,-0.59 29.57,-6.72 72,-19.08 72,-19.08l-2.31 -13.01z"/>
   <path class="fil8 str2" d="M458.11 420.09c-2.15,21.24 -0.81,22.85 -0.81,22.85l13.44 -2.96c0,0 -2.15,-10.49 -1.34,-20.97 0.81,-10.48 0.81,-10.48 0.81,-10.48"/>
   <path class="fil15" d="M384.18 147.21c19.09,3.5 41.4,-4.84 47.85,-8.06 6.45,-3.23 19.36,-12.37 19.36,-12.37 0,0 -13.71,12.64 -26.35,17.48 -12.64,4.84 -43.28,6.45 -43.28,6.45l2.42 -3.5z"/>
   <path class="fil7" d="M396.74 270.77c11.05,-2.88 39.03,-0.85 49.85,-0.12 13.73,0.94 34.41,5.97 45.74,5.67l-57.17 -16.52 -38.63 10.13 0.22 0.84z"/>
   <path class="fil18" d="M422.87 295.33c4.76,-5.36 9.55,-16.95 18.11,-19.96l-0.44 -1.68c-5.07,1.2 -7.6,-0.71 -11.57,0.33 -7.29,1.9 -23.06,19.73 -24.57,26.13l18.47 -4.82z"/>
   <path class="fil7" d="M394.23 250.8l-5.62 2.47 0.84 3.26 4.42 -0.26c2.04,0.01 3.57,-0.07 4.23,2.48l1.31 5.04 5.04 -1.31 -1.75 -6.72c-0.67,-2.55 -2.2,-2.47 -4.23,-2.48l-0.44 -1.68c1.98,-1.12 3.77,-2.72 3.1,-5.29l-0.44 -1.68c-1.06,-4.06 -4.41,-6.02 -8.47,-4.96l-14.27 3.72 5.25 20.15 5.04 -1.31 -4.16 -15.95 7.55 -1.97c1.96,-0.51 3.72,0.52 4.23,2.48 0.58,2.25 -0.57,2.8 -1.64,4.01z"/>
   <path class="fil18" d="M467.8 264.79c4.71,-1.23 26.61,-20.39 38.69,-23.54l-0.22 -0.84 -53.24 19.55c1.07,0.98 14.62,4.87 14.77,4.83z"/>
   <path class="fil7" d="M452.33 232.96l2.52 -0.66c1.96,-0.51 3.72,0.52 4.23,2.48 0.46,1.77 -0.01,1.18 0.04,3.58 -1.77,0.93 -1.71,1.34 -3.98,1.93l-2.52 0.66 -4.16 -15.95 -5.04 1.31 5.25 20.15 9.23 -2.41c4.24,-1.11 7.6,-5.22 6.42,-9.74l-0.22 -0.84c-1.08,-4.15 -5.38,-6.67 -9.53,-5.58l-3.36 0.87 1.09 4.2z"/>
   <path class="fil7" d="M500 223.22c3.16,-1.79 3.44,-3.59 2.45,-7.81l-5.04 1.31c0.47,2.69 0.74,5.19 -2.04,5.91l-3.36 0.87 -2.41 -9.23 -5.04 1.31 5.25 20.15 5.04 -1.31 -1.75 -6.72 2.52 -0.66c1.96,-0.51 4.78,1.15 5.29,3.1l0.66 2.52 5.04 -1.31 -0.66 -2.52c-1.19,-4.54 -3.47,-3.61 -5.95,-5.62z"/>
   <path class="fil7" d="M416.15 242.16l-2.14 6.83 5.43 -1.18c0.02,-3.28 2.15,-5.52 1.61,-7.59l-0.87 -3.36 -10.08 2.63c-4.72,1.23 -7.44,5.87 -6.2,10.58 0.93,3.57 6.55,6.36 10.36,5.36l10.08 -2.63 -1.09 -4.2 -9.24 2.41c-1.74,0.45 -4.84,-1.36 -5.07,-2.27 -0.46,-1.77 0.01,-1.18 -0.11,-3.77l7.33 -2.82z"/>
   <path class="fil7" d="M429.7 242.45c-0.49,-1.88 0.18,-2.02 0.8,-3.79l5.88 -1.53 -1.78 6.76 4.99 -1.33c0.8,-2.3 2.22,-5.26 1.39,-8.43l-0.66 -2.52 -10.07 2.63c-4.15,1.08 -6.67,5.38 -5.59,9.52l0.22 0.84c1.34,5.15 5.97,6.51 11.21,5.15l8.39 -2.19 -1.09 -4.2 -9.23 2.41c-1.96,0.51 -3.72,-0.52 -4.23,-2.48l-0.22 -0.84z"/>
   <path class="fil18" d="M456.19 275.05c-10.21,1.72 -6.86,-4.03 -15.78,4.97 -3.62,3.66 -7.48,8.32 -9.15,13.12l16.84 -5.09 8.09 -13z"/>
   <path class="fil7" d="M474.78 226.21c1.96,-0.51 4.78,1.15 5.29,3.1l0.22 0.84c0.51,1.96 -1.14,4.78 -3.1,5.29 -1.96,0.51 -4.78,-1.14 -5.29,-3.1l-0.22 -0.84c-0.51,-1.96 1.14,-4.78 3.1,-5.29zm-7.92 7.44c1.08,4.15 5.38,6.67 9.52,5.59l3.36 -0.87c4.15,-1.08 6.67,-5.38 5.59,-9.53l-0.22 -0.84c-1.08,-4.15 -5.38,-6.67 -9.52,-5.59l-3.36 0.88c-4.15,1.08 -6.67,5.38 -5.59,9.52l0.22 0.84z"/>
   <path class="fil8 str3" d="M351.97 233.09c-7,-38.24 28.55,-32.32 42.02,-46.86 13.47,-14.54 9.61,-37.52 9.61,-37.52"/>
   <path class="fil8 str3" d="M534.2 222.85c-12.56,3.24 -10.4,-31.23 -16.33,-38.24 -5.93,-7 -17.78,-22.08 -47.94,-14.01 -30.16,8.08 -44.9,-26.36 -44.9,-26.36"/>
   <path class="fil7" style="mask:url(#id2)" d="M464.02 131.35c0,0 -1.08,-7.8 5.64,-6.99 6.72,0.81 52.96,3.77 81.46,9.68 28.5,5.92 57.26,14.52 57.26,14.52 0,0 -100.82,-16.4 -144.37,-17.21z"/>
   <path class="fil19" d="M314.28 441.32c19.09,1.61 34.68,-25.54 36.83,-23.93 2.15,1.61 -11.29,27.42 -36.83,23.93z"/>
   <path class="fil19" d="M207.28 410.95c-12.08,-5.66 -17.21,-2.42 -21.24,1.88 -4.03,4.3 3.36,5.68 6.99,1.61 3.63,-4.07 5.24,-6.38 14.25,-3.49z"/>
   <path class="fil19" d="M270.72 274.1c-12.16,2.94 -14.25,9.14 -13.71,10.76 0.54,1.61 13.71,-10.76 13.71,-10.76z"/>
   <path class="fil20" d="M296.18 313.11l0.01 0 -0.01 -0.01 0 0zm2.81 1.04c5.9,2.26 19.76,7.96 28.46,14.8 11.29,8.87 26.88,19.89 36.02,41.67 9.14,21.78 -1.07,44.09 -5.11,53.77 -4.03,9.68 -18.01,20.7 -34.41,23.66 -16.4,2.96 -23.48,3.23 -23.48,3.23l-0 0c-0.05,1.35 -0.16,2.53 -0.36,3.38 10.67,1.85 12.6,1.47 21.39,0.68 8.79,-0.8 31.45,-6.99 45.17,-24.2 13.71,-17.21 14.79,-44.36 7.26,-60.22 -7.53,-15.86 -32.7,-41.52 -57.79,-50.58 -6.62,-2.39 -12.27,-4.39 -17.15,-6.18z"/>
   <path class="fil5 str4" d="M232.89 588.61c74.09,0 134.18,60.09 134.18,134.18 0,74.09 -60.09,134.18 -134.18,134.18 -74.09,0 -134.18,-60.09 -134.18,-134.18 0,-74.09 60.09,-134.18 134.18,-134.18z"/>
   <path class="fil5 str4" d="M232.89 592.17c72.13,0 130.62,58.49 130.62,130.62 0,72.12 -58.49,130.62 -130.62,130.62 -72.12,0 -130.62,-58.49 -130.62,-130.62 0,-72.13 58.49,-130.62 130.62,-130.62z"/>
   <path class="fil7 str4" d="M232.89 596.34c69.82,0 126.45,56.63 126.45,126.45 0,69.82 -56.63,126.45 -126.45,126.45 -69.82,0 -126.45,-56.62 -126.45,-126.45 0,-69.82 56.62,-126.45 126.45,-126.45z"/>
   <g id="_2124139429728">
    <path class="fil7" d="M807.82 681.75l0 -4.39 23.77 0 30.52 24.09 0 -24.09 31.81 0 0 71.31 -23.77 0 -30.52 -24.09 0 24.09 -31.81 0 0 -4.48c-1.92,1.06 -3.93,1.94 -6.02,2.65 -3.66,1.22 -7.47,1.82 -11.35,1.83l-23.62 0c-3.86,-0.02 -7.68,-0.61 -11.34,-1.84 -0.49,-0.16 -0.97,-0.34 -1.45,-0.52l0 2.36 -144.16 0 0 -4.48c-1.92,1.06 -3.93,1.94 -6.02,2.65 -3.66,1.22 -7.47,1.82 -11.35,1.83l-23.62 0c-3.86,-0.02 -7.68,-0.61 -11.34,-1.84 -3.53,-1.18 -6.82,-2.88 -9.81,-5.07 -3,-2.18 -5.6,-4.79 -7.76,-7.76 -1.16,-1.57 -2.17,-3.23 -3.05,-4.96 -3.19,1.3 -6.56,1.93 -10.04,1.95l-31.29 0 0 17.67 -43.59 0 -1.61 -9.86 -29.8 1.95 -1.26 7.9 -32.22 0 11.25 -71.31 128.57 0c3.57,0.02 7.1,0.72 10.42,2.11 3.18,1.36 6.04,3.27 8.45,5.67 0.09,0.08 0.17,0.17 0.26,0.26 0.59,-0.48 1.2,-0.94 1.82,-1.37 2.99,-2.13 6.29,-3.77 9.81,-4.92 3.62,-1.17 7.41,-1.74 11.24,-1.75l23.62 0c3.8,0.02 7.58,0.59 11.22,1.76 2.12,0.69 4.17,1.57 6.12,2.63l0 -4.39 31.81 0 0 39.5 29.84 0 0 -39.5 31.81 0 0 39.5 27.9 0c-0.15,-1.35 -0.23,-2.72 -0.23,-4.09 0.01,-3.85 0.61,-7.69 1.85,-11.34 1.2,-3.53 2.91,-6.81 5.14,-9.77 2.2,-2.95 4.83,-5.51 7.82,-7.63 2.99,-2.13 6.29,-3.77 9.81,-4.92 3.62,-1.17 7.41,-1.74 11.24,-1.75l23.62 0c3.8,0.02 7.58,0.59 11.22,1.76 2.12,0.69 4.17,1.57 6.12,2.63zm-211.32 31.07c-0,-0.42 -0.06,-0.92 -0.26,-1.37 -0.19,-0.43 -0.44,-0.81 -0.8,-1.15 -0.38,-0.37 -0.81,-0.64 -1.29,-0.83 -0.56,-0.23 -1.11,-0.3 -1.67,-0.3l-23.5 0c-0.6,0 -1.17,0.07 -1.71,0.3 -0.47,0.19 -0.91,0.46 -1.31,0.85 -0.34,0.33 -0.59,0.71 -0.78,1.13 -0.19,0.44 -0.25,0.9 -0.25,1.32 0,0.55 0.08,1.06 0.29,1.56 0.22,0.51 0.51,0.96 0.93,1.38 0.37,0.37 0.8,0.65 1.27,0.86 0.51,0.22 1,0.3 1.52,0.3l23.51 0c0.55,-0 1.02,-0.08 1.52,-0.3 0.5,-0.22 0.92,-0.5 1.32,-0.9 0.39,-0.39 0.68,-0.84 0.91,-1.38 0.21,-0.49 0.28,-1.03 0.29,-1.46zm197.94 0c-0,-0.42 -0.06,-0.92 -0.26,-1.37 -0.19,-0.43 -0.44,-0.81 -0.8,-1.15 -0.38,-0.37 -0.81,-0.64 -1.29,-0.83 -0.56,-0.23 -1.11,-0.3 -1.67,-0.3l-23.5 0c-0.6,0 -1.17,0.07 -1.71,0.3 -0.47,0.19 -0.91,0.46 -1.31,0.85 -0.34,0.33 -0.59,0.71 -0.78,1.13 -0.19,0.44 -0.25,0.9 -0.25,1.32 0,0.55 0.08,1.06 0.29,1.56 0.22,0.51 0.51,0.96 0.93,1.38 0.37,0.37 0.8,0.65 1.27,0.86 0.51,0.22 1,0.3 1.52,0.3l23.51 0c0.55,-0 1.02,-0.08 1.52,-0.3 0.5,-0.22 0.92,-0.5 1.32,-0.9 0.39,-0.39 0.68,-0.84 0.91,-1.38 0.21,-0.49 0.28,-1.03 0.29,-1.46z"/>
   </g>
   <path class="fil21" d="M469.77 736.35l-7.43 -46.67 -53.45 0 -7.36 46.67 7.3 0 1.15 -7.23 50.77 -3.33 1.73 10.56 7.3 0zm-10.69 -21.32l-47.44 3.2 3.39 -21.38 41.16 0 2.88 18.18zm1.15 7.11l-49.74 3.39 0.58 -3.65 48.59 -3.27 0.57 3.52zm81.17 -17.99c-0.01,-2.02 -0.39,-3.89 -1.14,-5.63 -0.76,-1.75 -1.79,-3.29 -3.13,-4.6 -1.32,-1.32 -2.87,-2.36 -4.62,-3.11 -1.75,-0.74 -3.63,-1.12 -5.64,-1.13l-50.77 0 0 46.67 7.17 0 0 -17.67 43.6 0c2.02,-0.01 3.89,-0.39 5.64,-1.14 1.75,-0.74 3.3,-1.77 4.62,-3.1 1.33,-1.32 2.37,-2.86 3.13,-4.61 0.75,-1.76 1.13,-3.65 1.14,-5.67zm-7.23 0c-0.01,1.36 -0.34,2.58 -0.99,3.68 -0.65,1.1 -1.53,1.97 -2.61,2.62 -1.1,0.64 -2.33,0.98 -3.69,0.99l-43.6 0 0 -14.6 43.6 0c1.36,0.01 2.59,0.35 3.69,1.01 1.09,0.65 1.96,1.53 2.61,2.63 0.65,1.1 0.98,2.31 0.99,3.66zm81.88 8.64c-0.01,-2.61 -0.41,-5.08 -1.21,-7.39 -0.79,-2.33 -1.9,-4.44 -3.34,-6.36 -1.44,-1.91 -3.15,-3.58 -5.1,-4.96 -1.96,-1.4 -4.12,-2.48 -6.47,-3.24 -2.36,-0.76 -4.83,-1.14 -7.45,-1.15l-23.56 0c-2.62,0.01 -5.11,0.39 -7.47,1.15 -2.35,0.77 -4.5,1.85 -6.47,3.24 -1.96,1.39 -3.66,3.05 -5.09,4.96 -1.44,1.92 -2.55,4.03 -3.34,6.36 -0.79,2.31 -1.18,4.78 -1.19,7.39 0.01,2.63 0.41,5.11 1.19,7.47 0.79,2.35 1.9,4.5 3.34,6.46 1.43,1.96 3.13,3.66 5.09,5.09 1.96,1.44 4.12,2.55 6.47,3.34 2.36,0.79 4.84,1.18 7.47,1.2l23.56 0c2.61,-0.01 5.09,-0.41 7.45,-1.2 2.35,-0.79 4.5,-1.9 6.47,-3.34 1.95,-1.43 3.66,-3.13 5.1,-5.09 1.44,-1.96 2.55,-4.12 3.34,-6.46 0.8,-2.36 1.2,-4.84 1.21,-7.47zm-7.23 0c-0.01,2.27 -0.44,4.4 -1.29,6.37 -0.84,1.97 -2.02,3.71 -3.51,5.21 -1.49,1.5 -3.22,2.68 -5.18,3.52 -1.97,0.84 -4.08,1.28 -6.34,1.29l-23.56 0c-2.27,-0.01 -4.38,-0.45 -6.36,-1.29 -1.96,-0.84 -3.7,-2.02 -5.18,-3.52 -1.49,-1.49 -2.66,-3.23 -3.5,-5.21 -0.84,-1.97 -1.27,-4.1 -1.28,-6.37 0.01,-2.25 0.44,-4.34 1.28,-6.27 0.84,-1.93 2.01,-3.62 3.5,-5.06 1.48,-1.45 3.22,-2.57 5.18,-3.38 1.97,-0.81 4.09,-1.21 6.36,-1.23l23.56 0c2.26,0.01 4.36,0.42 6.34,1.23 1.96,0.81 3.69,1.93 5.18,3.38 1.49,1.44 2.67,3.13 3.51,5.06 0.85,1.93 1.28,4.02 1.29,6.27zm71.25 23.56l0 -7.17 -50.7 0 0 -39.5 -7.17 0 0 46.67 57.87 0zm61.65 0l0 -7.17 -50.7 0 0 -39.5 -7.17 0 0 46.67 57.87 0zm72.28 -23.56c-0.01,-2.61 -0.41,-5.08 -1.21,-7.39 -0.79,-2.33 -1.9,-4.44 -3.34,-6.36 -1.44,-1.91 -3.15,-3.58 -5.1,-4.96 -1.96,-1.4 -4.12,-2.48 -6.47,-3.24 -2.36,-0.76 -4.83,-1.14 -7.45,-1.15l-23.56 0c-2.62,0.01 -5.11,0.39 -7.47,1.15 -2.35,0.77 -4.5,1.85 -6.47,3.24 -1.96,1.39 -3.66,3.05 -5.09,4.96 -1.44,1.92 -2.55,4.03 -3.34,6.36 -0.79,2.31 -1.18,4.78 -1.19,7.39 0.01,2.63 0.41,5.11 1.19,7.47 0.79,2.35 1.9,4.5 3.34,6.46 1.43,1.96 3.13,3.66 5.09,5.09 1.96,1.44 4.12,2.55 6.47,3.34 2.36,0.79 4.84,1.18 7.47,1.2l23.56 0c2.61,-0.01 5.09,-0.41 7.45,-1.2 2.35,-0.79 4.5,-1.9 6.47,-3.34 1.95,-1.43 3.66,-3.13 5.1,-5.09 1.44,-1.96 2.55,-4.12 3.34,-6.46 0.8,-2.36 1.2,-4.84 1.21,-7.47zm-7.23 0c-0.01,2.27 -0.44,4.4 -1.29,6.37 -0.84,1.97 -2.02,3.71 -3.51,5.21 -1.49,1.5 -3.22,2.68 -5.18,3.52 -1.97,0.84 -4.08,1.28 -6.34,1.29l-23.56 0c-2.27,-0.01 -4.38,-0.45 -6.36,-1.29 -1.96,-0.84 -3.7,-2.02 -5.18,-3.52 -1.49,-1.49 -2.66,-3.23 -3.5,-5.21 -0.84,-1.97 -1.27,-4.1 -1.28,-6.37 0.01,-2.25 0.44,-4.34 1.28,-6.27 0.84,-1.93 2.01,-3.62 3.5,-5.06 1.48,-1.45 3.22,-2.57 5.18,-3.38 1.97,-0.81 4.09,-1.21 6.36,-1.23l23.56 0c2.26,0.01 4.36,0.42 6.34,1.23 1.96,0.81 3.69,1.93 5.18,3.38 1.49,1.44 2.67,3.13 3.51,5.06 0.85,1.93 1.28,4.02 1.29,6.27zm74.84 23.56l0 -46.67 -7.17 0 0 37.19 -47.12 -37.19 -7.17 0 0 46.67 7.17 0 0 -37.19 47.12 37.19 7.17 0z"/>
   <g id="_2124139429104">
    <path class="fil21" d="M270.1 822.61l0.66 1.43 10.07 -4.69 3.66 7.84 1.42 -0.66 -4.32 -9.27 -11.49 5.36zm-11.82 8.77l1.4 4.87 1.51 -0.43 -1.4 -4.87c-0.13,-0.47 -0.17,-0.95 -0.11,-1.41 0.06,-0.46 0.2,-0.9 0.42,-1.31 0.22,-0.41 0.51,-0.76 0.87,-1.06 0.36,-0.3 0.78,-0.52 1.25,-0.65l3.05 -0.87c0.48,-0.13 0.95,-0.17 1.41,-0.11 0.47,0.06 0.9,0.2 1.31,0.43 0.41,0.23 0.76,0.52 1.06,0.89 0.3,0.36 0.52,0.78 0.66,1.26l1.4 4.87 1.51 -0.43 -1.4 -4.87c-0.16,-0.55 -0.39,-1.05 -0.7,-1.49 -0.31,-0.45 -0.67,-0.83 -1.09,-1.16 -0.42,-0.33 -0.88,-0.58 -1.38,-0.77 -0.5,-0.19 -1.02,-0.29 -1.56,-0.31 -0.54,-0.02 -1.09,0.04 -1.64,0.19l-3.05 0.88c-0.55,0.16 -1.05,0.39 -1.49,0.7 -0.45,0.31 -0.83,0.67 -1.15,1.09 -0.32,0.42 -0.58,0.88 -0.76,1.38 -0.18,0.5 -0.28,1.02 -0.31,1.56 -0.02,0.54 0.04,1.09 0.2,1.64zm-6.07 -4.12l1.95 10.04 1.54 -0.3 1.58 -1.28 -0.34 -1.75 -1.58 1.28 -1.61 -8.29 -1.54 0.3zm-15.48 4.95c0.04,0.44 0.16,0.84 0.36,1.21 0.19,0.37 0.45,0.69 0.77,0.95 0.31,0.26 0.67,0.46 1.07,0.6 0.4,0.13 0.81,0.18 1.25,0.14l-2.57 2.56 0.14 1.54 13.41 -1.17 -0.14 -1.54 -10.97 0.96 2.53 -2.55 0 -0.01 3.42 -0.3 -0.14 -1.56 -5.84 0.51c-0.3,0.02 -0.57,-0.03 -0.83,-0.15 -0.25,-0.12 -0.46,-0.3 -0.62,-0.53 -0.16,-0.23 -0.26,-0.49 -0.28,-0.79 -0.03,-0.29 0.03,-0.56 0.15,-0.82 0.12,-0.25 0.3,-0.46 0.53,-0.62 0.23,-0.16 0.49,-0.26 0.78,-0.29l7.07 -0.62c0.41,-0.03 0.81,0 1.21,0.11 0.39,0.11 0.76,0.28 1.1,0.51 0.34,0.23 0.63,0.5 0.87,0.84l1.05 -1.23c-0.37,-0.42 -0.78,-0.76 -1.25,-1.05 -0.46,-0.29 -0.96,-0.49 -1.49,-0.62 -0.53,-0.13 -1.07,-0.17 -1.62,-0.12l-7.07 0.62c-0.44,0.04 -0.84,0.16 -1.21,0.35 -0.37,0.19 -0.68,0.45 -0.95,0.77 -0.26,0.31 -0.46,0.67 -0.6,1.06 -0.13,0.39 -0.18,0.81 -0.14,1.25z"/>
    <path class="fil21" d="M215.94 827.82l-0.14 1.57 11.07 0.97 -0.76 8.62 1.56 0.14 0.89 -10.19 -12.63 -1.1zm-14.67 1.79l-1.23 4.91 1.53 0.38 1.22 -4.91c0.12,-0.48 0.33,-0.91 0.61,-1.28 0.28,-0.37 0.62,-0.68 1.02,-0.92 0.4,-0.24 0.83,-0.4 1.29,-0.48 0.46,-0.08 0.93,-0.06 1.41,0.06l3.08 0.77c0.47,0.12 0.9,0.32 1.28,0.61 0.38,0.29 0.68,0.63 0.92,1.03 0.24,0.4 0.4,0.83 0.47,1.3 0.08,0.46 0.06,0.94 -0.06,1.42l-1.22 4.91 1.53 0.38 1.22 -4.91c0.14,-0.56 0.18,-1.11 0.14,-1.65 -0.04,-0.54 -0.16,-1.06 -0.37,-1.55 -0.2,-0.49 -0.48,-0.95 -0.82,-1.36 -0.34,-0.41 -0.74,-0.76 -1.2,-1.05 -0.45,-0.29 -0.96,-0.51 -1.52,-0.65l-3.08 -0.77c-0.56,-0.14 -1.1,-0.18 -1.64,-0.14 -0.54,0.05 -1.06,0.17 -1.55,0.37 -0.49,0.2 -0.94,0.48 -1.35,0.82 -0.41,0.34 -0.76,0.74 -1.05,1.2 -0.29,0.46 -0.5,0.96 -0.64,1.51zm-3.26 -6.6l-3.33 9.67 1.48 0.51 2.01 -0.32 0.58 -1.69 -2.01 0.32 2.75 -7.98 -1.48 -0.51zm-15.89 -3.41c-0.19,0.4 -0.28,0.81 -0.3,1.23 -0.01,0.42 0.05,0.82 0.19,1.21 0.14,0.39 0.35,0.74 0.63,1.05 0.28,0.31 0.62,0.56 1.02,0.75l-3.5 0.94 -0.65 1.4 12.2 5.69 0.65 -1.4 -9.98 -4.65 3.47 -0.94 0 -0.01 3.12 1.45 0.66 -1.42 -5.32 -2.48c-0.27,-0.13 -0.48,-0.31 -0.64,-0.54 -0.15,-0.23 -0.25,-0.49 -0.27,-0.77 -0.03,-0.28 0.02,-0.55 0.15,-0.83 0.13,-0.27 0.31,-0.48 0.54,-0.63 0.23,-0.16 0.49,-0.25 0.77,-0.28 0.28,-0.03 0.55,0.02 0.82,0.14l6.43 3c0.37,0.18 0.71,0.41 0.99,0.7 0.29,0.29 0.52,0.62 0.7,0.98 0.18,0.37 0.29,0.76 0.34,1.17l1.52 -0.54c-0.11,-0.54 -0.3,-1.06 -0.56,-1.53 -0.26,-0.48 -0.59,-0.91 -0.99,-1.28 -0.39,-0.38 -0.84,-0.68 -1.34,-0.92l-6.43 -3c-0.4,-0.18 -0.8,-0.28 -1.22,-0.3 -0.42,-0.01 -0.82,0.05 -1.2,0.19 -0.39,0.14 -0.74,0.35 -1.05,0.62 -0.31,0.27 -0.56,0.61 -0.75,1.01zm-15.77 -14.08l-0.92 1.27 8.99 6.53 -5.09 7 1.27 0.92 6.01 -8.27 -10.26 -7.45zm-13.75 -5.73l-3.52 3.64 1.13 1.09 3.52 -3.64c0.34,-0.35 0.73,-0.62 1.17,-0.8 0.43,-0.19 0.88,-0.28 1.34,-0.29 0.46,-0.01 0.91,0.07 1.35,0.23 0.44,0.16 0.83,0.42 1.19,0.76l2.28 2.2c0.35,0.34 0.63,0.73 0.8,1.17 0.18,0.44 0.28,0.88 0.28,1.35 0.01,0.46 -0.07,0.92 -0.24,1.36 -0.16,0.44 -0.42,0.84 -0.76,1.2l-3.51 3.64 1.13 1.09 3.52 -3.64c0.39,-0.42 0.71,-0.87 0.94,-1.36 0.24,-0.49 0.39,-1 0.46,-1.53 0.07,-0.53 0.06,-1.06 -0.03,-1.58 -0.09,-0.53 -0.26,-1.03 -0.51,-1.51 -0.25,-0.48 -0.58,-0.92 -0.99,-1.32l-2.28 -2.2c-0.41,-0.4 -0.87,-0.71 -1.36,-0.94 -0.49,-0.23 -1,-0.38 -1.52,-0.45 -0.53,-0.07 -1.05,-0.06 -1.58,0.03 -0.53,0.09 -1.02,0.26 -1.51,0.52 -0.48,0.25 -0.92,0.58 -1.32,0.99zm0.59 -7.21l-7.84 6.57 1.01 1.2 1.89 0.76 1.36 -1.14 -1.89 -0.76 6.47 -5.43 -1.01 -1.2zm-12.27 -10.87c-0.36,0.26 -0.65,0.56 -0.87,0.91 -0.22,0.36 -0.37,0.73 -0.44,1.14 -0.07,0.4 -0.07,0.81 0.02,1.22 0.09,0.41 0.26,0.79 0.51,1.15l-3.5 -0.94 -1.26 0.89 7.72 11.03 1.26 -0.88 -6.31 -9.02 3.47 0.92 0.01 -0.01 1.97 2.82 1.28 -0.9 -3.36 -4.81c-0.17,-0.25 -0.26,-0.51 -0.28,-0.79 -0.02,-0.28 0.03,-0.55 0.15,-0.8 0.12,-0.26 0.3,-0.47 0.54,-0.64 0.24,-0.16 0.5,-0.26 0.78,-0.28 0.28,-0.02 0.55,0.03 0.8,0.14 0.26,0.11 0.47,0.29 0.64,0.53l4.07 5.81c0.24,0.34 0.41,0.71 0.52,1.1 0.1,0.39 0.14,0.79 0.11,1.2 -0.03,0.41 -0.12,0.8 -0.29,1.18l1.59 0.29c0.18,-0.53 0.27,-1.06 0.28,-1.61 0.01,-0.54 -0.06,-1.08 -0.21,-1.6 -0.15,-0.52 -0.39,-1.01 -0.71,-1.47l-4.07 -5.81c-0.26,-0.36 -0.56,-0.64 -0.91,-0.87 -0.35,-0.22 -0.73,-0.37 -1.14,-0.44 -0.4,-0.07 -0.81,-0.07 -1.22,0.01 -0.41,0.08 -0.79,0.25 -1.16,0.5zm-6.68 -19.99l-1.44 0.64 4.52 10.15 -7.91 3.52 0.64 1.43 9.34 -4.16 -5.16 -11.58zm-9.39 -11.56l-4.81 1.57 0.48 1.5 4.82 -1.57c0.47,-0.15 0.94,-0.2 1.41,-0.16 0.47,0.04 0.91,0.16 1.32,0.37 0.42,0.21 0.78,0.49 1.09,0.84 0.31,0.35 0.54,0.76 0.7,1.23l0.98 3.02c0.15,0.47 0.2,0.94 0.16,1.41 -0.04,0.47 -0.17,0.91 -0.38,1.33 -0.21,0.42 -0.49,0.78 -0.85,1.09 -0.35,0.31 -0.76,0.55 -1.23,0.7l-4.82 1.56 0.49 1.5 4.81 -1.56c0.55,-0.18 1.03,-0.43 1.47,-0.76 0.44,-0.33 0.81,-0.7 1.12,-1.13 0.31,-0.44 0.55,-0.91 0.72,-1.41 0.17,-0.5 0.26,-1.03 0.26,-1.57 0,-0.54 -0.08,-1.09 -0.25,-1.63l-0.98 -3.02c-0.18,-0.54 -0.43,-1.03 -0.76,-1.47 -0.32,-0.43 -0.7,-0.81 -1.13,-1.11 -0.43,-0.31 -0.9,-0.54 -1.41,-0.71 -0.51,-0.16 -1.03,-0.24 -1.58,-0.25 -0.54,-0 -1.08,0.08 -1.62,0.25zm4.18 -6.27l-9.97 2.3 0.35 1.53 1.33 1.53 1.74 -0.4 -1.33 -1.53 8.23 -1.9 -0.35 -1.53zm-5.35 -15.32c-0.44,0.05 -0.84,0.19 -1.2,0.4 -0.36,0.21 -0.67,0.47 -0.92,0.8 -0.25,0.32 -0.44,0.68 -0.56,1.09 -0.11,0.4 -0.15,0.82 -0.1,1.26l-2.65 -2.47 -1.53 0.19 1.64 13.37 1.53 -0.19 -1.34 -10.93 2.63 2.45 0.01 -0 0.42 3.41 1.56 -0.19 -0.71 -5.82c-0.04,-0.3 0,-0.57 0.12,-0.83 0.11,-0.26 0.28,-0.47 0.5,-0.64 0.23,-0.17 0.48,-0.27 0.78,-0.31 0.3,-0.03 0.57,0.01 0.82,0.12 0.26,0.12 0.47,0.28 0.64,0.5 0.17,0.22 0.28,0.48 0.32,0.77l0.87 7.05c0.05,0.41 0.03,0.81 -0.07,1.21 -0.09,0.4 -0.25,0.76 -0.47,1.11 -0.22,0.34 -0.48,0.65 -0.81,0.91l1.27 1.01c0.4,-0.38 0.74,-0.81 1,-1.28 0.27,-0.48 0.45,-0.98 0.57,-1.52 0.11,-0.53 0.13,-1.08 0.06,-1.63l-0.86 -7.05c-0.06,-0.44 -0.19,-0.83 -0.4,-1.19 -0.21,-0.36 -0.48,-0.67 -0.8,-0.92 -0.32,-0.25 -0.68,-0.44 -1.08,-0.56 -0.4,-0.12 -0.82,-0.15 -1.26,-0.1zm4.22 -20.85l-1.57 -0.14 -0.97 11.07 -8.62 -0.76 -0.14 1.57 10.19 0.89 1.1 -12.63zm-1.93 -14.83l-4.91 -1.23 -0.38 1.53 4.91 1.22c0.48,0.12 0.91,0.33 1.28,0.61 0.38,0.28 0.68,0.62 0.92,1.02 0.24,0.4 0.4,0.83 0.48,1.29 0.08,0.46 0.06,0.93 -0.06,1.41l-0.77 3.08c-0.12,0.48 -0.32,0.91 -0.61,1.28 -0.29,0.38 -0.63,0.68 -1.03,0.92 -0.4,0.24 -0.83,0.4 -1.3,0.47 -0.46,0.08 -0.94,0.06 -1.42,-0.06l-4.91 -1.22 -0.38 1.53 4.91 1.22c0.56,0.14 1.11,0.18 1.65,0.14 0.55,-0.04 1.06,-0.16 1.55,-0.37 0.49,-0.2 0.95,-0.48 1.36,-0.82 0.41,-0.34 0.76,-0.74 1.06,-1.2 0.29,-0.45 0.51,-0.96 0.65,-1.52l0.77 -3.08c0.14,-0.56 0.18,-1.1 0.14,-1.64 -0.05,-0.54 -0.17,-1.06 -0.38,-1.55 -0.2,-0.49 -0.48,-0.94 -0.82,-1.35 -0.34,-0.41 -0.74,-0.76 -1.2,-1.05 -0.45,-0.29 -0.96,-0.5 -1.51,-0.64zm6.37 -3.18l-9.67 -3.33 -0.51 1.48 0.32 2.01 1.69 0.58 -0.32 -2.01 7.98 2.75 0.51 -1.48zm2.74 -16.03c-0.41,-0.16 -0.82,-0.24 -1.24,-0.23 -0.42,0.01 -0.82,0.09 -1.2,0.25 -0.38,0.16 -0.72,0.39 -1.02,0.68 -0.3,0.3 -0.53,0.64 -0.69,1.05l-1.12 -3.45 -1.43 -0.58 -5.05 12.48 1.43 0.58 4.12 -10.21 1.12 3.42 0.01 0 -1.29 3.19 1.45 0.59 2.2 -5.44c0.11,-0.28 0.29,-0.5 0.51,-0.67 0.22,-0.17 0.47,-0.27 0.75,-0.31 0.28,-0.04 0.56,-0.01 0.83,0.1 0.27,0.11 0.49,0.28 0.66,0.5 0.17,0.23 0.28,0.47 0.32,0.75 0.04,0.28 0.01,0.55 -0.1,0.83l-2.66 6.58c-0.15,0.38 -0.37,0.72 -0.64,1.03 -0.27,0.3 -0.59,0.55 -0.95,0.75 -0.36,0.2 -0.74,0.33 -1.14,0.4l0.62 1.5c0.54,-0.14 1.04,-0.35 1.5,-0.64 0.47,-0.29 0.87,-0.64 1.23,-1.05 0.35,-0.42 0.64,-0.88 0.85,-1.39l2.66 -6.58c0.16,-0.41 0.24,-0.82 0.23,-1.23 -0.01,-0.42 -0.09,-0.81 -0.25,-1.19 -0.16,-0.38 -0.38,-0.72 -0.68,-1.02 -0.29,-0.3 -0.64,-0.53 -1.05,-0.7zm14.21 -15.92l-1.27 -0.93 -6.53 8.99 -7 -5.09 -0.93 1.27 8.27 6.01 7.45 -10.26zm5.16 -13.93l-3.82 -3.32 -1.03 1.19 3.82 3.32c0.37,0.32 0.66,0.7 0.86,1.12 0.21,0.42 0.33,0.86 0.36,1.32 0.04,0.46 -0.02,0.92 -0.16,1.36 -0.14,0.45 -0.37,0.86 -0.7,1.23l-2.08 2.39c-0.33,0.37 -0.7,0.66 -1.13,0.87 -0.42,0.2 -0.87,0.32 -1.33,0.35 -0.47,0.03 -0.92,-0.02 -1.37,-0.16 -0.45,-0.14 -0.86,-0.38 -1.24,-0.7l-3.82 -3.32 -1.03 1.19 3.82 3.32c0.43,0.38 0.9,0.66 1.4,0.87 0.5,0.21 1.02,0.33 1.55,0.38 0.53,0.04 1.06,0 1.58,-0.11 0.52,-0.11 1.01,-0.31 1.48,-0.59 0.47,-0.27 0.89,-0.63 1.27,-1.06l2.08 -2.39c0.37,-0.44 0.66,-0.9 0.87,-1.4 0.21,-0.5 0.33,-1.02 0.37,-1.55 0.04,-0.53 0,-1.05 -0.11,-1.57 -0.12,-0.52 -0.32,-1.01 -0.59,-1.48 -0.27,-0.46 -0.63,-0.89 -1.06,-1.26zm7.56 0.38l-6.97 -7.48 -1.15 1.07 -0.66 1.92 1.21 1.3 0.66 -1.92 5.76 6.18 1.15 -1.07zm10.24 -12.47c-0.27,-0.34 -0.59,-0.62 -0.96,-0.82 -0.37,-0.2 -0.76,-0.33 -1.16,-0.38 -0.41,-0.05 -0.81,-0.02 -1.22,0.08 -0.4,0.11 -0.78,0.3 -1.13,0.57l0.76 -3.55 -0.95 -1.22 -10.61 8.29 0.95 1.22 8.68 -6.78 -0.74 3.51 0.01 0.01 -2.71 2.12 0.97 1.24 4.62 -3.61c0.24,-0.18 0.49,-0.29 0.77,-0.32 0.28,-0.03 0.55,0 0.81,0.1 0.26,0.11 0.49,0.27 0.67,0.5 0.18,0.23 0.29,0.49 0.32,0.77 0.03,0.28 0,0.55 -0.1,0.81 -0.1,0.26 -0.26,0.48 -0.5,0.67l-5.59 4.37c-0.33,0.26 -0.68,0.44 -1.07,0.57 -0.39,0.12 -0.79,0.18 -1.2,0.17 -0.41,-0.01 -0.81,-0.08 -1.19,-0.23l-0.21 1.6c0.53,0.15 1.07,0.22 1.62,0.2 0.55,-0.02 1.07,-0.11 1.59,-0.3 0.51,-0.18 0.99,-0.44 1.43,-0.78l5.59 -4.37c0.34,-0.27 0.61,-0.59 0.82,-0.95 0.2,-0.37 0.33,-0.75 0.38,-1.16 0.05,-0.41 0.03,-0.82 -0.08,-1.21 -0.11,-0.4 -0.29,-0.78 -0.57,-1.13zm20.29 -7.16l-0.69 -1.41 -9.99 4.87 -3.79 -7.78 -1.41 0.69 4.48 9.19 11.4 -5.56zm11.49 -9.25l-1.56 -4.82 -1.5 0.49 1.57 4.82c0.15,0.47 0.2,0.94 0.16,1.41 -0.04,0.47 -0.16,0.91 -0.37,1.32 -0.21,0.42 -0.49,0.77 -0.84,1.09 -0.35,0.31 -0.76,0.54 -1.23,0.7l-3.02 0.98c-0.47,0.15 -0.94,0.2 -1.41,0.16 -0.47,-0.04 -0.91,-0.17 -1.32,-0.38 -0.42,-0.21 -0.78,-0.49 -1.09,-0.85 -0.31,-0.35 -0.54,-0.76 -0.7,-1.23l-1.56 -4.81 -1.5 0.49 1.56 4.82c0.18,0.54 0.43,1.03 0.76,1.47 0.32,0.44 0.7,0.81 1.13,1.12 0.44,0.31 0.91,0.55 1.41,0.72 0.5,0.17 1.03,0.25 1.57,0.26 0.54,0 1.09,-0.08 1.63,-0.25l3.02 -0.98c0.54,-0.18 1.03,-0.43 1.47,-0.75 0.44,-0.32 0.81,-0.7 1.11,-1.14 0.31,-0.43 0.55,-0.9 0.71,-1.4 0.16,-0.51 0.25,-1.03 0.25,-1.58 0,-0.54 -0.08,-1.09 -0.26,-1.62zm6.19 3.98l-2.3 -9.96 -1.53 0.35 -1.53 1.33 0.4 1.74 1.53 -1.33 1.9 8.23 1.53 -0.35zm15.29 -5.46c-0.06,-0.44 -0.19,-0.83 -0.4,-1.2 -0.21,-0.36 -0.48,-0.67 -0.8,-0.92 -0.32,-0.25 -0.68,-0.44 -1.09,-0.55 -0.4,-0.11 -0.82,-0.15 -1.25,-0.1l2.47 -2.65 -0.19 -1.54 -13.36 1.64 0.19 1.53 10.93 -1.34 -2.45 2.63 0 0.01 -3.41 0.42 0.19 1.56 5.82 -0.71c0.3,-0.04 0.57,0 0.83,0.12 0.25,0.11 0.47,0.28 0.64,0.5 0.17,0.23 0.27,0.48 0.31,0.78 0.04,0.3 -0.01,0.57 -0.12,0.82 -0.12,0.26 -0.28,0.47 -0.5,0.64 -0.22,0.17 -0.48,0.28 -0.77,0.32l-7.05 0.86c-0.41,0.05 -0.81,0.03 -1.21,-0.06 -0.4,-0.09 -0.77,-0.25 -1.11,-0.47 -0.35,-0.22 -0.65,-0.48 -0.91,-0.81l-1.01 1.27c0.38,0.4 0.81,0.74 1.28,1 0.47,0.26 0.98,0.45 1.52,0.56 0.53,0.11 1.08,0.13 1.63,0.07l7.04 -0.87c0.44,-0.06 0.83,-0.19 1.19,-0.4 0.36,-0.21 0.67,-0.47 0.92,-0.8 0.26,-0.32 0.44,-0.68 0.56,-1.08 0.12,-0.4 0.15,-0.82 0.1,-1.26zm20.9 3.68l0.11 -1.57 -11.09 -0.78 0.6 -8.63 -1.57 -0.11 -0.71 10.2 12.65 0.89zm14.53 -2.6l0.88 -4.98 -1.55 -0.27 -0.88 4.98c-0.09,0.49 -0.26,0.93 -0.52,1.32 -0.26,0.39 -0.57,0.72 -0.95,0.99 -0.38,0.27 -0.79,0.46 -1.25,0.57 -0.45,0.11 -0.93,0.12 -1.41,0.04l-3.12 -0.55c-0.48,-0.09 -0.93,-0.26 -1.32,-0.52 -0.39,-0.26 -0.72,-0.58 -0.99,-0.96 -0.26,-0.38 -0.45,-0.8 -0.56,-1.26 -0.11,-0.46 -0.12,-0.93 -0.04,-1.42l0.88 -4.98 -1.55 -0.27 -0.88 4.99c-0.1,0.57 -0.11,1.12 -0.02,1.65 0.08,0.54 0.24,1.05 0.47,1.52 0.24,0.48 0.54,0.91 0.91,1.3 0.36,0.39 0.79,0.71 1.27,0.97 0.48,0.26 0.99,0.44 1.56,0.54l3.12 0.55c0.56,0.1 1.11,0.11 1.65,0.03 0.54,-0.08 1.04,-0.24 1.52,-0.48 0.47,-0.24 0.91,-0.54 1.29,-0.91 0.38,-0.37 0.7,-0.79 0.96,-1.27 0.26,-0.48 0.43,-1 0.54,-1.55zm3.61 6.66l2.65 -9.88 -1.52 -0.41 -1.98 0.45 -0.46 1.72 1.98 -0.46 -2.19 8.16 1.51 0.41zm15.96 2.49c0.15,-0.41 0.22,-0.83 0.21,-1.24 -0.02,-0.42 -0.11,-0.82 -0.28,-1.19 -0.16,-0.38 -0.4,-0.71 -0.7,-1 -0.3,-0.29 -0.65,-0.51 -1.06,-0.67l3.43 -1.18 0.55 -1.44 -12.57 -4.83 -0.56 1.44 10.28 3.95 -3.4 1.18 -0 0.01 -3.21 -1.23 -0.56 1.47 5.47 2.1c0.28,0.11 0.5,0.28 0.68,0.5 0.17,0.22 0.28,0.47 0.33,0.75 0.05,0.28 0.02,0.55 -0.09,0.83 -0.11,0.28 -0.27,0.5 -0.49,0.67 -0.22,0.17 -0.47,0.28 -0.75,0.33 -0.28,0.05 -0.55,0.02 -0.83,-0.08l-6.63 -2.54c-0.39,-0.15 -0.73,-0.36 -1.04,-0.63 -0.3,-0.27 -0.56,-0.58 -0.76,-0.94 -0.2,-0.35 -0.35,-0.73 -0.42,-1.14l-1.48 0.65c0.15,0.53 0.37,1.03 0.66,1.49 0.3,0.46 0.65,0.86 1.08,1.21 0.42,0.35 0.89,0.62 1.41,0.82l6.62 2.54c0.41,0.16 0.82,0.23 1.24,0.21 0.42,-0.02 0.81,-0.11 1.19,-0.27 0.38,-0.17 0.71,-0.4 1,-0.69 0.29,-0.3 0.52,-0.65 0.68,-1.06zm16.42 13.8l0.83 -1.33 -9.42 -5.89 4.59 -7.34 -1.33 -0.83 -5.42 8.67 10.75 6.72zm13.84 5.22l3.32 -3.82 -1.19 -1.03 -3.32 3.82c-0.32,0.37 -0.7,0.66 -1.12,0.87 -0.42,0.21 -0.86,0.33 -1.32,0.36 -0.46,0.04 -0.92,-0.02 -1.36,-0.16 -0.45,-0.14 -0.86,-0.37 -1.23,-0.7l-2.39 -2.08c-0.37,-0.33 -0.66,-0.7 -0.87,-1.13 -0.2,-0.42 -0.32,-0.87 -0.35,-1.33 -0.03,-0.46 0.02,-0.92 0.16,-1.37 0.14,-0.45 0.38,-0.86 0.7,-1.24l3.32 -3.82 -1.19 -1.03 -3.32 3.82c-0.38,0.43 -0.66,0.9 -0.87,1.41 -0.21,0.5 -0.33,1.02 -0.38,1.55 -0.04,0.53 -0,1.06 0.11,1.58 0.12,0.52 0.31,1.01 0.59,1.48 0.27,0.47 0.63,0.89 1.06,1.27l2.39 2.08c0.44,0.37 0.9,0.66 1.4,0.87 0.5,0.21 1.02,0.33 1.55,0.37 0.53,0.04 1.05,0 1.57,-0.11 0.52,-0.12 1.01,-0.32 1.48,-0.59 0.46,-0.28 0.89,-0.63 1.26,-1.06zm-0.28 7.32l7.36 -7.1 -1.09 -1.13 -1.93 -0.63 -1.28 1.24 1.93 0.63 -6.08 5.86 1.09 1.13zm12.56 10.25c0.34,-0.28 0.61,-0.6 0.8,-0.97 0.19,-0.37 0.31,-0.76 0.36,-1.17 0.04,-0.41 0.01,-0.81 -0.11,-1.22 -0.11,-0.4 -0.31,-0.77 -0.59,-1.12l3.56 0.69 1.2 -0.97 -8.47 -10.46 -1.2 0.97 6.93 8.56 -3.53 -0.68 -0.01 0.01 -2.16 -2.67 -1.22 0.99 3.69 4.56c0.19,0.23 0.3,0.49 0.34,0.77 0.04,0.28 0.01,0.55 -0.09,0.81 -0.1,0.27 -0.26,0.49 -0.49,0.68 -0.23,0.19 -0.49,0.3 -0.76,0.34 -0.28,0.04 -0.55,0.01 -0.81,-0.09 -0.26,-0.1 -0.49,-0.26 -0.68,-0.48l-4.47 -5.52c-0.26,-0.32 -0.45,-0.68 -0.59,-1.06 -0.13,-0.38 -0.19,-0.78 -0.19,-1.19 0,-0.41 0.07,-0.81 0.2,-1.2l-1.61 -0.18c-0.14,0.54 -0.2,1.08 -0.17,1.62 0.02,0.55 0.13,1.07 0.32,1.59 0.19,0.51 0.46,0.98 0.81,1.42l4.47 5.52c0.28,0.34 0.6,0.6 0.97,0.8 0.37,0.19 0.76,0.31 1.17,0.36 0.41,0.05 0.81,0.01 1.21,-0.1 0.4,-0.11 0.77,-0.31 1.12,-0.58zm7.51 20.08l1.4 -0.72 -5.05 -9.9 7.71 -3.93 -0.71 -1.4 -9.11 4.64 5.76 11.3zm9.4 11.28l4.79 -1.65 -0.51 -1.48 -4.79 1.65c-0.47,0.16 -0.94,0.22 -1.4,0.19 -0.47,-0.03 -0.91,-0.15 -1.33,-0.35 -0.42,-0.2 -0.79,-0.47 -1.1,-0.82 -0.32,-0.34 -0.56,-0.75 -0.72,-1.22l-1.03 -3c-0.16,-0.46 -0.22,-0.94 -0.19,-1.4 0.04,-0.47 0.15,-0.91 0.36,-1.33 0.2,-0.42 0.48,-0.78 0.83,-1.1 0.34,-0.32 0.75,-0.56 1.22,-0.72l4.79 -1.65 -0.51 -1.49 -4.79 1.65c-0.54,0.19 -1.03,0.45 -1.46,0.78 -0.43,0.34 -0.8,0.72 -1.1,1.15 -0.3,0.44 -0.53,0.92 -0.69,1.42 -0.16,0.51 -0.23,1.03 -0.23,1.58 0,0.54 0.1,1.08 0.28,1.62l1.03 3c0.19,0.54 0.45,1.02 0.78,1.46 0.33,0.43 0.72,0.79 1.15,1.09 0.44,0.3 0.91,0.53 1.42,0.69 0.51,0.15 1.03,0.23 1.58,0.23 0.54,-0.01 1.08,-0.1 1.62,-0.28zm-3.78 6.28l9.92 -2.48 -0.38 -1.52 -1.36 -1.51 -1.73 0.43 1.36 1.51 -8.19 2.04 0.38 1.52zm5.76 15.1c0.44,-0.07 0.83,-0.2 1.19,-0.42 0.36,-0.22 0.66,-0.49 0.91,-0.82 0.25,-0.33 0.43,-0.69 0.54,-1.1 0.11,-0.4 0.13,-0.82 0.07,-1.26l2.69 2.43 1.53 -0.21 -1.87 -13.34 -1.53 0.22 1.53 10.9 -2.68 -2.4 -0.01 0 -0.48 -3.4 -1.55 0.22 0.82 5.81c0.04,0.3 0,0.57 -0.11,0.83 -0.11,0.26 -0.27,0.47 -0.49,0.65 -0.22,0.18 -0.48,0.28 -0.77,0.33 -0.29,0.04 -0.57,0 -0.83,-0.11 -0.26,-0.11 -0.48,-0.27 -0.65,-0.49 -0.18,-0.22 -0.29,-0.47 -0.33,-0.76l-0.99 -7.03c-0.06,-0.41 -0.04,-0.81 0.04,-1.21 0.09,-0.4 0.24,-0.77 0.45,-1.12 0.21,-0.35 0.47,-0.66 0.79,-0.92l-1.28 -0.98c-0.4,0.39 -0.72,0.82 -0.98,1.3 -0.26,0.48 -0.44,0.99 -0.54,1.53 -0.1,0.54 -0.11,1.08 -0.04,1.63l0.99 7.03c0.06,0.44 0.2,0.83 0.42,1.18 0.22,0.36 0.49,0.66 0.82,0.91 0.33,0.25 0.69,0.43 1.09,0.54 0.4,0.11 0.82,0.14 1.26,0.08zm-3.2 21.12l1.57 0.03 0.19 -11.11 8.65 0.15 0.03 -1.57 -10.23 -0.18 -0.22 12.68zm2.61 14.49l4.98 0.88 0.27 -1.55 -4.99 -0.88c-0.49,-0.09 -0.93,-0.26 -1.32,-0.52 -0.39,-0.26 -0.72,-0.57 -0.99,-0.95 -0.27,-0.38 -0.46,-0.79 -0.57,-1.25 -0.11,-0.45 -0.12,-0.93 -0.04,-1.41l0.55 -3.12c0.09,-0.48 0.26,-0.93 0.52,-1.32 0.26,-0.39 0.58,-0.72 0.96,-0.99 0.38,-0.26 0.8,-0.45 1.26,-0.56 0.46,-0.11 0.93,-0.12 1.42,-0.04l4.99 0.88 0.27 -1.55 -4.98 -0.88c-0.57,-0.1 -1.12,-0.11 -1.65,-0.02 -0.54,0.08 -1.05,0.24 -1.52,0.47 -0.48,0.24 -0.91,0.54 -1.3,0.91 -0.39,0.36 -0.71,0.79 -0.97,1.27 -0.26,0.48 -0.44,0.99 -0.54,1.56l-0.55 3.12c-0.1,0.56 -0.11,1.11 -0.02,1.65 0.08,0.54 0.24,1.04 0.48,1.52 0.24,0.47 0.54,0.91 0.91,1.29 0.37,0.38 0.79,0.7 1.27,0.96 0.48,0.26 1,0.43 1.56,0.54zm-6.6 3.55l9.88 2.65 0.41 -1.52 -0.45 -1.98 -1.72 -0.46 0.45 1.98 -8.15 -2.19 -0.41 1.51zm-2.38 16.13c0.41,0.16 0.83,0.22 1.24,0.21 0.42,-0.02 0.82,-0.11 1.19,-0.28 0.38,-0.16 0.71,-0.4 1,-0.7 0.29,-0.3 0.51,-0.65 0.68,-1.06l1.18 3.43 1.44 0.55 4.83 -12.57 -1.44 -0.56 -3.95 10.28 -1.18 -3.4 -0.01 -0 1.23 -3.21 -1.47 -0.56 -2.1 5.47c-0.11,0.28 -0.28,0.5 -0.5,0.68 -0.22,0.17 -0.47,0.28 -0.75,0.33 -0.28,0.05 -0.56,0.02 -0.83,-0.09 -0.28,-0.11 -0.5,-0.27 -0.67,-0.49 -0.17,-0.22 -0.28,-0.47 -0.33,-0.75 -0.05,-0.28 -0.03,-0.55 0.08,-0.83l2.54 -6.63c0.15,-0.38 0.36,-0.73 0.63,-1.04 0.27,-0.3 0.58,-0.56 0.94,-0.76 0.35,-0.2 0.73,-0.35 1.14,-0.42l-0.65 -1.48c-0.53,0.15 -1.03,0.37 -1.49,0.66 -0.46,0.3 -0.86,0.65 -1.21,1.08 -0.35,0.42 -0.62,0.89 -0.82,1.41l-2.54 6.62c-0.16,0.41 -0.22,0.82 -0.21,1.24 0.02,0.42 0.11,0.81 0.27,1.19 0.16,0.38 0.39,0.71 0.69,1 0.3,0.29 0.65,0.52 1.06,0.68zm-13.35 16.54l1.33 0.83 5.89 -9.42 7.34 4.58 0.83 -1.33 -8.67 -5.42 -6.72 10.76zm-5.06 13.96l3.82 3.32 1.03 -1.18 -3.82 -3.32c-0.37,-0.32 -0.66,-0.7 -0.87,-1.12 -0.21,-0.42 -0.33,-0.86 -0.36,-1.32 -0.04,-0.46 0.02,-0.92 0.16,-1.36 0.14,-0.45 0.37,-0.86 0.7,-1.23l2.08 -2.39c0.33,-0.37 0.7,-0.66 1.13,-0.86 0.42,-0.2 0.87,-0.32 1.33,-0.35 0.47,-0.03 0.92,0.03 1.37,0.17 0.45,0.14 0.86,0.38 1.24,0.7l3.82 3.32 1.03 -1.19 -3.82 -3.32c-0.43,-0.38 -0.9,-0.66 -1.41,-0.87 -0.5,-0.21 -1.02,-0.33 -1.55,-0.38 -0.53,-0.04 -1.06,-0 -1.58,0.11 -0.52,0.11 -1.01,0.31 -1.48,0.59 -0.47,0.27 -0.89,0.63 -1.27,1.06l-2.08 2.39c-0.37,0.43 -0.66,0.9 -0.87,1.4 -0.21,0.5 -0.33,1.02 -0.37,1.55 -0.04,0.53 -0,1.05 0.11,1.57 0.12,0.52 0.32,1.01 0.59,1.48 0.28,0.47 0.63,0.89 1.06,1.26zm-7.26 -0.05l7.1 7.36 1.13 -1.09 0.63 -1.93 -1.24 -1.28 -0.63 1.93 -5.86 -6.08 -1.13 1.09zm-10 12.73c0.28,0.34 0.6,0.61 0.97,0.8 0.37,0.19 0.76,0.31 1.17,0.36 0.41,0.04 0.81,0.01 1.22,-0.11 0.4,-0.11 0.77,-0.31 1.12,-0.58l-0.69 3.56 0.97 1.2 10.47 -8.48 -0.97 -1.2 -8.56 6.93 0.68 -3.53 -0.01 -0.01 2.67 -2.16 -0.99 -1.22 -4.56 3.69c-0.23,0.19 -0.49,0.3 -0.77,0.34 -0.28,0.04 -0.54,0.01 -0.81,-0.09 -0.27,-0.1 -0.49,-0.26 -0.68,-0.49 -0.19,-0.23 -0.3,-0.49 -0.34,-0.76 -0.04,-0.28 -0.01,-0.55 0.09,-0.81 0.1,-0.26 0.25,-0.49 0.48,-0.68l5.51 -4.47c0.32,-0.26 0.68,-0.45 1.06,-0.59 0.38,-0.13 0.78,-0.19 1.19,-0.19 0.41,0 0.81,0.07 1.2,0.2l0.18 -1.61c-0.54,-0.14 -1.08,-0.2 -1.62,-0.17 -0.54,0.03 -1.07,0.13 -1.59,0.33 -0.51,0.19 -0.98,0.46 -1.42,0.81l-5.51 4.47c-0.34,0.28 -0.6,0.6 -0.8,0.97 -0.19,0.37 -0.31,0.76 -0.36,1.17 -0.04,0.41 -0.01,0.81 0.1,1.21 0.11,0.4 0.31,0.78 0.58,1.12z"/>
   </g>
   <polygon class="fil22" points="904.75,700.48 907.82,675.7 908.9,676.42 910.37,662.8 911.23,663.18 915.07,643.64 918.02,663.02 919.82,662.73 923.24,675.27 924,674.6 930.65,702.34 921.71,703.86 920.38,700.25 912.19,703.1 "/>
   <polygon class="fil22" points="928.43,716.46 931.98,687.72 933.24,688.56 934.95,672.77 935.95,673.22 940.4,650.56 943.81,673.02 945.9,672.69 949.87,687.23 950.75,686.46 958.46,718.62 948.09,720.38 946.55,716.19 937.06,719.5 "/>
   <polygon class="fil22" points="962.77,705.07 965.66,672.38 966.68,673.34 968.07,655.38 968.88,655.88 972.49,630.1 975.26,655.66 976.96,655.29 980.18,671.82 980.9,670.95 987.16,707.52 978.74,709.53 977.49,704.77 969.78,708.53 "/>
   <polygon class="fil22" points="15.06,694.88 18.93,663.57 20.3,664.48 22.17,647.28 23.25,647.76 28.1,623.07 31.82,647.56 34.1,647.2 38.42,663.04 39.38,662.19 47.78,697.23 36.48,699.15 34.8,694.58 24.46,698.19 "/>
   <polygon class="fil22" points="36.89,737.7 43.17,686.96 45.39,688.44 48.41,660.56 50.17,661.35 58.02,621.33 64.05,661 67.75,660.42 74.75,686.09 76.3,684.73 89.93,741.51 71.61,744.63 68.89,737.22 52.13,743.07 "/>
   <path class="fil17" d="M913.14 711.86l0.92 -9.41 6.31 -2.2 1.33 3.62 0.76 6.85c0,0 -4.76,-0.76 -9.33,1.14z"/>
   <path class="fil17" d="M938.16 729.65l1.07 -10.91 7.32 -2.55 1.54 4.19 0.88 7.94c0,0 -5.52,-0.88 -10.81,1.32z"/>
   <path class="fil17" d="M970.68 720.08l0.87 -12.41 5.94 -2.9 1.25 4.77 0.72 9.04c0,0 -4.48,-1.01 -8.78,1.51z"/>
   <path class="fil17" d="M25.67 709.25l1.17 -11.89 7.97 -2.78 1.68 4.57 0.96 8.66c0,0 -6.01,-0.96 -11.78,1.44z"/>
   <path class="fil17" d="M54.08 760.99l1.89 -19.26 12.92 -4.51 2.73 7.4 1.56 14.03c0,0 -9.74,-1.56 -19.09,2.34z"/>
   <polygon class="fil1" points="453.07,843.2 472.94,735.9 464.67,840.64 448.74,852.95 "/>
   <polygon class="fil1" points="546.94,722.59 551.25,788.1 544.95,800.41 "/>
   <polygon class="fil1" points="370.79,768.82 345.24,844.3 351.55,851.28 370.45,802.07 370.45,826.01 398.65,754.18 378.42,783.11 "/>
   <path class="fil1" d="M723.61 741.87l65.97 46.93c0,0 -51.01,-13.6 -65.97,-46.93z"/>
   <path class="fil2" d="M872.9 751.77l60.83 46.95c0,0 -54.88,-21.82 -60.83,-46.95z"/>
   <path class="fil17" d="M868.27 435.71c6.61,-14.55 23.14,-7.93 23.14,-7.93 0,0 2.52,-9.47 10.49,-11.8 7.96,-2.33 12.27,0.33 12.27,0.33 0,0 -14.94,0.66 -17.6,8.4 -2.65,7.73 -2.65,7.73 -2.65,7.73 0,0 -13.93,-7.15 -25.65,3.27z"/>
   <path class="fil21" d="M180.15 743.6l0 -38.59 -5.93 0 -6.78 3.6 0 6.72 6.78 -3.6 0 31.87 5.93 0zm12.92 0l0 -6.67 -7.2 0 0 6.67 7.2 0zm59.72 -11.97c-0.01,-1.67 -0.33,-3.22 -0.94,-4.67 -0.63,-1.45 -1.48,-2.73 -2.58,-3.82 -1.09,-1.1 -2.37,-1.96 -3.82,-2.58 -1.45,-0.62 -3,-0.94 -4.67,-0.94l-31.29 0 1.43 -8.68 38.7 0 0 -5.93 -43.83 0 -3.28 20.54 38.28 0c1.13,0.01 2.14,0.29 3.05,0.84 0.9,0.55 1.62,1.27 2.16,2.19 0.54,0.92 0.81,1.93 0.82,3.06 -0.01,1.11 -0.29,2.12 -0.83,3.03 -0.55,0.91 -1.27,1.63 -2.18,2.17 -0.91,0.55 -1.91,0.82 -3.02,0.84l-26.79 0c-1.56,-0.01 -3.06,-0.27 -4.51,-0.8 -1.44,-0.53 -2.75,-1.29 -3.95,-2.26 -1.19,-0.97 -2.2,-2.12 -3.02,-3.45l-4.34 4.29c1.24,1.69 2.68,3.13 4.34,4.35 1.66,1.22 3.47,2.15 5.42,2.81 1.96,0.65 3.98,0.99 6.07,1l26.79 0c1.66,-0.01 3.2,-0.33 4.65,-0.94 1.45,-0.62 2.72,-1.47 3.82,-2.57 1.1,-1.09 1.97,-2.36 2.59,-3.8 0.63,-1.44 0.94,-2.99 0.95,-4.66zm51.88 2.33c-0.01,-1.43 -0.27,-2.76 -0.8,-4 -0.53,-1.24 -1.27,-2.32 -2.21,-3.26 -0.94,-0.94 -2.03,-1.67 -3.26,-2.2 -1.24,-0.53 -2.57,-0.8 -4,-0.81 -1.42,0.01 -2.75,0.28 -4,0.81 -1.23,0.53 -2.32,1.26 -3.26,2.2 -0.94,0.94 -1.67,2.03 -2.2,3.26 -0.53,1.24 -0.8,2.57 -0.81,4 0.01,1.43 0.28,2.75 0.81,4 0.53,1.24 1.26,2.32 2.2,3.27 0.94,0.94 2.03,1.67 3.26,2.2 1.25,0.53 2.58,0.8 4,0.81 1.43,-0.01 2.76,-0.28 4,-0.81 1.23,-0.53 2.32,-1.26 3.26,-2.2 0.94,-0.94 1.68,-2.03 2.21,-3.27 0.53,-1.24 0.79,-2.57 0.8,-4zm-8.63 -28.96l-5.93 0 -23.93 40.23 5.93 0 23.93 -40.23zm-17.63 11.28c-0.01,-1.43 -0.28,-2.76 -0.81,-4 -0.53,-1.24 -1.26,-2.32 -2.2,-3.26 -0.94,-0.94 -2.03,-1.67 -3.26,-2.2 -1.24,-0.53 -2.57,-0.8 -4,-0.81 -1.43,0.01 -2.75,0.28 -4,0.81 -1.24,0.53 -2.32,1.26 -3.27,2.2 -0.93,0.94 -1.67,2.03 -2.2,3.26 -0.53,1.24 -0.8,2.57 -0.81,4 0.01,1.42 0.28,2.75 0.81,4 0.53,1.24 1.26,2.32 2.2,3.27 0.94,0.94 2.03,1.67 3.27,2.2 1.24,0.53 2.57,0.8 4,0.81 1.43,-0.01 2.76,-0.28 4,-0.81 1.24,-0.53 2.32,-1.26 3.26,-2.2 0.94,-0.94 1.67,-2.03 2.2,-3.27 0.53,-1.24 0.8,-2.57 0.81,-4l0 0zm21.86 17.63c-0.01,1.09 -0.28,2.08 -0.8,2.96 -0.53,0.88 -1.23,1.59 -2.11,2.12 -0.89,0.52 -1.87,0.79 -2.96,0.8 -1.09,-0.01 -2.07,-0.28 -2.96,-0.8 -0.88,-0.53 -1.59,-1.24 -2.12,-2.12 -0.52,-0.88 -0.79,-1.87 -0.8,-2.96 0.01,-1.09 0.28,-2.07 0.8,-2.95 0.53,-0.89 1.24,-1.59 2.12,-2.12 0.88,-0.52 1.87,-0.79 2.96,-0.8 1.09,0.01 2.07,0.28 2.96,0.8 0.88,0.53 1.58,1.23 2.11,2.12 0.52,0.88 0.79,1.87 0.8,2.95l0 0zm-26.26 -17.68c-0.01,1.09 -0.28,2.07 -0.8,2.96 -0.53,0.88 -1.23,1.59 -2.12,2.12 -0.88,0.52 -1.86,0.79 -2.96,0.8 -1.09,-0.01 -2.07,-0.28 -2.95,-0.8 -0.88,-0.53 -1.59,-1.24 -2.12,-2.12 -0.52,-0.88 -0.79,-1.87 -0.8,-2.96 0.01,-1.09 0.28,-2.07 0.8,-2.95 0.53,-0.89 1.23,-1.59 2.12,-2.12 0.88,-0.52 1.87,-0.79 2.95,-0.8 1.09,0.01 2.08,0.28 2.96,0.8 0.89,0.53 1.59,1.23 2.12,2.12 0.52,0.88 0.79,1.86 0.8,2.95l0 0z"/>
  </g>
 </g>
</svg>
