<svg width="22" height="22" viewBox="0 0 22 22"  xmlns="http://www.w3.org/2000/svg">
<path fill-rule="evenodd" clip-rule="evenodd" d="M12.4921 10.9998L21.691 1.80113C22.103 1.38909 22.103 0.721087 21.691 0.309037C21.2789 -0.103012 20.6109 -0.103012 20.1988 0.309037L11 9.50773L1.80116 0.310443C1.38911 -0.101606 0.721098 -0.101606 0.309042 0.310443C-0.103014 0.722493 -0.103014 1.39049 0.309042 1.80254L9.50788 11.0012L0.310448 20.1985C-0.101608 20.6106 -0.101608 21.2786 0.310448 21.6906C0.51718 21.8959 0.78579 22 1.05581 22C1.32582 22 1.59584 21.8973 1.80116 21.6906L11 12.4919L20.1988 21.6906C20.4056 21.8959 20.6742 22 20.9442 22C21.2142 22 21.4842 21.8973 21.6896 21.6906C22.1016 21.2786 22.1016 20.6106 21.6896 20.1985L12.4921 10.9998Z" />
</svg>
