<?xml version="1.0" encoding="UTF-8"?>
<!DOCTYPE svg PUBLIC "-//W3C//DTD SVG 1.1//EN" "http://www.w3.org/Graphics/SVG/1.1/DTD/svg11.dtd">
<!-- Creator: CorelDRAW 2020 (64-Bit Оценочная версия) -->
<svg xmlns="http://www.w3.org/2000/svg" xml:space="preserve" width="46.7753mm" height="42.2242mm" version="1.1" style="shape-rendering:geometricPrecision; text-rendering:geometricPrecision; image-rendering:optimizeQuality; fill-rule:evenodd; clip-rule:evenodd"
viewBox="0 0 2204.8 1990.28"
 xmlns:xlink="http://www.w3.org/1999/xlink"
 xmlns:xodm="http://www.corel.com/coreldraw/odm/2003">
 <defs>
  <style type="text/css">
   <![CDATA[
    .str0 {stroke:#898778;stroke-width:9.43;stroke-miterlimit:22.9256}
    .str1 {stroke:#BD2A2C;stroke-width:9.43;stroke-miterlimit:22.9256}
    .fil21 {fill:none}
    .fil24 {fill:#FEFEFE}
    .fil27 {fill:#D9DADA}
    .fil23 {fill:#C5C6C6}
    .fil1 {fill:#727271}
    .fil5 {fill:#2B2A29}
    .fil18 {fill:#FFFBDB}
    .fil15 {fill:#898778}
    .fil16 {fill:#5B5A50}
    .fil19 {fill:#FFF383}
    .fil3 {fill:#FECC00}
    .fil2 {fill:#E31E24}
    .fil20 {fill:#FCFCFC}
    .fil25 {fill:#FAFAFA}
    .fil17 {fill:#F0B819}
    .fil11 {fill:#CE292C}
    .fil22 {fill:#748187}
    .fil0 {fill:#D4E4EC}
    .fil4 {fill:#B02D2D}
    .fil9 {fill:#4D2935}
    .fil8 {fill:#603642}
    .fil7 {fill:#92E1E7}
    .fil10 {fill:#9A6054}
    .fil6 {fill:#D6FFFF}
    .fil13 {fill:#FF9465}
    .fil12 {fill:#FFB882}
    .fil26 {fill:#BD2A2C;fill-rule:nonzero}
    .fil28 {fill:#B02D2D;fill-rule:nonzero}
    .fil14 {fill:#2B2A29;fill-opacity:0.200000}
   ]]>
  </style>
    <mask id="id0">
  <linearGradient id="id1" gradientUnits="userSpaceOnUse" x1="1055.85" y1="1209.93" x2="1201.28" y2="1867.45">
   <stop offset="0" style="stop-opacity:1; stop-color:white"/>
   <stop offset="1" style="stop-opacity:0; stop-color:white"/>
  </linearGradient>
     <rect style="fill:url(#id1)" x="916.56" y="1552.21" width="921.1" height="343.07"/>
    </mask>
    <mask id="id2">
  <linearGradient id="id3" gradientUnits="userSpaceOnUse" x1="975.5" y1="216" x2="996.17" y2="222.59">
   <stop offset="0" style="stop-opacity:1; stop-color:white"/>
   <stop offset="1" style="stop-opacity:0; stop-color:white"/>
  </linearGradient>
     <rect style="fill:url(#id3)" x="963.09" y="163.35" width="45.57" height="126.85"/>
    </mask>
    <mask id="id4">
  <linearGradient id="id5" gradientUnits="userSpaceOnUse" x1="749.17" y1="607.55" x2="780.09" y2="623.21">
   <stop offset="0" style="stop-opacity:1; stop-color:white"/>
   <stop offset="1" style="stop-opacity:0; stop-color:white"/>
  </linearGradient>
     <rect style="fill:url(#id5)" x="729.94" y="538.65" width="88.94" height="148.97"/>
    </mask>
 </defs>
 <g id="Слой_x0020_1">
  <metadata id="CorelCorpID_0Corel-Layer"/>
  <g id="_2124683252848">
   <path class="fil0" d="M557.9 325.2c26.25,0 51.54,4.2 75.28,11.96 4.87,-49.13 46.33,-87.51 96.73,-87.51 6.42,0 12.69,0.63 18.76,1.81 6.36,-14.53 13.46,-28.62 21.23,-42.23 -4.91,-8.38 -7.73,-18.13 -7.73,-28.54 0,-31.19 25.3,-56.49 56.49,-56.49 4.52,0 8.91,0.54 13.12,1.54 73.65,-77.73 174.84,-125.73 286.51,-125.73 101.61,0 194.56,39.74 265.97,105.47 11.43,-10.77 26.83,-17.37 43.78,-17.37 35.27,0 63.87,28.6 63.87,63.87 0,21.9 -11.03,41.23 -27.83,52.74 14.65,24.98 27.02,51.64 36.75,79.68 13.71,-3.55 28.09,-5.44 42.91,-5.44 29.95,0 58.09,7.73 82.56,21.28 7.9,-24.7 31.04,-42.59 58.35,-42.59 33.82,0 61.25,27.43 61.25,61.25 0,28.91 -20.04,53.15 -46.99,59.58 8.18,17.8 13.38,37.26 14.98,57.72 12.41,-5.22 26.04,-8.11 40.35,-8.11 57.54,0 104.2,46.66 104.2,104.2 0,38.8 -21.22,72.65 -52.67,90.59 10.37,18.16 16.29,39.18 16.29,61.58 0,1.1 -0.02,2.2 -0.05,3.29 26.71,2.58 47.6,25.09 47.6,52.47 0,29.11 -23.61,52.72 -52.72,52.72 -14.4,0 -27.45,-5.78 -36.97,-15.14 -7.01,6.19 -14.73,11.61 -23.02,16.11 9.72,10.92 15.64,25.31 15.64,41.07 0,34.12 -27.67,61.79 -61.79,61.79 -20.12,0 -38,-9.63 -49.28,-24.52 -36.27,44.25 -91.34,72.49 -153.01,72.49 -20.4,0 -40.07,-3.09 -58.59,-8.83 -4.51,10.77 -10.03,21 -16.46,30.58 39.42,4.2 70.15,37.58 70.15,78.12 0,43.38 -35.18,78.56 -78.56,78.56 -43.38,0 -78.57,-35.18 -78.57,-78.56 0,-3.4 0.22,-6.75 0.64,-10.04 -19.29,7.14 -40.16,11.05 -61.93,11.05 -11.53,0 -22.8,-1.11 -33.74,-3.2 -0.87,1.18 -1.74,2.34 -2.64,3.5l0.14 0c53.5,0 96.89,43.39 96.89,96.89 0,53.5 -43.39,96.89 -96.89,96.89 -53.5,0 -96.89,-43.39 -96.89,-96.89 0,-13.21 2.65,-25.8 7.44,-37.28 -8.6,2.32 -17.47,3.98 -26.55,4.91 -9.37,14.39 -21.78,26.61 -36.31,35.77 -12.09,50.76 -57.72,88.52 -112.18,88.52 -63.68,0 -115.31,-51.64 -115.31,-115.32 0,-25.73 8.43,-49.48 22.68,-68.67 -21.02,6.58 -43.46,10.14 -66.76,10.14 -14.2,0 -28.07,-1.33 -41.51,-3.86 -20.4,27.22 -52.92,44.84 -89.55,44.84 -45.68,0 -84.96,-27.4 -102.33,-66.65 -1.4,0.04 -2.79,0.07 -4.2,0.07 -68.12,0 -124.53,-50.17 -134.32,-115.57 -4,0.69 -8.08,1.05 -12.25,1.05 -3.2,0 -6.34,-0.22 -9.45,-0.63 1.01,4.04 1.55,8.27 1.55,12.62 0,28.67 -23.26,51.93 -51.93,51.93 -28.68,0 -51.93,-23.26 -51.93,-51.93 0,-26.34 19.63,-48.11 45.06,-51.48 -10.02,-15.95 -15.94,-35.62 -15.94,-56.89 0,-26.41 9.11,-50.33 23.86,-67.74 -31.9,-33.02 -55,-74.98 -65.39,-121.88 -6.05,2.39 -12.65,3.7 -19.55,3.7 -29.41,0 -53.26,-23.85 -53.26,-53.26 0,-29.41 23.85,-53.26 53.26,-53.26 5.99,0 11.75,0.99 17.12,2.81 20.25,-119.03 121.63,-209.56 243.64,-209.56zm961.27 -111.94c9.91,0 17.94,8.04 17.94,17.94 0,9.91 -8.04,17.94 -17.94,17.94 -9.91,0 -17.94,-8.04 -17.94,-17.94 0,-9.91 8.04,-17.94 17.94,-17.94zm-713.13 -166.15c8.07,0 14.62,6.55 14.62,14.62 0,8.07 -6.55,14.62 -14.62,14.62 -8.07,0 -14.62,-6.55 -14.62,-14.62 0,-8.07 6.55,-14.62 14.62,-14.62zm-345.11 215.86c12.5,0 22.64,10.14 22.64,22.63 0,12.5 -10.14,22.64 -22.64,22.64 -12.5,0 -22.63,-10.14 -22.63,-22.64 0,-12.5 10.14,-22.63 22.63,-22.63zm1360.88 -34.62c6.62,0 11.99,5.37 11.99,11.98 0,6.62 -5.37,11.99 -11.99,11.99 -6.61,0 -11.98,-5.37 -11.98,-11.99 0,-6.61 5.37,-11.98 11.98,-11.98zm61.25 157.13c12.5,0 22.64,10.14 22.64,22.63 0,12.5 -10.14,22.64 -22.64,22.64 -12.5,0 -22.63,-10.14 -22.63,-22.64 0,-12.5 10.14,-22.63 22.63,-22.63zm50.6 335.56c15.44,0 27.97,12.52 27.97,27.96 0,15.44 -12.52,27.97 -27.97,27.97 -15.44,0 -27.96,-12.52 -27.96,-27.97 0,-15.44 12.52,-27.96 27.96,-27.96z"/>
   <path class="fil1" d="M704.53 462.1c6.62,2.32 11.37,8.62 11.37,16.03 0,9.38 -7.6,16.98 -16.98,16.98 -9.38,0 -16.98,-7.6 -16.98,-16.98l0.02 -0.74c-7.25,-2.17 -12.54,-8.89 -12.54,-16.85 0,-9.71 7.88,-17.59 17.59,-17.59 9.71,0 17.59,7.88 17.59,17.59 0,0.53 -0.02,1.05 -0.07,1.56zm-85.82 -23.77c10.18,0 18.44,8.26 18.44,18.44 0,10.18 -8.26,18.44 -18.44,18.44 -10.18,0 -18.44,-8.26 -18.44,-18.44 0,-10.18 8.26,-18.44 18.44,-18.44zm33.81 0c6.79,0 12.29,5.51 12.29,12.29l-0.04 0.97c2.88,2.91 4.65,6.91 4.65,11.33 0,8.91 -7.23,16.13 -16.13,16.13 -8.91,0 -16.13,-7.23 -16.13,-16.13 0,-3.69 1.24,-7.09 3.32,-9.81 -0.16,-0.8 -0.25,-1.64 -0.25,-2.48 0,-6.79 5.51,-12.29 12.29,-12.29zm313.47 -22.28c11.88,0 21.51,9.63 21.51,21.51 0,11.88 -9.63,21.51 -21.51,21.51 -6.99,0 -13.19,-3.33 -17.12,-8.5 -2.92,4.64 -8.1,7.73 -13.99,7.73 -6.13,0 -11.49,-3.35 -14.34,-8.31 -4.63,4.21 -10.79,6.77 -17.54,6.77 -6.31,0 -12.1,-2.24 -16.62,-5.97 -1.25,3.49 -4.11,6.2 -7.7,7.24 2.77,5.1 4.34,10.95 4.34,17.17 0,19.94 -16.17,36.11 -36.11,36.11 -14.52,0 -27.04,-8.58 -32.77,-20.94 -1.22,0.13 -2.46,0.2 -3.72,0.2 -15.28,0 -28.22,-10.02 -32.6,-23.85 -4.66,4.3 -10.88,6.94 -17.73,6.94 -4.85,0 -9.38,-1.32 -13.27,-3.62 -3.1,3.63 -7.71,5.92 -12.85,5.92 -9.33,0 -16.9,-7.57 -16.9,-16.9 0,-9.33 7.57,-16.9 16.9,-16.9l0.56 0.01c2.48,-11.85 12.98,-20.75 25.57,-20.75 10.1,0 18.87,5.74 23.21,14.13 6.25,-8.12 16.07,-13.36 27.11,-13.36 12.83,0 24,7.07 29.85,17.52 2.15,-0.4 4.37,-0.61 6.64,-0.61 6.3,0 12.23,1.62 17.39,4.46l0.14 -0.45c-1.83,-2.21 -2.93,-5.04 -2.93,-8.14 0,-7.05 5.72,-12.77 12.77,-12.77 1.32,0 2.6,0.2 3.8,0.58 3.34,-10.58 13.24,-18.25 24.92,-18.25 12.99,0 23.77,9.49 25.78,21.91 1.89,-0.75 3.95,-1.16 6.1,-1.16 4.29,0 8.2,1.64 11.14,4.32 3.17,-7.93 10.92,-13.54 19.98,-13.54z"/>
   <g>
    <path class="fil2" d="M1691.53 1283.84c-41.06,-53.03 -6.84,-106.07 25.67,-172.8 32.5,-66.73 0,-107.79 0,-107.79 0,0 37.64,53.04 34.22,85.54 -3.42,32.51 -10.27,46.2 -10.27,46.2 0,0 25.67,-22.24 34.22,-39.35 8.56,-17.11 18.82,1.71 5.13,34.22 -13.68,32.5 -34.22,70.14 -17.11,68.43 17.11,-1.71 34.22,-3.42 25.66,-35.93 -8.56,-32.5 15.4,-32.5 15.4,-32.5 0,0 -15.4,15.39 6.84,34.22 22.24,18.82 41.06,188.19 -119.76,119.76z"/>
    <path class="fil3" d="M1705.14 1309.25c-36.62,-28.1 2.98,-89.41 2.98,-89.41 0,0 -11.5,25.97 -5.54,40.87 5.96,14.9 34.91,46.83 2.55,48.54z"/>
    <path class="fil3" d="M1749.42 1306.7c-21.29,-19.16 25.12,-39.17 27.67,-54.07 2.55,-14.9 2.13,-14.9 2.13,-14.9 0,0 16.18,9.79 7.66,25.55 -8.52,15.75 -24.27,17.03 -13.2,32.36 11.07,15.32 -14.9,24.69 -24.27,11.07z"/>
    <path class="fil3" d="M1723.02 1313.08c26.82,18.31 59.51,11.96 75.36,-15.75 15.84,-27.72 7.66,-40.45 7.66,-40.45 0,0 2.04,25.43 -8.21,31.39 -10.25,5.95 -49.7,0.97 -54.8,-9.67 -5.11,-10.64 -2.55,-21.29 -2.55,-21.29 0,0 -9.79,1.71 -10.64,21.72 -0.85,20.01 5.11,30.23 -6.81,34.06z"/>
    <path class="fil1" d="M1746.28 910.88c5.67,0 10.27,4.6 10.27,10.27 0,5.67 -4.6,10.27 -10.27,10.27 -5.67,0 -10.27,-4.6 -10.27,-10.27 0,-5.67 4.6,-10.27 10.27,-10.27zm43.62 -280.58c8.98,0 16.26,7.28 16.26,16.25 0,8.97 -7.28,16.25 -16.26,16.25 -5.49,0 -10.34,-2.72 -13.28,-6.89 -3.8,3.94 -8.23,7.27 -13.14,9.81 -2.11,7.36 -7.43,13.36 -14.36,16.38 -4.46,2.56 -9.63,4.02 -15.14,4.02l-0.16 -0c0.1,0.6 0.16,1.22 0.16,1.85 0,5.95 -4.83,10.78 -10.78,10.78 -5.95,0 -10.78,-4.83 -10.78,-10.78 0,-3.09 1.3,-5.88 3.39,-7.85 -7.48,-5.56 -12.32,-14.45 -12.32,-24.48l0 -0.2c-8.48,-9.03 -13.69,-21.19 -13.69,-34.56 0,-23.66 16.3,-43.53 38.28,-48.98 -0.83,-2.17 -1.55,-4.39 -2.13,-6.67 -17.76,-0.82 -32.83,-10.9 -39.42,-25.02 -1.85,0.92 -3.83,1.64 -5.89,2.12 7.98,8.82 12.84,20.51 12.84,33.34 0,27.47 -22.27,49.74 -49.74,49.74 -21.08,0 -39.1,-13.12 -46.34,-31.64 -7.78,10.49 -18.95,17.07 -31.36,17.07 -23.49,0 -42.54,-23.54 -42.54,-52.58 0,-6.32 0.91,-12.37 2.56,-17.99 -0.93,-0.29 -1.84,-0.59 -2.74,-0.91 -6,15.7 -21.2,26.84 -39,26.84 -23.05,0 -41.74,-18.69 -41.74,-41.74 0,-4.05 0.58,-7.97 1.66,-11.67 -10.64,-4.69 -20.08,-10.79 -27.86,-18 -2.31,0.36 -4.68,0.56 -7.09,0.56 -24.61,0 -44.62,-19.77 -45.01,-44.29 -6.79,-1.68 -12.96,-4.92 -18.11,-9.32 -5.34,6.49 -13.42,10.62 -22.48,10.62 -5.94,0 -11.46,-1.78 -16.07,-4.84 0.06,0.91 0.09,1.84 0.09,2.77 0,6.86 -1.67,13.33 -4.62,19.02 9.04,3.43 15.46,12.17 15.46,22.4 0,13.23 -10.73,23.95 -23.95,23.95 -13.23,0 -23.95,-10.72 -23.95,-23.95l0 -0.23c-1.43,0.15 -2.88,0.23 -4.36,0.23 -5.92,0 -11.55,-1.25 -16.64,-3.48 1.39,2.44 2.18,5.26 2.18,8.27 0,9.26 -7.51,16.77 -16.77,16.77 -9.26,0 -16.77,-7.51 -16.77,-16.77 0,-6.28 3.46,-11.76 8.58,-14.63 -0.9,-0.93 -1.72,-1.94 -2.44,-3.02 -1.95,0.58 -4.01,0.89 -6.14,0.89 -0.92,0 -1.83,-0.06 -2.72,-0.17l-0.04 -0c-0.53,-0.07 -1.06,-0.16 -1.58,-0.26l-0.01 0 -0.47 -0.1 -0.05 -0.01 0 0c-0.87,-0.2 -1.72,-0.46 -2.55,-0.75l-0.13 -0.05 -0.36 -0.14c-0.46,-0.18 -0.91,-0.38 -1.36,-0.59l-0.08 -0.04c-0.46,-0.23 -0.92,-0.46 -1.37,-0.72l-0.01 -0 -0.18 -0.11 -0.26 -0.16 -0.13 -0.08 -0.31 -0.19 -0.43 -0.29 -0.03 -0.02 -0.75 -0.54 -0.06 -0.04 -0.31 -0.24 -0.1 -0.08c-0.26,-0.21 -0.53,-0.42 -0.78,-0.64l-0.02 -0.02 -0.17 -0.15 -0.22 -0.2c-0.26,-0.23 -0.5,-0.47 -0.75,-0.71l-0.04 -0.04 -0.32 -0.33 0 -0 -0.35 -0.38 -0.27 -0.3 -0.08 -0.09 -0.22 -0.26 -0.11 -0.13 -0.18 -0.23 -0.14 -0.17 -0.02 -0.02 -0.29 -0.39 -0.01 -0.01 -0.1 -0.14 -0.2 -0.27 -0.25 -0.36 -0.05 -0.07 -0.04 -0.05 -0.25 -0.38 -0.01 -0.01 -0.27 -0.43 -0.22 -0.36 -0.05 -0.08 -0.18 -0.32 -0.08 -0.14 -0.02 -0.05c-0.33,-0.59 -0.62,-1.21 -0.88,-1.84l-0.03 -0.08 -0.17 -0.41 -0.01 -0.02 -0.16 -0.44 -0.01 -0.03 -0 -0.02 -0.17 -0.48 -0.12 -0.36 -0.04 -0.14 -0.01 -0.02c-0.1,-0.32 -0.19,-0.64 -0.27,-0.96l-0.01 -0.03 -0.05 -0.21 -0.08 -0.32 -0.03 -0.15 -0.08 -0.37 -0.02 -0.1 -0.08 -0.43 -0.01 -0.04 -0.33 0c-4.87,0 -9.43,-1.38 -13.29,-3.76 -15.74,-3.82 -27.44,-18.01 -27.44,-34.92 0,-19.84 16.09,-35.93 35.93,-35.93 19.84,0 35.93,16.09 35.93,35.93 0,5.11 -1.07,9.97 -3,14.38l0.33 0.11 0.08 0.03 0.41 0.14 0.02 0 0.38 0.15 0.4 0.16 0.15 0.06c5.14,-17.03 20.95,-29.44 39.66,-29.44 11.03,0 21.05,4.31 28.47,11.34 1.54,-14.62 13.9,-26.01 28.93,-26.01 2.99,0 5.88,0.45 8.59,1.29 5.37,-18.53 22.47,-32.09 42.73,-32.09 6.08,0 11.88,1.22 17.16,3.43l0.81 -0.01c14.29,0 26.24,10.02 29.22,23.41 0.8,-0.63 1.62,-1.24 2.44,-1.84 0.55,-23.34 19.65,-42.1 43.12,-42.1 12.92,0 24.52,5.69 32.42,14.7 0.9,-6.71 3.96,-12.73 8.46,-17.36 -1.22,-3.06 -1.89,-6.4 -1.89,-9.9 0,-14.8 12,-26.79 26.79,-26.79 14.79,0 26.79,12 26.79,26.79 0,5.21 -1.49,10.08 -4.07,14.19 1.79,2.65 3.18,5.6 4.07,8.76 1.3,-0.08 2.61,-0.13 3.93,-0.13 33.14,0 60.1,26.47 60.91,59.41 2.81,-3.58 5.99,-6.86 9.47,-9.79 -1.91,-3.46 -3,-7.45 -3,-11.69 0,-13.39 10.86,-24.25 24.25,-24.25 4.96,0 9.57,1.49 13.41,4.04 0.41,-9.26 7.61,-16.77 16.74,-17.64 -5.96,-3.8 -9.92,-10.46 -9.92,-18.05 0,-11.81 9.58,-21.39 21.39,-21.39 11.81,0 21.39,9.58 21.39,21.39 0,11.47 -9.03,20.82 -20.36,21.36 1.97,1.39 3.65,3.15 4.95,5.19 16.5,0.68 29.66,13.2 29.66,28.53 0,7.1 -2.83,13.6 -7.49,18.6 2.8,3.07 5.31,6.41 7.49,9.96 7.76,-18.48 26.04,-31.46 47.34,-31.46 2.35,0 4.67,0.16 6.93,0.46 1.53,-26.97 23.89,-48.37 51.24,-48.37 28.34,0 51.33,22.98 51.33,51.33 0,13.68 -5.35,26.11 -14.08,35.31 3.03,3.03 5.77,6.34 8.18,9.9 2.35,-9.22 8.89,-16.76 17.48,-20.47 -1.95,-4.73 -3.03,-9.9 -3.03,-15.33 0,-22.2 18.01,-40.21 40.2,-40.21 22.21,0 40.21,18.01 40.21,40.21 0,20.41 -15.22,37.28 -34.94,39.86 0.13,1.15 0.2,2.32 0.2,3.51 0,1.34 -0.09,2.66 -0.25,3.95 5.98,-2.55 12.56,-3.96 19.47,-3.96 4.75,0 9.33,0.67 13.68,1.91 -0.33,-2.35 -0.5,-4.76 -0.5,-7.2 0,-5.86 0.99,-11.51 2.79,-16.76 0.96,-5.16 3.43,-9.79 6.94,-13.4 9.38,-13.01 24.66,-21.48 41.92,-21.48 28.52,0 51.64,23.12 51.64,51.64 0,28.52 -23.12,51.65 -51.64,51.65 -5.37,0 -10.54,-0.82 -15.41,-2.34 0.21,1.88 0.33,3.8 0.33,5.74 0,27.47 -22.28,49.74 -49.75,49.74 -8.72,0 -16.92,-2.25 -24.05,-6.19 -7.81,9.05 -18.41,15.63 -30.45,18.42 -5.95,24.29 -27.87,42.31 -53.98,42.31 -9.63,0 -18.69,-2.45 -26.59,-6.76 -10.13,9.76 -23.59,16.08 -38.5,17.1 0.59,3.09 0.91,6.29 0.91,9.55 0,3.21 -0.3,6.36 -0.88,9.41l0.02 0zm-54.74 97.52c6.14,0 11.12,4.98 11.12,11.12 0,2.23 -0.66,4.31 -1.79,6.05 0.59,-0.04 1.19,-0.06 1.79,-0.06 0.61,0 1.22,0.02 1.82,0.07 1.27,-14.42 13.37,-25.73 28.12,-25.73 15.59,0 28.23,12.64 28.23,28.23 0,15.59 -12.64,28.23 -28.23,28.23 -0.93,0 -1.85,-0.05 -2.76,-0.14 -0.81,6.77 -4.1,12.78 -8.92,17.11 2.46,2.25 4.32,5.12 5.34,8.38 4.25,-5.11 10.66,-8.38 17.83,-8.38 12.79,0 23.17,10.37 23.17,23.17 0,12.79 -10.37,23.16 -23.17,23.16 -11.22,0 -20.59,-7.99 -22.71,-18.6 -3.44,3.36 -8.14,5.42 -13.32,5.42 -2.8,0 -5.45,-0.6 -7.84,-1.68 0.04,0.56 0.06,1.12 0.06,1.68 0,12.56 -10.19,22.75 -22.75,22.75 -12.57,0 -22.76,-10.19 -22.76,-22.75 0,-12.57 10.19,-22.76 22.76,-22.76 4.18,0 8.1,1.13 11.47,3.1 0.09,-3.23 1,-6.26 2.51,-8.9 -9.55,-4.28 -16.21,-13.86 -16.21,-25 0,-9.6 4.94,-18.04 12.41,-22.92 -4.25,-1.56 -7.28,-5.65 -7.28,-10.44 0,-6.14 4.98,-11.12 11.12,-11.12zm-49.62 -5.13c8.98,0 16.26,7.28 16.26,16.25 0,8.97 -7.28,16.25 -16.26,16.25 -8.97,0 -16.25,-7.28 -16.25,-16.25 0,-8.97 7.27,-16.25 16.25,-16.25zm504.71 -282.29c8.03,0 14.54,6.51 14.54,14.54 0,8.03 -6.51,14.54 -14.54,14.54 -8.03,0 -14.55,-6.51 -14.55,-14.54 0,-8.03 6.51,-14.54 14.55,-14.54zm-48.76 -6.84c14.17,0 25.67,11.49 25.67,25.66 0,14.17 -11.5,25.67 -25.67,25.67 -14.17,0 -25.66,-11.5 -25.66,-25.67 0,-14.17 11.49,-25.66 25.66,-25.66zm-378.1 564.58c6.61,0 11.97,5.36 11.97,11.98 0,6.61 -5.36,11.98 -11.97,11.98 -6.61,0 -11.98,-5.36 -11.98,-11.98 0,-6.61 5.36,-11.98 11.98,-11.98zm8.56 -314.8c8.5,0 15.39,6.9 15.39,15.39 0,8.5 -6.9,15.4 -15.39,15.4 -8.5,0 -15.4,-6.9 -15.4,-15.4 0,-8.5 6.9,-15.39 15.4,-15.39zm-17.11 159.11c7.56,0 13.69,6.13 13.69,13.69 0,7.56 -6.13,13.69 -13.69,13.69 -7.56,0 -13.69,-6.13 -13.69,-13.69 0,-7.56 6.13,-13.69 13.69,-13.69zm11.98 53.04c3.78,0 6.84,3.06 6.84,6.84 0,3.78 -3.06,6.84 -6.84,6.84 -3.78,0 -6.84,-3.06 -6.84,-6.84 0,-3.78 3.06,-6.84 6.84,-6.84zm-7.7 66.73c3.31,0 5.99,2.68 5.99,5.99 0,3.31 -2.68,5.99 -5.99,5.99 -3.3,0 -5.99,-2.68 -5.99,-5.99 0,-3.3 2.68,-5.99 5.99,-5.99z"/>
   </g>
   <path class="fil4" d="M594.07 1214.76l7.58 0c-5.02,-6.86 -9.41,-10.39 -15.17,-2.53 6.67,3.3 -2.08,2.53 7.58,2.53zm-114.25 390.3l-92.54 95.84 160.08 57.88 -129.3 60.34 155.16 51.72 182.25 -57.87 -14.78 100.97 -108.37 61.57 145.31 14.78 121.91 -103.44 178.56 -86.2 65.26 67.73 213.03 38.17c0,0 120.68,-28.32 113.29,-48.02 -7.39,-19.7 -103.44,-156.39 -103.44,-156.39l65.26 7.39 124.44 43.99c0,0 206.95,-22.17 224.2,-12.32 17.25,9.86 73.91,66.52 73.91,66.52l-16.85 -191.66 46.77 15.59 138.38 -100.14 -47.63 -109.52 47.63 -132.29 0 -24.36 -25.77 5.99c-10.55,-19.29 -31.34,-10.86 -45.01,-31.27l4.93 -2.74c-2.2,-10.78 2.88,-18.51 -15.04,-20l-2.84 -10.02 23.9 -11.14 -1.39 -2.7 -39.9 18.8c-8.82,-2.06 -8.51,-5.06 -17.69,-5.06l-15.16 0 0 7.58 -22.74 10.13c-7.69,-5.17 -15.18,-17.87 -15.18,-30.36 0,-7.16 20.98,-19.42 25.28,-25.28l-26.92 12.01c-8.44,12.38 -72.08,49.78 -89.36,61.3 -23.8,15.87 -64.83,47.75 -98.59,50.56l31.68 -17.8 -1.35 -2.42c-4.78,-7.14 -13.55,-15.17 -25.28,-15.17l-5.05 0c-21.05,0 -34.36,5.41 -48.03,12.64 -1.29,-1.92 -167.48,-163.88 -171.9,-166.84 -4.5,9.74 10.55,18.25 19.56,28.47 1.44,1.64 25.95,25.43 26.94,26.15 4.79,3.49 49.9,48.28 52.09,51.55 15.95,10.68 56.01,48.22 60.67,68.25l-7.58 2.53c-6.46,9.65 -13.65,14.15 -21.76,26.27 -7.49,11.19 -7.39,29.35 -16.16,29.35l-7.58 0c-6.08,0 -7.43,-4.1 -12.64,-7.58l-49.85 -48.63 1.81 -1.92 10.11 0c6.83,0 6.97,-1.21 12.64,-2.53 -10.06,-19.01 -30.88,-44.63 -53.09,-50.56l0 20.23 -34.73 -23.65 23.52 32.67 -19.08 3.84c4.85,18.12 29.54,39.39 45.46,47.81l-2.53 10.12 0 7.58 -45.72 -11.93c-3.09,5.96 -2.31,-2.79 -2.31,6.88 0,6.82 20.47,5.46 27.81,10.11l-7.96 3.99 10.49 1.07 0 2.53 -10.12 0 -2.53 5.06 -35.39 -2.53 -5.06 -5.05 3.1 -12.53 -10.68 -0.11c-14.36,-3.83 -21.48,-26.64 -25.28,-15.17l-10.11 -2.53 -10.2 -0.85c3.15,5.42 5.15,5.3 5.15,10.96l0 12.64c-32.82,0 -68.6,7.58 -111.23,7.58 -38.85,0 -75.92,0 -113.75,0l70.78 -146.62 14.33 -24.41c5.5,1.05 18.35,15.47 32.85,22.73 15.72,7.89 25.51,8.72 41.57,14.04 16.29,5.39 28.75,6.31 44.43,13.71 12.56,5.93 25.33,19.73 33.66,21.95 5.34,-11.12 45.5,-88.67 45.5,-93.54 0,-16.06 -55.8,-33.24 -73.31,-37.92 -46.74,-12.49 -39.97,-13.07 -73.31,-35.39l15.1 -40.47c-12.29,9.08 -6.92,23.62 -22.68,27.83 0,27.19 -50.82,94.98 -58.14,126.39 -14.46,16.63 -71.5,149.15 -83.42,149.15l-12.64 0 0 -45.5c0,-19.9 28.65,-133.15 37.92,-136.51l7.98 -65.67 -22.59 58.29c2.34,12.23 -13.5,79.33 -20.78,90.8l0 -111.23 5.05 0 -5.11 -70.78 -2.47 -0 -7 70.85 4.47 -0.07c0,54.41 1.82,171.48 -17.69,202.24 0,-27.18 -15.17,-41.84 -15.17,-48.03l0 -108.7 10.11 0 15.25 0.33 0 -5.7 -15.22 -0.43 -10.13 0.76 0 -30.34c0,-7.91 6.58,-15.17 -5.06,-15.17 -7.95,0 -2.53,9.1 -2.53,15.17l0 30.34 -15.17 0c-9.01,0 -8.91,-6.85 -10.11,7.58 7.91,-0.66 8.98,-2.53 17.69,-2.53l7.58 0 0 103.65c-6.6,-4.42 -22.9,-15.17 -32.86,-15.17l-25.28 0c-9.96,0 -26.26,10.75 -32.86,15.17l-5.06 0 -4.55 -5.56 4.55 10.62c-11.95,17.85 -17.69,22.55 -17.69,53.08 -8.29,-0.69 -10.37,-3.77 -17.69,-2.53l-20.23 2.53 -2.53 -2.53c-3.05,-4.56 -5.06,-4.44 -5.06,-10.11l0 -7.58 30.14 -6.03 0.2 -9.14 -35.25 10.56 -2.88 -18.1 -4.84 -0.04 5.24 20.16 -68.25 18.43 8.07 -144.73 -0.68 -25.32c10.18,2.72 10.14,7.58 25.28,7.58l7.58 0c33.15,0 87.39,-80.89 121.34,-80.89l20.23 0c6.83,0 6.97,1.21 12.64,2.53 -10.29,-15.37 -45.07,-55.62 -68.25,-55.62l-10.12 0c-25.57,0 -44.21,17.69 -60.67,17.69l-5.06 0c-13.09,0 -27.34,-11.97 -32.86,-20.22l2.42 -10.68 -12.22 3.04 2.22 17.75 -15.25 283.13 0.09 7.59 -50.13 12.02 -1.94 -2.08 12.04 -103.42 19.71 1.31 0.36 -3.6 -20.53 -2.44c3,-13.07 8.65,-32.8 -2.48,-35.77l0 12.64 -2.83 22.71 -19.92 -2.48 0 5.06 17.7 0 -10.12 103.65c-6.59,4.18 -14.84,2.53 -25.55,2.52l2.8 -22.74 12.64 -96.06c-2.9,-3.96 -0.46,-5.06 -7.58,-5.06 -14.18,0 -27,14 -32.86,22.75l-8.83 15.91 3.77 -18.44c4.53,-19.44 9.13,-36.68 14.16,-56.62 4.28,-16.94 5.28,-42.45 18.71,-49.55l7.51 -68.26c-16.32,23.61 -30.43,101.1 -38.89,138 -6.52,28.46 -27.39,124.67 -36.87,142.61l-80.87 3.11c-3.03,-36.62 -43,-45.89 -43,-78.94 0,-32.94 17.69,-20.02 17.69,-32.86 0,-0.34 -2.48,-5.01 -2.53,-5.06l-166.29 54.85c14.47,-30.16 114.08,-126.05 115.73,-145.85l-5.06 0c-2.92,10.95 -113.65,136.51 -118.82,136.51 -1.69,0 -9.43,-7.96 -12.64,-10.11l7.58 -73.31 2.53 -15.17 -7.58 0 0 15.17c0,14.82 0.9,41.65 -12.64,35.39l-17.21 8.48 -11.88 -28.13 -6.3 -0.57 5.41 15.01 -57.92 -38.6 48.1 53.32 10.69 2.99 -1.23 2.67 -7.58 0 2.39 7.64 5.19 -0.05 0 -5.06 1.58 -2.22 18.64 14.86 0 5.05c-45.83,-3.81 -101.12,-48.03 -156.73,-48.03 -11.35,0 -97.38,31.93 -108.7,37.92l14.03 -57.81 6.02 -3.33 8.53 -62.62 -23.19 55.63c5.04,22.96 -20.79,83.48 -23.09,111.11l-5.05 0 -12.64 10.11 -23.16 -29.36 -3.88 2.64 19.67 31.64 -5.27 2.66 -9.97 3.08 2.39 7.03 5.05 0c4.66,-12.49 -5.17,2.12 5.06,-7.58l6.77 -2.05 8.94 15.23 -8.15 6.49 -37.89 3.08 -10.11 2.53 0 6.91 144.08 141.55 -28.16 81.36 112.65 12.52 209.67 -12.52 41.58 39.13zm104.14 -337.21l-7.52 -2.88 2.46 7.94 12.64 0 -7.58 -5.05zm60.67 -108.7l-3.03 -3.03 -4.97 5.98 2.95 2.11 10.11 7.58c-0.91,-10.87 0.36,-4.55 -5.06,-12.64zm535.93 146.62l-13.99 13.96 13.56 -9.37 0.44 -4.59 22.75 -25.28c2.85,-1.91 10.11,-5.93 10.11,-10.11 0,-0.34 -2.48,-5.01 -2.53,-5.05 -7.33,4.91 -7.8,5.23 -10.11,15.16l-19.36 20.96 -0.86 4.32zm-262.91 -73.31l19.24 16.37 -14.18 -18.89 -9.55 -10.67c-4.06,6.79 -3.09,-0.08 -3.09,5.61 0,3.47 5.27,6.04 7.58,7.58zm680.02 -58.14c0,7.12 1.09,4.68 5.05,7.58l0 -15.17 -5.05 0 0 7.58zm-315.99 88.48l5.05 0 0 -15.17 -5.05 0 0 15.17zm700.59 -82.76l-0.35 4.39c11.76,-0.98 11.6,-0.59 12.28,-10.78l-11.93 6.39zm-450.33 39.78l-0.51 -4.55 -4.55 -5.56 -4.92 -2.75 -2.24 3.17 7.59 9.3 4.63 0.39zm-1201.66 0.56l4.86 7.71 -4.86 -7.71zm1140.99 95.51c2.94,-3.38 7.58,-6.49 7.58,-12.64l1.65 -19.37 48.91 47.18 2.11 7.19 -60.25 -12.25 0 -10.11zm-2.53 17.69l22.75 2.53 0 5.06 -22.75 0 0 -7.58zm-149.15 2.53l22.75 -2.53 10.12 0 0 5.05 -32.86 0 0 -2.53zm-515.7 -2.53l12.64 0 0 5.05 -12.64 0 0 -5.05zm-123.33 -15.06l1.98 -0.1 0 17.69 -5.27 -0.04 3.29 -17.55zm409.42 -5.09l2.1 -0.08 0 20.23 -5.49 -0.08 3.39 -20.08zm517.42 17.54l-17.99 -0.89 21.28 -14.11 -3.29 15zm-1167.53 -12.56l4.69 0.3 4.55 8.41 -9.24 -8.71 -41.01 -34.73 28.11 -9.08 0.27 16.01c0,14.1 9.69,16.78 12.64,27.81zm1319.28 -68.73l12.41 33.57 -50.59 -8.69 38.18 -24.88zm-1693.41 48.51l-5.41 17.58 -10.32 -9.43 3.09 -3.09 7.59 -5.05 5.05 0zm320.16 -12.14l26.66 47.25 29.77 -2.96 -56.43 -44.28zm-55.61 -65.67l4.86 7.71 -4.86 -7.71zm998.16 51.26l15.82 9.75 -8.24 -17.33 -7.58 7.58z"/>
   <path class="fil5" style="mask:url(#id0)" d="M1602.03 1556.92c127.51,0 230.91,24.02 230.91,53.64 0,29.62 -103.4,53.64 -230.91,53.64 -31.18,0 -60.9,-1.44 -88.04,-4.04l34.09 222.71 -598.56 7.71 -28.26 -326.25 120.01 11.64c0,0 170.27,137.35 221.65,145.06 51.38,7.71 108.19,-110.46 108.19,-110.46 0,-29.62 103.4,-53.64 230.91,-53.64z"/>
   <g>
    <polygon class="fil6" points="691.71,1572.04 571.47,1113.86 610.86,1101.42 766.35,1547.16 749.76,1613.5 "/>
    <path class="fil3" d="M539.68 932.18c12.56,0 22.74,9.84 22.74,21.97 0,12.13 -10.19,21.97 -22.74,21.97 -12.56,0 -22.74,-9.84 -22.74,-21.97 0,-12.13 10.18,-21.97 22.74,-21.97z"/>
    <path class="fil3" d="M531.66 1110.24c8.99,0 16.28,6.71 16.28,14.99 0,8.28 -7.29,14.99 -16.28,14.99 -8.99,0 -16.28,-6.71 -16.28,-14.99 0,-8.28 7.29,-14.99 16.28,-14.99z"/>
    <path class="fil3" d="M638.4 1075.61c8.56,0 15.51,7.29 15.51,16.29 0,8.99 -6.94,16.28 -15.51,16.28 -8.56,0 -15.51,-7.29 -15.51,-16.28 0,-8.99 6.94,-16.29 15.51,-16.29z"/>
    <polygon class="fil3" points="531.66,1125.23 531.66,1110.24 633.72,1076.37 638.4,1091.9 610.86,1101.42 571.47,1113.86 "/>
    <polygon class="fil3" points="539.68,976.12 567.58,1098.33 602.01,1086.9 555.75,969.69 "/>
    <polygon class="fil7" points="749.76,1613.5 591.16,1107.64 571.47,1113.86 691.71,1572.04 "/>
   </g>
   <g>
    <path class="fil8" d="M1435.31 1598.04c-64.09,-12.82 -109.44,-117.33 -66.06,-275.09 43.38,-157.76 114.38,-209.03 184.38,-195.22 70.01,13.8 141.98,123.25 86.77,276.07 -55.21,152.83 -113.39,207.06 -205.08,194.24z"/>
    <path class="fil9" d="M1377.63 1353.87c1.85,-8.66 4.01,-17.52 6.5,-26.58 38.66,-140.6 101.93,-186.29 164.32,-173.99 61.54,12.14 124.78,107.21 79.25,240.52 -28.22,-141.09 -78.12,-158.58 -109.58,-157.63 -24.81,0.75 -74.27,0.96 -140.5,117.68z"/>
    <path class="fil9" d="M1455.17 1449.21c26.58,-38.88 42.32,-58.07 53.15,-98.91 10.83,-40.84 6.89,-88.08 6.89,-88.08l-24.6 -0.49c0,0 14.76,53.14 1.97,91.52 -12.8,38.38 -45.27,94.48 -45.27,94.48l7.87 1.48z"/>
    <path class="fil9" d="M1505.81 1453.61c26.58,-38.88 42.32,-58.07 53.15,-98.91 10.83,-40.84 6.89,-88.08 6.89,-88.08l-24.6 -0.49c0,0 14.76,53.15 1.97,91.53 -12.8,38.38 -45.27,94.48 -45.27,94.48l7.87 1.48z"/>
    <path class="fil10" d="M1490.6 1261.72l24.6 0.49c0,0 -41.33,60.53 -53.64,116.13 -12.3,55.6 -6.4,70.86 -6.4,70.86l-7.87 -1.48c0,0 -22.14,-116.62 43.3,-186.01z"/>
    <path class="fil10" d="M1543.08 1264.43l24.6 0.49c0,0 -41.33,60.53 -53.64,116.13 -12.3,55.61 -6.4,70.86 -6.4,70.86l-7.88 -1.48c0,0 -22.14,-116.62 43.3,-186.01z"/>
   </g>
   <path class="fil2" d="M1059.64 114.65c14.44,-32.3 22.42,-63.73 14.94,-74.52 -7.49,-10.78 -28.46,12.28 -31.45,17.68 -3,5.39 -15.58,-5.69 -27.56,3.29 -11.98,8.98 -10.19,47.93 -9.29,50.62 0.9,2.7 -10.78,-0.3 -23.07,23.96 -12.28,24.27 -6.34,49.08 -12.95,59.9 -6.61,10.82 -27.04,37.26 -25.24,75.12 1.81,37.86 7.21,52.88 -1.8,69.11 -9.02,16.22 -9.02,16.22 -9.02,16.22 0,0 15.63,-8.41 21.04,-18.63 5.41,-10.22 6.61,6.61 3,18.03 -3.61,11.42 -14.42,18.63 -14.42,18.63l21.04 -6.01c0,0 3.61,9.62 3.61,19.83 0,10.22 -9.62,28.25 -9.62,28.25 0,0 24.37,-17.52 24.28,-32.41 -0.08,-14.89 76.51,-269.08 76.51,-269.08z"/>
   <path class="fil11" d="M1093.44 127.3c-9.29,-17.97 8.39,-49.13 4.5,-60.21 -3.9,-11.09 -16.74,-3.29 -24.25,8.99 -7.5,12.28 -15.22,42.45 -15.22,42.45l2.94 1.57c0,0 9.31,-22.38 17.08,-25.56 7.77,-3.18 4.47,10 5.67,19.59 1.2,9.58 9.29,13.18 9.29,13.18z"/>
   <path class="fil12" d="M729.88 1591.6c-19.23,-9.01 -28.84,6.01 -27.64,9.01 1.2,3.01 131,2.4 131,2.4 0,0 3.01,-18.63 0.6,-22.23 -2.4,-3.61 187.29,-401.43 208.96,-430.32 21.67,-28.89 58.99,-22.87 77.04,-8.43 18.06,14.45 167.32,279.27 167.32,279.27 0,0 90.54,154.07 92.34,160.68 1.81,6.61 -6.61,15.03 -1.8,19.23 4.81,4.2 28.24,0 28.24,0l76.32 -1.2c0,0 1.8,-13.22 -6.61,-12.02 -8.41,1.2 -24.04,4.21 -24.04,4.21l-57.09 -14.42c0,0 -185.55,-487.56 -185.55,-533.34 0,-45.77 12.04,-57.82 26.5,-103.6 14.46,-45.78 40.96,-86.73 40.96,-86.73l158.79 216.91 27.68 43.34c0,0 0,31.29 -3.61,48.15 -3.61,16.85 20.47,18.05 36.11,22.87 15.65,4.81 33.71,-16.85 21.67,-22.87 -12.04,-6.02 -13.24,-36.12 -1.2,-37.32 12.04,-1.2 45.74,0 66.21,20.46 20.46,20.47 28.89,27.69 28.89,27.69 0,0 24.07,-19.26 4.81,-34.91 -19.26,-15.65 -31.3,-39.72 -44.54,-46.95 -13.24,-7.22 -46.94,-28.89 -46.94,-28.89 0,0 -45.75,-155.28 -67.41,-251.58 -21.66,-96.3 -102.32,-270.84 -134.82,-309.36 -32.5,-38.52 -143.25,-58.98 -152.88,-66.21 -9.63,-7.22 -44.54,-48.15 -46.95,-69.82 -2.41,-21.66 12.04,-132.41 -10.83,-150.47 -22.87,-18.06 -104.73,-25.28 -122.78,-1.2 -18.05,24.07 -2.4,146.86 -6.02,178.15 -3.61,31.3 -37.31,67.41 -50.55,72.22 -13.25,4.82 -101.12,40.93 -158.9,105.93 -57.78,65 -94.24,228.43 -111.11,276.61 -16.87,48.19 -27.32,90.53 -39.36,104.98 -12.03,14.44 -37.31,24.07 -37.31,24.07 0,0 -36.12,1.21 -55.38,15.65 -19.26,14.45 6.02,24.08 6.02,24.08 0,0 -27.69,8.42 -21.67,20.46 6.02,12.04 13.59,12.83 13.59,12.83 0,0 -4.81,7.81 -2.4,16.22 2.4,8.41 16.23,12.62 16.23,12.62 0,0 -1.2,10.21 4.2,16.82 5.41,6.61 31.85,-0.6 55.89,-8.41 24.04,-7.82 26.44,-22.84 34.86,-29.45 8.41,-6.61 165.86,-137.62 199.52,-174.28 33.65,-36.66 36.83,-60.63 51.28,-55.82 14.44,4.82 52.96,133.62 50.55,175.75 -2.4,42.13 -98.71,491.13 -98.71,491.13l-21.15 84.25 -76.92 15.63 -11.42 -1.81z"/>
   <path class="fil13" d="M940.26 459.41c7.05,1.82 19.25,-1.25 46.83,-12.02 49.28,-19.23 76.92,-37.86 109.97,-30.65 33.05,7.21 36.67,10.63 68.81,15.83 -12.56,-11.85 -41.44,-47.31 -43.62,-66.95 -2.41,-21.66 12.04,-132.41 -10.83,-150.47 -12.5,-9.86 -42.59,-16.49 -70.27,-16.55 -21.31,13.73 -40.35,33.95 -52.51,57.48 -2.82,5.47 -5.81,12.27 -8.89,20 0.12,43.96 5.07,96.96 2.87,116.02 -3,26.02 -26.81,55.38 -42.36,67.3z"/>
   <path class="fil14" d="M983.18 377.17l38.76 26.17c0,0 -4.81,-67.31 -1.2,-78.12 3.61,-10.82 42.07,-22.84 46.27,-22.23 4.21,0.6 -1.8,-7.82 7.82,-6.01 9.61,1.8 9.61,6.61 19.83,6.61 10.21,0 24.17,-6.02 25.82,20.43 1.65,26.46 7.24,-49.28 7.24,-49.28l-10.11 -50.69 -114.89 -11.2 -19.53 164.33z"/>
   <path class="fil15" d="M843.57 1557.56c38.35,-85.61 180.9,-382.56 199.51,-407.37 21.67,-28.89 58.99,-22.88 77.04,-8.43 18.06,14.44 167.32,279.27 167.32,279.27 0,0 47.29,80.47 74.19,127.59l21.63 -1.63c-40.53,-107.39 -174.01,-464 -174.01,-502.83 0,-45.78 12.05,-57.83 26.5,-103.6 14.46,-45.78 40.96,-86.74 40.96,-86.74l158.78 216.92 9.1 14.24 14.18 -13.3 61.67 -23.52c-11.73,-40.42 -45.55,-158.65 -63.28,-237.43 -21.67,-96.3 -102.32,-270.84 -134.82,-309.36 -24.65,-29.21 -94.28,-48.04 -130.7,-58.58 -20.12,22.68 -46.97,41.18 -81.69,43.15 -90.42,5.12 -77.88,5.93 -159.96,-35.28 -6.9,6.94 -13.36,11.82 -17.67,13.39 -13.24,4.82 -101.11,40.93 -158.9,105.93 -57.78,65.01 -94.24,228.43 -111.1,276.62 -16.87,48.19 -27.32,90.53 -39.36,104.97 -2.14,2.57 -4.71,4.99 -7.48,7.24l53.08 71.49c49.82,-41.72 142.97,-120.88 167.95,-148.09 33.65,-36.66 36.83,-60.64 51.27,-55.82 14.45,4.81 52.97,133.62 50.56,175.75 -2.4,42.13 -98.71,491.13 -98.71,491.13l-14.6 58.14 18.52 6.17z"/>
   <path class="fil5" d="M1089.85 324.79c-25.24,-4.8 -57.69,33.06 -57.69,33.06 0,0 32.53,-28.94 47.51,-28.94 14.98,0 10.18,-4.11 10.18,-4.11z"/>
   <path class="fil5" d="M1047.73 269.59c3.53,0 6.4,2.63 6.4,5.89 0,3.24 -2.87,5.88 -6.4,5.88 -3.54,0 -6.41,-2.64 -6.41,-5.88 0,-3.25 2.87,-5.89 6.41,-5.89z"/>
   <path class="fil5" d="M1094.34 269.59c3.14,0 5.69,2.58 5.69,5.76 0,3.18 -2.55,5.76 -5.69,5.76 -3.14,0 -5.69,-2.58 -5.69,-5.76 0,-3.18 2.55,-5.76 5.69,-5.76z"/>
   <path class="fil16" d="M1048.94 507.51c-70.37,-25.72 -129.11,-28.69 -121.69,-21.25 7.43,7.44 121.69,21.25 121.69,21.25z"/>
   <path class="fil16" d="M1105.87 504.43c68.53,-19.2 115.78,-31.28 107.66,-19.33 -8.12,11.95 -107.66,19.33 -107.66,19.33z"/>
   <path class="fil13" d="M681.82 780.76c33.55,24.5 35.97,34.12 32.43,51.84 -4.2,21.03 -45.07,108.77 -45.07,108.77l31.85 19.23c0,0 117.78,-182.09 126.8,-234.37 9.01,-52.28 15.63,-173.68 15.63,-173.68 0,0 2.4,206.73 15.63,237.97 13.22,31.25 66.7,22.24 82.93,21.64 16.22,-0.6 114.78,-18.63 125,-31.85 10.21,-13.22 8.41,-143.03 8.41,-143.03 0,0 16.23,123.2 32.45,141.83 16.22,18.63 143.18,1.81 143.18,1.81 0,0 66.21,-188.99 75.84,-174.54 9.63,14.45 8.42,163.71 24.07,188.99 15.65,25.28 104.73,217.88 104.73,217.88l19.69 -0.44c0,0 -21.87,-71.9 -23.37,-87.77 -1.5,-15.88 24.56,-34.07 24.56,-34.07 22,84.3 47.73,171.64 47.73,171.64 0,0 6.42,4.13 14.77,9.39l-76.21 47.24c0.05,-3.03 0.05,-4.86 0.05,-4.86l-27.68 -43.34 -158.79 -216.91c0,0 -26.5,40.96 -40.96,86.73 -14.46,45.78 -26.5,57.83 -26.5,103.6 0,29.51 77.1,242.6 131.91,390.33l-18.24 47.19c-19.02,-32.64 -35.48,-60.65 -35.48,-60.65 0,0 -149.27,-264.82 -167.32,-279.27 -18.05,-14.44 -55.37,-20.46 -77.04,8.43 -16.57,22.1 -131.48,260.1 -183.5,372.35 0,0 47.48,-107.53 60.72,-186.98 7.44,-44.66 -11.36,-71.43 -29.25,-86.33 23.37,-113.01 46.15,-226.89 47.3,-247.11 2.41,-42.13 -36.11,-170.93 -50.55,-175.75 -14.45,-4.81 -17.63,19.16 -51.28,55.82 -33.66,36.66 -191.1,167.67 -199.52,174.28 -0.9,0.71 -1.73,1.51 -2.53,2.39l-36.49 -88.88c8.15,-4.23 18.5,-10.62 24.99,-18.42 12.04,-14.45 22.5,-56.79 39.36,-104.98 4.91,-14.03 11.49,-37.83 19.76,-66.12z"/>
   <path class="fil16" d="M859.31 1522.82c52.02,-112.26 166.93,-350.25 183.5,-372.35 21.67,-28.89 58.99,-22.87 77.04,-8.43 18.06,14.45 167.32,279.27 167.32,279.27 0,0 16.46,28.01 35.48,60.65l18.24 -47.19c-54.8,-147.73 -131.91,-360.82 -131.91,-390.33 0,-45.77 12.04,-57.82 26.5,-103.6 14.46,-45.78 40.96,-86.73 40.96,-86.73l158.79 216.91 9.09 14.23 14.46 -13.57 61.35 -23.39c-8.17,-28.17 -26.93,-93.61 -43.56,-157.33 0,0 -26.06,18.19 -24.56,34.07 1.5,15.88 23.37,87.77 23.37,87.77l-19.69 0.44c0,0 -89.08,-192.6 -104.73,-217.88 -15.65,-25.28 -14.44,-174.54 -24.07,-188.99 -9.63,-14.44 -75.84,174.54 -75.84,174.54 0,0 -126.96,16.82 -143.18,-1.81 -16.22,-18.63 -32.45,-141.83 -32.45,-141.83 0,0 1.81,129.81 -8.41,143.03 -10.22,13.22 -94.96,25.84 -111.18,26.44 -16.22,0.6 -58.89,2.4 -72.11,-28.85 -13.22,-31.25 -40.26,-225.36 -40.26,-225.36 0,0 -6.61,121.39 -15.63,173.68 -9.02,52.28 -126.8,234.37 -126.8,234.37l-31.85 -19.23c0,0 40.87,-87.74 45.07,-108.77 3.54,-17.72 1.12,-27.34 -32.43,-51.84 -8.27,28.29 -14.85,52.09 -19.76,66.12 -16.87,48.19 -27.32,90.53 -39.36,104.98 -2.06,2.48 -4.52,4.81 -7.17,6.99l53.07 71.48c49.89,-41.79 138.36,-115.94 167.65,-147.84 29.29,-31.9 36.07,-61.22 50.52,-56.4 14.44,4.82 53.09,145.16 51.31,176.33 -1.78,31.18 -23.93,134.1 -47.3,247.11 17.89,14.89 36.69,41.67 29.25,86.33 -13.24,79.45 -60.72,186.98 -60.72,186.98z"/>
   <path class="fil15" d="M987.44 1008.43c-7.22,-107.13 26.48,-164.91 97.51,-174.54 71.02,-9.63 92.69,52.96 93.89,110.74 1.2,57.78 1.2,68.62 1.2,68.62 0,0 -78.24,26.48 -192.6,-4.82zm87.88 -151.67c7.22,45.74 -39.73,58.98 -39.73,58.98 0,0 9.33,4.2 20.12,-0.9 10.78,-5.09 14.98,-7.49 14.98,-7.49 0,0 3.29,31.75 -4.19,38.64 -7.49,6.89 -27.56,14.38 -27.56,14.38 0,0 22.77,-1.8 29.36,-5.39 6.59,-3.59 4.49,22.77 0.9,29.66 -3.6,6.89 -20.67,16.78 -20.67,16.78l81.78 -1.2c0,0 -23.06,-5.1 -33.25,-14.38 -10.19,-9.29 -5.39,-29.95 -5.39,-29.95 0,0 11.38,5.99 21.27,8.09 9.88,2.1 14.08,0.3 14.08,0.3 0,0 -23.96,-9.88 -30.55,-19.47 -6.59,-9.59 -4.79,-38.94 -4.79,-38.94 0,0 13.78,10.78 23.67,12.28 9.88,1.5 14.08,1.2 14.08,1.2 0,0 -48.23,-21.87 -54.08,-62.58z"/>
   <path class="fil3" d="M721.46 1007.48l-72.11 54.69 -50.48 -109.98 67.16 -201.36c0,0 45.39,26.74 40.75,51.29 -4.64,24.55 -55.2,143.72 -55.2,143.72l69.87 61.64z"/>
   <path class="fil3" d="M967.26 358.44l49.28 32.45c0,0 -12.02,-64.91 1.2,-81.73 13.22,-16.83 21.03,-22.24 45.07,-21.64 24.04,0.6 41.47,-1.2 45.67,1.8 4.2,3.01 5.52,-1.88 10.21,15.63 4.69,17.51 -1.2,80.53 -1.2,80.53l20.43 -16.22c0,0 3,-117.18 -5.41,-143.03 -8.41,-25.84 -41.47,-72.11 -61.89,-84.73 -16.6,-10.25 -35.19,-1.47 -47.38,6.38 -2.81,1.81 -5.28,3.57 -7.31,5.03 -10.82,7.81 -29.45,24.64 -43.87,57.09 -14.42,32.45 -4.8,148.44 -4.8,148.44zm109.41 -77.47c0,0 25.46,0.3 29.36,0 3.89,-0.3 12.58,-13.78 12.88,-17.97 0.3,-4.2 1.5,-14.98 -2.99,-15.58 -4.5,-0.6 -32.95,15.58 -39.25,33.55zm-8.98 -0.6c0,0 -41.04,3.89 -45.24,-1.2 -4.19,-5.1 -18.87,-25.17 -15.88,-28.46 3,-3.29 25.46,0.3 41.34,10.49 15.88,10.18 19.77,19.17 19.77,19.17z"/>
   <path class="fil3" d="M1054.87 117.92c5.67,0 10.27,4.27 10.27,9.53 0,5.27 -4.6,9.53 -10.27,9.53 -5.67,0 -10.27,-4.27 -10.27,-9.53 0,-5.26 4.6,-9.53 10.27,-9.53z"/>
   <path class="fil11" d="M1047.78 104.67c5.41,-27.65 -9.62,-31.25 -9.62,-31.25 0,0 10.62,24.12 9.62,31.25z"/>
   <path class="fil17" d="M1399.94 1041.13l88.94 -18.63c0,0 -21.63,-79.32 -28.84,-110.58 -7.21,-31.25 21.63,-70.91 21.63,-70.91l55.89 218.75 -88.34 54.69 -49.28 -73.32z"/>
   <path class="fil17" d="M1084.44 287.6c-0.07,-2.36 -0.16,-4.53 -0.25,-6.55 7.83,0.07 19.33,0.12 21.85,-0.07 3.89,-0.3 12.58,-13.78 12.88,-17.97 0.3,-4.2 1.5,-14.98 -2.99,-15.58 -3.52,-0.47 -21.71,9.34 -32.47,22.24 -0.67,-8.95 -0.96,-12.73 1.59,-16.56 4.81,-7.21 12.62,-9.62 12.02,-13.82 -0.6,-4.2 3.61,-36.66 -21.03,-59.49 -24.64,-22.83 -35.46,-29.45 -46.88,-24.64 -11.42,4.81 -4.77,33.08 -9.6,-4.8 1.15,-0.79 2.39,-1.63 3.69,-2.47 12.19,-7.85 30.78,-16.63 47.38,-6.38 20.43,12.62 53.48,58.89 61.89,84.73 8.41,25.84 5.41,143.03 5.41,143.03l-20.43 16.22c0,0 5.9,-63.02 1.2,-80.53 -4.69,-17.51 -6.01,-12.62 -10.21,-15.63 -2.8,-2 -11.47,-1.87 -24.04,-1.73z"/>
   <path class="fil17" d="M615.59 988.62c14.66,-28.92 76.64,-177.37 78.83,-190.45 1.36,-8.15 0.6,-18.02 -0.31,-25.07 8.21,8.74 14.55,19.05 12.67,29.01 -4.64,24.55 -55.2,143.72 -55.2,143.72l69.87 61.64 -72.11 54.69 -33.75 -73.54z"/>
   <path class="fil18" d="M609.09 947.81l61.3 -186.9c0,0 -16.7,110.82 -61.3,186.9z"/>
   <path class="fil18" d="M1480.47 864.27l47.48 188.7c0,0 -37.86,-85.33 -47.48,-188.7z"/>
   <path class="fil18" style="mask:url(#id2)" d="M968.01 285.49c-0.47,-28.58 -0.5,-52.49 4.97,-70.02 10.66,-34.11 30.97,-47.41 30.97,-47.41 0,0 -7.57,74.84 -35.95,117.42z"/>
   <path class="fil19" d="M1070.76 275.74c-9.53,-19.05 -42.72,-28.88 -42.72,-28.88 0,0 33.94,1.93 42.72,28.88z"/>
   <path class="fil19" d="M1078.35 270.98c4.65,-8.36 12.21,-14.89 12.21,-14.89 0,0 -11.56,5.08 -12.21,14.89z"/>
   <g>
    <path class="fil20" d="M1144.9 637.24c23.32,-10.26 38.54,-25.66 39.37,-42.75 0,0 -6.16,-4.74 -26.03,-12.05 -17.45,-6.42 -30.77,-7.9 -30.77,-7.9l0.06 38.08c0,5.69 -2.28,11.5 -6.59,16.64 -13.19,-3.19 -27.77,-4.97 -43.06,-4.98l-0.01 0c-15.31,0 -29.9,1.8 -43.11,4.99 -4.31,-5.14 -6.6,-10.95 -6.6,-16.65l0.06 -38.08c0,0 -13.31,1.47 -30.77,7.9 -19.87,7.31 -26.02,12.05 -26.02,12.05 0.82,17.1 16.05,32.5 39.4,42.76 -23.32,10.26 -38.55,25.66 -39.37,42.75 0,0 6.15,4.75 26.03,12.05 17.45,6.42 30.77,7.89 30.77,7.89l-0.06 -38.07c0,-5.69 2.28,-11.51 6.6,-16.64 13.19,3.19 27.77,4.97 43.06,4.97l0.01 0c15.31,0 29.9,-1.79 43.11,-4.99 4.31,5.14 6.6,10.97 6.6,16.66l-0.05 38.07c0,0 13.31,-1.47 30.77,-7.89 19.88,-7.31 26.03,-12.05 26.03,-12.05 -0.83,-17.1 -16.06,-32.5 -39.4,-42.76l0 0zm-67.04 8.56l-0.02 0 -0.43 -0.01c-13.81,0 -25.06,-3.38 -33.32,-8.55 8.26,-5.18 19.52,-8.56 33.35,-8.56l0.43 -0 0.02 0 0.43 0c13.82,0 25.07,3.38 33.32,8.55 -8.25,5.17 -19.52,8.56 -33.34,8.56l-0.43 0.01zm0 0l0 0 0 0z"/>
   </g>
   <g>
    <path class="fil20" d="M940.91 742.13c-6.69,0 -6.81,-5.1 -6.81,-7.07l0 -9.28c0,-0.56 -0.05,-1.31 1.15,-1.31l3.46 0c1.12,0 1.05,0.8 1.05,1.31l0 9.28c0,0.66 0.12,2.43 2.55,2.43l5.8 0c2.39,0 2.52,-1.77 2.52,-2.43l0 -9.28c0,-0.51 -0.07,-1.31 1.05,-1.31l3.48 0c1.26,0 1.15,0.8 1.15,1.31l0 9.28c0,1.97 -0.12,7.07 -6.83,7.07l-8.58 0zm0 0l0 0 0 0z"/>
   </g>
   <g>
    <path class="fil20" d="M972.95 741c-2.36,-3.18 -5.73,-7.18 -9.17,-11.41l0 11.29c0,0.49 0.12,1.24 -1.05,1.24l-3.22 0c-1.17,0 -1.03,-0.74 -1.03,-1.24l0 -15.11c0,-0.51 -0.05,-1.31 1.03,-1.31l6.29 0c1.78,0 4.31,3.58 5.97,5.94 1.28,1.8 3.64,4.51 5.23,6.54l0 -11.18c0,-0.51 -0.07,-1.31 1.1,-1.31l3.5 0c1.13,0 1.05,0.8 1.05,1.31l0 16.35 -6.45 0c-1.39,0 -1.99,0.09 -3.25,-1.12l0 0zm0 0l0 0 0 0z"/>
   </g>
   <g>
    <path class="fil20" d="M999.53 737.48c2.83,0 2.63,-2.72 2.63,-3.95 0,-4.16 -1.17,-4.33 -3.04,-4.33l-8.89 0 0 8.28 9.3 0zm-14.76 4.65l0 -17.63 15.58 0c0.95,0 7.33,-0.11 7.33,6.59 0,6.86 0.75,11.04 -7.19,11.04l-8.4 0 -1.82 -3.69 0 3.69 -5.5 0zm0 0l0 0 0 0z"/>
   </g>
   <path class="fil20" d="M1013.79 724.62l14.36 0c1.22,0 1.05,0.79 1.05,2.27 0,1.37 0.18,2.14 -1.05,2.14l-11.35 0c-0.3,0 -1.32,-0.16 -1.32,0.91 0,1.07 -0.21,1.5 0.93,1.5l10.04 0c0,0 1.45,2.76 1.61,3.22 0.24,0.42 0.21,0.82 -0.67,0.82l-10.39 0 -1.61 -3.13 0 4.63c0,1.08 0.96,0.87 1.24,0.87l11.78 0c1.17,0 1.07,0.82 1.07,2.14 0,1.43 0.1,2.22 -1.07,2.22l-14.92 0c-1.24,0 -3.67,-0.38 -3.67,-4.25l0 -9.73c0,-1 0.54,-3.62 3.97,-3.62z"/>
   <g>
    <path class="fil20" d="M1045.58 729.15l-6.99 0c-1.16,0 -1.12,0.4 -1.12,0.75l0 3.15 7.2 0c3.49,0 3.49,-0.87 3.49,-1.78 0,-1.82 -0.14,-2.12 -2.57,-2.12l0 0zm-12.51 -4.66l15.71 0c2.1,0 5.16,-0.02 5.16,5.66 0,3.72 -0.79,3.9 -2.47,5.05 2.83,0.49 2.46,4.11 2.46,5.99 0,0.96 -0.35,0.94 -0.64,0.94l-4.61 0c-0.96,0 -0.73,-1.52 -0.73,-2.31 0,-2.18 -1.21,-2.08 -1.68,-2.08l-6.78 0c-0.65,-1.13 -1.91,-3.65 -1.91,-3.65l0 7.32c0,0.64 -0.64,0.73 -0.87,0.73l-4.62 0c0.25,0 -0.48,0.04 -0.48,-0.59l0 -15.52c0,-1.1 0.77,-1.52 1.46,-1.52z"/>
   </g>
   <g>
    <path class="fil20" d="M1079.13 729.5l-2.9 5.28 3.15 -5.03 5.4 0 0.28 -0.25c-0.19,-0.4 -2.53,-4.84 -2.76,-5.31l-0.28 0.02 -2.9 5.29zm4.77 -10.17c1.15,0 2.26,0.51 3.48,2.88 0.82,1.68 6.53,11.99 7.72,14.14l0 0.58 -5.94 0 -1.71 -3.09 -7.22 0c0,0 -1.21,-2.78 -1.56,-3.55 -0.45,0.72 -2.83,5.26 -3.66,6.64l-5.95 0 0 -0.37c1.21,-2.29 9.51,-17.23 9.51,-17.23l5.33 0zm0 0l0 0 0 0z"/>
   </g>
   <g>
    <path class="fil20" d="M1107.78 729.15l-6.99 0c-1.17,0 -1.12,0.4 -1.12,0.75l0 3.15 7.2 0c3.49,0 3.49,-0.87 3.49,-1.78 0,-1.82 -0.14,-2.12 -2.57,-2.12l0 0zm-12.51 -4.66l15.71 0c2.1,0 5.17,-0.02 5.17,5.66 0,3.72 -0.79,3.9 -2.48,5.05 2.83,0.49 2.46,4.11 2.46,5.99 0,0.96 -0.35,0.94 -0.63,0.94l-4.61 0c-0.96,0 -0.73,-1.52 -0.73,-2.31 0,-2.18 -1.21,-2.08 -1.68,-2.08l-6.78 0c-0.66,-1.13 -1.92,-3.65 -1.92,-3.65l0 7.32c0,0.64 -0.63,0.73 -0.86,0.73l-4.63 0c0.25,0 -0.47,0.04 -0.47,-0.59l0 -15.52c0,-1.1 0.77,-1.52 1.45,-1.52z"/>
   </g>
   <g>
    <path class="fil20" d="M1129.88 742.13c-1.17,-2.2 -4.42,-8.25 -6.62,-12.22l0 10.98c0,0.49 0.07,1.24 -1.04,1.24l-3.19 0c-1.19,0 -1.1,-0.75 -1.1,-1.24l0 -15.11c0,-0.51 -0.07,-1.29 1.1,-1.29l5.5 0c0.82,0 1.98,-0.19 3.29,2.43 0.99,2.1 3.07,6.46 4.49,8.77 1.47,-2.31 3.6,-6.67 4.59,-8.77 1.28,-2.62 2.43,-2.43 3.34,-2.43l5.47 0c1.13,0 1.01,0.77 1.01,1.29l0 15.11c0,0.49 0.16,1.24 -1.01,1.24l-3.2 0c-1.16,0 -1.07,-0.75 -1.07,-1.24l0 -10.98c-2.22,3.97 -5.45,10.03 -6.67,12.22l-4.88 0zm0 0l0 0 0 0z"/>
   </g>
   <g>
    <path class="fil20" d="M1164.25 737.63c2.65,0 2.55,-2.73 2.55,-4.56 0,-1.64 0.37,-4.21 -3.06,-4.21l-5.83 0c-3.41,0 -3.01,2.57 -3.01,4.21 0,1.83 -0.16,4.56 2.48,4.56l6.87 0zm-10.47 4.54c-5.21,0 -4.98,-5.59 -4.98,-9.21 0,-3.33 -0.37,-8.51 6.15,-8.56l11.58 0c6.55,0 6.12,5.26 6.12,8.56 0,3.62 0.26,9.21 -5.03,9.21l-13.84 0zm0 0l0 0 0 0z"/>
   </g>
   <g>
    <path class="fil20" d="M1181.36 742.13c-6.69,0 -6.81,-5.1 -6.81,-7.07l0 -9.28c0,-0.56 -0.05,-1.31 1.15,-1.31l3.46 0c1.12,0 1.05,0.8 1.05,1.31l0 9.28c0,0.66 0.12,2.43 2.55,2.43l5.8 0c2.39,0 2.52,-1.77 2.52,-2.43l0 -9.28c0,-0.51 -0.07,-1.31 1.05,-1.31l3.48 0c1.26,0 1.15,0.8 1.15,1.31l0 9.28c0,1.97 -0.12,7.07 -6.83,7.07l-8.58 0zm0 0l0 0 0 0z"/>
   </g>
   <g>
    <path class="fil20" d="M1212.99 729.15l-6.99 0c-1.17,0 -1.12,0.4 -1.12,0.75l0 3.15 7.2 0c3.49,0 3.49,-0.87 3.49,-1.78 0,-1.82 -0.14,-2.12 -2.57,-2.12l0 0zm-12.51 -4.66l15.72 0c2.1,0 5.17,-0.02 5.17,5.66 0,3.72 -0.8,3.9 -2.48,5.05 2.83,0.49 2.46,4.11 2.46,5.99 0,0.96 -0.35,0.94 -0.64,0.94l-4.61 0c-0.96,0 -0.73,-1.52 -0.73,-2.31 0,-2.18 -1.21,-2.08 -1.68,-2.08l-6.79 0c-0.65,-1.13 -1.91,-3.65 -1.91,-3.65l0 7.32c0,0.64 -0.64,0.73 -0.87,0.73l-4.62 0c0.25,0 -0.47,0.04 -0.47,-0.59l0 -15.52c0,-1.1 0.77,-1.52 1.45,-1.52z"/>
   </g>
   <path class="fil21 str0" d="M959.04 1042.56c94.15,24.04 222.35,3.01 222.35,3.01"/>
   <polyline class="fil21 str0" points="1074.22,1063.59 1075.23,1115.67 1101.26,1114.67 1098.65,1053.4 "/>
   <path class="fil21 str0" d="M1218.58 1301.38c17.44,-4.8 8.94,-29.8 3.44,-48.3 -5.5,-18.5 16.49,-26.99 30.99,1 14.49,27.99 31.71,27.06 31.71,27.06"/>
   <path class="fil21 str0" d="M887.59 1265.98c21.24,3.95 24.51,-28.88 45.5,-39.88 20.99,-11 24.99,12.5 17.99,38.49 -6.99,26 12.35,40.42 12.35,40.42"/>
   <path class="fil22" d="M670.1 159.11c-2.5,0 -4.97,0.12 -7.41,0.35 -6.57,-31.01 -35.19,-54.35 -69.5,-54.35 -5.97,0 -11.76,0.71 -17.29,2.04 0.21,-1.98 0.31,-4 0.31,-6.03 0,-31.99 -25.94,-57.93 -57.93,-57.93 -5.7,0 -11.21,0.82 -16.41,2.36 0.28,-1.41 0.43,-2.87 0.43,-4.36 0,-12.13 -9.84,-21.97 -21.97,-21.97 -12.13,0 -21.97,9.84 -21.97,21.97 0,10.33 7.13,18.99 16.73,21.34 -8.06,9.02 -13.33,20.57 -14.49,33.31 -2.34,-0.47 -4.76,-0.71 -7.24,-0.71 -20.41,0 -36.95,16.55 -36.95,36.96 0,4.3 0.74,8.44 2.09,12.28 -11.96,-7.77 -26.22,-12.28 -41.54,-12.28 -15.49,0 -29.91,4.61 -41.95,12.54 -3.6,-2.87 -8.16,-4.59 -13.12,-4.59 -11.64,0 -21.07,9.44 -21.07,21.08 0,6.09 2.58,11.58 6.72,15.43 -3.96,8.58 -6.37,18.02 -6.89,27.97 -18,10.75 -30.07,30.42 -30.07,52.91 0,5.74 0.79,11.29 2.26,16.56 -13.52,10.51 -22.23,26.93 -22.23,45.38 0,31.71 25.72,57.43 57.44,57.43 24.69,0 45.75,-15.59 53.86,-37.47 6.65,3.12 14.06,4.85 21.88,4.85 1.08,0 2.14,-0.04 3.21,-0.1 11.55,13.88 28.95,22.72 48.41,22.72 15.17,0 29.08,-5.37 39.95,-14.31 7.42,1.52 15.11,2.32 22.98,2.32 13.86,0 27.14,-2.48 39.42,-7.01 13.96,23.27 39.42,38.85 68.52,38.85 33.2,0 61.67,-20.28 73.71,-49.12 8.64,24.96 32.35,42.9 60.25,42.9 33.87,0 61.58,-26.44 63.62,-59.8 1.36,0.15 2.73,0.22 4.12,0.22 20.96,0 37.95,-17 37.95,-37.95 0,-20.96 -17,-37.96 -37.95,-37.96 -2.25,0 -4.45,0.2 -6.59,0.58 1.68,-4.53 2.6,-9.44 2.6,-14.56 0,-23.17 -18.79,-41.95 -41.95,-41.95l-0.68 0c1.7,-2.63 2.68,-5.76 2.68,-9.13 0,-9.3 -7.55,-16.85 -16.85,-16.85 -9.31,0 -16.86,7.55 -16.86,16.85 0,6.78 4.01,12.63 9.79,15.3 -0.8,0.49 -1.58,1.01 -2.35,1.55 -14.3,-22.63 -39.25,-37.63 -67.63,-37.63zm135.85 -8.06c-3.31,0 -6,2.68 -6,6 0,3.31 2.69,5.99 6,5.99 3.31,0 5.99,-2.68 5.99,-5.99 0,-3.31 -2.68,-6 -5.99,-6zm-180 -87.9c-12.25,0 -22.18,9.93 -22.18,22.18 0,12.25 9.93,22.18 22.18,22.18 12.25,0 22.18,-9.93 22.18,-22.18 0,-12.25 -9.93,-22.18 -22.18,-22.18zm-284.47 13.99c-6.07,0 -10.99,4.92 -10.99,10.99 0,6.07 4.92,10.99 10.99,10.99 6.07,0 10.99,-4.92 10.99,-10.99 0,-6.07 -4.92,-10.99 -10.99,-10.99z"/>
   <path class="fil23" d="M247.34 618.29c1.32,0 2.63,0.04 3.92,0.11 2.08,-12.68 13.09,-22.37 26.36,-22.37 14.76,0 26.73,11.97 26.73,26.73 0,6.31 -2.19,12.1 -5.84,16.68 12.42,12.5 20.06,29.53 20.06,48.3 0,38.35 -31.9,69.45 -71.23,69.45 -20.23,0 -38.48,-8.23 -51.45,-21.43 -4.6,1.76 -9.62,2.73 -14.88,2.73 -4.52,0 -8.87,-0.72 -12.92,-2.03 -0.28,9.94 -8.42,17.91 -18.43,17.91 -10.18,0 -18.44,-8.25 -18.44,-18.44 0,-8.8 6.16,-16.15 14.4,-17.99 -2.71,-5.06 -4.24,-10.78 -4.24,-16.84 0,-15.43 9.92,-28.68 24.06,-34.39 -0.01,-0.28 -0.02,-0.57 -0.02,-0.85 0,-12.49 10.13,-22.63 22.63,-22.63 1.47,0 2.89,0.14 4.28,0.41 13.07,-15.47 32.85,-25.34 55,-25.34zm340.29 87.19c5.48,0 9.92,4.44 9.92,9.92 0,5.48 -4.44,9.92 -9.92,9.92 -1.93,0 -3.74,-0.56 -5.27,-1.51 -2.19,8.44 -9.87,14.67 -18.99,14.67 -10.56,0 -19.17,-8.35 -19.59,-18.8l-0.01 0c-8.64,0 -16.02,-5.36 -19.01,-12.93 -3.31,0.89 -6.79,1.36 -10.37,1.36 -4.5,0 -8.83,-0.74 -12.87,-2.12 0.3,2.18 0.46,4.41 0.46,6.67 0,23.57 -16.67,43.26 -38.86,47.92 -8.66,17 -26.33,28.65 -46.71,28.65 -28.93,0 -52.4,-23.46 -52.4,-52.4 0,-2.35 0.16,-4.67 0.46,-6.94 -19.91,-6.38 -34.32,-25.04 -34.32,-47.06 0,-16.1 7.7,-30.39 19.61,-39.42 -1.15,-2.5 -1.81,-5.28 -1.81,-8.22 0,-10.81 8.77,-19.58 19.58,-19.58 10.41,0 18.93,8.13 19.55,18.38 19.75,3.02 35.65,17.74 40.42,36.86 7.43,-4.54 16.16,-7.16 25.51,-7.16 7.66,0 14.92,1.76 21.38,4.9l-0.01 -0.5c0,-22.1 17.92,-40.01 40.01,-40.01 22.09,0 40.01,17.92 40.01,40.01 0,4.41 -0.72,8.66 -2.04,12.63 6.98,3.25 11.82,10.32 11.82,18.53l0 0.02c6.82,0.28 12.74,4.03 16.04,9.54 1.81,-2.04 4.46,-3.33 7.41,-3.33z"/>
   <path class="fil24 str1" d="M787.76 1213.9c148.95,0 269.74,120.79 269.74,269.74 0,148.95 -120.79,269.74 -269.74,269.74 -148.95,0 -269.74,-120.79 -269.74,-269.74 0,-148.95 120.79,-269.74 269.74,-269.74z"/>
   <path class="fil24 str1" d="M787.76 1221.07c144.99,0 262.58,117.58 262.58,262.58 0,144.99 -117.58,262.58 -262.58,262.58 -144.99,0 -262.58,-117.59 -262.58,-262.58 0,-144.99 117.59,-262.58 262.58,-262.58z"/>
   <path class="fil25 str1" d="M787.76 1229.45c140.37,0 254.2,113.83 254.2,254.2 0,140.37 -113.83,254.19 -254.2,254.19 -140.37,0 -254.19,-113.83 -254.19,-254.19 0,-140.37 113.83,-254.2 254.19,-254.2z"/>
   <g>
    <path class="fil25" d="M1569.02 1395.27c5.23,-1.84 10.74,-2.79 16.38,-2.82l90.38 0c6.6,0.05 13.08,1.33 19.13,3.89 6.07,2.54 11.51,6.19 16.16,10.85l17.36 17.4 -20.14 20.4c4.32,4.61 7.78,9.88 10.29,15.7 2.88,6.66 4.32,13.77 4.35,21.14 -0.03,7.37 -1.48,14.48 -4.37,21.15 -2.76,6.35 -6.66,12.08 -11.57,16.95 -4.89,4.85 -10.6,8.69 -16.97,11.45 -6.64,2.84 -13.74,4.26 -21.03,4.3l-88.69 0c-1.37,-0.01 -2.72,-0.07 -4.08,-0.18l0 0.18 -196.95 0 -25.87 -43.88 -37.53 0 0 44.01 -63.94 0 0 -0.13 -23.69 0 -3.24 -19.82 -59.9 3.93 -2.54 15.89 -64.77 0 22.61 -143.35 204.81 0c0,0 0,0 0.15,0l24.62 0 0 0.11c1.97,0 3.92,0 5.89,0.01 6.01,0 12.03,0 18.11,0 6.76,0.05 13.4,1.36 19.54,4.02 0.68,0.29 1.36,0.6 2.03,0.92l0 -5.07 173.46 0 0 2.95z"/>
   </g>
   <path class="fil26" d="M1263.96 1510.91l-14.93 -93.82 -107.46 0 -14.8 93.82 14.67 0 2.32 -14.54 102.05 -6.69 3.47 21.23 14.67 0zm-21.49 -42.86l-95.36 6.43 6.82 -42.98 82.75 0 5.79 36.55zm2.31 14.29l-99.99 6.82 1.16 -7.33 97.68 -6.57 1.15 7.08zm165.5 28.57l-26.38 -44.78c3.02,-1.35 5.7,-3.2 8.02,-5.51 2.3,-2.31 4.11,-5 5.43,-8.04 1.31,-3.05 1.97,-6.33 1.99,-9.87 -0.02,-3.54 -0.68,-6.84 -2.02,-9.91 -1.31,-3.07 -3.13,-5.77 -5.47,-8.08 -2.31,-2.34 -5.02,-4.16 -8.09,-5.47 -3.06,-1.33 -6.37,-1.99 -9.91,-2.02 -6.93,0 -12.93,0 -18.02,0 -5.09,-0.02 -9.38,-0.02 -12.89,-0.02 -3.54,-0.02 -6.42,-0.02 -8.67,-0.02 -2.23,-0.02 -3.99,-0.02 -5.23,-0.04 -1.26,0 -2.16,-0.02 -2.7,-0.02 -0.54,0 -0.88,-0.02 -0.99,-0.02 -0.13,0 -0.17,0 -0.15,0l-48.52 0 0 93.95 14.41 0 0 -44.01 76.44 0 25.87 43.88 16.86 0zm-25.48 -69.24c-0.02,2.08 -0.54,3.95 -1.52,5.58 -0.99,1.65 -2.3,2.94 -3.95,3.9 -1.65,0.95 -3.48,1.44 -5.47,1.46l-82.75 0 0 -21.11 82.75 0c1.99,0 3.82,0.45 5.47,1.29 1.65,0.86 2.96,2.04 3.95,3.56 0.99,1.53 1.5,3.29 1.52,5.32zm166.66 69.24l0 -14.41 -116.73 0 0 -29.47 102.19 0 0 -14.41 -102.19 0 0 -21.11 109.52 0 0 -14.41 -123.93 0 0 93.82 131.14 0zm146.71 -29.08c-0.02,-4.01 -0.79,-7.79 -2.31,-11.31 -1.52,-3.52 -3.62,-6.6 -6.31,-9.29 -2.68,-2.68 -5.77,-4.78 -9.29,-6.31 -3.52,-1.52 -7.27,-2.3 -11.3,-2.31l-83.52 0c-1.95,-0.02 -3.76,-0.54 -5.41,-1.55 -1.65,-1.01 -2.98,-2.34 -3.99,-3.99 -1.01,-1.65 -1.52,-3.46 -1.55,-5.41 0.02,-1.99 0.56,-3.75 1.59,-5.27 1.01,-1.53 2.34,-2.71 3.99,-3.58 1.65,-0.86 3.46,-1.29 5.36,-1.31l90.21 0c1.5,0 2.96,0.26 4.36,0.77 1.4,0.51 2.66,1.29 3.75,2.31l9.78 -9.91c-2.4,-2.4 -5.15,-4.22 -8.22,-5.51 -3.06,-1.29 -6.28,-1.93 -9.67,-1.96l-90.21 0c-3.47,0.02 -6.74,0.71 -9.78,2.04 -3.07,1.35 -5.77,3.2 -8.13,5.53 -2.34,2.36 -4.18,5.06 -5.53,8.11 -1.33,3.07 -2.02,6.33 -2.04,9.8 0.02,3.5 0.73,6.72 2.08,9.65 1.37,2.96 3.22,5.53 5.6,7.72 2.36,2.19 5.06,3.88 8.13,5.1 3.05,1.2 6.26,1.82 9.68,1.85l83.52 0c1.97,0.02 3.86,0.41 5.62,1.2 1.76,0.79 3.3,1.89 4.65,3.26 1.37,1.37 2.45,2.94 3.22,4.72 0.77,1.76 1.18,3.65 1.18,5.62 0,1.97 -0.41,3.84 -1.18,5.6 -0.77,1.76 -1.85,3.33 -3.22,4.68 -1.35,1.37 -2.89,2.42 -4.65,3.22 -1.76,0.77 -3.65,1.16 -5.62,1.18l-88.41 0c-1.95,-0.02 -3.82,-0.41 -5.58,-1.18 -1.78,-0.77 -3.35,-1.82 -4.72,-3.2l-10.17 10.17c2.74,2.72 5.85,4.83 9.35,6.33 3.5,1.5 7.14,2.27 10.98,2.3l88.54 0c4.03,-0.02 7.79,-0.79 11.3,-2.3 3.52,-1.52 6.61,-3.6 9.29,-6.26 2.68,-2.66 4.78,-5.75 6.31,-9.24 1.52,-3.52 2.3,-7.27 2.31,-11.28z"/>
   <g>
    <path class="fil26" d="M862.57 1684.32l1.33 2.87 20.24 -9.44 7.35 15.76 2.86 -1.33 -8.68 -18.63 -23.11 10.77zm-23.76 17.63l2.8 9.78 3.04 -0.87 -2.81 -9.79c-0.26,-0.95 -0.34,-1.9 -0.23,-2.84 0.12,-0.93 0.4,-1.81 0.84,-2.63 0.44,-0.82 1.03,-1.52 1.76,-2.12 0.73,-0.6 1.56,-1.04 2.52,-1.32l6.12 -1.76c0.96,-0.26 1.91,-0.34 2.84,-0.22 0.94,0.12 1.81,0.41 2.64,0.86 0.82,0.45 1.53,1.05 2.13,1.78 0.6,0.73 1.04,1.57 1.32,2.53l2.8 9.78 3.04 -0.87 -2.81 -9.79c-0.32,-1.1 -0.79,-2.1 -1.41,-3 -0.62,-0.91 -1.35,-1.68 -2.2,-2.33 -0.85,-0.66 -1.78,-1.17 -2.78,-1.54 -1,-0.38 -2.05,-0.58 -3.14,-0.63 -1.09,-0.05 -2.19,0.08 -3.29,0.39l-6.13 1.76c-1.11,0.32 -2.1,0.79 -3,1.41 -0.9,0.62 -1.67,1.35 -2.31,2.2 -0.65,0.85 -1.16,1.77 -1.53,2.78 -0.36,1 -0.57,2.05 -0.62,3.14 -0.04,1.09 0.09,2.19 0.4,3.29zm-12.2 -8.29l3.92 20.18 3.1 -0.6 3.18 -2.57 -0.68 -3.52 -3.18 2.57 -3.24 -16.66 -3.1 0.6zm-31.12 9.95c0.08,0.88 0.33,1.69 0.72,2.43 0.39,0.74 0.91,1.38 1.54,1.9 0.63,0.53 1.35,0.93 2.15,1.2 0.8,0.25 1.64,0.35 2.52,0.28l-5.16 5.15 0.27 3.09 26.97 -2.36 -0.27 -3.09 -22.05 1.93 5.1 -5.12 0 -0.03 6.88 -0.6 -0.27 -3.14 -11.74 1.03c-0.6,0.05 -1.15,-0.05 -1.66,-0.31 -0.5,-0.25 -0.92,-0.59 -1.25,-1.06 -0.33,-0.46 -0.52,-0.99 -0.57,-1.59 -0.05,-0.58 0.05,-1.13 0.29,-1.64 0.25,-0.51 0.6,-0.93 1.06,-1.25 0.46,-0.33 0.98,-0.52 1.57,-0.58l14.22 -1.24c0.83,-0.07 1.64,0 2.43,0.21 0.79,0.22 1.52,0.56 2.21,1.02 0.67,0.46 1.27,1.01 1.76,1.69l2.11 -2.48c-0.74,-0.83 -1.57,-1.54 -2.51,-2.1 -0.93,-0.58 -1.93,-0.99 -3,-1.24 -1.07,-0.25 -2.16,-0.34 -3.27,-0.25l-14.22 1.24c-0.88,0.08 -1.69,0.32 -2.42,0.71 -0.74,0.39 -1.38,0.91 -1.91,1.54 -0.53,0.63 -0.93,1.34 -1.2,2.14 -0.26,0.79 -0.36,1.64 -0.29,2.52z"/>
    <path class="fil26" d="M753.68 1694.8l-0.27 3.15 22.25 1.95 -1.52 17.33 3.14 0.27 1.79 -20.48 -25.4 -2.22zm-29.49 3.61l-2.47 9.88 3.07 0.76 2.46 -9.87c0.25,-0.97 0.66,-1.83 1.23,-2.58 0.57,-0.75 1.24,-1.37 2.04,-1.86 0.8,-0.49 1.66,-0.8 2.59,-0.96 0.93,-0.15 1.87,-0.11 2.84,0.12l6.19 1.55c0.95,0.24 1.81,0.65 2.57,1.23 0.75,0.58 1.37,1.26 1.85,2.07 0.48,0.8 0.8,1.67 0.95,2.61 0.16,0.92 0.12,1.88 -0.12,2.85l-2.46 9.87 3.07 0.76 2.46 -9.87c0.28,-1.12 0.37,-2.22 0.27,-3.31 -0.08,-1.09 -0.33,-2.13 -0.74,-3.12 -0.41,-0.99 -0.96,-1.91 -1.64,-2.73 -0.68,-0.82 -1.48,-1.53 -2.41,-2.12 -0.91,-0.58 -1.93,-1.02 -3.05,-1.31l-6.18 -1.54c-1.12,-0.27 -2.22,-0.37 -3.3,-0.28 -1.09,0.09 -2.13,0.34 -3.11,0.75 -0.99,0.41 -1.89,0.96 -2.71,1.65 -0.82,0.69 -1.52,1.49 -2.11,2.41 -0.58,0.92 -1.01,1.94 -1.3,3.04zm-6.56 -13.26l-6.69 19.44 2.98 1.03 4.04 -0.64 1.16 -3.39 -4.03 0.64 5.53 -16.05 -2.98 -1.03zm-31.94 -6.86c-0.37,0.81 -0.57,1.63 -0.6,2.47 -0.02,0.84 0.1,1.65 0.39,2.42 0.28,0.78 0.7,1.48 1.26,2.11 0.57,0.62 1.24,1.12 2.04,1.5l-7.04 1.88 -1.31 2.81 24.53 11.44 1.31 -2.81 -20.06 -9.35 6.98 -1.89 0.01 -0.03 6.26 2.92 1.33 -2.86 -10.69 -4.99c-0.54,-0.25 -0.97,-0.62 -1.29,-1.09 -0.31,-0.47 -0.49,-0.98 -0.55,-1.55 -0.05,-0.57 0.05,-1.11 0.3,-1.66 0.25,-0.54 0.62,-0.96 1.08,-1.27 0.47,-0.32 0.99,-0.51 1.54,-0.56 0.56,-0.06 1.11,0.03 1.65,0.28l12.93 6.03c0.75,0.36 1.42,0.82 1.99,1.4 0.58,0.58 1.05,1.24 1.4,1.98 0.36,0.74 0.59,1.52 0.69,2.34l3.06 -1.09c-0.22,-1.09 -0.59,-2.12 -1.13,-3.08 -0.52,-0.96 -1.18,-1.82 -1.98,-2.57 -0.79,-0.76 -1.69,-1.38 -2.7,-1.85l-12.93 -6.03c-0.81,-0.37 -1.62,-0.57 -2.46,-0.59 -0.83,-0.03 -1.64,0.1 -2.42,0.38 -0.78,0.27 -1.48,0.7 -2.11,1.25 -0.63,0.55 -1.13,1.23 -1.51,2.04zm-31.7 -28.31l-1.86 2.56 18.07 13.13 -10.23 14.07 2.55 1.86 12.08 -16.63 -20.62 -14.98zm-27.65 -11.52l-7.07 7.32 2.27 2.2 7.08 -7.32c0.69,-0.71 1.48,-1.25 2.34,-1.62 0.87,-0.37 1.77,-0.57 2.7,-0.58 0.93,-0.02 1.84,0.13 2.72,0.46 0.88,0.33 1.68,0.84 2.4,1.52l4.58 4.43c0.71,0.69 1.26,1.48 1.62,2.35 0.36,0.88 0.56,1.78 0.57,2.72 0.01,0.93 -0.14,1.84 -0.48,2.73 -0.33,0.89 -0.84,1.69 -1.53,2.41l-7.07 7.32 2.28 2.2 7.07 -7.32c0.79,-0.83 1.42,-1.74 1.89,-2.73 0.48,-0.99 0.78,-2.01 0.92,-3.07 0.14,-1.07 0.13,-2.13 -0.06,-3.18 -0.17,-1.06 -0.52,-2.07 -1.03,-3.04 -0.49,-0.97 -1.16,-1.85 -1.99,-2.65l-4.58 -4.43c-0.83,-0.8 -1.74,-1.42 -2.72,-1.89 -0.99,-0.47 -2.01,-0.77 -3.06,-0.91 -1.06,-0.14 -2.12,-0.11 -3.17,0.07 -1.06,0.19 -2.06,0.53 -3.04,1.04 -0.96,0.5 -1.84,1.17 -2.64,1.98zm1.18 -14.49l-15.75 13.21 2.03 2.42 3.79 1.53 2.74 -2.3 -3.79 -1.53 13 -10.91 -2.02 -2.42zm-24.66 -21.85c-0.72,0.51 -1.3,1.13 -1.74,1.84 -0.45,0.72 -0.74,1.48 -0.88,2.3 -0.14,0.81 -0.13,1.63 0.04,2.46 0.17,0.82 0.51,1.59 1.02,2.32l-7.04 -1.89 -2.54 1.78 15.53 22.17 2.54 -1.78 -12.69 -18.13 6.98 1.86 0.02 -0.01 3.97 5.66 2.58 -1.81 -6.76 -9.66c-0.34,-0.49 -0.52,-1.02 -0.57,-1.58 -0.04,-0.56 0.06,-1.1 0.29,-1.61 0.24,-0.52 0.6,-0.95 1.09,-1.3 0.49,-0.33 1.01,-0.52 1.57,-0.56 0.57,-0.04 1.11,0.06 1.62,0.29 0.51,0.23 0.95,0.58 1.29,1.07l8.18 11.69c0.48,0.68 0.82,1.42 1.04,2.22 0.21,0.79 0.28,1.59 0.22,2.41 -0.06,0.82 -0.25,1.61 -0.58,2.38l3.2 0.59c0.35,-1.06 0.54,-2.13 0.57,-3.23 0.03,-1.09 -0.11,-2.16 -0.43,-3.22 -0.31,-1.05 -0.78,-2.04 -1.42,-2.95l-8.18 -11.69c-0.51,-0.72 -1.12,-1.29 -1.83,-1.74 -0.71,-0.44 -1.47,-0.74 -2.29,-0.89 -0.81,-0.15 -1.63,-0.13 -2.45,0.03 -0.82,0.17 -1.6,0.51 -2.33,1.01zm-13.43 -40.19l-2.89 1.28 9.09 20.41 -15.89 7.08 1.29 2.88 18.77 -8.36 -10.37 -23.29zm-18.87 -23.24l-9.68 3.15 0.97 3.01 9.68 -3.15c0.95,-0.3 1.89,-0.41 2.83,-0.32 0.94,0.08 1.83,0.33 2.66,0.74 0.83,0.42 1.56,0.98 2.19,1.69 0.62,0.7 1.09,1.53 1.4,2.47l1.97 6.07c0.3,0.94 0.41,1.89 0.32,2.83 -0.08,0.94 -0.34,1.82 -0.77,2.67 -0.42,0.83 -0.99,1.56 -1.7,2.19 -0.71,0.62 -1.54,1.1 -2.48,1.41l-9.68 3.14 0.98 3.01 9.68 -3.14c1.1,-0.36 2.08,-0.87 2.95,-1.52 0.88,-0.66 1.63,-1.41 2.26,-2.28 0.62,-0.88 1.11,-1.82 1.44,-2.84 0.34,-1.01 0.51,-2.06 0.52,-3.16 0.01,-1.09 -0.16,-2.18 -0.51,-3.28l-1.97 -6.06c-0.36,-1.09 -0.87,-2.07 -1.52,-2.95 -0.65,-0.87 -1.41,-1.62 -2.28,-2.23 -0.87,-0.62 -1.81,-1.09 -2.83,-1.43 -1.02,-0.33 -2.07,-0.49 -3.17,-0.5 -1.09,-0.01 -2.18,0.16 -3.27,0.51zm8.39 -12.61l-20.03 4.62 0.71 3.08 2.68 3.08 3.49 -0.81 -2.68 -3.08 16.54 -3.82 -0.71 -3.07zm-10.75 -30.79c-0.89,0.11 -1.68,0.38 -2.4,0.8 -0.73,0.42 -1.35,0.95 -1.86,1.61 -0.51,0.65 -0.88,1.37 -1.12,2.19 -0.23,0.81 -0.3,1.65 -0.2,2.53l-5.32 -4.97 -3.08 0.38 3.3 26.87 3.08 -0.38 -2.7 -21.97 5.29 4.92 0.03 -0 0.84 6.85 3.13 -0.38 -1.43 -11.7c-0.08,-0.6 0.01,-1.15 0.25,-1.67 0.23,-0.51 0.57,-0.94 1.01,-1.29 0.45,-0.34 0.97,-0.55 1.56,-0.63 0.59,-0.07 1.14,0.01 1.65,0.24 0.52,0.24 0.95,0.57 1.29,1.01 0.34,0.44 0.56,0.96 0.64,1.55l1.74 14.16c0.09,0.83 0.05,1.64 -0.13,2.44 -0.19,0.8 -0.5,1.54 -0.94,2.23 -0.44,0.69 -0.97,1.3 -1.62,1.82l2.55 2.02c0.81,-0.77 1.48,-1.63 2.02,-2.58 0.54,-0.96 0.91,-1.97 1.14,-3.05 0.22,-1.07 0.26,-2.17 0.13,-3.27l-1.73 -14.16c-0.12,-0.88 -0.38,-1.67 -0.8,-2.4 -0.42,-0.72 -0.96,-1.34 -1.61,-1.85 -0.65,-0.51 -1.38,-0.89 -2.18,-1.12 -0.8,-0.24 -1.65,-0.31 -2.53,-0.2zm8.48 -41.91l-3.15 -0.28 -1.95 22.26 -17.33 -1.52 -0.27 3.15 20.48 1.79 2.22 -25.4zm-3.87 -29.8l-9.87 -2.47 -0.76 3.07 9.87 2.46c0.96,0.25 1.83,0.66 2.57,1.23 0.75,0.57 1.38,1.24 1.86,2.04 0.49,0.8 0.8,1.66 0.96,2.59 0.16,0.92 0.12,1.87 -0.12,2.84l-1.55 6.18c-0.24,0.96 -0.65,1.82 -1.23,2.57 -0.58,0.75 -1.26,1.37 -2.07,1.85 -0.8,0.48 -1.67,0.8 -2.61,0.95 -0.93,0.16 -1.88,0.11 -2.85,-0.12l-9.88 -2.46 -0.76 3.07 9.87 2.46c1.12,0.28 2.22,0.37 3.31,0.27 1.1,-0.08 2.13,-0.33 3.13,-0.74 0.99,-0.41 1.9,-0.96 2.72,-1.64 0.82,-0.68 1.53,-1.48 2.12,-2.41 0.58,-0.91 1.02,-1.93 1.31,-3.05l1.54 -6.18c0.27,-1.12 0.36,-2.22 0.28,-3.3 -0.09,-1.08 -0.34,-2.12 -0.75,-3.11 -0.41,-0.99 -0.96,-1.89 -1.65,-2.71 -0.69,-0.82 -1.49,-1.52 -2.41,-2.11 -0.91,-0.58 -1.93,-1.01 -3.04,-1.29zm12.81 -6.39l-19.43 -6.69 -1.03 2.98 0.64 4.04 3.39 1.16 -0.64 -4.03 16.05 5.52 1.03 -2.98zm5.5 -32.22c-0.82,-0.33 -1.65,-0.48 -2.49,-0.46 -0.84,0.02 -1.64,0.18 -2.4,0.51 -0.76,0.33 -1.44,0.78 -2.04,1.37 -0.59,0.59 -1.06,1.3 -1.39,2.12l-2.25 -6.93 -2.88 -1.16 -10.14 25.1 2.88 1.16 8.29 -20.52 2.24 6.87 0.03 0.01 -2.59 6.41 2.92 1.18 4.42 -10.93c0.23,-0.56 0.58,-1 1.03,-1.34 0.45,-0.33 0.95,-0.55 1.51,-0.63 0.57,-0.08 1.12,-0.01 1.68,0.21 0.55,0.23 0.99,0.56 1.33,1.01 0.34,0.45 0.56,0.95 0.64,1.51 0.09,0.56 0.02,1.11 -0.19,1.66l-5.35 13.23c-0.31,0.77 -0.74,1.46 -1.29,2.07 -0.55,0.6 -1.18,1.1 -1.91,1.5 -0.72,0.4 -1.48,0.67 -2.3,0.81l1.24 3.01c1.08,-0.28 2.08,-0.71 3.02,-1.29 0.94,-0.58 1.76,-1.28 2.47,-2.11 0.71,-0.83 1.28,-1.77 1.7,-2.8l5.35 -13.23c0.33,-0.82 0.48,-1.64 0.47,-2.48 -0.01,-0.84 -0.19,-1.64 -0.5,-2.4 -0.32,-0.77 -0.77,-1.44 -1.36,-2.04 -0.58,-0.59 -1.29,-1.06 -2.12,-1.4zm28.56 -32l-2.56 -1.86 -13.13 18.07 -14.07 -10.22 -1.86 2.55 16.63 12.08 14.98 -20.62zm10.37 -27.99l-7.68 -6.67 -2.07 2.39 7.68 6.68c0.74,0.65 1.32,1.41 1.73,2.26 0.41,0.84 0.66,1.73 0.73,2.66 0.07,0.93 -0.04,1.84 -0.32,2.74 -0.28,0.9 -0.74,1.73 -1.4,2.48l-4.18 4.81c-0.66,0.74 -1.41,1.33 -2.26,1.74 -0.85,0.41 -1.75,0.64 -2.68,0.71 -0.94,0.07 -1.86,-0.05 -2.76,-0.33 -0.9,-0.29 -1.73,-0.75 -2.48,-1.4l-7.68 -6.68 -2.07 2.39 7.68 6.67c0.87,0.75 1.81,1.33 2.82,1.75 1.01,0.42 2.05,0.67 3.12,0.76 1.07,0.08 2.13,0.01 3.17,-0.23 1.05,-0.23 2.04,-0.63 2.98,-1.18 0.94,-0.55 1.79,-1.26 2.55,-2.13l4.18 -4.81c0.75,-0.88 1.33,-1.81 1.74,-2.82 0.41,-1.01 0.66,-2.05 0.74,-3.11 0.08,-1.07 0,-2.12 -0.23,-3.16 -0.25,-1.04 -0.64,-2.03 -1.19,-2.97 -0.55,-0.93 -1.26,-1.78 -2.12,-2.54zm15.21 0.77l-14.02 -15.03 -2.31 2.15 -1.33 3.86 2.44 2.62 1.33 -3.87 11.58 12.42 2.31 -2.15zm20.59 -25.07c-0.55,-0.69 -1.19,-1.24 -1.92,-1.65 -0.74,-0.4 -1.52,-0.66 -2.34,-0.76 -0.82,-0.1 -1.64,-0.04 -2.45,0.17 -0.81,0.22 -1.56,0.59 -2.27,1.14l1.52 -7.13 -1.91 -2.45 -21.33 16.67 1.91 2.45 17.44 -13.63 -1.48 7.07 0.01 0.02 -5.44 4.26 1.95 2.48 9.29 -7.26c0.48,-0.37 0.99,-0.58 1.55,-0.65 0.56,-0.07 1.1,0 1.63,0.21 0.53,0.21 0.98,0.55 1.35,1.01 0.36,0.47 0.58,0.99 0.65,1.55 0.07,0.56 0,1.1 -0.2,1.63 -0.2,0.52 -0.53,0.97 -1,1.34l-11.24 8.79c-0.66,0.51 -1.38,0.89 -2.15,1.15 -0.78,0.25 -1.58,0.36 -2.4,0.35 -0.82,-0.02 -1.62,-0.16 -2.39,-0.45l-0.42 3.22c1.07,0.3 2.16,0.43 3.25,0.4 1.1,-0.03 2.16,-0.23 3.2,-0.6 1.03,-0.36 1.99,-0.89 2.88,-1.57l11.25 -8.79c0.69,-0.54 1.23,-1.18 1.64,-1.91 0.41,-0.74 0.66,-1.51 0.76,-2.33 0.11,-0.82 0.06,-1.64 -0.15,-2.44 -0.21,-0.81 -0.59,-1.57 -1.14,-2.28zm40.78 -14.4l-1.39 -2.84 -20.08 9.79 -7.63 -15.63 -2.83 1.39 9.01 18.47 22.91 -11.17zm23.1 -18.6l-3.14 -9.68 -3.01 0.98 3.15 9.68c0.3,0.94 0.41,1.89 0.32,2.83 -0.08,0.94 -0.33,1.83 -0.74,2.66 -0.42,0.83 -0.98,1.56 -1.69,2.18 -0.7,0.63 -1.53,1.09 -2.47,1.4l-6.07 1.97c-0.94,0.3 -1.89,0.41 -2.83,0.32 -0.94,-0.09 -1.82,-0.34 -2.66,-0.77 -0.83,-0.42 -1.56,-0.99 -2.19,-1.71 -0.62,-0.7 -1.09,-1.53 -1.4,-2.48l-3.14 -9.68 -3.01 0.98 3.14 9.68c0.36,1.09 0.87,2.07 1.52,2.95 0.65,0.88 1.41,1.63 2.27,2.26 0.88,0.62 1.82,1.11 2.84,1.44 1.01,0.34 2.07,0.51 3.16,0.52 1.09,0.01 2.18,-0.16 3.28,-0.5l6.06 -1.97c1.09,-0.36 2.07,-0.86 2.95,-1.51 0.88,-0.65 1.62,-1.41 2.23,-2.29 0.62,-0.87 1.1,-1.81 1.43,-2.82 0.33,-1.02 0.49,-2.07 0.51,-3.17 0.01,-1.09 -0.16,-2.18 -0.51,-3.27zm12.44 8l-4.62 -20.03 -3.08 0.71 -3.08 2.68 0.81 3.49 3.08 -2.68 3.82 16.54 3.07 -0.71zm30.73 -10.98c-0.11,-0.88 -0.38,-1.68 -0.8,-2.4 -0.42,-0.73 -0.96,-1.34 -1.61,-1.86 -0.65,-0.5 -1.38,-0.88 -2.19,-1.11 -0.81,-0.23 -1.65,-0.3 -2.52,-0.2l4.97 -5.32 -0.38 -3.09 -26.87 3.3 0.38 3.08 21.97 -2.7 -4.92 5.29 0 0.03 -6.86 0.84 0.38 3.13 11.7 -1.43c0.6,-0.07 1.15,0.01 1.67,0.25 0.51,0.23 0.94,0.57 1.29,1.01 0.34,0.46 0.55,0.97 0.63,1.56 0.07,0.59 -0.01,1.15 -0.24,1.65 -0.24,0.52 -0.57,0.95 -1.01,1.3 -0.44,0.34 -0.96,0.56 -1.55,0.64l-14.16 1.73c-0.83,0.1 -1.64,0.06 -2.44,-0.13 -0.8,-0.19 -1.54,-0.5 -2.23,-0.94 -0.7,-0.43 -1.31,-0.97 -1.82,-1.62l-2.02 2.55c0.77,0.81 1.63,1.48 2.58,2.02 0.95,0.53 1.97,0.91 3.05,1.13 1.07,0.22 2.16,0.26 3.27,0.13l14.16 -1.74c0.88,-0.11 1.67,-0.38 2.4,-0.8 0.73,-0.42 1.34,-0.95 1.85,-1.61 0.51,-0.65 0.89,-1.37 1.13,-2.17 0.24,-0.8 0.3,-1.65 0.2,-2.53zm42.01 7.4l0.22 -3.16 -22.29 -1.56 1.22 -17.35 -3.15 -0.22 -1.43 20.51 25.43 1.78zm29.21 -5.23l1.77 -10.02 -3.11 -0.55 -1.77 10.02c-0.18,0.98 -0.53,1.87 -1.04,2.65 -0.51,0.79 -1.15,1.46 -1.91,1.99 -0.76,0.55 -1.59,0.92 -2.51,1.14 -0.91,0.22 -1.86,0.25 -2.84,0.08l-6.28 -1.1c-0.97,-0.18 -1.86,-0.53 -2.65,-1.05 -0.79,-0.52 -1.45,-1.16 -1.99,-1.93 -0.53,-0.77 -0.91,-1.61 -1.13,-2.53 -0.22,-0.92 -0.25,-1.88 -0.08,-2.86l1.77 -10.02 -3.11 -0.55 -1.77 10.03c-0.2,1.14 -0.21,2.24 -0.04,3.32 0.16,1.08 0.48,2.1 0.95,3.06 0.48,0.96 1.08,1.83 1.83,2.61 0.73,0.78 1.58,1.42 2.55,1.95 0.96,0.52 2,0.89 3.14,1.09l6.27 1.1c1.13,0.2 2.23,0.21 3.31,0.05 1.08,-0.17 2.09,-0.49 3.05,-0.97 0.95,-0.48 1.82,-1.08 2.59,-1.82 0.77,-0.75 1.4,-1.59 1.94,-2.55 0.52,-0.96 0.87,-2 1.08,-3.13zm7.25 13.39l5.32 -19.86 -3.05 -0.82 -3.98 0.91 -0.93 3.46 3.98 -0.92 -4.39 16.4 3.04 0.82zm32.09 5.01c0.31,-0.83 0.45,-1.66 0.42,-2.5 -0.03,-0.84 -0.21,-1.64 -0.56,-2.39 -0.33,-0.75 -0.8,-1.42 -1.41,-2.02 -0.6,-0.58 -1.31,-1.03 -2.14,-1.35l6.89 -2.37 1.11 -2.89 -25.27 -9.71 -1.12 2.89 20.67 7.93 -6.83 2.37 -0.01 0.02 -6.45 -2.47 -1.13 2.95 11 4.22c0.57,0.22 1.01,0.56 1.36,1 0.34,0.44 0.57,0.94 0.66,1.5 0.09,0.56 0.03,1.11 -0.18,1.67 -0.22,0.56 -0.54,1 -0.99,1.35 -0.45,0.35 -0.95,0.57 -1.5,0.66 -0.56,0.09 -1.11,0.05 -1.66,-0.16l-13.33 -5.11c-0.78,-0.31 -1.47,-0.72 -2.09,-1.26 -0.61,-0.54 -1.13,-1.16 -1.53,-1.89 -0.41,-0.71 -0.7,-1.47 -0.85,-2.29l-2.98 1.3c0.3,1.07 0.74,2.07 1.33,2.99 0.59,0.92 1.32,1.73 2.16,2.43 0.84,0.7 1.79,1.25 2.83,1.65l13.32 5.11c0.82,0.32 1.65,0.45 2.49,0.43 0.84,-0.04 1.64,-0.22 2.39,-0.55 0.76,-0.33 1.43,-0.8 2.01,-1.4 0.58,-0.6 1.04,-1.32 1.37,-2.14zm33.02 27.75l1.68 -2.68 -18.94 -11.84 9.22 -14.76 -2.68 -1.67 -10.89 17.43 21.62 13.51zm27.81 10.49l6.67 -7.68 -2.39 -2.07 -6.68 7.68c-0.65,0.75 -1.41,1.33 -2.26,1.74 -0.84,0.41 -1.73,0.66 -2.66,0.73 -0.93,0.07 -1.84,-0.04 -2.74,-0.32 -0.9,-0.28 -1.73,-0.75 -2.47,-1.4l-4.81 -4.18c-0.74,-0.66 -1.33,-1.4 -1.74,-2.26 -0.41,-0.85 -0.64,-1.74 -0.71,-2.68 -0.06,-0.93 0.05,-1.85 0.33,-2.75 0.29,-0.9 0.75,-1.73 1.4,-2.49l6.68 -7.68 -2.39 -2.07 -6.67 7.68c-0.75,0.87 -1.33,1.81 -1.75,2.83 -0.42,1.01 -0.67,2.05 -0.76,3.11 -0.08,1.07 -0.01,2.14 0.23,3.18 0.24,1.05 0.63,2.04 1.18,2.98 0.55,0.94 1.26,1.79 2.13,2.55l4.81 4.19c0.88,0.74 1.81,1.32 2.82,1.74 1.01,0.41 2.05,0.66 3.11,0.74 1.07,0.08 2.12,0 3.16,-0.23 1.04,-0.25 2.03,-0.64 2.97,-1.19 0.93,-0.56 1.78,-1.26 2.54,-2.12zm-0.56 14.71l14.79 -14.28 -2.19 -2.27 -3.89 -1.27 -2.57 2.49 3.88 1.27 -12.21 11.79 2.19 2.27zm25.26 20.61c0.69,-0.56 1.22,-1.21 1.62,-1.95 0.39,-0.74 0.63,-1.53 0.72,-2.35 0.08,-0.82 0.01,-1.64 -0.21,-2.45 -0.23,-0.81 -0.62,-1.55 -1.18,-2.25l7.16 1.4 2.41 -1.96 -17.03 -21.04 -2.41 1.95 13.92 17.2 -7.09 -1.37 -0.02 0.01 -4.35 -5.37 -2.45 1.99 7.41 9.16c0.38,0.47 0.6,0.99 0.68,1.54 0.07,0.56 0.02,1.1 -0.18,1.63 -0.2,0.54 -0.53,0.99 -0.99,1.37 -0.46,0.37 -0.98,0.59 -1.53,0.68 -0.56,0.08 -1.1,0.02 -1.63,-0.18 -0.53,-0.19 -0.99,-0.51 -1.36,-0.97l-8.98 -11.09c-0.52,-0.65 -0.91,-1.36 -1.18,-2.14 -0.26,-0.77 -0.39,-1.57 -0.39,-2.39 0,-0.82 0.13,-1.62 0.41,-2.41l-3.23 -0.36c-0.29,1.08 -0.4,2.17 -0.34,3.26 0.05,1.1 0.26,2.16 0.65,3.19 0.39,1.03 0.93,1.98 1.62,2.85l8.98 11.09c0.56,0.68 1.21,1.22 1.95,1.61 0.74,0.39 1.52,0.63 2.35,0.72 0.82,0.09 1.64,0.02 2.44,-0.2 0.81,-0.23 1.56,-0.62 2.25,-1.17zm15.1 40.37l2.82 -1.44 -10.14 -19.9 15.5 -7.9 -1.43 -2.81 -18.32 9.33 11.58 22.71zm18.9 22.68l9.62 -3.32 -1.03 -2.98 -9.62 3.31c-0.94,0.32 -1.89,0.45 -2.82,0.38 -0.94,-0.07 -1.83,-0.3 -2.67,-0.7 -0.84,-0.41 -1.58,-0.95 -2.22,-1.65 -0.64,-0.69 -1.12,-1.5 -1.45,-2.45l-2.07 -6.03c-0.32,-0.93 -0.45,-1.88 -0.37,-2.82 0.08,-0.94 0.31,-1.83 0.73,-2.68 0.41,-0.84 0.97,-1.57 1.67,-2.22 0.69,-0.64 1.51,-1.12 2.46,-1.45l9.62 -3.31 -1.03 -2.99 -9.62 3.31c-1.09,0.38 -2.07,0.91 -2.93,1.57 -0.87,0.67 -1.61,1.44 -2.22,2.32 -0.61,0.89 -1.07,1.84 -1.4,2.86 -0.32,1.02 -0.47,2.08 -0.46,3.17 0.01,1.09 0.19,2.18 0.57,3.27l2.07 6.03c0.38,1.08 0.91,2.06 1.57,2.93 0.67,0.86 1.44,1.59 2.32,2.19 0.89,0.6 1.83,1.07 2.86,1.38 1.02,0.31 2.08,0.46 3.17,0.45 1.09,-0.01 2.18,-0.2 3.26,-0.57zm-7.59 12.62l19.94 -4.98 -0.76 -3.06 -2.73 -3.04 -3.48 0.87 2.73 3.04 -16.47 4.11 0.77 3.06zm11.57 30.36c0.88,-0.13 1.67,-0.41 2.39,-0.84 0.72,-0.43 1.33,-0.98 1.82,-1.65 0.5,-0.66 0.86,-1.39 1.08,-2.21 0.22,-0.81 0.27,-1.65 0.15,-2.54l5.42 4.88 3.07 -0.43 -3.76 -26.81 -3.08 0.44 3.08 21.91 -5.38 -4.82 -0.03 0 -0.96 -6.84 -3.12 0.44 1.64 11.68c0.08,0.6 0,1.15 -0.22,1.67 -0.22,0.51 -0.55,0.95 -0.99,1.3 -0.45,0.35 -0.97,0.57 -1.56,0.66 -0.58,0.08 -1.14,0 -1.66,-0.21 -0.52,-0.22 -0.96,-0.55 -1.31,-0.99 -0.35,-0.44 -0.58,-0.95 -0.66,-1.54l-1.99 -14.13c-0.11,-0.83 -0.08,-1.63 0.08,-2.44 0.17,-0.8 0.48,-1.55 0.91,-2.26 0.42,-0.7 0.94,-1.32 1.59,-1.85l-2.58 -1.97c-0.8,0.78 -1.45,1.65 -1.97,2.62 -0.52,0.96 -0.88,1.98 -1.08,3.07 -0.2,1.08 -0.23,2.17 -0.08,3.28l1.99 14.13c0.13,0.88 0.41,1.66 0.83,2.38 0.43,0.72 0.98,1.32 1.64,1.83 0.66,0.5 1.39,0.86 2.2,1.08 0.81,0.22 1.65,0.28 2.54,0.16zm-6.43 42.46l3.16 0.06 0.39 -22.34 17.39 0.31 0.06 -3.16 -20.56 -0.35 -0.44 25.49zm5.25 29.13l10.02 1.77 0.55 -3.11 -10.03 -1.77c-0.98,-0.18 -1.87,-0.53 -2.65,-1.04 -0.79,-0.51 -1.46,-1.15 -1.99,-1.91 -0.55,-0.76 -0.92,-1.59 -1.14,-2.51 -0.22,-0.91 -0.25,-1.86 -0.08,-2.84l1.1 -6.28c0.18,-0.97 0.53,-1.86 1.05,-2.65 0.52,-0.79 1.16,-1.45 1.93,-1.99 0.76,-0.53 1.61,-0.91 2.53,-1.13 0.92,-0.22 1.87,-0.25 2.85,-0.08l10.03 1.77 0.55 -3.11 -10.02 -1.77c-1.14,-0.2 -2.24,-0.21 -3.32,-0.04 -1.09,0.16 -2.11,0.48 -3.06,0.95 -0.96,0.48 -1.84,1.08 -2.61,1.83 -0.78,0.73 -1.42,1.58 -1.95,2.55 -0.52,0.96 -0.89,2 -1.09,3.14l-1.11 6.27c-0.2,1.13 -0.21,2.23 -0.05,3.31 0.17,1.08 0.49,2.09 0.97,3.05 0.48,0.95 1.08,1.82 1.82,2.59 0.75,0.77 1.59,1.4 2.55,1.94 0.96,0.52 2,0.87 3.13,1.08zm-13.27 7.13l19.86 5.33 0.82 -3.05 -0.91 -3.98 -3.46 -0.93 0.91 3.98 -16.39 -4.39 -0.82 3.04zm-4.78 32.43c0.83,0.32 1.66,0.45 2.5,0.42 0.84,-0.03 1.64,-0.21 2.39,-0.56 0.76,-0.33 1.42,-0.8 2.02,-1.41 0.58,-0.6 1.03,-1.31 1.36,-2.14l2.37 6.89 2.9 1.11 9.7 -25.27 -2.89 -1.12 -7.93 20.67 -2.37 -6.83 -0.02 -0.01 2.47 -6.45 -2.95 -1.13 -4.22 11c-0.22,0.57 -0.56,1.01 -1,1.36 -0.44,0.34 -0.94,0.57 -1.5,0.66 -0.56,0.09 -1.12,0.03 -1.67,-0.18 -0.56,-0.22 -1,-0.54 -1.35,-0.99 -0.35,-0.45 -0.57,-0.95 -0.66,-1.5 -0.1,-0.56 -0.05,-1.11 0.16,-1.66l5.11 -13.33c0.3,-0.77 0.72,-1.47 1.26,-2.09 0.54,-0.61 1.16,-1.12 1.88,-1.53 0.71,-0.41 1.47,-0.7 2.29,-0.85l-1.3 -2.98c-1.07,0.3 -2.07,0.74 -2.99,1.33 -0.92,0.59 -1.73,1.32 -2.43,2.16 -0.7,0.84 -1.25,1.79 -1.65,2.83l-5.11 13.32c-0.32,0.82 -0.45,1.65 -0.42,2.49 0.03,0.84 0.22,1.64 0.55,2.39 0.33,0.76 0.79,1.43 1.39,2.01 0.6,0.58 1.32,1.04 2.14,1.37zm-26.84 33.24l2.68 1.67 11.84 -18.94 14.76 9.22 1.67 -2.68 -17.43 -10.89 -13.51 21.62zm-10.18 28.06l7.68 6.67 2.07 -2.38 -7.68 -6.68c-0.75,-0.65 -1.33,-1.41 -1.74,-2.26 -0.41,-0.84 -0.66,-1.73 -0.73,-2.66 -0.07,-0.93 0.04,-1.84 0.32,-2.74 0.29,-0.9 0.75,-1.72 1.4,-2.47l4.18 -4.81c0.66,-0.74 1.41,-1.32 2.26,-1.73 0.85,-0.41 1.75,-0.64 2.68,-0.71 0.94,-0.06 1.85,0.05 2.76,0.33 0.9,0.28 1.73,0.75 2.48,1.4l7.68 6.68 2.07 -2.39 -7.68 -6.68c-0.87,-0.75 -1.81,-1.33 -2.83,-1.75 -1.01,-0.42 -2.05,-0.67 -3.11,-0.76 -1.07,-0.08 -2.14,-0.01 -3.18,0.23 -1.05,0.23 -2.04,0.63 -2.97,1.18 -0.94,0.55 -1.79,1.26 -2.55,2.12l-4.18 4.81c-0.75,0.87 -1.33,1.81 -1.74,2.82 -0.41,1.01 -0.66,2.05 -0.74,3.11 -0.08,1.06 -0,2.11 0.23,3.16 0.25,1.05 0.65,2.03 1.19,2.97 0.56,0.94 1.27,1.79 2.13,2.54zm-14.6 -0.1l14.28 14.79 2.27 -2.19 1.27 -3.89 -2.49 -2.57 -1.27 3.88 -11.79 -12.21 -2.27 2.19zm-20.1 25.59c0.57,0.69 1.21,1.22 1.96,1.62 0.74,0.39 1.52,0.63 2.35,0.72 0.82,0.08 1.64,0.02 2.45,-0.21 0.81,-0.23 1.56,-0.62 2.25,-1.17l-1.4 7.15 1.96 2.41 21.04 -17.04 -1.96 -2.41 -17.2 13.93 1.37 -7.09 -0.01 -0.02 5.37 -4.35 -1.98 -2.45 -9.16 7.42c-0.47,0.37 -0.99,0.6 -1.55,0.67 -0.56,0.07 -1.09,0.02 -1.63,-0.18 -0.54,-0.2 -0.99,-0.53 -1.37,-0.99 -0.37,-0.46 -0.59,-0.98 -0.67,-1.53 -0.08,-0.57 -0.02,-1.11 0.18,-1.63 0.19,-0.53 0.51,-0.99 0.97,-1.36l11.09 -8.98c0.65,-0.52 1.36,-0.91 2.14,-1.18 0.77,-0.26 1.56,-0.39 2.39,-0.39 0.82,0 1.62,0.14 2.41,0.41l0.36 -3.23c-1.08,-0.28 -2.17,-0.4 -3.26,-0.34 -1.09,0.05 -2.16,0.27 -3.19,0.66 -1.03,0.39 -1.97,0.92 -2.85,1.62l-11.09 8.98c-0.68,0.56 -1.22,1.21 -1.61,1.94 -0.39,0.74 -0.63,1.52 -0.72,2.35 -0.09,0.82 -0.02,1.64 0.2,2.44 0.23,0.81 0.62,1.56 1.17,2.25z"/>
   </g>
   <path class="fil27" d="M1633.15 343.69c-5.39,-5.62 -9.48,-12.33 -12.02,-19.62 -6.24,4.87 -14.76,6.54 -22.77,3.68 -12.43,-4.44 -18.91,-18.12 -14.47,-30.56 4.44,-12.43 18.13,-18.91 30.55,-14.46 2.77,0.99 5.23,2.44 7.35,4.22 9.95,-25.62 37.6,-39.45 63.85,-32.46 0.37,-1.94 0.89,-3.88 1.57,-5.79 7.1,-19.86 28.97,-30.21 48.83,-23.12 16.97,6.07 26.99,22.91 25.12,40.08 2.73,0.27 5.47,0.87 8.17,1.83 16,5.71 25.07,22.19 21.96,38.38 4.88,-1.2 9.91,-1.92 15,-2.14l0.34 -1c7.24,-20.26 29.54,-30.82 49.8,-23.58 9.79,3.5 17.31,10.51 21.65,19.1 9.15,-2.37 19.09,-2.11 28.66,1.31 5.85,2.09 11.06,5.19 15.51,9.03 4.69,-0.55 9.59,-0.06 14.34,1.64 16.49,5.89 25.08,24.04 19.19,40.52 -3.91,10.94 -13.21,18.4 -23.84,20.47 -9.77,15.93 -27.91,24.88 -46.41,23.05 -0.75,4.2 -1.85,8.39 -3.33,12.53 -14.34,40.13 -58.5,61.04 -98.63,46.7 -24.85,-8.88 -42.32,-29.21 -48.63,-52.92 -7.72,0.78 -15.72,-0.09 -23.52,-2.88 -14.63,-5.23 -25.59,-16.13 -31.3,-29.34 -5.14,13.61 -20.26,20.65 -34.01,15.73 -13.91,-4.97 -21.15,-20.27 -16.18,-34.18 0.81,-2.26 1.89,-4.36 3.2,-6.24zm-112.86 -46.74c4.57,1.64 6.95,6.66 5.32,11.23 -1.64,4.57 -6.66,6.95 -11.23,5.32 -4.57,-1.64 -6.95,-6.66 -5.32,-11.23 1.64,-4.57 6.66,-6.95 11.23,-5.32zm504.76 53.01c6.75,2.41 10.27,9.85 7.86,16.6 -2.41,6.75 -9.85,10.27 -16.6,7.86 -6.75,-2.41 -10.27,-9.85 -7.86,-16.6 2.41,-6.75 9.85,-10.27 16.6,-7.86zm-116.42 87.39c7.95,2.84 12.09,11.59 9.25,19.53 -2.84,7.95 -11.59,12.09 -19.53,9.25 -7.94,-2.84 -12.09,-11.59 -9.24,-19.53 2.84,-7.94 11.59,-12.09 19.53,-9.24zm62.91 -48.91c12.71,4.54 19.34,18.54 14.8,31.25 -4.54,12.71 -18.54,19.34 -31.25,14.8 -12.71,-4.54 -19.34,-18.54 -14.79,-31.25 4.54,-12.71 18.54,-19.34 31.25,-14.8zm-404.01 -158.98c5.96,2.13 9.06,8.69 6.93,14.65 -2.13,5.96 -8.69,9.06 -14.65,6.93 -5.96,-2.13 -9.06,-8.69 -6.94,-14.65 2.13,-5.96 8.69,-9.06 14.65,-6.94z"/>
   <path class="fil2" d="M167.71 1199.82c9.22,-4.61 22.28,-12.29 25.35,-22.28 3.07,-9.99 17.67,-18.44 22.28,-13.83 1.73,1.73 3.67,3.25 5.43,4.46 2.92,2.02 5.33,3.22 5.33,3.22l-12.65 3.55c0,0 -2.67,4.96 1.91,11.84 4.58,6.87 3.91,16.01 -8.4,19.47 -12.31,3.46 -36.27,-3.05 -48.11,-0.38 -11.84,2.67 -20.24,3.82 -20.24,3.82l29.09 -9.87z"/>
   <path class="fil24" style="mask:url(#id4)" d="M814.16 543.37c-63,43.03 -73.76,109.1 -79.14,135.22 -5.38,26.12 48.4,-72.22 79.14,-135.22z"/>
   <path class="fil28" d="M786.27 1467.25c-0.01,-3.31 -0.67,-6.44 -1.93,-9.33 -1.26,-2.89 -3.01,-5.44 -5.23,-7.65 -2.23,-2.2 -4.79,-3.94 -7.7,-5.18 -2.89,-1.24 -6,-1.88 -9.3,-1.89l-50.98 0c-3.29,0.01 -6.4,0.66 -9.29,1.89 -2.91,1.24 -5.46,2.98 -7.7,5.18 -2.22,2.2 -3.97,4.76 -5.23,7.65 -1.26,2.89 -1.91,6.01 -1.93,9.33 0.02,3.32 0.66,6.44 1.92,9.35 1.26,2.89 3,5.46 5.21,7.68 2.22,2.22 4.77,3.95 7.68,5.21 2.91,1.26 6.03,1.9 9.35,1.91l6.81 0 0 -12.02 -1.17 0c-2.14,0.02 -4.28,-0.1 -6.37,-0.37 -2.09,-0.26 -3.99,-0.8 -5.71,-1.63 -1.72,-0.82 -3.08,-2.02 -4.11,-3.65 -1.03,-1.63 -1.56,-3.78 -1.57,-6.48 0.01,-1.63 0.33,-3.17 0.97,-4.63 0.66,-1.45 1.53,-2.75 2.66,-3.87 1.12,-1.14 2.41,-2.02 3.87,-2.66 1.46,-0.64 3,-0.96 4.63,-0.98l50.98 0c1.63,0.02 3.18,0.34 4.63,0.98 1.46,0.64 2.75,1.53 3.87,2.66 1.14,1.12 2.02,2.41 2.66,3.87 0.64,1.46 0.98,3 0.98,4.63 0,1.69 -0.3,3.25 -0.89,4.72 -0.6,1.48 -1.46,2.75 -2.57,3.87 -1.13,1.12 -2.5,1.97 -4.1,2.59l-77.05 29.59 0 12.77 95.88 0 0 -11.92 -64.81 0 50.02 -19.26c3.21,-1.23 5.98,-2.95 8.28,-5.13 2.32,-2.2 4.1,-4.77 5.36,-7.7 1.26,-2.93 1.88,-6.1 1.89,-9.53zm105.57 34.16c-0.02,-2.88 -0.55,-5.55 -1.61,-8.04 -1.07,-2.48 -2.55,-4.67 -4.44,-6.56 -1.9,-1.88 -4.08,-3.35 -6.56,-4.42 -2.48,-1.07 -5.16,-1.62 -8.04,-1.63 -2.86,0.01 -5.53,0.57 -8.04,1.63 -2.48,1.07 -4.66,2.54 -6.56,4.42 -1.88,1.89 -3.35,4.08 -4.42,6.56 -1.07,2.48 -1.61,5.16 -1.63,8.04 0.02,2.87 0.57,5.53 1.63,8.03 1.07,2.48 2.54,4.67 4.42,6.57 1.9,1.88 4.08,3.35 6.56,4.42 2.5,1.07 5.18,1.61 8.04,1.63 2.88,-0.02 5.55,-0.57 8.04,-1.63 2.48,-1.07 4.66,-2.54 6.56,-4.42 1.88,-1.9 3.37,-4.08 4.44,-6.57 1.07,-2.5 1.59,-5.16 1.61,-8.03zm-17.35 -58.21l-11.92 0 -48.1 80.88 11.92 0 48.1 -80.88zm-35.44 22.67c-0.01,-2.88 -0.57,-5.55 -1.63,-8.04 -1.06,-2.48 -2.54,-4.67 -4.42,-6.56 -1.89,-1.88 -4.08,-3.35 -6.56,-4.42 -2.48,-1.07 -5.16,-1.62 -8.04,-1.63 -2.87,0.01 -5.53,0.57 -8.03,1.63 -2.48,1.07 -4.67,2.54 -6.57,4.42 -1.88,1.89 -3.35,4.08 -4.42,6.56 -1.06,2.48 -1.61,5.16 -1.63,8.04 0.02,2.86 0.57,5.53 1.63,8.03 1.07,2.48 2.54,4.67 4.42,6.57 1.9,1.88 4.08,3.35 6.57,4.42 2.5,1.06 5.16,1.61 8.03,1.63 2.88,-0.02 5.55,-0.57 8.04,-1.63 2.48,-1.07 4.67,-2.54 6.56,-4.42 1.88,-1.9 3.36,-4.08 4.42,-6.57 1.07,-2.5 1.62,-5.18 1.63,-8.03l0 0zm43.95 35.44c-0.02,2.18 -0.57,4.17 -1.61,5.94 -1.07,1.77 -2.47,3.19 -4.24,4.26 -1.79,1.05 -3.76,1.6 -5.96,1.61 -2.18,-0.01 -4.17,-0.57 -5.94,-1.61 -1.77,-1.07 -3.19,-2.48 -4.26,-4.26 -1.05,-1.77 -1.59,-3.76 -1.61,-5.94 0.02,-2.18 0.57,-4.17 1.61,-5.94 1.07,-1.79 2.48,-3.2 4.26,-4.26 1.78,-1.05 3.76,-1.6 5.94,-1.62 2.2,0.02 4.17,0.57 5.96,1.62 1.78,1.06 3.18,2.47 4.24,4.26 1.05,1.77 1.59,3.76 1.61,5.94l0 0zm-52.78 -35.55c-0.02,2.18 -0.57,4.17 -1.62,5.94 -1.07,1.77 -2.47,3.19 -4.26,4.26 -1.77,1.05 -3.74,1.6 -5.94,1.61 -2.18,-0.01 -4.17,-0.57 -5.94,-1.61 -1.78,-1.07 -3.2,-2.48 -4.26,-4.26 -1.05,-1.78 -1.6,-3.76 -1.62,-5.94 0.02,-2.2 0.57,-4.17 1.62,-5.94 1.06,-1.79 2.48,-3.2 4.26,-4.26 1.77,-1.05 3.76,-1.59 5.94,-1.61 2.2,0.02 4.17,0.57 5.94,1.61 1.79,1.07 3.19,2.47 4.26,4.26 1.05,1.77 1.6,3.74 1.62,5.94l0 0z"/>
  </g>
 </g>
</svg>
