<?xml version="1.0" encoding="UTF-8"?>
<!DOCTYPE svg PUBLIC "-//W3C//DTD SVG 1.1//EN" "http://www.w3.org/Graphics/SVG/1.1/DTD/svg11.dtd">
<!-- Creator: CorelDRAW 2020 (64-Bit Оценочная версия) -->
<svg xmlns="http://www.w3.org/2000/svg" xml:space="preserve" width="43.9267mm" height="37.006mm" version="1.1" style="shape-rendering:geometricPrecision; text-rendering:geometricPrecision; image-rendering:optimizeQuality; fill-rule:evenodd; clip-rule:evenodd"
viewBox="0 0 2130.3 1794.67"
 xmlns:xlink="http://www.w3.org/1999/xlink"
 xmlns:xodm="http://www.corel.com/coreldraw/odm/2003">
 <defs>
  <style type="text/css">
   <![CDATA[
    .str0 {stroke:#7E71B1;stroke-width:9.7;stroke-miterlimit:22.9256}
    .str1 {stroke:#4E565A;stroke-width:3.7;stroke-miterlimit:22.9256}
    .fil44 {fill:none}
    .fil31 {fill:#FEFEFE}
    .fil58 {fill:#2B2A29}
    .fil41 {fill:#FFF383}
    .fil28 {fill:#AF9778}
    .fil40 {fill:#FECC00}
    .fil39 {fill:#CD7372}
    .fil34 {fill:#A75F4A}
    .fil30 {fill:#FCFCFC}
    .fil29 {fill:#FAFAFA}
    .fil42 {fill:#EAB11C}
    .fil27 {fill:#BBC274}
    .fil37 {fill:#D2CDE7}
    .fil0 {fill:#D4E4EC}
    .fil50 {fill:#86983B}
    .fil38 {fill:#7E71B1}
    .fil33 {fill:#523630}
    .fil45 {fill:#403631}
    .fil12 {fill:#477C4A}
    .fil48 {fill:#484A45}
    .fil46 {fill:#49423A}
    .fil47 {fill:#4F4E4C}
    .fil1 {fill:#518555}
    .fil49 {fill:#595956}
    .fil14 {fill:#5A8C5D}
    .fil22 {fill:#5A9835}
    .fil20 {fill:#5B8C62}
    .fil24 {fill:#5D9548}
    .fil5 {fill:#619266}
    .fil52 {fill:#65665A}
    .fil4 {fill:#68996C}
    .fil21 {fill:#68A433}
    .fil11 {fill:#6F9D77}
    .fil9 {fill:#79A683}
    .fil51 {fill:#84A24D}
    .fil57 {fill:#8CB177}
    .fil16 {fill:#95BDC7}
    .fil15 {fill:#9AC2CC}
    .fil19 {fill:#9CC4D4}
    .fil54 {fill:#A7B692}
    .fil25 {fill:#A8CAD6}
    .fil6 {fill:#B4D3DB}
    .fil3 {fill:#B7D4DC}
    .fil8 {fill:#BBD5DC}
    .fil10 {fill:#BDD9DD}
    .fil7 {fill:#C2D7DE}
    .fil2 {fill:#C5D9DF}
    .fil55 {fill:#D3E4CE}
    .fil23 {fill:#D8D9E7}
    .fil56 {fill:#DAE5D8}
    .fil26 {fill:#DED592}
    .fil17 {fill:#E6DBE8}
    .fil53 {fill:#E7E7E6}
    .fil13 {fill:#E9E6D9}
    .fil18 {fill:#F5F1CF}
    .fil43 {fill:#FAF2B9}
    .fil36 {fill:#FF9666}
    .fil35 {fill:#FFB882}
    .fil32 {fill:#7E71B1;fill-rule:nonzero}
   ]]>
  </style>
    <mask id="id0">
  <linearGradient id="id1" gradientUnits="userSpaceOnUse" x1="156" y1="317.13" x2="1394.51" y2="1435.08">
   <stop offset="0" style="stop-opacity:1; stop-color:white"/>
   <stop offset="1" style="stop-opacity:0; stop-color:white"/>
  </linearGradient>
     <rect style="fill:url(#id1)" x="101.83" y="323.25" width="1450.52" height="1048.65"/>
    </mask>
    <mask id="id2">
  <linearGradient id="id3" gradientUnits="userSpaceOnUse" x1="228.35" y1="321.27" x2="1636.82" y2="1215.64">
   <stop offset="0" style="stop-opacity:1; stop-color:white"/>
   <stop offset="1" style="stop-opacity:0; stop-color:white"/>
  </linearGradient>
     <rect style="fill:url(#id3)" x="176.71" y="335.5" width="1604.37" height="838.71"/>
    </mask>
    <mask id="id4">
  <linearGradient id="id5" gradientUnits="userSpaceOnUse" x1="365.48" y1="321.24" x2="1904.03" y2="966.69">
   <stop offset="0" style="stop-opacity:1; stop-color:white"/>
   <stop offset="1" style="stop-opacity:0; stop-color:white"/>
  </linearGradient>
     <rect style="fill:url(#id5)" x="317.71" y="343.04" width="1713.05" height="611.23"/>
    </mask>
    <mask id="id6">
  <linearGradient id="id7" gradientUnits="userSpaceOnUse" x1="989.23" y1="197.67" x2="1021.6" y2="225.06">
   <stop offset="0" style="stop-opacity:1; stop-color:white"/>
   <stop offset="1" style="stop-opacity:0; stop-color:white"/>
  </linearGradient>
     <rect style="fill:url(#id7)" x="975.88" y="187.6" width="96.76" height="71.81"/>
    </mask>
    <mask id="id8">
  <linearGradient id="id9" gradientUnits="userSpaceOnUse" x1="1089.98" y1="390.36" x2="1018.86" y2="488.83">
   <stop offset="0" style="stop-opacity:1; stop-color:white"/>
   <stop offset="1" style="stop-opacity:0; stop-color:white"/>
  </linearGradient>
     <rect style="fill:url(#id9)" x="766.48" y="278.84" width="164.21" height="91.76"/>
    </mask>
    <mask id="id10">
  <linearGradient id="id11" gradientUnits="userSpaceOnUse" x1="1089.98" y1="390.36" x2="1018.86" y2="488.83">
   <stop offset="0" style="stop-opacity:1; stop-color:white"/>
   <stop offset="1" style="stop-opacity:0; stop-color:white"/>
  </linearGradient>
     <rect style="fill:url(#id11)" x="1191.8" y="523.12" width="153.3" height="148.35"/>
    </mask>
    <mask id="id12">
  <linearGradient id="id13" gradientUnits="userSpaceOnUse" x1="1239.37" y1="1282.46" x2="1253.07" y2="1819.52">
   <stop offset="0" style="stop-opacity:1; stop-color:white"/>
   <stop offset="1" style="stop-opacity:0; stop-color:white"/>
  </linearGradient>
     <rect style="fill:url(#id13)" x="868.99" y="1651.57" width="113.52" height="147.95"/>
    </mask>
    <mask id="id14">
  <linearGradient id="id15" gradientUnits="userSpaceOnUse" x1="1239.37" y1="1282.46" x2="1253.07" y2="1819.52">
   <stop offset="0" style="stop-opacity:1; stop-color:white"/>
   <stop offset="1" style="stop-opacity:0; stop-color:white"/>
  </linearGradient>
     <rect style="fill:url(#id15)" x="1430.11" y="1667.66" width="238.87" height="129.71"/>
    </mask>
 </defs>
 <g id="Слой_x0020_1">
  <metadata id="CorelCorpID_0Corel-Layer"/>
  <g id="_2124784018816">
   <path class="fil0" d="M358.55 1066c27.43,0 52.21,10.98 69.91,28.65 3.58,-1.79 7.66,-2.81 11.99,-2.81 6.36,0 12.19,2.2 16.71,5.84 3.16,-6.33 9.45,-10.65 16.69,-10.65 10.42,0 18.87,8.93 18.87,19.95 0,11.01 -8.45,19.95 -18.87,19.95 -3.18,0 -6.17,-0.83 -8.79,-2.3 -2.04,5.83 -6.29,10.7 -11.78,13.7 0.22,0.9 0.44,1.8 0.63,2.72 1.58,-0.23 3.2,-0.35 4.85,-0.35 18,0 32.59,14.32 32.59,31.98 0,17.66 -14.59,31.98 -32.59,31.98 -4.59,0 -8.95,-0.93 -12.91,-2.61 -15.92,31.07 -49.03,52.43 -87.28,52.43 -15.77,0 -30.66,-3.63 -43.84,-10.08 -3.74,16.71 -17.72,29.55 -34.97,31.52 0.62,2.17 0.96,4.44 0.96,6.79 0,14.24 -12.14,25.8 -27.1,25.8 -14.96,0 -27.1,-11.55 -27.1,-25.8 0,-10.37 6.44,-19.31 15.71,-23.4 -4.84,-6.71 -7.7,-14.96 -7.7,-23.87 0,-20.11 14.53,-36.83 33.63,-40.14 -4.5,-10.84 -6.97,-22.67 -6.97,-35.06 0,-52.04 43.61,-94.24 97.38,-94.24zm-62.07 263.14c4.92,0 8.92,4.31 8.92,9.63 0,5.32 -4,9.63 -8.92,9.63 -4.93,0 -8.92,-4.31 -8.92,-9.63 0,-5.32 4,-9.63 8.92,-9.63zm222.31 -207.03c9.47,0 17.15,7.39 17.15,16.51 0,9.11 -7.68,16.5 -17.15,16.5 -9.48,0 -17.16,-7.39 -17.16,-16.5 0,-9.12 7.68,-16.51 17.16,-16.51z"/>
   <path class="fil1" d="M1410.25 1623.28c0,-52.59 18.31,-55.08 68.59,-57.62 31.48,-1.59 70.01,-8.93 106.89,-8.93 12.39,0 11.13,12.46 12.1,24.2 -13.57,-3.16 -13.91,-6.05 -30.25,-6.05l-18.15 0c-14.99,0 -40.6,9.84 -78.76,12.01 -29.2,1.66 -45.84,6.7 -48.31,36.4l-12.1 0zm369.1 -151.27l66.5 7.89 -6.74 22.13 37.04 0.23 0 6.05 -66.56 0 0 6.05 78.82 3.61 -12.26 8.5c-16.99,10.78 -45.92,8.79 -69.2,15.51 -48.88,14.1 -6.48,28.46 -45.76,38.95 -10.15,25.15 -42.36,10.72 -42.36,42.35 0,12.8 2.16,7.98 6.05,24.2 -18.41,-2.01 -30.26,-11.91 -30.26,-30.25l0 -18.15c0,-21.56 13.3,-16.07 30.26,-24.2 -6.95,-9.48 -1.12,-12.1 -18.15,-12.1 -12.8,0 -7.98,2.17 -24.2,6.05l0 -18.15 -18.15 0 -78.28 -10.15 -7.18 -19.87 -29.51 -0.23 -54.46 18.15 -18.15 12.1c-25.09,15.92 -35.29,-6.14 -65.07,19.65 -19.89,17.23 -40.92,22.56 -49.9,34.82l41.91 -7.55 -12.69 11.92 13.14 1.67 0 30.26 -48.23 7.09c4.15,9.43 8.34,17.11 -12.27,17.11l-84.71 0 0 12.1 -193.63 0 -72.61 -6.05c-19.86,-2.31 -32.08,4.96 -42.36,12.1l599.04 0 496.17 0 34.26 -5.71 0.05 -0.34 -379.22 0 0.1 -4.21 134.05 -9.56 -12.75 -7.25 132.74 -15.29 30.26 0 0 -12.1 -30.26 0 0.03 -5.51 66.53 -6.59 -107.63 -35.14 11.85 -5.55 -25.72 -4.06 2.8 -11.4 137.71 41.2 11.32 -21.31 43.4 -0.02 6.64 -42.25 -13.81 5.92 -17.42 12.98c-1.95,-55.6 -23.51,-18.69 -63.52,-34.9 -11.78,-4.78 -50.98,-32.54 -64.28,-32.54l-48.4 0 0 -12.1 -54.46 -12.1 -18.16 0 -42.35 6.05z"/>
   <path class="fil2" d="M532.88 1411.51l-145.22 24.2 -206.38 38.06c72.44,4.3 195.19,-10.69 252.55,-28.2 29.82,-9.1 211.69,-50.51 232.17,-52.22l-278.62 120.34 97.79 -58.56c-51.07,-1.28 -115.42,18.07 -157.96,29.04 -46.81,12.07 -118.78,5.98 -175.54,5.98l-11.78 6.57 5.73 47.89c9.01,23.41 16.31,0 54.46,0l18.15 0c41.02,0 65.03,22.85 96.81,30.25 11.86,-22.41 48.87,-59.04 84.71,-36.3l102.87 30.25c7.13,-26.72 69.83,-66.56 102.86,-66.56 18.83,0 27.47,23.11 36.31,36.3l54.38 0.04 12.17 24.16 6.05 0 0 -18.15c20.09,-11.08 12.1,-67.17 14.19,-112.27l21.67 -20.02 -23.75 -18.98 -30.25 -6.05 -163.38 24.2z"/>
   <path class="fil3" d="M1549.42 1266.29l-96.81 18.15 -27.31 33.43 3.99 5.4 168.24 -57.16 -11.8 30.44 24.2 12.1 0 12.1c-28.22,6.57 -75.93,15.55 -78.36,47.5l11.8 6.96 38.12 38.64 -27.14 15.38 6.28 -20.03 -60.25 23.79 18.79 2.73 -1.51 36.31 1.51 30.25 37.04 -24.09 -6.78 42.24 29.51 0.23 7.18 19.87 78.28 10.15 18.15 0 0 18.15c16.22,-3.88 11.41,-6.05 24.2,-6.05 17.04,0 11.2,2.62 18.15,12.1l6.05 -24.2c-8.77,-13.83 -5.98,-41.85 -26.13,-76.73 -16.85,-29.17 -30.47,-32.48 -46.47,-56.39 50.85,4.23 79.48,48.41 163.37,48.41l18.16 0 -18.16 -48.41 -24.2 0c-30.44,0 -64.42,-25.79 -70.83,-51.23l48.45 25.79 -56.29 -83.48 -12.1 -24.2c-27.69,-0.62 -82,-2.48 -90.77,-24.2l-66.56 6.05z"/>
   <path class="fil4" d="M793.07 1556.73c-1.43,0.91 -60.23,24.2 -60.51,24.2 -8.3,0 -14.45,-12.63 -18.15,-18.15l-6.05 0 0 12.1 -18.15 0 0 18.15 -102.73 7.83 24.78 7.3 -30.97 3.03 -6.05 -12.1c-5.6,3.75 -14.54,12.1 -18.15,12.1 -12.8,0 -7.98,-2.16 -24.2,-6.05l0 30.25c-58.54,1.3 -149.76,40.97 -199.38,42.65 -87.04,2.95 -153.86,-0.29 -230.22,-0.29l-12.1 0 -6.05 12.1 502.22 -6.05 211.96 -5.75 30.44 -25.35 35.19 12.72 6.79 -23.97 37.49 -3.78 -52.17 -16.01 -10.81 22.24 -55.17 -28.89 2.87 -6.14 35.12 12.64 66.87 -10.32 0 12.1 18.15 0 -1.97 -5.97 112.18 -36.79 -12.26 -38.2 -7.5 2.25 11.58 -30.08 6.88 24.09 0 -30.25 -66.56 0 -40.56 38.44 -122.81 9.97z"/>
   <path class="fil5" d="M1023 1538.57l-6.88 -24.09 -11.58 30.08 7.5 -2.25 12.26 38.2 -112.18 36.79 1.97 5.97 -18.15 0 0 -12.1 -66.87 10.32 -35.12 -12.64 -2.87 6.14 55.17 28.89 10.81 -22.24 52.17 16.01 -37.49 3.78 -6.79 23.97 -35.19 -12.72 -30.44 25.35 -211.96 5.75 363.05 0c10.28,-7.14 22.49,-14.41 42.36,-12.1l72.61 6.05c9.74,-36.48 54.04,-27.33 97.04,-30.03 38.72,-2.43 47.1,-42.58 78.43,-42.58l42.36 0c31.58,0 35.01,12.1 60.51,12.1 8.16,0 9.07,-6.72 12.1,-12.1 -5.45,-2.89 -62.58,-35.59 -64.29,-38.58 -15.36,-26.9 -2.15,-48.51 -38.58,-58.23l4.43 -30.57 -40.74 0.31c-13.44,9.85 -24.2,25.48 -24.2,48.41l0 6.05c0,16.34 2.89,16.69 6.05,30.26l-48.23 -7.09c-9.65,-0.57 -38.91,20.12 -48.58,25.24l-41.17 -37.53 -37.49 -4.83z"/>
   <path class="fil6" d="M1718.85 1308.64c11.43,-5.06 65.92,62.75 83.49,79.88 21.92,21.35 85.52,50.63 116.18,65.34l0 -12.1 18.15 0 178.57 11.16 1.36 -8.66 -193.89 -50.29 2.02 -7.71 108.54 14.83 -37.98 -22.01 128.52 19.35 6.5 -41.38 -157.32 -36.3c-51.42,0 -117.59,3.71 -158.87,-4.51 -49.05,-9.78 -79.39,-34.56 -119.48,-43.9l-78.66 -12.1c8.77,21.72 63.08,23.58 90.77,24.2l12.1 24.2z"/>
   <path class="fil7" d="M714.41 1562.78c3.7,5.52 9.85,18.15 18.15,18.15 0.28,0 59.08,-23.3 60.51,-24.2l-18.15 0c1.62,-1.03 131.67,-45.7 151.27,-54.46 52.51,-23.47 85.24,-47.28 133.11,-72.61l36.31 -36.3 -60.47 36.37 -66.61 -12.17 -175.47 -18.15 -66.56 -6.05 23.75 18.98 -21.67 20.02c-2.09,45.1 5.91,101.19 -14.19,112.27l0 18.15z"/>
   <path class="fil8" d="M1228.73 1423.61l0 18.15 -12.1 18.15 30.18 6.85 0.08 5.26 -30.26 6.05 40.74 -0.31 -4.43 30.57c36.43,9.72 23.22,31.33 38.58,58.23 1.71,3 58.84,35.7 64.29,38.58l6.05 0c8.98,-12.26 30,-17.58 49.9,-34.82 29.78,-25.79 39.98,-3.73 65.07,-19.65l-48.31 -2.57 -6.15 -166.86 -63.72 40.68 -4.36 -6.32 70.56 -55.41 -3.92 -7.34 -192.18 70.74z"/>
   <path class="fil9" d="M145.63 1544.63l-54.46 133.12 12.1 0 42.36 -48.41 0 12.1 24.2 0c21.02,0 9.23,-12.1 30.26,-12.1l18.15 0c13.56,0 13.28,4.79 24.2,12.1 5.35,-20.04 24.2,-30.26 48.41,-30.26l24.7 5.86 217.33 -11.91c16.23,3.88 11.41,6.05 24.2,6.05 3.61,0 12.55,-8.35 18.15,-12.1l54.43 -6.71 0.03 -5.39 -78.49 -7.71 -0.17 13.75 -78.51 -7.44 -6.2 1.4 -224.25 19.37c33.71,-40.67 107.66,-5 157.69,-31.47l23.97 6.79 16.76 -15.29 -40.73 -27.81c-35.84,-22.74 -72.85,13.89 -84.71,36.3 -31.78,-7.4 -55.79,-30.25 -96.81,-30.25l-18.15 0c-38.15,0 -45.45,23.41 -54.46,0z"/>
   <path class="fil10" d="M1065.35 1435.71c-25.77,22.4 -69.69,31.52 -72.67,65.8l-36.25 6.81 66.56 0 0 30.25 37.49 4.83 41.17 37.53c9.68,-5.12 38.93,-25.81 48.58,-25.24l48.23 7.09c-3.16,-13.57 -6.05,-13.91 -6.05,-30.26l0 -6.05c0,-22.93 10.77,-38.56 24.2,-48.41l30.26 -6.05 -0.08 -5.26 -30.18 -6.85 -102.82 30.41 48.36 -60.66 0 -30.25 -96.81 36.3z"/>
   <path class="fil11" d="M103.27 1677.74c76.37,0 143.19,3.24 230.22,0.29 49.63,-1.68 140.84,-41.34 199.38,-42.65l0 -30.25 -217.33 11.91 -24.7 -5.86c-24.21,0 -43.06,10.21 -48.41,30.26 -10.92,-7.31 -10.64,-12.1 -24.2,-12.1l-18.15 0c-21.02,0 -9.23,12.1 -30.26,12.1l-24.2 0 0 -12.1 -42.36 48.41z"/>
   <path class="fil8" d="M1422.35 1381.25l6.15 166.86 48.31 2.57 18.15 -12.1 -20.19 -2.81 44.39 -33.5 -1.51 -30.25 1.51 -36.31 -18.79 -2.73 60.25 -23.79 -6.28 20.03 27.14 -15.38 -38.12 -38.64 0 12.1c-23.42,-6.26 -21.08,-18.15 -30.25,-18.15 -12.8,0 -7.98,2.17 -24.2,6.05l0 -36.3 -66.56 42.35z"/>
   <path class="fil11" d="M399.76 1538.57l40.73 27.81 -16.76 15.29 -23.97 -6.79c-50.02,26.47 -123.98,-9.2 -157.69,31.47l224.25 -19.37 6.2 -1.4 78.51 7.44 0.17 -13.75 78.49 7.71 -0.03 5.39 -54.43 6.71 6.05 12.1 30.97 -3.03 -24.78 -7.3 102.73 -7.83 0 -18.15 18.15 0 0 -12.1 -12.17 -24.16 -54.38 -0.04c-8.84,-13.19 -17.48,-36.3 -36.31,-36.3 -33.04,0 -95.73,39.84 -102.86,66.56l-102.87 -30.25z"/>
   <path class="fil12" d="M2021.39 1617.24l-66.53 6.59 -0.03 5.51 30.26 0 0 12.1 -30.26 0 -132.74 15.29 12.75 7.25 -134.05 9.56 -0.1 4.21 379.22 0 14.09 -89.67c-21.47,2.6 -29.36,11.43 -36.3,41.26l-36.3 -12.1z"/>
   <path class="fil13" d="M1452.61 1284.44l-48.4 24.2c-15.92,23.77 -138.54,93.74 -175.48,96.81l30.25 -42.36 -17.72 -7.18 -18.45 30.15 -6.48 -5.76 -54.16 19.1 0 30.25 66.56 -6.05 192.18 -70.74 3.92 7.34 -70.56 55.41 4.36 6.32 63.72 -40.68 66.56 -42.35c4.86,-12.04 65.71,-30.26 78.66,-30.26l18.15 0 0 -12.1 11.8 -30.44 -168.24 57.16 -3.99 -5.4 27.31 -33.43z"/>
   <path class="fil14" d="M1361.85 1605.14l-6.05 0c-3.03,5.38 -3.94,12.1 -12.1,12.1 -25.5,0 -28.93,-12.1 -60.51,-12.1l-42.36 0c-31.33,0 -39.71,40.15 -78.43,42.58 -43.01,2.7 -87.3,-6.45 -97.04,30.03l193.63 0 0 -12.1 84.71 0c20.61,0 16.42,-7.69 12.27,-17.11l48.23 -7.09 0 -30.26 -13.14 -1.67 12.69 -11.92 -41.91 7.55z"/>
   <path class="fil15" d="M1839.86 1465.96l54.46 12.1 0 12.1 48.4 0c13.3,0 52.5,27.76 64.28,32.54 40.01,16.22 61.57,-20.69 63.52,34.9l17.42 -12.98 -18.16 -30.26 -54.46 0 0 -6.05 36.3 0c-19.81,-12.58 -39.78,-11.36 -42.05,-41.45l11.69 -6.23 -54.35 -6.77 -30.26 0 0 -12.1 -18.15 0 0 12.1c-30.66,-14.72 -94.27,-43.99 -116.18,-65.34 -17.58,-17.12 -72.06,-84.94 -83.49,-79.88l56.29 83.48 -48.45 -25.79c6.41,25.44 40.39,51.23 70.83,51.23l24.2 0 18.16 48.41z"/>
   <path class="fil16" d="M2087.95 1544.63l13.81 -5.92 13.48 -85.79 -178.57 -11.16 0 12.1 30.26 0 54.35 6.77 -11.69 6.23c2.27,30.09 22.24,28.87 42.05,41.45l-36.3 0 0 6.05 54.46 0 18.16 30.26z"/>
   <polygon class="fil16" points="2123.8,1398.43 1995.28,1379.08 2033.26,1401.09 1924.72,1386.26 1922.7,1393.97 2116.6,1444.26 "/>
   <path class="fil17" d="M793.07 1556.73l122.81 -9.97 40.56 -38.44 36.25 -6.81c2.97,-34.28 46.9,-43.4 72.67,-65.8l-6.05 -6.05c-47.87,25.33 -80.61,49.14 -133.11,72.61 -19.6,8.76 -149.65,53.43 -151.27,54.46l18.15 0z"/>
   <path class="fil18" d="M1113.76 1381.25l-18.15 12.1 -36.31 36.3 6.05 6.05 96.81 -36.3 54.16 -19.1 6.48 5.76 18.45 -30.15 17.72 7.18 6.05 -18.15 -6.05 0c-20.73,13.15 -52.87,1.52 -82.55,8.21 -34.36,7.75 -41.68,22.49 -62.67,28.09z"/>
   <path class="fil19" d="M1730.95 1550.67l0.73 -35.43 17.42 -12.98 30.26 -30.25 42.35 -6.05c-83.89,0 -112.52,-44.18 -163.37,-48.41 16.01,23.91 29.62,27.23 46.47,56.39 20.16,34.87 17.36,62.9 26.13,76.73z"/>
   <path class="fil8" d="M1265.03 1344.95l-6.05 18.15 -30.25 42.36c36.94,-3.07 159.56,-73.05 175.48,-96.81l-139.17 36.3z"/>
   <path class="fil20" d="M1749.1 1502.27l36.59 0.2 -36.71 49.69 6.18 4.56c44.51,-29.81 49.16,-30.25 121.01,-30.25l12.26 -8.5 -78.82 -3.61 0 -6.05 66.56 0 0 -6.05 -37.04 -0.23 6.74 -22.13 -66.5 -7.89 -30.26 30.25z"/>
   <path class="fil17" d="M1488.91 1338.9l0 36.3c16.23,-3.88 11.41,-6.05 24.2,-6.05 9.18,0 6.83,11.9 30.25,18.15l0 -12.1 -11.8 -6.96c2.43,-31.94 50.15,-40.93 78.36,-47.5l0 -12.1 -24.2 -12.1 0 12.1 -18.15 0c-12.95,0 -73.8,18.22 -78.66,30.26z"/>
   <path class="fil21" d="M2021.39 1617.24l36.3 12.1c6.95,-29.84 14.83,-38.66 36.3,-41.26l1.12 -7.12 -43.4 0.02 -11.32 21.31 -137.71 -41.2 -2.8 11.4 25.72 4.06 -11.85 5.55 107.63 35.14z"/>
   <path class="fil4" d="M1410.25 1623.28l12.1 0c2.47,-29.7 19.11,-34.73 48.31,-36.4 38.16,-2.17 63.77,-12.01 78.76,-12.01l18.15 0c16.34,0 16.68,2.89 30.25,6.05 -0.97,-11.74 0.29,-24.2 -12.1,-24.2 -36.88,0 -75.4,7.34 -106.89,8.93 -50.28,2.54 -68.59,5.03 -68.59,57.62z"/>
   <path class="fil22" d="M1730.95 1550.67l8.07 20.17 12.1 6.05 1.5 6.1 8.59 -2.07c39.28,-10.49 -3.12,-24.84 45.76,-38.95 23.28,-6.72 52.21,-4.73 69.2,-15.51 -71.86,0 -76.51,0.45 -121.01,30.25l-6.18 -4.56 36.71 -49.69 -36.59 -0.2 -17.42 12.98 -0.73 35.43z"/>
   <polygon class="fil23" points="1162.17,1429.66 1113.81,1490.32 1216.62,1459.91 1228.73,1441.76 1228.73,1423.61 "/>
   <path class="fil24" d="M1724.9 1574.88c-16.96,8.14 -30.26,2.65 -30.26,24.2l0 18.15c0,18.34 11.85,28.24 30.26,30.25 -3.89,-16.22 -6.05,-11.4 -6.05,-24.2 0,-31.63 32.21,-17.21 42.36,-42.35l-8.59 2.07 -1.5 -6.1 -12.1 -6.05 -8.07 -20.17 -6.05 24.2z"/>
   <polygon class="fil25" points="1519.17,1502.27 1474.77,1535.77 1494.97,1538.57 1549.42,1520.42 1556.2,1478.18 "/>
   <path class="fil0" d="M484.57 334.58c27.01,0 53.03,4.32 77.45,12.31 5.01,-50.54 47.66,-90.04 99.52,-90.04 6.61,0 13.06,0.65 19.31,1.87 6.55,-14.95 13.85,-29.45 21.85,-43.45 -5.05,-8.62 -7.96,-18.65 -7.96,-29.36 0,-32.1 26.03,-58.12 58.12,-58.12 4.65,0 9.17,0.55 13.5,1.58 75.78,-79.98 179.88,-129.37 294.78,-129.37 104.54,0 200.18,40.89 273.65,108.51 11.76,-11.08 27.61,-17.87 45.04,-17.87 36.29,0 65.72,29.43 65.72,65.72 0,22.53 -11.35,42.42 -28.64,54.26 15.08,25.7 27.8,53.13 37.81,81.98 14.11,-3.66 28.9,-5.6 44.15,-5.6 30.81,0 59.77,7.95 84.94,21.9 8.12,-25.41 31.94,-43.82 60.04,-43.82 34.8,0 63.02,28.22 63.02,63.02 0,29.75 -20.62,54.68 -48.35,61.3 8.41,18.32 13.77,38.33 15.41,59.38 12.77,-5.37 26.79,-8.34 41.51,-8.34 59.2,0 107.21,48.01 107.21,107.21 0,39.92 -21.83,74.74 -54.2,93.2 10.66,18.69 16.76,40.31 16.76,63.36 0,1.13 -0.02,2.26 -0.05,3.39 27.48,2.65 48.97,25.81 48.97,53.98 0,29.95 -24.29,54.24 -54.24,54.24 -14.82,0 -28.24,-5.95 -38.04,-15.58 -7.22,6.37 -15.16,11.94 -23.68,16.58 10,11.24 16.09,26.04 16.09,42.26 0,35.11 -28.47,63.57 -63.57,63.57 -20.7,0 -39.09,-9.9 -50.7,-25.23 -37.32,45.52 -93.98,74.58 -157.43,74.58 -20.98,0 -41.23,-3.18 -60.28,-9.08 -4.64,11.08 -10.32,21.61 -16.94,31.46 40.56,4.32 72.17,38.66 72.17,80.37 0,44.63 -36.2,80.83 -80.83,80.83 -44.64,0 -80.83,-36.2 -80.83,-80.83 0,-3.5 0.22,-6.95 0.65,-10.33 -19.85,7.35 -41.31,11.37 -63.72,11.37 -11.87,0 -23.46,-1.14 -34.71,-3.29 -0.89,1.21 -1.79,2.41 -2.72,3.6l0.15 0c55.05,0 99.69,44.64 99.69,99.69 0,55.05 -44.64,99.69 -99.69,99.69 -55.05,0 -99.69,-44.64 -99.69,-99.69 0,-13.59 2.73,-26.54 7.65,-38.35 -8.85,2.39 -17.97,4.09 -27.32,5.05 -9.64,14.8 -22.41,27.38 -37.36,36.8 -12.43,52.23 -59.39,91.08 -115.42,91.08 -65.51,0 -118.64,-53.13 -118.64,-118.65 0,-26.47 8.68,-50.91 23.33,-70.65 -21.63,6.77 -44.71,10.44 -68.69,10.44 -14.61,0 -28.88,-1.37 -42.71,-3.97 -20.99,28.01 -54.45,46.13 -92.14,46.13 -47,0 -87.42,-28.19 -105.29,-68.57 -1.44,0.04 -2.87,0.07 -4.32,0.07 -70.08,0 -128.13,-51.62 -138.2,-118.9 -4.11,0.71 -8.32,1.08 -12.6,1.08 -3.29,0 -6.53,-0.23 -9.72,-0.65 1.04,4.16 1.59,8.51 1.59,12.98 0,29.5 -23.93,53.43 -53.43,53.43 -29.51,0 -53.43,-23.93 -53.43,-53.43 0,-27.1 20.2,-49.5 46.36,-52.96 -10.31,-16.41 -16.4,-36.64 -16.4,-58.54 0,-27.17 9.37,-51.78 24.55,-69.69 -32.82,-33.98 -56.59,-77.14 -67.27,-125.4 -6.23,2.46 -13.02,3.81 -20.12,3.81 -30.26,0 -54.8,-24.54 -54.8,-54.8 0,-30.26 24.54,-54.8 54.8,-54.8 6.16,0 12.09,1.02 17.61,2.9 20.83,-122.47 125.15,-215.61 250.67,-215.61zm989.02 -115.17c10.19,0 18.46,8.27 18.46,18.46 0,10.19 -8.27,18.46 -18.46,18.46 -10.19,0 -18.46,-8.27 -18.46,-18.46 0,-10.19 8.27,-18.46 18.46,-18.46zm-733.72 -170.95c8.31,0 15.04,6.74 15.04,15.04 0,8.31 -6.74,15.04 -15.04,15.04 -8.31,0 -15.04,-6.74 -15.04,-15.04 0,-8.31 6.74,-15.04 15.04,-15.04zm-355.07 222.09c12.86,0 23.29,10.43 23.29,23.29 0,12.86 -10.43,23.29 -23.29,23.29 -12.86,0 -23.29,-10.43 -23.29,-23.29 0,-12.86 10.43,-23.29 23.29,-23.29zm1400.17 -35.62c6.81,0 12.33,5.52 12.33,12.33 0,6.81 -5.52,12.33 -12.33,12.33 -6.8,0 -12.33,-5.52 -12.33,-12.33 0,-6.8 5.52,-12.33 12.33,-12.33zm63.02 161.66c12.86,0 23.29,10.43 23.29,23.29 0,12.86 -10.43,23.29 -23.29,23.29 -12.86,0 -23.29,-10.43 -23.29,-23.29 0,-12.86 10.43,-23.29 23.29,-23.29zm52.06 345.25c15.89,0 28.77,12.89 28.77,28.77 0,15.89 -12.89,28.77 -28.77,28.77 -15.88,0 -28.77,-12.89 -28.77,-28.77 0,-15.88 12.89,-28.77 28.77,-28.77z"/>
   <path class="fil26" d="M1000.91 248.97c25.27,-3.02 39.69,-60.82 48.29,-67.03 8.59,-6.2 65.7,56.57 110.14,79.24 44.43,22.67 82.76,28.12 82.76,28.12 0,0 -42.94,0.58 -72.78,-11.62 -29.84,-12.2 -48.9,-28.15 -48.9,-28.15 0,0 23.39,23.74 35.7,31.2 12.3,7.45 15.07,6.94 15.07,6.94 0,0 -21.14,0.51 -44.78,-12.27 -23.64,-12.79 -45.5,-34.53 -57.81,-41.98 -12.3,-7.45 -17.95,-6.97 -17.95,-6.97 0,0 40.48,29.16 54.89,44.83 14.41,15.66 19.17,16.5 19.17,16.5 0,0 -24.61,-5.72 -45.33,-21.36 -20.72,-15.63 -34.17,-20 -46.37,-17.72 -12.2,2.29 -19.41,3.64 -19.41,3.64l-12.69 -3.36z"/>
   <g>
    <path class="fil27" d="M1095.55 1501.26c438.76,0 812.59,76.79 954.35,184.27l-236.15 54.12 -268.53 55.03 -323.46 -41.94 -257.43 41.94 -706.94 -60.51 -173.81 24.54c8.77,-30.46 35.24,-59.55 76.57,-86.49 154.13,-100.45 514.96,-170.96 935.4,-170.96z"/>
    <path class="fil28" d="M1221.67 1752.74c-520.07,-144.58 -1061.52,-80.53 -1061.52,-80.53l63.65 -34.56c0,0 206.73,-68.69 926.86,-33.43 304.75,14.92 588.08,57.17 813.55,100.94l-150.46 34.48 -268.53 55.03 -323.46 -41.94 -0.09 0.01z"/>
   </g>
   <path class="fil29" style="mask:url(#id0)" d="M125.86 352.76c783.46,464.42 1109.73,1008.34 1109.73,1008.34l311.92 5.94c0,0 -670.96,-549.96 -1002.51,-771.9 -331.55,-221.95 -438.32,-267.04 -438.32,-267.04l19.18 24.66z"/>
   <path class="fil29" style="mask:url(#id2)" d="M204.61 361.45c850.25,326.43 1263.14,807.92 1263.14,807.92l308.49 -46.46c0,0 -753.7,-429.62 -1117.78,-592.81 -364.07,-163.19 -476.9,-189.74 -476.9,-189.74l23.05 21.1z"/>
   <path class="fil29" style="mask:url(#id4)" d="M348.82 364.82c892.97,179.19 1380.76,584.6 1380.76,584.6l296.33 -97.55c0,0 -815.08,-297.12 -1201.38,-396.92 -386.29,-99.81 -501.97,-107.06 -501.97,-107.06l26.26 16.93z"/>
   <path class="fil30" d="M1154.98 162.58c-3.05,-5.48 -4.85,-11.56 -5.33,-17.76 -5.87,2.51 -12.86,2.06 -18.51,-1.82 -8.77,-6.02 -11,-18.02 -4.98,-26.79 6.02,-8.77 18.02,-11 26.79,-4.98 1.95,1.34 3.57,2.98 4.86,4.81 13.03,-17.92 37.43,-23 56.44,-12.14 0.68,-1.44 1.49,-2.84 2.42,-4.19 9.62,-14.02 28.8,-17.58 42.81,-7.96 11.97,8.22 16.32,23.41 11.32,36.41 2.08,0.77 4.08,1.8 5.99,3.11 11.29,7.75 14.96,22.45 9.2,34.43 4.05,0.08 8.12,0.54 12.13,1.43l0.47 -0.71c9.82,-14.3 29.37,-17.93 43.67,-8.12 6.91,4.74 11.32,11.76 12.94,19.35 7.62,0.04 15.31,2.28 22.06,6.92 4.13,2.84 7.55,6.33 10.22,10.23 3.77,0.54 7.49,1.93 10.84,4.23 11.63,7.99 14.59,23.9 6.61,35.53 -5.3,7.72 -14.08,11.61 -22.79,11.04 -10.9,10.39 -26.88,13.64 -40.92,8.41 -1.45,3.11 -3.16,6.15 -5.17,9.08 -19.44,28.32 -58.16,35.51 -86.48,16.08 -17.54,-12.04 -26.96,-31.48 -26.99,-51.26 -6.18,-0.98 -12.24,-3.32 -17.73,-7.09 -10.32,-7.09 -16.62,-17.83 -18.36,-29.31 -6.8,9.54 -20.04,11.91 -29.74,5.25 -9.81,-6.74 -12.31,-20.16 -5.57,-29.97 1.1,-1.6 2.37,-3 3.78,-4.2zm-78.33 -59.67c3.23,2.22 4.04,6.62 1.83,9.84 -2.22,3.23 -6.62,4.05 -9.85,1.83 -3.23,-2.22 -4.04,-6.62 -1.83,-9.85 2.21,-3.22 6.62,-4.04 9.84,-1.83zm382.44 145.28c4.77,3.27 5.98,9.79 2.71,14.55 -3.27,4.77 -9.79,5.98 -14.55,2.71 -4.77,-3.27 -5.98,-9.79 -2.71,-14.55 3.27,-4.77 9.79,-5.98 14.55,-2.71zm-108.72 44.13c5.61,3.85 7.03,11.52 3.18,17.12 -3.85,5.61 -11.52,7.03 -17.12,3.18 -5.61,-3.85 -7.03,-11.52 -3.18,-17.12 3.85,-5.61 11.52,-7.03 17.12,-3.18zm59.1 -25.16c8.97,6.16 11.25,18.43 5.09,27.4 -6.16,8.97 -18.43,11.25 -27.4,5.09 -8.97,-6.16 -11.25,-18.43 -5.09,-27.4 6.16,-8.97 18.43,-11.25 27.4,-5.09zm-282.1 -207.11c4.2,2.89 5.27,8.64 2.39,12.84 -2.89,4.21 -8.64,5.28 -12.84,2.39 -4.2,-2.89 -5.28,-8.64 -2.39,-12.85 2.89,-4.2 8.64,-5.27 12.84,-2.39z"/>
   <path class="fil0" d="M1654.09 1060.59c-4.71,-4.15 -8.44,-9.27 -10.97,-14.96 -4.68,4.34 -11.43,6.25 -18.05,4.49 -10.28,-2.74 -16.4,-13.29 -13.67,-23.58 2.74,-10.28 13.29,-16.4 23.57,-13.67 2.28,0.61 4.36,1.61 6.19,2.9 6.28,-21.25 27.57,-34.21 49.12,-30.35 0.16,-1.58 0.45,-3.17 0.87,-4.76 4.37,-16.43 21.25,-26.21 37.67,-21.84 14.04,3.73 23.22,16.6 22.87,30.51 2.21,0.03 4.45,0.33 6.68,0.93 13.23,3.52 21.62,16.15 20.21,29.36 3.85,-1.29 7.83,-2.21 11.91,-2.72l0.21 -0.83c4.46,-16.76 21.67,-26.73 38.43,-22.27 8.09,2.15 14.6,7.28 18.67,13.9 7.19,-2.52 15.19,-2.98 23.1,-0.87 4.84,1.29 9.24,3.43 13.06,6.22 3.74,-0.76 7.71,-0.69 11.63,0.35 13.64,3.63 21.76,17.63 18.13,31.27 -2.41,9.04 -9.38,15.66 -17.78,18.04 -6.78,13.44 -20.76,21.85 -35.73,21.62 -0.32,3.42 -0.93,6.86 -1.84,10.29 -8.83,33.19 -42.91,52.94 -76.1,44.11 -20.56,-5.47 -35.96,-20.63 -42.6,-39.25 -6.15,1.15 -12.64,0.98 -19.08,-0.74 -12.1,-3.22 -21.63,-11.24 -27.11,-21.46 -3.22,11.27 -14.89,17.94 -26.27,14.91 -11.5,-3.06 -18.35,-14.87 -15.29,-26.37 0.5,-1.87 1.23,-3.63 2.15,-5.23zm-93.79 -29.99c3.78,1.01 6.03,4.89 5.02,8.67 -1,3.78 -4.88,6.03 -8.67,5.02 -3.78,-1.01 -6.03,-4.88 -5.02,-8.67 1,-3.78 4.88,-6.03 8.66,-5.02zm409.01 8.78c5.59,1.48 8.91,7.22 7.42,12.81 -1.48,5.59 -7.22,8.91 -12.81,7.42 -5.59,-1.48 -8.91,-7.22 -7.42,-12.81 1.49,-5.59 7.22,-8.91 12.81,-7.42zm-87.66 78c6.57,1.75 10.48,8.5 8.73,15.07 -1.75,6.57 -8.5,10.48 -15.07,8.73 -6.57,-1.75 -10.48,-8.5 -8.73,-15.07 1.75,-6.57 8.5,-10.48 15.07,-8.73zm47.26 -43.51c10.51,2.8 16.78,13.6 13.98,24.11 -2.8,10.51 -13.59,16.78 -24.11,13.98 -10.52,-2.8 -16.78,-13.59 -13.98,-24.11 2.79,-10.51 13.59,-16.77 24.11,-13.98zm-335.18 -100.65c4.93,1.31 7.87,6.37 6.55,11.3 -1.31,4.93 -6.37,7.87 -11.3,6.55 -4.93,-1.31 -7.86,-6.37 -6.55,-11.3 1.31,-4.93 6.37,-7.86 11.3,-6.55z"/>
   <path class="fil30" d="M406.42 607.03c3.94,-1.73 7.44,-4.3 10.27,-7.49 2.16,3.8 6.16,6.45 10.85,6.68 7.28,0.35 13.47,-5.27 13.82,-12.56 0.35,-7.28 -5.28,-13.47 -12.56,-13.82 -1.62,-0.08 -3.19,0.15 -4.65,0.61 0.32,-15.17 -10.89,-28.07 -25.77,-30.02 0.22,-1.07 0.36,-2.17 0.42,-3.29 0.56,-11.64 -8.43,-21.53 -20.07,-22.09 -9.94,-0.48 -18.61,6.02 -21.27,15.18 -1.45,-0.44 -2.98,-0.71 -4.56,-0.79 -9.37,-0.45 -17.47,6.06 -19.3,14.98 -2.24,-1.64 -4.66,-3.07 -7.21,-4.25l0.03 -0.58c0.57,-11.87 -8.59,-21.96 -20.47,-22.53 -5.73,-0.28 -11.05,1.72 -15.08,5.2 -4.18,-3.14 -9.3,-5.1 -14.91,-5.37 -3.43,-0.16 -6.74,0.32 -9.82,1.34 -2.28,-1.27 -4.88,-2.05 -7.67,-2.18 -9.67,-0.47 -17.87,6.99 -18.34,16.65 -0.31,6.41 2.88,12.18 7.87,15.48 1.63,10.19 9.01,18.58 18.84,21.55 -0.5,2.3 -0.82,4.67 -0.94,7.1 -1.13,23.51 17.02,43.49 40.53,44.62 14.56,0.7 27.76,-6 35.97,-16.78 3.78,2.03 8.05,3.26 12.61,3.48 8.57,0.41 16.46,-2.84 22.16,-8.39 -0.24,8.03 6,14.81 14.06,15.19 8.14,0.39 15.07,-5.9 15.46,-14.04 0.06,-1.33 -0.05,-2.62 -0.32,-3.86zm67.47 -0.1c-2.68,-0.13 -4.95,1.94 -5.08,4.62 -0.13,2.68 1.94,4.95 4.62,5.08 2.67,0.13 4.95,-1.94 5.08,-4.62 0.13,-2.68 -1.94,-4.95 -4.62,-5.08zm-268.91 -79.23c-3.96,-0.19 -7.32,2.87 -7.51,6.82 -0.19,3.96 2.87,7.32 6.82,7.51 3.96,0.19 7.32,-2.87 7.51,-6.82 0.19,-3.96 -2.87,-7.32 -6.82,-7.51zm41.04 69.15c-4.66,-0.22 -8.61,3.37 -8.84,8.03 -0.22,4.66 3.37,8.61 8.03,8.84 4.66,0.22 8.61,-3.37 8.84,-8.03 0.22,-4.66 -3.37,-8.61 -8.03,-8.84zm-21.83 -38.23c-7.44,-0.36 -13.78,5.39 -14.13,12.84 -0.36,7.44 5.39,13.78 12.84,14.14 7.45,0.35 13.78,-5.4 14.14,-12.84 0.36,-7.45 -5.39,-13.78 -12.84,-14.14zm239.79 3.9c-3.49,-0.16 -6.46,2.53 -6.63,6.02 -0.16,3.49 2.53,6.46 6.02,6.63 3.49,0.16 6.45,-2.53 6.62,-6.02 0.17,-3.49 -2.53,-6.45 -6.02,-6.62z"/>
   <path class="fil31 str0" d="M589.25 1220.4c153.25,0 277.53,124.28 277.53,277.53 0,153.25 -124.28,277.53 -277.53,277.53 -153.25,0 -277.53,-124.28 -277.53,-277.53 0,-153.25 124.28,-277.53 277.53,-277.53z"/>
   <path class="fil31 str0" d="M589.25 1227.77c149.18,0 270.16,120.98 270.16,270.16 0,149.18 -120.98,270.16 -270.16,270.16 -149.18,0 -270.16,-120.98 -270.16,-270.16 0,-149.18 120.98,-270.16 270.16,-270.16z"/>
   <path class="fil29 str0" d="M589.25 1236.39c144.42,0 261.54,117.12 261.54,261.54 0,144.42 -117.12,261.53 -261.54,261.53 -144.42,0 -261.53,-117.11 -261.53,-261.53 0,-144.42 117.11,-261.54 261.53,-261.54z"/>
   <g>
    <path class="fil29" d="M1716.4 1407c5.38,-1.9 11.05,-2.87 16.85,-2.9l92.99 0c6.79,0.05 13.45,1.37 19.68,4 6.24,2.61 11.84,6.37 16.62,11.16l17.87 17.9 -20.72 20.99c4.44,4.74 8,10.16 10.59,16.15 2.96,6.85 4.44,14.17 4.48,21.75 -0.03,7.58 -1.52,14.89 -4.5,21.77 -2.84,6.53 -6.85,12.42 -11.91,17.43 -5.03,5 -10.91,8.94 -17.46,11.78 -6.83,2.92 -14.14,4.38 -21.63,4.42l-91.25 0c-1.41,-0.01 -2.8,-0.07 -4.19,-0.18l0 0.18 -215.02 0 0 -49.8c-0.55,0.43 -1.1,0.86 -1.64,1.29 -4.02,3.18 -8.02,6.33 -12.03,9.48 -2.46,1.94 -4.9,3.88 -7.35,5.8 -1.31,1.03 -2.63,2.06 -3.97,3.07 -1.68,1.33 -1.45,1.19 -3.43,2.45 -10.02,6.24 -21.47,4.48 -29.41,-1.62l-26.4 -20.71 0 50.03 -82.54 0 -26.62 -45.15 -38.61 0 0 45.28 -65.79 0 0 -0.13 -145.25 0 0 -5.04c-1,0.39 -2.01,0.76 -3.03,1.11 -7.64,2.62 -15.64,3.9 -23.76,3.94l-52.69 0c-7.97,-0.03 -15.85,-1.28 -23.39,-3.82 -7.33,-2.45 -14.19,-5.98 -20.41,-10.57 -6.09,-4.5 -11.43,-9.84 -15.94,-15.94 -4.58,-6.21 -8.11,-13.08 -10.55,-20.38 -2.55,-7.57 -3.79,-15.48 -3.82,-23.55 0.03,-8 1.27,-15.95 3.85,-23.5 2.48,-7.3 6.05,-14.14 10.7,-20.31 4.57,-6.06 9.97,-11.31 16.11,-15.65 6.24,-4.46 13.07,-7.83 20.34,-10.16 7.48,-2.42 15.27,-3.58 23.18,-3.62l52.69 0c8.02,0.03 16.01,1.31 23.68,3.9 1.03,0.35 2.05,0.72 3.06,1.12l0 -5.02 220.65 0c0,0 0,0 0.16,0l25.33 0 0 0.12c2.02,0 4.03,0 6.06,0.01 6.18,0 12.38,0 18.64,0 6.96,0.05 13.79,1.4 20.11,4.14 0.7,0.3 1.4,0.62 2.09,0.95l0 -5.21 49.16 0 58.7 46.38 58.81 -46.38 190.96 0 0 3.04z"/>
   </g>
   <path class="fil32" d="M1078.52 1505.58l0 -31.25 -91.1 0 0 15.09 76 0 0 10.99c-2.08,2.18 -4.42,4.06 -7,5.67 -2.58,1.59 -5.34,2.82 -8.3,3.71 -2.93,0.89 -6,1.33 -9.2,1.35l-52.57 0c-4.7,-0.02 -9.07,-0.93 -13.15,-2.69 -4.06,-1.77 -7.66,-4.19 -10.72,-7.3 -3.09,-3.11 -5.49,-6.71 -7.24,-10.8 -1.74,-4.06 -2.62,-8.45 -2.65,-13.11 0.02,-4.7 0.91,-9.04 2.65,-13.02 1.75,-4 4.15,-7.48 7.24,-10.46 3.06,-2.98 6.66,-5.32 10.72,-6.97 4.08,-1.65 8.45,-2.49 13.15,-2.52l52.57 0c4.03,0.02 7.88,0.71 11.47,2.08 3.62,1.37 6.91,3.26 9.84,5.74 2.94,2.45 5.41,5.32 7.42,8.61l10.86 -10.86c-2.98,-4.13 -6.51,-7.73 -10.59,-10.77 -4.06,-3.05 -8.56,-5.41 -13.46,-7.09 -4.9,-1.65 -10.09,-2.51 -15.53,-2.54l-52.57 0c-5.41,0.02 -10.52,0.81 -15.38,2.39 -4.88,1.57 -9.34,3.77 -13.38,6.66 -4.06,2.87 -7.57,6.29 -10.57,10.26 -2.98,3.95 -5.27,8.34 -6.91,13.15 -1.63,4.79 -2.47,9.91 -2.49,15.33 0.02,5.41 0.86,10.53 2.49,15.38 1.63,4.88 3.93,9.34 6.91,13.38 3,4.06 6.51,7.57 10.57,10.57 4.04,2.98 8.5,5.28 13.38,6.91 4.85,1.63 9.97,2.47 15.38,2.49l52.57 0c5.45,-0.02 10.64,-0.88 15.53,-2.56 4.9,-1.68 9.4,-4.04 13.46,-7.06 4.08,-3.05 7.61,-6.64 10.59,-10.77zm147.64 20.39l0 -14.83 -120.1 0 0 -30.32 105.14 0 0 -14.83 -105.14 0 0 -21.72 112.68 0 0 -14.83 -127.51 0 0 96.53 134.93 0zm147.77 0l-27.14 -46.08c3.11,-1.39 5.87,-3.29 8.25,-5.67 2.36,-2.38 4.23,-5.14 5.58,-8.27 1.35,-3.14 2.03,-6.51 2.05,-10.16 -0.02,-3.64 -0.7,-7.04 -2.08,-10.19 -1.34,-3.16 -3.22,-5.94 -5.63,-8.32 -2.38,-2.41 -5.16,-4.28 -8.32,-5.63 -3.15,-1.37 -6.55,-2.05 -10.19,-2.08 -7.13,0 -13.31,0 -18.54,0 -5.23,-0.02 -9.65,-0.02 -13.26,-0.02 -3.64,-0.02 -6.6,-0.02 -8.92,-0.02 -2.29,-0.02 -4.1,-0.02 -5.38,-0.04 -1.3,0 -2.23,-0.02 -2.78,-0.02 -0.55,0 -0.91,-0.02 -1.02,-0.02 -0.13,0 -0.17,0 -0.15,0l-49.92 0 0 96.66 14.83 0 0 -45.28 78.65 0 26.62 45.15 17.35 0zm-26.22 -71.24c-0.02,2.14 -0.55,4.06 -1.57,5.74 -1.02,1.7 -2.36,3.03 -4.06,4.02 -1.7,0.97 -3.58,1.48 -5.63,1.5l-85.14 0 0 -21.72 85.14 0c2.05,0 3.93,0.47 5.63,1.32 1.7,0.88 3.04,2.1 4.06,3.66 1.01,1.57 1.54,3.38 1.57,5.48zm201.4 71.24l0 -96.53 -14.83 0 -67.66 53.36 -67.53 -53.36 -14.83 0 0 96.53 14.83 0 0 -76.93 67.53 53.23 0 0 0 0 0 0 0 0 0 0 0 0 0 0 0 0 0 0 0 0 0 0 0 0 0 0 0 0 0 0 0 0 0 0 0 0 0 0 0 0 0 0 0 0 0 0 0 0 0 0 0 0 0 0 0 0 0 0 0 0 0 0 0 0 0 0c-0.02,0.04 0.06,0 0.24,-0.11 0.17,-0.11 0.66,-0.47 1.41,-1.06 0.77,-0.58 2.03,-1.55 3.77,-2.91 1.75,-1.37 4.17,-3.29 7.3,-5.76 3.11,-2.45 7.13,-5.61 12.01,-9.47 4.9,-3.86 10.86,-8.58 17.92,-14.17 7.06,-5.56 15.4,-12.16 25,-19.75l0 0 0 0 0 76.93 14.83 0zm149.22 0l0 -14.83 -120.1 0 0 -30.32 105.14 0 0 -14.83 -105.14 0 0 -21.72 112.68 0 0 -14.83 -127.51 0 0 96.53 134.93 0zm150.95 -29.92c-0.02,-4.13 -0.81,-8.01 -2.38,-11.63 -1.57,-3.62 -3.73,-6.79 -6.49,-9.55 -2.76,-2.76 -5.94,-4.92 -9.56,-6.49 -3.62,-1.57 -7.48,-2.36 -11.63,-2.38l-85.93 0c-2.01,-0.02 -3.87,-0.55 -5.56,-1.59 -1.7,-1.04 -3.07,-2.41 -4.1,-4.1 -1.04,-1.7 -1.57,-3.55 -1.59,-5.56 0.02,-2.05 0.57,-3.86 1.63,-5.43 1.04,-1.57 2.41,-2.78 4.1,-3.69 1.7,-0.88 3.55,-1.32 5.52,-1.35l92.82 0c1.55,0 3.05,0.27 4.48,0.8 1.44,0.53 2.74,1.32 3.86,2.38l10.06 -10.19c-2.47,-2.47 -5.3,-4.35 -8.45,-5.67 -3.15,-1.33 -6.46,-1.99 -9.95,-2.01l-92.82 0c-3.57,0.02 -6.93,0.73 -10.06,2.1 -3.16,1.39 -5.94,3.29 -8.37,5.69 -2.41,2.42 -4.3,5.21 -5.69,8.34 -1.37,3.16 -2.08,6.51 -2.1,10.08 0.02,3.6 0.75,6.91 2.14,9.93 1.41,3.05 3.31,5.69 5.76,7.94 2.42,2.25 5.21,4 8.36,5.25 3.14,1.24 6.45,1.88 9.96,1.9l85.93 0c2.03,0.02 3.97,0.42 5.79,1.24 1.81,0.81 3.39,1.94 4.79,3.35 1.41,1.41 2.52,3.03 3.31,4.85 0.79,1.81 1.21,3.75 1.21,5.79 0,2.03 -0.42,3.95 -1.21,5.76 -0.8,1.81 -1.9,3.42 -3.31,4.81 -1.39,1.41 -2.98,2.49 -4.79,3.31 -1.81,0.8 -3.75,1.19 -5.79,1.21l-90.97 0c-2.01,-0.02 -3.93,-0.42 -5.74,-1.21 -1.83,-0.8 -3.44,-1.88 -4.85,-3.29l-10.46 10.46c2.82,2.8 6.02,4.97 9.62,6.51 3.6,1.55 7.35,2.34 11.3,2.36l91.1 0c4.15,-0.02 8.01,-0.81 11.63,-2.36 3.62,-1.57 6.8,-3.71 9.56,-6.45 2.76,-2.74 4.92,-5.91 6.49,-9.51 1.57,-3.62 2.36,-7.48 2.38,-11.61z"/>
   <g>
    <path class="fil32" d="M666.51 1703.02l1.37 2.95 20.83 -9.71 7.56 16.22 2.94 -1.37 -8.93 -19.17 -23.77 11.08zm-24.45 18.14l2.89 10.06 3.13 -0.89 -2.89 -10.07c-0.27,-0.98 -0.35,-1.96 -0.23,-2.92 0.12,-0.96 0.41,-1.87 0.87,-2.71 0.46,-0.84 1.06,-1.57 1.81,-2.18 0.75,-0.62 1.61,-1.07 2.59,-1.35l6.3 -1.81c0.98,-0.27 1.96,-0.35 2.92,-0.23 0.97,0.12 1.87,0.42 2.72,0.89 0.84,0.47 1.57,1.08 2.19,1.83 0.62,0.75 1.07,1.62 1.36,2.6l2.89 10.06 3.13 -0.89 -2.89 -10.07c-0.32,-1.13 -0.81,-2.16 -1.45,-3.09 -0.64,-0.93 -1.39,-1.73 -2.26,-2.4 -0.88,-0.68 -1.83,-1.21 -2.86,-1.59 -1.03,-0.39 -2.11,-0.6 -3.23,-0.65 -1.12,-0.05 -2.25,0.08 -3.39,0.4l-6.3 1.81c-1.14,0.32 -2.16,0.81 -3.08,1.45 -0.92,0.64 -1.72,1.39 -2.38,2.26 -0.67,0.88 -1.19,1.82 -1.58,2.86 -0.37,1.03 -0.58,2.1 -0.64,3.23 -0.04,1.13 0.09,2.25 0.41,3.39zm-12.56 -8.53l4.03 20.76 3.19 -0.62 3.27 -2.64 -0.7 -3.62 -3.27 2.64 -3.33 -17.14 -3.19 0.62zm-32.02 10.23c0.08,0.91 0.33,1.74 0.74,2.5 0.4,0.76 0.93,1.42 1.59,1.96 0.65,0.55 1.39,0.96 2.21,1.23 0.82,0.26 1.68,0.36 2.59,0.29l-5.31 5.3 0.28 3.18 27.74 -2.43 -0.28 -3.18 -22.68 1.98 5.24 -5.27 0 -0.03 7.08 -0.62 -0.28 -3.23 -12.08 1.06c-0.62,0.05 -1.19,-0.05 -1.71,-0.32 -0.52,-0.26 -0.95,-0.61 -1.29,-1.09 -0.33,-0.48 -0.53,-1.02 -0.59,-1.63 -0.05,-0.6 0.05,-1.16 0.3,-1.69 0.26,-0.52 0.62,-0.96 1.09,-1.29 0.48,-0.34 1,-0.54 1.61,-0.6l14.63 -1.28c0.85,-0.07 1.68,0 2.5,0.22 0.81,0.22 1.57,0.57 2.27,1.05 0.69,0.48 1.3,1.04 1.81,1.74l2.17 -2.55c-0.76,-0.86 -1.62,-1.58 -2.58,-2.16 -0.96,-0.59 -1.99,-1.01 -3.08,-1.28 -1.11,-0.26 -2.22,-0.35 -3.36,-0.25l-14.63 1.28c-0.91,0.08 -1.74,0.33 -2.49,0.73 -0.77,0.4 -1.42,0.94 -1.97,1.59 -0.55,0.65 -0.96,1.38 -1.23,2.2 -0.27,0.81 -0.37,1.68 -0.3,2.59z"/>
    <path class="fil32" d="M554.48 1713.81l-0.28 3.24 22.9 2 -1.56 17.83 3.23 0.28 1.84 -21.07 -26.13 -2.28zm-30.34 3.71l-2.54 10.16 3.16 0.79 2.53 -10.16c0.26,-0.99 0.68,-1.88 1.26,-2.65 0.58,-0.77 1.28,-1.41 2.1,-1.91 0.82,-0.5 1.71,-0.82 2.67,-0.99 0.96,-0.16 1.93,-0.12 2.92,0.13l6.37 1.59c0.98,0.25 1.87,0.67 2.64,1.26 0.78,0.6 1.41,1.3 1.91,2.13 0.49,0.82 0.82,1.72 0.98,2.68 0.16,0.95 0.12,1.94 -0.13,2.93l-2.53 10.16 3.16 0.79 2.53 -10.16c0.29,-1.15 0.38,-2.29 0.28,-3.41 -0.09,-1.13 -0.34,-2.19 -0.76,-3.21 -0.42,-1.02 -0.98,-1.96 -1.69,-2.81 -0.7,-0.85 -1.52,-1.57 -2.48,-2.18 -0.94,-0.6 -1.98,-1.05 -3.14,-1.34l-6.36 -1.59c-1.15,-0.28 -2.28,-0.38 -3.39,-0.29 -1.12,0.1 -2.19,0.35 -3.2,0.77 -1.02,0.42 -1.94,0.99 -2.79,1.69 -0.84,0.71 -1.56,1.54 -2.17,2.48 -0.6,0.95 -1.04,1.99 -1.33,3.13zm-6.75 -13.64l-6.89 20 3.07 1.06 4.16 -0.65 1.19 -3.49 -4.15 0.65 5.69 -16.51 -3.07 -1.06zm-32.87 -7.06c-0.38,0.83 -0.59,1.67 -0.62,2.54 -0.02,0.87 0.1,1.69 0.4,2.49 0.29,0.8 0.72,1.53 1.3,2.17 0.58,0.64 1.28,1.15 2.1,1.55l-7.24 1.94 -1.35 2.9 25.24 11.77 1.35 -2.89 -20.64 -9.62 7.18 -1.94 0.01 -0.03 6.45 3.01 1.37 -2.94 -10.99 -5.13c-0.56,-0.26 -1,-0.64 -1.32,-1.12 -0.32,-0.48 -0.51,-1.01 -0.57,-1.59 -0.05,-0.58 0.05,-1.14 0.31,-1.71 0.26,-0.55 0.64,-0.99 1.11,-1.31 0.48,-0.33 1.01,-0.52 1.59,-0.58 0.58,-0.06 1.14,0.03 1.7,0.29l13.31 6.2c0.77,0.37 1.46,0.84 2.05,1.45 0.59,0.6 1.08,1.28 1.44,2.04 0.37,0.76 0.61,1.56 0.71,2.41l3.15 -1.12c-0.23,-1.13 -0.61,-2.18 -1.16,-3.17 -0.53,-0.99 -1.22,-1.87 -2.04,-2.65 -0.81,-0.78 -1.74,-1.42 -2.78,-1.9l-13.3 -6.21c-0.83,-0.38 -1.66,-0.58 -2.53,-0.61 -0.86,-0.03 -1.69,0.11 -2.49,0.39 -0.8,0.28 -1.53,0.72 -2.17,1.29 -0.65,0.57 -1.16,1.27 -1.55,2.1zm-32.62 -29.13l-1.91 2.63 18.59 13.51 -10.52 14.48 2.63 1.91 12.43 -17.11 -21.22 -15.42zm-28.45 -11.85l-7.27 7.53 2.34 2.26 7.28 -7.53c0.71,-0.73 1.52,-1.29 2.41,-1.66 0.9,-0.38 1.82,-0.58 2.78,-0.6 0.96,-0.02 1.89,0.14 2.8,0.48 0.91,0.33 1.73,0.86 2.47,1.57l4.71 4.56c0.73,0.71 1.29,1.52 1.66,2.42 0.37,0.9 0.57,1.83 0.59,2.8 0.01,0.96 -0.15,1.9 -0.49,2.81 -0.34,0.91 -0.86,1.74 -1.58,2.48l-7.27 7.53 2.34 2.26 7.27 -7.53c0.81,-0.86 1.46,-1.79 1.94,-2.81 0.49,-1.02 0.81,-2.07 0.95,-3.16 0.15,-1.1 0.13,-2.19 -0.06,-3.27 -0.18,-1.09 -0.53,-2.13 -1.06,-3.13 -0.51,-0.99 -1.19,-1.91 -2.05,-2.73l-4.71 -4.56c-0.85,-0.82 -1.79,-1.46 -2.8,-1.94 -1.02,-0.48 -2.07,-0.79 -3.15,-0.93 -1.09,-0.15 -2.18,-0.12 -3.26,0.07 -1.09,0.19 -2.12,0.55 -3.12,1.07 -0.99,0.52 -1.9,1.2 -2.72,2.04zm1.21 -14.91l-16.21 13.59 2.09 2.49 3.9 1.58 2.82 -2.37 -3.9 -1.58 13.38 -11.23 -2.08 -2.49zm-25.37 -22.48c-0.74,0.53 -1.34,1.16 -1.79,1.89 -0.46,0.74 -0.76,1.52 -0.91,2.36 -0.15,0.83 -0.14,1.67 0.04,2.53 0.18,0.84 0.53,1.64 1.05,2.39l-7.24 -1.94 -2.61 1.83 15.97 22.81 2.61 -1.83 -13.06 -18.66 7.18 1.91 0.02 -0.01 4.08 5.82 2.65 -1.86 -6.95 -9.94c-0.35,-0.51 -0.54,-1.05 -0.58,-1.63 -0.04,-0.58 0.06,-1.13 0.3,-1.66 0.25,-0.53 0.62,-0.97 1.12,-1.33 0.5,-0.34 1.04,-0.53 1.61,-0.58 0.59,-0.04 1.14,0.06 1.66,0.3 0.53,0.24 0.97,0.6 1.32,1.1l8.42 12.03c0.49,0.7 0.85,1.46 1.07,2.28 0.21,0.81 0.29,1.63 0.22,2.48 -0.06,0.85 -0.26,1.66 -0.6,2.44l3.29 0.61c0.36,-1.09 0.56,-2.19 0.58,-3.32 0.03,-1.13 -0.12,-2.23 -0.44,-3.32 -0.32,-1.08 -0.81,-2.1 -1.46,-3.04l-8.42 -12.03c-0.53,-0.74 -1.15,-1.33 -1.88,-1.79 -0.73,-0.46 -1.51,-0.76 -2.36,-0.91 -0.83,-0.15 -1.67,-0.14 -2.52,0.03 -0.84,0.17 -1.64,0.52 -2.4,1.04zm-13.82 -41.35l-2.97 1.32 9.35 20.99 -16.35 7.28 1.32 2.96 19.32 -8.6 -10.66 -23.96zm-19.41 -23.91l-9.96 3.24 1 3.09 9.96 -3.24c0.97,-0.31 1.95,-0.42 2.91,-0.33 0.97,0.08 1.88,0.33 2.74,0.77 0.86,0.43 1.61,1.01 2.25,1.74 0.64,0.72 1.12,1.57 1.44,2.54l2.03 6.24c0.31,0.97 0.42,1.94 0.33,2.91 -0.09,0.97 -0.35,1.88 -0.8,2.74 -0.44,0.86 -1.02,1.61 -1.75,2.25 -0.73,0.64 -1.58,1.13 -2.55,1.45l-9.96 3.23 1.01 3.09 9.96 -3.23c1.13,-0.37 2.14,-0.89 3.04,-1.57 0.91,-0.67 1.68,-1.45 2.32,-2.34 0.64,-0.9 1.14,-1.88 1.48,-2.92 0.35,-1.04 0.53,-2.12 0.54,-3.25 0.01,-1.12 -0.16,-2.25 -0.52,-3.38l-2.03 -6.24c-0.37,-1.12 -0.89,-2.13 -1.56,-3.04 -0.67,-0.9 -1.45,-1.67 -2.35,-2.3 -0.9,-0.64 -1.87,-1.13 -2.91,-1.47 -1.05,-0.33 -2.13,-0.5 -3.26,-0.52 -1.12,-0.01 -2.24,0.17 -3.36,0.52zm8.64 -12.97l-20.61 4.76 0.73 3.17 2.76 3.17 3.59 -0.83 -2.75 -3.17 17.02 -3.93 -0.73 -3.16zm-11.06 -31.68c-0.91,0.11 -1.73,0.39 -2.47,0.82 -0.75,0.44 -1.39,0.98 -1.91,1.66 -0.52,0.67 -0.91,1.41 -1.15,2.25 -0.24,0.83 -0.31,1.7 -0.2,2.6l-5.48 -5.12 -3.17 0.39 3.39 27.65 3.17 -0.39 -2.77 -22.6 5.45 5.06 0.03 -0 0.86 7.05 3.23 -0.39 -1.47 -12.04c-0.08,-0.62 0.01,-1.19 0.25,-1.72 0.23,-0.53 0.58,-0.97 1.04,-1.33 0.47,-0.35 1,-0.56 1.61,-0.65 0.61,-0.07 1.17,0.01 1.7,0.25 0.53,0.24 0.97,0.58 1.33,1.04 0.35,0.46 0.58,0.98 0.65,1.59l1.79 14.57c0.1,0.85 0.05,1.68 -0.14,2.51 -0.19,0.82 -0.51,1.58 -0.97,2.3 -0.45,0.71 -1,1.34 -1.67,1.88l2.62 2.08c0.83,-0.79 1.52,-1.67 2.08,-2.66 0.55,-0.98 0.94,-2.03 1.17,-3.14 0.22,-1.11 0.27,-2.23 0.13,-3.37l-1.78 -14.57c-0.12,-0.9 -0.39,-1.72 -0.82,-2.47 -0.43,-0.74 -0.98,-1.38 -1.65,-1.91 -0.66,-0.52 -1.42,-0.91 -2.24,-1.15 -0.82,-0.24 -1.69,-0.32 -2.6,-0.2zm8.72 -43.12l-3.24 -0.29 -2 22.9 -17.83 -1.57 -0.28 3.24 21.07 1.84 2.28 -26.13zm-3.98 -30.66l-10.16 -2.54 -0.79 3.16 10.16 2.53c0.99,0.25 1.88,0.67 2.65,1.26 0.78,0.58 1.42,1.28 1.91,2.1 0.5,0.82 0.82,1.71 0.99,2.67 0.16,0.95 0.12,1.93 -0.12,2.92l-1.59 6.36c-0.25,0.98 -0.67,1.87 -1.26,2.65 -0.6,0.78 -1.3,1.41 -2.13,1.91 -0.82,0.49 -1.72,0.82 -2.68,0.98 -0.96,0.16 -1.94,0.12 -2.93,-0.13l-10.16 -2.53 -0.78 3.16 10.16 2.53c1.15,0.29 2.29,0.38 3.4,0.28 1.13,-0.09 2.19,-0.34 3.22,-0.76 1.02,-0.42 1.96,-0.98 2.8,-1.69 0.85,-0.7 1.58,-1.52 2.18,-2.48 0.6,-0.94 1.05,-1.98 1.34,-3.14l1.59 -6.36c0.28,-1.15 0.37,-2.28 0.29,-3.4 -0.1,-1.12 -0.35,-2.18 -0.78,-3.2 -0.42,-1.02 -0.98,-1.94 -1.69,-2.79 -0.71,-0.84 -1.53,-1.56 -2.48,-2.17 -0.94,-0.6 -1.99,-1.04 -3.13,-1.33zm13.18 -6.57l-20 -6.89 -1.06 3.06 0.65 4.16 3.49 1.2 -0.66 -4.15 16.51 5.68 1.06 -3.06zm5.66 -33.15c-0.85,-0.34 -1.7,-0.49 -2.56,-0.48 -0.86,0.02 -1.69,0.19 -2.47,0.52 -0.78,0.33 -1.48,0.8 -2.1,1.41 -0.61,0.61 -1.09,1.33 -1.43,2.18l-2.32 -7.13 -2.96 -1.19 -10.44 25.82 2.97 1.2 8.53 -21.12 2.31 7.07 0.03 0.01 -2.66 6.59 3.01 1.22 4.54 -11.25c0.24,-0.57 0.59,-1.03 1.06,-1.38 0.46,-0.34 0.98,-0.56 1.55,-0.65 0.58,-0.09 1.15,-0.01 1.73,0.21 0.56,0.23 1.01,0.58 1.37,1.04 0.35,0.47 0.57,0.98 0.65,1.55 0.09,0.57 0.02,1.14 -0.2,1.71l-5.5 13.61c-0.32,0.8 -0.77,1.5 -1.33,2.13 -0.57,0.62 -1.22,1.13 -1.96,1.54 -0.74,0.41 -1.52,0.69 -2.37,0.83l1.28 3.09c1.11,-0.29 2.14,-0.73 3.1,-1.32 0.97,-0.59 1.81,-1.31 2.54,-2.17 0.73,-0.86 1.31,-1.82 1.75,-2.88l5.5 -13.61c0.33,-0.84 0.49,-1.69 0.48,-2.55 -0.01,-0.86 -0.19,-1.68 -0.52,-2.47 -0.33,-0.79 -0.8,-1.48 -1.4,-2.1 -0.6,-0.61 -1.33,-1.09 -2.18,-1.44zm29.38 -32.92l-2.63 -1.92 -13.51 18.59 -14.48 -10.52 -1.92 2.63 17.11 12.43 15.42 -21.22zm10.66 -28.8l-7.9 -6.87 -2.13 2.45 7.9 6.87c0.77,0.67 1.36,1.45 1.78,2.32 0.43,0.87 0.68,1.78 0.75,2.74 0.07,0.96 -0.04,1.9 -0.33,2.82 -0.29,0.93 -0.77,1.77 -1.44,2.55l-4.3 4.95c-0.67,0.77 -1.45,1.37 -2.33,1.79 -0.88,0.42 -1.8,0.66 -2.76,0.73 -0.97,0.07 -1.91,-0.05 -2.84,-0.34 -0.92,-0.3 -1.78,-0.78 -2.56,-1.44l-7.9 -6.87 -2.13 2.45 7.9 6.87c0.9,0.78 1.87,1.37 2.9,1.8 1.04,0.43 2.11,0.69 3.21,0.79 1.1,0.08 2.19,0.01 3.26,-0.23 1.08,-0.24 2.1,-0.65 3.06,-1.22 0.97,-0.57 1.84,-1.29 2.63,-2.19l4.3 -4.95c0.77,-0.9 1.37,-1.86 1.79,-2.9 0.43,-1.04 0.68,-2.1 0.76,-3.2 0.09,-1.1 0,-2.18 -0.24,-3.25 -0.25,-1.07 -0.66,-2.09 -1.23,-3.06 -0.57,-0.96 -1.3,-1.83 -2.18,-2.61zm15.65 0.79l-14.42 -15.47 -2.38 2.21 -1.37 3.97 2.51 2.7 1.37 -3.98 11.91 12.77 2.38 -2.21zm21.18 -25.79c-0.57,-0.71 -1.23,-1.28 -1.98,-1.7 -0.76,-0.41 -1.56,-0.67 -2.41,-0.78 -0.84,-0.1 -1.68,-0.04 -2.52,0.17 -0.83,0.22 -1.61,0.61 -2.33,1.17l1.56 -7.33 -1.96 -2.52 -21.95 17.15 1.96 2.52 17.94 -14.02 -1.53 7.27 0.01 0.02 -5.6 4.38 2 2.56 9.56 -7.47c0.49,-0.38 1.02,-0.6 1.6,-0.66 0.57,-0.07 1.13,0 1.67,0.21 0.54,0.22 1,0.56 1.39,1.04 0.37,0.48 0.59,1.02 0.66,1.59 0.07,0.58 0,1.13 -0.21,1.67 -0.21,0.54 -0.55,1 -1.03,1.38l-11.57 9.04c-0.68,0.53 -1.42,0.92 -2.22,1.18 -0.81,0.25 -1.62,0.37 -2.47,0.36 -0.84,-0.02 -1.67,-0.17 -2.46,-0.47l-0.44 3.31c1.11,0.31 2.22,0.45 3.35,0.41 1.13,-0.03 2.22,-0.24 3.29,-0.62 1.06,-0.37 2.05,-0.92 2.96,-1.61l11.57 -9.04c0.71,-0.56 1.27,-1.21 1.69,-1.97 0.42,-0.76 0.68,-1.55 0.78,-2.4 0.11,-0.85 0.06,-1.69 -0.16,-2.51 -0.22,-0.83 -0.61,-1.61 -1.17,-2.34zm41.96 -14.82l-1.43 -2.92 -20.65 10.08 -7.85 -16.09 -2.91 1.43 9.27 19 23.57 -11.49zm23.77 -19.14l-3.23 -9.96 -3.09 1 3.24 9.96c0.31,0.97 0.42,1.95 0.33,2.91 -0.08,0.97 -0.33,1.88 -0.77,2.74 -0.43,0.86 -1.01,1.6 -1.74,2.25 -0.72,0.65 -1.57,1.13 -2.54,1.44l-6.24 2.03c-0.97,0.31 -1.94,0.42 -2.91,0.33 -0.97,-0.09 -1.88,-0.35 -2.74,-0.8 -0.86,-0.44 -1.61,-1.02 -2.26,-1.76 -0.64,-0.72 -1.13,-1.58 -1.45,-2.55l-3.23 -9.96 -3.09 1 3.23 9.96c0.37,1.13 0.89,2.13 1.57,3.04 0.67,0.91 1.45,1.68 2.34,2.32 0.91,0.64 1.88,1.14 2.92,1.48 1.04,0.35 2.13,0.52 3.25,0.53 1.12,0.01 2.25,-0.16 3.38,-0.52l6.24 -2.03c1.12,-0.37 2.13,-0.89 3.03,-1.56 0.9,-0.67 1.67,-1.45 2.3,-2.35 0.64,-0.9 1.13,-1.86 1.47,-2.9 0.34,-1.05 0.51,-2.13 0.52,-3.26 0.01,-1.12 -0.17,-2.25 -0.53,-3.36zm12.8 8.23l-4.76 -20.61 -3.17 0.73 -3.17 2.75 0.83 3.59 3.17 -2.76 3.93 17.02 3.16 -0.73zm31.62 -11.29c-0.12,-0.91 -0.39,-1.73 -0.82,-2.47 -0.44,-0.75 -0.98,-1.38 -1.66,-1.91 -0.67,-0.52 -1.42,-0.9 -2.26,-1.14 -0.83,-0.24 -1.69,-0.31 -2.59,-0.2l5.11 -5.48 -0.39 -3.18 -27.64 3.4 0.39 3.17 22.6 -2.77 -5.06 5.45 0 0.03 -7.06 0.86 0.39 3.22 12.04 -1.47c0.62,-0.07 1.18,0.01 1.72,0.25 0.52,0.24 0.97,0.58 1.32,1.04 0.35,0.47 0.57,1 0.65,1.61 0.07,0.61 -0.01,1.18 -0.24,1.7 -0.24,0.54 -0.59,0.98 -1.04,1.33 -0.46,0.35 -0.99,0.57 -1.59,0.65l-14.57 1.78c-0.85,0.1 -1.68,0.06 -2.51,-0.13 -0.82,-0.19 -1.59,-0.52 -2.3,-0.97 -0.72,-0.45 -1.34,-1 -1.88,-1.67l-2.08 2.62c0.79,0.83 1.67,1.52 2.66,2.08 0.98,0.55 2.03,0.94 3.14,1.16 1.11,0.22 2.23,0.27 3.37,0.14l14.57 -1.79c0.91,-0.12 1.72,-0.39 2.47,-0.82 0.75,-0.43 1.38,-0.98 1.91,-1.65 0.53,-0.66 0.92,-1.41 1.16,-2.24 0.24,-0.82 0.31,-1.69 0.2,-2.6zm43.22 7.61l0.23 -3.25 -22.93 -1.61 1.25 -17.85 -3.24 -0.23 -1.47 21.1 26.17 1.83zm30.06 -5.38l1.82 -10.31 -3.2 -0.57 -1.82 10.31c-0.18,1.01 -0.54,1.92 -1.07,2.73 -0.53,0.81 -1.18,1.5 -1.97,2.05 -0.78,0.56 -1.64,0.95 -2.58,1.17 -0.94,0.23 -1.92,0.25 -2.92,0.08l-6.46 -1.13c-1,-0.18 -1.92,-0.54 -2.73,-1.08 -0.81,-0.53 -1.49,-1.19 -2.05,-1.98 -0.55,-0.79 -0.94,-1.66 -1.16,-2.6 -0.22,-0.95 -0.25,-1.93 -0.08,-2.94l1.82 -10.31 -3.2 -0.57 -1.82 10.32c-0.2,1.17 -0.22,2.31 -0.04,3.41 0.17,1.12 0.49,2.16 0.98,3.15 0.49,0.99 1.12,1.89 1.88,2.68 0.75,0.8 1.63,1.46 2.62,2 0.98,0.53 2.06,0.91 3.23,1.12l6.45 1.13c1.16,0.2 2.3,0.22 3.41,0.05 1.11,-0.17 2.15,-0.5 3.14,-1 0.98,-0.49 1.87,-1.12 2.66,-1.88 0.79,-0.77 1.45,-1.64 1.99,-2.63 0.53,-0.98 0.9,-2.06 1.11,-3.22zm7.46 13.77l5.48 -20.43 -3.14 -0.84 -4.09 0.94 -0.96 3.56 4.1 -0.95 -4.52 16.87 3.13 0.84zm33.01 5.15c0.32,-0.85 0.46,-1.71 0.43,-2.57 -0.03,-0.86 -0.22,-1.69 -0.57,-2.46 -0.34,-0.78 -0.82,-1.46 -1.45,-2.08 -0.62,-0.59 -1.35,-1.06 -2.2,-1.39l7.09 -2.44 1.14 -2.98 -26 -9.99 -1.15 2.98 21.27 8.16 -7.03 2.43 -0.01 0.02 -6.63 -2.55 -1.16 3.03 11.32 4.35c0.58,0.23 1.04,0.57 1.4,1.03 0.35,0.45 0.58,0.97 0.67,1.55 0.1,0.57 0.03,1.14 -0.18,1.72 -0.22,0.57 -0.56,1.03 -1.01,1.39 -0.46,0.36 -0.97,0.59 -1.54,0.68 -0.57,0.1 -1.14,0.05 -1.71,-0.17l-13.71 -5.26c-0.8,-0.32 -1.51,-0.74 -2.15,-1.29 -0.63,-0.56 -1.16,-1.2 -1.58,-1.94 -0.42,-0.73 -0.72,-1.51 -0.87,-2.35l-3.06 1.34c0.31,1.11 0.76,2.13 1.37,3.08 0.61,0.95 1.35,1.78 2.23,2.5 0.87,0.72 1.84,1.29 2.91,1.7l13.7 5.26c0.85,0.32 1.7,0.47 2.56,0.44 0.87,-0.04 1.68,-0.23 2.46,-0.57 0.78,-0.34 1.47,-0.82 2.07,-1.44 0.6,-0.62 1.07,-1.35 1.41,-2.2zm33.97 28.55l1.73 -2.75 -19.49 -12.18 9.49 -15.18 -2.75 -1.72 -11.21 17.93 22.24 13.9zm28.62 10.8l6.87 -7.9 -2.45 -2.13 -6.87 7.9c-0.67,0.77 -1.45,1.37 -2.32,1.79 -0.87,0.43 -1.78,0.67 -2.74,0.75 -0.96,0.07 -1.9,-0.04 -2.82,-0.33 -0.93,-0.29 -1.77,-0.77 -2.55,-1.44l-4.95 -4.3c-0.77,-0.67 -1.37,-1.45 -1.79,-2.33 -0.42,-0.88 -0.66,-1.79 -0.73,-2.76 -0.06,-0.96 0.05,-1.91 0.34,-2.83 0.3,-0.93 0.78,-1.78 1.44,-2.56l6.87 -7.9 -2.45 -2.13 -6.87 7.9c-0.78,0.9 -1.37,1.87 -1.8,2.91 -0.43,1.04 -0.69,2.1 -0.79,3.2 -0.08,1.11 -0.01,2.2 0.23,3.27 0.24,1.08 0.65,2.1 1.22,3.06 0.57,0.97 1.29,1.84 2.19,2.62l4.95 4.31c0.9,0.77 1.86,1.36 2.9,1.79 1.04,0.43 2.1,0.68 3.2,0.77 1.1,0.08 2.18,0 3.25,-0.24 1.07,-0.25 2.09,-0.66 3.06,-1.23 0.96,-0.57 1.83,-1.3 2.61,-2.18zm-0.57 15.14l15.22 -14.69 -2.26 -2.34 -4 -1.3 -2.64 2.56 4 1.3 -12.57 12.13 2.25 2.34zm25.98 21.2c0.71,-0.58 1.26,-1.25 1.66,-2.01 0.4,-0.77 0.65,-1.57 0.74,-2.42 0.09,-0.84 0.01,-1.68 -0.22,-2.52 -0.24,-0.83 -0.64,-1.6 -1.21,-2.31l7.36 1.44 2.48 -2.01 -17.53 -21.64 -2.48 2.01 14.33 17.7 -7.29 -1.41 -0.02 0.01 -4.47 -5.52 -2.52 2.05 7.63 9.43c0.39,0.48 0.62,1.01 0.7,1.59 0.07,0.57 0.02,1.13 -0.18,1.67 -0.21,0.55 -0.55,1.01 -1.02,1.41 -0.48,0.38 -1,0.61 -1.58,0.7 -0.58,0.08 -1.13,0.02 -1.68,-0.18 -0.54,-0.2 -1.01,-0.53 -1.4,-1l-9.24 -11.41c-0.53,-0.67 -0.94,-1.4 -1.21,-2.2 -0.27,-0.8 -0.4,-1.61 -0.4,-2.46 0,-0.84 0.14,-1.67 0.42,-2.48l-3.32 -0.37c-0.3,1.12 -0.41,2.23 -0.35,3.35 0.05,1.13 0.27,2.22 0.67,3.28 0.4,1.06 0.96,2.04 1.67,2.93l9.24 11.41c0.58,0.7 1.24,1.25 2,1.66 0.77,0.4 1.57,0.65 2.42,0.74 0.84,0.1 1.68,0.02 2.51,-0.2 0.83,-0.23 1.6,-0.64 2.31,-1.21zm15.54 41.53l2.9 -1.48 -10.44 -20.48 15.95 -8.13 -1.47 -2.89 -18.85 9.6 11.91 23.37zm19.45 23.33l9.9 -3.41 -1.06 -3.07 -9.9 3.4c-0.97,0.32 -1.94,0.46 -2.9,0.39 -0.97,-0.07 -1.89,-0.31 -2.75,-0.72 -0.87,-0.42 -1.62,-0.98 -2.28,-1.7 -0.65,-0.71 -1.15,-1.55 -1.49,-2.52l-2.13 -6.2c-0.32,-0.96 -0.46,-1.94 -0.38,-2.9 0.08,-0.97 0.32,-1.88 0.75,-2.76 0.42,-0.86 0.99,-1.62 1.72,-2.28 0.71,-0.65 1.56,-1.15 2.53,-1.49l9.9 -3.41 -1.06 -3.07 -9.9 3.41c-1.13,0.39 -2.13,0.93 -3.01,1.61 -0.9,0.69 -1.66,1.48 -2.28,2.39 -0.63,0.91 -1.11,1.9 -1.44,2.94 -0.33,1.05 -0.48,2.14 -0.48,3.26 0.01,1.12 0.2,2.24 0.58,3.36l2.13 6.2c0.39,1.12 0.93,2.12 1.61,3.01 0.69,0.88 1.48,1.63 2.39,2.26 0.91,0.62 1.89,1.1 2.94,1.42 1.05,0.32 2.14,0.47 3.26,0.47 1.12,-0.01 2.24,-0.21 3.35,-0.58zm-7.81 12.98l20.52 -5.12 -0.79 -3.15 -2.81 -3.13 -3.58 0.89 2.81 3.12 -16.95 4.23 0.79 3.15zm11.91 31.24c0.9,-0.14 1.72,-0.42 2.45,-0.87 0.74,-0.45 1.37,-1.01 1.88,-1.69 0.51,-0.67 0.89,-1.43 1.12,-2.27 0.22,-0.83 0.28,-1.7 0.15,-2.61l5.57 5.02 3.16 -0.44 -3.87 -27.58 -3.17 0.45 3.17 22.55 -5.53 -4.96 -0.03 0 -0.99 -7.04 -3.21 0.45 1.69 12.01c0.08,0.62 0,1.19 -0.23,1.72 -0.22,0.53 -0.56,0.98 -1.02,1.34 -0.46,0.36 -0.99,0.59 -1.6,0.68 -0.6,0.08 -1.17,0 -1.71,-0.22 -0.53,-0.23 -0.98,-0.57 -1.34,-1.01 -0.36,-0.46 -0.59,-0.98 -0.68,-1.58l-2.05 -14.54c-0.12,-0.85 -0.09,-1.68 0.09,-2.51 0.18,-0.82 0.49,-1.6 0.93,-2.32 0.43,-0.72 0.97,-1.36 1.63,-1.9l-2.66 -2.03c-0.82,0.8 -1.49,1.7 -2.03,2.69 -0.54,0.99 -0.91,2.04 -1.11,3.16 -0.2,1.11 -0.23,2.23 -0.08,3.37l2.05 14.53c0.13,0.9 0.42,1.71 0.86,2.45 0.45,0.74 1.01,1.36 1.69,1.88 0.68,0.51 1.43,0.89 2.26,1.12 0.83,0.23 1.7,0.29 2.61,0.16zm-6.62 43.69l3.25 0.06 0.4 -22.98 17.9 0.32 0.06 -3.25 -21.15 -0.36 -0.46 26.22zm5.4 29.97l10.31 1.82 0.57 -3.2 -10.32 -1.82c-1,-0.18 -1.92,-0.54 -2.73,-1.07 -0.81,-0.53 -1.5,-1.18 -2.05,-1.97 -0.56,-0.78 -0.95,-1.64 -1.17,-2.58 -0.23,-0.94 -0.25,-1.92 -0.08,-2.92l1.13 -6.46c0.18,-1 0.54,-1.92 1.08,-2.73 0.54,-0.81 1.2,-1.49 1.99,-2.05 0.79,-0.55 1.66,-0.94 2.6,-1.16 0.95,-0.22 1.93,-0.25 2.93,-0.08l10.32 1.82 0.56 -3.2 -10.31 -1.82c-1.17,-0.2 -2.31,-0.22 -3.41,-0.04 -1.12,0.17 -2.17,0.49 -3.15,0.98 -0.99,0.49 -1.89,1.12 -2.68,1.88 -0.8,0.75 -1.46,1.63 -2,2.62 -0.53,0.98 -0.91,2.06 -1.12,3.23l-1.14 6.45c-0.2,1.16 -0.22,2.3 -0.05,3.41 0.17,1.11 0.5,2.15 1,3.14 0.49,0.98 1.12,1.87 1.88,2.66 0.77,0.79 1.64,1.45 2.62,1.99 0.99,0.53 2.06,0.9 3.22,1.11zm-13.66 7.34l20.43 5.48 0.84 -3.14 -0.94 -4.1 -3.56 -0.96 0.94 4.1 -16.87 -4.52 -0.85 3.13zm-4.92 33.37c0.85,0.32 1.71,0.46 2.57,0.43 0.86,-0.03 1.69,-0.22 2.46,-0.57 0.78,-0.34 1.46,-0.82 2.08,-1.45 0.6,-0.62 1.06,-1.35 1.4,-2.2l2.43 7.09 2.98 1.14 9.98 -26 -2.98 -1.15 -8.16 21.27 -2.43 -7.03 -0.02 -0.01 2.55 -6.63 -3.03 -1.16 -4.35 11.32c-0.23,0.58 -0.57,1.04 -1.03,1.4 -0.45,0.35 -0.97,0.58 -1.54,0.67 -0.58,0.1 -1.15,0.03 -1.72,-0.18 -0.57,-0.22 -1.03,-0.56 -1.39,-1.01 -0.36,-0.46 -0.59,-0.97 -0.68,-1.54 -0.1,-0.57 -0.05,-1.14 0.16,-1.71l5.26 -13.71c0.31,-0.8 0.74,-1.51 1.29,-2.15 0.55,-0.63 1.2,-1.15 1.94,-1.57 0.73,-0.42 1.51,-0.72 2.35,-0.88l-1.34 -3.06c-1.1,0.31 -2.13,0.76 -3.08,1.37 -0.95,0.61 -1.78,1.35 -2.5,2.23 -0.72,0.87 -1.29,1.84 -1.7,2.91l-5.26 13.7c-0.32,0.85 -0.46,1.7 -0.44,2.57 0.03,0.86 0.22,1.68 0.57,2.46 0.34,0.78 0.81,1.47 1.43,2.07 0.62,0.6 1.35,1.07 2.2,1.41zm-27.61 34.2l2.75 1.72 12.18 -19.49 15.18 9.48 1.72 -2.75 -17.93 -11.21 -13.9 22.25zm-10.48 28.87l7.9 6.86 2.13 -2.45 -7.9 -6.87c-0.77,-0.67 -1.37,-1.45 -1.79,-2.32 -0.43,-0.87 -0.67,-1.78 -0.75,-2.74 -0.07,-0.96 0.04,-1.9 0.32,-2.82 0.3,-0.92 0.77,-1.77 1.44,-2.55l4.3 -4.95c0.67,-0.76 1.45,-1.36 2.33,-1.78 0.88,-0.42 1.8,-0.66 2.76,-0.73 0.97,-0.06 1.91,0.05 2.84,0.34 0.92,0.29 1.78,0.78 2.56,1.44l7.9 6.87 2.13 -2.45 -7.9 -6.87c-0.9,-0.78 -1.87,-1.37 -2.91,-1.8 -1.04,-0.43 -2.1,-0.69 -3.2,-0.78 -1.1,-0.09 -2.2,-0.01 -3.27,0.23 -1.08,0.24 -2.1,0.65 -3.06,1.22 -0.97,0.56 -1.84,1.29 -2.63,2.18l-4.3 4.95c-0.77,0.9 -1.37,1.86 -1.79,2.9 -0.43,1.04 -0.68,2.1 -0.77,3.2 -0.08,1.09 -0,2.17 0.24,3.25 0.26,1.08 0.66,2.09 1.23,3.06 0.57,0.97 1.3,1.84 2.19,2.61zm-15.02 -0.11l14.69 15.22 2.34 -2.26 1.3 -4 -2.56 -2.65 -1.3 4 -12.13 -12.57 -2.34 2.26zm-20.68 26.32c0.58,0.71 1.25,1.26 2.01,1.66 0.76,0.4 1.57,0.65 2.42,0.74 0.84,0.09 1.68,0.02 2.52,-0.22 0.83,-0.24 1.6,-0.64 2.31,-1.21l-1.44 7.36 2.01 2.48 21.65 -17.53 -2.01 -2.48 -17.7 14.33 1.41 -7.29 -0.01 -0.02 5.52 -4.48 -2.04 -2.52 -9.43 7.63c-0.48,0.38 -1.01,0.62 -1.59,0.69 -0.57,0.07 -1.13,0.02 -1.67,-0.18 -0.55,-0.21 -1.01,-0.55 -1.41,-1.02 -0.38,-0.48 -0.61,-1 -0.69,-1.57 -0.08,-0.58 -0.02,-1.14 0.18,-1.68 0.2,-0.55 0.52,-1.01 1,-1.4l11.41 -9.24c0.67,-0.54 1.4,-0.94 2.2,-1.22 0.79,-0.27 1.61,-0.4 2.46,-0.4 0.84,0 1.67,0.14 2.48,0.42l0.37 -3.32c-1.11,-0.29 -2.23,-0.41 -3.35,-0.35 -1.13,0.05 -2.22,0.28 -3.28,0.67 -1.06,0.4 -2.03,0.95 -2.93,1.67l-11.41 9.24c-0.7,0.58 -1.25,1.24 -1.66,2 -0.4,0.77 -0.65,1.57 -0.74,2.42 -0.09,0.84 -0.02,1.68 0.2,2.51 0.23,0.83 0.64,1.61 1.21,2.31z"/>
   </g>
   <path class="fil33" d="M1319.39 552.55c13.68,-30.09 47.87,-16.41 47.87,-16.41 0,0 5.22,-19.59 21.69,-24.4 16.47,-4.81 25.39,0.69 25.39,0.69 0,0 -30.91,1.37 -36.4,17.37 -5.49,15.99 -5.49,15.99 -5.49,15.99 0,0 -28.82,-14.79 -53.06,6.76z"/>
   <path class="fil34" d="M933.33 240.13c5.09,0 9.43,3 11.15,7.22 6.3,0.94 11.17,7.01 11.17,14.35 0,7.99 -5.77,14.47 -12.88,14.47 -0.82,0 -1.63,-0.09 -2.42,-0.25l0.01 0.54 0 0.07c4.41,1.34 7.64,5.68 7.64,10.82 0,6.21 -4.72,11.25 -10.54,11.25 -5.82,0 -10.54,-5.04 -10.54,-11.25l0.01 -0.46c-3.89,-1.53 -6.68,-5.62 -6.68,-10.43 0,-0.63 0.05,-1.24 0.14,-1.83 -4.3,-2.08 -7.22,-6.15 -7.22,-10.83 0,-5.06 3.4,-9.4 8.27,-11.29 -0.04,-0.36 -0.06,-0.73 -0.06,-1.11 0,-6.22 5.34,-11.26 11.94,-11.26zm119.41 149.81l0 0.16c0,3.29 -3.04,5.96 -6.79,5.96 -3.16,0 -5.82,-1.9 -6.58,-4.47 -5.68,-1.04 -9.98,-5.95 -9.98,-11.85 0,-2.31 0.65,-4.47 1.8,-6.3 -3.25,-4.31 -5.2,-9.82 -5.2,-15.83 0,-13.79 10.27,-24.97 22.93,-24.97 12.66,0 22.93,11.18 22.93,24.97 0,2.16 -0.25,4.26 -0.73,6.26 1.96,1.4 3.27,3.92 3.27,6.8 0,3.12 -1.54,5.82 -3.78,7.12 0.16,0.77 0.25,1.57 0.25,2.38 0,6.43 -5.26,11.63 -11.75,11.63 -2.35,0 -4.54,-0.68 -6.37,-1.86z"/>
   <path class="fil35" d="M943.63 1444.71c24.87,-12.43 42.96,-14.7 36.17,-44.09 -6.78,-29.39 0,-54.26 2.26,-68.96 2.26,-14.69 1.13,-18.08 -21.48,-33.91 -22.61,-15.83 -54.26,-84.78 -63.3,-162.78 -9.04,-78 -24.87,-167.3 -24.87,-167.3 0,0 101.74,24.87 134.52,27.13 32.78,2.26 41.82,-6.78 57.65,3.39 15.83,10.17 27.13,14.69 33.91,14.69 6.78,0 160.52,221.56 196.69,261.13 36.17,39.56 229.78,177.93 263.07,195.99 33.29,18.06 63.19,64.32 68.84,78.99 5.64,14.67 18.06,36.11 19.75,44.01 1.69,7.9 0,11.29 -2.82,16.36 -2.82,5.08 -15.8,6.21 -7.33,11.29 8.46,5.08 28.21,2.26 33.29,-1.69 5.08,-3.95 11.28,-14.11 -1.13,-28.78 -12.42,-14.67 -22.57,-45.7 -20.88,-60.94 1.69,-15.23 5.65,-28.77 -10.16,-33.29 -15.8,-4.51 -65.45,-28.77 -96.48,-66.01 -31.03,-37.24 -122.92,-133.32 -145.53,-161.58 -22.61,-28.26 -44.09,-39.56 -44.09,-39.56 0,0 -96.74,-280.17 -119.37,-307.32 -22.63,-27.16 -52.05,-45.26 -52.05,-45.26l24.89 -151.62c0,0 78.86,43.52 143.74,84.7 64.88,41.19 68.27,46.83 77.3,67.14 9.03,20.31 28.21,46.83 37.8,51.91 9.59,5.08 27.65,-7.9 26.52,-15.23 -1.13,-7.34 16.36,1.13 22.57,-10.16 6.21,-11.29 5.64,-10.72 5.64,-10.72 0,0 15.8,2.26 19.75,-6.2 3.95,-8.47 2.82,-29.9 -5.64,-39.5 -8.46,-9.59 -31.03,-32.16 -55.29,-47.96 -24.26,-15.8 -94.22,-94.79 -125.26,-139.36 -31.03,-44.57 -214.26,-204.77 -269.65,-235.29 -55.39,-30.52 -50.82,-49.07 -51.39,-63.74 -0.56,-14.67 22.57,-56.98 1.13,-80.68 -21.44,-23.7 -64.88,-43.44 -76.73,-33.86 -11.85,9.59 -15.65,56.61 -16.77,67.9 -1.13,11.28 -3.95,15.8 3.39,15.8 7.33,0 3.79,17.87 -0.72,28.03 -4.51,10.16 -33.85,-14.67 -67.14,-32.73 -33.29,-18.06 -209.32,-127.51 -222.3,-145.57 -12.98,-18.06 -21.44,-20.87 -31.03,-34.42 -9.59,-13.54 -15.8,-31.03 -22.57,-37.8 -6.77,-6.77 -18.05,-11.85 -27.64,-18.62 -9.59,-6.77 -17.49,-14.1 -20.88,-8.46 -3.39,5.65 5.08,19.19 11.29,24.26 6.21,5.08 11.85,6.77 11.85,12.41 0,5.65 0,6.21 -10.16,7.34 -10.16,1.13 -25.39,-1.69 -29.9,-3.39 -4.52,-1.69 -12.98,-16.93 -15.8,-22.57 -2.82,-5.64 -5.64,-18.62 -11.28,-19.18 -5.65,-0.57 -17.49,1.13 -17.49,9.03 0,7.9 10.72,23.13 12.42,28.21 1.69,5.08 5.64,11.85 15.8,16.93 10.16,5.08 -0.56,10.16 -11.85,4.52 -11.29,-5.64 -25.39,-20.31 -25.96,-25.96 -0.56,-5.64 -7.33,-14.67 -15.23,-5.08 -7.9,9.59 -0.56,23.13 5.08,30.47 5.65,7.33 18.62,16.36 26.52,20.31 7.9,3.95 13.54,5.64 8.46,9.03 -5.08,3.39 -24.26,-4.51 -32.16,-10.16 -7.9,-5.64 -18.06,-4.51 -18.06,4.52 0,9.03 31.6,22 39.5,26.52 7.9,4.52 40.62,14.1 48.52,13.54 7.9,-0.56 20.88,-1.69 32.73,2.26 11.85,3.95 47.39,60.93 66.58,77.86 19.19,16.93 130.96,156.86 172.78,182.86 41.82,26 61.04,48.61 62.17,70.09 1.13,21.47 23.9,116.34 53.32,136.71 29.42,20.36 47.52,52.05 54.31,79.2 6.79,27.15 36.2,42.99 29.42,58.84 -6.79,15.84 -165.19,2.26 -208.19,15.84 -42.99,13.57 -56.57,-9.05 -65.62,31.68 -9.05,40.73 120.94,284.78 146.94,349.21 26,64.43 57.65,101.74 59.91,115.3 2.26,13.57 12.43,88.18 9.04,93.83 -3.39,5.65 -38.43,12.43 -11.3,30.52z"/>
   <path class="fil36" d="M942.54 354.7c-1.19,11.83 13.27,22.74 26.13,20.62 12.86,-2.12 29.37,-5.98 29.47,-5.9 8.3,0.16 19.88,-11.67 27.85,-11.8 5.45,-0.09 4.09,26 9.03,25.82 5.12,10.82 17.5,23.89 47.65,40.5 21.59,11.89 62.59,43.48 106.43,80.25 -13.83,0.76 -30.24,1.39 -48.37,1.58 -54.16,0.57 -187.32,-66.58 -209.88,-132.59 0.17,0.15 0.36,0.3 0.55,0.44 -0.18,-0.28 -9.4,-14.66 -9.28,-20.07 10.28,5.87 17.41,8.43 19.45,3.84 0.36,-0.81 0.68,-1.71 0.97,-2.68zm6.85 25.39c-4.12,-1.21 -6.95,-1.87 -8.9,-2.2 2.65,0.83 5.64,1.57 8.9,2.2z"/>
   <path class="fil37" d="M937.25 1267.71c-17.13,-30.81 -33.78,-79.72 -39.94,-132.85 -9.04,-78 -24.87,-167.3 -24.87,-167.3 0,0 101.74,24.87 134.52,27.13 32.78,2.26 41.82,-6.78 57.65,3.39 15.83,10.17 27.13,14.69 33.91,14.69 6.78,0 160.52,221.56 196.69,261.13 36.17,39.57 229.78,177.93 263.07,195.99 0.57,0.31 1.14,0.63 1.71,0.96 3.2,-4.61 6.37,-9.29 9.56,-13.8 -10.07,-8.04 -19.82,-17.15 -28.2,-27.21 -31.03,-37.24 -122.92,-133.32 -145.53,-161.58 -22.61,-28.26 -44.09,-39.56 -44.09,-39.56 0,0 -96.74,-280.18 -119.37,-307.33 -22.63,-27.15 -52.05,-45.26 -52.05,-45.26l24.89 -151.61c0,0 78.86,43.52 143.74,84.7 24.52,15.56 40.25,26.05 50.83,34.17 7.44,-31.51 27.04,-55.77 53.95,-65.51 -31.41,-30.73 -77.72,-84.74 -101.39,-118.74 -31.03,-44.57 -214.26,-204.77 -269.65,-235.3 -16.14,-8.89 -27.19,-16.77 -34.76,-23.83 0.44,2.89 0.84,6.12 1.19,9.72 2.26,23.13 -53.03,37.8 -70.52,36.67 -17.49,-1.13 -16.93,-41.75 -23.7,-72.22 0,0 -10.16,3.39 0.6,2.81 10.76,-0.57 -18.5,-17.37 -18.5,-17.37l0 -0c-10.4,-0.73 -35.13,-20.19 -62.55,-35.06 -31.98,-17.35 -195.68,-119.04 -220.01,-143.01 -23.32,12.02 -40.13,37.47 -45.82,60.23 11.63,15.38 23.59,31.14 32.24,38.77 19.19,16.93 130.96,156.86 172.78,182.86 41.82,26 61.04,48.61 62.17,70.08 1.13,21.48 23.9,116.34 53.32,136.71 29.42,20.36 47.52,52.05 54.31,79.2 6.79,27.15 36.2,42.99 29.42,58.83 -6.79,15.84 -165.19,2.26 -208.18,15.84 -43,13.58 -56.57,-9.05 -65.63,31.68 -9.05,40.73 120.94,284.77 146.94,349.21 11.89,29.47 24.97,53.26 35.87,71.71 5.23,-3.62 10.36,-6.57 15.37,-8.95z"/>
   <path class="fil38" d="M1047.97 400.16c0.43,2.85 0.82,6.02 1.16,9.55 1.78,18.22 -32.15,31.19 -55.18,35.32 49.15,35.35 113.18,61.08 146.79,60.73 18.12,-0.19 34.54,-0.82 48.37,-1.58 -43.84,-36.77 -84.85,-68.36 -106.43,-80.25 -16.1,-8.87 -27.13,-16.73 -34.7,-23.78zm-85.76 18.44c-2.57,-13.63 -4.13,-30.15 -7.3,-44.44 0,0 -10.16,3.39 0.6,2.81 2.67,-0.14 2.88,-1.29 1.67,-2.92 -5.01,-1.87 -9.44,-5.31 -12.09,-9.5 -3.73,-2.42 -7.04,-4.35 -7.87,-4.84 -3.49,-0.15 -8.68,-2.53 -15.1,-6.19 -0.12,5.41 9.1,19.8 9.28,20.07 -0.19,-0.14 -0.38,-0.29 -0.55,-0.44 5.26,15.37 16.51,30.81 31.36,45.43zm-12.83 -38.52c-4.12,-1.21 -6.95,-1.87 -8.9,-2.2 2.65,0.83 5.64,1.57 8.9,2.2z"/>
   <path class="fil36" d="M874.93 982.28c-1.57,-9.24 -2.52,-14.61 -2.52,-14.61 0,0 101.74,24.87 134.52,27.13 32.78,2.26 41.82,-6.78 57.65,3.39 15.83,10.17 27.13,14.69 33.91,14.69 6.78,0 160.52,221.56 196.69,261.13 19.2,21 82.77,69.85 143.17,113.75 1.52,-31.94 -44.65,-86.83 -53.86,-103.58 -3.4,-6.19 -9.02,-22.22 -15.32,-43.07 -10.35,-8.57 -17.47,-12.31 -17.47,-12.31 0,0 -96.74,-280.17 -119.37,-307.32 -22.63,-27.16 -52.05,-45.26 -52.05,-45.26l24.89 -151.62c0,0 78.86,43.52 143.74,84.7 64.88,41.19 68.27,46.83 77.3,67.14 3.96,8.92 9.88,19.03 16.1,28.01 3.26,-2.58 5.7,-3.91 7.07,-3.72 12.45,1.7 34.53,-26.96 34.53,-26.96 0,0 -14.16,10.5 -16.42,12.2 -2.26,1.7 -12.45,-7.94 -16.7,-15.89 -4.25,-7.94 30,-38.31 28.02,-41.71 -1.98,-3.41 -32.55,22.7 -41.04,25.82 -8.49,3.12 -18.12,-14.47 -65.11,-49.37 -46.99,-34.9 -208.25,-121.33 -224.05,-132.61 -15.8,-11.29 -25.95,-74.48 -25.95,-74.48 0,0 -4.52,3.39 -5.08,18.06 -0.57,14.67 16.36,63.19 19.74,80.68 3.39,17.49 -3.39,45.14 -23.13,43.44 -19.74,-1.69 -117.92,-76.73 -127.51,-94.22 -9.59,-17.49 1.69,-108.33 1.69,-108.33 0,0 -4.52,1.13 -9.59,21.44 -5.08,20.31 -10.32,55.05 -10.32,55.05 0,0 -5.65,-5.65 -21.47,-24.87 -15.83,-19.21 -9.04,-125.48 -23.74,-136.78 -14.69,-11.3 -28.26,15.82 -50.87,13.56 -22.61,-2.26 -30.15,-22.06 -68.51,-51.4 -38.37,-29.34 -134.85,-144.44 -167,-176.6 -22.81,-22.81 -30.87,-30.01 -56.36,-30.46 15.22,14.6 43.81,58.78 60.31,73.33 19.19,16.93 130.96,156.86 172.78,182.86 41.82,26 61.04,48.61 62.17,70.09 1.13,21.47 23.9,116.34 53.32,136.71 29.42,20.36 47.52,52.05 54.31,79.2 6.79,27.15 36.2,42.99 29.42,58.84 -6.79,15.84 -165.19,2.26 -208.19,15.84 -8.93,2.82 -16.59,4.07 -23.21,4.66 10.67,31.01 26.02,69.56 48.1,97.17 12.58,15.72 28.43,35.81 45.37,56.28z"/>
   <path class="fil38" d="M874.96 982.17c-1.57,-9.24 -2.52,-14.61 -2.52,-14.61 0,0 101.74,24.87 134.52,27.13 32.78,2.26 41.82,-6.78 57.65,3.39 15.83,10.17 27.13,14.69 33.91,14.69 6.78,0 160.52,221.56 196.69,261.13 19.2,21 82.77,69.85 143.17,113.76 1.52,-31.94 -44.65,-86.83 -53.86,-103.58 -3.4,-6.19 -9.02,-22.22 -15.32,-43.08 -10.35,-8.56 -17.47,-12.31 -17.47,-12.31 0,0 -96.74,-280.18 -119.37,-307.33 -22.63,-27.15 -52.05,-45.26 -52.05,-45.26l2.08 -12.64 22.81 -138.97c0,0 78.86,43.52 143.74,84.7 24.52,15.56 40.25,26.05 50.83,34.17 1.12,-4.73 2.51,-9.3 4.16,-13.69 -8.06,-6.94 -18.21,-15.29 -31.24,-24.97 -46.99,-34.9 -208.25,-121.33 -224.05,-132.62 -15.8,-11.28 -25.95,-74.48 -25.95,-74.48 0,0 -4.52,3.39 -5.08,18.06 -0.57,14.67 16.36,63.19 19.74,80.68 3.39,17.49 -3.39,45.14 -23.13,43.44 -19.74,-1.69 -117.92,-76.73 -127.51,-94.22 -9.59,-17.49 1.69,-108.33 1.69,-108.33 0,0 -4.52,1.13 -9.59,21.44 -5.08,20.31 -10.31,55.05 -10.31,55.05 0,0 -5.65,-5.65 -21.48,-24.87 -15.83,-19.22 -9.04,-125.48 -23.74,-136.78 -14.69,-11.3 -28.26,15.82 -50.87,13.56 -22.61,-2.26 -30.15,-22.06 -68.51,-51.4 -38.37,-29.34 -134.85,-144.44 -167,-176.6 -7.78,-7.77 -13.84,-13.73 -19.46,-18.23 -4,7.37 -6.99,14.99 -8.84,22.34 11.62,15.38 23.59,31.14 32.24,38.77 19.19,16.93 130.96,156.86 172.78,182.86 41.82,26 61.04,48.61 62.17,70.08 1.13,21.48 23.9,116.34 53.32,136.71 29.42,20.36 47.52,52.05 54.31,79.2 6.79,27.15 36.2,42.99 29.42,58.83 -6.79,15.84 -165.19,2.26 -208.18,15.84 -8.94,2.82 -16.6,4.08 -23.22,4.67 10.67,31.01 26.02,69.56 48.1,97.16 12.58,15.72 28.43,35.81 45.37,56.28z"/>
   <polygon class="fil36" points="1490.55,913.13 1480.81,897.04 1495.28,909.68 "/>
   <polygon class="fil36" points="1516.03,897.64 1494.68,874.34 1521.53,892.48 "/>
   <path class="fil36" d="M1519.59 860.73c11.04,8.51 20.81,6.57 20.81,6.57 0,0 -1.62,-20.16 -7.54,-20.74 -5.91,-0.58 -13.27,14.18 -13.27,14.18z"/>
   <path class="fil39" d="M951.97 338.03c13.02,4.54 29.16,-11.92 29.16,-11.92 0,0 1.98,22.42 -10.19,29.51 -12.17,7.1 -18.97,-17.59 -18.97,-17.59z"/>
   <path class="fil34" d="M948 243.79c5.78,0 10.47,4.86 10.47,10.85 0,1.5 -0.29,2.92 -0.82,4.22 3.33,0.34 5.92,3.02 5.92,6.28 0,1.5 -0.55,2.89 -1.48,3.98 1.63,0.79 2.76,2.42 2.76,4.32 0,2.29 -1.64,4.2 -3.84,4.7 0.59,0.65 0.96,1.52 0.96,2.46 0,2.04 -1.67,3.69 -3.72,3.69 -2.05,0 -3.71,-1.65 -3.71,-3.69 0,-1.52 0.94,-2.84 2.27,-3.39 -1.13,-0.88 -1.86,-2.25 -1.86,-3.77 0,-0.77 0.18,-1.49 0.51,-2.14 -2.93,-0.63 -5.14,-3.1 -5.18,-6.06 -0.73,0.16 -1.49,0.26 -2.26,0.26 -5.79,0 -10.48,-4.86 -10.48,-10.85 0,-5.99 4.69,-10.85 10.48,-10.85zm20.76 20.29c2.5,0 4.52,1.89 4.52,4.22 0,2.33 -2.03,4.22 -4.52,4.22 -2.5,0 -4.53,-1.89 -4.53,-4.22 0,-2.33 2.03,-4.22 4.53,-4.22zm8.35 5.61c3.83,0 6.94,2.98 6.94,6.67 0,3.68 -3.1,6.67 -6.94,6.67 -3.83,0 -6.94,-2.99 -6.94,-6.67 0,-3.69 3.1,-6.67 6.94,-6.67z"/>
   <path class="fil29" d="M951.97 338.03c13.02,4.54 29.16,-11.92 29.16,-11.92 0,0 0.56,6.38 -0.76,13.41 -6.5,1.4 -16.94,3.33 -26.57,3.71 -1.2,-2.95 -1.82,-5.21 -1.82,-5.21z"/>
   <path class="fil33" d="M964.7 309.37c-4.24,-13.62 4.53,-12.48 7.08,-7.1 2.55,5.39 -0.56,14.19 -7.08,7.1z"/>
   <path class="fil33" d="M944.36 295.64c-3.26,-10.46 3.48,-9.59 5.43,-5.45 1.96,4.14 -0.43,10.9 -5.43,5.45z"/>
   <path class="fil40" d="M915.62 235.51c24.83,10.72 64.88,40.63 81.81,68.84 16.93,28.21 85.19,69.96 85.19,69.96 0,0 -12.97,2.26 -6.77,-49.09 6.21,-51.34 4.52,-97.61 -34.98,-110.58 -39.5,-12.98 -51.91,-6.77 -71.09,5.64 -19.18,12.42 -22.57,15.23 -54.16,15.23z"/>
   <polygon class="fil40" points="1445.25,908.58 1405.35,954.31 1414.95,961.08 1452.3,917.54 "/>
   <path class="fil40" d="M1757.42 573.19c14.18,0 25.67,11.49 25.67,25.67 0,14.18 -11.5,25.67 -25.67,25.67 -14.18,0 -25.67,-11.5 -25.67,-25.67 0,-14.18 11.49,-25.67 25.67,-25.67z"/>
   <path class="fil41" d="M1756.74 575.26c5.64,0 10.21,4.57 10.21,10.21 0,5.64 -4.57,10.21 -10.21,10.21 -5.64,0 -10.21,-4.57 -10.21,-10.21 0,-5.64 4.57,-10.21 10.21,-10.21z"/>
   <path class="fil42" d="M1734.16 587.99c8.2,20.74 26.06,24.02 31.35,24.02 3.83,0 11.68,-4.78 17.16,-8.46 -2.21,11.94 -12.67,20.98 -25.25,20.98 -14.18,0 -25.67,-11.5 -25.67,-25.67 0,-3.88 0.87,-7.57 2.41,-10.87z"/>
   <path class="fil40" d="M1674.48 626.22c31.31,0 56.71,25.39 56.71,56.7 0,31.31 -25.39,56.7 -56.71,56.7 -31.31,0 -56.7,-25.39 -56.7,-56.7 0,-31.31 25.39,-56.7 56.7,-56.7zm0 11.57c24.93,0 45.14,20.21 45.14,45.14 0,24.93 -20.21,45.14 -45.14,45.14 -24.92,0 -45.14,-20.21 -45.14,-45.14 0,-24.93 20.21,-45.14 45.14,-45.14z"/>
   <path class="fil40" d="M1607.14 702.3c28.66,0 51.9,23.24 51.9,51.9 0,28.66 -23.24,51.9 -51.9,51.9 -28.66,0 -51.9,-23.24 -51.9,-51.9 0,-28.66 23.24,-51.9 51.9,-51.9zm0 10.59c22.81,0 41.31,18.5 41.31,41.31 0,22.82 -18.5,41.31 -41.31,41.31 -22.81,0 -41.31,-18.5 -41.31,-41.31 0,-22.81 18.5,-41.31 41.31,-41.31z"/>
   <path class="fil40" d="M1548.47 772.1c22.77,0 41.24,18.47 41.24,41.24 0,22.77 -18.47,41.24 -41.24,41.24 -22.77,0 -41.24,-18.47 -41.24,-41.24 0,-22.77 18.47,-41.24 41.24,-41.24zm0 8.41c18.13,0 32.83,14.7 32.83,32.83 0,18.13 -14.7,32.83 -32.83,32.83 -18.13,0 -32.83,-14.7 -32.83,-32.83 0,-18.13 14.7,-32.83 32.83,-32.83z"/>
   <path class="fil40" d="M1716.55 628.52c-30.22,-27.97 -25.14,-72.54 10.4,-95.11 35.54,-22.57 44.57,-18.06 44.57,-18.06l-38.93 -142.18 -1.13 48.53 -15.8 -2.82 -3.95 16.36 -12.98 2.26 -1.69 12.98 -8.46 0.56 3.95 15.8 -15.8 -0.57 -0.57 14.11 -9.03 1.69 3.39 15.23 -10.72 1.69 4.51 14.67 -10.16 1.69 7.34 15.8 -14.11 6.2 9.03 14.67 -7.9 1.69 6.2 16.36 -6.77 5.64 66.62 67.11 1.97 -14.31z"/>
   <path class="fil40" d="M1729.1 640.26c30.69,27.45 74.59,18.2 93.72,-19.31 19.12,-37.51 13.78,-46.07 13.78,-46.07l145.21 25.37 -48.2 5.69 4.3 15.46 -15.92 5.48 -1.02 13.13 -12.76 2.9 0.24 8.48 -16.1 -2.44 2.05 15.67 -13.99 1.89 -0.83 9.15 -15.49 -1.94 -0.68 10.83 -15.03 -3.11 -0.73 10.27 -16.42 -5.81 -4.85 14.63 -15.45 -7.6 -0.94 8.02 -16.88 -4.64 -4.98 7.27 -73.08 -60 14.06 -3.32z"/>
   <path class="fil42" d="M1684.79 612.83c-11.79,-33.8 8.01,-71.02 17.34,-81.67 11.85,-13.55 43.44,-29.9 43.44,-29.9l-13.54 -71.09 26.41 86.99c-6.86,2.33 -16.96,7.03 -31.49,16.26 -35.54,22.57 -40.62,67.14 -10.4,95.11l-1.97 14.31 -29.79 -30z"/>
   <path class="fil42" d="M1747.72 670.4c34.76,8.55 69.95,-14.66 79.68,-24.95 12.37,-13.07 25.68,-46.07 25.68,-46.07l72.05 6.79 -89.09 -18.1c-1.68,7.05 -5.41,17.55 -13.22,32.88 -19.12,37.51 -63.02,46.77 -93.72,19.31l-14.06 3.32 32.68 26.82z"/>
   <polygon class="fil40" points="1519.28,832.51 1735.42,609.02 1748.96,621.99 1526.02,839.21 "/>
   <path class="fil40" d="M1067.78 235.76c-20.42,-44.47 -54.11,-46.46 -71.66,-41.35 -17.55,5.11 -18.68,24.97 -10.47,29.8 8.21,4.83 20.1,6.81 20.66,-1.7 0.56,-8.51 2.83,-10.5 8.77,-9.36 5.95,1.13 3.68,6.25 0.29,7.66 -3.4,1.42 47.84,64.13 52.41,14.96z"/>
   <path class="fil41" style="mask:url(#id6)" d="M1067.78 235.76c-20.42,-44.47 -54.11,-46.46 -71.66,-41.35 -17.55,5.11 -18.68,24.97 -10.47,29.8 8.21,4.83 20.1,6.81 20.66,-1.7 0.56,-8.51 2.83,-10.5 8.77,-9.36 5.95,1.13 3.68,6.25 0.29,7.66 -3.4,1.42 47.84,64.13 52.41,14.96z"/>
   <path class="fil43" d="M1035.1 258.24c25.39,1.69 50.21,-52.47 59.81,-56.99 9.59,-4.51 54.17,67.71 93.66,98.18 39.5,30.47 76.17,42.88 76.17,42.88 0,0 -42.31,-7.34 -69.4,-24.83 -27.08,-17.49 -42.88,-36.68 -42.88,-36.68 0,0 18.62,27.65 29.34,37.24 10.72,9.59 13.54,9.59 13.54,9.59 0,0 -20.87,-3.39 -41.75,-20.32 -20.87,-16.93 -38.37,-42.31 -49.08,-51.91 -10.72,-9.59 -16.36,-10.16 -16.36,-10.16 0,0 34.42,36.11 45.7,54.17 11.29,18.06 15.8,19.75 15.8,19.75 0,0 -23.13,-10.16 -40.63,-29.34 -17.49,-19.19 -29.9,-25.96 -42.31,-25.96 -12.42,0 -19.75,0 -19.75,0l-11.85 -5.64z"/>
   <path class="fil43" d="M1581.28 1474.17c1.13,-25.96 -1.13,-49.09 -9.59,-54.17 -8.46,-5.08 64.32,-15.8 106.63,-12.42 42.32,3.39 50.78,8.46 50.78,8.46 0,0 -20.32,0 -49.65,1.13 -29.34,1.13 -62.07,8.46 -57.55,9.03 4.52,0.56 54.73,-5.65 66.01,-5.08 11.29,0.56 12.98,0.56 12.98,0.56 0,0 -47.96,6.21 -63.19,10.72 -15.24,4.52 -10.72,10.16 -5.65,9.03 5.08,-1.13 18.01,-0.89 18.01,-0.89 0,0 -7.28,4.27 -29.85,10.48 -22.57,6.2 -30.47,25.95 -30.47,25.95l-8.46 -2.82z"/>
   <path class="fil43" d="M936.09 1280.37c9.95,-25.66 15.54,-49.65 8.77,-57.62 -6.77,-7.97 69.92,5.99 111.24,23.75 41.32,17.77 48.09,25.74 48.09,25.74 0,0 -20.38,-6.9 -50.21,-15.73 -29.83,-8.83 -65.16,-12.58 -60.82,-10.48 4.34,2.1 56.84,12.92 67.98,17.32 11.13,4.4 12.83,4.98 12.83,4.98 0,0 -50.24,-10.06 -67.06,-10.7 -16.82,-0.64 -14.21,6.56 -8.73,7.15 5.48,0.59 18.38,5.22 18.38,5.22 0,0 -8.76,1.81 -33.52,0.38 -24.76,-1.44 -39.39,15.7 -39.39,15.7l-7.54 -5.71z"/>
   <path class="fil43" d="M1578.09 1463.69c-2.8,10.37 -9.36,12.95 -9.36,12.95l16.79 14.4 12.25 -14.3 -19.68 -13.06z"/>
   <path class="fil43" d="M937.4 1268.16c-6.33,9.46 -14.75,10.43 -14.75,10.43l11.97 20.16 17.15 -10.19 -14.37 -20.39z"/>
   <path class="fil29" d="M1062.19 669.94c0.71,-2.65 7.47,-13.74 9.48,-13.1 1.83,0.54 3.64,1.08 5.46,1.63 2.83,0.82 4.1,2.82 3.91,6.07 -0.02,0.47 -0.04,0.94 -0.08,1.39 -0.26,5.09 -6.85,7.42 -11.44,6.15 -2.44,-0.68 -4.88,-1.39 -7.34,-2.14zm-7.3 56.28c1.44,0.32 2.89,0.61 4.34,0.91 0.26,-9.03 0.73,-17.93 1.32,-26.81 -1.45,-0.36 -2.89,-0.73 -4.3,-1.1 -0.62,8.94 -1.1,17.92 -1.36,27zm43.81 -5.21c-0.02,0.66 -0.04,1.34 -0.07,2 -0.15,4.88 3.57,9.46 7.9,9.53 0.41,0 0.84,0.02 1.25,0.02 4.41,0 7.25,-2.77 8.14,-6.4 -1.02,-0.01 -2.09,-0.05 -3.11,-0.07 -2.46,-0.03 -1.92,2.58 -4.36,2.54 -0.65,0 -1.27,0 -1.88,-0.03 -2.26,-0.05 -4.28,-3.36 -4.18,-6.06 0.08,-2.41 1.9,-5.17 3.91,-5.07 0.62,0.03 1.21,0.07 1.86,0.1 4.42,0.16 2.01,2.65 4.83,2.75 1.04,0.01 2.09,0.05 3.11,0.07 -0.15,-3.27 -3.32,-6.51 -6.54,-6.63 -1.02,-0.05 -2.05,-0.13 -3.07,-0.17 -3.69,-0.25 -7.62,3.45 -7.79,7.42zm-17.7 9.53c1.45,0.16 2.92,0.3 4.38,0.42 0.04,-3.71 0.15,-7.39 0.3,-11.07 0.11,-2.42 1.61,-4.63 3.32,-4.46 2.37,0.28 3.61,2.39 3.5,5.14 -0.15,3.59 -0.22,7.25 -0.28,10.87 1.45,0.09 2.9,0.16 4.38,0.23 0,-2.72 0.06,-5.42 0.17,-8.08 0.22,-5.68 -0.5,-10.79 -5.72,-11.31 -0.84,-0.11 -1.65,-0.21 -2.49,-0.3 -2.01,-0.26 -0.48,0.52 -3.15,0.97 0.02,-0.45 0.04,-0.92 0.08,-1.38 -1.27,-0.19 -2.5,-0.36 -3.72,-0.54 -0.36,6.46 -0.62,12.94 -0.75,19.5zm-127.97 -77.3c1.4,0.63 2.79,1.26 4.21,1.9 0.04,-3.26 0.15,-6.5 0.33,-9.69 0.15,-2.1 1.64,-3.59 3.32,-2.65 2.25,1.32 3.41,3.85 3.24,6.28 -0.18,3.22 -0.28,6.48 -0.32,9.76 1.36,0.9 2.72,1.88 4.08,2.89 0.04,-2.89 0.13,-5.79 0.28,-8.62 0.24,-3.75 -0.85,-9.48 -4.06,-11.56 -1.19,-0.69 -2.38,-1.37 -3.56,-2.05 -1.43,-0.75 -1.84,0.07 -3.17,0.31 0.04,-0.59 0.11,-1.18 0.17,-1.76 -1.21,-0.52 -2.4,-1.05 -3.59,-1.57 -0.48,5.5 -0.82,11.1 -0.93,16.76zm67.75 -53.75c8.4,3.29 16.77,6.69 25.15,10.32 1.16,0.46 2.31,0.91 3.51,1.36 -0.32,-2.98 -0.17,-8.39 -2.52,-9.3 -7.21,-2.67 -14.44,-5.11 -21.7,-7.25 -1.92,-0.59 -3.52,3.49 -4.43,4.88zm17.74 111.64c0.15,-2.91 2.33,-5.19 5.27,-4.23 0.6,0.17 1.21,0.33 1.84,0.52 1.99,0.58 3.52,4.23 3.39,6.92 -0.02,0.24 -0.02,0.5 -0.04,0.75 -0.15,3.57 -2.2,5.38 -5.19,4.58 -0.43,-0.14 -0.84,-0.24 -1.25,-0.34 -1.95,-0.63 -4.15,-5.3 -4.02,-8.19zm-3.6 -3.05c-0.05,1.26 -0.13,2.48 -0.18,3.71 -0.18,4.48 3.4,10.52 7.1,11.84 0.2,0.05 0.41,0.11 0.62,0.16 3.86,1.03 4.08,-0.16 6.26,-1.32 0,0.75 -0.02,1.5 -0.02,2.23 1.23,0.33 2.46,0.61 3.72,0.93 0.16,-6.92 0.48,-13.76 0.91,-20.56 -1.25,-0.33 -2.48,-0.66 -3.69,-0.97 -0.06,0.71 -0.11,1.45 -0.17,2.18 -1.3,-1.24 -2.87,-3.06 -4.77,-3.61 -0.84,-0.24 -1.66,-0.47 -2.48,-0.73 -3.45,-1.27 -7.06,2.18 -7.3,6.15zm29.58 9.88c0.15,-2.8 2.29,-5.33 5.23,-4.74 0.64,0.12 1.23,0.25 1.88,0.35 1.97,0.37 3.54,3.71 3.45,6.29 -0.02,0.24 -0.02,0.48 -0.02,0.7 -0.15,3.43 -2.18,5.4 -5.18,4.89 -0.41,-0.05 -0.84,-0.12 -1.23,-0.19 -1.99,-0.35 -4.27,-4.48 -4.14,-7.3zm-3.63 -2.21c-0.06,0.7 -0.08,1.45 -0.11,2.18 -0.21,5.44 2.74,10.75 7.15,11.55 0.22,0.03 0.43,0.07 0.63,0.09 3.75,0.57 3.75,-0.79 6.26,-1.18 0,0.47 0,0.96 -0.02,1.43 1.23,0.14 2.48,0.3 3.72,0.44 0.13,-6.57 0.43,-13.08 0.77,-19.6 -1.25,-0.2 -2.48,-0.4 -3.71,-0.63 -0.03,0.73 -0.09,1.41 -0.13,2.11 -0.95,-0.75 -2.66,-2.61 -3.57,-2.79 -1.45,-0.28 -2.9,-0.56 -4.34,-0.89 -2.49,-0.54 -6.46,3.62 -6.65,7.3zm-87.37 -59.81c0.39,-2.58 2.22,-2.72 4.94,-0.32 2.29,2.06 3.71,5.35 3.72,7.93 -2.89,-2.61 -5.76,-5.23 -8.66,-7.61zm-4.08 -3.19c-0.06,0.79 -0.09,1.62 -0.15,2.42 -0.13,3.74 3.8,11.17 7.34,14.18 0.56,0.51 1.13,1.03 1.73,1.59 3.52,3.24 5.7,2.25 7.02,0.91 -1.17,-1.13 -2.33,-2.23 -3.47,-3.35 -1.28,-0.26 -1.97,0.11 -4.1,-1.83 -0.39,-0.35 -0.76,-0.71 -1.15,-1.03 -1.86,-1.64 -3,-4.5 -3.32,-6.64 4.23,3.61 8.48,7.47 12.69,11.52 0.06,-0.82 0.09,-1.64 0.13,-2.47 0.3,-4.21 -3.48,-12.51 -7.42,-16.08 -0.16,-0.16 -0.37,-0.33 -0.56,-0.5 -3.61,-3.05 -8.47,-2.55 -8.75,1.29zm152.21 69.03c0.32,-2.82 2.2,-4.37 5.09,-4.32 2.57,0.03 3.72,2.16 4.16,4.37 -3.07,-0.02 -6.15,-0.02 -9.24,-0.05zm-4.37 1.2c-0.02,0.23 -0.02,0.42 -0.02,0.63 -0.13,4.69 3.57,8.92 7.9,8.9 0.61,-0.01 1.21,-0.01 1.84,-0.01 3.33,-0.03 6.52,-2.44 6.82,-5.66 -1.44,0 -2.89,-0.02 -4.32,-0.02 -0.56,1.57 -0.73,1.9 -3.11,1.92 -0.18,0 -0.39,0 -0.6,-0.02 -2.92,0.03 -3.74,-1.31 -4.23,-3.78 4.51,0 9.03,0.02 13.56,0.02 0.01,-0.82 0.03,-1.64 0.07,-2.47 0.13,-4.1 -4.25,-8.73 -8.31,-8.76 -0.2,-0.02 -0.43,-0.02 -0.64,-0.02 -4.51,-0.1 -8.81,4.18 -8.98,9.29zm-133.85 -89.41c-1.06,0.91 -2.16,1.78 -3.22,2.67 9.33,8.59 18.74,17.25 28.24,25.3 1.79,1.4 4.86,-2.96 5.76,-4.44 -10.39,-6.9 -20.64,-14.98 -30.78,-23.52zm8.74 50.21c3.04,3.08 2.16,-6.71 4.9,-6.27 0.6,4.39 1.27,8.85 2.01,13.34 0.93,0.93 1.84,1.87 2.77,2.77 2.1,-4.19 4.42,-8.5 6.86,-12.86 -1.34,-1.18 -2.7,-2.35 -4.03,-3.55 -1.36,2.7 -2.7,5.37 -3.99,8.02 -0.67,-4.55 -1.29,-9.04 -1.84,-13.47 -0.6,-0.57 -1.17,-1.12 -1.75,-1.69 -2.2,-2.1 -3.82,4.41 -4.14,6.67 -0.32,-0.33 -0.63,-0.68 -0.95,-1.01 -0.65,-4.17 -1.27,-8.26 -1.8,-12.33 -1.34,-1.31 -2.68,-2.61 -4.01,-3.89 -0.04,2.96 4.06,22.32 5.96,24.27zm27.09 15.87c0.15,-2.78 2.27,-4.25 5.09,-2.28 0.58,0.42 1.19,0.84 1.8,1.22 1.94,1.2 3.41,5.39 3.24,8.07 0,0.24 -0.01,0.48 -0.01,0.71 -0.19,3.57 -2.16,4.68 -5.05,2.77 -2.94,-2.21 -5.26,-6.98 -5.07,-10.49zm-3.91 6.97c1.17,1.01 2.37,2.02 3.56,3.05 0,-0.71 0.02,-1.45 0.02,-2.16 1.64,2.63 2.01,4.48 4.69,6.53 0.41,0.32 0.78,0.61 1.21,0.94 4.71,3.08 8.55,-0.21 8.8,-5.28 0.01,-0.49 0.03,-0.99 0.07,-1.5 0.24,-4.15 -3.23,-11.54 -6.63,-13.59 -0.82,-0.47 -1.6,-0.99 -2.4,-1.55 -2.14,-1.48 -2.14,-0.59 -4.29,-1.45 0.21,-2.58 0.41,-5.16 0.64,-7.73 -1.38,-1.01 -2.77,-2.02 -4.16,-3.04 -0.67,8.52 -1.21,17.1 -1.51,25.77zm-23.19 -81.23c-1.12,0.84 -2.22,1.62 -3.26,2.47 9.55,9.17 19.2,17.46 29.02,24.72 1.75,-2.63 3.64,-5.3 5.59,-7.96 -10.62,-5.05 -21.05,-11.45 -31.35,-19.24zm21.52 -18.21c-1.08,1.46 -2.22,2.94 -3.34,4.37 1.55,0.85 3.11,1.73 4.69,2.51 12.05,6.36 24.14,12.34 36.29,18.02 -0.28,-4.25 -0.54,-8.5 -0.84,-12.81 -12.28,-3.83 -24.57,-7.61 -36.81,-12.09zm74.03 25.89c2.1,0.66 4.18,1.29 6.26,1.93 1.9,0.61 3.22,3.99 2.94,6.4 -0.54,4.53 -7.19,6.74 -11.73,5.36 -2.05,-0.66 -4.1,-1.34 -6.13,-2.04 2.92,-3.9 5.83,-7.77 8.66,-11.65zm-24.89 -15.21c5.4,2.58 10.82,5.17 16.27,7.69 0.76,0.3 1.54,0.59 2.34,0.89 -1.23,3.47 -17.88,-3.1 -21.87,-4.52 -2.57,3.49 -5.2,7.01 -7.86,10.47 6.43,2.81 12.89,5.61 19.39,8.35 -2.39,2.39 -27.79,-6.15 -33.94,-8.07 -10.48,-3.64 -24.66,-8.75 -34.52,-15.25 -1.13,1.01 -2.22,2.06 -3.32,3.1 9.84,7.92 19.75,14.74 29.97,20.38 10.09,5.57 20.46,10.04 30.78,14.36 -0.06,0.49 -0.09,0.96 -0.11,1.43 -11.79,-3.21 -23.53,-7 -35.19,-11.86 -0.2,3.19 0.41,6.41 0.84,9.6 1.01,6.05 1.66,3.85 6.76,6.92 5.55,3.1 12.15,6.71 18.16,8.68 -1.13,4.01 -18.4,-3.52 -23.26,-6.04 0.47,3.74 0.89,7.45 1.32,11.18 14.1,6.55 28.37,10.96 42.67,14.72 14.81,3.13 33.59,-4.48 34.13,-19.78 0.02,-0.22 0.02,-0.43 0.04,-0.66 0.26,-6.06 -5.11,-8.75 -7.88,-11.71 9.35,-0.23 20.21,-6.71 21.35,-18.52 0.35,-7.14 -7.62,-13.04 -14.21,-15.07 -12.07,-4.23 -24.12,-8.83 -36.15,-13.68 -1.75,-0.71 -5.16,5.37 -5.7,7.39z"/>
   <path class="fil44 str1" d="M1044.65 827.98c31.57,33.36 137.76,35.49 137.76,35.49"/>
   <path class="fil44 str1" d="M1048.08 860.3c39.11,24.76 113.9,20.64 113.9,20.64"/>
   <path class="fil44 str1" d="M1057.69 887.13c-3.43,43.33 9.6,83.23 9.6,83.23"/>
   <path class="fil44 str1" d="M921.13 817.11c52.16,10.18 67.94,66.58 70.69,76.21 2.74,9.63 -13.72,6.19 -52.14,4.82 -38.42,-1.38 -32.26,77.77 -32.26,77.77"/>
   <path class="fil44 str1" d="M1164.52 1099.13c32.45,9.48 -4.6,-97.13 -12.14,-120.52 -7.55,-23.39 -5.48,-41.27 35,-40.58 40.48,0.69 57.1,5.53 57.1,5.53"/>
   <path class="fil29" style="mask:url(#id8)" d="M771.33 283.69l154.52 80.27c0,0 -69.72,20.94 -154.52,-80.27z"/>
   <path class="fil29" style="mask:url(#id10)" d="M1196.65 528.49c8.88,-10.4 143.6,138.13 143.6,138.13 0,0 -128.56,-88.89 -143.6,-138.13z"/>
   <path class="fil45" d="M174.11 904.05c3.73,0.45 7.23,0.8 10.42,1.07l0 -15.38 23.07 0 158.29 90.62 3.17 9.34 -23.07 0c-29.06,0 -51.29,-18.76 -69.2,-30.75 -50.02,0 -86.13,-3.4 -115.94,-8.23l-70.56 90.03 94.24 -51.05 0 23.07c17.24,-4.02 17.68,-7.69 38.44,-7.69l61.88 -2.42 128.9 18.35 8.98 23.43 -69.05 -8.61 -69.2 0c-53.4,0 -124.98,34.05 -172.39,49.18l-50.59 81.53c26.13,-9.46 26.95,-32.9 53.46,-46.5 30.19,-15.49 56.56,1.83 69.56,-30.39l123.02 0c-39.56,27.49 -63.2,13.78 -125.98,66.23 -26.81,22.4 -76.84,76.9 -113.22,79.11l43.3 -49.58 -7.66 -7.65 -103.98 88.73 0 87.83 58.63 86.76c7.29,-15.23 12.64,-33.57 13.49,-58.24l27.83 -85.59 16.42 0.21 -16.42 84.36c33.89,-9.05 124.26,-228.46 223.48,-230.35l-37.8 53.13 -8.85 -15c-3.24,38.97 -67.73,101.09 -95.37,109.71l17.47 20.58 -75.88 177.26 -1.77 -87.03 -39.61 26.64 -26.59 94.47 -0.17 4.36 22.01 0c38.5,0 44.8,0.26 61.06,19.52l-84.31 11.57 -0.98 24.76 7.65 -4.17 6.38 11.09 55.94 -29.95 38.84 5.63 7.69 -15.38 7.69 -15.38 69.2 -169.15 -7.28 -60.85 14.97 -8.35 7.69 -15.38c7.18,-26.87 55.45,-105.78 74.7,-125.2 46.01,-46.42 98.64,-20.26 132.89,-67.01l-0.42 -22.75 -53.39 -69.51 0 -15.38c-29.08,-19.47 -55.74,-52.36 -90.18,-78.97 -36.57,-28.25 -74.44,-35.44 -102.03,-59.43l-120.48 -60.24 71.62 112.99z"/>
   <path class="fil46" d="M-0 1155.94l0 110.54 103.98 -88.73 7.66 7.65 -43.3 49.58c36.38,-2.21 86.41,-56.71 113.22,-79.11 62.79,-52.44 86.43,-38.74 125.98,-66.23l-123.02 0c-13.01,32.22 -39.37,14.9 -69.56,30.39 -26.5,13.6 -27.32,37.04 -53.46,46.5l50.59 -81.53c47.41,-15.13 118.99,-49.18 172.39,-49.18l69.2 0 69.05 8.61 -8.98 -23.43 -128.9 -18.35 -61.88 2.42c-20.77,0 -21.2,3.68 -38.44,7.69l0 -23.07 -94.24 51.05 -90.29 115.2z"/>
   <path class="fil46" d="M54.78 1538.05l22.11 -2.46 -22.01 0 -0.1 2.46zm0.27 -6.82l26.59 -94.47 39.61 -26.64 1.77 87.03 75.88 -177.26 -17.47 -20.58c27.64,-8.62 92.13,-70.74 95.37,-109.71l8.85 15 37.8 -53.13c-99.22,1.89 -189.59,221.3 -223.48,230.35l16.42 -84.36 -16.42 -0.21 -27.83 85.59c-0.85,24.68 -6.2,43.02 -13.49,58.24l0 0 -3.58 90.15z"/>
   <path class="fil46" d="M160.85 950.71c29.81,4.83 65.92,8.23 115.94,8.23 17.91,11.99 40.14,30.75 69.2,30.75l23.07 0 -3.17 -9.34 -158.29 -90.62 -23.07 0 0 15.38c-3.19,-0.27 -6.69,-0.62 -10.42,-1.07l10.42 16.45 -23.68 30.21z"/>
   <polygon class="fil47" points="49.23,1677.5 107.64,1681.67 199.9,1635.54 184.53,1612.47 161.46,1574.03 122.62,1568.4 66.68,1598.35 60.3,1587.25 52.65,1591.43 "/>
   <path class="fil48" d="M53.82 1735.49l-7.43 13.43 76.62 9.63 99.96 7.69c15.84,10.61 19.96,23.07 38.44,23.07l38.44 0c31.18,0 39.83,-7.11 46,-31.84l-84.44 8.78c-21.01,2.62 -15.44,-4.98 -23.07,-15.38l53.82 0c32.76,-21.94 46.13,-44.6 46.13,-99.95l-15.38 -7.69c-20.17,30.12 -54.43,50.03 -99.95,53.82l0 30.76 -169.15 7.69z"/>
   <path class="fil49" d="M107.64 1681.67l-53.82 53.82 169.15 -7.69 0 -30.76c45.52,-3.79 79.78,-23.7 99.95,-53.82l-123.02 -7.69 -92.26 46.13z"/>
   <path class="fil50" d="M23.07 597.57l55.26 23.62 -9.12 22.51 15.38 0 0.09 14.37 38.35 8.7c9.71,5.14 25.43,15.37 38.44,15.37 14.01,0 12.35,-11.71 15.68,-24.01l30.46 8.63 7.69 -15.38 -39.35 -21.32 31.36 -10.37 -8.33 -29.52 -14.43 -0.3c-12.9,31.95 -36.37,10.42 -69.2,7.69l0 -23.07 -30.46 -8.63 -0.3 -14.43 15.37 0 0 -15.38 -77.05 22.55 15.87 23.28 -15.7 0.3 0 15.38z"/>
   <path class="fil50" d="M18.85 659.08l4.22 0 -2.96 1.98 23.03 36.33c0.98,-2.18 1.96,-4.68 3.01,-7.56l15.37 0 0 -15.38 15.38 0 32.04 -8.97 6.41 8.97 7.69 -7.69 -38.35 -8.7 -0.09 -14.37 -15.38 0 9.12 -22.51 -55.26 -23.62 -23.07 0 0 31.77 18.85 29.74z"/>
   <path class="fil51" d="M50.86 1767.58l72.16 -9.03 -76.62 -9.63 4.47 18.66zm-4.47 -18.66l7.43 -13.43 53.82 -53.82 -58.41 -4.17 -2.84 71.43z"/>
   <polygon class="fil50" points="115.33,705.21 115.33,712.9 128.52,715.6 161.46,743.65 146.09,743.65 146.15,781.82 184.53,789.78 192.22,805.16 207.6,805.16 214.99,783.04 185.87,774.76 192.22,743.65 209.61,734.88 192.04,698.66 115.33,682.14 99.95,682.14 "/>
   <path class="fil50" d="M76.89 705.21l0 15.37 -23.23 -7.26 0.62 1.65 40.14 63.33 28.6 -42.34 -15.37 -7.69c-17.31,23.62 4.95,12.41 -30.76,15.38 7.4,-27.72 0.7,-20.57 30.76,-23.07l7.69 -7.69 0 -7.69 -23.07 0 0 -15.38 -15.38 15.38zm25.61 85.84l120.48 60.24 0 -15.37 -39.1 -15.79 8.35 -14.97 -7.69 -15.38 -7.27 23.23 -80.47 -30.95 5.7 8.99z"/>
   <path class="fil27" d="M222.97 851.29c27.59,23.99 65.47,31.18 102.03,59.43 34.44,26.61 61.1,59.5 90.18,78.97l23.07 0c-32.95,-62.26 -147.03,-121.02 -215.28,-153.77l0 15.37z"/>
   <path class="fil52" d="M53.64 1566.67l84.31 -11.57c-16.26,-19.26 -22.56,-19.52 -61.06,-19.52l-22.11 2.46 -1.14 28.62z"/>
   <path class="fil27" d="M184.53 589.88l-37.52 -18.02 -19.43 -38.53 -27.63 2.73 0 15.38 -15.37 0 0.3 14.43 30.46 8.63 0 23.07c32.83,2.73 56.3,24.27 69.2,-7.69z"/>
   <polygon class="fil53" points="184.53,789.78 146.15,781.82 146.09,743.65 123.02,735.96 94.41,778.3 96.79,782.07 177.26,813.01 "/>
   <path class="fil50" d="M469.01 1097.33c6.85,-3.85 15.38,-5 15.38,-15.38 0,-10.1 -39.62,-84.78 -46.13,-92.27l-23.07 0 0 15.38 53.39 69.51 0.42 22.75z"/>
   <path class="fil27" d="M207.6 805.16c21.7,-1.81 30.75,0.18 30.75,-23.07 0,-24.99 -6.66,-5.8 -15.37,-38.44l-30.76 0 -6.34 31.11 29.11 8.28 -7.39 22.12z"/>
   <path class="fil54" d="M54.28 714.97l-0.62 -1.65 23.23 7.26 0 -15.37 -15.38 -15.38 -15.37 0c-1.04,2.87 -2.02,5.37 -3.01,7.56l11.15 17.58z"/>
   <polygon class="fil54" points="76.89,674.45 92.27,689.83 92.27,705.21 115.33,705.21 99.95,682.14 115.33,682.14 115.33,674.45 108.92,665.49 "/>
   <polygon class="fil54" points="107.64,728.28 123.02,735.96 146.09,743.65 161.46,743.65 128.52,715.6 115.33,712.9 107.64,720.58 "/>
   <polygon class="fil55" points="61.51,689.83 76.89,705.21 92.27,689.83 76.89,674.45 61.51,674.45 "/>
   <path class="fil56" d="M107.64 728.28l0 -7.69c-30.06,2.5 -23.36,-4.65 -30.76,23.07 35.71,-2.97 13.44,8.24 30.76,-15.38z"/>
   <polygon class="fil57" points="20.1,661.05 23.07,659.08 18.85,659.08 "/>
   <path class="fil58" style="mask:url(#id12)" d="M874.31 1683.8c-5.98,-30.37 47.44,-35.63 44.47,-14.99 -2.97,20.65 17.18,51.36 33.65,63.74 16.47,12.38 25.23,59.95 25.23,59.95l-13.33 2.17 -47.32 -4.05c0,0 -35.94,-73.2 -42.7,-106.82z"/>
   <path class="fil58" style="mask:url(#id14)" d="M1554.58 1708.07c-19.15,9.57 -119.62,72.3 -119.62,72.3l93.68 12.15c0,0 158.6,-109.06 132.61,-118.64 -25.98,-9.57 -106.67,34.19 -106.67,34.19z"/>
   <path class="fil32" d="M538.52 1536.43l0 -86.27 -13.25 0 -15.15 8.05 0 15.03 15.15 -8.05 0 71.24 13.25 0zm144.96 -21.54c-0.02,-3.2 -0.61,-6.17 -1.79,-8.93 -1.18,-2.76 -2.84,-5.19 -4.93,-7.3 -2.11,-2.09 -4.53,-3.73 -7.29,-4.91 -2.76,-1.18 -5.74,-1.79 -8.94,-1.81 -3.17,0.02 -6.15,0.63 -8.93,1.81 -2.76,1.18 -5.19,2.82 -7.3,4.91 -2.09,2.11 -3.72,4.53 -4.91,7.3 -1.18,2.76 -1.79,5.74 -1.81,8.93 0.02,3.2 0.63,6.15 1.81,8.93 1.18,2.76 2.82,5.19 4.91,7.3 2.11,2.09 4.54,3.73 7.3,4.91 2.78,1.18 5.76,1.79 8.93,1.81 3.2,-0.02 6.17,-0.63 8.94,-1.81 2.76,-1.18 5.18,-2.82 7.29,-4.91 2.09,-2.11 3.75,-4.53 4.93,-7.3 1.18,-2.78 1.77,-5.74 1.79,-8.93zm-19.29 -64.73l-13.25 0 -53.49 89.93 13.25 0 53.49 -89.93zm-39.41 25.2c-0.02,-3.2 -0.63,-6.17 -1.81,-8.93 -1.18,-2.76 -2.82,-5.19 -4.91,-7.3 -2.11,-2.09 -4.53,-3.73 -7.29,-4.91 -2.76,-1.18 -5.74,-1.79 -8.94,-1.81 -3.19,0.02 -6.15,0.63 -8.93,1.81 -2.76,1.18 -5.18,2.82 -7.3,4.91 -2.09,2.11 -3.72,4.53 -4.91,7.3 -1.18,2.76 -1.79,5.74 -1.81,8.93 0.02,3.18 0.63,6.15 1.81,8.93 1.18,2.76 2.82,5.19 4.91,7.3 2.11,2.09 4.54,3.73 7.3,4.91 2.78,1.18 5.74,1.79 8.93,1.81 3.2,-0.02 6.17,-0.63 8.94,-1.81 2.76,-1.18 5.18,-2.82 7.29,-4.91 2.1,-2.11 3.73,-4.53 4.91,-7.3 1.18,-2.78 1.79,-5.76 1.81,-8.93l0 0zm48.88 39.41c-0.02,2.42 -0.63,4.63 -1.79,6.61 -1.18,1.97 -2.74,3.55 -4.71,4.73 -1.99,1.16 -4.18,1.77 -6.63,1.79 -2.42,-0.02 -4.63,-0.63 -6.61,-1.79 -1.97,-1.18 -3.55,-2.76 -4.73,-4.73 -1.16,-1.97 -1.77,-4.18 -1.79,-6.61 0.02,-2.43 0.63,-4.64 1.79,-6.61 1.18,-1.99 2.76,-3.55 4.73,-4.73 1.97,-1.16 4.18,-1.77 6.61,-1.79 2.45,0.02 4.64,0.63 6.63,1.79 1.97,1.18 3.53,2.74 4.71,4.73 1.16,1.97 1.77,4.18 1.79,6.61l0 0zm-58.7 -39.52c-0.02,2.42 -0.63,4.63 -1.79,6.61 -1.18,1.97 -2.74,3.55 -4.73,4.73 -1.97,1.16 -4.16,1.77 -6.61,1.79 -2.42,-0.02 -4.63,-0.63 -6.61,-1.79 -1.97,-1.18 -3.55,-2.76 -4.73,-4.73 -1.16,-1.97 -1.77,-4.18 -1.79,-6.61 0.02,-2.45 0.63,-4.64 1.79,-6.61 1.18,-1.99 2.76,-3.55 4.73,-4.73 1.97,-1.16 4.18,-1.77 6.61,-1.79 2.45,0.02 4.64,0.63 6.61,1.79 1.99,1.18 3.55,2.74 4.73,4.73 1.16,1.97 1.77,4.16 1.79,6.61l0 0z"/>
  </g>
 </g>
</svg>
