<svg width="14" viewBox="0 0 14 14" fill="none" xmlns="http://www.w3.org/2000/svg">
<path d="M9.99536 10.4197C9.74692 10.6682 9.34393 10.6682 9.09541 10.4197C8.84693 10.1712 8.84689 9.76832 9.09541 9.51979L10.9788 7.63632H3.18177C2.83033 7.63632 2.54541 7.3514 2.54541 6.99996C2.54541 6.64852 2.83033 6.3636 3.18177 6.3636H10.9787L9.09541 4.4803C8.84689 4.23177 8.84689 3.82887 9.09541 3.58035C9.21967 3.45609 9.38254 3.39398 9.5454 3.39398C9.70827 3.39398 9.87114 3.45609 9.99536 3.58035L12.965 6.54997C13.2135 6.79844 13.2135 7.20139 12.965 7.44991L9.99536 10.4197Z" fill="currentColor"/>
<path d="M6.15152 0C6.50296 0 6.78788 0.284921 6.78788 0.636363C6.78788 0.987806 6.50296 1.27273 6.15152 1.27273H1.27273V12.7273H6.15152C6.50296 12.7273 6.78788 13.0122 6.78788 13.3636C6.78788 13.7151 6.50296 14 6.15152 14H0.636364C0.284921 14 0 13.7151 0 13.3636V0.636363C0 0.284921 0.284921 0 0.636364 0H6.15152Z" fill="currentColor"/>
</svg>
