<svg width="13" viewBox="0 0 13 13" fill="none" xmlns="http://www.w3.org/2000/svg">
<path d="M0.229618 6.26796L3.22508 7.38596L4.3845 11.1147C4.45869 11.3535 4.75072 11.4417 4.94455 11.2833L6.61426 9.92208C6.78929 9.77947 7.03858 9.77236 7.22149 9.90514L10.2331 12.0916C10.4404 12.2423 10.7342 12.1287 10.7862 11.8781L12.9923 1.26621C13.0491 0.992515 12.7802 0.764192 12.5196 0.864985L0.226108 5.60743C-0.0772683 5.72443 -0.074625 6.15395 0.229618 6.26796ZM4.19765 6.79082L10.0519 3.18518C10.1571 3.12057 10.2654 3.26283 10.175 3.34664L5.34356 7.83771C5.17374 7.99579 5.06419 8.20734 5.03316 8.43696L4.86858 9.65662C4.84679 9.81947 4.61803 9.83563 4.57309 9.67803L3.94012 7.45395C3.86763 7.20027 3.97327 6.92931 4.19765 6.79082Z" fill="currentColor"/>
</svg>
