<?xml version="1.0" encoding="UTF-8"?>
<!DOCTYPE svg PUBLIC "-//W3C//DTD SVG 1.1//EN" "http://www.w3.org/Graphics/SVG/1.1/DTD/svg11.dtd">
<!-- Creator: CorelDRAW 2020 (64-Bit Оценочная версия) -->
<svg xmlns="http://www.w3.org/2000/svg" xml:space="preserve" width="21.247mm" height="41.9793mm" version="1.1" style="shape-rendering:geometricPrecision; text-rendering:geometricPrecision; image-rendering:optimizeQuality; fill-rule:evenodd; clip-rule:evenodd"
viewBox="0 0 2855.12 5641.08"
 xmlns:xlink="http://www.w3.org/1999/xlink"
 xmlns:xodm="http://www.corel.com/coreldraw/odm/2003">
 <defs>
  <style type="text/css">
   <![CDATA[
    .str0 {stroke:#FCFCFC;stroke-width:26.88;stroke-miterlimit:22.9256}
    .fil3 {fill:none}
    .fil8 {fill:#EBECEC}
    .fil6 {fill:#D9DADA}
    .fil7 {fill:#9D9E9E}
    .fil9 {fill:#5B5B5B}
    .fil10 {fill:#FFF383}
    .fil4 {fill:#FECC00}
    .fil0 {fill:#FCFCFC}
    .fil5 {fill:#DA9F24}
    .fil1 {fill:#523630}
    .fil2 {fill:#FCFCFC;fill-rule:nonzero}
   ]]>
  </style>
 </defs>
 <g id="Слой_x0020_1">
  <metadata id="CorelCorpID_0Corel-Layer"/>
  <g id="_2443069836064">
   <path class="fil0" d="M1016.3 1719.34c19.01,-31.36 41.07,-64.11 63.84,-90.52l21.8 -25.28 11.11 0.27c12.5,-22.74 25.09,-45.39 37.52,-68.17 7.7,-14.1 20.77,-36.08 26.67,-51.72 7.85,-61.69 25.52,-180.27 66.45,-221.17 2.47,-2.63 5.01,-5.76 7.54,-9.08l-4.33 -122.23c-54.32,-21.57 -103.03,-61.33 -120.77,-117.11 -1.71,-5.35 -3.86,-11.76 -6.11,-18.67l-61.46 -14.15 16.27 -122.5c-21.27,-25.34 -37.88,-60.21 -43.44,-92.24l-4.17 -24.03c-56.21,-48.2 -106.52,-128.36 -128.2,-194.97 -18.19,-56.04 -15.86,-134.96 -5.46,-192.63l21.66 -120.07 93.23 78.53c38.02,31.66 93.59,62.16 138.29,81.94 6.09,2.7 13.98,5.98 22.82,9.34 3.1,-22.41 8.65,-44.24 14.32,-62.7l105.26 -342.19 32.2 352.86c1.56,5.24 4.97,11.95 8.02,17.38 10.75,6.13 32.95,13.84 42.75,17.89 38.47,15.9 74.32,33.94 109.61,56.14 83.61,52.58 171.51,174.21 195.43,269.86 6.15,24.62 5.07,49.09 -6.96,71.87 -6.8,12.87 -14.02,20 -20.9,26.77l54.61 0.34 -19.93 198.69 -45.37 3.47c-13.95,42.4 -40.72,81.19 -77,105.37 -12.9,8.6 -28.14,17.97 -44.45,25.81 0.43,1.26 0.85,2.53 1.22,3.79 49.36,16.45 85.18,75.26 61.57,127.36 1.25,5.97 1.94,12.24 2.02,19.18 8.59,18.71 11.21,40.7 7.78,62.15 -2,12.36 -6.14,24.79 -11.92,36.58 2.34,16.93 -0.11,34.78 -8.18,51.7 -11.65,24.5 -36.81,56.02 -55.89,79.58 27.47,15.55 46.98,41.17 56.8,80.48 1.21,4.81 2.43,9.61 3.7,14.41 5.19,2.82 10.35,5.67 15.45,8.56l5.13 2.9 4.57 3.71c16.1,13.07 32.18,26.15 48.27,39.22 693.12,107.27 1207.44,706.77 1207.44,1410.68 0,788.27 -639.29,1427.56 -1427.56,1427.56 -788.27,0 -1427.56,-639.29 -1427.56,-1427.56 0,-630.61 414.41,-1186.7 1016.3,-1367.39z"/>
  </g>
  <path class="fil0" d="M1618.19 1743.05c659.08,92.69 1166.33,659.07 1166.33,1343.67 0,749.3 -607.66,1356.96 -1356.96,1356.96 -749.3,0 -1356.96,-607.66 -1356.96,-1356.96 0,-622.98 420.02,-1148.03 992.27,-1307.37 38.18,-66.66 70.74,-104.42 70.74,-104.42l20.84 0.5c47.44,-88.22 89.89,-159.24 92.24,-177.93 3.14,-25.1 21.93,-159.84 47.02,-184.92 6.58,-6.57 16.82,-20.49 28.93,-37.45l-7 -197.6c0,0 -100.3,-15.66 -122.23,-84.62 -13.48,-42.33 -16.31,-53.95 -16.5,-56.61l-39.9 -9.18 6.25 -47.03 56.43 0.38c0,0 -42.32,-36.39 -67.39,-63.04 -25.07,-26.63 -31.34,-62.71 -31.34,-62.71l23.52 21.97c23.49,21.93 67.36,21.93 67.36,21.93l-6.29 -53.27c0,0 -50.12,-10.99 -98.7,-45.46 -48.56,-34.47 -100.29,-111.26 -120.67,-173.91 -20.36,-62.7 -3.12,-158.3 -3.12,-158.3 0,0 59.54,50.15 155.13,92.45 95.58,42.3 142.62,34.48 142.62,34.48l-17.25 -25.07c-17.24,-25.06 7.83,-106.57 7.83,-106.57 0,0 1.57,17.25 20.36,48.6 18.83,31.34 75.22,31.34 172.41,92.47 97.13,61.09 155.11,189.59 164.52,227.21 9.39,37.61 -25.06,23.48 -48.59,92.44 -10.97,25.07 -3.14,59.11 -3.14,59.11l68.99 0.43 -6.29 62.69 -40.73 3.12c0,0 0,75.24 -56.43,112.85 -56.43,37.59 -75.22,31.34 -75.22,31.34l-1.24 69.12c8.9,9.33 7.34,27.12 -0.75,42.23l-1.05 58.4c8.49,-7.66 17,-17.2 24.98,-28.74 28.22,-40.73 59.54,3.13 40.74,21.96 -18.81,18.8 1.45,20.75 1.45,41.97 0,21.23 -0.78,21.23 -0.78,21.23 0,0 13.34,3.91 9.45,28.27 -3.95,24.39 -24.35,40.89 -24.35,40.89 0,0 18.83,10.23 10.2,28.3 -8.6,18.09 -52.57,72.34 -52.57,72.34 0,0 -5.15,-1.22 -13.16,-1.17l-1.6 89.98c29.12,2.42 53.62,6.88 63.51,46.41 3.36,13.4 7.48,29.24 12.5,45.55 23.45,12.12 40.34,21.69 40.34,21.69 0,0 24.77,20.1 63.27,51.41z"/>
  <g id="_2443069861360">
   <polygon class="fil1" points="1991.45,4681.05 2766.86,4681.05 2766.86,5520.98 138.05,5520.98 138.05,4681.05 519.81,4681.05 519.81,5166.54 848.8,5166.54 848.8,4681.05 1219.63,4681.05 1219.63,5166.54 1318.98,5166.54 1318.98,4681.05 1688.72,4681.05 1688.72,4729.61 1707.31,4681.05 "/>
  </g>
  <path class="fil2" d="M465.62 5237.14l388.18 0 0 213.23 -645.15 0 0 -698.72 240.56 0 0 600.32 16.41 -114.83zm569.69 0l470.19 0 -115.91 -16.39 0 -469.1 228.54 0 0 698.72 -698.72 0 0 -698.72 229.62 0 0 469.1 -113.71 16.39zm720.57 -238.37l129.03 -18.58 -145.42 0 -71.07 0 87.47 -228.54 240.56 0 0 698.72 -240.56 0 0 -451.6zm694.34 232.92l16.41 101.68 0 -145.42 -349.91 0 0 -176.05 349.91 0 0 -151.99 -16.41 109.34 -388.18 0 0 -217.6 634.21 0 0 330.23 -65.6 17.5 65.6 18.58 0 332.41 -634.21 0 0 -218.69 388.18 0z"/>
  <path class="fil2" d="M294.78 5631.26l0 -65.07 -85.68 0 0 65.07 10 0 0 -55.07 65.68 0 0 55.07 10 0zm100.69 -44.9c-0.03,-2.81 -0.55,-5.43 -1.6,-7.85 -1.06,-2.45 -2.5,-4.58 -4.35,-6.42 -1.85,-1.84 -4,-3.28 -6.45,-4.33 -2.43,-1.02 -5.05,-1.56 -7.86,-1.57l-70.78 0 0 65.07 10 0 0 -24.63 60.78 0c2.81,-0.01 5.43,-0.55 7.86,-1.6 2.45,-1.02 4.6,-2.46 6.45,-4.33 1.85,-1.84 3.29,-3.98 4.35,-6.42 1.05,-2.46 1.57,-5.09 1.6,-7.91zm-10.09 0c-0.01,1.89 -0.47,3.6 -1.38,5.13 -0.91,1.53 -2.12,2.75 -3.64,3.66 -1.53,0.9 -3.25,1.37 -5.15,1.38l-60.78 0 0 -20.34 60.78 0c1.89,0.01 3.61,0.48 5.15,1.41 1.52,0.91 2.73,2.12 3.64,3.66 0.91,1.53 1.37,3.24 1.38,5.11zm114.15 12.05c-0.01,-3.64 -0.56,-7.08 -1.68,-10.31 -1.1,-3.25 -2.65,-6.19 -4.66,-8.87 -2,-2.66 -4.38,-4.99 -7.11,-6.92 -2.74,-1.95 -5.74,-3.45 -9.02,-4.52 -3.28,-1.06 -6.73,-1.6 -10.39,-1.61l-32.84 0c-3.66,0.01 -7.12,0.55 -10.41,1.61 -3.27,1.06 -6.28,2.57 -9.02,4.52 -2.73,1.94 -5.09,4.26 -7.1,6.92 -2,2.67 -3.55,5.62 -4.65,8.87 -1.1,3.23 -1.65,6.67 -1.67,10.31 0.01,3.66 0.56,7.12 1.67,10.41 1.1,3.27 2.65,6.28 4.65,9 2,2.74 4.37,5.11 7.1,7.11 2.74,2 5.75,3.55 9.02,4.65 3.29,1.1 6.76,1.65 10.41,1.67l32.84 0c3.66,-0.01 7.11,-0.56 10.39,-1.67 3.28,-1.1 6.28,-2.65 9.02,-4.65 2.73,-2 5.11,-4.37 7.11,-7.11 2.02,-2.73 3.56,-5.74 4.66,-9 1.12,-3.29 1.67,-6.76 1.68,-10.41zm-10.09 0c-0.01,3.17 -0.6,6.13 -1.8,8.88 -1.17,2.74 -2.81,5.17 -4.89,7.26 -2.08,2.1 -4.49,3.74 -7.23,4.9 -2.75,1.18 -5.68,1.79 -8.84,1.8l-32.84 0c-3.17,-0.01 -6.11,-0.62 -8.87,-1.8 -2.73,-1.17 -5.16,-2.81 -7.23,-4.9 -2.08,-2.08 -3.7,-4.52 -4.88,-7.26 -1.17,-2.75 -1.76,-5.71 -1.77,-8.88 0.01,-3.14 0.6,-6.06 1.77,-8.75 1.18,-2.7 2.8,-5.04 4.88,-7.05 2.07,-2.02 4.5,-3.59 7.23,-4.72 2.75,-1.13 5.7,-1.69 8.87,-1.71l32.84 0c3.16,0.01 6.09,0.58 8.84,1.71 2.74,1.13 5.15,2.7 7.23,4.72 2.08,2.02 3.72,4.35 4.89,7.05 1.2,2.69 1.79,5.6 1.8,8.75zm120.77 42.66l0 -19.82 -8.3 0 0 -55.07 -44.9 0c-2.54,0.01 -4.93,0.46 -7.18,1.34 -2.24,0.87 -4.27,2.1 -6.07,3.66 -1.8,1.56 -3.31,3.37 -4.5,5.44l-25.63 44.63 -8.21 0 0 19.82 9.82 0 0 -9.82 85.14 0 0 9.82 9.82 0zm-18.29 -64.89l0 45.07 -66.58 0 22.67 -39.45c0.59,-1.05 1.34,-2 2.26,-2.85 0.9,-0.83 1.94,-1.51 3.06,-2.02 1.14,-0.48 2.38,-0.74 3.68,-0.75l34.91 0zm119.6 55.07l-10.35 -65.07 -74.53 0 -10.27 65.07 10.17 0 1.61 -10.09 70.78 -4.64 2.41 14.73 10.17 0zm-14.9 -29.72l-66.14 4.46 4.73 -29.8 57.39 0 4.02 25.34zm1.61 9.9l-69.35 4.74 0.81 -5.09 67.74 -4.56 0.81 4.9zm144.94 19.82l-17.23 -29.9c-1.21,-2.07 -2.7,-3.9 -4.5,-5.47 -1.8,-1.59 -3.83,-2.82 -6.07,-3.7 -2.24,-0.89 -4.64,-1.36 -7.19,-1.37l-2.67 0 5.63 -9.1c0.62,-1.03 1.38,-1.95 2.27,-2.78 0.89,-0.83 1.89,-1.51 3.01,-2 1.12,-0.48 2.32,-0.74 3.64,-0.75l7.94 0 0 -10 -7.94 0c-2.57,0.01 -4.97,0.47 -7.2,1.38 -2.23,0.9 -4.25,2.14 -6.03,3.72 -1.79,1.57 -3.29,3.39 -4.53,5.43l-8.48 14.1 -8.39 0 0 -24.63 -10 0 0 24.63 -8.4 0 -8.48 -14.1c-1.22,-2.04 -2.73,-3.86 -4.52,-5.43 -1.79,-1.59 -3.8,-2.82 -6.05,-3.72 -2.23,-0.91 -4.62,-1.37 -7.19,-1.38l-7.94 0 0 10 7.94 0c1.3,0.01 2.53,0.27 3.64,0.75 1.12,0.5 2.11,1.17 3.01,2 0.89,0.83 1.64,1.75 2.27,2.78l5.62 9.1 -2.67 0c-2.54,0.01 -4.93,0.48 -7.19,1.37 -2.24,0.87 -4.26,2.11 -6.06,3.7 -1.8,1.57 -3.31,3.4 -4.52,5.47l-17.23 29.9 11.7 0 14.27 -24.81c0.6,-1.06 1.36,-2.02 2.26,-2.85 0.91,-0.85 1.92,-1.52 3.08,-2.02 1.14,-0.5 2.38,-0.75 3.68,-0.77l22.76 0 0 30.44 10 0 0 -30.44 22.75 0c1.33,0.01 2.55,0.27 3.7,0.77 1.14,0.5 2.18,1.17 3.06,2.02 0.91,0.83 1.67,1.79 2.26,2.85l14.28 24.81 11.69 0zm101.29 0l-10.35 -65.07 -74.53 0 -10.27 65.07 10.17 0 1.61 -10.09 70.78 -4.64 2.41 14.73 10.17 0zm-14.9 -29.72l-66.14 4.46 4.73 -29.8 57.39 0 4.02 25.34zm1.61 9.9l-69.35 4.74 0.81 -5.09 67.74 -4.56 0.81 4.9zm128.61 19.82l0 -65.07 -10 0 -65.68 51.86 0 -51.86 -10 0 0 65.07 10 0 65.68 -51.86 0 51.86 10 0zm90.33 -55.07l0 -10 -80.68 0 0 65.07 10 0 0 -55.07 70.68 0zm96.31 10.17c-0.03,-2.81 -0.55,-5.43 -1.6,-7.85 -1.06,-2.45 -2.5,-4.58 -4.35,-6.42 -1.85,-1.84 -4,-3.28 -6.45,-4.33 -2.43,-1.02 -5.05,-1.56 -7.86,-1.57l-70.78 0 0 65.07 10 0 0 -24.63 60.78 0c2.81,-0.01 5.43,-0.55 7.86,-1.6 2.45,-1.02 4.6,-2.46 6.45,-4.33 1.85,-1.84 3.29,-3.98 4.35,-6.42 1.05,-2.46 1.57,-5.09 1.6,-7.91zm-10.09 0c-0.01,1.89 -0.47,3.6 -1.38,5.13 -0.91,1.53 -2.12,2.75 -3.64,3.66 -1.53,0.9 -3.25,1.37 -5.15,1.38l-60.78 0 0 -20.34 60.78 0c1.89,0.01 3.61,0.48 5.15,1.41 1.52,0.91 2.73,2.12 3.64,3.66 0.91,1.53 1.37,3.24 1.38,5.11zm114.15 12.05c-0.01,-3.64 -0.56,-7.08 -1.68,-10.31 -1.1,-3.25 -2.65,-6.19 -4.66,-8.87 -2,-2.66 -4.38,-4.99 -7.11,-6.92 -2.74,-1.95 -5.74,-3.45 -9.02,-4.52 -3.28,-1.06 -6.73,-1.6 -10.39,-1.61l-32.84 0c-3.66,0.01 -7.12,0.55 -10.41,1.61 -3.27,1.06 -6.28,2.57 -9.02,4.52 -2.73,1.94 -5.09,4.26 -7.1,6.92 -2,2.67 -3.55,5.62 -4.65,8.87 -1.1,3.23 -1.65,6.67 -1.67,10.31 0.01,3.66 0.56,7.12 1.67,10.41 1.1,3.27 2.65,6.28 4.65,9 2,2.74 4.37,5.11 7.1,7.11 2.74,2 5.75,3.55 9.02,4.65 3.29,1.1 6.76,1.65 10.41,1.67l32.84 0c3.66,-0.01 7.11,-0.56 10.39,-1.67 3.28,-1.1 6.28,-2.65 9.02,-4.65 2.73,-2 5.11,-4.37 7.11,-7.11 2.02,-2.73 3.56,-5.74 4.66,-9 1.12,-3.29 1.67,-6.76 1.68,-10.41zm-10.09 0c-0.01,3.17 -0.6,6.13 -1.8,8.88 -1.17,2.74 -2.81,5.17 -4.89,7.26 -2.08,2.1 -4.49,3.74 -7.23,4.9 -2.75,1.18 -5.68,1.79 -8.84,1.8l-32.84 0c-3.17,-0.01 -6.11,-0.62 -8.87,-1.8 -2.73,-1.17 -5.16,-2.81 -7.23,-4.9 -2.08,-2.08 -3.7,-4.52 -4.88,-7.26 -1.17,-2.75 -1.76,-5.71 -1.77,-8.88 0.01,-3.14 0.6,-6.06 1.77,-8.75 1.18,-2.7 2.8,-5.04 4.88,-7.05 2.07,-2.02 4.5,-3.59 7.23,-4.72 2.75,-1.13 5.7,-1.69 8.87,-1.71l32.84 0c3.16,0.01 6.09,0.58 8.84,1.71 2.74,1.13 5.15,2.7 7.23,4.72 2.08,2.02 3.72,4.35 4.89,7.05 1.2,2.69 1.79,5.6 1.8,8.75zm109.71 12.67c-0.03,-2.37 -0.39,-4.6 -1.14,-6.69 -0.73,-2.1 -1.77,-4.02 -3.12,-5.75 -1.36,-1.72 -2.93,-3.2 -4.76,-4.42 1.21,-1.52 2.15,-3.23 2.82,-5.07 0.67,-1.84 0.99,-3.82 1.01,-5.91 -0.01,-2.45 -0.47,-4.7 -1.4,-6.77 -0.9,-2.07 -2.16,-3.87 -3.79,-5.4 -1.61,-1.55 -3.48,-2.74 -5.6,-3.59 -2.14,-0.85 -4.42,-1.28 -6.88,-1.29l-68.18 0 0 65.07 70.78 0c2.81,-0.01 5.43,-0.55 7.86,-1.57 2.45,-1.05 4.6,-2.49 6.45,-4.33 1.85,-1.85 3.29,-3.98 4.35,-6.42 1.05,-2.42 1.57,-5.04 1.6,-7.85zm-15.27 -27.94c-0.01,1.36 -0.36,2.62 -1.02,3.78 -0.65,1.16 -1.49,2.08 -2.55,2.8 -1.03,0.71 -2.18,1.09 -3.39,1.1l-58.82 0 0 -14.63 58.19 0c1.38,0 2.65,0.28 3.79,0.85 1.16,0.56 2.06,1.37 2.74,2.41 0.69,1.03 1.05,2.27 1.06,3.71zm5.08 27.94c-0.01,1.87 -0.47,3.57 -1.38,5.11 -0.89,1.53 -2.11,2.74 -3.63,3.66 -1.52,0.93 -3.2,1.38 -5.07,1.41l-60.78 0 0 -20.34 60.78 0c1.87,0.01 3.55,0.47 5.07,1.38 1.52,0.9 2.74,2.12 3.63,3.66 0.91,1.52 1.37,3.23 1.38,5.13zm116.21 -12.67c-0.01,-3.64 -0.56,-7.08 -1.68,-10.31 -1.1,-3.25 -2.65,-6.19 -4.66,-8.87 -2,-2.66 -4.38,-4.99 -7.11,-6.92 -2.74,-1.95 -5.74,-3.45 -9.02,-4.52 -3.28,-1.06 -6.73,-1.6 -10.39,-1.61l-32.84 0c-3.66,0.01 -7.12,0.55 -10.41,1.61 -3.27,1.06 -6.28,2.57 -9.02,4.52 -2.73,1.94 -5.09,4.26 -7.1,6.92 -2,2.67 -3.55,5.62 -4.65,8.87 -1.1,3.23 -1.65,6.67 -1.67,10.31 0.01,3.66 0.56,7.12 1.67,10.41 1.1,3.27 2.65,6.28 4.65,9 2,2.74 4.37,5.11 7.1,7.11 2.74,2 5.75,3.55 9.02,4.65 3.29,1.1 6.76,1.65 10.41,1.67l32.84 0c3.66,-0.01 7.11,-0.56 10.39,-1.67 3.28,-1.1 6.28,-2.65 9.02,-4.65 2.73,-2 5.11,-4.37 7.11,-7.11 2.02,-2.73 3.56,-5.74 4.66,-9 1.12,-3.29 1.67,-6.76 1.68,-10.41zm-10.09 0c-0.01,3.17 -0.6,6.13 -1.8,8.88 -1.17,2.74 -2.81,5.17 -4.89,7.26 -2.08,2.1 -4.49,3.74 -7.23,4.9 -2.75,1.18 -5.68,1.79 -8.84,1.8l-32.84 0c-3.17,-0.01 -6.11,-0.62 -8.87,-1.8 -2.73,-1.17 -5.16,-2.81 -7.23,-4.9 -2.08,-2.08 -3.7,-4.52 -4.88,-7.26 -1.17,-2.75 -1.76,-5.71 -1.77,-8.88 0.01,-3.14 0.6,-6.06 1.77,-8.75 1.18,-2.7 2.8,-5.04 4.88,-7.05 2.07,-2.02 4.5,-3.59 7.23,-4.72 2.75,-1.13 5.7,-1.69 8.87,-1.71l32.84 0c3.16,0.01 6.09,0.58 8.84,1.71 2.74,1.13 5.15,2.7 7.23,4.72 2.08,2.02 3.72,4.35 4.89,7.05 1.2,2.69 1.79,5.6 1.8,8.75zm73.46 -27.67l-2.32 -8.21c-1.69,0.85 -3.47,1.45 -5.31,1.84 -1.83,0.39 -3.7,0.56 -5.58,0.56 -1.88,0 -3.74,-0.17 -5.58,-0.56 -1.83,-0.39 -3.6,-0.99 -5.31,-1.84l-2.32 8.21c2,0.81 4.07,1.42 6.19,1.84 2.14,0.43 4.29,0.66 6.48,0.66l1.25 0c2.14,0 4.29,-0.23 6.4,-0.66 2.11,-0.42 4.18,-1.03 6.18,-1.84l-0.08 0zm30.97 60.51l0 -65.07 -10 0 -65.7 51.86 0 -51.86 -10 0 0 65.07 10 0 65.7 -51.86 0 51.86 10 0zm124.42 0l-10.35 -65.07 -74.53 0 -10.27 65.07 10.17 0 1.61 -10.09 70.78 -4.64 2.41 14.73 10.17 0zm-14.9 -29.72l-66.14 4.46 4.73 -29.8 57.39 0 4.02 25.34zm1.61 9.9l-69.35 4.74 0.81 -5.09 67.74 -4.56 0.81 4.9zm133.34 19.82l0 -65.78 -111.21 0 0 65.78 10.08 0 0 -55.61 40.43 0 0 55.61 10.09 0 0 -55.61 40.51 0 0 55.61 10.09 0zm100.68 -44.9c-0.03,-2.81 -0.55,-5.43 -1.6,-7.85 -1.06,-2.45 -2.5,-4.58 -4.35,-6.42 -1.85,-1.84 -4,-3.28 -6.45,-4.33 -2.43,-1.02 -5.05,-1.56 -7.86,-1.57l-70.78 0 0 65.07 10 0 0 -24.63 60.78 0c2.81,-0.01 5.43,-0.55 7.86,-1.6 2.45,-1.02 4.6,-2.46 6.45,-4.33 1.85,-1.84 3.29,-3.98 4.35,-6.42 1.05,-2.46 1.57,-5.09 1.6,-7.91zm-10.09 0c-0.01,1.89 -0.47,3.6 -1.38,5.13 -0.91,1.53 -2.12,2.75 -3.64,3.66 -1.53,0.9 -3.25,1.37 -5.15,1.38l-60.78 0 0 -20.34 60.78 0c1.89,0.01 3.61,0.48 5.15,1.41 1.52,0.91 2.73,2.12 3.64,3.66 0.91,1.53 1.37,3.24 1.38,5.11zm102.37 44.9l0 -65.07 -10 0 -65.68 51.86 0 -51.86 -10 0 0 65.07 10 0 65.68 -51.86 0 51.86 10 0zm100.6 -20.26c-0.01,-2.81 -0.55,-5.43 -1.57,-7.85 -1.05,-2.45 -2.49,-4.57 -4.34,-6.41 -1.83,-1.85 -3.96,-3.29 -6.41,-4.33 -2.42,-1.03 -5.04,-1.57 -7.85,-1.59l-60.78 0 0 -14.63 75.95 0 0 -10 -85.95 0 0 65.07 70.78 0c2.81,-0.01 5.43,-0.55 7.85,-1.59 2.45,-1.06 4.58,-2.5 6.41,-4.37 1.85,-1.84 3.29,-4 4.34,-6.44 1.02,-2.45 1.56,-5.07 1.57,-7.87zm-10.09 0c-0.01,1.89 -0.47,3.61 -1.38,5.16 -0.89,1.56 -2.11,2.77 -3.63,3.7 -1.52,0.93 -3.2,1.4 -5.07,1.41l-60.78 0 0 -20.44 60.78 0c1.87,0.01 3.55,0.48 5.07,1.38 1.52,0.91 2.74,2.12 3.63,3.66 0.91,1.52 1.37,3.24 1.38,5.13zm110.15 -44.8l-11.69 0 -19.82 34.63 -26.59 0c-1.25,-0.01 -2.45,-0.26 -3.57,-0.74 -1.12,-0.5 -2.12,-1.16 -3.04,-2 -0.91,-0.85 -1.69,-1.8 -2.31,-2.88l-16.69 -29.01 -11.7 0 19.55 34.09c1.24,2.14 2.77,3.98 4.61,5.55 1.83,1.57 3.88,2.8 6.13,3.66 2.27,0.87 4.64,1.32 7.11,1.33l20.71 0 -2.77 4.82c-0.62,1.08 -1.4,2.03 -2.31,2.88 -0.91,0.86 -1.94,1.51 -3.06,2 -1.13,0.48 -2.35,0.73 -3.63,0.74l-10.44 0 0 10 10.44 0c2.47,-0.01 4.85,-0.46 7.11,-1.33 2.24,-0.86 4.3,-2.08 6.13,-3.66 1.84,-1.57 3.37,-3.41 4.61,-5.55l31.24 -54.53zm116.92 65.07l0 -65.78 -111.21 0 0 65.78 10.08 0 0 -55.61 40.43 0 0 55.61 10.09 0 0 -55.61 40.51 0 0 55.61 10.09 0zm95.31 0l0 -65.07 -10 0 -65.68 51.86 0 -51.86 -10 0 0 65.07 10 0 65.68 -51.86 0 51.86 10 0zm98.19 0l-17.23 -29.9c-1.21,-2.07 -2.71,-3.9 -4.52,-5.47 -1.8,-1.59 -3.82,-2.82 -6.06,-3.7 -2.26,-0.89 -4.65,-1.36 -7.19,-1.37l-2.67 0 5.62 -9.1c0.63,-1.03 1.38,-1.95 2.27,-2.78 0.9,-0.83 1.89,-1.51 3.01,-2 1.12,-0.48 2.34,-0.74 3.64,-0.75l7.94 0 0 -10 -7.94 0c-2.57,0.01 -4.96,0.47 -7.2,1.38 -2.23,0.9 -4.25,2.14 -6.03,3.72 -1.79,1.57 -3.29,3.39 -4.53,5.43l-8.47 14.1 -29.19 0 0 -24.63 -10 0 0 65.07 10 0 0 -30.44 43.55 0c1.3,0.01 2.54,0.27 3.68,0.77 1.16,0.5 2.16,1.17 3.06,2.02 0.91,0.83 1.67,1.79 2.27,2.85l14.27 24.81 11.7 0zm92.64 0l0 -65.07 -10 0 -65.68 51.86 0 -51.86 -10 0 0 65.07 10 0 65.68 -51.86 0 51.86 10 0z"/>
  <path class="fil1" d="M1420.4 1710.21c749.3,0 1356.96,607.66 1356.96,1356.96 0,749.3 -607.66,1356.96 -1356.96,1356.96 -749.3,0 -1356.96,-607.66 -1356.96,-1356.96 0,-749.3 607.66,-1356.96 1356.96,-1356.96z"/>
  <path class="fil0" d="M940.82 2278.13c-39.63,-361.53 185.63,-622.76 185.63,-622.76l207.36 4.9c0,0 -79.15,338.3 -57.19,354.54 21.96,16.25 195.02,26.65 250.29,35.53 55.27,8.88 -29.2,-121.2 -54.23,-137.93 -25.03,-16.73 -26.57,57.78 -26.57,57.78l-117.35 -3.45c0,0 -14.38,-124.29 -11.37,-222.96 2.27,-74.34 20.06,-128.4 30.1,-136.43 23.4,-18.71 200.28,64.73 200.28,64.73 0,0 383.78,311.38 477.63,392.88 93.85,81.5 72.99,223.62 58.4,334.37 -3.31,25.07 -29.36,304.55 -120.93,301.15 -312.6,-11.62 -1022.05,-422.36 -1022.05,-422.36z"/>
  <path class="fil0" d="M1410.59 2111.24c538.38,0 974.99,436.61 974.99,974.99 0,538.38 -436.61,974.99 -974.99,974.99 -538.38,0 -974.99,-436.61 -974.99,-974.99 0,-538.38 436.61,-974.99 974.99,-974.99z"/>
  <path class="fil3 str0" d="M1420.4 1761.3c721.1,0 1305.87,584.77 1305.87,1305.87 0,721.1 -584.77,1305.87 -1305.87,1305.87 -721.1,0 -1305.87,-584.77 -1305.87,-1305.87 0,-721.1 584.77,-1305.87 1305.87,-1305.87z"/>
  <path class="fil4" d="M2020.89 2486.69c145.33,150.3 234.78,354.96 234.78,580.48 0,235.26 -97.34,447.77 -253.89,599.59l-60.51 -60.51c141.07,-136.33 228.82,-327.47 228.82,-539.08 0,-201.84 -79.82,-385.06 -209.59,-519.84l60.39 -60.64zm-1159.45 1201.08c-169.64,-152.89 -276.32,-374.3 -276.32,-620.6 0,-217.91 83.53,-416.33 220.25,-565.06l63.48 57.39c-123,133.54 -198.14,311.84 -198.14,507.67 0,222.66 97.17,422.66 251.35,559.98l-60.62 60.62z"/>
  <path class="fil3 str0" d="M1114.81 4103.79l87.79 18.34 -15.72 167.72 116.61 7.86 11.8 -154.62 103.51 2.62 6.56 155.93 151.43 -10.51 -30.17 -153.98m25.14 142.28l-26.79 -151.66 124.33 -34.15 46.68 148.92 118.2 -39.82 -51.32 -140.88m-1.96 -7.73l80.47 -39.57 90.88 141.85 96.73 -65.63 -85.88 -129.1 83.15 -61.64 101.16 118.8 93.29 -82.79 -102.33 -109.63m7.16 9.31l58.62 -67.86 139.07 95.06 63.4 -98.22 -129.5 -85.26 52.46 -89.24 139.54 69.84 53.5 -112.66 -137.01 -60.94m10.06 10.21l27.44 -85.37 165.15 33.15 20 -115.18 -152.53 -27.88 13.42 -102.65 155.73 9.78 5.23 -124.64 -149.93 -2.54m-1.85 2.15l-8.1 -89.31 164.98 -34 -26.59 -113.84 -151.31 33.94 -27.74 -99.74 147.17 -51.87 -43.89 -116.75 -139.01 56.24m0.78 6.07l-42.34 -79.04 138.57 -95.77 -68.96 -94.39 -126.01 90.36 -64.51 -80.98 115.22 -105.23 -86.03 -90.33 -105.97 106.09m13.83 -7.69l-69.89 -56.2 90.15 -142.31 -100.35 -59.93 -80.69 132.4 -91.03 -49.33 64.93 -141.89 -114.46 -49.53 -56.12 139.07m-6.67 -6.67l-86.28 -24.42 27.39 -166.23 -115.79 -15.95 -22.55 153.41 -103.07 -9.84 4.34 -155.99 -124.73 -0.87 2.69 149.93m1.3 6.91l-88.97 11.23 -39.72 -163.71 -112.84 30.54 39.18 150.03 -98.71 31.22 -56.96 -145.28 -115.13 47.93 61.05 136.96m4.56 -2.27l-77.52 45.1 -100.54 -135.16 -91.93 72.2 94.7 122.79 -78.68 67.31 -109.2 -111.49 -87.25 89.13 109.69 102.22m-6.17 -6.83l-53.72 71.8 -145.37 -85.13 -56.41 102.37 135.14 76.04 -46.12 92.71 -144.08 -59.96 -45.49 116.13 140.91 51.24m-2.11 13.03l-21.39 87.08 -167.09 -21.57 -11.92 116.29 154.1 17.19 -6.22 103.35 -156.07 1.12 3.51 124.66 149.74 -7.89m-13.85 0.74l14.31 88.53 -162.21 45.42 34.45 111.69 148.57 -44.4 34.66 97.57 -143.22 62 51.95 113.39 134.74 -65.76m2.84 4.88l47.77 75.9 -131.57 105.2 75.37 89.35 119.41 -98.93 70.01 76.27 -107.61 113.04 92.13 84.08 98.34 -113.19m6.26 5.95l73.64 51.18 -80.01 148.25 104.28 52.81 71.26 -137.72 94.27 42.85 -54.89 146.1 117.66 41.4 46.31 -142.63"/>
  <path class="fil5" d="M1424.44 1948.03l-84.64 -6.29 -31.32 -883.78c0,0 -100.3,-15.66 -122.23,-84.62 -21.94,-68.94 -15.68,-56.43 -15.68,-56.43l-40.72 -9.37 6.25 -47.03 482.66 3.13 -6.29 62.69 -40.73 3.12c0,0 0,75.24 -56.43,112.85 -56.43,37.59 -75.22,31.34 -75.22,31.34l-15.64 874.38z"/>
  <path class="fil6" d="M873.78 3865.09c14.28,-15.88 25.65,-25.72 30.41,-24.13 18.81,6.29 37.6,6.29 47.01,-9.39 9.42,-15.68 25.06,-31.36 18.8,-59.57 -6.26,-28.21 56.41,-150.44 56.41,-150.44 0,0 65.83,6.28 72.08,-15.66 6.29,-21.93 21.96,-169.26 18.83,-222.53 -3.14,-53.25 -72.09,-137.87 -84.63,-194.3 -12.52,-56.4 -97.14,-260.13 -62.69,-504.59 34.48,-244.45 3.13,-300.86 3.13,-454.41 0,-153.58 62.71,-350.99 125.36,-479.5 62.69,-128.49 137.9,-247.59 141.04,-272.64 3.14,-25.1 21.93,-159.84 47.02,-184.92 25.07,-25.06 103.4,-156.7 134.75,-156.7 31.34,0 28.19,37.61 9.39,59.56 -18.81,21.92 -68.94,68.94 -50.14,72.08 18.79,3.1 53.28,-12.54 81.47,-53.29 28.22,-40.73 59.54,3.13 40.74,21.96 -18.81,18.8 1.45,20.75 1.45,41.97 0,21.23 -0.78,21.23 -0.78,21.23 0,0 13.34,3.91 9.45,28.27 -3.95,24.39 -24.35,40.89 -24.35,40.89 0,0 18.83,10.23 10.2,28.3 -8.6,18.09 -52.57,72.34 -52.57,72.34 0,0 -37.41,-8.92 -67.19,22.4 -29.76,31.34 -50.15,50.15 -50.15,50.15 0,0 39.18,9.41 78.37,14.11 39.14,4.7 75.18,-1.56 87.72,48.56 12.56,50.15 36.07,134.77 75.24,148.88 39.18,14.11 230.32,178.63 324.37,263.25 94.01,84.63 141,147.29 147.26,175.51 6.29,28.21 -9.37,278.93 -28.18,344.75 -18.83,65.79 -87.78,278.91 -103.42,325.92 -15.67,47.01 -65.83,37.63 -50.18,100.27 15.68,62.69 0,285.23 -34.44,385.5 -34.49,100.26 -37.64,131.62 -18.81,191.17 11.72,37.06 62.28,198.01 107.1,354.3 -145.52,86.42 -315.41,136.04 -496.9,136.04 -201.08,0 -387.95,-60.97 -543.2,-165.34zm723.03 -1180.6l115.95 -125.32c0,0 43.86,-178.67 62.67,-197.45 18.8,-18.8 31.34,-31.34 31.34,-31.34l-9.39 -56.43c0,0 -200.57,-203.7 -228.79,-278.93 -28.21,-75.21 -47.02,-87.72 -87.74,-109.68 -40.77,-21.94 -78.37,-56.41 -100.3,-72.09 -21.94,-15.67 -32.91,-36.03 -36.05,-45.42 -3.1,-9.43 23.52,-20.4 23.52,-20.4 0,0 -29.76,0 -40.73,-6.25 -10.99,-6.29 -21.96,-48.58 -12.56,-51.72 9.43,-3.12 23.53,-4.69 23.53,-4.69l-40.74 -7.85c0,0 -75.22,291.47 -79.91,327.51 -4.7,36.04 7.83,53.28 7.83,53.28 0,0 14.1,15.68 25.06,21.94 10.97,6.28 123.8,7.85 173.95,7.85 50.12,0 87.72,4.68 94.01,25.07 6.25,20.36 24.47,32.05 24.47,32.05 0,0 36.63,-0.74 50.74,24.35 14.08,25.06 32.91,10.97 34.47,50.15 1.59,39.14 12.54,112.82 0,188.01 -12.52,75.22 -48.58,103.44 -48.58,142.6 0,39.17 -20.36,54.85 17.25,134.75zm-319.7 -84.58c-53.27,-21.97 -65.8,-53.32 -65.8,-87.76 0,-34.49 6.29,-304 6.29,-304 0,0 50.12,0 53.29,31.34 3.1,31.32 -28.22,203.7 -12.54,231.92 15.64,28.18 46.98,43.86 46.98,43.86 0,0 9.39,100.29 -28.22,84.64z"/>
  <path class="fil4" d="M1552.91 804.12c23.53,-68.96 57.98,-54.83 48.59,-92.44 -9.41,-37.61 -67.39,-166.12 -164.52,-227.21 -97.18,-61.13 -153.58,-61.13 -172.41,-92.47 -18.79,-31.35 -20.36,-48.6 -20.36,-48.6 0,0 -25.07,81.51 -7.83,106.57 17.25,25.07 17.25,25.07 17.25,25.07 0,0 -47.03,7.82 -142.62,-34.48 -95.58,-42.3 -155.13,-92.45 -155.13,-92.45 0,0 -17.24,95.6 3.12,158.3 20.39,62.65 72.11,139.44 120.67,173.91 48.58,34.47 98.7,45.46 98.7,45.46l6.29 53.27c0,0 -43.87,0 -67.36,-21.93 -23.52,-21.97 -23.52,-21.97 -23.52,-21.97 0,0 6.26,36.08 31.34,62.71 25.07,26.65 67.39,63.04 67.39,63.04l357.24 2.32c0,0 -7.82,-34.04 3.14,-59.11z"/>
  <path class="fil7" d="M1324.16 2294.35c61.1,-17.25 103.4,3.1 103.4,3.1 0,0 0,61.11 1.56,72.08 1.57,10.97 50.15,6.28 53.27,15.68 3.14,9.39 -39.16,15.67 -57.94,12.54 -18.83,-3.14 -6.32,-66.17 -14.94,-62.26 -8.6,3.94 -56.87,9.43 -68.24,1.6 -11.38,-7.86 -17.11,-42.75 -17.11,-42.75z"/>
  <path class="fil7" d="M1483.26 2291.11c0.42,22.39 -0.39,40.08 3.56,47.56 3.88,7.47 54.5,5.87 69.03,4.72 14.5,-1.18 21.94,-47.17 21.94,-47.17 0,0 -37.25,-11.42 -94.53,-5.11z"/>
  <path class="fil7" d="M1301.05 2612.63c0,0 48.64,35.37 90.99,38.51 42.4,3.14 56.52,-16.52 63.56,-32.22 7.05,-15.74 32.17,-23.58 60.43,-27.51 28.23,-3.94 45.49,-54.26 45.49,-58.98 0,-4.72 -9.41,14.15 -69.03,14.96 -59.62,0.77 -122.39,-15.74 -142.01,-29.11 -19.63,-13.34 -20.4,-64.46 -14.12,-82.53 6.29,-18.1 1.57,-23.58 -4.72,-36.94 -6.28,-13.38 -0.56,-97.49 -0.56,-97.49 0,0 -3.55,-56.6 0,-64.07 3.53,-7.46 28.8,-50.7 50.79,-57.77 21.97,-7.07 86.31,-9.43 86.31,-9.43l32.14 3.14c0,0 -7.83,-28.31 -35.29,-28.31 -27.48,0 -87.1,6.3 -122.39,12.58 -35.31,6.3 -132.6,-14.92 -132.6,-14.92l-25.88 -20.47c0,0 29.79,45.59 48.63,59.74 18.83,14.15 27.45,32.52 35.7,48.89 8.24,16.35 -12.34,164.02 -12.34,164.02 0,0 -5.17,46.59 -1.49,61.64 3.7,15.05 24.35,41.62 33.78,48.09 9.41,6.5 16.89,10.82 16.89,10.82l-3.66 67.98 -0.63 29.37z"/>
  <path class="fil7" d="M1172.16 2834.97c21.9,70.51 1.55,117.49 50.12,134.73 48.6,17.25 227.21,-1.56 267.96,0 40.74,1.59 23.5,-47.01 45.46,-39.14 21.92,7.82 23.49,51.68 54.83,59.5 31.32,7.86 191.17,32.91 191.17,32.91l26.65 -51.68c0,0 -97.17,-47.02 -151.99,-47.02 -54.85,0 -59.54,-10.97 -59.54,-10.97 0,0 -17.25,-53.28 -62.7,-43.89 -45.43,9.39 -40.72,32.92 -50.15,40.74 -9.39,7.86 -216.24,20.4 -236.61,15.68 -20.36,-4.7 -75.18,-90.87 -75.18,-90.87z"/>
  <path class="fil7" d="M1046.79 2640.64c-3.13,59.53 -14.11,75.21 21.93,76.77 36.05,1.59 86.19,-18.81 86.19,-18.81 0,0 -22.82,-20.26 -56.08,-19.54 -33.26,0.75 -52.04,-38.42 -52.04,-38.42z"/>
  <path class="fil7" d="M1324.16 3037.1c9.38,48.58 9.38,90.87 29.78,97.13 20.36,6.29 50.12,-53.27 83.05,-61.13 32.87,-7.82 191.15,-4.68 224.06,9.43 32.9,14.11 61.11,64.23 81.5,73.63 20.36,9.43 36.04,-20.36 20.36,-39.16 -15.68,-18.81 -68.96,-78.36 -217.81,-72.08 -148.86,6.26 -166.1,36.04 -177.07,45.43 -10.98,9.39 -43.86,-53.25 -43.86,-53.25z"/>
  <path class="fil7" d="M873.78 3865.09c14.28,-15.88 25.65,-25.72 30.41,-24.13 18.81,6.29 37.6,6.29 47.01,-9.39 9.42,-15.68 25.06,-31.36 18.8,-59.57 -6.26,-28.21 56.41,-150.44 56.41,-150.44 0,0 65.83,6.28 72.08,-15.66 6.29,-21.93 21.96,-169.26 18.83,-222.53 -3.14,-53.25 -72.09,-137.87 -84.63,-194.3 -8.87,-39.98 -53.95,-153.93 -67.22,-303.87 15.68,-9.15 29.97,-14.02 40.58,-11.09 45.43,12.52 90.89,-1.57 106.55,-42.3 15.67,-40.74 25.07,-68.96 29.79,-51.72 4.7,17.23 73.64,188.03 62.65,224.07 -10.97,36.04 -106.55,32.92 -78.33,94.01 28.21,61.11 57.97,89.32 84.6,100.29 26.65,10.99 145.73,81.47 134.77,205.3 -10.97,123.78 -40.74,258.54 -40.74,258.54 0,0 81.59,-351.98 97.16,-506.16 10.95,58 -86.19,542.19 -86.19,542.19l235.05 45.45 164.55 -528.06c0,0 -117.54,485.76 -122.23,515.53 -4.69,29.78 -12.54,1.57 -10.97,76.77 1.02,48.66 4.66,130.71 18.11,205.09 -59.54,11.37 -120.99,17.32 -183.84,17.32 -201.08,0 -387.95,-60.97 -543.2,-165.34z"/>
  <path class="fil7" d="M1713.75 2555.19l60.12 116.76c0,0 -4.7,-156.68 26.62,-227.19 31.36,-70.51 59.54,-100.27 59.54,-100.27 0,0 40.76,-51.72 21.97,-84.64 -18.83,-32.9 -14.11,-20.36 -87.76,-117.49 -73.65,-97.18 -65.8,-108.15 -89.33,-155.15 -23.5,-47.03 -34.47,-73.65 -111.24,-117.54 -76.78,-43.87 -127.27,-77.87 -234.42,-76.54 5.46,6.8 12.5,13.85 21.31,20.13 21.93,15.68 59.53,50.15 100.3,72.09 40.72,21.96 59.53,34.47 87.74,109.68 28.22,75.22 228.79,278.93 228.79,278.93l9.39 56.43c0,0 -12.54,12.54 -31.34,31.34 -17.16,17.16 -55.12,167.14 -61.69,193.48z"/>
  <path class="fil7" d="M1411.96 2435.53l3.94 23.6 71.41 0.77 1.56 -24.36c0,0 -39.25,-13.34 -76.9,0z"/>
  <path class="fil7" d="M1437.06 2464.6c0.08,-5.23 3.14,24.4 3.14,24.4l32.17 -1.57 0.3 -27.68 -35.61 4.85z"/>
  <path class="fil8" d="M1464.48 2188.95c51.82,1.83 85.46,4.54 98.19,11.81 12.73,7.31 4.54,46.49 -29.09,51.04 -33.65,4.56 -58.16,3.66 -66.37,-8.2 -8.2,-11.85 -2.73,-54.65 -2.73,-54.65z"/>
  <path class="fil8" d="M1545.4 2788.27c5.44,40.07 49.07,45.57 67.27,72.89 18.17,27.32 107.23,45.51 123.6,27.32 16.39,-18.22 -16.37,-72.89 -38.16,-81.98 -21.84,-9.12 -139.99,-51 -152.71,-18.22z"/>
  <path class="fil8" d="M1160.41 1648.36c42.33,-82.05 81.38,-166.25 106.8,-164.42 25.45,1.83 53.89,-6.85 31.5,26.41 -22.4,33.26 -113.31,212.24 -122.4,230.46 -9.07,18.22 -48.62,-37.79 -15.9,-92.44z"/>
  <path class="fil8" d="M1406.1 1576c34.58,11.88 60.04,4.07 65.94,20.95 5.91,16.88 19.53,33.74 -4.11,28.26 -23.62,-5.48 -62.26,-34.6 -74.54,-40.54 -12.26,-5.91 12.71,-8.67 12.71,-8.67z"/>
  <path class="fil9" d="M1303.57 1567.74c-2.71,19.14 10.9,24.56 36.35,28.22 25.46,3.66 59.11,18.24 59.11,18.24 0,0 -93.93,-10.79 -102.11,-18.07 -8.17,-7.27 -1.12,-33.92 6.65,-28.38z"/>
  <path class="fil9" d="M1286.59 1637.49c-3.63,25.03 -1.29,30.4 15,36.89 16.27,6.5 80.92,15.94 80.92,15.94 0,0 -71.37,-24.6 -78.64,-30.05 -7.27,-5.47 -8.63,-28.68 -8.63,-28.68 0,0 -11.37,-5.5 -8.65,5.9z"/>
  <path class="fil10" d="M1445.37 726.12c9.1,-138.45 -74.51,-193.07 -119.97,-220.43 -45.45,-27.32 -45.45,-27.32 -45.45,-27.32 0,0 157.07,159.32 165.42,247.75z"/>
  <polygon class="fil4" points="759.72,2496.93 876.51,2603.51 921.35,2444.68 "/>
  <polygon class="fil4" points="2052.35,3663.67 1935.56,3557.09 1890.72,3715.92 "/>
 </g>
</svg>
