<?xml version="1.0" encoding="UTF-8"?>
<!DOCTYPE svg PUBLIC "-//W3C//DTD SVG 1.1//EN" "http://www.w3.org/Graphics/SVG/1.1/DTD/svg11.dtd">
<!-- Creator: CorelDRAW 2020 (64-Bit Оценочная версия) -->
<svg xmlns="http://www.w3.org/2000/svg" xml:space="preserve" width="207.834mm" height="93.2532mm" version="1.1" style="shape-rendering:geometricPrecision; text-rendering:geometricPrecision; image-rendering:optimizeQuality; fill-rule:evenodd; clip-rule:evenodd"
viewBox="0 0 22906.74 10278.03"
 xmlns:xlink="http://www.w3.org/1999/xlink"
 xmlns:xodm="http://www.corel.com/coreldraw/odm/2003">
 <defs>
  <style type="text/css">
   <![CDATA[
    .fil7 {fill:#EBECEC}
    .fil3 {fill:#D9DADA}
    .fil6 {fill:#C5C6C6}
    .fil2 {fill:#5B5B5B}
    .fil1 {fill:#FCFCFC}
    .fil4 {fill:#0A0B10}
    .fil0 {fill:#15161B}
    .fil5 {fill:#38393E}
   ]]>
  </style>
    <mask id="id0">
  <linearGradient id="id1" gradientUnits="userSpaceOnUse" x1="10583.41" y1="8666.58" x2="10650.89" y2="2730.99">
   <stop offset="0" style="stop-opacity:1; stop-color:white"/>
   <stop offset="1" style="stop-opacity:0; stop-color:white"/>
  </linearGradient>
     <rect style="fill:url(#id1)" x="13789.47" y="512.95" width="4605.84" height="3062.19"/>
    </mask>
    <mask id="id2">
  <linearGradient id="id3" gradientUnits="userSpaceOnUse" x1="10583.4" y1="8666.56" x2="10650.87" y2="2730.98">
   <stop offset="0" style="stop-opacity:1; stop-color:white"/>
   <stop offset="1" style="stop-opacity:0; stop-color:white"/>
  </linearGradient>
     <rect style="fill:url(#id3)" x="17481.88" y="5486.26" width="5435.88" height="3768.45"/>
    </mask>
    <mask id="id4">
  <linearGradient id="id5" gradientUnits="userSpaceOnUse" x1="10583.41" y1="8666.59" x2="10650.87" y2="2731.01">
   <stop offset="0" style="stop-opacity:1; stop-color:white"/>
   <stop offset="1" style="stop-opacity:0; stop-color:white"/>
  </linearGradient>
     <rect style="fill:url(#id5)" x="16862.63" y="8457.52" width="2727.14" height="1600.25"/>
    </mask>
    <mask id="id6">
  <linearGradient id="id7" gradientUnits="userSpaceOnUse" x1="10583.41" y1="8666.59" x2="10650.87" y2="2731.01">
   <stop offset="0" style="stop-opacity:1; stop-color:white"/>
   <stop offset="1" style="stop-opacity:0; stop-color:white"/>
  </linearGradient>
     <rect style="fill:url(#id7)" x="2357.02" y="6531.81" width="15057.91" height="3757.24"/>
    </mask>
    <mask id="id8">
  <linearGradient id="id9" gradientUnits="userSpaceOnUse" x1="10583.4" y1="8666.6" x2="10650.92" y2="2730.96">
   <stop offset="0" style="stop-opacity:1; stop-color:white"/>
   <stop offset="1" style="stop-opacity:0; stop-color:white"/>
  </linearGradient>
     <rect style="fill:url(#id9)" x="15852.61" y="4808.26" width="5666.93" height="2361.88"/>
    </mask>
    <mask id="id10">
  <linearGradient id="id11" gradientUnits="userSpaceOnUse" x1="10583.41" y1="8666.59" x2="10650.89" y2="2731">
   <stop offset="0" style="stop-opacity:1; stop-color:white"/>
   <stop offset="1" style="stop-opacity:0; stop-color:white"/>
  </linearGradient>
     <rect style="fill:url(#id11)" x="1151.93" y="-11.02" width="12272.71" height="7602.58"/>
    </mask>
    <mask id="id12">
  <linearGradient id="id13" gradientUnits="userSpaceOnUse" x1="10583.4" y1="8666.57" x2="10650.91" y2="2730.99">
   <stop offset="0" style="stop-opacity:1; stop-color:white"/>
   <stop offset="1" style="stop-opacity:0; stop-color:white"/>
  </linearGradient>
     <rect style="fill:url(#id13)" x="10167.14" y="1484.21" width="7725.99" height="5131.6"/>
    </mask>
    <mask id="id14">
  <linearGradient id="id15" gradientUnits="userSpaceOnUse" x1="10583.39" y1="8666.56" x2="10650.91" y2="2730.98">
   <stop offset="0" style="stop-opacity:1; stop-color:white"/>
   <stop offset="1" style="stop-opacity:0; stop-color:white"/>
  </linearGradient>
     <rect style="fill:url(#id15)" x="14940.47" y="7507.15" width="5666.94" height="2361.89"/>
    </mask>
    <mask id="id16">
  <linearGradient id="id17" gradientUnits="userSpaceOnUse" x1="10583.39" y1="8666.56" x2="10650.92" y2="2730.99">
   <stop offset="0" style="stop-opacity:1; stop-color:white"/>
   <stop offset="1" style="stop-opacity:0; stop-color:white"/>
  </linearGradient>
     <rect style="fill:url(#id17)" x="1320.4" y="1572.74" width="11508.94" height="5135.73"/>
    </mask>
    <mask id="id18">
  <linearGradient id="id19" gradientUnits="userSpaceOnUse" x1="10583.42" y1="8666.6" x2="10650.89" y2="2730.99">
   <stop offset="0" style="stop-opacity:1; stop-color:white"/>
   <stop offset="1" style="stop-opacity:0; stop-color:white"/>
  </linearGradient>
     <rect style="fill:url(#id19)" x="-11.02" y="4574.33" width="16519.04" height="5413.22"/>
    </mask>
 </defs>
 <g id="Слой_x0020_1">
  <metadata id="CorelCorpID_0Corel-Layer"/>
  <g id="_2484108874480">
   <path class="fil0" style="mask:url(#id0)" d="M15154.12 1681.46c19.23,0 38.26,1.01 57.05,2.9 50.58,-256.52 270.98,-449.68 535.13,-449.68 45.94,0 90.53,5.89 133.14,16.87 -1.58,-16.41 -2.39,-33.06 -2.39,-49.93 0,-264.67 199.76,-479.32 446.08,-479.32 43.9,0 86.32,6.82 126.39,19.53 -2.18,-11.65 -3.33,-23.72 -3.33,-36.06 0,-100.39 75.76,-181.8 169.19,-181.8 93.43,0 169.2,81.42 169.2,181.8 0,85.45 -54.89,157.11 -128.81,176.59 62.03,74.58 102.69,170.14 111.56,275.55 18.02,-3.84 36.65,-5.87 55.71,-5.87 157.12,0 284.56,136.93 284.56,305.78 0,35.6 -5.67,69.81 -16.1,101.58 92.1,-64.25 201.94,-101.59 319.89,-101.59 119.28,0 230.25,38.19 322.99,103.77 27.71,-23.73 62.82,-37.91 101,-37.91 89.63,0 162.3,78.1 162.3,174.4 0,50.4 -19.92,95.8 -51.74,127.63 30.49,71.02 49.08,149.12 53.01,231.39 138.63,88.92 231.51,251.69 231.51,437.76 0,47.47 -6.06,93.43 -17.37,137.05 104.15,86.94 171.19,222.79 171.19,375.46 0,262.38 -198.04,475.18 -442.22,475.18 -190.13,0 -352.27,-129.01 -414.74,-309.98 -51.15,25.77 -108.22,40.16 -168.43,40.16 -8.29,0 -16.53,-0.31 -24.7,-0.84 -88.89,114.88 -222.87,188.02 -372.73,188.02 -116.77,0 -223.92,-44.42 -307.58,-118.38 -57.15,12.59 -116.33,19.22 -176.94,19.22 -106.7,0 -208.94,-20.5 -303.52,-58.03 -107.45,192.54 -303.51,321.41 -527.59,321.41 -255.65,0 -474.83,-167.78 -567.52,-406.42 -66.53,206.57 -249.14,354.94 -463.96,354.94 -260.82,0 -474.15,-218.72 -489.88,-494.74 -10.43,1.21 -21,1.85 -31.72,1.85 -161.39,0 -292.26,-140.63 -292.26,-314.04 0,-173.41 130.87,-314.04 292.26,-314.04 17.31,0 34.27,1.62 50.75,4.73 -12.92,-37.52 -19.99,-78.09 -19.99,-120.42 0,-191.66 144.65,-347.09 323.02,-347.09l5.27 0.03c-13.07,-21.76 -20.65,-47.67 -20.65,-75.48 0,-77 58.11,-139.42 129.76,-139.42 71.65,0 129.75,62.43 129.75,139.42 0,56.1 -30.84,104.46 -75.31,126.57 6.16,4.08 12.19,8.37 18.06,12.85 110.07,-187.3 302.18,-311.39 520.71,-311.39zm-1045.99 -66.63c25.48,0 46.15,22.2 46.15,49.59 0,27.38 -20.67,49.59 -46.15,49.59 -25.48,0 -46.15,-22.21 -46.15,-49.59 0,-27.39 20.67,-49.59 46.15,-49.59zm1385.95 -727.25c94.29,0 170.77,82.18 170.77,183.51 0,101.32 -76.48,183.5 -170.77,183.5 -94.3,0 -170.78,-82.18 -170.78,-183.5 0,-101.33 76.48,-183.51 170.78,-183.51zm2190.34 115.71c46.72,0 84.6,40.7 84.6,90.9 0,50.2 -37.88,90.92 -84.6,90.92 -46.71,0 -84.6,-40.71 -84.6,-90.92 0,-50.19 37.89,-90.9 84.6,-90.9z"/>
   <path class="fil1" style="mask:url(#id2)" d="M18708.97 7019.43c-41.43,-80.19 -66,-168.96 -72.47,-259.59 -79.8,36.7 -174.84,30.08 -251.68,-26.61 -119.29,-88 -149.62,-263.33 -67.69,-391.55 81.89,-128.17 245.07,-160.76 364.34,-72.76 26.52,19.55 48.63,43.49 66.1,70.19 177.21,-261.85 509.05,-336.12 767.65,-177.43 9.3,-21 20.28,-41.5 32.9,-61.25 130.86,-204.83 391.62,-256.91 582.24,-116.29 162.88,120.15 221.94,342.2 154.02,532.11 28.19,11.29 55.53,26.35 81.45,45.48 153.51,113.25 203.47,328.18 125.21,503.16 55.14,1.1 110.43,7.92 164.97,20.78l6.45 -10.38c133.48,-208.93 399.46,-262.04 593.89,-118.61 93.92,69.28 153.99,171.79 175.96,282.76 103.65,0.58 208.22,33.38 300.05,101.13 56.21,41.46 102.72,92.46 139.06,149.53 51.32,7.86 101.84,28.18 147.46,61.83 158.26,116.75 198.48,349.28 89.87,519.27 -72.07,112.8 -191.59,169.74 -310.05,161.32 -148.17,151.93 -365.48,199.3 -556.42,122.88 -19.7,45.55 -43.05,89.93 -70.4,132.71 -264.38,413.8 -791.03,518.99 -1176.13,234.9 -238.49,-175.93 -366.75,-460 -367.12,-749.04 -84.03,-14.32 -166.38,-48.42 -241.15,-103.57 -140.38,-103.55 -226.05,-260.64 -249.63,-428.31 -92.54,139.48 -272.53,174.12 -404.53,76.74 -133.44,-98.43 -167.36,-294.56 -75.76,-437.94 14.92,-23.35 32.28,-43.9 51.42,-61.46zm-1065.24 -872.01c43.89,32.38 55.03,96.78 24.93,143.9 -30.13,47.15 -90.07,59.12 -133.96,26.75 -43.84,-32.34 -54.99,-96.75 -24.85,-143.91 30.1,-47.11 90.04,-59.08 133.88,-26.74zm5201.2 2123.03c64.82,47.81 81.3,143.08 36.8,212.72 -44.49,69.65 -133.15,87.36 -197.96,39.55 -64.82,-47.81 -81.3,-143.08 -36.8,-212.72 44.49,-69.65 133.15,-87.35 197.96,-39.55zm-1478.67 644.85c76.25,56.25 95.63,168.32 43.28,250.26 -52.34,81.93 -156.65,102.77 -232.9,46.51 -76.25,-56.24 -95.63,-168.32 -43.28,-250.25 52.34,-81.93 156.65,-102.77 232.9,-46.52zm803.8 -367.66c122,89.99 153.01,269.31 69.26,400.41 -83.75,131.09 -250.64,164.42 -372.63,74.43 -122,-89.99 -153.02,-269.32 -69.27,-400.41 83.75,-131.09 250.64,-164.42 372.64,-74.43zm-3836.53 -3026.65c57.18,42.19 71.72,126.24 32.46,187.7 -39.26,61.45 -117.48,77.07 -174.67,34.88 -57.18,-42.18 -71.73,-126.24 -32.47,-187.69 39.26,-61.46 117.49,-77.07 174.68,-34.89z"/>
   <path class="fil2" style="mask:url(#id4)" d="M17486.95 8468.54c135.9,0 261.48,43.95 363.16,118.26 90.48,-65.04 201.62,-103.46 321.8,-103.46 303.67,0 549.94,244.97 549.94,547.03 0,302 -246.27,546.98 -549.94,546.98 -93.15,0 -180.81,-23.08 -257.73,-63.77 -110.47,106.45 -261.17,172.09 -427.23,172.09 -338.66,0 -613.3,-272.52 -613.3,-608.59 0,-336.02 274.64,-608.54 613.3,-608.54zm1839.77 1108.81c139.15,0 252.03,105.12 252.03,234.71 0,129.58 -112.88,234.69 -252.03,234.69 -139.14,0 -252.02,-105.11 -252.02,-234.69 0,-129.58 112.88,-234.71 252.02,-234.71z"/>
   <path class="fil2" style="mask:url(#id6)" d="M2368.04 10085.85l513.2 -669.32 10693.3 -2873.69c38.22,99.66 68.85,203.74 90.9,311.39 181.95,-190.59 425.13,-307.08 692.31,-307.08 457.96,0 845.64,342.14 974.86,813.26 110.53,-56.16 235.28,-87.84 367.38,-87.84 451.69,0 818.09,369.69 819.73,826.07 500.46,74.69 884.18,500.65 884.18,1014.83 0,566.74 -466.29,1026.38 -1041.25,1026.38 -405.71,0 -757.32,-228.8 -929.14,-562.6 -33.6,6.46 -68.03,9.89 -103.27,9.89 -38.43,0 -76.1,-3.98 -112.59,-11.76 -130.61,164.52 -337.57,270.86 -570.59,270.86 -181.58,0 -347.34,-64.6 -473.53,-170.93 -246.17,264.79 -594.68,430.04 -981.18,430.04 -69.47,0 -137.61,-5.41 -204.2,-15.73 -177.32,118.81 -392.14,188.43 -623.67,188.43 -379.45,0 -714.2,-186.83 -912.17,-471.05 -225.61,175.45 -515.61,281.07 -831.92,281.07 -394.4,0 -747.91,-164.08 -986.68,-423.24 -219.91,115.94 -469.17,181.42 -733.31,181.42 -214.62,0 -419.48,-43.34 -606.72,-121.68 -189.8,152.39 -424.77,242.6 -679.26,242.6 -146.59,0 -286.71,-29.92 -415.57,-84.47 -344.57,202.62 -745.97,318.94 -1174.53,318.94 -404.53,0 -784.86,-103.57 -1116.02,-285.6 -113.45,185.3 -327.61,310.18 -573.1,310.18 -267.65,0 -498.05,-148.52 -601.27,-361.75 -83.95,15.35 -170.64,23.35 -259.22,23.35 -82.27,0 -162.93,-6.9 -241.24,-20.2 -95.3,181.32 -300.27,306.81 -537.86,306.81 -121.06,0 -233.64,-32.64 -327.56,-88.56zm14786.72 -2640.53c39.92,0 72.29,27.06 72.29,60.45 0,33.41 -32.37,60.46 -72.29,60.46 -39.98,0 -72.35,-27.06 -72.35,-60.46 0,-33.4 32.37,-60.45 72.35,-60.45zm-233.12 397.24c88.78,0 160.77,69.62 160.77,155.48 0,85.85 -71.99,155.47 -160.77,155.47 -88.74,0 -160.73,-69.62 -160.73,-155.47 0,-85.86 71.99,-155.48 160.73,-155.48zm-474.21 -1070.87c190.83,0 345.65,154.7 345.65,345.46 0,190.75 -154.82,345.45 -345.65,345.45 -190.83,0 -345.59,-154.7 -345.59,-345.45 0,-190.76 154.77,-345.46 345.59,-345.46z"/>
   <path class="fil3" style="mask:url(#id8)" d="M17297.44 6537.22c-76.4,-40.91 -143.4,-99.16 -196.48,-169.94 -46.45,78.79 -128.3,131.14 -221.51,131.14 -144.68,0 -262.04,-126.11 -262.04,-281.64 0,-155.47 117.36,-281.58 262.04,-281.58 32.17,0 63,6.29 91.47,17.67 8.17,-323.64 242.62,-586.67 539.4,-613.11 -3.39,-22.97 -5.14,-46.54 -5.14,-70.51 0,-248.45 187.54,-449.97 418.76,-449.97 197.56,0 363.22,147.13 407.25,345.01 29.19,-7.84 59.66,-12.04 91.1,-12.04 186.21,0 340.61,146.81 368.26,338.66 46.04,-32.62 95.2,-60.62 146.95,-83.2l-0.15 -12.48c0,-253.42 191.29,-458.97 427.13,-458.97 113.91,0 217.45,47.98 294,126.11 85.76,-62.56 189.24,-99.11 300.64,-99.11 68.18,0 133.38,13.74 193.4,38.7 46.46,-24.73 98.81,-38.7 154.15,-38.7 191.96,0 347.6,167.23 347.6,373.45 0,136.81 -68.54,256.45 -170.64,321.56 -42.14,215.37 -196.33,386.58 -394,439.7 7.76,49.52 11.87,100.32 11.87,152.22 0,501.93 -378.78,908.93 -845.9,908.93 -289.27,0 -544.65,-156.19 -697.2,-394.26 -76.81,39.3 -162.67,61.28 -253.35,61.28 -170.28,0 -323.66,-77.4 -431.41,-201.3 -2.82,171.27 -132.98,309.29 -293.08,309.29 -161.85,0 -293.13,-141.07 -293.13,-314.98 0,-28.33 3.49,-55.81 10.02,-81.93zm-1337.52 -71.06c53.23,0 96.34,46.32 96.34,103.47 0,57.19 -43.11,103.52 -96.34,103.52 -53.18,0 -96.29,-46.32 -96.29,-103.52 0,-57.15 43.11,-103.47 96.29,-103.47zm5406.23 -1412.91c78.62,0 142.38,68.52 142.38,152.99 0,84.47 -63.76,152.99 -142.38,152.99 -78.62,0 -142.38,-68.52 -142.38,-152.99 0,-84.47 63.76,-152.99 142.38,-152.99zm-879.39 1430.91c92.48,0 167.51,80.61 167.51,179.99 0,99.37 -75.02,179.98 -167.51,179.98 -92.48,0 -167.51,-80.61 -167.51,-179.98 0,-99.38 75.02,-179.99 167.51,-179.99zm469.01 -791.95c147.98,0 268,128.98 268,287.98 0,159.01 -120.03,287.98 -268,287.98 -147.99,0 -268.01,-128.98 -268.01,-287.98 0,-159.01 120.03,-287.98 268.01,-287.98zm-4757.13 -161.99c69.37,0 125.64,60.45 125.64,134.99 0,74.53 -56.27,134.99 -125.64,134.99 -69.36,0 -125.62,-60.46 -125.62,-134.99 0,-74.54 56.27,-134.99 125.62,-134.99z"/>
   <path class="fil4" style="mask:url(#id10)" d="M4780.63 2548.96c51.4,0 102.26,2.68 152.47,7.75 135.17,-685.59 724.21,-1201.82 1430.2,-1201.82 122.75,0 241.96,15.72 355.84,45.09 -4.23,-43.88 -6.41,-88.38 -6.41,-133.44 0,-641.71 439.38,-1173.37 1012.44,-1266.54 515.07,131.97 991.55,220.63 1293.16,270.78 -59.22,68.94 -136.82,119.42 -224.4,142.49 165.81,199.33 274.48,454.73 298.18,736.46 48.18,-10.26 97.95,-15.71 148.89,-15.71 419.95,0 760.5,365.96 760.5,817.23 0,95.16 -15.13,186.56 -43.01,271.49 246.14,-171.71 539.69,-271.51 854.93,-271.51 318.79,0 615.39,102.04 863.19,277.34 74.09,-63.42 167.93,-101.34 269.98,-101.34 239.54,0 433.77,208.71 433.77,466.07 0,134.73 -53.21,256.05 -138.26,341.13 81.47,189.79 131.17,398.55 141.66,618.4 370.53,237.65 618.75,672.67 618.75,1169.94 0,126.88 -16.22,249.71 -46.45,366.29 278.35,232.36 457.54,595.46 457.54,1003.45 0,701.25 -529.27,1269.99 -1181.88,1269.99 -508.15,0 -941.48,-344.81 -1108.46,-828.47 -136.69,68.86 -289.22,107.34 -450.15,107.34 -22.18,0 -44.19,-0.84 -66.01,-2.25 -237.57,307.02 -595.64,502.51 -996.16,502.51 -312.1,0 -598.43,-118.71 -822.03,-316.4 -152.75,33.64 -310.93,51.36 -472.92,51.36 -285.15,0 -558.41,-54.79 -811.19,-155.07 -287.17,514.57 -811.17,859.03 -1410.04,859.03 -683.25,0 -1269.03,-448.45 -1516.77,-1086.24 -177.8,552.06 -665.84,948.61 -1239.96,948.61 -697.05,0 -1267.24,-584.55 -1309.24,-1322.24 -27.87,3.26 -56.13,4.97 -84.8,4.97 -431.31,0 -781.07,-375.83 -781.07,-839.3 0,-463.47 349.76,-839.3 781.07,-839.3 46.29,0 91.61,4.31 135.65,12.63 -34.52,-100.29 -53.43,-208.71 -53.43,-321.84 0,-512.24 386.61,-927.66 863.31,-927.66l14.07 0.1c-34.94,-58.14 -55.19,-127.38 -55.19,-201.72 0,-205.77 155.27,-372.62 346.77,-372.62 191.5,0 346.77,166.85 346.77,372.62 0,149.93 -82.43,279.18 -201.29,338.29 16.48,10.89 32.6,22.34 48.3,34.34 294.17,-500.57 807.58,-832.22 1391.63,-832.22zm-2795.5 -178.09c68.12,0 123.33,59.33 123.33,132.52 0,73.17 -55.21,132.54 -123.33,132.54 -68.1,0 -123.31,-59.36 -123.31,-132.54 0,-73.19 55.21,-132.52 123.31,-132.52zm3704.06 -1943.63c252.03,0 456.42,219.62 456.42,490.43 0,270.8 -204.39,490.43 -456.42,490.43 -252.02,0 -456.41,-219.63 -456.41,-490.43 0,-270.81 204.39,-490.43 456.41,-490.43zm5853.9 309.21c124.89,0 226.14,108.79 226.14,242.94 0,134.17 -101.26,242.97 -226.14,242.97 -124.82,0 -226.08,-108.81 -226.08,-242.97 0,-134.14 101.26,-242.94 226.08,-242.94z"/>
   <path class="fil5" style="mask:url(#id12)" d="M15607.11 3440.63c-32.34,0 -64.3,1.7 -95.9,4.88 -84.99,-431.14 -455.41,-755.78 -899.38,-755.78 -77.21,0 -152.15,9.88 -223.78,28.35 2.67,-27.59 4.02,-55.58 4.02,-83.91 0,-444.84 -335.72,-805.59 -749.71,-805.59 -73.79,0 -145.07,11.46 -212.41,32.82 3.66,-19.57 5.6,-39.85 5.6,-60.6 0,-168.73 -127.36,-305.57 -284.38,-305.57 -157.03,0 -284.37,136.84 -284.37,305.57 0,143.6 92.25,264.06 216.5,296.77 -104.25,125.36 -172.6,285.98 -187.51,463.14 -30.29,-6.47 -61.59,-9.88 -93.63,-9.88 -264.08,0 -478.25,230.13 -478.25,513.92 0,59.84 9.52,117.33 27.05,170.73 -154.78,-107.98 -339.39,-170.75 -537.62,-170.75 -200.47,0 -386.99,64.18 -542.84,174.41 -46.58,-39.88 -105.6,-63.72 -169.77,-63.72 -150.63,0 -272.77,131.25 -272.77,293.09 0,84.72 33.46,161.03 86.94,214.53 -51.23,119.35 -82.49,250.62 -89.09,388.89 -233.01,149.44 -389.11,423.01 -389.11,735.73 0,79.8 10.2,157.03 29.21,230.34 -175.06,146.12 -287.73,374.46 -287.73,631.03 0,441 332.84,798.64 743.24,798.64 319.55,0 592.06,-216.83 697.06,-520.99 85.96,43.32 181.87,67.51 283.07,67.51 13.94,0 27.79,-0.53 41.52,-1.42 149.39,193.08 374.57,316.01 626.45,316.01 196.26,0 376.32,-74.65 516.94,-198.96 96.05,21.15 195.52,32.29 297.4,32.29 179.32,0 351.16,-34.45 510.11,-97.51 180.59,323.57 510.13,540.19 886.72,540.19 429.67,0 798.04,-282.01 953.83,-683.08 111.8,347.17 418.72,596.54 779.76,596.54 438.35,0 796.91,-367.6 823.33,-831.49 17.54,2.03 35.3,3.11 53.32,3.11 271.24,0 491.19,-236.34 491.19,-527.79 0,-291.47 -219.95,-527.8 -491.19,-527.8 -29.11,0 -57.6,2.71 -85.31,7.95 21.71,-63.07 33.6,-131.25 33.6,-202.4 0,-322.12 -243.13,-583.35 -542.89,-583.35l-8.86 0.06c21.97,-36.57 34.71,-80.12 34.71,-126.86 0,-129.39 -97.65,-234.33 -218.07,-234.33 -120.42,0 -218.07,104.94 -218.07,234.33 0,94.29 51.83,175.57 126.57,212.74 -10.35,6.84 -20.49,14.05 -30.36,21.59 -184.99,-314.78 -507.86,-523.35 -875.13,-523.35zm1757.97 -111.98c-42.83,0 -77.56,37.31 -77.56,83.33 0,46.03 34.73,83.33 77.56,83.33 42.83,0 77.55,-37.31 77.55,-83.33 0,-46.03 -34.72,-83.33 -77.55,-83.33zm-2329.35 -1222.28c-158.48,0 -287.01,138.11 -287.01,308.41 0,170.3 128.53,308.41 287.01,308.41 158.49,0 287.01,-138.11 287.01,-308.41 0,-170.3 -128.52,-308.41 -287.01,-308.41zm-3681.28 194.45c-78.52,0 -142.2,68.42 -142.2,152.77 0,84.38 63.68,152.79 142.2,152.79 78.51,0 142.18,-68.41 142.18,-152.79 0,-84.35 -63.67,-152.77 -142.18,-152.77z"/>
   <path class="fil1" style="mask:url(#id14)" d="M16385.3 9236.11c-76.4,-40.9 -143.4,-99.15 -196.48,-169.93 -46.45,78.78 -128.29,131.12 -221.5,131.12 -144.69,0 -262.05,-126.1 -262.05,-281.64 0,-155.47 117.36,-281.57 262.05,-281.57 32.16,0 62.99,6.29 91.46,17.67 8.17,-323.65 242.63,-586.68 539.41,-613.12 -3.39,-22.97 -5.15,-46.54 -5.15,-70.51 0,-248.45 187.54,-449.97 418.77,-449.97 197.56,0 363.22,147.14 407.25,345.01 29.19,-7.84 59.65,-12.04 91.09,-12.04 186.21,0 340.61,146.81 368.26,338.66 46.04,-32.62 95.22,-60.62 146.95,-83.2l-0.15 -12.48c0,-253.42 191.29,-458.96 427.13,-458.96 113.92,0 217.46,47.98 294.01,126.1 85.75,-62.56 189.24,-99.11 300.63,-99.11 68.19,0 133.39,13.74 193.41,38.71 46.45,-24.73 98.81,-38.71 154.14,-38.71 191.96,0 347.6,167.23 347.6,373.45 0,136.81 -68.54,256.46 -170.64,321.56 -42.14,215.37 -196.33,386.58 -393.99,439.7 7.76,49.52 11.87,100.32 11.87,152.22 0,501.93 -378.79,908.94 -845.9,908.94 -289.27,0 -544.65,-156.2 -697.2,-394.27 -76.82,39.31 -162.68,61.28 -253.37,61.28 -170.27,0 -323.65,-77.4 -431.4,-201.3 -2.83,171.27 -132.98,309.3 -293.09,309.3 -161.85,0 -293.13,-141.07 -293.13,-314.99 0,-28.31 3.49,-55.81 10.02,-81.93zm-1337.51 -71.06c53.23,0 96.34,46.32 96.34,103.47 0,57.2 -43.11,103.52 -96.34,103.52 -53.18,0 -96.3,-46.31 -96.3,-103.52 0,-57.15 43.12,-103.47 96.3,-103.47zm5406.23 -1412.91c78.61,0 142.38,68.52 142.38,152.99 0,84.48 -63.77,152.99 -142.38,152.99 -78.62,0 -142.38,-68.51 -142.38,-152.99 0,-84.47 63.76,-152.99 142.38,-152.99zm-879.41 1430.91c92.49,0 167.51,80.61 167.51,179.99 0,99.38 -75.01,179.98 -167.51,179.98 -92.48,0 -167.5,-80.6 -167.5,-179.98 0,-99.38 75.01,-179.99 167.5,-179.99zm469.01 -791.95c147.98,0 268.01,128.98 268.01,287.98 0,159.01 -120.04,287.98 -268.01,287.98 -147.98,0 -268,-128.98 -268,-287.98 0,-159.01 120.03,-287.98 268,-287.98zm-4757.12 -161.99c69.36,0 125.62,60.45 125.62,134.99 0,74.54 -56.27,134.99 -125.62,134.99 -69.37,0 -125.62,-60.45 -125.62,-134.99 0,-74.54 56.25,-134.99 125.62,-134.99z"/>
   <path class="fil6" style="mask:url(#id16)" d="M4191.74 2172.89c32.39,0 64.58,1 96.53,2.81 51.31,-335.66 322.57,-591.94 649.48,-591.94 363.48,0 658.28,316.77 658.28,707.35 0,166.99 -53.92,320.41 -143.98,441.43 305.83,330.87 494.16,781.64 494.16,1278.46 0,1014.99 -785.66,1838.1 -1754.47,1838.1 -498.21,0 -947.91,-217.71 -1267.32,-567.17 -113.19,46.58 -236.9,72.3 -366.55,72.3 -111.43,0 -218.47,-18.98 -318.18,-53.87 -6.88,263.02 -207.56,474.07 -454.03,474.07 -250.82,0 -454.23,-218.58 -454.23,-488.08 0,-232.84 151.83,-427.6 354.89,-476.32 -66.68,-133.91 -104.34,-285.3 -104.34,-445.54 0,-408.53 244.22,-759.24 592.57,-910.32 -0.28,-7.47 -0.44,-15 -0.44,-22.57 0,-330.69 249.57,-598.86 557.33,-598.86 36.05,0 71.3,3.68 105.42,10.72 321.8,-409.39 809.23,-670.56 1354.89,-670.56zm8382.24 2307.85c134.93,0 244.34,117.57 244.34,262.55 0,144.98 -109.41,262.55 -244.34,262.55 -47.68,0 -92.19,-14.7 -129.77,-40.07 -53.96,223.41 -242.93,388.46 -467.71,388.46 -260.11,0 -472.26,-220.99 -482.71,-497.77l-0.41 0c-212.63,0 -394.51,-141.83 -468.11,-342.2 -81.53,23.49 -167.15,36.02 -255.53,36.02 -110.9,0 -217.5,-19.67 -316.97,-55.99 7.33,57.76 11.19,116.65 11.19,176.54 0,623.99 -410.61,1145.1 -957.27,1268.38 -213.35,449.95 -648.55,758.24 -1150.66,758.24 -712.66,0 -1290.58,-621 -1290.58,-1386.82 0,-62.26 3.9,-123.57 11.31,-183.63 -490.37,-168.85 -845.45,-662.73 -845.45,-1245.59 0,-425.95 189.65,-804.38 483.08,-1043.2 -28.49,-66.15 -44.46,-139.88 -44.46,-217.58 0,-286.29 216.05,-518.44 482.47,-518.44 256.42,0 466.15,215.08 481.51,486.44 486.51,79.95 878.25,469.53 995.63,975.65 183,-120.2 398.09,-189.55 628.22,-189.55 188.77,0 367.43,46.65 526.5,129.76l-0.17 -13.28c0,-584.85 441.36,-1059.09 985.64,-1059.09 544.25,0 985.6,474.24 985.6,1059.09 0,116.8 -17.67,229.22 -50.18,334.29 171.95,85.96 291.26,273.23 291.26,490.42l0 0.43c167.93,7.35 313.75,106.8 394.96,252.6 44.79,-54.09 109.97,-88.21 182.61,-88.21z"/>
   <path class="fil7" style="mask:url(#id18)" d="M5246.43 4989.18c308.69,12.25 601.14,84.33 866.74,204.47 241.33,-381.88 651.42,-625.46 1108.29,-607.35 709.64,28.14 1263.6,677.04 1237.09,1449.08 -1.29,37.69 -3.99,74.89 -7.98,111.72 417.46,117.2 765.53,401.72 974.62,776.41 21.23,-22.35 43.54,-43.65 66.76,-63.76 36.61,-1023.16 819.79,-1822.53 1750.24,-1785.65 803.54,31.86 1454.68,676.93 1595.76,1511.34 188.38,-183.23 435.4,-290.05 702.4,-279.46 457.64,18.14 833.32,375.42 946.32,851.34 112.37,-51.71 238.12,-78.44 370.12,-73.21 451.38,17.89 804.86,401.8 790.85,857.96 497.54,94.46 866.39,535.33 848.74,1049.17 -19.44,566.37 -501.19,1007.22 -1075.76,984.44 -405.43,-16.07 -748.92,-258.64 -909.2,-599.06 -33.77,5.15 -68.32,7.21 -103.52,5.81 -38.45,-1.52 -75.93,-7.01 -112.1,-16.2 -136.16,159.25 -346.63,257.29 -579.5,248.05 -181.48,-7.2 -344.93,-78.3 -467.37,-189.59 -255.05,254.88 -609.04,406.19 -995.29,390.88 -69.39,-2.76 -137.3,-10.85 -203.5,-23.77 -181.25,111.72 -398.31,172.75 -629.7,163.58 -379.21,-15.03 -707.3,-214.99 -895.4,-506.87 -231.5,166.39 -524.93,260.44 -841,247.91 -394.16,-15.63 -741.75,-193.61 -971.51,-462.05 -223.73,107.16 -475.02,162.72 -739.01,152.25 -214.5,-8.5 -417.71,-59.89 -602.11,-145.62 -194.92,144.78 -432.83,225.58 -687.13,215.51 -146.52,-5.81 -285.53,-41.25 -412.4,-100.87 -351.31,188.86 -756.43,289.21 -1184.72,272.22 -404.25,-16.03 -780.74,-134.59 -1105.45,-329.65 -119.68,180.68 -338,297.02 -583.33,287.3 -267.47,-10.6 -492.63,-168.17 -588.43,-385.35 -84.45,12.02 -171.36,16.59 -259.89,13.08 -82.21,-3.26 -162.58,-13.38 -240.38,-29.74 -101.42,177.39 -310.6,294.67 -548.01,285.26 -302.03,-11.97 -544.51,-224.81 -573.36,-488.96 -46.03,9.17 -93.6,13.13 -142.14,11.21 -53.51,-2.13 -105.29,-11.3 -154.74,-26.54 -75.02,150.94 -245.41,252.65 -439.88,244.94 -257.26,-10.2 -459.34,-207.84 -451.33,-441.36 7.3,-212.59 186.14,-381.71 412.24,-402.61 -6.45,-46.46 -9.13,-94.29 -7.45,-143.08 14.07,-409.83 324.03,-730.39 692.13,-715.8 55.39,2.19 108.99,11.95 160.01,28.14 72.28,-267.33 228.53,-500.26 439.19,-672.56 -22.23,-65.63 -33.46,-138.33 -30.84,-214.55 9.49,-276.43 197.01,-493.44 418.78,-484.65 187.15,7.43 338.94,173.26 376.06,390.98 59.43,-5.08 119.92,-6.56 181.16,-4.13 107.73,4.27 212.14,20.29 312,46.74 305.96,-967.24 1228.05,-1649.58 2292.92,-1607.36zm11058.19 2325.18c39.92,1.58 71.37,29.9 70.22,63.28 -1.15,33.38 -34.44,59.13 -74.36,57.56 -39.92,-1.59 -71.37,-29.9 -70.22,-63.29 1.15,-33.37 34.44,-59.13 74.36,-57.54zm-246.55 387.76c88.7,3.52 158.25,75.93 155.31,161.72 -2.94,85.79 -77.26,152.5 -165.97,148.98 -88.7,-3.52 -158.25,-75.92 -155.29,-161.72 2.94,-85.79 77.26,-152.5 165.96,-148.98zm-437.13 -1088.96c190.7,7.56 340.06,168.28 333.51,358.91 -6.55,190.63 -166.53,339.09 -357.22,331.53 -190.7,-7.56 -340.06,-168.28 -333.51,-358.91 6.54,-190.64 166.51,-339.09 357.22,-331.53zm-14324.96 -446.88c79.85,3.16 142.59,63.73 140.13,135.18 -2.45,71.45 -69.17,126.89 -149.01,123.73 -79.85,-3.16 -142.59,-63.74 -140.13,-135.19 2.45,-71.45 69.17,-126.89 149.01,-123.72z"/>
  </g>
 </g>
</svg>
