<svg width="404" height="924" viewBox="0 0 404 924" fill="none" xmlns="http://www.w3.org/2000/svg">
<g opacity="0.5">
<path d="M316.838 225.709L302.709 203.987L282.046 223.59C281.693 223.413 275.512 220.764 275.159 220.588L258.911 183.5L262.443 179.438L278.691 216.702C279.221 217.232 279.927 217.585 280.634 217.762L305.358 194.627L323.019 225.533L357.104 233.48L323.372 230.478C320.547 229.948 318.074 228.182 316.838 225.709Z" fill="#F8C300"/>
<path d="M231.537 209.815L196.569 192.507L167.782 181.205L170.608 176.613L197.982 186.679L230.301 203.81L282.399 157.539L291.76 173.964L395.781 138.113L290.524 181.734L280.457 166.37L231.537 209.815Z" fill="#F8C300"/>
<path d="M270.037 441.522L266.858 460.949L252.906 465.187L203.81 423.861L185.443 453.178L160.541 416.62L132.284 418.74L125.75 406.201L160.541 408.497L185.09 443.288L203.28 410.792L253.789 459.359L260.854 457.24L262.796 429.689L326.021 472.958L270.037 441.522Z" fill="#F8C300"/>
<path d="M94.3141 855.663L93.7844 850.541L117.096 848.422L128.399 825.11L203.81 728.683L194.803 692.479L362.579 660.513L338.031 640.91L327.434 603.293L301.826 591.284L221.647 492.914L146.766 443.641L76.477 345.095L123.101 233.657L146.413 187.032L138.819 174.14L158.599 176.083L97.3166 152.241L93.7844 117.273L68 71.7087L71.8852 68L114.977 113.035L113.211 147.649L186.679 184.03L148.709 180.498L152.418 186.856L127.869 236.129L83.0115 344.035L149.768 439.226L225.886 489.735L305.888 587.752L332.732 598.878L342.269 637.555L382.005 665.458L202.397 697.071L212.464 730.979L133.167 827.406L120.628 853.544L94.3141 855.663Z" fill="#F8C300"/>
<path d="M97.3165 152.241L118.686 160.542H139.172L113.211 147.649L114.977 113.035L71.8852 68L68 71.7087L93.7844 117.273L97.3165 152.241Z" fill="#F8C300"/>
</g>
<defs>
</defs>
</svg>
