<?xml version="1.0" encoding="UTF-8"?>
<!DOCTYPE svg PUBLIC "-//W3C//DTD SVG 1.1//EN" "http://www.w3.org/Graphics/SVG/1.1/DTD/svg11.dtd">
<!-- Creator: CorelDRAW 2020 (64-Bit Оценочная версия) -->
<svg xmlns="http://www.w3.org/2000/svg" xml:space="preserve" width="42.7099mm" height="38.8002mm" version="1.1" style="shape-rendering:geometricPrecision; text-rendering:geometricPrecision; image-rendering:optimizeQuality; fill-rule:evenodd; clip-rule:evenodd"
viewBox="0 0 986.42 896.12"
 xmlns:xlink="http://www.w3.org/1999/xlink"
 xmlns:xodm="http://www.corel.com/coreldraw/odm/2003">
 <defs>
  <style type="text/css">
   <![CDATA[
    .str1 {stroke:#FE9566;stroke-width:5.77;stroke-miterlimit:22.9256}
    .str0 {stroke:#FEFEFE;stroke-width:4.62;stroke-miterlimit:22.9256}
    .str2 {stroke:#57A7B3;stroke-width:4.62;stroke-miterlimit:22.9256}
    .str3 {stroke:#2D767E;stroke-width:4.62;stroke-miterlimit:22.9256}
    .fil24 {fill:none}
    .fil9 {fill:#FEFEFE}
    .fil15 {fill:#EBECEC}
    .fil27 {fill:#D9DADA}
    .fil14 {fill:#C5C6C6}
    .fil1 {fill:#9D9E9E}
    .fil3 {fill:#727271}
    .fil2 {fill:#5B5B5B}
    .fil11 {fill:#2B2A29}
    .fil23 {fill:#FECC00}
    .fil0 {fill:#FCFCFC}
    .fil22 {fill:#FBF9F1}
    .fil25 {fill:#FAFAFA}
    .fil6 {fill:#96A7B1}
    .fil7 {fill:#748187}
    .fil5 {fill:#D4E4EC}
    .fil4 {fill:#C7E0EB}
    .fil18 {fill:#57A7B3}
    .fil19 {fill:#2D767E}
    .fil8 {fill:#FAF2B9}
    .fil17 {fill:#FE9566}
    .fil16 {fill:#FFB882}
    .fil21 {fill:#FFFBDB}
    .fil26 {fill:#57A7B3;fill-rule:nonzero}
    .fil29 {fill:#30767E;fill-rule:nonzero}
    .fil28 {fill:#2D767E;fill-rule:nonzero}
    .fil10 {fill:#2B2A29;fill-opacity:0.109804}
    .fil13 {fill:#2B2A29;fill-opacity:0.219608}
    .fil12 {fill:#2B2A29;fill-opacity:0.239216}
    .fil20 {fill:#2D767E;fill-opacity:0.501961}
   ]]>
  </style>
     <mask id="id0">
  <linearGradient id="id1" gradientUnits="userSpaceOnUse" x1="595.28" y1="376.79" x2="628.64" y2="557.66">
   <stop offset="0" style="stop-opacity:1; stop-color:white"/>
   <stop offset="1" style="stop-opacity:0; stop-color:white"/>
  </linearGradient>
      <rect style="fill:url(#id1)" x="687.41" y="555.35" width="78.3" height="12.56"/>
     </mask>
     <mask id="id2">
  <linearGradient id="id3" gradientUnits="userSpaceOnUse" x1="595.28" y1="376.79" x2="628.64" y2="557.66">
   <stop offset="0" style="stop-opacity:1; stop-color:white"/>
   <stop offset="1" style="stop-opacity:0; stop-color:white"/>
  </linearGradient>
      <rect style="fill:url(#id3)" x="543.73" y="536.16" width="227.66" height="23.64"/>
     </mask>
     <mask id="id4">
  <linearGradient id="id5" gradientUnits="userSpaceOnUse" x1="595.28" y1="376.79" x2="628.64" y2="557.66">
   <stop offset="0" style="stop-opacity:1; stop-color:white"/>
   <stop offset="1" style="stop-opacity:0; stop-color:white"/>
  </linearGradient>
      <rect style="fill:url(#id5)" x="440" y="522.67" width="312.5" height="18.36"/>
     </mask>
     <mask id="id6">
  <linearGradient id="id7" gradientUnits="userSpaceOnUse" x1="595.28" y1="376.79" x2="628.64" y2="557.66">
   <stop offset="0" style="stop-opacity:1; stop-color:white"/>
   <stop offset="1" style="stop-opacity:0; stop-color:white"/>
  </linearGradient>
      <rect style="fill:url(#id7)" x="368.19" y="513.42" width="362.19" height="13.09"/>
     </mask>
     <mask id="id8">
  <linearGradient id="id9" gradientUnits="userSpaceOnUse" x1="595.28" y1="376.79" x2="628.64" y2="557.66">
   <stop offset="0" style="stop-opacity:1; stop-color:white"/>
   <stop offset="1" style="stop-opacity:0; stop-color:white"/>
  </linearGradient>
      <rect style="fill:url(#id9)" x="357.19" y="504.28" width="363.28" height="12.66"/>
     </mask>
     <mask id="id10">
  <linearGradient id="id11" gradientUnits="userSpaceOnUse" x1="595.28" y1="376.79" x2="628.64" y2="557.66">
   <stop offset="0" style="stop-opacity:1; stop-color:white"/>
   <stop offset="1" style="stop-opacity:0; stop-color:white"/>
  </linearGradient>
      <rect style="fill:url(#id11)" x="360.69" y="495.34" width="89.69" height="11.47"/>
     </mask>
     <mask id="id12">
  <linearGradient id="id13" gradientUnits="userSpaceOnUse" x1="595.28" y1="376.79" x2="628.64" y2="557.66">
   <stop offset="0" style="stop-opacity:1; stop-color:white"/>
   <stop offset="1" style="stop-opacity:0; stop-color:white"/>
  </linearGradient>
      <rect style="fill:url(#id13)" x="635.1" y="496.35" width="88.54" height="10.19"/>
     </mask>
     <mask id="id14">
  <linearGradient id="id15" gradientUnits="userSpaceOnUse" x1="595.28" y1="376.79" x2="628.64" y2="557.66">
   <stop offset="0" style="stop-opacity:1; stop-color:white"/>
   <stop offset="1" style="stop-opacity:0; stop-color:white"/>
  </linearGradient>
      <rect style="fill:url(#id15)" x="502.92" y="495.86" width="89.69" height="11.47"/>
     </mask>
    <mask id="id16">
  <linearGradient id="id17" gradientUnits="userSpaceOnUse" x1="236.08" y1="147.21" x2="251.23" y2="154.88">
   <stop offset="0" style="stop-opacity:1; stop-color:white"/>
   <stop offset="1" style="stop-opacity:0; stop-color:white"/>
  </linearGradient>
     <rect style="fill:url(#id17)" x="226.65" y="113.45" width="43.58" height="72.99"/>
    </mask>
    <mask id="id18">
  <linearGradient id="id19" gradientUnits="userSpaceOnUse" x1="200.53" y1="237.57" x2="226.16" y2="263.38">
   <stop offset="0" style="stop-opacity:1; stop-color:white"/>
   <stop offset="1" style="stop-opacity:0; stop-color:white"/>
  </linearGradient>
     <rect style="fill:url(#id19)" x="182.13" y="237.04" width="64.3" height="37.44"/>
    </mask>
 </defs>
 <g id="Слой_x0020_1">
  <metadata id="CorelCorpID_0Corel-Layer"/>
  <g id="_2124683210096">
   <path class="fil0" d="M797.73 589.95c-1.86,-3.35 -2.97,-7.07 -3.26,-10.86 -3.59,1.54 -7.86,1.26 -11.31,-1.11 -5.36,-3.68 -6.73,-11.01 -3.04,-16.38 3.68,-5.36 11.02,-6.72 16.38,-3.04 1.19,0.82 2.18,1.82 2.97,2.94 7.97,-10.95 22.88,-14.06 34.51,-7.42 0.42,-0.88 0.91,-1.74 1.48,-2.56 5.88,-8.57 17.6,-10.75 26.17,-4.87 7.32,5.03 9.98,14.31 6.92,22.26 1.27,0.47 2.5,1.1 3.66,1.9 6.9,4.74 9.15,13.73 5.63,21.05 2.48,0.05 4.96,0.33 7.42,0.87l0.29 -0.43c6,-8.74 17.96,-10.96 26.7,-4.96 4.22,2.9 6.92,7.19 7.91,11.83 4.66,0.02 9.36,1.39 13.49,4.23 2.53,1.73 4.62,3.87 6.25,6.26 2.31,0.33 4.58,1.18 6.63,2.59 7.11,4.88 8.92,14.61 4.04,21.72 -3.24,4.72 -8.61,7.1 -13.94,6.75 -6.66,6.36 -16.43,8.34 -25.01,5.14 -0.88,1.91 -1.94,3.76 -3.16,5.55 -11.88,17.31 -35.56,21.71 -52.87,9.83 -10.72,-7.36 -16.49,-19.24 -16.5,-31.33 -3.78,-0.6 -7.48,-2.03 -10.84,-4.33 -6.31,-4.33 -10.16,-10.9 -11.22,-17.92 -4.16,5.83 -12.25,7.28 -18.18,3.21 -6,-4.12 -7.52,-12.32 -3.4,-18.32 0.67,-0.98 1.45,-1.84 2.31,-2.57zm-47.88 -36.48c1.97,1.35 2.47,4.05 1.12,6.02 -1.35,1.97 -4.05,2.47 -6.02,1.12 -1.97,-1.35 -2.47,-4.05 -1.12,-6.02 1.35,-1.97 4.05,-2.47 6.02,-1.12zm233.79 88.81c2.91,2 3.65,5.98 1.65,8.9 -2,2.91 -5.98,3.65 -8.9,1.65 -2.91,-2 -3.66,-5.99 -1.66,-8.9 2,-2.91 5.99,-3.65 8.9,-1.65zm-66.47 26.98c3.43,2.35 4.3,7.04 1.94,10.47 -2.35,3.43 -7.04,4.3 -10.47,1.95 -3.43,-2.35 -4.3,-7.04 -1.95,-10.47 2.35,-3.43 7.04,-4.3 10.47,-1.94zm36.13 -15.38c5.49,3.76 6.88,11.27 3.11,16.75 -3.76,5.48 -11.27,6.88 -16.75,3.11 -5.48,-3.76 -6.88,-11.27 -3.11,-16.75 3.76,-5.48 11.27,-6.88 16.75,-3.11zm-172.45 -126.61c2.57,1.76 3.22,5.28 1.46,7.85 -1.76,2.57 -5.28,3.22 -7.85,1.46 -2.57,-1.76 -3.22,-5.28 -1.46,-7.85 1.76,-2.57 5.28,-3.22 7.85,-1.46z"/>
   <polygon class="fil1" points="58.5,811.34 126.87,728.35 724.11,578.98 893.99,675.41 933.55,744.73 981.99,793.17 815.46,868.87 576.26,817.4 312.84,896.12 109.97,823.45 61.52,844.65 "/>
   <path class="fil2" d="M783.39 688.69c6.11,0 11.75,1.84 16.32,4.95 4.07,-2.72 9.06,-4.33 14.46,-4.33 13.65,0 24.72,10.25 24.72,22.88 0,12.63 -11.07,22.88 -24.72,22.88 -4.19,0 -8.13,-0.97 -11.58,-2.67 -4.97,4.45 -11.74,7.2 -19.2,7.2 -15.22,0 -27.57,-11.4 -27.57,-25.46 0,-14.06 12.34,-25.46 27.57,-25.46zm82.7 46.38c6.25,0 11.33,4.4 11.33,9.82 0,5.42 -5.07,9.82 -11.33,9.82 -6.25,0 -11.33,-4.4 -11.33,-9.82 0,-5.42 5.07,-9.82 11.33,-9.82z"/>
   <path class="fil2" d="M103.81 756.35l23.07 -28 480.66 -120.21c1.72,4.17 3.09,8.52 4.09,13.03 8.18,-7.97 19.11,-12.85 31.12,-12.85 20.59,0 38.01,14.31 43.82,34.02 4.97,-2.35 10.58,-3.67 16.51,-3.67 20.3,0 36.77,15.46 36.85,34.56 22.5,3.12 39.74,20.94 39.74,42.45 0,23.71 -20.96,42.94 -46.8,42.94 -18.24,0 -34.04,-9.57 -41.76,-23.53 -1.51,0.27 -3.06,0.41 -4.64,0.41 -1.73,0 -3.42,-0.17 -5.06,-0.49 -5.87,6.88 -15.17,11.33 -25.65,11.33 -8.16,0 -15.61,-2.7 -21.29,-7.15 -11.07,11.08 -26.73,17.99 -44.1,17.99 -3.12,0 -6.19,-0.23 -9.18,-0.66 -7.97,4.97 -17.63,7.88 -28.03,7.88 -17.06,0 -32.1,-7.82 -41,-19.71 -10.14,7.34 -23.18,11.76 -37.39,11.76 -17.73,0 -33.62,-6.86 -44.35,-17.71 -9.89,4.85 -21.09,7.59 -32.96,7.59 -9.65,0 -18.86,-1.81 -27.27,-5.09 -8.53,6.37 -19.09,10.15 -30.53,10.15 -6.59,0 -12.89,-1.25 -18.68,-3.53 -15.49,8.48 -33.53,13.34 -52.79,13.34 -18.18,0 -35.28,-4.33 -50.16,-11.95 -5.1,7.75 -14.73,12.98 -25.76,12.98 -12.03,0 -22.39,-6.21 -27.03,-15.13 -3.77,0.64 -7.67,0.98 -11.65,0.98 -3.7,0 -7.32,-0.29 -10.84,-0.85 -4.28,7.58 -13.5,12.83 -24.18,12.83 -5.44,0 -10.5,-1.36 -14.72,-3.7zm664.66 -110.46c1.79,0 3.25,1.13 3.25,2.53 0,1.4 -1.46,2.53 -3.25,2.53 -1.8,0 -3.25,-1.13 -3.25,-2.53 0,-1.4 1.46,-2.53 3.25,-2.53zm-10.48 16.62c3.99,0 7.23,2.91 7.23,6.5 0,3.59 -3.24,6.5 -7.23,6.5 -3.99,0 -7.22,-2.91 -7.22,-6.5 0,-3.59 3.24,-6.5 7.22,-6.5zm-21.32 -44.8c8.58,0 15.54,6.47 15.54,14.45 0,7.98 -6.96,14.45 -15.54,14.45 -8.58,0 -15.53,-6.47 -15.53,-14.45 0,-7.98 6.96,-14.45 15.53,-14.45z"/>
   <polygon class="fil3" points="507.35,825.7 501.31,753.96 482.08,732.9 524.36,744.82 "/>
   <polygon class="fil3" points="309.23,853.06 291.16,799.6 319.68,768.41 342.29,789.15 327.68,859.83 313.38,881.67 316.76,851.93 "/>
   <path class="fil4" d="M754.32 589.52c-3.43,-1.71 -6.45,-4.15 -8.83,-7.11 -2.09,3.3 -5.77,5.49 -9.96,5.49 -6.5,0 -11.78,-5.28 -11.78,-11.78 0,-6.5 5.28,-11.78 11.78,-11.78 1.45,0 2.83,0.26 4.11,0.74 0.37,-13.54 10.91,-24.54 24.25,-25.65 -0.15,-0.96 -0.23,-1.95 -0.23,-2.95 0,-10.39 8.43,-18.82 18.82,-18.82 8.88,0 16.33,6.16 18.31,14.43 1.31,-0.33 2.68,-0.5 4.09,-0.5 8.37,0 15.31,6.14 16.55,14.17 2.07,-1.36 4.28,-2.54 6.61,-3.48l-0.01 -0.52c0,-10.6 8.6,-19.2 19.2,-19.2 5.12,0 9.77,2.01 13.22,5.28 3.85,-2.62 8.51,-4.15 13.51,-4.15 3.06,0 6,0.58 8.69,1.62 2.09,-1.03 4.44,-1.62 6.93,-1.62 8.63,0 15.62,7 15.62,15.62 0,5.72 -3.08,10.73 -7.67,13.45 -1.89,9.01 -8.82,16.17 -17.71,18.39 0.35,2.07 0.53,4.2 0.53,6.37 0,21 -17.03,38.02 -38.02,38.02 -13,0 -24.48,-6.53 -31.34,-16.49 -3.45,1.64 -7.31,2.56 -11.39,2.56 -7.65,0 -14.55,-3.24 -19.39,-8.42 -0.13,7.16 -5.98,12.94 -13.17,12.94 -7.28,0 -13.18,-5.9 -13.18,-13.18 0,-1.18 0.16,-2.33 0.45,-3.43zm-60.12 -2.97c2.39,0 4.33,1.94 4.33,4.33 0,2.39 -1.94,4.33 -4.33,4.33 -2.39,0 -4.33,-1.94 -4.33,-4.33 0,-2.39 1.94,-4.33 4.33,-4.33zm243.01 -59.1c3.53,0 6.4,2.87 6.4,6.4 0,3.53 -2.87,6.4 -6.4,6.4 -3.53,0 -6.4,-2.87 -6.4,-6.4 0,-3.53 2.87,-6.4 6.4,-6.4zm-39.53 59.86c4.16,0 7.53,3.37 7.53,7.53 0,4.16 -3.37,7.53 -7.53,7.53 -4.16,0 -7.53,-3.37 -7.53,-7.53 0,-4.16 3.37,-7.53 7.53,-7.53zm21.08 -33.13c6.65,0 12.05,5.4 12.05,12.05 0,6.65 -5.4,12.05 -12.05,12.05 -6.65,0 -12.05,-5.4 -12.05,-12.05 0,-6.65 5.4,-12.05 12.05,-12.05zm-213.83 -6.78c3.12,0 5.65,2.53 5.65,5.65 0,3.12 -2.53,5.65 -5.65,5.65 -3.12,0 -5.65,-2.53 -5.65,-5.65 0,-3.12 2.53,-5.65 5.65,-5.65z"/>
   <path class="fil5" d="M273.28 212.04c3.79,0 7.53,0.18 11.23,0.53 9.95,-46.99 53.34,-82.38 105.34,-82.38 9.04,0 17.82,1.08 26.21,3.09 -0.31,-3.01 -0.47,-6.06 -0.47,-9.15 0,-48.49 39.32,-87.81 87.81,-87.81 8.64,0 16.99,1.25 24.88,3.58 -0.43,-2.13 -0.66,-4.34 -0.66,-6.61 0,-18.39 14.92,-33.31 33.31,-33.31 18.39,0 33.31,14.92 33.31,33.31 0,15.65 -10.8,28.78 -25.36,32.35 12.21,13.66 20.22,31.17 21.96,50.48 3.55,-0.7 7.21,-1.08 10.97,-1.08 30.93,0 56.01,25.08 56.01,56.02 0,6.52 -1.12,12.79 -3.17,18.61 18.13,-11.77 39.75,-18.61 62.97,-18.61 23.48,0 45.33,7 63.58,19.01 5.46,-4.35 12.37,-6.94 19.88,-6.94 17.64,0 31.95,14.31 31.95,31.95 0,9.23 -3.92,17.55 -10.18,23.38 6,13.01 9.66,27.32 10.43,42.39 27.29,16.29 45.57,46.11 45.57,80.19 0,8.7 -1.19,17.12 -3.42,25.11 20.5,15.93 33.7,40.81 33.7,68.78 0,48.07 -38.98,87.05 -87.05,87.05 -37.43,0 -69.34,-23.63 -81.64,-56.79 -10.07,4.72 -21.3,7.36 -33.15,7.36 -1.63,0 -3.25,-0.06 -4.86,-0.15 -17.5,21.04 -43.87,34.45 -73.37,34.45 -22.99,0 -44.08,-8.14 -60.55,-21.69 -11.25,2.3 -22.9,3.52 -34.83,3.52 -21,0 -41.13,-3.76 -59.75,-10.63 -21.15,35.27 -59.75,58.88 -103.85,58.88 -50.32,0 -93.47,-30.74 -111.71,-74.45 -13.1,37.84 -49.04,65.02 -91.33,65.02 -51.34,0 -93.33,-40.07 -96.43,-90.63 -2.05,0.22 -4.13,0.34 -6.25,0.34 -31.77,0 -57.53,-25.76 -57.53,-57.53 0,-31.77 25.76,-57.53 57.53,-57.53 3.41,0 6.75,0.3 9.99,0.87 -2.54,-6.87 -3.94,-14.31 -3.94,-22.06 0,-35.11 28.47,-63.59 63.59,-63.59l1.04 0.01c-2.57,-3.99 -4.06,-8.73 -4.06,-13.83 0,-14.1 11.44,-25.54 25.54,-25.54 14.1,0 25.54,11.44 25.54,25.54 0,10.28 -6.07,19.14 -14.83,23.19 1.21,0.75 2.4,1.53 3.56,2.35 21.67,-34.31 59.48,-57.04 102.5,-57.04zm-205.9 -12.21c5.02,0 9.08,4.07 9.08,9.08 0,5.02 -4.07,9.08 -9.08,9.08 -5.02,0 -9.08,-4.07 -9.08,-9.08 0,-5.02 4.07,-9.08 9.08,-9.08zm272.82 -133.23c18.56,0 33.62,15.05 33.62,33.62 0,18.56 -15.05,33.62 -33.62,33.62 -18.56,0 -33.62,-15.05 -33.62,-33.62 0,-18.56 15.05,-33.62 33.62,-33.62zm431.16 21.2c9.2,0 16.65,7.46 16.65,16.65 0,9.2 -7.46,16.65 -16.65,16.65 -9.19,0 -16.65,-7.46 -16.65,-16.65 0,-9.19 7.46,-16.65 16.65,-16.65z"/>
   <path class="fil6" d="M212.25 441.07c2.31,0 4.6,0.11 6.85,0.32 6.07,-28.68 32.55,-50.27 64.28,-50.27 5.52,0 10.88,0.66 16,1.89 -0.19,-1.84 -0.29,-3.7 -0.29,-5.58 0,-29.59 24,-53.59 53.59,-53.59 5.27,0 10.37,0.76 15.18,2.18 -0.26,-1.3 -0.4,-2.65 -0.4,-4.03 0,-11.22 9.1,-20.33 20.33,-20.33 11.22,0 20.33,9.1 20.33,20.33 0,9.55 -6.59,17.56 -15.47,19.74 7.45,8.34 12.34,19.02 13.4,30.81 2.17,-0.43 4.4,-0.66 6.69,-0.66 18.88,0 34.18,15.31 34.18,34.19 0,3.98 -0.68,7.8 -1.93,11.36 11.06,-7.18 24.26,-11.36 38.43,-11.36 14.33,0 27.66,4.27 38.8,11.6 3.33,-2.65 7.55,-4.24 12.13,-4.24 10.77,0 19.5,8.73 19.5,19.5 0,5.64 -2.39,10.71 -6.22,14.27 3.66,7.94 5.9,16.67 6.37,25.87 16.65,9.94 27.81,28.14 27.81,48.94 0,5.31 -0.73,10.45 -2.09,15.32 12.51,9.72 20.57,24.91 20.57,41.98 0,29.33 -23.79,53.12 -53.12,53.12 -22.84,0 -42.32,-14.42 -49.82,-34.66 -6.14,2.88 -13,4.49 -20.23,4.49 -1,0 -1.99,-0.04 -2.97,-0.09 -10.68,12.84 -26.77,21.02 -44.78,21.02 -14.03,0 -26.9,-4.97 -36.95,-13.23 -6.86,1.41 -13.98,2.15 -21.26,2.15 -12.82,0 -25.1,-2.29 -36.46,-6.49 -12.91,21.53 -36.46,35.93 -63.38,35.93 -30.71,0 -57.04,-18.76 -68.18,-45.44 -7.99,23.09 -29.93,39.68 -55.74,39.68 -31.33,0 -56.96,-24.45 -58.85,-55.31 -1.25,0.13 -2.52,0.21 -3.81,0.21 -19.39,0 -35.11,-15.72 -35.11,-35.11 0,-19.39 15.72,-35.11 35.11,-35.11 2.08,0 4.12,0.18 6.1,0.53 -1.55,-4.19 -2.4,-8.73 -2.4,-13.46 0,-21.43 17.38,-38.81 38.81,-38.81l0.63 0c-1.57,-2.43 -2.48,-5.33 -2.48,-8.44 0,-8.61 6.98,-15.59 15.59,-15.59 8.61,0 15.59,6.98 15.59,15.59 0,6.27 -3.71,11.68 -9.05,14.15 0.74,0.45 1.46,0.94 2.17,1.44 13.22,-20.94 36.3,-34.81 62.55,-34.81zm-125.65 -7.45c3.06,0 5.54,2.48 5.54,5.55 0,3.06 -2.48,5.54 -5.54,5.54 -3.06,0 -5.55,-2.48 -5.55,-5.54 0,-3.06 2.48,-5.55 5.55,-5.55zm166.5 -81.3c11.33,0 20.52,9.19 20.52,20.51 0,11.33 -9.19,20.52 -20.52,20.52 -11.33,0 -20.52,-9.19 -20.52,-20.52 0,-11.33 9.19,-20.51 20.52,-20.51zm263.13 12.93c5.61,0 10.16,4.55 10.16,10.16 0,5.61 -4.55,10.16 -10.16,10.16 -5.61,0 -10.16,-4.55 -10.16,-10.16 0,-5.61 4.55,-10.16 10.16,-10.16z"/>
   <path class="fil7" d="M698.89 478.37c-1.45,0 -2.89,0.07 -4.31,0.2 -3.82,-18.04 -20.47,-31.62 -40.43,-31.62 -3.47,0 -6.84,0.41 -10.06,1.19 0.12,-1.15 0.18,-2.33 0.18,-3.51 0,-18.61 -15.09,-33.7 -33.7,-33.7 -3.32,0 -6.52,0.48 -9.55,1.37 0.16,-0.82 0.25,-1.67 0.25,-2.54 0,-7.06 -5.73,-12.78 -12.78,-12.78 -7.06,0 -12.78,5.73 -12.78,12.78 0,6.01 4.15,11.05 9.73,12.41 -4.69,5.25 -7.76,11.96 -8.43,19.38 -1.36,-0.27 -2.77,-0.41 -4.21,-0.41 -11.87,0 -21.5,9.63 -21.5,21.5 0,2.5 0.43,4.91 1.21,7.14 -6.96,-4.52 -15.25,-7.14 -24.17,-7.14 -9.01,0 -17.4,2.68 -24.4,7.3 -2.09,-1.67 -4.75,-2.67 -7.63,-2.67 -6.77,0 -12.26,5.49 -12.26,12.26 0,3.54 1.5,6.73 3.91,8.97 -2.3,4.99 -3.71,10.49 -4,16.27 -10.47,6.25 -17.49,17.7 -17.49,30.78 0,3.34 0.46,6.57 1.31,9.64 -7.87,6.11 -12.93,15.66 -12.93,26.4 0,18.45 14.96,33.41 33.41,33.41 14.37,0 26.61,-9.07 31.33,-21.8 3.86,1.81 8.17,2.82 12.72,2.82 0.63,0 1.25,-0.02 1.87,-0.06 6.71,8.08 16.84,13.22 28.16,13.22 8.82,0 16.92,-3.12 23.24,-8.32 4.32,0.88 8.79,1.35 13.37,1.35 8.06,0 15.78,-1.44 22.93,-4.08 8.12,13.54 22.93,22.6 39.86,22.6 19.32,0 35.87,-11.8 42.88,-28.57 5.03,14.52 18.82,24.96 35.05,24.96 19.7,0 35.82,-15.38 37.01,-34.78 0.79,0.09 1.59,0.13 2.4,0.13 12.19,0 22.08,-9.89 22.08,-22.08 0,-12.19 -9.89,-22.08 -22.08,-22.08 -1.31,0 -2.59,0.11 -3.83,0.33 0.98,-2.64 1.51,-5.49 1.51,-8.47 0,-13.47 -10.93,-24.4 -24.4,-24.4l-0.4 0c0.99,-1.53 1.56,-3.35 1.56,-5.31 0,-5.41 -4.39,-9.8 -9.8,-9.8 -5.41,0 -9.8,4.39 -9.8,9.8 0,3.94 2.33,7.34 5.69,8.9 -0.46,0.29 -0.92,0.59 -1.36,0.9 -8.31,-13.17 -22.83,-21.89 -39.34,-21.89zm79.02 -4.68c-1.92,0 -3.49,1.56 -3.49,3.49 0,1.93 1.56,3.49 3.49,3.49 1.93,0 3.49,-1.56 3.49,-3.49 0,-1.93 -1.56,-3.49 -3.49,-3.49zm-104.7 -51.13c-7.12,0 -12.9,5.78 -12.9,12.9 0,7.13 5.78,12.9 12.9,12.9 7.13,0 12.9,-5.78 12.9,-12.9 0,-7.12 -5.78,-12.9 -12.9,-12.9zm-165.47 8.13c-3.53,0 -6.39,2.86 -6.39,6.39 0,3.53 2.86,6.39 6.39,6.39 3.53,0 6.39,-2.86 6.39,-6.39 0,-3.53 -2.86,-6.39 -6.39,-6.39z"/>
   <g>
    <polygon class="fil8 str0" points="200.39,652.36 893.45,652.36 893.45,688.69 200.39,688.69 "/>
    <polygon class="fil8 str0" points="229.32,626.77 852.03,626.77 852.03,651.58 229.32,651.58 "/>
    <polygon class="fil8 str0" points="251.95,601.19 830.2,601.19 830.2,626.77 251.95,626.77 "/>
    <polygon class="fil8 str0" points="276.05,575.6 808.74,575.6 808.74,601.19 276.05,601.19 "/>
    <polygon class="fil8 str0" points="299.32,557.66 786.45,557.66 786.45,576.68 299.32,576.68 "/>
    <polygon class="fil8 str0" points="318.96,538.47 769.08,538.47 769.08,557.49 318.96,557.49 "/>
    <polygon class="fil8 str0" points="336.26,524.98 750.2,524.98 750.2,538.73 336.26,538.73 "/>
    <polygon class="fil8 str0" points="350.31,515.73 728.07,515.73 728.07,524.2 350.31,524.2 "/>
    <polygon class="fil8 str0" points="359.5,506.59 718.16,506.59 718.16,514.63 359.5,514.63 "/>
    <g>
     <polygon class="fil8" points="386.69,282.09 424.3,282.09 424.3,487.93 386.69,487.93 "/>
     <path class="fil9" d="M395.3 286.26l0 0c1.22,0 2.23,1.5 2.23,3.34l0 190.83c0,1.84 -1,3.34 -2.23,3.34l0 0c-1.22,0 -2.22,-1.5 -2.22,-3.34l0 -190.83c0,-1.84 1,-3.34 2.22,-3.34z"/>
     <path class="fil9" d="M405.59 286.37l0 0c1.22,0 2.23,1.5 2.23,3.34l0 190.83c0,1.84 -1,3.34 -2.23,3.34l0 0c-1.22,0 -2.22,-1.5 -2.22,-3.34l0 -190.83c0,-1.84 1,-3.34 2.22,-3.34z"/>
     <path class="fil9" d="M415.89 285.92l0 0c1.22,0 2.23,1.5 2.23,3.34l0 190.83c0,1.84 -1,3.34 -2.23,3.34l0 0c-1.22,0 -2.22,-1.5 -2.22,-3.34l0 -190.83c0,-1.84 1,-3.34 2.22,-3.34z"/>
     <path class="fil8" d="M373.99 264.77l61.98 0c0.86,-0.24 1.77,-0.37 2.71,-0.37 5.53,0 10.01,4.48 10.01,10.01 0,5.53 -4.49,10.01 -10.01,10.01 -5.53,0 -10.01,-4.49 -10.01,-10.01 0,-1.5 0.33,-2.92 0.92,-4.2l-48.2 0c0.67,1.34 1.04,2.85 1.04,4.45 0,5.53 -4.48,10.01 -10.01,10.01 -5.53,0 -10.01,-4.49 -10.01,-10.01 0,-5.53 4.48,-10.01 10.01,-10.01 0.54,0 1.06,0.04 1.57,0.12zm64.97 4.46c2.79,0 5.06,2.27 5.06,5.06 0,2.79 -2.27,5.06 -5.06,5.06 -2.79,0 -5.06,-2.27 -5.06,-5.06 0,-2.79 2.27,-5.06 5.06,-5.06zm-66.28 0.38c2.79,0 5.06,2.27 5.06,5.06 0,2.79 -2.27,5.06 -5.06,5.06 -2.79,0 -5.06,-2.27 -5.06,-5.06 0,-2.79 2.27,-5.06 5.06,-5.06zm13.09 2.58l39.56 0 0 7.17 -39.56 0 0 -7.17z"/>
     <path class="fil8" d="M373.99 504.13l61.98 0c0.86,0.24 1.77,0.37 2.71,0.37 5.53,0 10.01,-4.48 10.01,-10.01 0,-5.53 -4.48,-10.01 -10.01,-10.01 -5.53,0 -10.01,4.49 -10.01,10.01 0,1.5 0.33,2.92 0.92,4.2l-48.2 0c0.67,-1.34 1.04,-2.85 1.04,-4.45 0,-5.53 -4.49,-10.01 -10.01,-10.01 -5.53,0 -10.01,4.49 -10.01,10.01 0,5.53 4.48,10.01 10.01,10.01 0.54,0 1.06,-0.04 1.57,-0.12zm64.97 -4.46c2.79,0 5.06,-2.27 5.06,-5.06 0,-2.79 -2.27,-5.06 -5.06,-5.06 -2.79,0 -5.06,2.27 -5.06,5.06 0,2.79 2.27,5.06 5.06,5.06zm-66.28 -0.38c2.79,0 5.06,-2.27 5.06,-5.06 0,-2.79 -2.27,-5.06 -5.06,-5.06 -2.79,0 -5.06,2.27 -5.06,5.06 0,2.79 2.27,5.06 5.06,5.06zm13.09 -2.58l39.56 0 0 -7.17 -39.56 0 0 7.17z"/>
    </g>
    <g>
     <polygon class="fil8" points="660.54,281.82 698.14,281.82 698.14,487.65 660.54,487.65 "/>
     <path class="fil9" d="M669.15 285.98l0 0c1.22,0 2.23,1.5 2.23,3.34l0 190.83c0,1.84 -1,3.34 -2.23,3.34l0 0c-1.22,0 -2.22,-1.5 -2.22,-3.34l0 -190.83c0,-1.84 1,-3.34 2.22,-3.34z"/>
     <path class="fil9" d="M679.44 286.1l0 0c1.22,0 2.23,1.5 2.23,3.34l0 190.83c0,1.84 -1,3.34 -2.23,3.34l0 0c-1.22,0 -2.22,-1.5 -2.22,-3.34l0 -190.83c0,-1.84 1,-3.34 2.22,-3.34z"/>
     <path class="fil9" d="M689.73 285.65l0 0c1.22,0 2.23,1.5 2.23,3.34l0 190.83c0,1.84 -1,3.34 -2.23,3.34l0 0c-1.22,0 -2.22,-1.5 -2.22,-3.34l0 -190.83c0,-1.84 1,-3.34 2.22,-3.34z"/>
     <path class="fil8" d="M647.83 264.5l61.98 0c0.86,-0.24 1.77,-0.37 2.71,-0.37 5.53,0 10.01,4.48 10.01,10.01 0,5.53 -4.49,10.01 -10.01,10.01 -5.53,0 -10.01,-4.49 -10.01,-10.01 0,-1.5 0.33,-2.92 0.92,-4.2l-48.2 0c0.67,1.34 1.04,2.85 1.04,4.45 0,5.53 -4.48,10.01 -10.01,10.01 -5.53,0 -10.01,-4.49 -10.01,-10.01 0,-5.53 4.48,-10.01 10.01,-10.01 0.54,0 1.06,0.04 1.57,0.12zm64.97 4.46c2.79,0 5.06,2.27 5.06,5.06 0,2.79 -2.27,5.06 -5.06,5.06 -2.79,0 -5.06,-2.27 -5.06,-5.06 0,-2.79 2.27,-5.06 5.06,-5.06zm-66.28 0.38c2.79,0 5.06,2.27 5.06,5.06 0,2.79 -2.27,5.06 -5.06,5.06 -2.79,0 -5.06,-2.27 -5.06,-5.06 0,-2.79 2.27,-5.06 5.06,-5.06zm13.09 2.58l39.56 0 0 7.17 -39.56 0 0 -7.17z"/>
     <path class="fil8" d="M647.83 503.86l61.98 0c0.86,0.24 1.77,0.37 2.71,0.37 5.53,0 10.01,-4.48 10.01,-10.01 0,-5.53 -4.48,-10.01 -10.01,-10.01 -5.53,0 -10.01,4.49 -10.01,10.01 0,1.5 0.33,2.92 0.92,4.2l-48.2 0c0.67,-1.34 1.04,-2.85 1.04,-4.45 0,-5.53 -4.49,-10.01 -10.01,-10.01 -5.53,0 -10.01,4.49 -10.01,10.01 0,5.53 4.48,10.01 10.01,10.01 0.54,0 1.06,-0.04 1.57,-0.12zm64.97 -4.46c2.79,0 5.06,-2.27 5.06,-5.06 0,-2.79 -2.27,-5.06 -5.06,-5.06 -2.79,0 -5.06,2.27 -5.06,5.06 0,2.79 2.27,5.06 5.06,5.06zm-66.28 -0.38c2.79,0 5.06,-2.27 5.06,-5.06 0,-2.79 -2.27,-5.06 -5.06,-5.06 -2.79,0 -5.06,2.27 -5.06,5.06 0,2.79 2.27,5.06 5.06,5.06zm13.09 -2.58l39.56 0 0 -7.17 -39.56 0 0 7.17z"/>
    </g>
    <g>
     <polygon class="fil8" points="528.92,282.62 566.53,282.62 566.53,488.45 528.92,488.45 "/>
     <path class="fil9" d="M537.54 286.78l0 0c1.22,0 2.23,1.5 2.23,3.34l0 190.83c0,1.84 -1,3.34 -2.23,3.34l0 0c-1.22,0 -2.22,-1.5 -2.22,-3.34l0 -190.83c0,-1.84 1,-3.34 2.22,-3.34z"/>
     <path class="fil9" d="M547.83 286.9l0 0c1.22,0 2.23,1.5 2.23,3.34l0 190.83c0,1.84 -1,3.34 -2.23,3.34l0 0c-1.22,0 -2.22,-1.5 -2.22,-3.34l0 -190.83c0,-1.84 1,-3.34 2.22,-3.34z"/>
     <path class="fil9" d="M558.12 286.45l0 0c1.22,0 2.23,1.5 2.23,3.34l0 190.83c0,1.84 -1,3.34 -2.23,3.34l0 0c-1.22,0 -2.22,-1.5 -2.22,-3.34l0 -190.83c0,-1.84 1,-3.34 2.22,-3.34z"/>
     <path class="fil8" d="M516.22 265.29l61.98 0c0.86,-0.24 1.77,-0.37 2.71,-0.37 5.53,0 10.01,4.48 10.01,10.01 0,5.53 -4.49,10.01 -10.01,10.01 -5.53,0 -10.01,-4.49 -10.01,-10.01 0,-1.5 0.33,-2.92 0.92,-4.2l-48.2 0c0.67,1.34 1.04,2.85 1.04,4.45 0,5.53 -4.48,10.01 -10.01,10.01 -5.53,0 -10.01,-4.49 -10.01,-10.01 0,-5.53 4.48,-10.01 10.01,-10.01 0.54,0 1.06,0.04 1.57,0.12zm64.97 4.46c2.79,0 5.06,2.27 5.06,5.06 0,2.79 -2.27,5.06 -5.06,5.06 -2.79,0 -5.06,-2.27 -5.06,-5.06 0,-2.79 2.27,-5.06 5.06,-5.06zm-66.28 0.38c2.79,0 5.06,2.27 5.06,5.06 0,2.79 -2.27,5.06 -5.06,5.06 -2.79,0 -5.06,-2.27 -5.06,-5.06 0,-2.79 2.27,-5.06 5.06,-5.06zm13.09 2.58l39.56 0 0 7.17 -39.56 0 0 -7.17z"/>
     <path class="fil8" d="M516.22 504.65l61.98 0c0.86,0.24 1.77,0.37 2.71,0.37 5.53,0 10.01,-4.48 10.01,-10.01 0,-5.53 -4.48,-10.01 -10.01,-10.01 -5.53,0 -10.01,4.49 -10.01,10.01 0,1.5 0.33,2.92 0.92,4.2l-48.2 0c0.67,-1.34 1.04,-2.85 1.04,-4.45 0,-5.53 -4.49,-10.01 -10.01,-10.01 -5.53,0 -10.01,4.49 -10.01,10.01 0,5.53 4.48,10.01 10.01,10.01 0.54,0 1.06,-0.04 1.57,-0.12zm64.97 -4.46c2.79,0 5.06,-2.27 5.06,-5.06 0,-2.79 -2.27,-5.06 -5.06,-5.06 -2.79,0 -5.06,2.27 -5.06,5.06 0,2.79 2.27,5.06 5.06,5.06zm-66.28 -0.38c2.79,0 5.06,-2.27 5.06,-5.06 0,-2.79 -2.27,-5.06 -5.06,-5.06 -2.79,0 -5.06,2.27 -5.06,5.06 0,2.79 2.27,5.06 5.06,5.06zm13.09 -2.58l39.56 0 0 -7.17 -39.56 0 0 7.17z"/>
    </g>
    <polygon class="fil8" points="351.43,253.49 732.83,253.49 732.83,258.77 351.43,258.77 "/>
    <polygon class="fil8" points="353.32,218.37 734.71,218.37 734.71,223.65 353.32,223.65 "/>
    <polygon class="fil8" points="366.54,228.56 718.48,228.56 718.48,248.95 366.54,248.95 "/>
    <polygon class="fil8" points="323.49,212.7 766.81,213.46 546.28,86.58 "/>
    <polygon class="fil9" points="365.46,205.45 724.84,206.07 546.07,103.21 "/>
    <polygon class="fil8" points="383.91,200.24 706.39,200.79 545.98,108.49 "/>
    <path class="fil10" d="M548.29 145.31c12.89,0 23.34,10.45 23.34,23.34 0,12.89 -10.45,23.34 -23.34,23.34 -12.89,0 -23.34,-10.45 -23.34,-23.34 0,-12.89 10.45,-23.34 23.34,-23.34z"/>
    <path class="fil9" d="M545.69 137.88c13.29,0 24.07,10.78 24.07,24.07 0,13.29 -10.78,24.07 -24.07,24.07 -13.29,0 -24.07,-10.78 -24.07,-24.07 0,-13.29 10.78,-24.07 24.07,-24.07z"/>
   </g>
   <g>
    <path class="fil11" style="mask:url(#id0)" d="M763.4 557.66c-6.31,5.99 -14.13,9.3 -23.75,7.42 -6.22,-1.21 -24.23,-3.86 -49.93,-7.42l73.68 0z"/>
    <path class="fil11" style="mask:url(#id2)" d="M769.08 551.07c-1.69,2.35 -3.52,4.52 -5.51,6.42l-75.04 0c-36.2,-5.01 -87.31,-11.8 -142.49,-19.02l223.04 0 0 12.6z"/>
    <path class="fil11" style="mask:url(#id4)" d="M548 538.73c-34.49,-4.52 -70.6,-9.21 -105.69,-13.74l307.89 0 0 13.74 -202.2 0z"/>
    <path class="fil11" style="mask:url(#id6)" d="M436.21 524.2c-22.65,-2.93 -44.79,-5.78 -65.71,-8.47l357.57 0 0 8.47 -291.86 0z"/>
    <polygon class="fil11" style="mask:url(#id8)" points="361.94,514.63 359.5,514.32 359.5,506.59 718.16,506.59 718.16,514.63 "/>
    <path class="fil11" style="mask:url(#id10)" d="M363 497.65l5.96 0.02c0.93,1 2.25,1.63 3.72,1.63 1.46,0 2.77,-0.61 3.69,-1.6l5.45 0.02c-0.12,0.33 -0.27,0.66 -0.42,0.97l48.2 0c-0.12,-0.26 -0.23,-0.53 -0.33,-0.8l5.87 0.02c0.93,1.08 2.3,1.76 3.84,1.76 1.52,0 2.88,-0.67 3.81,-1.73l5.3 0.02c-1.41,3.82 -5.09,6.54 -9.39,6.54 -0.94,0 -1.85,-0.13 -2.71,-0.37l-61.98 0c-0.51,0.08 -1.04,0.12 -1.57,0.12 -4.33,0 -8.02,-2.75 -9.42,-6.61z"/>
    <path class="fil11" style="mask:url(#id12)" d="M637.41 498.66l7.28 0.03c0.57,0.22 1.18,0.34 1.82,0.34 0.63,0 1.23,-0.12 1.79,-0.33l62.36 0.23c0.65,0.3 1.37,0.47 2.14,0.47 0.75,0 1.46,-0.16 2.1,-0.46l6.43 0.02c-1.69,3.13 -5,5.26 -8.82,5.26 -0.94,0 -1.85,-0.13 -2.71,-0.37l-61.98 0c-0.51,0.08 -1.04,0.12 -1.57,0.12 -3.83,0 -7.17,-2.16 -8.85,-5.32z"/>
    <path class="fil11" style="mask:url(#id14)" d="M505.23 498.17l5.96 0.02c0.92,1 2.25,1.63 3.72,1.63 1.46,0 2.77,-0.61 3.69,-1.6l5.45 0.02c-0.12,0.33 -0.27,0.66 -0.42,0.97l48.2 0c-0.12,-0.26 -0.23,-0.53 -0.33,-0.8l5.87 0.02c0.93,1.08 2.3,1.76 3.84,1.76 1.52,0 2.88,-0.67 3.81,-1.73l5.3 0.02c-1.41,3.82 -5.09,6.54 -9.39,6.54 -0.94,0 -1.85,-0.13 -2.71,-0.37l-61.98 0c-0.51,0.08 -1.04,0.12 -1.57,0.12 -4.33,0 -8.02,-2.76 -9.42,-6.61z"/>
   </g>
   <polygon class="fil12" points="353.32,218.37 422.02,200.3 565.29,114.27 719.89,203.22 748.38,208.23 545.28,91.1 345.38,212.74 353.32,221.01 "/>
   <polygon class="fil13" points="400.87,228.56 718.48,228.56 718.48,238.76 400.87,238.76 "/>
   <path class="fil0" d="M717.5 698.71c-3.43,-1.71 -6.45,-4.15 -8.83,-7.11 -2.09,3.3 -5.77,5.49 -9.96,5.49 -6.5,0 -11.78,-5.28 -11.78,-11.78 0,-6.5 5.28,-11.78 11.78,-11.78 1.45,0 2.83,0.26 4.11,0.74 0.37,-13.54 10.91,-24.54 24.25,-25.65 -0.15,-0.96 -0.23,-1.95 -0.23,-2.95 0,-10.39 8.43,-18.82 18.82,-18.82 8.88,0 16.33,6.16 18.31,14.43 1.31,-0.33 2.68,-0.5 4.09,-0.5 8.37,0 15.31,6.14 16.55,14.17 2.07,-1.36 4.28,-2.54 6.61,-3.48l-0.01 -0.52c0,-10.6 8.6,-19.2 19.2,-19.2 5.12,0 9.77,2.01 13.22,5.28 3.85,-2.62 8.51,-4.15 13.51,-4.15 3.06,0 6,0.58 8.69,1.62 2.09,-1.03 4.44,-1.62 6.93,-1.62 8.63,0 15.62,7 15.62,15.62 0,5.72 -3.08,10.73 -7.67,13.45 -1.89,9.01 -8.82,16.17 -17.71,18.39 0.35,2.07 0.53,4.2 0.53,6.37 0,21 -17.03,38.02 -38.02,38.02 -13,0 -24.48,-6.53 -31.34,-16.49 -3.45,1.64 -7.31,2.56 -11.39,2.56 -7.65,0 -14.55,-3.24 -19.39,-8.42 -0.13,7.16 -5.98,12.94 -13.17,12.94 -7.28,0 -13.18,-5.9 -13.18,-13.18 0,-1.18 0.16,-2.33 0.45,-3.43zm-60.12 -2.97c2.39,0 4.33,1.94 4.33,4.33 0,2.39 -1.94,4.33 -4.33,4.33 -2.39,0 -4.33,-1.94 -4.33,-4.33 0,-2.39 1.94,-4.33 4.33,-4.33zm243.01 -59.1c3.53,0 6.4,2.87 6.4,6.4 0,3.53 -2.87,6.4 -6.4,6.4 -3.53,0 -6.4,-2.87 -6.4,-6.4 0,-3.53 2.87,-6.4 6.4,-6.4zm-39.53 59.86c4.16,0 7.53,3.37 7.53,7.53 0,4.16 -3.37,7.53 -7.53,7.53 -4.16,0 -7.53,-3.37 -7.53,-7.53 0,-4.16 3.37,-7.53 7.53,-7.53zm21.08 -33.13c6.65,0 12.05,5.4 12.05,12.05 0,6.65 -5.4,12.05 -12.05,12.05 -6.65,0 -12.05,-5.4 -12.05,-12.05 0,-6.65 5.4,-12.05 12.05,-12.05zm-213.83 -6.78c3.12,0 5.65,2.53 5.65,5.65 0,3.12 -2.53,5.65 -5.65,5.65 -3.12,0 -5.65,-2.53 -5.65,-5.65 0,-3.12 2.53,-5.65 5.65,-5.65z"/>
   <path class="fil14" d="M225.14 497.15c1.46,0 2.9,0.04 4.34,0.12 2.3,-14.04 14.5,-24.76 29.19,-24.76 16.34,0 29.59,13.25 29.59,29.59 0,6.98 -2.43,13.4 -6.47,18.47 13.75,13.84 22.21,32.7 22.21,53.48 0,42.46 -35.32,76.89 -78.86,76.89 -22.39,0 -42.61,-9.11 -56.97,-23.73 -5.09,1.95 -10.65,3.03 -16.48,3.03 -5.01,0 -9.82,-0.79 -14.3,-2.25 -0.31,11 -9.33,19.83 -20.41,19.83 -11.27,0 -20.42,-9.14 -20.42,-20.42 0,-9.74 6.82,-17.89 15.95,-19.92 -3,-5.6 -4.69,-11.94 -4.69,-18.64 0,-17.09 10.98,-31.76 26.64,-38.08 -0.01,-0.31 -0.02,-0.63 -0.02,-0.94 0,-13.83 11.22,-25.05 25.05,-25.05 1.62,0 3.21,0.15 4.74,0.45 14.46,-17.13 36.37,-28.05 60.9,-28.05zm376.78 96.54c6.06,0 10.98,4.92 10.98,10.98 0,6.06 -4.92,10.98 -10.98,10.98 -2.14,0 -4.14,-0.62 -5.83,-1.68 -2.43,9.34 -10.92,16.25 -21.02,16.25 -11.69,0 -21.23,-9.25 -21.7,-20.82l-0.02 0c-9.56,0 -17.73,-5.93 -21.04,-14.31 -3.67,0.98 -7.52,1.51 -11.49,1.51 -4.98,0 -9.78,-0.82 -14.25,-2.34 0.33,2.42 0.5,4.88 0.5,7.39 0,26.1 -18.46,47.9 -43.03,53.06 -9.59,18.82 -29.15,31.72 -51.72,31.72 -32.03,0 -58.01,-25.98 -58.01,-58.01 0,-2.61 0.18,-5.17 0.51,-7.68 -22.04,-7.06 -38,-27.72 -38,-52.11 0,-17.82 8.53,-33.65 21.71,-43.64 -1.28,-2.77 -2,-5.85 -2,-9.1 0,-11.98 9.71,-21.69 21.69,-21.69 11.52,0 20.95,9 21.64,20.35 21.87,3.34 39.48,19.64 44.75,40.81 8.23,-5.03 17.89,-7.93 28.24,-7.93 8.49,0 16.52,1.95 23.67,5.43l-0.01 -0.56c0,-24.47 19.84,-44.3 44.3,-44.3 24.47,0 44.3,19.84 44.3,44.3 0,4.89 -0.79,9.59 -2.25,13.98 7.73,3.6 13.09,11.43 13.09,20.51l0 0.02c7.55,0.31 14.1,4.47 17.75,10.57 2.01,-2.26 4.94,-3.69 8.21,-3.69z"/>
   <path class="fil15" d="M229.83 548.28c13.88,0 27.13,2.53 39.25,7.11 10.25,-16.36 28.3,-27.23 48.85,-27.23 31.92,0 57.8,26.21 57.8,58.52 0,1.58 -0.06,3.14 -0.19,4.68 18.93,4.21 35.01,15.52 44.98,30.84 0.92,-0.97 1.89,-1.9 2.9,-2.78 0.07,-42.83 34.01,-77.55 75.87,-77.55 36.14,0 66.39,25.89 74.01,60.53 8.18,-7.97 19.11,-12.85 31.12,-12.85 20.59,0 38.01,14.31 43.82,34.02 4.97,-2.35 10.58,-3.67 16.51,-3.67 20.3,0 36.77,15.46 36.85,34.56 22.5,3.12 39.74,20.94 39.74,42.45 0,23.71 -20.96,42.94 -46.8,42.94 -18.24,0 -34.04,-9.57 -41.76,-23.53 -1.51,0.27 -3.06,0.41 -4.64,0.41 -1.73,0 -3.42,-0.17 -5.06,-0.49 -5.87,6.88 -15.17,11.33 -25.65,11.33 -8.16,0 -15.61,-2.7 -21.29,-7.15 -11.07,11.08 -26.73,17.99 -44.1,17.99 -3.12,0 -6.19,-0.23 -9.18,-0.66 -7.97,4.97 -17.63,7.88 -28.03,7.88 -17.06,0 -32.1,-7.82 -41,-19.71 -10.14,7.34 -23.18,11.76 -37.39,11.76 -17.73,0 -33.62,-6.86 -44.35,-17.71 -9.89,4.85 -21.09,7.59 -32.96,7.59 -9.65,0 -18.86,-1.81 -27.27,-5.09 -8.53,6.37 -19.09,10.15 -30.53,10.15 -6.59,0 -12.89,-1.25 -18.68,-3.53 -15.49,8.48 -33.53,13.34 -52.79,13.34 -18.18,0 -35.28,-4.33 -50.16,-11.95 -5.1,7.75 -14.73,12.98 -25.76,12.98 -12.03,0 -22.39,-6.21 -27.03,-15.13 -3.77,0.64 -7.67,0.98 -11.65,0.98 -3.7,0 -7.32,-0.29 -10.84,-0.85 -4.28,7.58 -13.5,12.83 -24.18,12.83 -13.58,0 -24.81,-8.49 -26.51,-19.49 -2.05,0.46 -4.18,0.7 -6.37,0.7 -2.41,0 -4.75,-0.3 -6.99,-0.85 -3.14,6.43 -10.63,10.97 -19.38,10.97 -11.57,0 -20.95,-7.93 -20.95,-17.7 0,-8.9 7.77,-16.27 17.89,-17.51 -0.36,-1.93 -0.55,-3.93 -0.55,-5.97 0,-17.15 13.43,-31.07 29.99,-31.07 2.49,0 4.91,0.32 7.23,0.91 2.83,-11.29 9.49,-21.29 18.69,-28.84 -1.1,-2.71 -1.72,-5.73 -1.72,-8.92 0,-11.57 8.09,-20.95 18.06,-20.95 8.42,0 15.49,6.68 17.5,15.72 2.66,-0.31 5.38,-0.47 8.13,-0.47 4.85,0 9.56,0.5 14.09,1.44 12.25,-40.94 52.62,-70.99 100.52,-70.99zm500.31 78.87c1.79,0 3.25,1.13 3.25,2.53 0,1.4 -1.46,2.53 -3.25,2.53 -1.8,0 -3.25,-1.13 -3.25,-2.53 0,-1.4 1.46,-2.53 3.25,-2.53zm-10.48 16.62c3.99,0 7.23,2.91 7.23,6.5 0,3.59 -3.24,6.5 -7.23,6.5 -3.99,0 -7.22,-2.91 -7.22,-6.5 0,-3.59 3.24,-6.5 7.22,-6.5zm-21.32 -44.8c8.58,0 15.54,6.47 15.54,14.45 0,7.98 -6.96,14.45 -15.54,14.45 -8.58,0 -15.53,-6.47 -15.53,-14.45 0,-7.98 6.96,-14.45 15.53,-14.45zm-644.15 5.06c3.59,0 6.5,2.43 6.5,5.42 0,2.99 -2.91,5.42 -6.5,5.42 -3.59,0 -6.5,-2.43 -6.5,-5.42 0,-2.99 2.91,-5.42 6.5,-5.42z"/>
   <path class="fil13" d="M436.42 737.7l-28.79 -6.58c-5.9,-2.91 -11.16,-6.68 -15.56,-11.12 -3.92,1.93 -8.06,3.52 -12.35,4.74l-202.47 -46.3 58.56 -6.91 -0.41 7.73 25.97 -5.01 189.14 -2.15c0,0 90.4,-13.38 147.89,-13.38 57.49,0 128.62,33.21 60.3,65.83 -2.29,-2.51 -4.29,-5.26 -5.91,-8.2 -1.51,0.27 -3.06,0.41 -4.64,0.41 -1.73,0 -3.42,-0.17 -5.06,-0.49 -5.87,6.88 -15.17,11.33 -25.65,11.33 -8.16,0 -15.61,-2.7 -21.29,-7.15 -11.07,11.08 -26.73,17.99 -44.1,17.99 -3.12,0 -6.19,-0.23 -9.18,-0.66 -7.97,4.97 -17.63,7.88 -28.03,7.88 -17.06,0 -32.1,-7.82 -41,-19.71 -10.14,7.34 -23.18,11.76 -37.39,11.76z"/>
   <path class="fil16" d="M318.98 86.77c-53.38,18.27 -78.62,45.14 -87.57,76.07 -8.96,30.94 -9.77,74.9 -9.77,74.9l-41.52 25.24c0,0 -6.94,-5.84 -17.52,-1.37 -10.57,4.47 -7.73,13.01 -7.73,13.01l-1.22 36.6c0,0 -0.58,22.57 25.21,21.96 25.79,-0.61 58.56,-0.41 65.07,-3.25 6.51,-2.85 26.84,-21.55 32.13,-34.57 5.29,-13.01 17.49,-68.73 17.49,-68.73 0,0 -60.51,395.35 -62.14,411.63 -1.63,16.28 -4.55,30.01 -4.55,30.01 0,0 -28.06,6.91 -35.38,6.91 -4.48,0 -15.3,-6.33 -14.23,3.25l58.15 0.81 0.41 -7.73 119.97 -164.29c18.62,-25.49 18.71,-72.83 29.28,-69.17 10.57,3.66 9.35,45.99 31.31,74.46 21.96,28.47 76.45,108.58 95.97,129.72 19.52,21.15 29.69,30.91 29.69,30.91 0,0 -1.94,2.2 -0.93,3.82 1.01,1.62 3.45,2.03 3.45,2.03l47.31 0.41c0,0 0.41,-4.06 -2.23,-4.06 -2.64,0 -7.91,1.42 -11.37,1.01 -3.45,-0.41 -28.24,-9.13 -28.24,-9.13l-53.55 -183.99 -40.38 -151.06c0,0 -1.5,-33.15 4.6,-51.86 6.1,-18.71 8.54,-20.33 8.54,-20.33l91.09 118.74c0,0 4.06,23.99 8.54,33.35 4.47,9.35 10.17,17.89 16.67,19.92 6.51,2.03 50.43,-17.49 48.39,-27.25 -2.03,-9.76 -7.32,-29.28 -12.61,-38.63 -5.29,-9.35 -19.93,-16.67 -23.59,-21.15 -3.66,-4.47 -48.39,-107.36 -80.52,-159.01 -32.13,-51.65 -40.26,-87.02 -59.37,-93.94 -19.11,-6.91 -138.86,-5.25 -138.86,-5.25z"/>
   <path class="fil17" d="M157.31 305.52c19.52,2.03 20.74,2.44 24.4,-1.63 3.66,-4.07 -1.6,-40.92 -1.6,-40.92l23.96 39.3c0,0 25.62,2.03 32.13,-3.66 6.51,-5.69 21.14,-21.55 23.18,-46.77 2.03,-25.21 -3.66,-30.5 -6.51,-47.17 -2.85,-16.67 4.47,-24.4 4.47,-24.4 0,0 -4.06,16.67 2.85,26.43 6.91,9.76 13.83,10.98 18.3,6.51 4.47,-4.47 14.64,-69.95 14.64,-69.95 0,0 -5.29,0.81 -6.51,-7.32 -1.22,-8.13 2.03,-16.27 2.03,-16.27 0,0 -9.48,-5.51 -8.13,-10.98 1.35,-5.46 2.71,-6.24 2.71,-6.24l29.95 -13.63 130.55 0.69 14.1 2.51c0,0 6.1,10.57 2.85,15.86 -3.25,5.29 2.44,2.03 -0.41,16.27 -2.85,14.23 -10.57,15.86 -10.57,15.86 0,0 4.07,13.01 0,17.89 -4.07,4.88 -18.71,8.13 -18.71,8.13 0,0 3.25,5.29 -4.06,6.1 -7.32,0.81 -3.25,8.95 -9.35,11.8 -6.1,2.85 -16.13,3.91 -16.13,3.91 0,0 -1.22,9.74 -8.52,11.16 -7.31,1.42 -12.18,-0.41 -12.18,-0.41 0,0 2.84,1.62 -5.68,4.67 -8.52,3.04 -20.7,4.67 -23.14,-0.61 -2.43,-5.28 -1.01,-8.52 -6.9,-8.12 -5.89,0.41 -14.01,-1.42 -15.83,-6.9 -1.83,-5.48 -2.43,-5.07 -6.09,-6.49 -3.65,-1.42 -5.28,-1.83 -5.28,-1.83 0,0 2.44,45.26 5.07,59.06 2.64,13.8 7.91,20.3 7.91,20.3l35.32 0.2 5.07 -46.68 8.52 48.1c0,0 54.8,4.67 74.48,-5.28 19.69,-9.95 30.85,-57.44 30.24,-66.98 -0.61,-9.54 -0.61,-9.54 -0.61,-9.54 0,0 8.96,46.5 19.13,57.48 10.17,10.98 24.81,18.71 26.84,26.03 2.03,7.32 53.68,105.73 53.68,105.73 0,0 6.91,9.66 11.78,9.05 4.87,-0.61 2.84,2.03 -4.06,6.09 -6.9,4.06 -12.58,9.54 -9.13,14.41 3.45,4.87 9.34,8.73 18.27,3.25 8.93,-5.48 24.56,-18.47 24.56,-18.47 0,0 10.16,20.38 8.37,25.8 -1.79,5.42 -44.55,25.66 -47.75,24.12 -3.19,-1.54 -12.41,-12.01 -12.41,-12.01 0,0 -19.23,-41.73 -14.39,-43.33 4.84,-1.59 -89.51,-116.68 -89.51,-116.68 0,0 -18.01,29.64 -13.28,66.67 4.74,37.03 53.7,201.85 53.7,201.85 0,0 -19.36,21.84 -17.74,45.45 1.63,23.61 0.3,43.13 0.3,43.13l-75.85 -104.56 -6.05 -89.31 -48.74 -0.31 -14.88 96.76 -85.82 117.53 -30.16 7.3 62.84 -417.86c0,0 -13.62,61.69 -17.49,68.73 -3.87,7.03 -21.56,29.9 -30.08,33.45 -8.52,3.55 -57.43,4.4 -64.53,4.32 -7.11,-0.09 -23.04,-4.16 -23.26,-8.24 -0.22,-4.08 -0.22,-4.08 -0.22,-4.08l-0.65 -15.28z"/>
   <path class="fil18" d="M180.12 262.97c0,0 8.11,2.81 16.04,21.05 7.92,18.24 -4.45,48.9 -4.45,48.9 22.81,-0.38 46.77,-0.62 52.23,-3.01 6.51,-2.85 26.84,-21.55 32.13,-34.57 5.29,-13.01 17.49,-68.73 17.49,-68.73 0,0 -60.51,395.35 -62.14,411.63l-0.11 1.03 30.92 -3.95 93.54 -128.11c18.62,-25.49 18.71,-72.83 29.28,-69.17 8.94,3.09 9.45,33.82 22.65,60.45 1.56,2.77 3.17,5.64 4.83,8.57 1.19,1.86 2.46,3.68 3.82,5.44 21.96,28.47 76.45,108.58 95.97,129.72 4.58,4.96 8.64,9.29 12.18,13.02l20.96 -3.66 -49 -168.37 -40.38 -151.06c0,0 -1.5,-33.15 4.6,-51.86 6.1,-18.71 8.54,-20.33 8.54,-20.33l86.11 112.25 1.14 -0.73c0,0 -3.64,-26.1 39.45,-29.75l0 0c-9.4,-18.45 -49.33,-108.55 -78.71,-155.79 -32.13,-51.65 -40.26,-87.02 -59.37,-93.94 -19.11,-6.91 -138.86,-5.25 -138.86,-5.25 -53.38,18.27 -78.62,45.14 -87.57,76.07 -8.96,30.94 -9.77,74.9 -9.77,74.9l-41.52 25.24z"/>
   <path class="fil19" d="M198.66 294.92l4.67 7.65c0,0 25.62,2.03 32.13,-3.66 6.51,-5.69 21.15,-21.55 23.18,-46.76 2.03,-25.21 -3.66,-30.5 -6.51,-47.17 -2.85,-16.68 4.47,-24.4 4.47,-24.4 0,0 -4.07,16.67 2.85,26.43 6.91,9.76 13.83,10.98 18.3,6.51 4.47,-4.47 14.64,-69.95 14.64,-69.95 0,0 -5.29,0.81 -6.51,-7.32 -1.22,-8.13 2.03,-16.27 2.03,-16.27 0,0 -9.49,-5.52 -8.13,-10.98 0.95,-3.84 1.9,-5.37 2.39,-5.93 0.49,-0.28 0.98,-0.55 1.47,-0.83l28.76 -13.09 0.05 -0.02 130.51 0.69 0.06 0 14.07 2.5c0,0 6.1,10.57 2.85,15.86 -3.25,5.29 2.44,2.03 -0.41,16.27 -2.85,14.23 -10.57,15.86 -10.57,15.86 0,0 4.07,13.01 0,17.89 -4.07,4.88 -18.71,8.13 -18.71,8.13 0,0 3.25,5.29 -4.07,6.1 -7.32,0.82 -3.25,8.95 -9.35,11.8 -6.1,2.85 -16.13,3.91 -16.13,3.91 0,0 -1.22,9.74 -8.52,11.16 -7.31,1.42 -12.18,-0.41 -12.18,-0.41 0,0 2.84,1.62 -5.68,4.67 -8.52,3.04 -20.7,4.67 -23.14,-0.61 -2.44,-5.28 -1.02,-8.52 -6.9,-8.12 -5.88,0.4 -14,-1.42 -15.83,-6.9 -1.83,-5.48 -2.44,-5.07 -6.09,-6.49 -3.65,-1.42 -5.28,-1.83 -5.28,-1.83 0,0 2.43,45.26 5.07,59.06 2.64,13.8 7.92,20.3 7.92,20.3l35.31 0.2 5.07 -46.68 8.52 48.1c0,0 54.8,4.67 74.49,-5.28 19.69,-9.95 30.85,-57.44 30.24,-66.98 -0.61,-9.54 -0.61,-9.54 -0.61,-9.54 0,0 8.96,46.5 19.12,57.48 10.17,10.98 24.81,18.71 26.84,26.02 1.44,5.19 27.77,56.07 43.01,85.32 -18.49,8.79 -16.35,24.17 -16.35,24.17l-0 0c-9.87,-15.54 -47.5,-62.54 -69.99,-90.32l-16.5 -21.51c0,0 -0.16,0.11 -0.51,0.6l-0.24 -0.3c0,0 -1.51,1.01 -5.11,10.52 0,0 -4.57,10.01 -6.37,29.15 -1.62,16.1 -0.89,32.22 -0.89,32.22l1.37 5.11c0.2,1.87 0.43,3.78 0.69,5.72 8.05,28.59 20.32,73.48 30.77,111.98l7.55 28.25 1.55 5.31c6.44,23.8 10.87,40.26 10.87,40.26 0,0 -19.36,21.84 -17.74,45.45 1.39,20.14 0.63,37.3 0.37,41.91 -24.55,-32.8 -58.84,-82.49 -75.16,-103.65 -1.36,-1.76 -2.64,-3.58 -3.82,-5.44 -1.66,-2.93 -3.27,-5.8 -4.83,-8.57 -13.21,-26.63 -13.72,-57.35 -22.65,-60.45 -10.57,-3.66 -10.67,43.68 -29.28,69.17l-8.13 11.13 -1.7 1.6 -59.17 81.03 -25.13 34.42 -7.95 1.02c0,0 43.7,-90.77 34.74,-143.69 -5.39,-31.82 -13.77,-47.35 -26.12,-61.28 15.59,-102.62 31.24,-204.83 31.24,-204.83 0,0 -0.84,3.83 -2.17,9.72l1.42 -9.41 -0.01 0.04 0 0 -0.01 0.03c-0.23,1.02 -3.12,14.09 -6.55,28.61l-0.19 0.8c-3.71,15.56 -8.08,32.74 -10.73,39.24 -2.57,4.68 -11.26,16.36 -19.3,24.7 -4.11,3.86 -8.01,7 -10.79,8.74 -3.95,1.64 -16.56,2.7 -29.67,3.37 -7.51,0.2 -15.75,0.32 -23.84,0.45 0,0 8.29,-20.55 6.95,-38.01z"/>
   <path class="fil18" d="M339.14 280.79c6.09,12.79 9.13,15.22 9.13,15.22l21.31 -5.68 2.23 -18.67 2.64 19.48 32.68 4.26 -30.24 0.2 0.2 8.73 27.2 5.07 -27.2 0.81 -0.2 6.49c0,0 4.26,9.13 26.59,10.76 22.33,1.62 39.78,0.81 39.78,0.81 0,0 -9.95,-58.65 -61.29,-62.31 -51.35,-3.65 -42.82,14.82 -42.82,14.82z"/>
   <path class="fil18" d="M350.92 299.47c9.54,-3.45 18.06,-3.45 18.06,-3.45l0.2 8.52 -11.37 3.04 -6.9 -8.12z"/>
   <g>
    <path class="fil0" d="M344.5 261.71l-1.78 1.78c-1.34,0.64 -5.34,1.2 -5.34,2.37 0,1.59 0.86,1.75 1.78,2.39l4.74 -0.61c1.72,-2.56 22.16,-16.01 25.49,-16.01 2.72,0 14.13,4.82 16.25,6.28 4.4,3.01 9.85,5.87 12.31,10.45l7.47 -6.08 -0.46 -0.57c-1.33,0.31 -1.36,0.59 -2.96,0.59l-2.37 0 -0.02 -1.26 -2.35 0.67c-1.34,-2.01 -8.33,-7.34 -10.78,-8.78 -4.97,-2.93 -7.44,-4.35 -10.09,-9.07l-2.25 -12.98c-0.03,-0.23 3.56,-12.24 3.56,-12.45l0 -6.52c2.4,-0.2 4.15,-1.08 4.15,-3.56 0,-1.51 -1.28,-3.56 -2.96,-3.56l-1.18 0c-1.68,0 -2.97,2.05 -2.97,3.56 0,2.59 1.19,2.15 1.19,4.74l0 1.78c0,0.56 -3.63,11.07 -4.15,11.86 -0.56,-0.37 -3.81,-2.96 -4.15,-2.96 -0.9,0 -3.09,0.91 -3.09,1.8l0.72 5.32c-5.87,3.11 -7.18,15.26 -14.28,15.77l2.47 0.27 -0.65 1.01 5.34 0.15c-0.31,-1.33 -0.59,-1.36 -0.59,-2.97 0,-1.32 6.35,-7.71 6.52,-7.71 1.91,0 2.37,2.33 2.37,4.15 0,1.64 -0.46,1.43 -1.78,1.78l0 2.37c0,1.19 -7.9,7.51 -9.37,8.42 -1.88,1.17 -10.74,7.57 -10.79,7.58z"/>
    <path class="fil0" d="M326.12 276.53l10.08 0c1.36,0 1.78,0.41 1.78,1.78l0 4.15c0,1.37 -0.41,1.78 -1.78,1.78l-10.08 0 0 -7.7zm-4.74 7.11c0,2.51 0.82,0.31 1.78,2.96l16.01 0c1.1,0 3.56,-1.47 3.56,-2.96l0 -5.93c0,-1.6 -0.28,-1.64 -0.59,-2.97 -1.33,-0.31 -1.36,-0.59 -2.97,-0.59l-14.82 0c-1.93,0 -0.45,0.51 -2.96,1.18l0 8.3z"/>
    <path class="fil0" d="M353.39 275.94l6.52 0c2.11,0 4.74,0.29 4.74,2.37 0,1.12 -2.19,1.78 -3.56,1.78l-7.7 0 0 -4.15zm-4.15 10.08l4.08 -0 0.66 -4.15 5.34 0 5.31 4.18 4.77 -0.03 -4.91 -4.54c2.07,-0.36 4.91,-1.21 4.91,-3.17l0 -0.59c0,-2.42 -3.94,-3.56 -6.52,-3.56l-13.64 0 0 11.86z"/>
    <path class="fil0" d="M379.48 276.53l11.86 0 0 7.7 -11.86 0 0 -7.7zm14.82 9.49c1.07,-0.93 1.78,-0.71 1.78,-2.37l0 -7.11c0,-1.64 -0.46,-1.43 -1.78,-1.78l-18.97 0 0 11.27 18.97 0z"/>
    <path class="fil0" d="M429.87 277.72c3.3,0.88 8.53,8.3 12.45,8.3l2.97 0 0 -11.27 -4.15 0 0 8.3c-1.81,-1.21 -10.58,-8.89 -11.86,-8.89l-3.56 0 0 11.86 4.15 0 0 -8.3z"/>
    <path class="fil0" d="M410.62 276.36l3.46 5.37 -6.81 0.09 3.36 -5.46zm-7.43 9.66c2.18,0 1.38,-1.78 3.56,-1.78l9.49 0 0.56 1.79 4.77 -0.01 -8.01 -11.64 -4.44 -0.21c-1.88,0 -8.39,9.7 -8.89,11.86l2.96 0z"/>
    <polygon class="fil0" points="310.11,283.65 308.34,284.24 297.66,284.83 297.66,286.02 311.3,286.02 313.67,286.02 314.86,284.24 314.86,274.75 310.71,274.75 "/>
    <polygon class="fil0" points="311.3,286.02 297.66,286.02 297.66,284.83 308.34,284.24 297.07,284.24 297.07,286.61 "/>
   </g>
   <path class="fil20" d="M198.66 294.92l4.67 7.65c0,0 25.62,2.03 32.13,-3.66 6.51,-5.69 21.15,-21.55 23.18,-46.76 2.03,-25.21 -3.66,-30.5 -6.51,-47.17 -2.85,-16.68 4.47,-24.4 4.47,-24.4 0,0 -4.07,16.67 2.85,26.43 6.91,9.76 13.83,10.98 18.3,6.51 4.47,-4.47 14.64,-69.95 14.64,-69.95 0,0 -5.29,0.81 -6.51,-7.32 -1.22,-8.13 2.03,-16.27 2.03,-16.27 0,0 -9.49,-5.52 -8.13,-10.98 0.95,-3.84 1.9,-5.37 2.39,-5.93 0.49,-0.28 0.98,-0.55 1.47,-0.83l28.76 -13.09 0.05 -0.02 130.51 0.69 0.06 0 14.07 2.5c0,0 6.1,10.57 2.85,15.86 -3.25,5.29 2.44,2.03 -0.41,16.27 -2.85,14.23 -10.57,15.86 -10.57,15.86 0,0 4.07,13.01 0,17.89 -4.07,4.88 -18.71,8.13 -18.71,8.13 0,0 3.25,5.29 -4.07,6.1 -7.32,0.82 -3.25,8.95 -9.35,11.8 -6.1,2.85 -16.13,3.91 -16.13,3.91 0,0 -1.22,9.74 -8.52,11.16 -7.31,1.42 -12.18,-0.41 -12.18,-0.41 0,0 2.84,1.62 -5.68,4.67 -8.52,3.04 -20.7,4.67 -23.14,-0.61 -2.44,-5.28 -1.02,-8.52 -6.9,-8.12 -5.88,0.4 -14,-1.42 -15.83,-6.9 -1.83,-5.48 -2.44,-5.07 -6.09,-6.49 -3.65,-1.42 -5.28,-1.83 -5.28,-1.83 0,0 2.43,45.26 5.07,59.06 2.64,13.8 7.92,20.3 7.92,20.3l35.31 0.2 5.07 -46.68 8.52 48.1c0,0 54.8,4.67 74.49,-5.28 19.69,-9.95 30.85,-57.44 30.24,-66.98 -0.61,-9.54 -0.61,-9.54 -0.61,-9.54 0,0 8.96,46.5 19.12,57.48 10.17,10.98 24.81,18.71 26.84,26.02 1.44,5.19 27.77,56.07 43.01,85.32 -18.49,8.79 -16.35,24.17 -16.35,24.17l-0 0c-9.87,-15.54 -47.5,-62.54 -69.99,-90.32l-16.5 -21.51c0,0 -0.16,0.11 -0.51,0.6l-0.24 -0.3c0,0 -1.51,1.01 -5.11,10.52 0,0 -4.57,10.01 -6.37,29.15 -0.85,8.44 -1.06,16.89 -1.06,23.02 -2.53,0.41 -7.1,1.11 -13.41,1.88 -3.07,-12.61 -16.74,-55.75 -60.55,-58.86 -51.35,-3.65 -42.82,14.82 -42.82,14.82 6.09,12.79 9.13,15.22 9.13,15.22l21.31 -5.68 2.23 -18.67 2.64 19.48 32.68 4.26 -30.24 0.2 0.2 8.73 27.2 5.07 -27.2 0.81 -0.2 6.49c0,0 4.26,9.13 26.59,10.76 1.67,0.12 3.32,0.23 4.93,0.33 -32.97,1.81 -79.22,1.47 -129.13,-7.76 8.27,-54.22 14.27,-93.42 14.27,-93.42 0,0 -0.84,3.83 -2.17,9.72l1.42 -9.41 -0.01 0.04 0 0 -0.01 0.03c-0.23,1.02 -3.12,14.09 -6.55,28.61l-0.19 0.8c-3.71,15.56 -8.08,32.74 -10.73,39.24 -2.57,4.68 -11.26,16.36 -19.3,24.7 -4.11,3.86 -8.01,7 -10.79,8.74 -3.95,1.64 -16.56,2.7 -29.67,3.37 -7.51,0.2 -15.75,0.32 -23.84,0.45 0,0 8.29,-20.55 6.95,-38.01zm152.26 4.55c9.54,-3.45 18.06,-3.45 18.06,-3.45l0.2 8.52 -11.37 3.04 -6.9 -8.12zm107.26 43.65c8.05,28.59 20.3,73.42 30.74,111.87l7.55 28.25 1.55 5.31c6.44,23.8 10.87,40.26 10.87,40.26 0,0 -19.36,21.84 -17.74,45.45 1.39,20.14 0.63,37.3 0.37,41.91 -24.55,-32.8 -58.84,-82.49 -75.16,-103.65 -1.36,-1.76 -2.64,-3.58 -3.82,-5.44 -1.66,-2.93 -3.27,-5.8 -4.83,-8.57 -13.21,-26.63 -13.72,-57.35 -22.65,-60.45 -10.57,-3.66 -10.67,43.68 -29.28,69.17l-8.13 11.13 -1.7 1.6 -59.17 81.03 -25.13 34.42 -7.95 1.02c0,0 43.7,-90.77 34.74,-143.69 -5.39,-31.82 -13.77,-47.35 -26.12,-61.28 4.96,-32.65 9.93,-65.26 14.39,-94.55 10.98,2.68 58.03,10.97 93.63,10.43 34.12,-0.52 75.99,-3.37 87.85,-4.22z"/>
   <path class="fil16 str1" d="M627.94 393.92c9.87,20.48 13.7,31.7 11.23,33.11 -2.47,1.42 -9.8,5.85 -14.76,3.96 -4.97,-1.89 -14.4,-21.45 -15.14,-26.72 -0.74,-5.28 10.53,-12.74 18.67,-10.35z"/>
   <path class="fil16 str1" d="M609.03 403.05c9.87,20.48 13.71,31.69 11.24,33.11 -2.46,1.41 -9.77,5.84 -14.72,3.94 -4.95,-1.89 -14.39,-21.45 -15.13,-26.73 -0.75,-5.27 10.49,-12.72 18.61,-10.32z"/>
   <path class="fil16 str1" d="M587.63 408.66c7.94,16.48 11.04,25.51 9.06,26.64 -1.98,1.14 -7.84,4.69 -11.82,3.16 -3.98,-1.53 -11.57,-17.27 -12.17,-21.51 -0.6,-4.24 8.41,-10.22 14.94,-8.29z"/>
   <path class="fil21" d="M313.39 76.1c-0.72,1.62 -2.37,2.75 -4.28,2.75 -2.58,0 -4.67,-2.05 -4.67,-4.57 0,-2.27 1.7,-4.16 3.93,-4.51 -0.18,-0.73 -0.28,-1.5 -0.28,-2.29 0,-5.38 4.45,-9.74 9.95,-9.74 0.16,0 0.32,0 0.48,0.01 -0.05,-0.3 -0.07,-0.61 -0.07,-0.93 0,-3.19 2.41,-5.78 5.39,-5.78 0.4,0 0.79,0.05 1.17,0.14 -0.04,-0.28 -0.06,-0.56 -0.06,-0.85 0,-2.47 1.52,-4.62 3.78,-5.75 -0.34,-0.96 -0.53,-1.99 -0.53,-3.08 0,-4.3 2.96,-7.85 6.8,-8.44 -0.2,-0.52 -0.3,-1.07 -0.3,-1.64 0,-2.84 2.62,-5.14 5.85,-5.14 3.24,0 5.86,2.3 5.86,5.14 0,2.28 -1.69,4.21 -4.02,4.88 1.03,1.44 1.64,3.24 1.64,5.2 0,3.34 -1.79,6.23 -4.38,7.63 0.08,0.39 0.12,0.79 0.12,1.2 0,3.64 -3.32,6.6 -7.41,6.6 -1.12,0 -2.19,-0.22 -3.14,-0.62 0.01,0.17 0.02,0.34 0.02,0.52 0,2.26 -1.21,4.21 -2.97,5.17 1.09,1.56 1.73,3.46 1.73,5.49 0,5.38 -4.45,9.74 -9.95,9.74 -1.68,0 -3.26,-0.41 -4.65,-1.13zm92.32 -32.99c-0.1,3.39 -2.88,6.11 -6.29,6.11 -3.48,0 -6.29,-2.82 -6.29,-6.29 0,-2.14 1.07,-4.03 2.7,-5.16 -1.74,-1.07 -2.9,-3 -2.9,-5.19 0,-3.36 2.73,-6.09 6.09,-6.09 3.36,0 6.09,2.73 6.09,6.09 0,0.17 -0.01,0.34 -0.02,0.51 0.33,-0.07 0.68,-0.11 1.04,-0.11 2.8,0 5.07,2.27 5.07,5.07l0 0.12c0.4,-0.08 0.81,-0.12 1.23,-0.12 3.48,0 6.3,2.82 6.3,6.3 0,1.71 -0.69,3.27 -1.8,4.4 1.77,0.88 2.99,2.71 2.99,4.82 0,2.97 -2.41,5.38 -5.38,5.38 -2.97,0 -5.38,-2.41 -5.38,-5.38 0,-1.24 0.42,-2.38 1.13,-3.29 -2.43,-0.87 -4.17,-3.2 -4.17,-5.93 0,-0.42 0.04,-0.83 0.12,-1.23l-0.12 0c-0.14,0 -0.27,-0 -0.41,-0.02z"/>
   <path class="fil16" d="M397.23 36.63c1.8,-3.67 4.77,-2.53 5.23,-0.46 0.46,2.06 -1.25,3.09 -0.83,5.29 0.42,2.21 -1.44,2.84 -2.08,2.72 -0.64,-0.12 -3.57,-0.65 -2.33,-7.55z"/>
   <path class="fil22" d="M303.92 83.08c0.23,0 0.46,0.01 0.68,0.03 -0.49,-0.87 -0.77,-1.87 -0.77,-2.94 0,-3.31 2.68,-5.99 5.99,-5.99l0.21 0c0.39,-1.66 1.82,-2.91 3.57,-3.04 0.25,-2.96 2.74,-5.29 5.76,-5.29 0.89,0 1.73,0.2 2.48,0.56 0.57,-2.41 2.74,-4.21 5.33,-4.21 0.73,0 1.42,0.14 2.05,0.4 -0.01,-0.23 -0.02,-0.47 -0.02,-0.7 0,-5.15 3.4,-9.52 8.09,-10.96 0.57,-2.32 2.48,-4.11 4.87,-4.49 0.23,-3.23 -1.23,-5.4 -2.62,-9.06 -1.63,-4.29 0.1,-10.41 4.68,-13.07 0.93,-0.54 2.96,-0.97 5.66,-1.32 -1.78,-0.35 -3.12,-1.92 -3.12,-3.8 0,-2.14 1.73,-3.87 3.87,-3.87l0.13 0c-0.02,-0.15 -0.03,-0.31 -0.03,-0.46 0,-2.06 1.67,-3.73 3.73,-3.73 0.89,0 1.71,0.31 2.35,0.84 0.29,-1.3 1.45,-2.27 2.83,-2.27 0.46,0 0.9,0.11 1.28,0.3 -0.07,-0.21 -0.11,-0.43 -0.11,-0.66 0,-1.33 1.3,-2.4 2.9,-2.4 0.24,0 0.47,0.02 0.69,0.07 -0.02,-0.1 -0.03,-0.21 -0.03,-0.32 0,-1.32 1.3,-2.4 2.9,-2.4 1.6,0 2.9,1.07 2.9,2.4l0 0.09c0.39,-0.22 0.85,-0.34 1.33,-0.34 0.64,0 1.23,0.22 1.7,0.59 0.43,-1.24 1.6,-2.12 2.98,-2.12 1.7,0 3.09,1.35 3.15,3.03 0.2,-0.05 0.4,-0.07 0.61,-0.07 1.41,0 2.55,1.14 2.55,2.55l-0 0.16c0.52,-0.42 1.17,-0.67 1.89,-0.67 0.44,0 0.85,0.09 1.23,0.26 0.51,-0.77 1.39,-1.28 2.38,-1.28 1.57,0 2.85,1.28 2.85,2.85 0,0.64 -0.21,1.22 -0.56,1.7 1.18,0.68 1.98,1.96 1.98,3.43 0,0.88 -0.29,1.69 -0.77,2.35 0.55,0.68 0.87,1.54 0.87,2.48 0,0.83 -0.26,1.6 -0.7,2.24 3.52,0.83 6.2,2.09 6,5.79 -0.31,5.51 -3.16,5.82 -1.43,8.07 0.81,1.05 1.82,2.74 2.66,4.25 0.96,-0.97 2.28,-1.56 3.75,-1.56 2.91,0 5.28,2.36 5.28,5.28 0,0.12 -0,0.24 -0.01,0.36 0.43,-0.1 0.87,-0.15 1.33,-0.15 3.19,0 5.78,2.59 5.78,5.78 0,0.78 -0.15,1.52 -0.43,2.19 0.52,-0.17 1.07,-0.26 1.65,-0.26 2.91,0 5.28,2.36 5.28,5.28 0,0.12 -0,0.23 -0.01,0.35 1.23,-0.61 2.61,-0.96 4.07,-0.96 5.04,0 9.13,4.09 9.13,9.13 0,2.3 -0.85,4.41 -2.26,6.01 1.17,-0.48 2.45,-0.74 3.78,-0.74 5.55,0 10.05,4.5 10.05,10.05 0,3.05 -1.36,5.78 -3.5,7.62 5.69,1.07 10,6.06 10,12.07 0,5.78 -3.99,10.63 -9.37,11.93 3.03,2.98 4.91,7.13 4.91,11.71 0,5.89 -3.1,11.07 -7.77,13.97 0.82,1.67 1.27,3.54 1.27,5.52 0,6.95 -5.64,12.58 -12.58,12.58 -0.98,0 -1.93,-0.11 -2.84,-0.32l0 0.12c0,4.59 -3.73,8.32 -8.32,8.32 -1.06,0 -2.07,-0.2 -3,-0.56 0.5,1.45 0.77,3 0.77,4.62 0,7.85 -6.36,14.21 -14.21,14.21 -1.81,0 -3.55,-0.34 -5.15,-0.96 -0.69,6.58 -6.25,11.72 -13.02,11.72 -0.83,0 -1.64,-0.08 -2.43,-0.23 -1.54,1.52 -3.65,2.46 -5.99,2.46 -2.09,0 -4,-0.75 -5.48,-2 -2.48,2.37 -5.84,3.82 -9.53,3.82 -7.62,0 -13.8,-6.18 -13.8,-13.8 0,-0.45 0.02,-0.9 0.06,-1.34 -1.36,0.47 -2.81,0.73 -4.33,0.73 -6.6,0 -12.07,-4.85 -13.04,-11.19 -1.47,0.54 -3.06,0.83 -4.72,0.83 -7.56,0 -13.7,-6.13 -13.7,-13.7 0,-3.49 1.3,-6.67 3.45,-9.08 -0.7,-0.46 -1.32,-1.01 -1.84,-1.64 -0.61,0.18 -1.25,0.27 -1.91,0.27 -3.76,0 -6.8,-3.09 -6.8,-6.9 0,-0.19 0.01,-0.39 0.02,-0.58 -3.47,-2.24 -5.77,-6.17 -5.77,-10.64 0,-2.42 0.68,-4.69 1.85,-6.61 -3.13,-1.74 -5.24,-5 -5.24,-8.72 0,-2.55 0.99,-4.88 2.62,-6.66 -2.04,-1.64 -3.36,-4.16 -3.36,-6.98 0,-3.75 2.31,-6.97 5.59,-8.3 -1.44,-1.26 -2.34,-3.09 -2.34,-5.12 0,-3.82 3.19,-6.91 7.12,-6.91zm58.62 -70.75l1.19 -0.56c-0.51,0 -1,-0.11 -1.41,-0.3 0.12,0.27 0.19,0.56 0.23,0.86z"/>
   <path class="fil16" d="M339.17 37.96c-3.31,-2.4 -5.4,0 -4.84,2.04 0.56,2.04 2.55,2.14 3.21,4.29 0.66,2.15 2.6,1.84 3.11,1.43 0.51,-0.41 2.85,-2.24 -1.48,-7.76z"/>
   <path class="fil16" d="M360.66 43.94c-6.29,0.81 -16.64,-3.25 -15.02,-6.29 1.62,-3.05 3.45,-2.03 14.41,-0.41 10.96,1.62 27.2,-3.65 29.23,-1.62 2.03,2.03 0.41,7.51 -5.68,7.71 -6.09,0.2 -10.76,-1.01 -9.34,2.03 1.42,3.04 3.25,6.9 -4.67,6.49 -7.91,-0.41 -9.13,-0.2 -7.91,-4.26 1.22,-4.06 -1.02,-3.65 -1.02,-3.65z"/>
   <polygon class="fil23" points="338.92,11.57 341.73,26.39 397.03,26.82 399.01,10.85 390.46,18.1 385.57,18.1 382.82,12.69 380.47,18.3 372.53,18.41 368.66,9.83 365.5,18.2 359.19,18.2 355.42,13.4 352.98,18.81 347.78,18.61 "/>
   <path class="fil11" d="M357.02 38.31c1.25,0 2.27,1.02 2.27,2.27 0,1.25 -1.01,2.27 -2.27,2.27 -1.25,0 -2.27,-1.02 -2.27,-2.27 0,-1.25 1.01,-2.27 2.27,-2.27z"/>
   <path class="fil11" d="M380.58 37.78c1.25,0 2.27,1.02 2.27,2.27 0,1.25 -1.01,2.27 -2.27,2.27 -1.25,0 -2.27,-1.02 -2.27,-2.27 0,-1.25 1.01,-2.27 2.27,-2.27z"/>
   <path class="fil0" d="M354.58 126.58c7.51,1.67 13.47,7.43 15.43,14.83 3.18,-1.87 6.87,-2.94 10.82,-2.94 1.32,0 2.62,0.12 3.88,0.35 0.5,-5.5 5.13,-9.81 10.76,-9.81 5.97,0 10.81,4.84 10.81,10.81 0,4.47 -2.71,8.3 -6.58,9.95 1.61,3.01 2.53,6.44 2.53,10.09 0,11.81 -9.58,21.39 -21.39,21.39 -6.24,0 -11.86,-2.67 -15.77,-6.94 -0.58,0.12 -1.18,0.18 -1.79,0.18 -4.48,0 -8.18,-3.36 -8.71,-7.69 -1.44,0.32 -2.93,0.49 -4.46,0.49 -2.66,0 -5.2,-0.51 -7.53,-1.42 -1.6,0.9 -3.45,1.42 -5.42,1.42 -5.86,0 -10.66,-4.58 -11.01,-10.36l-0.02 0c-6.46,0 -11.7,-5.24 -11.7,-11.71 0,-4.35 2.38,-8.15 5.91,-10.17 -2.26,-2.31 -3.65,-5.48 -3.65,-8.97 0,-1.18 0.16,-2.32 0.46,-3.41 -3.99,-1.66 -6.76,-5.36 -6.76,-9.65 0,-3.1 1.45,-5.88 3.75,-7.82 -0.18,0.02 -0.36,0.03 -0.55,0.03 -2.51,0 -4.55,-2.04 -4.55,-4.55 0,-2.51 2.04,-4.55 4.55,-4.55 0.72,0 1.4,0.17 2,0.46 -0.04,-0.4 -0.06,-0.8 -0.06,-1.21 0,-6.72 5.32,-12.19 11.98,-12.44 0.17,-3.3 2.62,-5.99 5.81,-6.53 -0.27,-0.58 -0.42,-1.22 -0.42,-1.9 0,-2.49 2.02,-4.5 4.5,-4.5 2.49,0 4.5,2.02 4.5,4.5 0,1.72 -0.96,3.21 -2.37,3.97 1.19,1.25 1.92,2.95 1.92,4.81 0,2.3 -1.11,4.34 -2.83,5.61 1.15,1.89 1.81,4.1 1.81,6.47l-0 0.05c5.81,0.53 10.36,5.41 10.36,11.36 0,2.67 -0.92,5.12 -2.46,7.07 3.89,1.64 6.62,5.48 6.62,9.97 0,0.95 -0.12,1.87 -0.35,2.74zm-37.3 -23.26c0.27,-0.11 0.55,-0.21 0.83,-0.3 -0.13,-0.17 -0.26,-0.34 -0.38,-0.51 -0.12,0.29 -0.28,0.56 -0.45,0.81z"/>
   <path class="fil23" d="M142.2 290.33c9.05,80.95 22.22,143.48 22.22,143.48l7.06 -10.52c0,0 10.7,92.24 15.66,109.76 4.96,17.52 4.96,17.52 4.96,17.52l8.98 -7.43c0,0 6.18,51.77 15.67,93.39 9.49,41.62 19.69,68.44 19.69,68.44 0,0 -23.3,-110.64 -25.85,-169.32 -2.54,-58.67 -0.56,-60.5 -0.56,-60.5l-14.27 19.41c0,0 -2.03,6.75 -5.22,-58.41 -3.18,-65.16 -3.18,-65.16 -3.18,-65.16l-15.28 14.6c0,0 -5.81,-20.71 -11.49,-116.72 -5.68,-96.01 -5.15,-96.06 -5.15,-96.06l-26.56 20.62 13.32 96.9z"/>
   <path class="fil23" d="M439.58 173.99c-3.91,2.7 -6.65,5.86 -6.65,5.86l0.88 1.09c0,0 -4.44,3.14 -5.15,4.25 -0.71,1.11 -0.71,1.11 -0.71,1.11l0.8 1.47c0,0 -2.48,1.79 -4.28,4.03 -1.79,2.23 -2.76,4.39 -2.76,4.39 0,0 4.85,-5.6 7.86,-6.85 3.01,-1.25 3.2,-0.94 3.2,-0.94l-1.68 -2.22c0,0 -0.45,-0.26 2.88,-1.72 3.33,-1.46 3.33,-1.46 3.33,-1.46l-1.47 -2.47c0,0 0.84,-1.3 5.71,-3.62 4.86,-2.32 4.89,-2.23 4.89,-2.23l-2.3 -4.36 -4.57 3.67z"/>
   <path class="fil16 str1" d="M158.31 276.94c-22.73,0 -34.5,1.42 -34.71,4.26 -0.2,2.84 -1.01,11.37 2.84,15.02 3.86,3.65 25.57,3.65 30.65,2.03 5.07,-1.62 6.9,-15.02 1.22,-21.31z"/>
   <path class="fil16 str1" d="M166.1 298.64c-22.73,0 -34.51,1.42 -34.71,4.25 -0.2,2.83 -1.02,11.33 2.84,14.98 3.86,3.64 25.57,3.64 30.65,2.02 5.07,-1.62 6.9,-14.98 1.22,-21.25z"/>
   <path class="fil16 str1" d="M170.34 320.36c-18.3,0 -27.77,1.14 -27.93,3.41 -0.16,2.27 -0.82,9.1 2.29,12.02 3.1,2.92 20.58,2.92 24.67,1.63 4.08,-1.3 5.55,-12.02 0.98,-17.05z"/>
   <path class="fil18" d="M275.86 319.41c3.43,0.52 -2.53,15.65 -1.51,16.77 1.02,1.12 55.79,11.77 95.98,11.16 40.19,-0.61 91.13,-4.46 91.13,-4.46 0,0 -4.06,-11.77 -3.86,-15.02 0.2,-3.25 0.61,-5.28 0.61,-5.28 0,0 -84.63,15.63 -182.35,-3.17z"/>
   <path class="fil15" d="M416.79 182.29c9.41,-7.5 36.26,-11.01 36.26,-11.01 0,0 -25.94,-0.61 -36.26,11.01z"/>
   <path class="fil15" d="M427.07 193.93c9.41,-7.5 36.26,-11.01 36.26,-11.01 0,0 -25.94,-0.61 -36.26,11.01z"/>
   <polygon class="fil24 str2" points="375.49,402.77 392.57,402.36 390.62,346.81 375.86,347.24 "/>
   <path class="fil25 str3" d="M383.31 560.63c69.52,0 125.9,56.38 125.9,125.9 0,69.52 -56.38,125.9 -125.9,125.9 -69.52,0 -125.9,-56.38 -125.9,-125.9 0,-69.52 56.38,-125.9 125.9,-125.9z"/>
   <path class="fil18 str3" d="M383.31 563.98c67.68,0 122.56,54.88 122.56,122.56 0,67.68 -54.88,122.56 -122.56,122.56 -67.68,0 -122.56,-54.88 -122.56,-122.56 0,-67.68 54.88,-122.56 122.56,-122.56z"/>
   <path class="fil25 str3" d="M383.31 567.89c65.52,0 118.65,53.13 118.65,118.65 0,65.52 -53.13,118.65 -118.65,118.65 -65.52,0 -118.65,-53.13 -118.65,-118.65 0,-65.52 53.13,-118.65 118.65,-118.65z"/>
   <path class="fil9" style="mask:url(#id16)" d="M267.92 115.76c-30.87,21.08 -36.14,53.46 -38.78,66.26 -2.64,12.8 23.72,-35.39 38.78,-66.26z"/>
   <path class="fil9" style="mask:url(#id18)" d="M184.44 262.63l38.72 -22.82c0,0 0.94,-1.5 8.61,0.94 7.67,2.43 12.35,10.1 12.35,10.1 0,0 -12.91,-6.36 -16.28,-6.36 -3.37,0 -7.11,7.48 -12.16,13.84 -5.05,6.36 -20.58,13.84 -20.58,13.84 0,0 -2.81,-7.3 -10.66,-9.54z"/>
   <g>
    <path class="fil0" d="M763.42 664.41c0.11,-0.12 0.22,-0.23 0.33,-0.35 1.64,-1.62 3.53,-2.91 5.65,-3.85 2.2,-0.96 4.55,-1.44 6.97,-1.46l45.16 0c2.36,0.02 4.65,0.47 6.83,1.38 2.17,0.91 4.11,2.21 5.78,3.88l3.64 3.65 -10.77 10.91c1.89,0.96 3.61,2.21 5.12,3.72 1.81,1.81 3.23,3.91 4.25,6.26 1.06,2.44 1.57,5.03 1.59,7.72 -0.02,2.69 -0.53,5.28 -1.59,7.72 -1.02,2.34 -2.45,4.44 -4.26,6.24 -1.81,1.79 -3.91,3.2 -6.26,4.22 -2.44,1.04 -5.03,1.55 -7.69,1.57l-44.32 0c-2.61,-0.02 -5.13,-0.54 -7.52,-1.57 -2.36,-1.01 -4.47,-2.45 -6.29,-4.26l-3.7 -3.67 12.45 -12.45 3.67 3.69c0.22,0.22 0.46,0.38 0.77,0.51 0.24,0.11 0.49,0.15 0.72,0.15l44.17 0c0.27,-0 0.51,-0.04 0.74,-0.14 0.29,-0.13 0.54,-0.3 0.79,-0.55 0.21,-0.21 0.39,-0.46 0.51,-0.73 0.1,-0.23 0.15,-0.46 0.15,-0.72 0,-0.25 -0.06,-0.5 -0.16,-0.74 -0.12,-0.29 -0.3,-0.54 -0.54,-0.78 -0.22,-0.23 -0.48,-0.41 -0.77,-0.55 -0.23,-0.1 -0.46,-0.14 -0.68,-0.14l-41.8 0c-2.31,-0.02 -4.58,-0.44 -6.73,-1.29 -2.11,-0.84 -4.01,-2.03 -5.67,-3.56 -0.2,-0.18 -0.39,-0.37 -0.58,-0.55 -0.14,2.58 -0.6,5.12 -1.42,7.58 -0.95,2.83 -2.3,5.49 -4.06,7.91 -1.74,2.4 -3.82,4.49 -6.2,6.26 -2.4,1.78 -5.06,3.16 -7.9,4.13 -2.94,1 -6.01,1.47 -9.13,1.49l-14.57 0c-3.11,-0.01 -6.17,-0.49 -9.11,-1.48 -2.85,-0.95 -5.52,-2.32 -7.93,-4.1 -2.15,-1.57 -4.04,-3.42 -5.69,-5.51l0 11.09 -144.76 0 0 -16.58 37.21 -23.14 -37.21 0 0 -17.6 156.22 0 0 28.42c0.01,1.5 0.28,2.95 0.88,4.33 0.59,1.37 1.4,2.58 2.46,3.64 1.05,1.05 2.27,1.87 3.64,2.46 1.38,0.6 2.83,0.87 4.31,0.88l14.52 0c1.5,-0.01 2.93,-0.28 4.31,-0.88 1.35,-0.59 2.54,-1.39 3.58,-2.45 1.04,-1.05 1.84,-2.25 2.42,-3.63 0.59,-1.38 0.86,-2.85 0.87,-4.34l0 -28.43 17.6 0 0 5.71zm-72.2 11.89l-52.25 0 0 0.17 51.12 0 0 17.6 -51.12 0 0 4.35 54.55 0c-0.3,-0.7 -0.57,-1.42 -0.82,-2.15 -0.99,-2.95 -1.47,-6.01 -1.48,-9.13l0 -10.84zm-69.85 1.12l-33.77 21 33.77 0 0 -21zm154.85 -1.09c0.04,0.05 0.1,0.09 0.18,0.13l41.78 0c1.47,0.01 2.92,0.17 4.34,0.49l-0.64 -0.59c-0.12,-0.05 -0.25,-0.06 -0.38,-0.06l-45.08 0c-0.06,0 -0.13,0 -0.21,0.03z"/>
   </g>
   <path class="fil26" d="M619.61 710.83l0 -7.21 -50.21 0 50.21 -31.22 0 -8.5 -61.8 0 0 7.21 50.22 0 -50.22 31.22 0 8.5 61.8 0zm72.56 0l0 -7.21 -58.39 0 0 -14.74 51.12 0 0 -7.21 -51.12 0 0 -10.56 54.79 0 0 -7.21 -62 0 0 46.93 65.6 0zm66.05 -23.69l0 -23.24 -7.21 0 0 23.24c-0.01,2.26 -0.44,4.4 -1.29,6.37 -0.84,1.98 -2.01,3.73 -3.51,5.25 -1.49,1.51 -3.23,2.7 -5.19,3.55 -1.97,0.86 -4.09,1.3 -6.36,1.31l-14.55 0c-2.27,-0.01 -4.4,-0.45 -6.37,-1.31 -1.98,-0.86 -3.73,-2.04 -5.25,-3.55 -1.51,-1.51 -2.69,-3.26 -3.55,-5.25 -0.86,-1.97 -1.3,-4.11 -1.31,-6.37l0 -23.24 -7.21 0 0 23.24c0.01,2.63 0.42,5.12 1.21,7.48 0.79,2.37 1.91,4.54 3.36,6.5 1.46,1.97 3.16,3.69 5.14,5.14 1.96,1.45 4.13,2.56 6.5,3.36 2.36,0.79 4.85,1.2 7.48,1.21l14.55 0c2.63,-0.01 5.12,-0.42 7.47,-1.21 2.36,-0.8 4.52,-1.93 6.47,-3.38 1.97,-1.46 3.66,-3.17 5.1,-5.14 1.44,-1.97 2.54,-4.14 3.34,-6.5 0.78,-2.36 1.18,-4.85 1.19,-7.46zm74.55 9.14c-0.01,-2.01 -0.4,-3.89 -1.16,-5.65 -0.76,-1.76 -1.81,-3.31 -3.15,-4.65 -1.34,-1.34 -2.89,-2.39 -4.65,-3.15 -1.76,-0.76 -3.64,-1.15 -5.65,-1.16l-41.78 0c-0.98,-0.01 -1.88,-0.27 -2.7,-0.77 -0.82,-0.5 -1.49,-1.17 -2,-2 -0.5,-0.83 -0.76,-1.73 -0.77,-2.7 0.01,-1 0.28,-1.88 0.79,-2.64 0.51,-0.76 1.17,-1.35 2,-1.79 0.82,-0.43 1.73,-0.64 2.68,-0.66l45.13 0c0.75,0 1.48,0.13 2.18,0.39 0.7,0.26 1.33,0.64 1.88,1.16l4.89 -4.96c-1.2,-1.2 -2.58,-2.11 -4.11,-2.76 -1.54,-0.64 -3.15,-0.97 -4.84,-0.98l-45.13 0c-1.74,0.01 -3.37,0.35 -4.89,1.02 -1.54,0.68 -2.89,1.6 -4.07,2.77 -1.17,1.18 -2.09,2.53 -2.77,4.06 -0.67,1.53 -1.01,3.17 -1.02,4.9 0.01,1.75 0.36,3.36 1.04,4.83 0.69,1.48 1.61,2.77 2.8,3.86 1.18,1.09 2.53,1.94 4.07,2.55 1.52,0.6 3.13,0.91 4.84,0.92l41.78 0c0.99,0.01 1.93,0.2 2.81,0.6 0.88,0.4 1.65,0.94 2.33,1.63 0.69,0.69 1.22,1.47 1.61,2.36 0.39,0.88 0.59,1.82 0.59,2.81 0,0.99 -0.21,1.92 -0.59,2.8 -0.39,0.88 -0.92,1.66 -1.61,2.34 -0.67,0.69 -1.45,1.21 -2.33,1.61 -0.88,0.39 -1.82,0.58 -2.81,0.59l-44.23 0c-0.98,-0.01 -1.91,-0.2 -2.79,-0.59 -0.89,-0.39 -1.67,-0.91 -2.36,-1.6l-5.09 5.09c1.37,1.36 2.93,2.42 4.68,3.17 1.75,0.75 3.57,1.14 5.49,1.15l44.29 0c2.02,-0.01 3.89,-0.4 5.65,-1.15 1.76,-0.76 3.31,-1.8 4.65,-3.13 1.34,-1.33 2.39,-2.88 3.15,-4.62 0.76,-1.76 1.15,-3.64 1.16,-5.64z"/>
   <polygon class="fil14" points="137.19,805.62 173.33,767.6 180.86,740.5 181.61,784.16 "/>
   <polygon class="fil14" points="251.26,752.17 234.32,767.98 233.19,795.08 207.21,837.62 238.46,796.21 239.97,769.48 260.29,777.01 251.26,767.6 "/>
   <polygon class="fil3" points="125.98,816.23 138.43,805.02 181.61,784.16 198.37,762.54 196.32,752.81 204.73,775.63 188.46,789.29 175.93,809.49 "/>
   <polygon class="fil3" points="712.65,773 741.4,835.02 730.81,847.13 688.45,800.23 691.41,741.53 714.92,794.33 "/>
   <polygon class="fil27" points="809.74,755.43 839.11,776 839.67,801.07 848.33,819.18 816.33,856.82 834.4,818.42 814.82,807.13 818.21,781.91 820.85,773.25 "/>
   <g>
    <path class="fil28" d="M419.01 782.48l0.64 1.37 9.69 -4.52 3.52 7.55 1.37 -0.64 -4.16 -8.91 -11.06 5.15zm-11.37 8.44l1.34 4.68 1.46 -0.42 -1.34 -4.68c-0.13,-0.46 -0.16,-0.91 -0.11,-1.36 0.06,-0.45 0.19,-0.87 0.4,-1.26 0.21,-0.39 0.49,-0.73 0.84,-1.02 0.35,-0.29 0.75,-0.5 1.21,-0.63l2.93 -0.84c0.46,-0.13 0.91,-0.16 1.36,-0.11 0.45,0.06 0.87,0.2 1.26,0.41 0.39,0.22 0.73,0.5 1.02,0.85 0.29,0.35 0.5,0.75 0.63,1.21l1.34 4.68 1.46 -0.42 -1.34 -4.68c-0.15,-0.53 -0.38,-1.01 -0.68,-1.44 -0.3,-0.43 -0.65,-0.8 -1.05,-1.12 -0.41,-0.31 -0.85,-0.56 -1.33,-0.74 -0.48,-0.18 -0.98,-0.28 -1.5,-0.3 -0.52,-0.02 -1.05,0.04 -1.58,0.19l-2.93 0.84c-0.53,0.15 -1.01,0.38 -1.43,0.67 -0.43,0.3 -0.8,0.65 -1.11,1.06 -0.31,0.41 -0.55,0.85 -0.73,1.33 -0.17,0.48 -0.27,0.98 -0.3,1.5 -0.02,0.52 0.04,1.05 0.19,1.57zm-5.84 -3.97l1.88 9.66 1.48 -0.29 1.52 -1.23 -0.33 -1.68 -1.52 1.23 -1.55 -7.97 -1.48 0.29zm-14.89 4.76c0.04,0.42 0.15,0.81 0.34,1.16 0.19,0.35 0.43,0.66 0.74,0.91 0.3,0.25 0.64,0.45 1.03,0.57 0.38,0.12 0.78,0.17 1.21,0.13l-2.47 2.46 0.13 1.48 12.91 -1.13 -0.13 -1.48 -10.55 0.92 2.44 -2.45 0 -0.01 3.29 -0.29 -0.13 -1.5 -5.62 0.49c-0.29,0.02 -0.55,-0.03 -0.79,-0.15 -0.24,-0.12 -0.44,-0.29 -0.6,-0.51 -0.16,-0.22 -0.25,-0.47 -0.27,-0.76 -0.02,-0.28 0.03,-0.54 0.14,-0.79 0.12,-0.24 0.29,-0.45 0.51,-0.6 0.22,-0.16 0.47,-0.25 0.75,-0.28l6.8 -0.6c0.4,-0.03 0.78,0 1.16,0.1 0.38,0.1 0.73,0.27 1.06,0.49 0.32,0.22 0.61,0.49 0.84,0.81l1.01 -1.18c-0.35,-0.4 -0.75,-0.74 -1.2,-1.01 -0.45,-0.27 -0.93,-0.47 -1.44,-0.59 -0.51,-0.12 -1.03,-0.16 -1.56,-0.12l-6.8 0.59c-0.42,0.04 -0.81,0.15 -1.16,0.34 -0.36,0.19 -0.66,0.43 -0.91,0.74 -0.26,0.3 -0.45,0.64 -0.57,1.02 -0.13,0.38 -0.17,0.78 -0.14,1.21z"/>
    <path class="fil29" d="M366.9 787.49l-0.13 1.51 10.65 0.93 -0.73 8.29 1.51 0.13 0.86 -9.8 -12.16 -1.06zm-14.12 1.73l-1.18 4.73 1.47 0.36 1.18 -4.73c0.12,-0.46 0.31,-0.88 0.59,-1.23 0.27,-0.36 0.6,-0.66 0.98,-0.89 0.38,-0.23 0.79,-0.38 1.24,-0.46 0.44,-0.07 0.9,-0.06 1.36,0.06l2.96 0.74c0.46,0.12 0.87,0.31 1.23,0.59 0.36,0.28 0.65,0.61 0.89,0.99 0.23,0.38 0.38,0.8 0.45,1.25 0.07,0.44 0.06,0.9 -0.06,1.36l-1.18 4.73 1.47 0.36 1.18 -4.73c0.13,-0.54 0.18,-1.06 0.13,-1.58 -0.04,-0.52 -0.16,-1.02 -0.35,-1.49 -0.2,-0.48 -0.46,-0.91 -0.79,-1.3 -0.33,-0.39 -0.71,-0.73 -1.15,-1.01 -0.44,-0.28 -0.92,-0.49 -1.46,-0.63l-2.96 -0.74c-0.53,-0.13 -1.06,-0.18 -1.58,-0.13 -0.52,0.05 -1.02,0.16 -1.49,0.36 -0.47,0.2 -0.9,0.46 -1.3,0.79 -0.39,0.33 -0.73,0.71 -1.01,1.15 -0.28,0.44 -0.49,0.93 -0.62,1.46zm-3.14 -6.35l-3.2 9.3 1.43 0.49 1.93 -0.3 0.56 -1.62 -1.93 0.3 2.64 -7.68 -1.43 -0.49zm-15.29 -3.28c-0.18,0.39 -0.27,0.78 -0.29,1.18 -0.01,0.4 0.05,0.79 0.18,1.16 0.14,0.37 0.34,0.71 0.61,1.01 0.27,0.3 0.59,0.54 0.98,0.72l-3.37 0.9 -0.63 1.35 11.74 5.48 0.63 -1.35 -9.6 -4.48 3.34 -0.9 0 -0.01 3 1.4 0.64 -1.37 -5.12 -2.39c-0.26,-0.12 -0.46,-0.3 -0.61,-0.52 -0.15,-0.22 -0.24,-0.47 -0.26,-0.74 -0.03,-0.27 0.02,-0.53 0.14,-0.79 0.12,-0.26 0.3,-0.46 0.52,-0.61 0.22,-0.15 0.47,-0.24 0.74,-0.27 0.27,-0.03 0.53,0.02 0.79,0.13l6.19 2.88c0.36,0.17 0.68,0.39 0.96,0.67 0.27,0.28 0.5,0.59 0.67,0.95 0.17,0.35 0.28,0.73 0.33,1.12l1.47 -0.52c-0.11,-0.52 -0.28,-1.01 -0.54,-1.47 -0.25,-0.46 -0.57,-0.87 -0.95,-1.23 -0.38,-0.36 -0.81,-0.66 -1.29,-0.88l-6.19 -2.89c-0.39,-0.18 -0.77,-0.27 -1.18,-0.28 -0.4,-0.01 -0.79,0.05 -1.16,0.18 -0.37,0.13 -0.71,0.33 -1.01,0.6 -0.3,0.26 -0.54,0.59 -0.72,0.97zm-15.17 -13.55l-0.89 1.22 8.65 6.28 -4.89 6.73 1.22 0.89 5.78 -7.96 -9.87 -7.17zm-13.23 -5.51l-3.38 3.5 1.09 1.05 3.39 -3.5c0.33,-0.34 0.71,-0.6 1.12,-0.77 0.42,-0.18 0.85,-0.27 1.29,-0.28 0.45,-0.01 0.88,0.06 1.3,0.22 0.42,0.16 0.8,0.4 1.15,0.73l2.19 2.12c0.34,0.33 0.6,0.71 0.77,1.12 0.17,0.42 0.27,0.85 0.27,1.3 0.01,0.45 -0.07,0.88 -0.23,1.31 -0.16,0.42 -0.4,0.81 -0.73,1.15l-3.38 3.5 1.09 1.05 3.38 -3.5c0.38,-0.4 0.68,-0.83 0.9,-1.3 0.23,-0.48 0.37,-0.96 0.44,-1.47 0.07,-0.51 0.06,-1.02 -0.03,-1.52 -0.08,-0.51 -0.25,-0.99 -0.49,-1.46 -0.24,-0.46 -0.55,-0.89 -0.95,-1.27l-2.19 -2.12c-0.4,-0.38 -0.83,-0.68 -1.3,-0.91 -0.47,-0.22 -0.96,-0.37 -1.47,-0.43 -0.51,-0.07 -1.01,-0.06 -1.52,0.03 -0.51,0.09 -0.99,0.25 -1.45,0.49 -0.46,0.24 -0.88,0.56 -1.27,0.95zm0.56 -6.94l-7.54 6.32 0.97 1.16 1.81 0.73 1.31 -1.1 -1.81 -0.73 6.22 -5.22 -0.97 -1.16zm-11.8 -10.46c-0.35,0.24 -0.62,0.54 -0.84,0.88 -0.21,0.34 -0.35,0.71 -0.42,1.1 -0.07,0.39 -0.06,0.78 0.02,1.18 0.08,0.39 0.24,0.76 0.49,1.11l-3.37 -0.9 -1.21 0.85 7.43 10.61 1.22 -0.85 -6.08 -8.68 3.34 0.89 0.01 -0.01 1.9 2.71 1.24 -0.87 -3.24 -4.62c-0.16,-0.24 -0.25,-0.49 -0.27,-0.76 -0.02,-0.27 0.03,-0.52 0.14,-0.77 0.12,-0.25 0.29,-0.45 0.52,-0.62 0.23,-0.16 0.49,-0.25 0.75,-0.27 0.27,-0.02 0.53,0.03 0.77,0.14 0.25,0.11 0.45,0.28 0.62,0.51l3.92 5.59c0.23,0.33 0.39,0.68 0.49,1.06 0.1,0.38 0.13,0.76 0.1,1.15 -0.03,0.39 -0.12,0.77 -0.28,1.14l1.53 0.28c0.17,-0.51 0.26,-1.02 0.27,-1.55 0.01,-0.52 -0.06,-1.04 -0.21,-1.54 -0.15,-0.5 -0.37,-0.97 -0.68,-1.41l-3.92 -5.59c-0.24,-0.34 -0.54,-0.62 -0.88,-0.83 -0.34,-0.21 -0.7,-0.35 -1.1,-0.42 -0.39,-0.07 -0.78,-0.06 -1.17,0.01 -0.39,0.08 -0.76,0.24 -1.11,0.49zm-6.43 -19.24l-1.38 0.61 4.35 9.77 -7.61 3.39 0.61 1.38 8.99 -4 -4.96 -11.15zm-9.03 -11.12l-4.63 1.51 0.47 1.44 4.63 -1.51c0.45,-0.14 0.91,-0.2 1.36,-0.15 0.45,0.04 0.88,0.16 1.27,0.36 0.4,0.2 0.75,0.47 1.05,0.81 0.3,0.34 0.52,0.73 0.67,1.18l0.94 2.9c0.14,0.45 0.2,0.91 0.15,1.36 -0.04,0.45 -0.16,0.87 -0.37,1.27 -0.2,0.4 -0.48,0.75 -0.82,1.05 -0.34,0.3 -0.73,0.52 -1.19,0.67l-4.63 1.5 0.47 1.44 4.63 -1.5c0.52,-0.17 0.99,-0.42 1.41,-0.73 0.42,-0.31 0.78,-0.67 1.08,-1.09 0.3,-0.42 0.53,-0.87 0.69,-1.36 0.16,-0.49 0.24,-0.99 0.25,-1.51 0,-0.52 -0.08,-1.04 -0.24,-1.57l-0.94 -2.9c-0.17,-0.52 -0.41,-0.99 -0.73,-1.41 -0.31,-0.42 -0.68,-0.78 -1.09,-1.07 -0.42,-0.3 -0.87,-0.52 -1.35,-0.69 -0.49,-0.16 -0.99,-0.24 -1.52,-0.24 -0.52,-0 -1.04,0.08 -1.56,0.24zm4.02 -6.03l-9.59 2.21 0.34 1.47 1.28 1.48 1.67 -0.39 -1.28 -1.48 7.92 -1.83 -0.34 -1.47zm-5.14 -14.74c-0.42,0.05 -0.8,0.18 -1.15,0.38 -0.35,0.2 -0.64,0.46 -0.89,0.77 -0.24,0.31 -0.42,0.66 -0.53,1.05 -0.11,0.39 -0.14,0.79 -0.09,1.21l-2.55 -2.38 -1.48 0.18 1.58 12.86 1.47 -0.18 -1.29 -10.52 2.53 2.35 0.01 -0 0.4 3.28 1.5 -0.18 -0.69 -5.6c-0.03,-0.29 0,-0.55 0.12,-0.8 0.11,-0.24 0.27,-0.45 0.49,-0.62 0.22,-0.16 0.46,-0.26 0.75,-0.3 0.28,-0.03 0.55,0.01 0.79,0.11 0.25,0.11 0.45,0.27 0.62,0.49 0.16,0.21 0.27,0.46 0.3,0.74l0.83 6.78c0.05,0.4 0.03,0.78 -0.06,1.17 -0.09,0.38 -0.24,0.74 -0.45,1.07 -0.21,0.33 -0.46,0.62 -0.78,0.87l1.22 0.97c0.39,-0.37 0.71,-0.78 0.97,-1.24 0.26,-0.46 0.44,-0.94 0.54,-1.46 0.1,-0.52 0.12,-1.04 0.06,-1.57l-0.83 -6.78c-0.06,-0.42 -0.18,-0.8 -0.38,-1.15 -0.2,-0.35 -0.46,-0.64 -0.77,-0.89 -0.31,-0.24 -0.66,-0.42 -1.04,-0.54 -0.38,-0.11 -0.79,-0.15 -1.21,-0.09zm4.06 -20.06l-1.51 -0.13 -0.93 10.65 -8.29 -0.73 -0.13 1.51 9.8 0.86 1.06 -12.16zm-1.85 -14.26l-4.73 -1.18 -0.36 1.47 4.73 1.18c0.46,0.12 0.88,0.31 1.23,0.59 0.36,0.27 0.66,0.6 0.89,0.98 0.23,0.38 0.38,0.79 0.46,1.24 0.07,0.44 0.06,0.9 -0.06,1.36l-0.74 2.96c-0.12,0.46 -0.31,0.87 -0.59,1.23 -0.28,0.36 -0.61,0.65 -0.99,0.89 -0.38,0.23 -0.8,0.38 -1.25,0.45 -0.44,0.07 -0.9,0.06 -1.36,-0.06l-4.73 -1.18 -0.36 1.47 4.73 1.18c0.54,0.13 1.06,0.18 1.58,0.13 0.52,-0.04 1.02,-0.16 1.49,-0.35 0.48,-0.2 0.91,-0.46 1.3,-0.79 0.39,-0.33 0.73,-0.71 1.01,-1.15 0.28,-0.44 0.49,-0.92 0.63,-1.46l0.74 -2.96c0.13,-0.53 0.18,-1.06 0.13,-1.58 -0.05,-0.52 -0.16,-1.02 -0.36,-1.49 -0.2,-0.47 -0.46,-0.9 -0.79,-1.3 -0.33,-0.39 -0.71,-0.73 -1.15,-1.01 -0.44,-0.28 -0.93,-0.49 -1.46,-0.62zm6.13 -3.06l-9.3 -3.2 -0.49 1.43 0.3 1.93 1.62 0.56 -0.3 -1.93 7.68 2.64 0.49 -1.43zm2.63 -15.42c-0.39,-0.16 -0.79,-0.23 -1.19,-0.22 -0.4,0.01 -0.79,0.09 -1.15,0.24 -0.36,0.15 -0.69,0.37 -0.98,0.66 -0.28,0.28 -0.51,0.62 -0.67,1.01l-1.08 -3.32 -1.38 -0.56 -4.85 12.01 1.38 0.56 3.97 -9.82 1.07 3.29 0.01 0 -1.24 3.07 1.4 0.57 2.11 -5.23c0.11,-0.27 0.27,-0.48 0.49,-0.64 0.21,-0.16 0.45,-0.26 0.72,-0.3 0.27,-0.04 0.54,-0 0.8,0.1 0.26,0.11 0.47,0.27 0.64,0.49 0.16,0.22 0.27,0.46 0.3,0.72 0.04,0.27 0.01,0.53 -0.09,0.79l-2.56 6.33c-0.15,0.37 -0.36,0.7 -0.62,0.99 -0.26,0.29 -0.57,0.53 -0.91,0.72 -0.34,0.19 -0.71,0.32 -1.1,0.39l0.6 1.44c0.52,-0.13 1,-0.34 1.44,-0.61 0.45,-0.27 0.84,-0.61 1.18,-1.01 0.34,-0.4 0.61,-0.85 0.82,-1.34l2.56 -6.33c0.16,-0.39 0.23,-0.79 0.22,-1.19 -0.01,-0.4 -0.09,-0.78 -0.24,-1.15 -0.15,-0.37 -0.37,-0.69 -0.65,-0.98 -0.28,-0.28 -0.62,-0.51 -1.01,-0.67zm13.67 -15.31l-1.22 -0.89 -6.28 8.65 -6.73 -4.89 -0.89 1.22 7.96 5.78 7.17 -9.87zm4.96 -13.4l-3.68 -3.19 -0.99 1.14 3.68 3.2c0.36,0.31 0.64,0.67 0.83,1.08 0.2,0.4 0.31,0.83 0.35,1.27 0.03,0.45 -0.02,0.88 -0.15,1.31 -0.14,0.43 -0.36,0.82 -0.67,1.18l-2 2.3c-0.31,0.36 -0.67,0.64 -1.08,0.83 -0.41,0.19 -0.84,0.31 -1.28,0.34 -0.45,0.03 -0.89,-0.02 -1.32,-0.16 -0.43,-0.14 -0.83,-0.36 -1.19,-0.67l-3.68 -3.2 -0.99 1.14 3.67 3.2c0.42,0.36 0.87,0.64 1.35,0.84 0.49,0.2 0.98,0.32 1.49,0.36 0.51,0.04 1.02,0 1.52,-0.11 0.5,-0.11 0.97,-0.3 1.43,-0.57 0.45,-0.26 0.86,-0.6 1.22,-1.02l2 -2.3c0.36,-0.42 0.64,-0.87 0.83,-1.35 0.2,-0.49 0.32,-0.98 0.36,-1.49 0.04,-0.51 0,-1.01 -0.11,-1.51 -0.12,-0.5 -0.31,-0.97 -0.57,-1.42 -0.27,-0.45 -0.61,-0.85 -1.02,-1.21zm7.28 0.37l-6.71 -7.19 -1.1 1.03 -0.64 1.85 1.17 1.25 0.64 -1.85 5.54 5.94 1.1 -1.03zm9.85 -12c-0.26,-0.33 -0.57,-0.59 -0.92,-0.79 -0.35,-0.19 -0.73,-0.31 -1.12,-0.36 -0.39,-0.05 -0.78,-0.02 -1.17,0.08 -0.39,0.1 -0.75,0.28 -1.09,0.55l0.73 -3.41 -0.91 -1.17 -10.21 7.98 0.91 1.17 8.35 -6.52 -0.71 3.38 0.01 0.01 -2.61 2.04 0.93 1.19 4.45 -3.47c0.23,-0.18 0.48,-0.28 0.74,-0.31 0.27,-0.03 0.53,0 0.78,0.1 0.25,0.1 0.47,0.26 0.64,0.49 0.17,0.23 0.27,0.47 0.31,0.74 0.03,0.27 0,0.53 -0.1,0.78 -0.1,0.25 -0.25,0.47 -0.48,0.64l-5.38 4.21c-0.32,0.24 -0.66,0.42 -1.03,0.55 -0.37,0.12 -0.76,0.17 -1.15,0.17 -0.39,-0.01 -0.78,-0.08 -1.15,-0.22l-0.2 1.54c0.51,0.14 1.03,0.21 1.56,0.19 0.52,-0.02 1.03,-0.11 1.53,-0.29 0.49,-0.18 0.95,-0.43 1.38,-0.75l5.38 -4.21c0.33,-0.26 0.59,-0.57 0.79,-0.92 0.2,-0.35 0.32,-0.72 0.36,-1.12 0.05,-0.39 0.03,-0.78 -0.07,-1.17 -0.1,-0.39 -0.28,-0.75 -0.54,-1.09zm19.52 -6.89l-0.66 -1.36 -9.61 4.69 -3.65 -7.48 -1.36 0.66 4.31 8.84 10.97 -5.35zm11.06 -8.91l-1.51 -4.63 -1.44 0.47 1.51 4.63c0.14,0.45 0.2,0.91 0.15,1.36 -0.04,0.45 -0.16,0.88 -0.36,1.27 -0.2,0.4 -0.47,0.75 -0.81,1.05 -0.34,0.3 -0.73,0.52 -1.18,0.67l-2.9 0.94c-0.45,0.14 -0.91,0.2 -1.36,0.15 -0.45,-0.04 -0.87,-0.16 -1.27,-0.37 -0.4,-0.2 -0.75,-0.48 -1.05,-0.82 -0.3,-0.34 -0.52,-0.73 -0.67,-1.19l-1.5 -4.63 -1.44 0.47 1.5 4.63c0.17,0.52 0.42,0.99 0.73,1.41 0.31,0.42 0.67,0.78 1.09,1.08 0.42,0.3 0.87,0.53 1.36,0.69 0.49,0.16 0.99,0.24 1.51,0.25 0.52,0 1.04,-0.08 1.57,-0.24l2.9 -0.94c0.52,-0.17 0.99,-0.41 1.41,-0.73 0.42,-0.31 0.78,-0.68 1.07,-1.09 0.3,-0.42 0.52,-0.87 0.69,-1.35 0.16,-0.49 0.24,-0.99 0.24,-1.52 0,-0.52 -0.08,-1.04 -0.24,-1.56zm5.95 3.83l-2.21 -9.59 -1.47 0.34 -1.48 1.28 0.39 1.67 1.48 -1.28 1.83 7.92 1.47 -0.34zm14.71 -5.25c-0.05,-0.42 -0.18,-0.8 -0.38,-1.15 -0.2,-0.35 -0.46,-0.64 -0.77,-0.89 -0.31,-0.24 -0.66,-0.42 -1.05,-0.53 -0.39,-0.11 -0.79,-0.14 -1.21,-0.09l2.38 -2.55 -0.18 -1.48 -12.86 1.58 0.18 1.47 10.52 -1.29 -2.35 2.53 0 0.01 -3.28 0.4 0.18 1.5 5.6 -0.69c0.29,-0.03 0.55,0 0.8,0.12 0.24,0.11 0.45,0.27 0.62,0.49 0.16,0.22 0.26,0.46 0.3,0.75 0.03,0.28 -0.01,0.55 -0.11,0.79 -0.11,0.25 -0.27,0.45 -0.49,0.62 -0.21,0.16 -0.46,0.27 -0.74,0.3l-6.78 0.83c-0.4,0.05 -0.78,0.03 -1.17,-0.06 -0.38,-0.09 -0.74,-0.24 -1.07,-0.45 -0.33,-0.21 -0.62,-0.46 -0.87,-0.78l-0.97 1.22c0.37,0.39 0.78,0.71 1.24,0.97 0.46,0.26 0.94,0.44 1.46,0.54 0.52,0.1 1.04,0.12 1.57,0.06l6.78 -0.83c0.42,-0.06 0.8,-0.18 1.15,-0.38 0.35,-0.2 0.64,-0.46 0.89,-0.77 0.24,-0.31 0.42,-0.66 0.54,-1.04 0.11,-0.38 0.15,-0.79 0.09,-1.21zm20.1 3.54l0.11 -1.51 -10.67 -0.75 0.58 -8.31 -1.51 -0.11 -0.69 9.82 12.17 0.85zm13.98 -2.5l0.85 -4.8 -1.49 -0.26 -0.85 4.8c-0.09,0.47 -0.25,0.89 -0.5,1.27 -0.24,0.38 -0.55,0.7 -0.91,0.95 -0.36,0.26 -0.76,0.44 -1.2,0.55 -0.44,0.11 -0.89,0.12 -1.36,0.04l-3 -0.53c-0.46,-0.09 -0.89,-0.25 -1.27,-0.5 -0.38,-0.25 -0.7,-0.56 -0.95,-0.92 -0.26,-0.37 -0.44,-0.77 -0.54,-1.21 -0.1,-0.44 -0.12,-0.9 -0.04,-1.36l0.85 -4.8 -1.49 -0.26 -0.85 4.8c-0.09,0.55 -0.1,1.07 -0.02,1.59 0.08,0.52 0.23,1.01 0.45,1.47 0.23,0.46 0.52,0.88 0.88,1.25 0.35,0.37 0.76,0.68 1.22,0.93 0.46,0.25 0.96,0.42 1.5,0.52l3 0.53c0.54,0.09 1.07,0.1 1.58,0.02 0.52,-0.08 1,-0.23 1.46,-0.46 0.46,-0.23 0.87,-0.52 1.24,-0.87 0.37,-0.36 0.67,-0.76 0.93,-1.22 0.25,-0.46 0.42,-0.96 0.52,-1.5zm3.47 6.41l2.55 -9.5 -1.46 -0.39 -1.91 0.44 -0.44 1.66 1.91 -0.44 -2.1 7.85 1.46 0.39zm15.36 2.4c0.15,-0.4 0.21,-0.79 0.2,-1.2 -0.02,-0.4 -0.1,-0.79 -0.27,-1.15 -0.16,-0.36 -0.38,-0.68 -0.67,-0.97 -0.29,-0.28 -0.63,-0.49 -1.02,-0.65l3.3 -1.13 0.53 -1.39 -12.1 -4.64 -0.53 1.39 9.89 3.8 -3.27 1.13 -0 0.01 -3.09 -1.18 -0.54 1.41 5.27 2.02c0.27,0.11 0.49,0.27 0.65,0.48 0.16,0.21 0.27,0.45 0.31,0.72 0.04,0.27 0.02,0.53 -0.09,0.8 -0.1,0.27 -0.26,0.48 -0.47,0.65 -0.21,0.17 -0.45,0.27 -0.72,0.32 -0.27,0.05 -0.53,0.02 -0.8,-0.08l-6.38 -2.45c-0.37,-0.15 -0.7,-0.34 -1,-0.6 -0.29,-0.26 -0.54,-0.56 -0.73,-0.9 -0.2,-0.34 -0.33,-0.7 -0.41,-1.09l-1.43 0.62c0.14,0.51 0.36,0.99 0.64,1.43 0.28,0.44 0.63,0.83 1.03,1.16 0.4,0.33 0.85,0.6 1.35,0.79l6.37 2.45c0.39,0.15 0.79,0.21 1.19,0.2 0.4,-0.02 0.78,-0.1 1.15,-0.26 0.36,-0.16 0.68,-0.38 0.96,-0.67 0.28,-0.29 0.5,-0.63 0.65,-1.02zm15.8 13.28l0.8 -1.28 -9.07 -5.67 4.41 -7.06 -1.28 -0.8 -5.21 8.34 10.35 6.47zm13.31 5.02l3.19 -3.68 -1.14 -0.99 -3.2 3.68c-0.31,0.36 -0.67,0.64 -1.08,0.83 -0.4,0.2 -0.83,0.31 -1.27,0.35 -0.45,0.03 -0.88,-0.02 -1.31,-0.15 -0.43,-0.14 -0.82,-0.36 -1.18,-0.67l-2.3 -2c-0.36,-0.31 -0.64,-0.67 -0.83,-1.08 -0.19,-0.41 -0.31,-0.84 -0.34,-1.28 -0.03,-0.45 0.02,-0.89 0.16,-1.32 0.14,-0.43 0.36,-0.83 0.67,-1.19l3.2 -3.68 -1.14 -0.99 -3.2 3.67c-0.36,0.42 -0.64,0.87 -0.84,1.35 -0.2,0.49 -0.32,0.98 -0.36,1.49 -0.04,0.51 -0,1.02 0.11,1.52 0.11,0.5 0.3,0.97 0.57,1.43 0.26,0.45 0.6,0.86 1.02,1.22l2.3 2c0.42,0.36 0.87,0.64 1.35,0.83 0.49,0.2 0.98,0.32 1.49,0.36 0.51,0.04 1.01,0 1.51,-0.11 0.5,-0.12 0.97,-0.31 1.42,-0.57 0.45,-0.27 0.85,-0.61 1.21,-1.02zm-0.27 7.04l7.08 -6.83 -1.05 -1.09 -1.86 -0.61 -1.23 1.19 1.86 0.61 -5.85 5.64 1.05 1.09zm12.09 9.86c0.33,-0.27 0.58,-0.58 0.77,-0.94 0.19,-0.36 0.3,-0.73 0.34,-1.12 0.04,-0.39 0.01,-0.78 -0.1,-1.17 -0.11,-0.39 -0.3,-0.74 -0.56,-1.08l3.42 0.67 1.15 -0.94 -8.16 -10.07 -1.15 0.94 6.67 8.23 -3.39 -0.65 -0.01 0.01 -2.08 -2.57 -1.17 0.95 3.55 4.39c0.18,0.22 0.29,0.47 0.32,0.74 0.03,0.27 0.01,0.52 -0.09,0.78 -0.1,0.26 -0.25,0.47 -0.48,0.65 -0.22,0.18 -0.47,0.28 -0.73,0.32 -0.27,0.04 -0.53,0.01 -0.78,-0.09 -0.25,-0.09 -0.47,-0.24 -0.65,-0.46l-4.3 -5.31c-0.25,-0.31 -0.44,-0.65 -0.57,-1.02 -0.12,-0.37 -0.19,-0.75 -0.18,-1.15 0,-0.39 0.06,-0.78 0.2,-1.15l-1.55 -0.17c-0.14,0.52 -0.19,1.04 -0.16,1.56 0.02,0.52 0.13,1.03 0.31,1.52 0.18,0.49 0.44,0.95 0.78,1.36l4.3 5.31c0.27,0.33 0.58,0.58 0.93,0.77 0.36,0.19 0.73,0.3 1.12,0.34 0.39,0.04 0.78,0.01 1.17,-0.09 0.39,-0.11 0.75,-0.3 1.08,-0.56zm7.23 19.32l1.35 -0.69 -4.85 -9.52 7.42 -3.78 -0.69 -1.34 -8.77 4.47 5.54 10.87zm9.05 10.85l4.61 -1.59 -0.49 -1.43 -4.61 1.58c-0.45,0.15 -0.9,0.21 -1.35,0.18 -0.45,-0.03 -0.88,-0.14 -1.28,-0.33 -0.4,-0.19 -0.76,-0.46 -1.06,-0.79 -0.3,-0.33 -0.54,-0.72 -0.69,-1.17l-0.99 -2.88c-0.15,-0.45 -0.21,-0.9 -0.18,-1.35 0.04,-0.45 0.15,-0.88 0.35,-1.28 0.2,-0.4 0.46,-0.76 0.8,-1.06 0.33,-0.3 0.73,-0.54 1.18,-0.7l4.61 -1.59 -0.49 -1.43 -4.61 1.58c-0.52,0.18 -0.99,0.43 -1.4,0.75 -0.42,0.32 -0.77,0.69 -1.06,1.11 -0.29,0.42 -0.52,0.88 -0.67,1.37 -0.15,0.49 -0.23,1 -0.22,1.52 0,0.52 0.09,1.04 0.27,1.56l0.99 2.88c0.18,0.52 0.43,0.99 0.75,1.4 0.32,0.41 0.69,0.76 1.11,1.05 0.42,0.29 0.88,0.51 1.37,0.66 0.49,0.15 0.99,0.22 1.52,0.22 0.52,-0.01 1.04,-0.1 1.56,-0.27zm-3.63 6.04l9.55 -2.38 -0.36 -1.46 -1.31 -1.46 -1.66 0.42 1.31 1.45 -7.88 1.97 0.37 1.47zm5.54 14.53c0.42,-0.06 0.8,-0.2 1.14,-0.4 0.34,-0.21 0.64,-0.47 0.87,-0.79 0.24,-0.31 0.41,-0.67 0.52,-1.06 0.1,-0.39 0.13,-0.79 0.07,-1.21l2.59 2.33 1.47 -0.21 -1.8 -12.83 -1.47 0.21 1.47 10.49 -2.57 -2.31 -0.01 0 -0.46 -3.27 -1.49 0.21 0.79 5.59c0.04,0.29 0,0.55 -0.11,0.8 -0.1,0.25 -0.26,0.45 -0.47,0.62 -0.21,0.17 -0.46,0.27 -0.74,0.31 -0.28,0.04 -0.55,0 -0.79,-0.1 -0.25,-0.11 -0.46,-0.27 -0.63,-0.47 -0.17,-0.21 -0.27,-0.45 -0.32,-0.73l-0.95 -6.76c-0.05,-0.39 -0.04,-0.78 0.04,-1.17 0.08,-0.38 0.23,-0.74 0.43,-1.08 0.2,-0.33 0.45,-0.63 0.76,-0.88l-1.24 -0.95c-0.38,0.37 -0.7,0.79 -0.94,1.25 -0.25,0.46 -0.42,0.95 -0.52,1.47 -0.09,0.52 -0.11,1.04 -0.04,1.57l0.95 6.76c0.06,0.42 0.2,0.79 0.4,1.14 0.21,0.34 0.47,0.64 0.79,0.88 0.31,0.24 0.67,0.41 1.05,0.52 0.39,0.11 0.79,0.13 1.21,0.07zm-3.08 20.32l1.51 0.03 0.19 -10.69 8.32 0.15 0.03 -1.51 -9.84 -0.17 -0.21 12.2zm2.51 13.94l4.8 0.85 0.26 -1.49 -4.8 -0.85c-0.47,-0.09 -0.89,-0.25 -1.27,-0.5 -0.38,-0.24 -0.7,-0.55 -0.95,-0.91 -0.26,-0.36 -0.44,-0.76 -0.55,-1.2 -0.11,-0.44 -0.12,-0.89 -0.04,-1.36l0.53 -3c0.09,-0.46 0.25,-0.89 0.5,-1.27 0.25,-0.38 0.56,-0.7 0.92,-0.95 0.37,-0.26 0.77,-0.44 1.21,-0.54 0.44,-0.1 0.9,-0.12 1.36,-0.04l4.8 0.85 0.26 -1.49 -4.8 -0.85c-0.55,-0.09 -1.07,-0.1 -1.59,-0.02 -0.52,0.08 -1.01,0.23 -1.47,0.45 -0.46,0.23 -0.88,0.52 -1.25,0.88 -0.37,0.35 -0.68,0.76 -0.93,1.22 -0.25,0.46 -0.42,0.96 -0.52,1.5l-0.53 3c-0.09,0.54 -0.1,1.07 -0.02,1.58 0.08,0.52 0.23,1 0.46,1.46 0.23,0.46 0.52,0.87 0.87,1.24 0.36,0.37 0.76,0.67 1.22,0.93 0.46,0.25 0.96,0.42 1.5,0.52zm-6.35 3.41l9.5 2.55 0.39 -1.46 -0.44 -1.91 -1.66 -0.44 0.44 1.91 -7.85 -2.1 -0.39 1.46zm-2.29 15.52c0.4,0.15 0.79,0.21 1.2,0.2 0.4,-0.02 0.79,-0.1 1.15,-0.27 0.36,-0.16 0.68,-0.38 0.97,-0.67 0.28,-0.29 0.49,-0.63 0.65,-1.02l1.13 3.3 1.39 0.53 4.64 -12.1 -1.39 -0.53 -3.8 9.89 -1.13 -3.27 -0.01 -0 1.18 -3.09 -1.41 -0.54 -2.02 5.27c-0.11,0.27 -0.27,0.49 -0.48,0.65 -0.21,0.16 -0.45,0.27 -0.72,0.31 -0.27,0.04 -0.53,0.02 -0.8,-0.09 -0.27,-0.1 -0.48,-0.26 -0.65,-0.47 -0.17,-0.21 -0.27,-0.45 -0.32,-0.72 -0.05,-0.27 -0.02,-0.53 0.08,-0.8l2.45 -6.38c0.15,-0.37 0.34,-0.7 0.6,-1 0.26,-0.29 0.56,-0.54 0.9,-0.73 0.34,-0.2 0.7,-0.33 1.09,-0.41l-0.62 -1.43c-0.51,0.14 -0.99,0.36 -1.43,0.64 -0.44,0.28 -0.83,0.63 -1.16,1.03 -0.33,0.4 -0.6,0.85 -0.79,1.35l-2.45 6.37c-0.15,0.39 -0.21,0.79 -0.2,1.19 0.02,0.4 0.1,0.78 0.26,1.15 0.16,0.36 0.38,0.68 0.67,0.96 0.29,0.28 0.63,0.5 1.02,0.65zm-12.85 15.91l1.28 0.8 5.67 -9.07 7.06 4.41 0.8 -1.28 -8.34 -5.21 -6.47 10.35zm-4.87 13.43l3.68 3.19 0.99 -1.14 -3.68 -3.2c-0.36,-0.31 -0.64,-0.67 -0.83,-1.08 -0.2,-0.4 -0.31,-0.83 -0.35,-1.27 -0.03,-0.45 0.02,-0.88 0.15,-1.31 0.14,-0.43 0.36,-0.82 0.67,-1.18l2 -2.3c0.31,-0.36 0.67,-0.64 1.08,-0.83 0.41,-0.19 0.84,-0.31 1.28,-0.34 0.45,-0.03 0.89,0.02 1.32,0.16 0.43,0.14 0.83,0.36 1.19,0.67l3.68 3.2 0.99 -1.14 -3.67 -3.2c-0.42,-0.36 -0.87,-0.64 -1.35,-0.84 -0.49,-0.2 -0.98,-0.32 -1.49,-0.36 -0.51,-0.04 -1.02,-0 -1.52,0.11 -0.5,0.11 -0.97,0.3 -1.43,0.57 -0.45,0.26 -0.86,0.6 -1.22,1.02l-2 2.3c-0.36,0.42 -0.64,0.87 -0.83,1.35 -0.2,0.49 -0.32,0.98 -0.36,1.49 -0.04,0.51 -0,1.01 0.11,1.51 0.12,0.5 0.31,0.97 0.57,1.42 0.27,0.45 0.61,0.85 1.02,1.21zm-6.99 -0.05l6.83 7.08 1.09 -1.05 0.61 -1.86 -1.19 -1.23 -0.61 1.86 -5.64 -5.85 -1.09 1.05zm-9.62 12.25c0.27,0.33 0.58,0.58 0.94,0.77 0.36,0.19 0.73,0.3 1.12,0.34 0.39,0.04 0.78,0.01 1.17,-0.1 0.39,-0.11 0.74,-0.3 1.08,-0.56l-0.67 3.42 0.94 1.15 10.07 -8.16 -0.94 -1.15 -8.23 6.67 0.65 -3.39 -0.01 -0.01 2.57 -2.08 -0.95 -1.17 -4.39 3.55c-0.22,0.18 -0.47,0.29 -0.74,0.32 -0.27,0.03 -0.52,0.01 -0.78,-0.09 -0.26,-0.1 -0.47,-0.25 -0.65,-0.48 -0.18,-0.22 -0.28,-0.47 -0.32,-0.73 -0.04,-0.27 -0.01,-0.53 0.09,-0.78 0.09,-0.25 0.24,-0.47 0.46,-0.65l5.31 -4.3c0.31,-0.25 0.65,-0.44 1.02,-0.57 0.37,-0.12 0.75,-0.19 1.15,-0.18 0.39,0 0.78,0.06 1.15,0.2l0.17 -1.55c-0.52,-0.14 -1.04,-0.19 -1.56,-0.16 -0.52,0.02 -1.03,0.13 -1.52,0.31 -0.49,0.18 -0.95,0.44 -1.36,0.78l-5.31 4.3c-0.33,0.27 -0.58,0.58 -0.77,0.93 -0.19,0.36 -0.3,0.73 -0.34,1.12 -0.04,0.39 -0.01,0.78 0.09,1.17 0.11,0.39 0.3,0.75 0.56,1.08z"/>
   </g>
   <path class="fil29" d="M385.76 692.95c-0.01,-1.64 -0.32,-3.17 -0.93,-4.6 -0.62,-1.43 -1.46,-2.69 -2.55,-3.76 -1.08,-1.09 -2.33,-1.93 -3.76,-2.55 -1.43,-0.61 -2.95,-0.92 -4.6,-0.93l-30.82 0 1.41 -8.55 38.12 0 0 -5.84 -43.18 0 -3.23 20.23 37.7 0c1.11,0.01 2.11,0.29 3.01,0.82 0.88,0.54 1.6,1.25 2.13,2.16 0.53,0.9 0.8,1.9 0.81,3.01 -0.01,1.1 -0.29,2.09 -0.82,2.98 -0.54,0.9 -1.25,1.61 -2.15,2.14 -0.89,0.54 -1.88,0.81 -2.98,0.82l-26.39 0c-1.54,-0.01 -3.02,-0.27 -4.44,-0.79 -1.42,-0.52 -2.71,-1.27 -3.89,-2.22 -1.17,-0.96 -2.17,-2.09 -2.98,-3.4l-4.28 4.22c1.22,1.66 2.64,3.09 4.28,4.28 1.63,1.2 3.42,2.12 5.34,2.76 1.93,0.64 3.92,0.97 5.98,0.98l26.39 0c1.63,-0.01 3.15,-0.32 4.58,-0.92 1.43,-0.61 2.68,-1.45 3.76,-2.53 1.09,-1.08 1.94,-2.32 2.55,-3.75 0.62,-1.42 0.93,-2.94 0.94,-4.59zm51.1 2.3c-0.01,-1.41 -0.27,-2.72 -0.79,-3.94 -0.52,-1.22 -1.25,-2.29 -2.17,-3.21 -0.93,-0.92 -2,-1.64 -3.21,-2.16 -1.22,-0.52 -2.53,-0.79 -3.94,-0.8 -1.4,0.01 -2.71,0.28 -3.94,0.8 -1.21,0.52 -2.28,1.24 -3.21,2.16 -0.92,0.93 -1.64,2 -2.16,3.21 -0.52,1.22 -0.79,2.53 -0.8,3.94 0.01,1.41 0.28,2.71 0.8,3.94 0.52,1.22 1.24,2.29 2.16,3.22 0.93,0.92 2,1.64 3.21,2.16 1.23,0.52 2.54,0.79 3.94,0.8 1.41,-0.01 2.72,-0.28 3.94,-0.8 1.21,-0.52 2.28,-1.24 3.21,-2.16 0.92,-0.93 1.65,-2 2.17,-3.22 0.52,-1.22 0.78,-2.53 0.79,-3.94zm-8.5 -28.52l-5.84 0 -23.57 39.63 5.84 0 23.57 -39.63zm-17.37 11.11c-0.01,-1.41 -0.28,-2.72 -0.8,-3.94 -0.52,-1.22 -1.24,-2.29 -2.16,-3.21 -0.93,-0.92 -2,-1.64 -3.21,-2.16 -1.22,-0.52 -2.53,-0.79 -3.94,-0.8 -1.41,0.01 -2.71,0.28 -3.94,0.8 -1.22,0.52 -2.29,1.24 -3.22,2.16 -0.92,0.93 -1.64,2 -2.16,3.21 -0.52,1.22 -0.79,2.53 -0.8,3.94 0.01,1.4 0.28,2.71 0.8,3.94 0.52,1.22 1.24,2.29 2.16,3.22 0.93,0.92 2,1.64 3.22,2.16 1.22,0.52 2.53,0.79 3.94,0.8 1.41,-0.01 2.72,-0.28 3.94,-0.8 1.22,-0.52 2.29,-1.24 3.21,-2.16 0.92,-0.93 1.64,-2 2.16,-3.22 0.52,-1.22 0.79,-2.54 0.8,-3.94l0 0zm21.54 17.36c-0.01,1.07 -0.28,2.04 -0.79,2.91 -0.52,0.87 -1.21,1.56 -2.08,2.09 -0.88,0.51 -1.84,0.78 -2.92,0.79 -1.07,-0.01 -2.04,-0.28 -2.91,-0.79 -0.87,-0.52 -1.56,-1.22 -2.09,-2.09 -0.51,-0.87 -0.78,-1.84 -0.79,-2.91 0.01,-1.07 0.28,-2.04 0.79,-2.91 0.52,-0.88 1.22,-1.57 2.09,-2.09 0.87,-0.52 1.84,-0.78 2.91,-0.79 1.08,0.01 2.04,0.28 2.92,0.79 0.87,0.52 1.56,1.21 2.08,2.09 0.51,0.87 0.78,1.84 0.79,2.91l0 0zm-25.86 -17.42c-0.01,1.07 -0.28,2.04 -0.79,2.91 -0.52,0.87 -1.21,1.56 -2.09,2.09 -0.87,0.51 -1.83,0.78 -2.91,0.79 -1.07,-0.01 -2.04,-0.28 -2.91,-0.79 -0.87,-0.52 -1.57,-1.22 -2.09,-2.09 -0.51,-0.87 -0.78,-1.84 -0.79,-2.91 0.01,-1.08 0.28,-2.04 0.79,-2.91 0.52,-0.88 1.21,-1.57 2.09,-2.09 0.87,-0.51 1.84,-0.78 2.91,-0.79 1.08,0.01 2.04,0.28 2.91,0.79 0.88,0.52 1.56,1.21 2.09,2.09 0.51,0.87 0.78,1.83 0.79,2.91l0 0z"/>
  </g>
 </g>
</svg>
