<?xml version="1.0" encoding="UTF-8"?>
<!DOCTYPE svg PUBLIC "-//W3C//DTD SVG 1.1//EN" "http://www.w3.org/Graphics/SVG/1.1/DTD/svg11.dtd">
<svg xmlns="http://www.w3.org/2000/svg" xml:space="preserve" version="1.1" style="shape-rendering:geometricPrecision; text-rendering:geometricPrecision; image-rendering:optimizeQuality; fill-rule:evenodd; clip-rule:evenodd"
viewBox="0 0 9254.24 5551.16"
 xmlns:xlink="http://www.w3.org/1999/xlink"
 xmlns:xodm="http://www.corel.com/coreldraw/odm/2003">
 <g id="Слой_x0020_1">
  <metadata id="CorelCorpID_0Corel-Layer"/>
  <g id="_2442883989536">
   <path class="fil0" d="M7735.9 2862.91l1518.35 0 0 1655.14 -2167.52 0 0 -996.94 -118.48 0 0 996.94 -3162.13 0 0 -1655.14 683.71 0 0 1029.39 823.29 0 0 -1029.39 660.51 0 0 1029.39 336.43 0 0 -1029.39 658.19 0 0 380.31 145.56 -380.31 622.09 0zm34.52 635.01l0 382.8 81.4 0 0 -382.8 -81.4 0z"/>
  </g>
  <path class="fil1" d="M4437.77 3979.12l823.06 0 0 452.1 -1367.89 0 0 -1481.5 510.07 0 0 1272.83 34.77 -243.44zm1207.92 0l996.92 0 -245.75 -34.77 0 -994.63 484.56 0 0 1481.5 -1481.5 0 0 -1481.5 486.87 0 0 994.63 -241.11 34.77zm1527.85 -505.41l273.58 -39.43 -308.36 0 -150.68 0 185.47 -484.56 510.05 0 0 1481.5 -510.05 0 0 -957.51zm1472.23 493.83l34.77 215.61 0 -308.34 -741.91 0 0 -373.28 741.91 0 0 -322.26 -34.77 231.84 -823.06 0 0 -461.37 1344.71 0 0 700.18 -139.12 37.1 139.12 39.41 0 704.81 -1344.71 0 0 -463.69 823.06 0z"/>
  <path class="fil1" d="M4075.56 4814.77l0 -137.96 -181.68 0 0 137.96 21.2 0 0 -116.78 139.3 0 0 116.78 21.18 0zm213.49 -95.2c-0.03,-5.97 -1.17,-11.52 -3.39,-16.66 -2.23,-5.17 -5.29,-9.72 -9.24,-13.58 -3.92,-3.92 -8.48,-6.97 -13.67,-9.19 -5.17,-2.18 -10.72,-3.3 -16.67,-3.34l-150.09 0 0 137.96 21.2 0 0 -52.23 128.89 0c5.95,-0.03 11.5,-1.17 16.67,-3.37 5.19,-2.18 9.75,-5.24 13.67,-9.19 3.95,-3.9 7.01,-8.44 9.24,-13.62 2.21,-5.21 3.35,-10.79 3.39,-16.79zm-21.4 0c-0.03,4.02 -1.01,7.63 -2.92,10.89 -1.93,3.24 -4.51,5.83 -7.73,7.75 -3.24,1.9 -6.87,2.91 -10.91,2.94l-128.89 0 0 -43.16 128.89 0c4.03,0.03 7.67,1.04 10.91,3.01 3.22,1.92 5.8,4.51 7.73,7.75 1.92,3.26 2.89,6.86 2.92,10.82zm242.06 25.55c-0.03,-7.72 -1.19,-15 -3.57,-21.86 -2.33,-6.87 -5.6,-13.12 -9.86,-18.79 -4.26,-5.65 -9.3,-10.58 -15.07,-14.67 -5.82,-4.13 -12.18,-7.32 -19.12,-9.58 -6.97,-2.25 -14.29,-3.37 -22.03,-3.4l-69.63 0c-7.77,0.03 -15.12,1.16 -22.08,3.4 -6.94,2.26 -13.32,5.45 -19.12,9.58 -5.8,4.1 -10.82,9.02 -15.05,14.67 -4.25,5.67 -7.54,11.91 -9.86,18.79 -2.33,6.86 -3.5,14.14 -3.54,21.86 0.03,7.77 1.21,15.12 3.54,22.08 2.33,6.94 5.62,13.32 9.86,19.12 4.23,5.8 9.25,10.82 15.05,15.05 5.8,4.25 12.18,7.54 19.12,9.86 6.96,2.33 14.31,3.5 22.08,3.54l69.63 0c7.73,-0.03 15.05,-1.21 22.03,-3.54 6.94,-2.33 13.3,-5.62 19.12,-9.86 5.77,-4.23 10.81,-9.25 15.07,-15.05 4.26,-5.8 7.54,-12.18 9.86,-19.12 2.38,-6.96 3.54,-14.31 3.57,-22.08zm-21.38 0c-0.03,6.73 -1.29,13 -3.82,18.84 -2.5,5.83 -5.97,10.97 -10.38,15.38 -4.41,4.46 -9.52,7.92 -15.33,10.41 -5.83,2.5 -12.05,3.78 -18.74,3.82l-69.63 0c-6.73,-0.03 -12.97,-1.32 -18.8,-3.82 -5.8,-2.5 -10.94,-5.95 -15.33,-10.41 -4.41,-4.41 -7.85,-9.55 -10.34,-15.38 -2.5,-5.83 -3.75,-12.11 -3.78,-18.84 0.03,-6.64 1.29,-12.84 3.78,-18.54 2.5,-5.72 5.93,-10.69 10.34,-14.95 4.4,-4.28 9.53,-7.6 15.33,-10 5.83,-2.4 12.08,-3.6 18.8,-3.64l69.63 0c6.69,0.03 12.91,1.24 18.74,3.64 5.82,2.4 10.92,5.72 15.33,10 4.41,4.26 7.88,9.24 10.38,14.95 2.53,5.7 3.78,11.9 3.82,18.54zm256.06 90.47l0 -42.02 -17.6 0 0 -116.76 -95.2 0c-5.4,0.03 -10.48,0.97 -15.24,2.84 -4.76,1.85 -9.06,4.45 -12.87,7.75 -3.82,3.32 -7.01,7.16 -9.55,11.55l-54.32 94.62 -17.42 0 0 42.02 20.82 0 0 -20.82 180.54 0 0 20.82 20.82 0zm-38.8 -137.6l0 95.58 -141.18 0 48.07 -83.65c1.26,-2.23 2.88,-4.26 4.79,-6.05 1.93,-1.77 4.1,-3.19 6.49,-4.26 2.43,-1.04 5.06,-1.59 7.83,-1.62l74 0zm253.6 116.78l-21.94 -137.96 -158.04 0 -21.76 137.96 21.58 0 3.4 -21.38 150.07 -9.85 5.12 31.23 21.56 0zm-31.59 -63.02l-140.24 9.47 10.03 -63.22 121.68 0 8.53 53.75zm3.4 21l-147.05 10.03 1.7 -10.77 143.65 -9.65 1.7 10.39zm307.35 42.02l-36.54 -63.4c-2.54,-4.38 -5.73,-8.26 -9.55,-11.6 -3.82,-3.35 -8.11,-5.97 -12.87,-7.83 -4.76,-1.88 -9.83,-2.86 -15.24,-2.89l-5.67 0 11.91 -19.3c1.32,-2.18 2.94,-4.13 4.83,-5.9 1.9,-1.77 4.02,-3.19 6.38,-4.23 2.36,-1.04 4.94,-1.59 7.72,-1.62l16.85 0 0 -21.18 -16.85 0c-5.42,0.03 -10.53,1.01 -15.25,2.92 -4.74,1.93 -8.99,4.54 -12.81,7.88 -3.78,3.35 -6.97,7.2 -9.6,11.52l-17.98 29.91 -17.78 0 0 -52.23 -21.2 0 0 52.23 -17.8 0 -17.98 -29.91c-2.61,-4.31 -5.8,-8.16 -9.58,-11.52 -3.78,-3.34 -8.08,-5.95 -12.81,-7.88 -4.73,-1.92 -9.82,-2.89 -15.27,-2.92l-16.84 0 0 21.18 16.84 0c2.78,0.03 5.37,0.58 7.73,1.62 2.36,1.04 4.48,2.46 6.36,4.23 1.9,1.77 3.5,3.72 4.83,5.9l11.93 19.3 -5.68 0c-5.39,0.03 -10.46,1.01 -15.24,2.89 -4.76,1.87 -9.04,4.48 -12.86,7.83 -3.82,3.34 -7.01,7.22 -9.57,11.6l-36.52 63.4 24.79 0 30.29 -52.61c1.26,-2.23 2.86,-4.26 4.79,-6.03 1.92,-1.78 4.06,-3.21 6.49,-4.28 2.43,-1.04 5.04,-1.59 7.82,-1.6l48.27 0 0 64.53 21.2 0 0 -64.53 48.25 0c2.81,0.02 5.4,0.56 7.83,1.6 2.43,1.07 4.59,2.5 6.49,4.28 1.92,1.77 3.54,3.8 4.79,6.03l30.27 52.61 24.8 0zm214.8 0l-21.94 -137.96 -158.04 0 -21.76 137.96 21.58 0 3.4 -21.38 150.07 -9.85 5.12 31.23 21.56 0zm-31.59 -63.02l-140.24 9.47 10.03 -63.22 121.68 0 8.53 53.75zm3.4 21l-147.05 10.03 1.7 -10.77 143.65 -9.65 1.7 10.39zm272.72 42.02l0 -137.96 -21.18 0 -139.3 109.95 0 -109.95 -21.2 0 0 137.96 21.2 0 139.3 -109.95 0 109.95 21.18 0zm191.53 -116.78l0 -21.18 -171.09 0 0 137.96 21.2 0 0 -116.78 149.89 0zm204.21 21.58c-0.03,-5.97 -1.17,-11.52 -3.39,-16.66 -2.23,-5.17 -5.29,-9.72 -9.24,-13.58 -3.92,-3.92 -8.48,-6.97 -13.67,-9.19 -5.17,-2.18 -10.72,-3.3 -16.67,-3.34l-150.09 0 0 137.96 21.2 0 0 -52.23 128.89 0c5.95,-0.03 11.5,-1.17 16.67,-3.37 5.19,-2.18 9.75,-5.24 13.67,-9.19 3.95,-3.9 7.01,-8.44 9.24,-13.62 2.21,-5.21 3.35,-10.79 3.39,-16.79zm-21.4 0c-0.03,4.02 -1.01,7.63 -2.92,10.89 -1.93,3.24 -4.51,5.83 -7.73,7.75 -3.24,1.9 -6.87,2.91 -10.91,2.94l-128.89 0 0 -43.16 128.89 0c4.03,0.03 7.67,1.04 10.91,3.01 3.22,1.92 5.8,4.51 7.73,7.75 1.92,3.26 2.89,6.86 2.92,10.82zm242.06 25.55c-0.03,-7.72 -1.19,-15 -3.57,-21.86 -2.33,-6.87 -5.6,-13.12 -9.86,-18.79 -4.26,-5.65 -9.3,-10.58 -15.07,-14.67 -5.82,-4.13 -12.18,-7.32 -19.12,-9.58 -6.97,-2.25 -14.29,-3.37 -22.03,-3.4l-69.63 0c-7.77,0.03 -15.12,1.16 -22.08,3.4 -6.94,2.26 -13.32,5.45 -19.12,9.58 -5.8,4.1 -10.82,9.02 -15.05,14.67 -4.25,5.67 -7.54,11.91 -9.86,18.79 -2.33,6.86 -3.5,14.14 -3.54,21.86 0.03,7.77 1.21,15.12 3.54,22.08 2.33,6.94 5.62,13.32 9.86,19.12 4.23,5.8 9.25,10.82 15.05,15.05 5.8,4.25 12.18,7.54 19.12,9.86 6.96,2.33 14.31,3.5 22.08,3.54l69.63 0c7.73,-0.03 15.05,-1.21 22.03,-3.54 6.94,-2.33 13.3,-5.62 19.12,-9.86 5.77,-4.23 10.81,-9.25 15.07,-15.05 4.26,-5.8 7.54,-12.18 9.86,-19.12 2.38,-6.96 3.54,-14.31 3.57,-22.08zm-21.38 0c-0.03,6.73 -1.29,13 -3.82,18.84 -2.5,5.83 -5.97,10.97 -10.38,15.38 -4.41,4.46 -9.52,7.92 -15.33,10.41 -5.83,2.5 -12.05,3.78 -18.74,3.82l-69.63 0c-6.73,-0.03 -12.97,-1.32 -18.8,-3.82 -5.8,-2.5 -10.94,-5.95 -15.33,-10.41 -4.41,-4.41 -7.85,-9.55 -10.34,-15.38 -2.5,-5.83 -3.75,-12.11 -3.78,-18.84 0.03,-6.64 1.29,-12.84 3.78,-18.54 2.5,-5.72 5.93,-10.69 10.34,-14.95 4.4,-4.28 9.53,-7.6 15.33,-10 5.83,-2.4 12.08,-3.6 18.8,-3.64l69.63 0c6.69,0.03 12.91,1.24 18.74,3.64 5.82,2.4 10.92,5.72 15.33,10 4.41,4.26 7.88,9.24 10.38,14.95 2.53,5.7 3.78,11.9 3.82,18.54zm232.6 26.88c-0.03,-5.02 -0.83,-9.75 -2.41,-14.19 -1.54,-4.45 -3.78,-8.53 -6.61,-12.18 -2.88,-3.67 -6.21,-6.79 -10.1,-9.4 2.58,-3.22 4.58,-6.81 5.98,-10.72 1.42,-3.92 2.12,-8.11 2.15,-12.56 -0.03,-5.17 -1.01,-9.96 -2.96,-14.34 -1.93,-4.4 -4.61,-8.21 -8.05,-11.45 -3.4,-3.29 -7.39,-5.8 -11.9,-7.6 -4.51,-1.8 -9.35,-2.71 -14.56,-2.74l-144.6 0 0 137.96 150.09 0c5.95,-0.03 11.5,-1.17 16.67,-3.34 5.19,-2.21 9.75,-5.27 13.67,-9.19 3.95,-3.92 7.01,-8.41 9.24,-13.6 2.21,-5.14 3.35,-10.69 3.39,-16.64zm-32.37 -59.24c-0.03,2.88 -0.76,5.55 -2.15,8.01 -1.39,2.46 -3.19,4.41 -5.42,5.93 -2.21,1.5 -4.61,2.3 -7.19,2.33l-124.73 0 0 -31.05 123.4 0c2.92,0 5.6,0.61 8.03,1.8 2.43,1.21 4.36,2.91 5.82,5.12 1.44,2.16 2.2,4.79 2.23,7.85zm10.79 59.24c-0.03,3.97 -1.01,7.57 -2.94,10.81 -1.88,3.26 -4.48,5.83 -7.68,7.77 -3.22,1.95 -6.79,2.92 -10.76,2.99l-128.89 0 0 -43.14 128.89 0c3.97,0.03 7.54,1.01 10.76,2.94 3.21,1.92 5.8,4.49 7.68,7.75 1.93,3.22 2.91,6.84 2.94,10.89zm246.41 -26.88c-0.03,-7.72 -1.19,-15 -3.57,-21.86 -2.33,-6.87 -5.6,-13.12 -9.86,-18.79 -4.26,-5.65 -9.3,-10.58 -15.07,-14.67 -5.82,-4.13 -12.18,-7.32 -19.12,-9.58 -6.97,-2.25 -14.29,-3.37 -22.03,-3.4l-69.63 0c-7.77,0.03 -15.12,1.16 -22.08,3.4 -6.94,2.26 -13.32,5.45 -19.12,9.58 -5.8,4.1 -10.82,9.02 -15.05,14.67 -4.25,5.67 -7.54,11.91 -9.86,18.79 -2.33,6.86 -3.5,14.14 -3.54,21.86 0.03,7.77 1.21,15.12 3.54,22.08 2.33,6.94 5.62,13.32 9.86,19.12 4.23,5.8 9.25,10.82 15.05,15.05 5.8,4.25 12.18,7.54 19.12,9.86 6.96,2.33 14.31,3.5 22.08,3.54l69.63 0c7.73,-0.03 15.05,-1.21 22.03,-3.54 6.94,-2.33 13.3,-5.62 19.12,-9.86 5.77,-4.23 10.81,-9.25 15.07,-15.05 4.26,-5.8 7.54,-12.18 9.86,-19.12 2.38,-6.96 3.54,-14.31 3.57,-22.08zm-21.38 0c-0.03,6.73 -1.29,13 -3.82,18.84 -2.5,5.83 -5.97,10.97 -10.38,15.38 -4.41,4.46 -9.52,7.92 -15.33,10.41 -5.83,2.5 -12.05,3.78 -18.74,3.82l-69.63 0c-6.73,-0.03 -12.97,-1.32 -18.8,-3.82 -5.8,-2.5 -10.94,-5.95 -15.33,-10.41 -4.41,-4.41 -7.85,-9.55 -10.34,-15.38 -2.5,-5.83 -3.75,-12.11 -3.78,-18.84 0.03,-6.64 1.29,-12.84 3.78,-18.54 2.5,-5.72 5.93,-10.69 10.34,-14.95 4.4,-4.28 9.53,-7.6 15.33,-10 5.83,-2.4 12.08,-3.6 18.8,-3.64l69.63 0c6.69,0.03 12.91,1.24 18.74,3.64 5.82,2.4 10.92,5.72 15.33,10 4.41,4.26 7.88,9.24 10.38,14.95 2.53,5.7 3.78,11.9 3.82,18.54zm155.76 -58.66l-4.92 -17.42c-3.6,1.8 -7.35,3.09 -11.27,3.92 -3.87,0.83 -7.82,1.19 -11.81,1.19 -3.98,0 -7.93,-0.36 -11.83,-1.19 -3.88,-0.83 -7.63,-2.12 -11.27,-3.92l-4.91 17.42c4.25,1.7 8.64,3.02 13.14,3.92 4.51,0.91 9.09,1.39 13.73,1.39l2.64 0c4.54,0 9.09,-0.48 13.57,-1.39 4.48,-0.89 8.86,-2.21 13.12,-3.92l-0.18 0zm65.67 128.31l0 -137.96 -21.2 0 -139.28 109.95 0 -109.95 -21.2 0 0 137.96 21.2 0 139.28 -109.95 0 109.95 21.2 0zm263.81 0l-21.94 -137.96 -158.04 0 -21.76 137.96 21.58 0 3.4 -21.38 150.07 -9.85 5.12 31.23 21.56 0zm-31.59 -63.02l-140.24 9.47 10.03 -63.22 121.68 0 8.53 53.75zm3.4 21l-147.05 10.03 1.7 -10.77 143.65 -9.65 1.7 10.39zm282.75 42.02l0 -139.48 -235.82 0 0 139.48 21.4 0 0 -117.9 85.73 0 0 117.9 21.38 0 0 -117.9 85.93 0 0 117.9 21.38 0zm213.48 -95.2c-0.03,-5.97 -1.17,-11.52 -3.39,-16.66 -2.23,-5.17 -5.29,-9.72 -9.24,-13.58 -3.92,-3.92 -8.48,-6.97 -13.67,-9.19 -5.17,-2.18 -10.72,-3.3 -16.67,-3.34l-150.09 0 0 137.96 21.2 0 0 -52.23 128.89 0c5.95,-0.03 11.5,-1.17 16.67,-3.37 5.19,-2.18 9.75,-5.24 13.67,-9.19 3.95,-3.9 7.01,-8.44 9.24,-13.62 2.21,-5.21 3.35,-10.79 3.39,-16.79zm-21.4 0c-0.03,4.02 -1.01,7.63 -2.92,10.89 -1.93,3.24 -4.51,5.83 -7.73,7.75 -3.24,1.9 -6.87,2.91 -10.91,2.94l-128.89 0 0 -43.16 128.89 0c4.03,0.03 7.67,1.04 10.91,3.01 3.22,1.92 5.8,4.51 7.73,7.75 1.92,3.26 2.89,6.86 2.92,10.82zm217.08 95.2l0 -137.96 -21.18 0 -139.3 109.95 0 -109.95 -21.2 0 0 137.96 21.2 0 139.3 -109.95 0 109.95 21.18 0zm213.3 -42.96c-0.03,-5.97 -1.17,-11.52 -3.34,-16.66 -2.21,-5.17 -5.27,-9.68 -9.19,-13.58 -3.88,-3.92 -8.41,-6.97 -13.58,-9.19 -5.16,-2.18 -10.71,-3.3 -16.66,-3.34l-128.89 0 0 -31.05 161.06 0 0 -21.18 -182.26 0 0 137.96 150.09 0c5.95,-0.03 11.5,-1.17 16.66,-3.37 5.17,-2.25 9.7,-5.3 13.58,-9.25 3.92,-3.9 6.97,-8.48 9.19,-13.65 2.16,-5.17 3.3,-10.72 3.34,-16.69zm-21.38 0c-0.03,4.02 -1.01,7.67 -2.94,10.96 -1.88,3.27 -4.48,5.87 -7.68,7.82 -3.22,1.95 -6.79,2.96 -10.76,2.99l-128.89 0 0 -43.33 128.89 0c3.97,0.02 7.54,1.01 10.76,2.92 3.21,1.92 5.8,4.51 7.68,7.77 1.93,3.21 2.91,6.84 2.94,10.87zm233.54 -95l-24.8 0 -42 73.43 -56.4 0c-2.64,-0.03 -5.17,-0.55 -7.57,-1.59 -2.36,-1.04 -4.51,-2.43 -6.44,-4.23 -1.95,-1.8 -3.59,-3.82 -4.91,-6.11l-35.39 -61.5 -24.79 0 41.44 72.29c2.61,4.51 5.87,8.41 9.77,11.77 3.88,3.34 8.25,5.93 13,7.75 4.79,1.83 9.82,2.78 15.07,2.81l43.9 0 -5.87 10.23c-1.32,2.3 -2.96,4.31 -4.91,6.11 -1.93,1.8 -4.11,3.19 -6.51,4.23 -2.4,1.04 -4.97,1.54 -7.68,1.57l-22.14 0 0 21.2 22.14 0c5.25,-0.03 10.28,-0.97 15.07,-2.81 4.76,-1.83 9.12,-4.41 12.99,-7.75 3.92,-3.35 7.17,-7.25 9.78,-11.77l66.25 -115.64zm247.91 137.96l0 -139.48 -235.82 0 0 139.48 21.4 0 0 -117.9 85.73 0 0 117.9 21.38 0 0 -117.9 85.93 0 0 117.9 21.38 0zm202.11 0l0 -137.96 -21.18 0 -139.3 109.95 0 -109.95 -21.2 0 0 137.96 21.2 0 139.3 -109.95 0 109.95 21.18 0zm208.19 0l-36.54 -63.4c-2.54,-4.38 -5.73,-8.26 -9.55,-11.6 -3.82,-3.35 -8.11,-5.97 -12.87,-7.83 -4.76,-1.88 -9.83,-2.86 -15.24,-2.89l-5.67 0 11.91 -19.3c1.32,-2.18 2.94,-4.13 4.83,-5.9 1.9,-1.77 4.02,-3.19 6.38,-4.23 2.36,-1.04 4.96,-1.59 7.73,-1.62l16.84 0 0 -21.18 -16.84 0c-5.47,0.03 -10.54,1.01 -15.27,2.92 -4.74,1.93 -9.02,4.54 -12.81,7.88 -3.78,3.35 -6.97,7.2 -9.6,11.52l-17.98 29.91 -61.88 0 0 -52.23 -21.2 0 0 137.96 21.2 0 0 -64.53 92.35 0c2.78,0.02 5.4,0.56 7.83,1.6 2.43,1.07 4.56,2.5 6.49,4.28 1.92,1.77 3.54,3.8 4.79,6.03l30.27 52.61 24.8 0zm196.44 0l0 -137.96 -21.18 0 -139.3 109.95 0 -109.95 -21.2 0 0 137.96 21.2 0 139.3 -109.95 0 109.95 21.18 0z"/>
  <g id="_2442883982864">
   <path class="fil2" d="M1249.73 2114.25c23.38,-38.57 50.5,-78.84 78.51,-111.31l26.8 -31.08 13.67 0.33c15.37,-27.96 30.85,-55.82 46.14,-83.83 9.47,-17.33 25.55,-44.37 32.8,-63.6 9.65,-75.86 31.38,-221.67 81.71,-271.97 3.04,-3.24 6.16,-7.09 9.27,-11.17l-5.32 -150.3c-66.79,-26.52 -126.69,-75.42 -148.5,-144.01 -2.1,-6.58 -4.74,-14.46 -7.52,-22.95l-75.58 -17.4 20.01 -150.64c-26.16,-31.16 -46.58,-74.05 -53.42,-113.42l-5.12 -29.55c-69.12,-59.27 -130.99,-157.84 -157.64,-239.75 -22.37,-68.91 -19.5,-165.95 -6.71,-236.88l26.64 -147.64 114.65 96.57c46.75,38.93 115.09,76.44 170.05,100.76 7.49,3.32 17.19,7.35 28.06,11.48 3.82,-27.56 10.64,-54.4 17.61,-77.1l129.43 -420.79 39.59 433.91c1.92,6.44 6.11,14.69 9.86,21.37 13.22,7.54 40.52,17.02 52.56,21.99 47.31,19.55 91.4,41.74 134.79,69.04 102.81,64.66 210.9,214.22 240.31,331.84 7.57,30.27 6.23,60.36 -8.56,88.37 -8.36,15.83 -17.23,24.59 -25.7,32.92l67.15 0.41 -24.51 244.33 -55.79 4.26c-17.15,52.13 -50.07,99.84 -94.68,129.57 -15.86,10.58 -34.6,22.09 -54.66,31.74 0.53,1.55 1.04,3.11 1.5,4.66 60.69,20.23 104.75,92.55 75.71,156.62 1.54,7.34 2.38,15.05 2.48,23.58 10.56,23 13.78,50.05 9.57,76.42 -2.46,15.2 -7.55,30.49 -14.66,44.98 2.88,20.82 -0.13,42.76 -10.06,63.57 -14.33,30.12 -45.26,68.89 -68.72,97.86 33.78,19.12 57.77,50.63 69.85,98.96 1.49,5.92 2.99,11.81 4.54,17.71 6.38,3.47 12.72,6.97 19,10.53l6.31 3.57 5.62 4.56c19.8,16.08 39.58,32.16 59.36,48.23 852.32,131.91 1484.77,869.11 1484.77,1734.7 0,969.33 -786.12,1755.45 -1755.45,1755.45 -969.33,0 -1755.45,-786.12 -1755.45,-1755.45 0,-775.45 509.59,-1459.27 1249.73,-1681.46z"/>
  </g>
  <path class="fil2" d="M1989.87 2143.41c810.47,113.98 1434.22,810.45 1434.22,1652.29 0,921.41 -747.23,1668.64 -1668.64,1668.64 -921.41,0 -1668.64,-747.23 -1668.64,-1668.64 0,-766.06 516.5,-1411.72 1220.18,-1607.66 46.95,-81.98 86.98,-128.41 86.98,-128.41l25.63 0.61c58.33,-108.48 110.53,-195.81 113.42,-218.8 3.87,-30.87 26.97,-196.56 57.82,-227.39 8.1,-8.08 20.69,-25.2 35.58,-46.05l-8.61 -242.99c0,0 -123.34,-19.25 -150.3,-104.05 -16.57,-52.05 -20.06,-66.34 -20.29,-69.62l-49.06 -11.29 7.68 -57.83 69.39 0.46c0,0 -52.03,-44.75 -82.87,-77.52 -30.83,-32.75 -38.53,-77.12 -38.53,-77.12l28.92 27.02c28.88,26.97 82.84,26.97 82.84,26.97l-7.73 -65.5c0,0 -61.64,-13.52 -121.37,-55.9 -59.72,-42.38 -123.32,-136.82 -148.39,-213.86 -25.03,-77.1 -3.83,-194.66 -3.83,-194.66 0,0 73.22,61.67 190.76,113.69 117.54,52.02 175.37,42.4 175.37,42.4l-21.22 -30.83c-21.2,-30.82 9.63,-131.05 9.63,-131.05 0,0 1.93,21.22 25.03,59.77 23.15,38.53 92.5,38.53 212.01,113.7 119.44,75.12 190.74,233.14 202.31,279.39 11.55,46.25 -30.82,28.87 -59.75,113.67 -13.48,30.83 -3.87,72.69 -3.87,72.69l84.84 0.53 -7.73 77.09 -50.09 3.83c0,0 0,92.52 -69.39,138.77 -69.39,46.22 -92.5,38.53 -92.5,38.53l-1.52 85c10.94,11.47 9.02,33.35 -0.93,51.94l-1.29 71.81c10.44,-9.42 20.9,-21.15 30.72,-35.35 34.7,-50.09 73.22,3.85 50.1,27 -23.13,23.12 1.78,25.51 1.78,51.61 0,26.11 -0.96,26.11 -0.96,26.11 0,0 16.41,4.81 11.62,34.77 -4.86,29.99 -29.94,50.28 -29.94,50.28 0,0 23.15,12.57 12.54,34.8 -10.58,22.24 -64.64,88.95 -64.64,88.95 0,0 -6.33,-1.5 -16.18,-1.44l-1.97 110.65c35.81,2.97 65.93,8.46 78.09,57.07 4.13,16.47 9.2,35.96 15.37,56.02 28.83,14.9 49.61,26.67 49.61,26.67 0,0 30.45,24.72 77.8,63.22z"/>
  <path class="fil0" d="M1746.65 2103.03c921.41,0 1668.64,747.23 1668.64,1668.64 0,921.41 -747.23,1668.64 -1668.64,1668.64 -921.41,0 -1668.64,-747.23 -1668.64,-1668.64 0,-921.41 747.23,-1668.64 1668.64,-1668.64z"/>
  <path class="fil2" d="M1156.91 2801.39c-48.73,-444.57 228.27,-765.8 228.27,-765.8l254.99 6.03c0,0 -97.33,416 -70.33,435.98 27,19.98 239.82,32.77 307.78,43.69 67.96,10.92 -35.91,-149.03 -66.69,-169.6 -30.78,-20.57 -32.67,71.05 -32.67,71.05l-144.31 -4.25c0,0 -17.68,-152.83 -13.98,-274.17 2.79,-91.41 24.67,-157.89 37.01,-167.77 28.77,-23 246.28,79.6 246.28,79.6 0,0 471.93,382.9 587.34,483.12 115.41,100.22 89.76,274.98 71.81,411.17 -4.06,30.83 -36.11,374.51 -148.7,370.33 -384.4,-14.29 -1256.8,-519.37 -1256.8,-519.37z"/>
  <path class="fil2" d="M1734.58 2596.16c662.04,0 1198.93,536.89 1198.93,1198.93 0,662.04 -536.89,1198.93 -1198.93,1198.93 -662.04,0 -1198.93,-536.89 -1198.93,-1198.93 0,-662.04 536.89,-1198.93 1198.93,-1198.93z"/>
  <path class="fil3" d="M1734.58 2657.76c628.02,0 1137.33,509.29 1137.33,1137.33 0,628.02 -509.31,1137.33 -1137.33,1137.33 -628.04,0 -1137.33,-509.31 -1137.33,-1137.33 0,-628.04 509.29,-1137.33 1137.33,-1137.33z"/>
  <path class="fil4 str0" d="M1746.65 2165.85c886.72,0 1605.81,719.09 1605.81,1605.81 0,886.72 -719.09,1605.81 -1605.81,1605.81 -886.72,0 -1605.81,-719.09 -1605.81,-1605.81 0,-886.72 719.09,-1605.81 1605.81,-1605.81z"/>
  <path class="fil5" d="M2485.07 3057.85c178.71,184.82 288.71,436.49 288.71,713.81 0,289.29 -119.7,550.62 -312.21,737.31l-74.41 -74.41c173.47,-167.64 281.37,-402.68 281.37,-662.9 0,-248.19 -98.15,-473.5 -257.73,-639.24l74.26 -74.57zm-1425.76 1476.95c-208.6,-188.01 -339.79,-460.27 -339.79,-763.14 0,-267.96 102.71,-511.95 270.83,-694.84l78.06 70.58c-151.25,164.22 -243.65,383.46 -243.65,624.27 0,273.81 119.49,519.74 309.09,688.6l-74.54 74.54z"/>
  <path class="fil4 str0" d="M1370.87 5046.37l107.95 22.56 -19.33 206.24 143.4 9.67 14.51 -190.13 127.29 3.22 8.06 191.75 186.21 -12.92 -37.1 -189.35m30.92 174.96l-32.95 -186.49 152.88 -41.99 57.41 183.12 145.35 -48.96 -63.11 -173.24m-2.41 -9.5l98.95 -48.66 111.75 174.43 118.94 -80.7 -105.61 -158.75 102.25 -75.8 124.39 146.09 114.71 -101.81 -125.83 -134.8m8.81 11.45l72.08 -83.45 171.01 116.89 77.96 -120.78 -159.24 -104.85 64.51 -109.74 171.59 85.88 65.78 -138.54 -168.48 -74.94m12.38 12.56l33.74 -104.98 203.08 40.77 24.59 -141.63 -187.57 -34.29 16.51 -126.23 191.5 12.03 6.43 -153.26 -184.36 -3.12m-2.28 2.64l-9.96 -109.82 202.87 -41.81 -32.7 -139.99 -186.06 41.74 -34.11 -122.64 180.97 -63.78 -53.97 -143.56 -170.94 69.15m0.96 7.47l-52.07 -97.2 170.4 -117.77 -84.8 -116.07 -154.95 111.11 -79.33 -99.58 141.68 -129.4 -105.79 -111.08 -130.31 130.46m17 -9.45l-85.94 -69.1 110.86 -174.99 -123.4 -73.7 -99.23 162.81 -111.94 -60.66 79.85 -174.48 -140.75 -60.91 -69.01 171.01m-8.2 -8.2l-106.1 -30.02 33.68 -204.41 -142.39 -19.61 -27.73 188.64 -126.74 -12.1 5.34 -191.81 -153.38 -1.07 3.3 184.36m1.6 8.49l-109.41 13.81 -48.85 -201.31 -138.75 37.56 48.18 184.49 -121.39 38.39 -70.05 -178.64 -141.58 58.94 75.07 168.42m5.6 -2.79l-95.33 55.46 -123.63 -166.2 -113.04 88.78 116.45 151 -96.75 82.77 -134.28 -137.1 -107.29 109.61 134.89 125.7m-7.58 -8.39l-66.06 88.29 -178.76 -104.68 -69.37 125.88 166.18 93.51 -56.71 114 -177.17 -73.73 -55.93 142.8 173.27 63.01m-2.59 16.03l-26.31 107.08 -205.46 -26.52 -14.66 143 189.5 21.13 -7.65 127.09 -191.91 1.37 4.31 153.3 184.13 -9.7m-17.04 0.91l17.6 108.86 -199.46 55.85 42.37 137.35 182.69 -54.6 42.62 119.98 -176.12 76.24 63.88 139.43 165.69 -80.87m3.49 6l58.74 93.33 -161.79 129.37 92.68 109.87 146.83 -121.65 86.09 93.79 -132.33 139 113.29 103.39 120.92 -139.18m7.7 7.32l90.55 62.94 -98.39 182.3 128.23 64.94 87.63 -169.36 115.92 52.7 -67.5 179.65 144.69 50.91 56.94 -175.39"/>
  <path class="fil6" d="M1751.62 2395.47l-104.09 -7.73 -38.52 -1086.77c0,0 -123.34,-19.25 -150.3,-104.05 -26.98,-84.77 -19.28,-69.39 -19.28,-69.39l-50.07 -11.52 7.68 -57.83 593.52 3.85 -7.73 77.09 -50.09 3.83c0,0 0,92.52 -69.39,138.77 -69.39,46.22 -92.5,38.53 -92.5,38.53l-19.23 1075.22z"/>
  <path class="fil7" d="M1074.47 4752.85c17.57,-19.53 31.54,-31.63 37.39,-29.68 23.13,7.73 46.23,7.73 57.8,-11.55 11.58,-19.28 30.82,-38.57 23.12,-73.25 -7.7,-34.68 69.37,-184.99 69.37,-184.99 0,0 80.95,7.72 88.64,-19.25 7.73,-26.97 27,-208.14 23.15,-273.64 -3.87,-65.49 -88.65,-169.54 -104.07,-238.92 -15.4,-69.35 -119.45,-319.88 -77.09,-620.49 42.4,-300.59 3.85,-369.96 3.85,-558.78 0,-188.86 77.12,-431.61 154.15,-589.63 77.09,-158 169.57,-304.46 173.44,-335.26 3.87,-30.87 26.97,-196.56 57.82,-227.39 30.83,-30.82 127.15,-192.69 165.71,-192.69 38.53,0 34.67,46.25 11.55,73.24 -23.13,26.95 -84.77,84.77 -61.65,88.64 23.1,3.82 65.52,-15.42 100.19,-65.54 34.7,-50.09 73.22,3.85 50.1,27 -23.13,23.12 1.78,25.51 1.78,51.61 0,26.11 -0.96,26.11 -0.96,26.11 0,0 16.41,4.81 11.62,34.77 -4.86,29.99 -29.94,50.28 -29.94,50.28 0,0 23.15,12.57 12.54,34.8 -10.58,22.24 -64.64,88.95 -64.64,88.95 0,0 -46,-10.97 -82.62,27.55 -36.6,38.53 -61.67,61.67 -61.67,61.67 0,0 48.18,11.57 96.37,17.35 48.14,5.78 92.45,-1.92 107.87,59.72 15.45,61.67 44.35,165.72 92.52,183.07 48.18,17.35 283.23,219.66 398.88,323.71 115.6,104.07 173.39,181.12 181.09,215.82 7.73,34.68 -11.52,342.99 -34.65,423.93 -23.15,80.9 -107.94,342.98 -127.17,400.78 -19.27,57.8 -80.95,46.27 -61.7,123.3 19.28,77.09 0,350.74 -42.35,474.05 -42.42,123.29 -46.28,161.86 -23.13,235.07 14.41,45.57 76.59,243.48 131.7,435.68 -178.94,106.27 -387.86,167.29 -611.03,167.29 -247.27,0 -477.06,-74.97 -667.96,-203.31zm889.1 -1451.77l142.59 -154.11c0,0 53.94,-219.71 77.07,-242.81 23.12,-23.12 38.53,-38.53 38.53,-38.53l-11.55 -69.39c0,0 -246.64,-250.49 -281.34,-342.99 -34.68,-92.49 -57.82,-107.87 -107.89,-134.87 -50.13,-26.98 -96.37,-69.37 -123.34,-88.65 -26.98,-19.27 -40.47,-44.3 -44.33,-55.85 -3.82,-11.6 28.92,-25.08 28.92,-25.08 0,0 -36.6,0 -50.09,-7.68 -13.52,-7.73 -27,-59.74 -15.45,-63.6 11.6,-3.83 28.93,-5.77 28.93,-5.77l-50.1 -9.65c0,0 -92.5,358.41 -98.27,402.73 -5.78,44.32 9.63,65.52 9.63,65.52 0,0 17.33,19.28 30.82,26.98 13.48,7.72 152.24,9.65 213.91,9.65 61.64,0 107.87,5.75 115.6,30.83 7.68,25.03 30.09,39.41 30.09,39.41 0,0 45.05,-0.91 62.4,29.94 17.32,30.82 40.47,13.48 42.38,61.67 1.95,48.14 15.42,138.74 0,231.19 -15.4,92.5 -59.74,127.2 -59.74,175.36 0,48.17 -25.03,67.45 21.22,165.71zm-393.13 -104c-65.5,-27.02 -80.92,-65.57 -80.92,-107.92 0,-42.42 7.73,-373.83 7.73,-373.83 0,0 61.64,0 65.54,38.53 3.82,38.52 -34.7,250.49 -15.42,285.19 19.23,34.65 57.77,53.94 57.77,53.94 0,0 11.55,123.32 -34.7,104.09z"/>
  <path class="fil5" d="M1909.59 988.81c28.93,-84.8 71.3,-67.42 59.75,-113.67 -11.57,-46.25 -82.87,-204.27 -202.31,-279.39 -119.5,-75.17 -188.86,-75.17 -212.01,-113.7 -23.1,-38.55 -25.03,-59.77 -25.03,-59.77 0,0 -30.83,100.24 -9.63,131.05 21.22,30.83 21.22,30.83 21.22,30.83 0,0 -57.83,9.62 -175.37,-42.4 -117.54,-52.02 -190.76,-113.69 -190.76,-113.69 0,0 -21.2,117.55 3.83,194.66 25.07,77.04 88.67,171.47 148.39,213.86 59.74,42.38 121.37,55.9 121.37,55.9l7.73 65.5c0,0 -53.95,0 -82.84,-26.97 -28.92,-27.02 -28.92,-27.02 -28.92,-27.02 0,0 7.7,44.37 38.53,77.12 30.83,32.77 82.87,77.52 82.87,77.52l439.3 2.86c0,0 -9.62,-41.86 3.87,-72.69z"/>
  <path class="fil8" d="M1628.3 2821.33c75.14,-21.22 127.15,3.82 127.15,3.82 0,0 0,75.15 1.92,88.64 1.93,13.48 61.67,7.72 65.5,19.28 3.87,11.55 -48.15,19.27 -71.25,15.42 -23.15,-3.87 -7.77,-81.37 -18.37,-76.56 -10.58,4.84 -69.93,11.6 -83.91,1.97 -14,-9.67 -21.04,-52.56 -21.04,-52.56z"/>
  <path class="fil8" d="M1823.95 2817.35c0.51,27.53 -0.48,49.29 4.38,58.48 4.78,9.19 67.02,7.22 84.89,5.8 17.83,-1.45 26.98,-58 26.98,-58 0,0 -45.81,-14.05 -116.25,-6.28z"/>
  <path class="fil8" d="M1599.88 3212.71c0,0 59.82,43.49 111.89,47.36 52.13,3.87 69.5,-20.31 78.16,-39.63 8.68,-19.35 39.56,-29 74.31,-33.83 34.72,-4.84 55.93,-66.72 55.93,-72.52 0,-5.8 -11.57,17.4 -84.89,18.39 -73.32,0.94 -150.5,-19.35 -174.63,-35.79 -24.14,-16.41 -25.08,-79.27 -17.37,-101.49 7.73,-22.26 1.93,-29 -5.8,-45.43 -7.72,-16.46 -0.69,-119.88 -0.69,-119.88 0,0 -4.36,-69.6 0,-78.79 4.35,-9.17 35.41,-62.35 62.46,-71.04 27.02,-8.69 106.14,-11.6 106.14,-11.6l39.53 3.87c0,0 -9.63,-34.82 -43.39,-34.82 -33.79,0 -107.11,7.75 -150.5,15.47 -43.43,7.75 -163.06,-18.34 -163.06,-18.34l-31.83 -25.17c0,0 36.63,56.07 59.8,73.47 23.15,17.4 33.76,39.99 43.9,60.12 10.13,20.11 -15.17,201.7 -15.17,201.7 0,0 -6.36,57.29 -1.83,75.8 4.54,18.51 29.94,51.18 41.54,59.14 11.57,8 20.77,13.3 20.77,13.3l-4.49 83.6 -0.78 36.12z"/>
  <path class="fil8" d="M1441.39 3486.12c26.93,86.7 1.9,144.47 61.64,165.67 59.77,21.22 279.39,-1.92 329.51,0 50.1,1.95 28.9,-57.8 55.9,-48.14 26.95,9.62 28.88,63.55 67.42,73.17 38.52,9.67 235.07,40.47 235.07,40.47l32.77 -63.55c0,0 -119.49,-57.82 -186.91,-57.82 -67.45,0 -73.22,-13.48 -73.22,-13.48 0,0 -21.22,-65.52 -77.1,-53.97 -55.87,11.55 -50.07,40.48 -61.67,50.1 -11.55,9.67 -265.91,25.08 -290.96,19.28 -25.03,-5.78 -92.45,-111.74 -92.45,-111.74z"/>
  <path class="fil8" d="M1287.22 3247.16c-3.85,73.2 -17.35,92.49 26.97,94.4 44.33,1.95 105.99,-23.13 105.99,-23.13 0,0 -28.06,-24.92 -68.96,-24.03 -40.9,0.93 -64,-47.24 -64,-47.24z"/>
  <path class="fil8" d="M1628.3 3734.68c11.53,59.74 11.53,111.74 36.62,119.44 25.03,7.73 61.64,-65.5 102.12,-75.17 40.42,-9.62 235.06,-5.75 275.53,11.6 40.45,17.35 75.15,78.99 100.22,90.54 25.03,11.6 44.32,-25.03 25.03,-48.15 -19.28,-23.13 -84.8,-96.35 -267.84,-88.64 -183.06,7.7 -204.26,44.32 -217.74,55.87 -13.5,11.55 -53.94,-65.49 -53.94,-65.49z"/>
  <path class="fil8" d="M1074.47 4752.85c17.57,-19.53 31.54,-31.63 37.39,-29.68 23.13,7.73 46.23,7.73 57.8,-11.55 11.58,-19.28 30.82,-38.57 23.12,-73.25 -7.7,-34.68 69.37,-184.99 69.37,-184.99 0,0 80.95,7.72 88.64,-19.25 7.73,-26.97 27,-208.14 23.15,-273.64 -3.87,-65.49 -88.65,-169.54 -104.07,-238.92 -10.91,-49.16 -66.34,-189.29 -82.65,-373.66 19.28,-11.25 36.85,-17.23 49.9,-13.63 55.87,15.4 111.77,-1.93 131.02,-52.02 19.27,-50.1 30.83,-84.8 36.63,-63.6 5.78,21.18 90.55,231.22 77.04,275.54 -13.48,44.32 -131.02,40.48 -96.32,115.6 34.68,75.15 71.29,109.84 104.04,123.32 32.77,13.52 179.21,100.19 165.72,252.46 -13.48,152.2 -50.1,317.93 -50.1,317.93 0,0 100.34,-432.82 119.47,-622.42 13.47,71.32 -105.99,666.72 -105.99,666.72l289.04 55.89 202.34 -649.35c0,0 -144.54,597.34 -150.3,633.94 -5.77,36.62 -15.42,1.93 -13.48,94.4 1.26,59.83 5.73,160.73 22.27,252.19 -73.22,13.98 -148.78,21.3 -226.07,21.3 -247.27,0 -477.06,-74.97 -667.96,-203.31z"/>
  <path class="fil8" d="M2107.37 3142.09l73.93 143.58c0,0 -5.78,-192.67 32.73,-279.38 38.57,-86.7 73.22,-123.3 73.22,-123.3 0,0 50.12,-63.6 27.02,-104.09 -23.15,-40.45 -17.35,-25.03 -107.92,-144.47 -90.57,-119.5 -80.92,-132.99 -109.85,-190.79 -28.9,-57.83 -42.38,-90.57 -136.79,-144.54 -94.42,-53.95 -156.5,-95.76 -288.27,-94.12 6.71,8.36 15.37,17.04 26.21,24.75 26.97,19.28 73.2,61.67 123.34,88.65 50.07,27 73.2,42.38 107.89,134.87 34.7,92.5 281.34,342.99 281.34,342.99l11.55 69.39c0,0 -15.42,15.42 -38.53,38.53 -21.1,21.1 -67.78,205.53 -75.86,237.92z"/>
  <path class="fil8" d="M1736.27 2994.94l4.84 29.02 87.81 0.94 1.92 -29.96c0,0 -48.27,-16.41 -94.57,0z"/>
  <path class="fil8" d="M1767.14 3030.68c0.1,-6.43 3.87,30.01 3.87,30.01l39.56 -1.93 0.36 -34.04 -43.79 5.97z"/>
  <path class="fil9" d="M1800.85 2691.72c63.72,2.25 105.09,5.59 120.74,14.52 15.65,8.99 5.59,57.17 -35.78,62.76 -41.38,5.6 -71.52,4.49 -81.61,-10.08 -10.08,-14.57 -3.35,-67.2 -3.35,-67.2z"/>
  <path class="fil9" d="M1900.36 3428.7c6.69,49.28 60.35,56.03 82.72,89.63 22.34,33.59 131.86,55.97 151.99,33.59 20.16,-22.41 -20.13,-89.63 -46.93,-100.81 -26.85,-11.22 -172.15,-62.71 -187.78,-22.41z"/>
  <path class="fil9" d="M1426.94 2026.96c52.05,-100.9 100.07,-204.44 131.33,-202.19 31.3,2.25 66.26,-8.43 38.73,32.47 -27.55,40.9 -139.33,260.98 -150.52,283.39 -11.15,22.41 -59.78,-46.47 -19.55,-113.67z"/>
  <path class="fil9" d="M1729.06 1937.98c42.52,14.61 73.83,5.01 81.08,25.76 7.27,20.75 24.01,41.49 -5.06,34.75 -29.05,-6.74 -76.56,-42.55 -91.66,-49.85 -15.07,-7.27 15.63,-10.66 15.63,-10.66z"/>
  <path class="fil10" d="M1602.98 1927.84c-3.34,23.53 13.4,30.21 44.7,34.7 31.31,4.49 72.69,22.42 72.69,22.42 0,0 -115.5,-13.27 -125.57,-22.23 -10.05,-8.94 -1.37,-41.71 8.18,-34.9z"/>
  <path class="fil10" d="M1582.1 2013.6c-4.46,30.78 -1.59,37.38 18.44,45.36 20.01,8 99.51,19.6 99.51,19.6 0,0 -87.76,-30.26 -96.7,-36.95 -8.94,-6.73 -10.61,-35.26 -10.61,-35.26 0,0 -13.98,-6.76 -10.64,7.25z"/>
  <path class="fil11" d="M1777.35 892.9c11.19,-170.25 -91.63,-237.42 -147.53,-271.06 -55.89,-33.59 -55.89,-33.59 -55.89,-33.59 0,0 193.15,195.91 203.41,304.66z"/>
  <polygon class="fil5" points="934.22,3070.44 1077.83,3201.51 1132.97,3006.19 "/>
  <polygon class="fil5" points="2523.75,4505.17 2380.14,4374.1 2325,4569.42 "/>
 </g>
</svg>
