<svg width="48" viewBox="0 0 48 48" fill="none" xmlns="http://www.w3.org/2000/svg">
<path d="M24.2915 47.7817C37.1867 47.6413 47.7707 37.1869 47.7815 24.0109C47.7923 10.8241 37.1435 0.16445 23.9135 0.20765C10.8239 0.25085 0.22912 10.8672 0.20752 23.9893C0.21832 37.1437 10.8779 47.9329 24.2915 47.7817ZM23.9999 1.01765C36.6143 1.01765 46.8635 11.1697 46.9823 23.7733C47.1011 36.5821 36.7871 46.9608 24.0431 46.9824C11.3963 47.0041 1.16872 36.8305 1.02832 24.2593C0.887919 11.4396 11.2127 1.02845 23.9999 1.01765Z" fill="currentColor"/>
<path d="M2.03298 24.4537C2.13018 25.5769 2.21658 26.7001 2.35698 27.8233C2.43258 28.4281 2.59458 29.0329 2.75658 29.6269C2.84298 29.9617 3.04818 30.0481 3.38298 29.9617C4.09578 29.7565 4.81938 29.5621 5.53218 29.3569C5.86698 29.2597 6.21258 29.1517 6.52578 29.0545C6.95778 30.4153 7.47618 31.7113 8.18898 32.9425C7.87578 33.1261 7.57338 33.2989 7.26018 33.4825C7.11978 33.2341 6.95778 32.9965 6.83898 32.7373C6.56898 32.1757 6.32058 31.6033 6.07218 31.0309C5.92098 30.6853 5.74818 30.5989 5.39178 30.7285C4.87338 30.9121 4.34418 31.0957 3.82578 31.2793C3.46938 31.3981 3.35058 31.6465 3.51258 31.9921C3.82578 32.6833 4.12818 33.3745 4.46298 34.0657C4.67898 34.5193 4.90578 34.9621 5.18658 35.3833C5.61858 36.0529 6.09378 36.6901 6.55818 37.3381C6.74178 37.5973 6.96858 37.6297 7.21698 37.4353C7.53018 37.1869 7.85418 36.9385 8.16738 36.6901C8.28618 36.5929 8.40498 36.4741 8.52378 36.3769C8.73978 36.2041 8.96658 36.0313 9.18258 35.8585C9.39858 35.6965 9.60378 35.5345 9.83058 35.3617C10.727 36.4957 11.7314 37.4677 12.833 38.3317C12.6062 38.6341 12.401 38.9041 12.1526 39.2281C11.4506 38.5801 10.781 37.9537 10.1222 37.3273C9.88458 37.1005 9.65778 37.0897 9.42018 37.3057C8.99898 37.6945 8.57778 38.0941 8.16738 38.4937C7.90818 38.7313 7.87578 38.9257 8.12418 39.1849C8.56698 39.6493 9.00978 40.1029 9.48498 40.5349C9.89538 40.9021 10.3382 41.2153 10.781 41.5393C11.2994 41.9173 11.8394 42.2845 12.3686 42.6517C12.563 42.7921 12.7682 42.9325 12.9842 43.0513C13.265 43.2133 13.5134 43.1269 13.6754 42.8569C13.8158 42.6085 13.967 42.3601 14.1074 42.1117C14.345 41.6797 14.5718 41.2369 14.8094 40.8049C14.9606 40.5241 15.1226 40.2325 15.2846 39.9409C16.5374 40.6105 17.8226 41.1721 19.2266 41.5285C19.1294 41.8633 19.0322 42.1981 18.935 42.5653C18.4922 42.4357 18.071 42.3385 17.6606 42.1873C17.1962 42.0253 16.7426 41.8093 16.289 41.6257C16.019 41.5177 15.8354 41.5825 15.7166 41.8309C15.4466 42.4033 15.1766 42.9757 14.9174 43.5481C14.8418 43.7209 14.8526 43.9045 15.0362 44.0017C15.4034 44.1961 15.7706 44.4121 16.1594 44.5417C17.369 44.9197 18.5786 45.2653 19.799 45.5893C20.231 45.7081 20.6846 45.7297 21.1274 45.7837C21.4622 45.8269 21.6782 45.6865 21.6998 45.4381C21.7754 44.7253 21.8402 44.0125 21.905 43.2997C21.9482 42.8893 21.9914 42.4897 22.0346 42.0685C23.471 42.2197 24.8642 42.2089 26.279 42.0361C26.3222 42.3925 26.3654 42.7381 26.4194 43.0945C26.3114 43.1053 26.225 43.1161 26.1494 43.1269C25.3178 43.1593 24.4862 43.1917 23.6546 43.2349C23.3522 43.2457 23.1794 43.4185 23.1686 43.7209C23.147 44.3041 23.1146 44.8981 23.093 45.4813C23.0822 45.7189 23.1794 45.8809 23.4062 45.9457C23.5034 45.9781 23.6114 45.9781 23.7194 45.9889C24.9398 46.0105 26.1386 45.9349 27.3374 45.7297C28.1258 45.5893 28.9142 45.4273 29.7026 45.2437C30.0482 45.1681 30.1454 44.9413 30.0482 44.6065C29.7566 43.6021 29.465 42.6085 29.1734 41.6041C29.1626 41.5501 29.1518 41.5069 29.141 41.4637C30.4802 41.0101 31.787 40.5133 33.0074 39.7897C33.191 40.1029 33.3746 40.4053 33.569 40.7401C33.137 40.9669 32.7266 41.1937 32.3054 41.3989C31.8842 41.6041 31.4414 41.7769 31.0094 41.9713C30.761 42.0901 30.6962 42.2845 30.7826 42.5437C30.977 43.0945 31.1714 43.6453 31.3766 44.1961C31.4954 44.5201 31.7546 44.6389 32.0678 44.4985C32.8022 44.1637 33.5474 43.8181 34.2818 43.4725C34.4654 43.3861 34.6382 43.2673 34.811 43.1593C35.3618 42.8353 35.9126 42.5221 36.4418 42.1765C36.7982 41.9497 37.133 41.6797 37.4678 41.4205C37.6622 41.2801 37.6946 40.9993 37.5542 40.8157C37.3598 40.5565 37.1546 40.2973 36.9494 40.0489C36.539 39.5521 36.1286 39.0553 35.7182 38.5585C35.6426 38.4613 35.5562 38.3749 35.5022 38.2669C35.4806 38.2237 35.5022 38.1157 35.5346 38.0833C35.837 37.8025 36.1502 37.5433 36.4418 37.2625C36.9386 36.7657 37.4354 36.2581 37.9214 35.7505C38.0834 35.5777 38.2238 35.3725 38.3858 35.1781C38.6774 35.4049 38.9582 35.6101 39.2498 35.8261C39.077 36.0421 38.9366 36.2473 38.7638 36.4309C38.2994 36.9385 37.8134 37.4461 37.349 37.9537C37.1546 38.1697 37.1438 38.3533 37.349 38.5585C37.7594 39.0013 38.1698 39.4333 38.591 39.8653C38.8286 40.1137 39.0122 40.1245 39.2822 39.8761C39.509 39.6709 39.725 39.4441 39.941 39.2173C40.3514 38.7745 40.7726 38.3533 41.1398 37.8781C41.6366 37.2409 42.0902 36.5605 42.5546 35.8909C42.7382 35.6317 42.911 35.3617 43.073 35.0809C43.2674 34.7461 43.181 34.4869 42.857 34.3033C42.0902 33.8821 41.3342 33.4501 40.5674 33.0289C40.3838 32.9317 40.1894 32.8561 39.9842 32.7589C40.6538 31.4737 41.2262 30.1885 41.561 28.7845C41.9174 28.8817 42.2522 28.9789 42.6086 29.0869C42.4574 29.5729 42.3386 30.0373 42.1766 30.4801C42.0254 30.9013 41.8418 31.3009 41.6798 31.7113C41.561 32.0029 41.6366 32.1865 41.9066 32.3161C42.4466 32.5645 42.9866 32.8021 43.5158 33.0721C43.8182 33.2233 44.045 33.1153 44.1962 32.8021C44.3474 32.4781 44.5094 32.1541 44.6066 31.8085C44.9414 30.7285 45.2762 29.6593 45.557 28.5685C45.6974 28.0285 45.7406 27.4561 45.8054 26.8945C45.8594 26.4841 45.6974 26.3113 45.3086 26.2789C44.7362 26.2357 44.1638 26.1925 43.6022 26.1385C43.1054 26.0953 42.6086 26.0305 42.1334 25.9765C42.155 25.2637 42.209 24.5941 42.1982 23.9137C42.1982 23.2333 42.1334 22.5529 42.101 21.8509C42.4358 21.8077 42.7706 21.7645 43.1162 21.7213C43.127 21.8077 43.1486 21.8725 43.1486 21.9373C43.181 22.7257 43.2134 23.5249 43.2458 24.3133C43.2566 24.6265 43.4078 24.8209 43.6778 24.8317C44.2826 24.8641 44.8766 24.8857 45.4814 24.9073C45.7838 24.9181 45.9674 24.7561 45.989 24.4537C45.9998 24.3889 45.9998 24.3133 45.9998 24.2485C46.0322 22.6393 45.827 21.0517 45.5462 19.4749C45.4814 19.1077 45.3734 18.7513 45.2654 18.3949C45.179 18.1249 44.9846 17.9953 44.7794 18.0493C43.9478 18.2761 43.127 18.5137 42.2954 18.7513C42.0254 18.8269 41.7446 18.9133 41.4962 18.9889C41.0642 17.6173 40.5458 16.3213 39.8438 15.1117C40.157 14.9281 40.4594 14.7553 40.7726 14.5717C40.9454 14.8741 41.129 15.1657 41.2694 15.4681C41.5178 15.9865 41.7338 16.5049 41.9606 17.0341C42.1118 17.3689 42.2846 17.4553 42.6194 17.3365C43.1486 17.1529 43.6778 16.9585 44.207 16.7749C44.531 16.6561 44.6606 16.4185 44.531 16.0945C44.315 15.5761 44.1098 15.0469 43.8722 14.5393C43.613 13.9993 43.343 13.4593 43.019 12.9517C42.5222 12.1741 41.9822 11.4181 41.4422 10.6621C41.3018 10.4677 41.0534 10.4353 40.859 10.5757C40.6646 10.7161 40.4702 10.8673 40.2866 11.0185C39.7034 11.4829 39.131 11.9581 38.5586 12.4333C38.4506 12.5197 38.321 12.5953 38.1914 12.6817C37.3058 11.5801 36.3122 10.5973 35.1998 9.73334C35.4266 9.44174 35.6318 9.16094 35.8478 8.88014C36.0314 9.00974 36.1934 9.10694 36.3338 9.23654C36.8738 9.73334 37.4138 10.2517 37.943 10.7593C38.1374 10.9429 38.3966 10.9645 38.591 10.7701C39.0122 10.3813 39.4334 9.98174 39.8546 9.58214C40.1462 9.30134 40.157 9.11774 39.8762 8.82614C39.617 8.55614 39.347 8.30774 39.0878 8.03774C38.915 7.86494 38.753 7.68134 38.5694 7.53014C38.1482 7.19534 37.727 6.86054 37.295 6.53654C36.7658 6.14774 36.215 5.76974 35.675 5.40254C35.4914 5.27294 35.297 5.14334 35.1026 5.03534C34.8002 4.86254 34.5518 4.93814 34.379 5.24054C34.0658 5.81294 33.7418 6.38534 33.4286 6.95774C33.2126 7.34654 32.9966 7.73534 32.7806 8.13494C31.5278 7.46534 30.2426 6.89294 28.8386 6.54734C28.9358 6.20174 29.0438 5.85614 29.141 5.51054C29.5838 5.62934 29.9942 5.72654 30.3938 5.86694C30.8474 6.02894 31.2794 6.23414 31.7222 6.41774C32.057 6.55814 32.2298 6.49334 32.381 6.16934C32.6186 5.67254 32.8562 5.16494 33.083 4.65734C33.2666 4.26854 33.191 4.07414 32.8022 3.90134C32.4782 3.75014 32.1542 3.58814 31.8086 3.49094C30.7286 3.15614 29.6594 2.82134 28.5686 2.54054C28.0394 2.40014 27.4778 2.35694 26.9162 2.29214C26.5922 2.24894 26.3762 2.38934 26.3546 2.61614C26.2898 3.24254 26.225 3.86894 26.1602 4.50614C26.117 4.99214 26.0738 5.48894 26.0306 6.00734C24.5942 5.85614 23.1902 5.86694 21.7646 6.03974C21.7214 5.68334 21.6782 5.33774 21.6242 4.99214C21.6998 4.98134 21.7538 4.97054 21.797 4.97054C22.6394 4.92734 23.4818 4.89494 24.335 4.86254C24.7022 4.85174 24.8642 4.70054 24.8858 4.34414C24.9074 3.76094 24.9398 3.16694 24.9722 2.58374C24.983 2.37854 24.8858 2.23814 24.7022 2.17334C24.5726 2.13014 24.4322 2.10854 24.3026 2.10854C23.093 2.08694 21.8834 2.16254 20.6846 2.36774C19.907 2.49734 19.1294 2.65934 18.3626 2.84294C18.0062 2.92934 17.8982 3.14534 18.0062 3.49094C18.2978 4.47374 18.5786 5.46734 18.8702 6.45014C18.8918 6.51494 18.9026 6.57974 18.9134 6.63374C17.5742 7.08734 16.2674 7.58414 15.047 8.30774C14.8634 7.99454 14.6798 7.69214 14.4854 7.35734C14.9282 7.13054 15.3494 6.90374 15.7706 6.69854C16.1918 6.49334 16.6346 6.32054 17.0558 6.11534C17.2934 5.99654 17.3474 5.81294 17.261 5.55374C17.0666 5.00294 16.8722 4.45214 16.667 3.90134C16.559 3.58814 16.2998 3.45854 15.9974 3.59894C15.3278 3.90134 14.6582 4.20374 13.9886 4.51694C13.7294 4.63574 13.481 4.79774 13.2326 4.94894C12.6926 5.27294 12.1418 5.58614 11.6126 5.93174C11.2454 6.16934 10.9106 6.43934 10.565 6.69854C10.3814 6.83894 10.3382 7.11974 10.4894 7.30334C10.6514 7.51934 10.8242 7.73534 10.997 7.94054C11.4722 8.52374 11.9474 9.10694 12.4334 9.67934C12.4766 9.73334 12.5306 9.78734 12.5414 9.85214C12.5522 9.91694 12.5414 10.0033 12.509 10.0465C12.2066 10.3273 11.8934 10.5865 11.6018 10.8673C11.105 11.3641 10.6082 11.8717 10.133 12.3793C9.97098 12.5521 9.83058 12.7573 9.66858 12.9517C9.37698 12.7357 9.09618 12.5197 8.81538 12.3037C8.97738 12.0985 9.10698 11.9041 9.25818 11.7313C9.73338 11.2129 10.2194 10.7053 10.6946 10.1977C10.9106 9.97094 10.9106 9.79814 10.6946 9.56054C10.295 9.12854 9.88458 8.69654 9.47418 8.27534C9.23658 8.02694 9.05298 8.01614 8.80458 8.24294C8.56698 8.45894 8.34018 8.69654 8.11338 8.93414C7.90818 9.13934 7.69218 9.33374 7.50858 9.54974C7.16298 9.96014 6.83898 10.3921 6.51498 10.8241C6.12618 11.3533 5.75898 11.8933 5.39178 12.4225C5.25138 12.6277 5.11098 12.8221 4.99218 13.0381C4.84098 13.2973 4.87338 13.6213 5.04618 13.7293C5.35938 13.9129 5.67258 14.0965 5.99658 14.2693C6.46098 14.5177 6.92538 14.7661 7.37898 15.0145C7.60578 15.1333 7.83258 15.2521 8.07018 15.3709C7.40058 16.6453 6.82818 17.9413 6.49338 19.3345C6.13698 19.2265 5.80218 19.1293 5.44578 19.0321C5.57538 18.5785 5.68338 18.1357 5.83458 17.7037C5.98578 17.2609 6.19098 16.8397 6.36378 16.4185C6.48258 16.1161 6.41778 15.9433 6.12618 15.8029C5.60778 15.5545 5.07858 15.3061 4.54938 15.0793C4.18218 14.9173 3.99858 15.0037 3.82578 15.3709C3.28578 16.5265 2.92938 17.7469 2.61618 18.9781C2.43258 19.7125 2.33538 20.4685 2.22738 21.2245C2.16258 21.6133 2.34618 21.8077 2.72418 21.8401C3.44778 21.9049 4.17138 21.9589 4.88418 22.0237C5.22978 22.0561 5.57538 22.1101 5.93178 22.1533C5.79138 23.5357 5.80218 24.8965 5.96418 26.2681C5.60778 26.3113 5.26218 26.3545 4.90578 26.3977C4.89498 26.3221 4.89498 26.2897 4.89498 26.2465C4.86258 25.4365 4.81938 24.6373 4.78698 23.8273C4.77618 23.4601 4.63578 23.2981 4.26858 23.2873C3.70698 23.2549 3.14538 23.2333 2.57298 23.2117C2.22738 23.2009 2.05458 23.3629 2.03298 23.7085C2.02218 23.9029 2.01138 24.1837 2.03298 24.4537ZM2.82138 24.0217C3.19938 24.0217 3.57738 24.0217 3.97698 24.0217C3.97698 24.0973 3.98778 24.1729 3.98778 24.2593C4.04178 25.1017 4.07418 25.9441 4.13898 26.7865C4.17138 27.1969 4.39818 27.3373 4.79778 27.2725C5.32698 27.1753 5.84538 27.0889 6.37458 27.0133C6.68778 26.9701 6.82818 26.7973 6.77418 26.4733C6.60138 25.4473 6.56898 24.4105 6.61218 23.3737C6.63378 22.8769 6.67698 22.3693 6.73098 21.8725C6.77418 21.4945 6.64458 21.3217 6.26658 21.2677C5.22978 21.1165 4.20378 20.9653 3.16698 20.8141C3.13458 20.8141 3.09138 20.7925 3.05898 20.7925C3.05898 19.9069 3.84738 16.9585 4.34418 15.9973C4.68978 16.1485 5.04618 16.2997 5.41338 16.4617C5.26218 16.8613 5.08938 17.2393 4.97058 17.6389C4.80858 18.1789 4.65738 18.7189 4.52778 19.2697C4.46298 19.5181 4.58178 19.7017 4.84098 19.7665C5.42418 19.9177 6.00738 20.0473 6.60138 20.1769C6.87138 20.2309 7.03338 20.1121 7.11978 19.8205C7.28178 19.2589 7.41138 18.6865 7.61658 18.1357C7.96218 17.2069 8.35098 16.2889 8.86938 15.4249C9.06378 15.1009 9.00978 14.9281 8.68578 14.7229C7.98378 14.2909 7.29258 13.8589 6.59058 13.4377C6.35298 13.2865 6.10458 13.1569 5.83458 13.0057C6.72018 11.5909 7.72458 10.2733 8.86938 9.11774C9.17178 9.39854 9.46338 9.65774 9.72258 9.89534C9.48498 10.1653 9.26898 10.4137 9.05298 10.6621C8.83698 10.9105 8.59938 11.1589 8.39418 11.4181C8.19978 11.6449 8.02698 11.8825 7.85418 12.1201C7.65978 12.4009 7.69218 12.5737 7.97298 12.7789C8.42658 13.1029 8.86938 13.4269 9.32298 13.7509C9.63618 13.9669 9.78738 13.9237 10.025 13.6213C10.457 13.1029 10.8782 12.5629 11.3534 12.0877C11.9258 11.5045 12.5522 10.9753 13.157 10.4245C13.2434 10.3381 13.3406 10.2625 13.4162 10.1761C13.5674 10.0141 13.589 9.84134 13.4594 9.65774C13.2002 9.29054 12.941 8.92334 12.671 8.56694C12.3686 8.14574 12.0446 7.73534 11.7422 7.32494C11.645 7.19534 11.5694 7.04414 11.4722 6.88214C12.8114 5.93174 14.2262 5.10014 15.7706 4.47374C15.911 4.83014 16.0514 5.17574 16.2026 5.55374C16.0838 5.60774 15.9758 5.67254 15.857 5.72654C15.2954 6.00734 14.7338 6.29894 14.1722 6.57974C13.9994 6.66614 13.8158 6.74174 13.643 6.84974C13.3406 7.03334 13.3082 7.24934 13.4918 7.55174C13.7834 7.99454 14.0534 8.45894 14.3342 8.90174C14.5502 9.24734 14.7662 9.27974 15.1226 9.07454C15.5006 8.85854 15.8678 8.62094 16.2566 8.43734C17.0018 8.10254 17.7686 7.78934 18.5246 7.49774C18.8162 7.38974 19.1294 7.34654 19.421 7.24934C19.7234 7.16294 19.8206 6.95774 19.745 6.65534C19.4858 5.58614 19.2266 4.51694 18.9674 3.44774C19.4642 3.18854 22.8986 2.76734 23.849 2.85374C23.849 3.23174 23.849 3.62054 23.849 4.04174C23.687 4.04174 23.5142 4.03094 23.3522 4.04174C22.6178 4.08494 21.8942 4.12814 21.1598 4.18214C20.6522 4.22534 20.5226 4.43054 20.6198 4.92734C20.717 5.40254 20.7926 5.88854 20.879 6.36374C20.9546 6.77414 21.0842 6.87134 21.4838 6.80654C23.0282 6.56894 24.5834 6.56894 26.1278 6.77414C26.5058 6.82814 26.6786 6.68774 26.7326 6.30974C26.8838 5.31614 27.0242 4.32254 27.1754 3.32894C27.1862 3.25334 27.2078 3.17774 27.2186 3.11294C28.0934 3.11294 31.1282 3.94454 32.003 4.41974C31.8518 4.77614 31.7006 5.13254 31.5386 5.49974C31.2794 5.39174 31.0418 5.27294 30.7826 5.18654C30.1346 4.98134 29.4758 4.78694 28.817 4.60334C28.493 4.51694 28.2986 4.62494 28.223 4.94894C28.0826 5.51054 27.953 6.07214 27.8234 6.63374C27.7694 6.87134 27.8882 7.06574 28.1366 7.14134C28.4174 7.22774 28.6874 7.32494 28.9682 7.38974C29.7458 7.55174 30.4694 7.89734 31.1822 8.23214C31.679 8.46974 32.1758 8.72894 32.6618 8.97734C32.8994 9.09614 33.083 9.05294 33.245 8.80454C33.7958 7.91894 34.3358 7.03334 34.8758 6.13694C34.919 6.06134 34.9622 5.99654 35.027 5.89934C35.2214 6.03974 35.405 6.15854 35.5886 6.29894C36.2906 6.81734 36.9926 7.31414 37.673 7.84334C38.0294 8.11334 38.3426 8.43734 38.6774 8.73974C38.9258 8.97734 38.915 8.97734 38.6774 9.21494C38.4722 9.40934 38.2886 9.62534 38.1158 9.80894C37.5758 9.33374 37.0682 8.88014 36.5606 8.43734C36.3446 8.25374 36.1178 8.09174 35.891 7.92974C35.621 7.74614 35.4374 7.77854 35.2538 8.03774C34.919 8.49134 34.595 8.94494 34.271 9.40934C34.0658 9.70094 34.109 9.85214 34.379 10.0789C34.8974 10.5109 35.4266 10.9321 35.9126 11.4073C36.485 11.9797 37.0142 12.5953 37.5542 13.2001C37.5866 13.2325 37.6082 13.2757 37.6406 13.3081C38.0186 13.7185 38.0726 13.7401 38.5262 13.4269C39.2282 12.9409 39.9086 12.4117 40.6106 11.9149C40.7726 11.7961 40.9346 11.6989 41.129 11.5693C42.101 12.9301 42.9218 14.3449 43.5266 15.8785C43.1702 16.0297 42.8246 16.1701 42.4466 16.3321C42.3602 16.1053 42.2846 15.8893 42.1874 15.6949C41.9498 15.2197 41.7014 14.7661 41.4638 14.3017C41.3666 14.1181 41.2802 13.9345 41.1722 13.7617C40.9886 13.4593 40.7618 13.4269 40.4702 13.6213C40.0058 13.9129 39.5414 14.2045 39.077 14.4853C38.807 14.6581 38.753 14.8849 38.9042 15.1657C39.131 15.5761 39.3902 15.9649 39.5738 16.3861C39.9086 17.1205 40.2002 17.8657 40.4918 18.6217C40.6106 18.9133 40.6538 19.2373 40.7402 19.5505C40.8266 19.8637 41.021 19.9717 41.345 19.8853C42.4142 19.6261 43.4834 19.3669 44.5526 19.1185C44.7902 19.5505 45.2438 23.0929 45.1358 24.0109C44.7578 24.0109 44.369 24.0109 43.9478 24.0109C43.9478 23.8273 43.9586 23.6545 43.9478 23.4817C43.9046 22.7257 43.8506 21.9589 43.7966 21.2029C43.775 20.8465 43.5266 20.6845 43.181 20.7493C42.6302 20.8465 42.0902 20.9329 41.5394 21.0301C41.2586 21.0733 41.1398 21.2569 41.1722 21.5809C41.237 22.2721 41.3342 22.9633 41.345 23.6545C41.345 24.4861 41.2802 25.3069 41.2262 26.1385C41.1938 26.5597 41.3018 26.7217 41.723 26.7865C42.749 26.9377 43.775 27.0889 44.801 27.2401C44.8334 27.2401 44.855 27.2509 44.909 27.2617C44.7686 28.9357 44.1854 30.4801 43.6454 32.0677C43.2566 31.9057 42.911 31.7437 42.5438 31.5925C42.6842 31.2253 42.8354 30.8689 42.9434 30.5125C43.1162 29.9617 43.2674 29.4001 43.4186 28.8493C43.4942 28.5577 43.3754 28.3525 43.073 28.2769C42.5114 28.1365 41.9498 28.0069 41.3774 27.8881C41.075 27.8233 40.9238 27.9421 40.8374 28.2337C40.6862 28.7629 40.5458 29.3029 40.3622 29.8321C40.1894 30.3289 39.9734 30.8041 39.7466 31.2793C39.5198 31.7653 39.2714 32.2297 39.0338 32.7049C38.9042 32.9533 38.9474 33.1369 39.1958 33.2881C39.5198 33.4933 39.8546 33.6769 40.1678 33.8713C40.5566 34.1089 40.9346 34.3681 41.3234 34.6057C41.5718 34.7569 41.831 34.8973 42.101 35.0593C41.2046 36.4741 40.2218 37.7809 39.0446 38.9473C38.7422 38.6665 38.4722 38.4073 38.2346 38.1805C38.8718 37.4137 39.4874 36.6685 40.0814 35.9233C40.2866 35.6749 40.2326 35.4697 39.9734 35.2861C39.5198 34.9621 39.077 34.6381 38.6234 34.3141C38.3102 34.0981 38.159 34.1413 37.9214 34.4329C37.457 34.9837 37.0034 35.5561 36.4958 36.0637C35.945 36.6253 35.3294 37.1329 34.7462 37.6621C34.649 37.7485 34.5302 37.8241 34.4762 37.9429C34.4222 38.0509 34.3898 38.2129 34.433 38.3209C34.487 38.4937 34.595 38.6449 34.703 38.7961C35.1026 39.3469 35.5238 39.8977 35.9342 40.4485C36.107 40.6861 36.2906 40.9237 36.4742 41.1721C35.1134 42.1549 33.6986 42.9757 32.1542 43.6021C32.0138 43.2457 31.8734 42.8893 31.7222 42.5113C31.9274 42.4249 32.1326 42.3601 32.327 42.2737C32.8022 42.0361 33.2666 41.7769 33.7418 41.5285C33.9146 41.4313 34.0982 41.3557 34.2602 41.2585C34.595 41.0641 34.6274 40.8481 34.4222 40.5241C34.1306 40.0705 33.8498 39.6061 33.569 39.1525C33.3962 38.8717 33.1586 38.8177 32.867 38.9797C32.4782 39.1957 32.111 39.4441 31.7114 39.6277C30.9446 39.9733 30.1562 40.2973 29.3786 40.5997C29.087 40.7077 28.7738 40.7509 28.4822 40.8481C28.1906 40.9345 28.1042 41.1289 28.169 41.4313C28.4174 42.4681 28.6658 43.5049 28.9142 44.5417C28.925 44.5849 28.925 44.6281 28.9358 44.6713C28.2986 44.9305 24.7454 45.3733 24.0542 45.2329C24.0542 44.8549 24.0542 44.4769 24.0542 44.0773C24.1406 44.0773 24.2162 44.0665 24.3026 44.0665C25.1666 44.0125 26.0306 43.9585 26.8946 43.8829C27.251 43.8505 27.3698 43.6453 27.305 43.2889C27.2078 42.7381 27.0998 42.1765 27.0026 41.6257C26.9486 41.3449 26.819 41.2477 26.5166 41.2693C26.0414 41.3125 25.577 41.3881 25.1126 41.4205C24.0218 41.4961 22.9418 41.4637 21.851 41.3341C21.689 41.3125 21.5054 41.3449 21.3542 41.4097C21.2678 41.4421 21.203 41.5933 21.1814 41.7013C21.0626 42.4357 20.9654 43.1809 20.8574 43.9153C20.8034 44.2717 20.7386 44.6173 20.6738 44.9953C20.2526 44.9305 19.8422 44.8981 19.4426 44.8009C18.6542 44.5957 17.8766 44.3581 17.099 44.1205C16.7426 44.0125 16.397 43.8829 16.0406 43.7641C15.9326 43.7209 15.8678 43.6669 15.9326 43.5481C16.073 43.2349 16.2026 42.9217 16.3538 42.5977C16.559 42.6841 16.7534 42.7813 16.9586 42.8461C17.6714 43.0729 18.3842 43.2889 19.097 43.4941C19.3886 43.5805 19.5938 43.4509 19.6694 43.1593C19.8206 42.5869 19.9502 42.0037 20.0798 41.4313C20.1338 41.1937 19.9826 40.9993 19.7018 40.9237C19.151 40.7617 18.6002 40.6321 18.0602 40.4377C17.1206 40.0813 16.1918 39.6925 15.3386 39.1633C14.993 38.9581 14.831 39.0013 14.6258 39.3361C14.0966 40.2001 13.5674 41.0749 13.0382 41.9389C12.995 42.0145 12.9518 42.0793 12.887 42.1765C12.7034 42.0469 12.5306 41.9389 12.3686 41.8093C11.6342 41.2585 10.8782 40.7293 10.1546 40.1569C9.79818 39.8761 9.48498 39.5413 9.15018 39.2389C9.02058 39.1201 9.05298 39.0337 9.16098 38.9257C9.38778 38.6989 9.59298 38.4505 9.79818 38.2237C10.511 38.9797 11.2454 39.5845 12.0122 40.1461C12.2822 40.3513 12.4766 40.3081 12.671 40.0489C12.995 39.5953 13.319 39.1525 13.643 38.6989C13.859 38.3965 13.8266 38.2453 13.5458 38.0077C12.7358 37.3381 11.915 36.6685 11.213 35.8693C10.8566 35.4589 10.5002 35.0377 10.133 34.6273C9.92778 34.4005 9.76578 34.3897 9.51738 34.5625C8.85858 35.0269 8.21058 35.5021 7.55178 35.9665C7.30338 36.1393 7.06578 36.3229 6.80658 36.5281C5.82378 35.1565 5.00298 33.7417 4.39818 32.2081C4.75458 32.0569 5.11098 31.9165 5.47818 31.7545C5.57538 31.9921 5.65098 32.2189 5.75898 32.4349C5.98578 32.8885 6.23418 33.3421 6.47178 33.7957C6.56898 33.9793 6.65538 34.1629 6.76338 34.3357C6.94698 34.6381 7.17378 34.6705 7.46538 34.4761C7.92978 34.1737 8.39418 33.8929 8.85858 33.6121C9.12858 33.4393 9.18258 33.2125 9.03138 32.9317C8.81538 32.5537 8.56698 32.1865 8.39418 31.7977C8.05938 31.0417 7.74618 30.2749 7.44378 29.4973C7.32498 29.2057 7.28178 28.8817 7.19538 28.5685C7.09818 28.2229 6.91458 28.1365 6.55818 28.2229C5.49978 28.4821 4.43058 28.7305 3.37218 28.9789C3.13458 28.3525 2.70258 24.8425 2.82138 24.0217Z" fill="currentColor"/>
<path d="M24.0326 40.2972C32.9426 40.2756 40.481 33.018 40.2866 23.6112C40.1138 15.036 33.0938 7.60565 23.7302 7.70285C15.1334 7.80005 7.27101 14.9712 7.73541 24.8532C8.11341 33.0828 14.8958 40.2648 24.0326 40.2972ZM23.1686 8.53445C32.597 8.09165 39.4874 15.6192 39.4982 23.9244C39.509 32.6184 32.5538 39.5196 23.9462 39.4872C15.3818 39.4548 8.55621 32.5644 8.51301 23.9892C8.58861 15.306 15.3818 8.90165 23.1686 8.53445Z" fill="currentColor"/>
</svg>
