<?xml version="1.0" encoding="UTF-8"?>
<!DOCTYPE svg PUBLIC "-//W3C//DTD SVG 1.1//EN" "http://www.w3.org/Graphics/SVG/1.1/DTD/svg11.dtd">
<!-- Creator: CorelDRAW 2020 (64-Bit Оценочная версия) -->
<svg xmlns="http://www.w3.org/2000/svg" xml:space="preserve" width="43.3169mm" height="45.1184mm" version="1.1" style="shape-rendering:geometricPrecision; text-rendering:geometricPrecision; image-rendering:optimizeQuality; fill-rule:evenodd; clip-rule:evenodd"
viewBox="0 0 1849.15 1926.06"
 xmlns:xlink="http://www.w3.org/1999/xlink"
 xmlns:xodm="http://www.corel.com/coreldraw/odm/2003">
 <defs>
  <style type="text/css">
   <![CDATA[
    .str1 {stroke:#2B2A29;stroke-width:8.54;stroke-miterlimit:22.9256}
    .str2 {stroke:#5B5A50;stroke-width:8.54;stroke-miterlimit:22.9256}
    .str3 {stroke:#FCFCFC;stroke-width:8.54;stroke-miterlimit:22.9256}
    .str5 {stroke:#B0CB1F;stroke-width:8.54;stroke-miterlimit:22.9256}
    .str4 {stroke:#7690C9;stroke-width:8.54;stroke-miterlimit:22.9256}
    .str6 {stroke:#56698F;stroke-width:8.54;stroke-miterlimit:22.9256}
    .str0 {stroke:#523630;stroke-width:8.54;stroke-miterlimit:22.9256}
    .fil5 {fill:none}
    .fil25 {fill:#FEFEFE}
    .fil13 {fill:#2B2A29}
    .fil6 {fill:#B2B09C}
    .fil7 {fill:#5B5A50}
    .fil14 {fill:#86755D}
    .fil2 {fill:#A75F4A}
    .fil9 {fill:#E31E24}
    .fil17 {fill:#FCFCFC}
    .fil21 {fill:#FAFAFA}
    .fil22 {fill:#98A27F}
    .fil24 {fill:#DBE285}
    .fil19 {fill:#CB5499}
    .fil0 {fill:#D4E4EC}
    .fil20 {fill:#C3488A}
    .fil23 {fill:#B0CB1F}
    .fil1 {fill:#89493B}
    .fil15 {fill:#7690C9}
    .fil16 {fill:#56698F}
    .fil4 {fill:#76453A}
    .fil3 {fill:#734338}
    .fil12 {fill:#714032}
    .fil8 {fill:#FAF2B9}
    .fil11 {fill:#FF9466}
    .fil10 {fill:#FFB882}
    .fil26 {fill:#56698F;fill-rule:nonzero}
    .fil18 {fill:#56698F;fill-opacity:0.270588}
   ]]>
  </style>
 </defs>
 <g id="Слой_x0020_1">
  <metadata id="CorelCorpID_0Corel-Layer"/>
  <g id="_2124137921824">
   <path class="fil0" d="M573.72 376.78c6.73,0 13.38,0.33 19.96,0.94 17.69,-83.5 94.78,-146.38 187.17,-146.38 16.06,0 31.66,1.91 46.57,5.49 -0.55,-5.34 -0.84,-10.77 -0.84,-16.25 0,-86.16 69.86,-156.02 156.02,-156.02 15.36,0 30.19,2.22 44.2,6.36 -0.76,-3.8 -1.17,-7.72 -1.17,-11.74 0,-32.68 26.5,-59.18 59.18,-59.18 32.68,0 59.18,26.5 59.18,59.18 0,27.81 -19.2,51.14 -45.06,57.48 21.7,24.28 35.92,55.38 39.03,89.7 6.3,-1.26 12.82,-1.91 19.48,-1.91 54.96,0 99.53,44.57 99.53,99.53 0,11.59 -1.98,22.72 -5.63,33.06 32.21,-20.91 70.63,-33.07 111.88,-33.07 41.72,0 80.54,12.43 112.97,33.78 9.69,-7.73 21.98,-12.34 35.33,-12.34 31.35,0 56.77,25.42 56.77,56.76 0,16.41 -6.96,31.18 -18.09,41.55 10.66,23.12 17.17,48.54 18.54,75.32 48.49,28.94 80.98,81.93 80.98,142.5 0,15.45 -2.12,30.41 -6.08,44.61 36.43,28.3 59.88,72.52 59.88,122.22 0,85.41 -69.27,154.67 -154.67,154.67 -66.51,0 -123.22,-41.99 -145.07,-100.9 -17.89,8.39 -37.85,13.08 -58.91,13.08 -2.9,0 -5.78,-0.1 -8.64,-0.28 -31.09,37.4 -77.95,61.21 -130.37,61.21 -40.84,0 -78.32,-14.46 -107.58,-38.54 -19.99,4.09 -40.69,6.25 -61.89,6.25 -37.32,0 -73.08,-6.67 -106.16,-18.89 -37.58,62.67 -106.16,104.62 -184.54,104.62 -89.42,0 -166.09,-54.62 -198.5,-132.29 -23.27,67.24 -87.14,115.53 -162.28,115.53 -91.23,0 -165.85,-71.2 -171.34,-161.04 -3.65,0.4 -7.35,0.61 -11.09,0.61 -56.45,0 -102.22,-45.78 -102.22,-102.22 0,-56.45 45.78,-102.22 102.22,-102.22 6.06,0 11.99,0.53 17.75,1.54 -4.52,-12.21 -7,-25.42 -7,-39.2 0,-62.39 50.6,-112.98 112.98,-112.98l1.84 0.01c-4.57,-7.08 -7.22,-15.52 -7.22,-24.57 0,-25.06 20.32,-45.39 45.38,-45.39 25.06,0 45.38,20.32 45.38,45.39 0,18.26 -10.79,34 -26.34,41.2 2.15,1.33 4.26,2.72 6.32,4.18 38.5,-60.97 105.69,-101.36 182.12,-101.36zm-365.85 -21.69c8.91,0 16.14,7.23 16.14,16.14 0,8.91 -7.23,16.14 -16.14,16.14 -8.91,0 -16.14,-7.23 -16.14,-16.14 0,-8.91 7.23,-16.14 16.14,-16.14zm484.76 -236.72c32.98,0 59.73,26.75 59.73,59.73 0,32.98 -26.75,59.73 -59.73,59.73 -32.98,0 -59.73,-26.75 -59.73,-59.73 0,-32.98 26.75,-59.73 59.73,-59.73zm766.12 37.66c16.34,0 29.59,13.25 29.59,29.59 0,16.34 -13.25,29.59 -29.59,29.59 -16.34,0 -29.59,-13.25 -29.59,-29.59 0,-16.34 13.25,-29.59 29.59,-29.59z"/>
   <polygon class="fil1" points="345.23,313.62 306.21,293.41 370.65,1495.76 388.16,1495.61 "/>
   <polygon class="fil1" points="1667.78,317.2 1631.43,292.5 1552.9,1494.01 1570.31,1495.94 "/>
   <polygon class="fil2" points="343.84,1495.98 254.32,305.93 306.21,293.41 370.65,1495.76 "/>
   <polygon class="fil2" points="1526.25,1491.05 1578.42,298.78 1631.43,292.5 1552.9,1494.01 "/>
   <polygon class="fil3" points="273.66,1152.79 1633.51,1109.85 1637.08,1219 262.92,1263.73 "/>
   <polygon class="fil4" points="294.32,1285.16 1653.43,1347.29 1648.57,1456.38 275.06,1394.94 "/>
   <polygon class="fil1" points="331.26,928.6 1581.96,917.86 1744.79,1068.16 102.23,1077.11 "/>
   <line class="fil5 str0" x1="291.23" y1="954.55" x2="1615.54" y2= "948.86" />
   <line class="fil5 str0" x1="1647.96" y1="978.78" x2="251.73" y2= "980.17" />
   <line class="fil5 str0" x1="183.82" y1="1024.2" x2="1687.05" y2= "1014.87" />
   <polygon class="fil6" points="324.77,1496.14 1621.68,1485.39 1593.02,1617.95 1671.84,1711.1 1327.91,1807.83 1216.85,1764.84 951.73,1926.06 908.74,1818.58 694.31,1799.1 532.56,1886.65 400,1761.26 263.86,1754.09 403.59,1646.61 271.03,1578.54 "/>
   <path class="fil7" d="M480.09 1657.49c38.62,0 41,16.68 35.06,31.57 -5.94,14.89 -11.88,13.69 -43.38,16.08 -31.5,2.38 -46.95,-2.38 -42.79,-14.3 4.16,-11.91 4.76,-14.89 4.76,-14.89 0,0 -16.64,26.8 -7.73,30.38 8.91,3.57 50.51,9.53 73.09,3.57 22.58,-5.96 27.33,-26.8 27.33,-34.55 0,-7.74 -18.09,-23.51 -46.35,-17.87z"/>
   <path class="fil7" d="M379.51 1739.87c-25.38,0 -26.94,-10.96 -23.03,-20.74 3.9,-9.78 7.81,-9 28.5,-10.57 20.7,-1.57 30.85,1.56 28.11,9.39 -2.73,7.83 -3.12,9.79 -3.12,9.79 0,0 10.93,-17.61 5.08,-19.96 -5.86,-2.35 -33.19,-6.26 -48.03,-2.35 -14.83,3.91 -17.96,17.61 -17.96,22.7 0,5.09 11.88,15.45 30.45,11.74z"/>
   <polygon class="fil8" points="298.3,137.73 0.02,307.71 1846.55,321.61 1641.24,131.73 "/>
   <path class="fil9" d="M131.41 439.83c0,0 -68.77,7.44 -100.97,-48.03 -32.21,-55.47 -30.42,-84.09 -30.42,-84.09l239.76 1.88c0,0 3.59,132.31 -108.37,130.24z"/>
   <path class="fil8" d="M361.32 441.89c0,0 -68.77,7.44 -100.97,-48.03 -32.21,-55.47 -30.42,-84.1 -30.42,-84.1l9.85 0.08 229.91 1.8c0,0 3.59,132.31 -108.37,130.24z"/>
   <path class="fil9" d="M591.23 443.95c0,0 -68.77,7.44 -100.98,-48.02 -32.2,-55.47 -30.42,-84.1 -30.42,-84.1l239.76 1.88c0,0 3.58,132.32 -108.37,130.24z"/>
   <path class="fil8" d="M821.14 446.01c0,0 -68.77,7.44 -100.98,-48.03 -32.2,-55.47 -30.42,-84.1 -30.42,-84.1l239.76 1.88c0,0 3.58,132.31 -108.37,130.24z"/>
   <path class="fil9" d="M1051.05 448.07c0,0 -68.77,7.44 -100.98,-48.02 -32.2,-55.47 -30.42,-84.1 -30.42,-84.1l239.76 1.88c0,0 3.58,132.32 -108.37,130.24z"/>
   <path class="fil8" d="M1280.96 450.13c0,0 -68.77,7.44 -100.98,-48.03 -32.21,-55.47 -30.42,-84.09 -30.42,-84.09l239.76 1.88c0,0 3.58,132.31 -108.37,130.24z"/>
   <path class="fil9" d="M1510.87 452.19c0,0 -68.77,7.44 -100.98,-48.02 -32.21,-55.47 -30.42,-84.1 -30.42,-84.1l239.76 1.88c0,0 3.58,132.31 -108.37,130.24z"/>
   <path class="fil8" d="M1740.77 454.25c0,0 -68.77,7.44 -100.97,-48.02 -32.21,-55.47 -30.42,-84.1 -30.42,-84.1l239.76 1.88c0,0 3.59,132.31 -108.37,130.24z"/>
   <polygon class="fil9" points="395.45,137.3 239.48,320.11 459.83,313.67 520.67,136.74 "/>
   <polygon class="fil9" points="743.28,135.74 699.09,327.22 913.28,331.74 904.31,135.03 727.18,135.81 "/>
   <polygon class="fil9" points="1093.62,134.18 1159.41,317.83 1379.46,320.62 1236.11,133.54 "/>
   <polygon class="fil9" points="1463.74,132.52 1619.23,322.21 1849.14,324.01 1641.24,131.73 "/>
   <g>
    <path class="fil10" d="M1508.82 1672.53l-125.35 0.99c0,0 -10.94,-8.96 -5.97,-15.92 4.97,-6.96 -198.22,-220.94 -216.15,-252.8 -17.93,-31.86 -35.85,-95.59 -41.82,-107.54 -5.97,-11.95 -45.8,-27.88 -45.8,-27.88 0,0 -59.75,81.65 -79.66,93.6 -19.91,11.95 -91.61,270.84 -91.61,270.84 0,0 15.93,35.85 3.98,37.84 -11.95,1.99 -91.61,17.93 -91.61,17.93 0,0 -5.15,-11.86 3.79,-14.84 8.94,-2.98 26.32,-3.97 26.32,-3.97l36.24 -19.86 -12.58 -469.16 -5.43 -44.45 -36.81 -40.79c0,0 -146.24,-10.94 -200.96,-37.8 -54.71,-26.86 -73.62,-36.81 -81.57,-50.74 -7.96,-13.93 -4.97,-142.26 59.69,-243.73 64.67,-101.47 159.17,-162.16 159.17,-162.16l59.69 -88.54 97.49 4.98 47.75 58.69c0,0 63.67,18.9 97.49,37.81 33.82,18.9 97.49,63.67 118.38,86.55 20.89,22.88 46.76,61.68 46.76,61.68 0,0 95.5,-70.63 119.38,-77.6 23.88,-6.97 -36.81,-57.7 -26.86,-72.62 9.95,-14.92 26.86,-7.96 29.84,-0.99 2.98,6.96 13.93,42.77 23.88,42.77 9.95,0 4.97,-49.74 0,-59.69 -4.97,-9.95 15.92,-10.95 20.89,-1.99 4.97,8.95 6.96,23.88 6.96,23.88l22.88 -1.99 2.98 24.87c0,0 21.89,1.99 23.88,22.88 1.99,20.89 -18.9,54.71 -30.84,62.67 -11.94,7.96 -36.81,15.92 -36.81,15.92 0,0 -40.79,132.31 -73.62,167.13 -32.83,34.82 -56.7,49.74 -77.6,51.73 -20.89,1.99 -54.71,7.96 -54.71,7.96l214.04 677.26 75.96 15.89c0,0 13.4,-7.44 25.82,-2.98 12.41,4.47 12.47,14.17 12.47,14.17z"/>
    <path class="fil11" d="M707.27 645.19c105.26,22.18 200.23,-32.46 200.23,-32.46 0,0 12.41,0 31.78,-0.5 19.36,-0.5 41.87,-30.79 41.87,-30.79 -8.27,-2.66 -13.51,-4.22 -13.51,-4.22l-47.75 -58.69 -97.49 -4.98 -59.69 88.54c0,0 -23.67,15.2 -55.43,43.1z"/>
    <path class="fil12" d="M801.85 405.86c-13.66,-7.04 -10.5,-19.39 -3.17,-25.4 8.22,-6.74 16.94,-2.5 16.94,-2.5 0,0 -14.3,0.53 -12.96,7.49 1.33,6.91 17.01,12.45 17.22,12.53 1,0.17 1.98,0.42 2.92,0.75 1.46,-10.38 10.48,-18.38 21.39,-18.38 6.9,0 13.04,3.2 17,8.18 2.81,-0.8 5.8,-1.23 8.89,-1.23 16.9,0 30.61,12.83 30.61,28.64 0,3.91 -0.84,7.63 -2.35,11.03 0,0 9.66,2.04 16.61,14.45 6.95,12.41 0.5,34.26 0.5,34.26l10.25 6.37c1.14,-4.51 5.23,-7.85 10.1,-7.85 2.8,0 5.34,1.1 7.21,2.9 3.46,-3.91 8.51,-6.38 14.13,-6.38 10.25,0 18.6,8.18 18.86,18.37l0.01 0c10.42,0 18.86,8.45 18.86,18.86 0,9.52 -7.04,17.39 -16.2,18.68 3.91,4.69 6.27,10.73 6.27,17.32 0,14.94 -12.12,27.06 -27.06,27.06 -8.97,0 -16.93,-4.37 -21.85,-11.1 -2.68,10.1 -12.22,17.56 -23.58,17.56 -7.6,0 -14.39,-3.35 -18.86,-8.59 -0.82,0.1 -1.65,0.15 -2.49,0.15 -2.07,0 -4.06,-0.31 -5.93,-0.88 -3.35,8.92 -12.11,15.28 -22.37,15.28 -11.17,0 -20.55,-7.53 -23.13,-17.69 -3,1.17 -6.25,1.8 -9.64,1.8 -12.82,0 -23.58,-9.08 -26.51,-21.32 -3.21,1.9 -6.75,2.95 -10.48,2.95 -14.66,0 -26.56,-16.34 -26.56,-36.49 0,-9.4 2.59,-17.97 6.84,-24.44 -6.71,-3.6 -11.31,-10.98 -11.31,-19.5 0,-8.05 4.11,-15.08 10.22,-18.87 -0.19,-1.21 -0.29,-2.45 -0.29,-3.72 0,-9.51 5.57,-17.73 13.66,-21.64 -0.49,-1.23 -0.75,-2.56 -0.75,-3.95 0,-6.01 4.94,-10.89 11.03,-10.89 1.34,0 2.61,0.23 3.8,0.66 0.53,-1.59 1.26,-3.09 2.17,-4.46z"/>
    <path class="fil2" d="M875.79 409.18c7.5,0 13.58,5.65 13.58,12.61 0,0.78 -0.08,1.54 -0.22,2.28 3.05,1.04 5.24,3.93 5.24,7.33 0,4.27 -3.47,7.74 -7.74,7.74 -3.38,0 -6.25,-2.16 -7.3,-5.18 -1.13,0.28 -2.32,0.44 -3.55,0.44 -2.4,0 -4.66,-0.58 -6.62,-1.6 -0.82,7.5 -7.18,13.34 -14.89,13.34l-0.02 0c-0.5,1.42 -1.23,2.72 -2.16,3.87 3.19,3.71 5.13,8.54 5.13,13.81 0,1.33 -0.13,2.63 -0.36,3.89 4.76,3.64 7.83,9.38 7.83,15.84 0,0.94 -0.07,1.87 -0.19,2.77 0.7,-0.12 1.41,-0.18 2.14,-0.18 4.66,0 8.73,2.5 10.96,6.23 1.83,-0.98 3.93,-1.54 6.15,-1.54 1.38,0 2.71,0.21 3.96,0.61 1.92,-5.17 6.9,-8.85 12.73,-8.85 2.18,0 4.24,0.51 6.06,1.43 1.08,-5.92 6.27,-10.42 12.5,-10.42 3.01,0 5.77,1.05 7.95,2.8 0.73,-0.19 1.48,-0.3 2.27,-0.3 4.82,0 8.72,3.91 8.72,8.72 0,3.98 -2.67,7.34 -6.31,8.38 4.15,3.29 6.81,8.37 6.81,14.07 0,9.9 -8.03,17.94 -17.94,17.94 -9.14,0 -16.67,-6.83 -17.8,-15.65 -0.73,0.12 -1.49,0.19 -2.26,0.19 -1.62,0 -3.18,-0.29 -4.61,-0.81 -1.97,4.73 -6.64,8.05 -12.08,8.05 -4.9,0 -9.17,-2.7 -11.42,-6.69 -1.72,0.86 -3.65,1.34 -5.69,1.34 -6.27,0 -11.48,-4.53 -12.55,-10.48 -0.84,0.44 -1.71,0.83 -2.61,1.16 -0.44,4.07 -3.88,7.25 -8.07,7.25 -4.48,0 -8.12,-3.63 -8.12,-8.12l0 -0.35c-6.23,-3.37 -10.47,-9.97 -10.47,-17.55 0,-0.58 0.03,-1.15 0.08,-1.72 -6.03,-3.73 -10.04,-10.4 -10.04,-18.01 0,-9.3 6,-17.2 14.34,-20.05 -0.09,-0.62 -0.14,-1.26 -0.14,-1.91 0,-6.26 4.44,-11.48 10.34,-12.69 0.79,-5.9 5,-10.72 10.58,-12.38 -0.16,-0.72 -0.25,-1.47 -0.25,-2.24 0,-5.59 4.53,-10.11 10.11,-10.11 4.24,0 7.87,2.61 9.37,6.31 1.94,-0.99 4.17,-1.56 6.54,-1.56z"/>
    <path class="fil10" d="M805.72 486.12c-9.93,-0.5 -22.34,-5.96 -12.91,8.44 9.43,14.4 24.33,19.86 26.81,12.91 2.48,-6.95 -13.9,-21.35 -13.9,-21.35z"/>
    <path class="fil10" d="M884.16 434.48c-31.78,-1.49 -45.18,18.87 -43.69,24.82 1.49,5.96 17.87,36.25 22.34,40.22 4.47,3.97 16.88,0 24.82,-4.96 7.94,-4.96 16.38,0.99 25.82,-2.98 9.43,-3.97 17.38,-5.46 15.39,-10.92 -1.99,-5.46 6.45,-11.42 -7.94,-12.91 -14.4,-1.49 -13.9,-29.3 -36.74,-33.27z"/>
    <path class="fil12" d="M863.23 468.24c6.6,-8.99 14.95,-13.11 19.18,-11.61 4.23,1.5 11.09,6.36 6.23,7.74 -4.86,1.37 -26.41,6.87 -25.41,3.87z"/>
    <path class="fil12" d="M895 454.51c2.86,-5.37 16.94,-4.5 18.31,-2.74 1.37,1.75 -9.84,12.73 -14.07,9.98 -4.23,-2.74 -4.23,-7.24 -4.23,-7.24z"/>
    <path class="fil11" d="M627.73 729.72c-63.81,134.91 -64.99,212.6 -64.99,212.6 0,0 -9.95,25.87 14.92,41.78 24.87,15.92 248.71,112.42 248.71,112.42 0,0 -146.24,-10.94 -200.96,-37.8 -54.71,-26.86 -73.62,-36.81 -81.57,-50.74 -7.96,-13.93 -4.97,-142.26 59.69,-243.73 7.71,-12.1 15.85,-23.62 24.2,-34.53z"/>
    <path class="fil11" d="M774.64 721.46c20.89,36.81 15.91,62.68 16.91,71.63 0.99,8.96 -69.64,107.44 -69.64,107.44 0,0 143.26,82.57 180.07,110.43 36.81,27.85 54.71,60.68 54.71,60.68 0,0 20.89,-25.87 42.78,-36.81 21.89,-10.95 34.82,-51.73 31.83,-83.57 -2.98,-31.83 -2.98,-31.83 -2.98,-31.83 0,0 3.98,58.69 16.91,67.65 12.93,8.95 68.64,3.98 88.54,0.99 7.15,-1.08 28.05,-2.4 51.88,-3.67l-5.13 -16.23c0,0 33.82,-5.97 54.71,-7.96 20.89,-1.99 44.77,-16.91 77.6,-51.73 32.83,-34.82 73.62,-167.13 73.62,-167.13 0,0 24.87,-7.96 36.81,-15.92 11.94,-7.96 32.83,-41.78 30.84,-62.67 -1.99,-20.89 -23.88,-22.88 -23.88,-22.88l-0.21 -1.75c-4.93,3.87 -8.57,8.98 -10.63,14.8 -5.96,16.88 -57.6,71.5 -67.03,69.02 -9.43,-2.48 -17.38,57.1 -32.77,71 -15.39,13.9 -43.69,36.74 -79.94,35.25 -36.25,-1.49 -50.18,-26.16 -79.03,-65.95 -28.85,-39.79 -86.55,-81.57 -86.55,-81.57 0,0 24.87,36.81 35.82,69.64 10.94,32.83 7.96,55.71 -25.87,64.66 -33.83,8.96 -52.73,8.96 -52.73,8.96l-36.81 -45.76c0,0 23.88,49.74 12.93,60.68 -10.94,10.95 -119.38,56.71 -137.28,54.72 -17.91,-1.99 -71.63,-155.2 -95.5,-172.11z"/>
    <path class="fil2" d="M486.24 1671.66c-107.54,-167.29 -104.68,-455.5 29.87,-619.35 35.75,-4.41 196.49,10.62 294.74,15.93 0,0 63.69,127.77 85.63,318.64 21.95,190.88 -77.86,287.87 -77.86,287.87 -110.79,-1.03 -221.59,-2.06 -332.38,-3.09z"/>
    <path class="fil1" d="M426.88 1528.4c253.91,-96.05 121.12,-476.66 121.1,-476.72 61.72,1.49 182.96,12.24 262.87,16.55 0,0 63.69,127.77 85.63,318.64 21.95,190.88 -77.86,287.87 -77.86,287.87 -110.79,-1.03 -221.59,-2.06 -332.38,-3.09 -26.71,-41.54 -46.6,-90.55 -59.36,-143.26z"/>
    <path class="fil10" d="M899.06 996.02c0,0 49.15,41.71 55.61,50.15 6.45,8.44 5.46,9.43 5.46,9.43 0,0 18.45,-16.59 39.22,-30.28 20.77,-13.69 24.82,-56.6 25.82,-70.01 0.99,-13.4 -5.46,-67.52 -5.46,-67.52 0,0 13.9,31.77 18.37,49.15 4.47,17.38 4.47,36.74 14.89,40.71 10.43,3.97 105.76,-3.47 105.76,-3.47 0,0 -14.4,-88.87 -79.94,-105.75 -65.54,-16.88 -86.89,-7.45 -111.22,13.4 -24.33,20.85 -54.61,67.03 -68.52,114.19z"/>
    <path class="fil11" d="M985.54 1081.6c12.93,28.85 55.71,-47.75 55.71,-47.75 0,0 11.94,11.94 39.79,17.9 27.86,5.97 39.79,-5.97 39.79,-5.97l-67.65 15.18c0,0 -28.42,40.6 -67.65,20.63z"/>
    <path class="fil5" d="M863.17 1137.31c59.22,2.71 95.96,-59.36 95.96,-59.36 0,0 1.49,14.89 -7.94,23.83 -9.43,8.93 -11.42,18.37 -42.7,31.28 -31.28,12.91 -44.49,11.02 -44.49,11.02l-0.83 -6.77z"/>
    <path class="fil11" d="M1303.52 1568.96c-14.95,-84.23 -12.46,-166.94 -5.84,-230.09l-105.44 -333.64c-6.23,-0.57 -11.99,1.26 -16.68,6.73 -23.88,27.85 20.89,100.48 -115.4,124.35 -95.16,16.67 -162.91,17.25 -195.14,16.09l3.59 29.36 11.25 419.88c12.22,-20.82 35.35,-58.76 57,-85.89 21.32,-70.03 46.61,-146.4 57.21,-152.77 19.91,-11.95 79.66,-93.6 79.66,-93.6 0,0 39.83,15.93 45.8,27.88 5.98,11.95 23.9,75.68 41.82,107.54 10.44,18.56 83.76,98.92 142.16,164.16z"/>
    <path class="fil13" d="M883.9 464.74c2.67,0 4.84,2.27 4.84,5.07 0,2.8 -2.17,5.07 -4.84,5.07 -2.67,0 -4.84,-2.27 -4.84,-5.07 0,-2.8 2.17,-5.07 4.84,-5.07z"/>
    <path class="fil13" d="M905.75 459.41c2.02,0 3.66,1.72 3.66,3.83 0,2.12 -1.63,3.83 -3.66,3.83 -2.02,0 -3.66,-1.72 -3.66,-3.83 0,-2.11 1.64,-3.83 3.66,-3.83z"/>
    <path class="fil5 str1" d="M543.78 1672.19c-97.58,-278.78 29.08,-619.59 29.08,-619.59"/>
    <path class="fil5 str1" d="M639.6 1064.65c-57.98,284.95 -30.19,608.15 -30.19,608.15"/>
    <path class="fil5 str1" d="M707.19 1061.38c17.82,284.24 -32.05,612.04 -32.05,612.04"/>
    <path class="fil5 str1" d="M753 1064.61c101.45,245.16 -5.66,609.47 -5.66,609.47"/>
    <path class="fil14 str2" d="M479.41 1105.47l355.39 20.28c6.97,18.79 14.82,41.83 22.67,68.55l-409.34 -23.36c8.85,-22.83 19.27,-44.76 31.28,-65.47z"/>
    <path class="fil14 str2" d="M436.99 1564.68l443.57 0c-6.86,20.94 -14.86,38.92 -22.8,53.91l-400.2 0c-7.8,-17.23 -14.66,-35.26 -20.57,-53.91z"/>
    <g>
     <path class="fil15" d="M1332.86 1599.4c-59.6,-67.61 -159.61,-175.72 -171.94,-197.64 -17.93,-31.86 -35.85,-95.59 -41.82,-107.54 -5.97,-11.95 -45.81,-27.88 -45.81,-27.88 0,0 -59.74,81.65 -79.66,93.6 -15.1,9.06 -59.96,160.06 -80.77,232.57 -5.21,0.52 -10.62,1.31 -16.2,2.41 -5.58,1.11 -11.33,2.53 -17.22,4.32l-11.27 -420.52 -5.4 -44.17c7.75,1.86 15.8,1.59 22.6,-0.05 6.8,-1.64 12.36,-4.64 15.13,-8.22 5.98,-7.74 -0.5,-7.99 -0.5,-7.99 0,0 0,0 5.98,1.25 5.98,1.25 18.19,-3.25 23.92,-14.24 5.73,-10.99 -3.74,-11.49 -3.74,-11.49 0,0 8.47,-2.25 19.68,-4.99 11.21,-2.74 6.15,-23.71 6.15,-23.71 0,0 0,0 -17.38,-24.69 -17.39,-24.7 -66.77,-55.98 -66.77,-55.98 0,0 -64.58,42.67 -69.12,106.57 -44.96,-4.57 -133.77,-15.7 -173.75,-35.33 -54.71,-26.86 -73.62,-36.81 -81.57,-50.74 -7.96,-13.93 -4.98,-142.26 59.69,-243.73 64.67,-101.48 159.17,-162.16 159.17,-162.16 23.31,-3.95 90.96,5.01 135.73,27.89 44.77,22.88 56.94,7.31 60.69,-10.95 3.74,-18.25 12.53,-40.59 12.53,-40.59 14.48,4.47 64.75,20.52 93.48,36.58 33.82,18.9 97.49,63.67 118.38,86.55 20.89,22.88 46.76,61.68 46.76,61.68 0,0 43.65,-32.28 79.3,-55.35 31.99,7.59 55.63,31.85 69.85,55.11 -13.08,39.01 -42.05,119.47 -66.59,145.48 -32.83,34.82 -56.7,49.74 -77.6,51.73 -20.89,1.99 -54.71,7.96 -54.71,7.96l196.32 621.21 -43.55 13.04z"/>
     <path class="fil16" d="M706.83 642.15c74.11,15.61 143.11,-6.85 177.46,-21.52 -43.85,-18.21 -101,-25.15 -122.03,-21.59 0,0 -23.67,15.2 -55.43,43.1zm257.01 -45.64c9.71,-8.49 16.86,-18.12 16.86,-18.12 -3.93,-1.26 -7.18,-2.28 -9.5,-3 0,0 -3.73,9.47 -7.36,21.11z"/>
     <path class="fil16" d="M769.94 714.92c20.89,36.81 15.91,62.68 16.91,71.63 0.99,8.96 -69.63,107.44 -69.63,107.44 0,0 143.26,82.57 180.06,110.43 36.81,27.85 54.71,60.68 54.71,60.68 0,0 20.89,-25.87 42.78,-36.81 21.89,-10.95 34.82,-51.73 31.84,-83.57 -2.99,-31.83 -2.99,-31.83 -2.99,-31.83 0,0 3.98,58.69 16.91,67.65 12.93,8.95 68.64,3.98 88.54,0.99 7.15,-1.08 28.05,-2.4 51.88,-3.67l-5.13 -16.23c0,0 33.82,-5.97 54.71,-7.96 20.89,-1.99 44.77,-16.91 77.6,-51.73 24.97,-26.48 54.54,-109.37 67.27,-147.53 -8.41,-12.47 -19.48,-24.81 -33.07,-34.34 -7.43,14.03 -15.01,55.1 -27.45,66.34 -15.39,13.9 -43.69,36.74 -79.94,35.25 -36.24,-1.49 -50.18,-26.16 -79.03,-65.95 -28.85,-39.79 -86.55,-81.57 -86.55,-81.57 0,0 24.87,36.81 35.82,69.64 10.94,32.83 7.96,55.71 -25.87,64.66 -33.83,8.96 -52.73,8.96 -52.73,8.96l-36.81 -45.76c0,0 23.88,49.74 12.93,60.68 -10.95,10.95 -119.38,56.71 -137.29,54.72 -17.91,-1.99 -71.63,-155.2 -95.5,-172.11z"/>
     <path class="fil16" d="M1305.07 1561.94c-14.96,-84.23 -12.46,-166.94 -5.84,-230.09l-105.44 -333.64c-6.23,-0.57 -11.99,1.26 -16.68,6.73 -23.88,27.85 20.89,100.48 -115.4,124.35 -95.16,16.67 -162.9,17.25 -195.13,16.09l3.59 29.36 11.26 419.88c12.21,-20.82 35.34,-58.75 56.99,-85.89 21.32,-70.03 46.61,-146.4 57.22,-152.76 19.91,-11.95 79.66,-93.6 79.66,-93.6 0,0 39.83,15.94 45.81,27.88 5.97,11.95 23.9,75.67 41.82,107.54 10.44,18.57 83.76,98.92 142.17,164.16z"/>
     <polygon class="fil17" points="936.7,665.79 936.22,666.62 935.73,667.45 935.24,668.28 934.76,669.11 934.27,669.94 933.78,670.77 933.3,671.6 932.81,672.43 932.49,673.91 932.01,674.75 931.52,675.57 931.2,677.06 930.72,677.89 930.4,679.38 929.91,680.21 929.6,681.7 929.29,683.18 928.8,684.01 928.48,685.5 928.17,686.98 927.85,688.47 927.54,689.96 927.23,691.45 927.08,693.59 926.76,695.08 926.62,697.23 926.48,699.37 926.33,701.52 926.19,703.66 926.22,706.47 926.24,709.27 926.44,712.73 926.64,716.19 927.35,721.63 929.44,732.33 930.81,737.59 934.21,747.95 981.59,735.61 982.07,734.78 975.39,709.11 973.36,704.02 971.84,700.91 970.33,697.78 968.99,695.33 967.64,692.87 966.47,691.06 965.3,689.26 964.13,687.46 962.96,685.66 961.95,684.51 960.78,682.71 959.78,681.56 958.78,680.42 957.78,679.28 956.78,678.13 955.78,676.98 954.95,676.5 953.95,675.35 952.95,674.21 952.12,673.72 951.12,672.58 950.29,672.09 949.29,670.95 948.46,670.46 947.63,669.97 946.63,668.83 945.8,668.34 944.97,667.86 944.14,667.37 943.31,666.88 942.48,666.4 941.65,665.91 940.82,665.42 939.99,664.94 939.16,664.45 937.19,664.96 "/>
     <polygon class="fil17" points="853.83,725.32 857.09,737.82 858.95,742.25 860.46,745.37 861.81,747.83 863.15,750.29 864.32,752.1 865.5,753.9 866.67,755.7 867.67,756.85 868.84,758.65 869.84,759.79 870.84,760.94 871.84,762.08 872.84,763.23 873.67,763.71 930.92,748.8 930.75,748.15 929.92,747.66 928.92,746.51 928.09,746.03 927.26,745.54 926.26,744.4 925.43,743.91 924.6,743.42 923.77,742.94 922.77,741.79 921.94,741.31 921.11,740.82 920.28,740.33 919.45,739.85 918.62,739.36 917.62,738.22 916.79,737.73 915.96,737.24 915.14,736.76 914.3,736.27 913.48,735.78 912.65,735.3 911.81,734.81 910.99,734.32 910.16,733.84 909.33,733.35 908.5,732.86 907.67,732.38 906.18,732.06 905.35,731.57 904.52,731.09 903.7,730.6 902.86,730.11 901.38,729.8 900.55,729.31 899.72,728.82 898.23,728.51 897.4,728.02 896.57,727.53 895.08,727.22 894.26,726.74 892.77,726.42 891.94,725.93 890.45,725.62 888.96,725.3 888.13,724.82 886.65,724.5 885.16,724.18 883.67,723.87 882.18,723.56 880.7,723.24 878.55,723.1 877.07,722.78 874.92,722.64 872.78,722.49 870.63,722.35 867.82,722.38 865.02,722.4 860.9,722.78 854.32,724.49 "/>
     <polygon class="fil17" points="1029.52,679.56 1027.06,680.9 1025.26,682.08 1022.8,683.42 1021,684.59 1019.85,685.59 1018.05,686.76 1016.9,687.77 1015.76,688.76 1014.61,689.76 1013.47,690.77 1012.33,691.77 1011.18,692.77 1010.04,693.77 1009.55,694.6 1008.41,695.6 1007.26,696.6 1006.77,697.43 1005.63,698.43 1005.14,699.26 1004,700.26 1003.51,701.09 1003.02,701.92 1001.88,702.92 1001.39,703.75 1000.91,704.58 1000.42,705.41 999.93,706.24 998.79,707.24 998.3,708.07 997.82,708.9 997.33,709.73 996.84,710.55 996.36,711.39 995.87,712.21 995.38,713.04 994.9,713.87 994.41,714.7 993.92,715.53 993.44,716.36 992.95,717.19 992.46,718.02 991.98,718.85 991.49,719.68 991,720.51 990.52,721.34 990.03,722.16 989.71,723.65 989.23,724.48 988.74,725.31 988.25,726.14 987.94,727.63 987.45,728.46 986.96,729.29 986.65,730.77 986.17,731.6 985.68,732.44 985.36,733.92 985.53,734.58 1042.78,719.67 1043.1,718.18 1043.41,716.7 1043.73,715.21 1044.04,713.72 1044.18,711.57 1044.5,710.09 1044.65,707.94 1044.79,705.8 1044.93,703.65 1045.08,701.51 1045.05,698.7 1045.02,695.9 1044.65,691.78 1040.54,675.99 1033.3,677.87 "/>
     <polygon class="fil17" points="880.51,771.07 881.34,771.56 882.34,772.7 883.17,773.19 884.17,774.33 885,774.82 885.83,775.3 886.66,775.79 1037.34,736.55 1037.65,735.06 1038.14,734.23 1038.63,733.4 1038.94,731.91 1039.43,731.08 1039.74,729.59 1040.23,728.76 1039.89,727.45 879.34,769.27 879.51,769.93 "/>
     <polygon class="fil17" points="894.46,781.49 895.29,781.97 896.12,782.46 897.12,783.6 897.95,784.09 898.78,784.58 899.61,785.06 900.44,785.55 901.27,786.04 902.76,786.35 903.59,786.84 1027.95,754.45 1028.44,753.62 1028.92,752.79 1029.41,751.96 1029.9,751.13 1030.38,750.3 1030.87,749.47 1031.36,748.64 1031.84,747.81 1032.33,746.98 1032.82,746.16 1033.3,745.32 1032.96,744.01 894.12,780.17 "/>
     <path class="fil17" d="M931.49 840l0.15 -2.14 0.31 -1.49 0.49 -0.83 0.49 -0.83 0.49 -0.83 1.15 -1 2.46 -1.34 1.97 -0.51 2.8 -0.03 0.83 0.49 1.49 0.32 0.83 0.49 0.83 0.49 1 1.14 1.17 1.81 1.03 3.94 -0.32 1.49 -0.31 1.49 -0.49 0.83 -0.49 0.83 -0.49 0.83 -0.49 0.83 -1.81 1.17 -4.61 1.2 -2.14 -0.15 -0.83 -0.49 -0.83 -0.49 -0.83 -0.49 -0.83 -0.49 -1 -1.14 -1 -1.14 -1.03 -3.95zm13.02 -17.44l-0.83 -0.49 -2.14 -0.15 -2.8 0.03 -5.92 1.54 -2.46 1.34 -1.8 1.17 -0.49 0.83 -1.14 1 -0.49 0.83 -1.14 1 -0.49 0.83 -0.49 0.83 -0.49 0.83 -0.32 1.49 -0.49 0.83 -0.32 1.49 -0.32 1.49 0.03 2.8 2.05 7.89 1.17 1.81 1 1.14 1 1.14 1 1.14 0.83 0.49 0.83 0.49 0.83 0.49 0.83 0.49 0.83 0.49 0.83 0.49 1.49 0.32 0.83 0.49 2.14 0.15 2.15 0.14 8.55 -2.23 1.8 -1.17 1.8 -1.17 0.83 0.49 8.55 -2.23 -11.31 -43.43 -8.55 2.23 2.6 12.67z"/>
     <path class="fil17" d="M1020.85 823.25l-0.31 1.49 -0.49 0.83 -0.49 0.83 -0.49 0.83 -1.15 1 -1.14 1 -5.26 1.37 -1.49 -0.31 -1.49 -0.32 -0.83 -0.49 -0.83 -0.49 -1 -1.14 -1 -1.15 -1.37 -5.26 0.14 -2.14 0.49 -0.83 0.49 -0.83 0.49 -0.83 0.49 -0.83 1.15 -1 1.8 -1.17 2.63 -0.69 2.15 0.15 1.49 0.32 0.83 0.49 1.31 -0.35 0.34 1.32 0.83 0.49 1 1.14 1.34 2.46 0.17 0.66 0.2 3.46zm-4.14 -18.6l-1.49 -0.32 -1.49 -0.32 -2.8 0.03 -5.92 1.54 -2.46 1.34 -1.8 1.17 -1.14 1 -0.49 0.83 -1.14 1 -0.49 0.83 -0.49 0.83 -0.49 0.83 -0.49 0.83 -0.49 0.83 -0.32 1.49 -0.49 0.83 -0.15 2.14 -0.32 1.49 2.57 9.87 1.17 1.8 1 1.14 1 1.14 0.83 0.49 0.83 0.49 1 1.14 0.83 0.49 1.49 0.32 0.83 0.49 0.83 0.49 1.49 0.32 1.49 0.32 2.15 0.15 9.21 -2.4 1.8 -1.17 1.14 -1 1.14 -1 0.34 1.31 7.9 -2.05 -11.31 -43.43 -7.89 2.05 2.6 12.67z"/>
     <path class="fil17" d="M966.89 831.7l0.15 -2.15 0.49 -0.83 0.32 -1.49 0.49 -0.83 1.14 -1 1.14 -1 1.8 -1.17 1.98 -0.52 2.8 -0.03 1.49 0.32 0.83 0.49 0.83 0.49 0.83 0.49 1 1.14 1 1.14 1.2 4.61 -0.15 2.15 -0.49 0.83 -0.32 1.49 -1.14 1 -0.49 0.83 -1.8 1.17 -4.61 1.2 -1.49 -0.32 -1.49 -0.32 -0.83 -0.49 -0.83 -0.49 -0.83 -0.49 -1 -1.14 -1.17 -1.8 -0.86 -3.29zm-1.14 -15.16l-1.14 1 -1.15 1 -1.14 1 -0.49 0.83 -0.49 0.83 -1.14 1 -0.32 1.49 -0.49 0.83 -0.49 0.83 -0.31 1.49 -0.32 1.49 -0.32 1.49 0.03 2.8 1.72 6.58 1.34 2.46 1 1.14 1 1.15 0.83 0.49 1 1.14 0.83 0.49 0.83 0.49 0.83 0.49 0.83 0.49 0.83 0.49 1.49 0.32 1.49 0.31 1.49 0.32 2.14 0.15 9.21 -2.4 1.81 -1.17 1.14 -1 0.83 0.49 8.55 -2.23 -8.4 -32.24 -8.55 2.23 0.33 1.42 -1.48 -0.42 -2.15 -0.14 -2.8 0.03 -5.92 1.55 -2.46 1.34z"/>
     <polygon class="fil17" points="1048.79,793.99 1046.98,795.16 1045.84,796.16 1045.35,796.99 1044.87,797.82 1044.38,798.65 1043.89,799.48 1043.41,800.31 1043.09,801.8 1042.95,803.94 1043.98,807.89 1045.32,810.35 1046.32,811.5 1047.15,811.98 1047.98,812.47 1048.81,812.96 1050.3,813.27 1051.78,813.59 1054.59,813.56 1058.71,813.19 1062.83,812.82 1064.97,812.96 1065.8,813.45 1066.14,814.77 1066.49,816.08 1065.17,816.42 1064.68,817.25 1059.42,818.62 1057.93,818.31 1057.1,817.82 1056.1,816.68 1055.1,815.53 1045.89,817.93 1046.4,819.91 1047.57,821.71 1048.58,822.86 1049.58,824 1050.4,824.49 1051.24,824.97 1052.06,825.46 1052.89,825.95 1054.38,826.26 1055.87,826.57 1058.02,826.72 1069.2,823.81 1071,822.63 1072.81,821.46 1073.29,820.63 1074.44,819.63 1074.92,818.8 1075.41,817.97 1075.73,816.49 1076.21,815.65 1076.35,813.51 1074.98,808.25 1073.81,806.44 1072.98,805.95 1071.98,804.81 1071.15,804.32 1069.67,804.01 1068.84,803.52 1066.69,803.38 1064.55,803.24 1061.74,803.27 1058.28,803.46 1055.48,803.49 1053.33,803.35 1052.82,801.37 1053.3,800.54 1059.23,799 1060.71,799.32 1061.89,801.12 1062.72,801.6 1071.27,799.38 1070.75,797.4 1069.58,795.6 1068.58,794.45 1067.58,793.31 1066.75,792.82 1065.92,792.34 1065.09,791.85 1063.61,791.53 1062.78,791.05 1060.63,790.91 1057.17,791.1 1051.25,792.65 "/>
     <polygon class="fil17" points="914.03,791.85 914.85,792.34 916.34,792.65 917.17,793.14 918.66,793.46 919.49,793.94 920.98,794.25 921.8,794.74 923.29,795.06 924.78,795.37 926.27,795.69 927.1,796.17 928.58,796.49 930.73,796.63 932.22,796.95 933.71,797.26 935.19,797.58 937.34,797.72 939.48,797.86 941.63,798.01 944.43,797.98 947.23,797.95 950.7,797.76 958.59,795.7 954.65,780.57 953.82,780.08 913.03,790.71 913.2,791.36 "/>
     <polygon class="fil17" points="981.2,779.97 982.57,785.24 984.25,789.02 990.17,787.47 993.95,785.79 997.07,784.27 999.53,782.93 1001.33,781.76 1003.14,780.58 1004.28,779.59 1006.08,778.41 1007.23,777.41 1009.03,776.24 1010.18,775.24 1011.32,774.24 1012.47,773.24 1012.95,772.41 1014.1,771.41 1015.24,770.41 1016.39,769.4 1016.87,768.58 1018.02,767.57 1018.5,766.74 1019.65,765.75 1020.13,764.91 1020.62,764.09 1021.11,763.26 1020.94,762.6 980.14,773.22 "/>
     <polygon class="fil17" points="1036.2,832.75 1044.09,830.7 1035.69,798.45 1027.8,800.51 "/>
     <polygon class="fil17" points="955.65,781.71 956.48,782.2 957.48,783.34 958.31,783.83 959.31,784.97 960.14,785.46 961.14,786.6 961.97,787.09 962.8,787.58 963.63,788.06 964.63,789.21 965.46,789.69 966.29,790.18 967.12,790.67 967.95,791.15 968.78,791.64 969.61,792.13 970.43,792.61 972.41,792.1 972.9,791.27 973.38,790.44 973.87,789.61 974.36,788.78 974.84,787.95 975.33,787.12 975.82,786.3 976.13,784.81 976.62,783.98 977.1,783.15 977.59,782.32 977.91,780.83 978.39,780 978.71,778.51 979.19,777.69 979.51,776.2 980,775.37 979.49,773.4 955.14,779.73 "/>
     <polygon class="fil17" points="1026.46,798.05 1035.01,795.82 1032.78,787.27 1024.23,789.5 "/>
     <path class="fil18" d="M769.94 714.92c20.89,36.81 15.91,62.68 16.91,71.63 0.99,8.96 -69.63,107.44 -69.63,107.44 0,0 143.26,82.57 180.06,110.43 36.81,27.85 54.71,60.68 54.71,60.68 0,0 20.89,-25.87 42.78,-36.81 21.89,-10.95 34.82,-51.73 31.84,-83.57 -2.99,-31.83 -2.99,-31.83 -2.99,-31.83 0,0 3.98,58.69 16.91,67.65 12.93,8.95 68.64,3.98 88.54,0.99 7.15,-1.08 28.05,-2.4 51.88,-3.67l-5.13 -16.23c0,0 33.82,-5.97 54.71,-7.96 20.89,-1.99 44.77,-16.91 77.6,-51.73 24.97,-26.48 54.54,-109.37 67.27,-147.53 -8.41,-12.47 -19.48,-24.81 -33.07,-34.34 -7.43,14.03 -15.01,55.1 -27.45,66.34 -15.39,13.9 -43.69,36.74 -79.94,35.25 -36.24,-1.49 -50.18,-26.16 -79.03,-65.95 -28.85,-39.79 -86.55,-81.57 -86.55,-81.57 0,0 24.87,36.81 35.82,69.64 10.94,32.83 7.96,55.71 -25.87,64.66 -33.83,8.96 -52.73,8.96 -52.73,8.96l-36.81 -45.76c0,0 23.88,49.74 12.93,60.68 -10.95,10.95 -119.38,56.71 -137.29,54.72 -17.91,-1.99 -71.63,-155.2 -95.5,-172.11z"/>
     <path class="fil15" d="M896.77 983.08c0,0 49.16,41.71 55.61,50.15 6.45,8.44 5.46,9.43 5.46,9.43 0,0 18.45,-16.59 39.22,-30.28 20.77,-13.69 24.83,-56.61 25.82,-70.01 0.99,-13.4 -5.46,-67.53 -5.46,-67.53 0,0 13.9,31.78 18.37,49.16 4.47,17.38 4.47,36.74 14.89,40.71 10.43,3.97 105.76,-3.47 105.76,-3.47 0,0 -14.4,-88.87 -79.94,-105.76 -65.54,-16.88 -86.88,-7.44 -111.21,13.41 -24.33,20.85 -54.62,67.03 -68.52,114.19z"/>
     <path class="fil16" d="M983.25 1068.65c12.93,28.85 55.71,-47.75 55.71,-47.75 0,0 11.94,11.94 39.79,17.91 27.85,5.97 39.79,-5.97 39.79,-5.97l-67.64 15.18c0,0 -28.43,40.6 -67.65,20.63z"/>
     <path class="fil17" d="M894.95 848.11l0.32 -1.49 0.49 -0.83 0.49 -0.83 0.49 -0.83 0.49 -0.83 1.14 -1 1.8 -1.17 2.63 -0.68 2.14 0.15 1.49 0.31 0.83 0.49 1.31 -0.34 0.35 1.31 0.83 0.49 1 1.15 1.55 5.92 -0.32 1.49 -0.32 1.49 -0.49 0.83 -0.49 0.83 -1.14 1 -1.14 1 -5.26 1.37 -1.49 -0.32 -1.49 -0.31 -0.83 -0.49 -0.83 -0.49 -1 -1.15 -1 -1.14 -1.54 -5.92zm-0.79 -13.84l-1.81 1.17 -1.14 1 -0.49 0.83 -1.14 1 -0.49 0.83 -0.49 0.83 -0.49 0.83 -0.49 0.83 -0.49 0.83 -0.32 1.49 -0.49 0.83 -0.32 1.49 -0.14 2.15 2.57 9.87 1.17 1.8 1 1.14 1 1.14 0.83 0.49 1 1.14 0.83 0.49 0.83 0.49 1.49 0.32 0.83 0.49 0.83 0.49 1.49 0.32 1.49 0.32 2.14 0.14 9.21 -2.4 1.8 -1.17 1.14 -1 0.83 0.49 8.55 -2.23 -8.4 -32.24 -8.55 2.23 0.33 1.42 -1.48 -0.42 -1.49 -0.32 -2.8 0.03 -5.92 1.54 -2.46 1.34z"/>
     <path class="fil5 str3" d="M800.69 1077.06c-222.04,-8.42 -236.97,-82.04 -236.97,-82.04 0,0 -15.92,-61.68 10.94,-127.34 26.86,-65.66 117.93,-187.83 155.96,-221.75 38.03,-33.92 43,-40.88 43,-40.88"/>
     <path class="fil5 str3" d="M804.23 1064.26c-114.16,-7.56 -198.21,-24.32 -221.6,-74.21 -23.39,-49.89 -3.98,-111.42 23.88,-155.2 27.85,-43.77 176.08,-224.83 176.08,-224.83"/>
     <path class="fil5 str3" d="M809.35 1051.63c-85.46,-6.86 -114.31,-2.89 -162.06,-32.73 -47.75,-29.84 -73.76,-52.55 -51.73,-126.34 22.03,-73.79 199.96,-276.56 199.96,-276.56"/>
     <path class="fil5 str3" d="M881.09 1145.71c7.94,40.32 6.91,451.15 6.91,451.15"/>
     <path class="fil5 str3" d="M894.04 1145.73c18.87,178.58 2.62,449.19 2.62,449.19"/>
     <path class="fil5 str3" d="M912.01 1145.38c28.76,160.03 -7.28,448.14 -7.28,448.14"/>
     <path class="fil5 str4" d="M1033.48 1136c-47.75,68.64 10.95,40.79 15.92,15.92 4.97,-24.87 4.97,-24.87 4.97,-24.87 0,0 9.95,52.73 -2.98,70.63 -12.93,17.91 -12.93,17.91 -12.93,17.91"/>
     <path class="fil5 str4" d="M1061.39 1123.78c30.64,2.75 53.06,25.47 35.62,24.47 -17.44,-0.99 -38.12,-18.48 -38.12,-18.48 0,0 11.71,27.47 12.46,40.21 0.75,12.74 0.75,21.98 0.75,21.98"/>
    </g>
    <g>
     <path class="fil19" d="M1401.07 604.59c7.07,7.73 6.77,19.53 -0.68,26.33 -7.44,6.81 -19.22,6.06 -26.29,-1.68 -7.07,-7.73 -6.77,-19.53 0.68,-26.33 7.45,-6.8 19.22,-6.06 26.29,1.68z"/>
     <path class="fil19" d="M1386.25 614.77c7.13,7.8 7.06,19.5 -0.18,26.1 -7.23,6.61 -18.88,5.65 -26.02,-2.16 -7.13,-7.8 -7.06,-19.5 0.18,-26.1 7.23,-6.61 18.88,-5.65 26.02,2.16z"/>
     <path class="fil19" d="M1409.3 625.83c7.13,7.8 7.06,19.5 -0.18,26.11 -7.23,6.61 -18.88,5.64 -26.02,-2.16 -7.13,-7.8 -7.06,-19.5 0.18,-26.11 7.23,-6.61 18.88,-5.64 26.02,2.16z"/>
     <path class="fil19" d="M1434.48 640.83c7.14,7.8 7.06,19.5 -0.18,26.11 -7.23,6.61 -18.88,5.64 -26.01,-2.16 -7.14,-7.81 -7.06,-19.5 0.17,-26.11 7.23,-6.61 18.89,-5.64 26.02,2.16z"/>
     <path class="fil19" d="M1397.86 632.47c7.07,7.73 6.76,19.53 -0.68,26.33 -7.45,6.81 -19.22,6.06 -26.29,-1.67 -7.07,-7.73 -6.76,-19.53 0.68,-26.33 7.44,-6.81 19.22,-6.06 26.29,1.68z"/>
     <path class="fil20" d="M1438.02 663.25c7.07,7.73 6.77,19.53 -0.68,26.33 -7.44,6.81 -19.22,6.06 -26.29,-1.67 -7.07,-7.74 -6.77,-19.53 0.68,-26.33 7.45,-6.81 19.22,-6.06 26.29,1.67z"/>
     <path class="fil19" d="M1382.26 652.36c7.07,7.74 6.77,19.53 -0.68,26.33 -7.44,6.81 -19.22,6.06 -26.29,-1.67 -7.07,-7.74 -6.77,-19.53 0.68,-26.33 7.45,-6.81 19.22,-6.06 26.29,1.67z"/>
     <path class="fil19" d="M1366.44 624.65c7.13,7.8 7.06,19.5 -0.18,26.1 -7.23,6.61 -18.89,5.65 -26.02,-2.16 -7.14,-7.8 -7.06,-19.49 0.18,-26.1 7.23,-6.61 18.88,-5.65 26.02,2.16z"/>
     <path class="fil20" d="M1388.88 690.2c7.14,7.8 7.06,19.5 -0.18,26.1 -7.23,6.61 -18.88,5.65 -26.02,-2.16 -7.13,-7.81 -7.06,-19.5 0.18,-26.11 7.23,-6.61 18.89,-5.64 26.02,2.16z"/>
     <path class="fil19" d="M1350.84 644.53c7.13,7.81 7.06,19.5 -0.18,26.11 -7.23,6.61 -18.88,5.65 -26.02,-2.16 -7.13,-7.8 -7.06,-19.5 0.18,-26.1 7.23,-6.61 18.88,-5.65 26.02,2.16z"/>
     <path class="fil20" d="M1357.91 683.49c7.14,7.8 7.06,19.5 -0.18,26.11 -7.23,6.61 -18.88,5.64 -26.02,-2.16 -7.13,-7.8 -7.06,-19.5 0.18,-26.11 7.23,-6.61 18.88,-5.64 26.02,2.16z"/>
     <path class="fil19" d="M1380.99 640.85c7.14,7.81 7.06,19.5 -0.17,26.11 -7.24,6.61 -18.89,5.64 -26.02,-2.16 -7.14,-7.8 -7.06,-19.5 0.17,-26.11 7.23,-6.61 18.89,-5.64 26.02,2.16z"/>
     <path class="fil20" d="M1365.47 704.47c7.14,7.8 7.06,19.5 -0.18,26.11 -7.23,6.61 -18.88,5.64 -26.02,-2.16 -7.13,-7.81 -7.06,-19.5 0.18,-26.11 7.23,-6.61 18.89,-5.64 26.02,2.16z"/>
     <path class="fil19" d="M1365.4 660.74c7.13,7.8 7.06,19.5 -0.18,26.11 -7.23,6.61 -18.89,5.64 -26.02,-2.16 -7.14,-7.8 -7.06,-19.5 0.18,-26.11 7.23,-6.61 18.88,-5.64 26.02,2.16z"/>
     <path class="fil19" d="M1341.48 667.27c7.13,7.8 7.06,19.5 -0.18,26.11 -7.23,6.61 -18.89,5.64 -26.02,-2.16 -7.14,-7.81 -7.06,-19.5 0.18,-26.11 7.23,-6.61 18.88,-5.64 26.02,2.16z"/>
     <path class="fil19" d="M1412.15 650.38c7.14,7.81 7.06,19.5 -0.17,26.11 -7.23,6.61 -18.89,5.64 -26.02,-2.16 -7.14,-7.8 -7.06,-19.5 0.17,-26.1 7.24,-6.61 18.89,-5.65 26.02,2.16z"/>
     <path class="fil20" d="M1416.61 673.52c7.14,7.8 7.06,19.5 -0.18,26.11 -7.23,6.61 -18.88,5.64 -26.02,-2.16 -7.13,-7.8 -7.06,-19.5 0.18,-26.11 7.23,-6.61 18.89,-5.64 26.02,2.16z"/>
     <path class="fil19" d="M1399.06 662.36c7.13,7.81 7.06,19.5 -0.18,26.11 -7.23,6.61 -18.89,5.64 -26.02,-2.16 -7.14,-7.8 -7.06,-19.5 0.18,-26.11 7.23,-6.61 18.88,-5.64 26.02,2.16z"/>
     <path class="fil19" d="M1383.46 682.25c7.13,7.8 7.06,19.5 -0.18,26.11 -7.23,6.61 -18.88,5.64 -26.02,-2.16 -7.13,-7.8 -7.06,-19.5 0.18,-26.11 7.23,-6.61 18.88,-5.64 26.02,2.16z"/>
     <path class="fil19" d="M1341.47 698.16c7.13,7.8 7.06,19.5 -0.18,26.11 -7.23,6.61 -18.88,5.64 -26.02,-2.16 -7.13,-7.81 -7.06,-19.5 0.18,-26.11 7.23,-6.61 18.88,-5.64 26.02,2.16z"/>
     <path class="fil21" d="M1376.61 606.73c6.94,-6.73 -0.26,-4.49 -1.35,-1.55 -1.09,2.94 1.35,1.55 1.35,1.55z"/>
     <path class="fil21" d="M1360.88 617.66c6.93,-6.73 -0.27,-4.49 -1.36,-1.55 -1.09,2.94 1.36,1.55 1.36,1.55z"/>
     <path class="fil21" d="M1339.95 627.49c6.94,-6.73 -0.27,-4.49 -1.36,-1.55 -1.09,2.94 1.36,1.55 1.36,1.55z"/>
     <path class="fil21" d="M1325.96 648.18c6.93,-6.73 -0.27,-4.49 -1.36,-1.55 -1.09,2.94 1.36,1.55 1.36,1.55z"/>
     <path class="fil21" d="M1317.04 671.03c6.94,-6.73 -0.27,-4.49 -1.36,-1.55 -1.09,2.94 1.36,1.55 1.36,1.55z"/>
     <path class="fil21" d="M1315.46 701.78c6.93,-6.73 -0.27,-4.49 -1.36,-1.55 -1.09,2.94 1.36,1.55 1.36,1.55z"/>
     <path class="fil21" d="M1358.77 687.44c6.94,-6.73 -0.26,-4.49 -1.35,-1.55 -1.09,2.94 1.35,1.55 1.35,1.55z"/>
     <path class="fil21" d="M1342.6 663.91c6.94,-6.73 -0.26,-4.49 -1.35,-1.55 -1.09,2.94 1.35,1.55 1.35,1.55z"/>
     <path class="fil21" d="M1373.5 667.83c6.94,-6.73 -0.26,-4.49 -1.35,-1.55 -1.09,2.94 1.35,1.55 1.35,1.55z"/>
     <path class="fil21" d="M1389.42 652.42c6.93,-6.73 -0.27,-4.49 -1.36,-1.55 -1.09,2.94 1.36,1.55 1.36,1.55z"/>
     <path class="fil21" d="M1357.3 644.45c6.94,-6.73 -0.26,-4.49 -1.35,-1.55 -1.09,2.94 1.35,1.55 1.35,1.55z"/>
     <path class="fil22" d="M1409.69 633.12c25.19,-15.09 38.47,-5.68 48.46,-10.89 10,-5.2 8.33,-12.59 8.33,-12.59l4.54 2.31c0,0 -2.6,7.2 -8.8,11.63 -6.19,4.43 -24.33,-0.4 -33.89,3.21 -9.56,3.6 -16.95,9.74 -16.95,9.74l-1.69 -3.41z"/>
     <path class="fil23" d="M1432.23 606.98c7.95,-4.58 16.89,-9.49 9.15,-15.46 -7.74,-5.97 -23.07,-8.8 -28.13,-11.18 -5.05,-2.37 -5.05,-2.37 -5.05,-2.37 0,0 4.06,6.01 3.74,8.34 -0.32,2.32 2.02,3.53 -3.83,1.9 -5.85,-1.62 -12.22,-3.26 -12.22,-3.26l-0.58 2.05 -7.48 -2.39 0.36 1.87 -10.58 -4.4 0.29 2.54 -8.44 -5.01c0,0 4.32,9.6 5.61,11.29 1.3,1.69 -1.46,2.08 -1.46,2.08l6.86 6 -1.95 1.03 11.74 10.74 -6.77 -1.96 11.82 6.25 -6.39 -0.61 1.96 1.77c0,0 -7.1,0.36 -10.69,-0.78 -3.59,-1.14 -3.59,-1.14 -3.59,-1.14 0,0 7.91,10.74 22.68,11.79 14.77,1.06 28.7,11.04 36,2.04 7.3,-8.99 -3.05,-21.15 -3.05,-21.15z"/>
     <path class="fil24" d="M1431.95 606.89c-17.08,-11.52 -31.79,-9.11 -41.05,-14.04 -9.26,-4.93 -12.87,-7.73 -12.87,-7.73 0,0 5.15,8.68 18.99,11.74 13.85,3.06 27.95,8.1 33.54,11.52 5.59,3.42 1.39,-1.49 1.39,-1.49z"/>
     <path class="fil24" d="M1428.23 602.37c-0.88,-9.88 -16.92,-22.5 -16.92,-22.5 0,0 13.12,12.13 14.58,16.87 1.46,4.75 2.26,8.31 2.26,8.31l-0.96 1.02 1.75 2.77c0,0 0.1,-2.85 -0.71,-6.48z"/>
     <path class="fil24" d="M1390.42 620.33c12.11,4.46 20.48,0.88 27.14,1.15 6.66,0.28 10.77,-1.04 11.95,-3.42 1.17,-2.37 4.34,-7.34 4.34,-7.34l-1.4 -0.6c0,0 -2.36,6.75 -4.77,8.1 -2.42,1.34 -4.94,3.39 -13.84,2.36 -8.9,-1.02 -2.04,3.39 -23.43,-0.26z"/>
    </g>
    <path class="fil5 str5" d="M834.33 1656.31c-27.83,-80.46 -48.71,-134.46 -209.74,-232.92 -17.61,-10.77 -32.97,-21.5 -46.34,-32.07 -108.93,-86.09 -140.94,-189.73 -140.94,-189.73"/>
    <path class="fil5 str5" d="M521.83 1422.24c35.87,-7.16 53.05,21.49 29.89,32.63 -23.16,11.14 -51.56,29.45 -63.51,-23.88 -11.95,-53.32 58.63,-63.4 85.71,-43.16 27.07,20.24 4.35,3.48 4.35,3.48"/>
    <path class="fil5 str5" d="M768.42 1533.73c-91.18,-164.02 -108.36,-195.85 -66.52,-245.2 41.84,-49.34 91.16,-19.9 123.29,-20.69 32.13,-0.8 45.58,-3.18 43.34,-31.04 -2.24,-27.85 -2.24,-27.85 -2.24,-27.85"/>
    <path class="fil5 str5" d="M456.07 1629.96c12.7,-85.16 44.08,-118.58 122.54,-113.81 78.46,4.78 81.45,77.2 49.31,82.77 -32.13,5.57 -69.49,-20.69 -56.04,-43.77 13.45,-23.08 24.66,-15.12 24.66,-15.12"/>
    <path class="fil5 str5" d="M680.99 1329c-3,-97.77 56.78,-112.89 -0.01,-141.54 -56.79,-28.65 -83.69,41.39 -59.78,50.94 23.91,9.55 40.35,-5.57 28.39,-19.1 -11.95,-13.53 -12.7,-7.16 -12.7,-7.16"/>
    <path class="fil5 str5" d="M736.46 1475.91c-15.88,-87.9 83.5,-104.61 92.47,-52.88 8.97,51.73 -29.14,50.14 -29.14,30.25 0,-19.9 11.21,-16.71 11.21,-16.71"/>
    <path class="fil23 str5" d="M492.09 1306.47c-17.96,-23.97 -37.05,-9.98 -46.41,-5.59 -9.36,4.39 -9.36,4.39 -9.36,4.39 0,0 8.98,30.37 34.43,30.77 25.45,0.4 30.69,-14.79 21.33,-29.57z"/>
    <path class="fil23 str5" d="M505.56 1275.3c-4.86,-21.57 26.95,-33.56 26.95,-33.56 0,0 17.97,42.75 5.99,54.74 -11.98,11.99 -28.44,-1.2 -32.94,-21.18z"/>
    <path class="fil23 str5" d="M605.12 1265.32c-17.22,-5.2 -17.59,17.98 -18.71,29.97 -1.13,11.99 -1.13,11.99 -1.13,11.99 0,0 37.81,-7.59 34.44,-22.78 -3.37,-15.18 -14.6,-19.18 -14.6,-19.18z"/>
    <path class="fil23 str5" d="M669.87 1353.22c-13.1,-23.58 -44.91,1.2 -44.91,1.2 0,0 19.46,32.76 32.19,27.17 12.73,-5.59 17.96,-16.78 12.73,-28.37z"/>
    <path class="fil23 str5" d="M452.59 1200.93c12.29,10.05 31.05,5.64 33.97,-15.51 2.93,-21.16 -1.36,-28.8 -1.36,-28.8 0,0 -18.8,-1.9 -33.13,18 -14.33,19.9 0.51,26.31 0.51,26.31z"/>
    <path class="fil23 str5" d="M589.77 1506.25c-22.08,-15.18 35.93,-41.95 35.93,-41.95 0,0 7.11,47.95 -5.98,48.75 -13.1,0.8 -29.94,-6.79 -29.94,-6.79z"/>
    <path class="fil23 str5" d="M659.76 1576.18c6.36,-15.98 11.22,-16.78 21.7,-7.19 10.48,9.59 17.59,17.58 17.59,17.58 0,0 -36.31,13.19 -41.54,6.39 -5.24,-6.8 2.25,-16.79 2.25,-16.79z"/>
    <path class="fil23 str5" d="M797.86 1428.74c-29.94,-9.59 -41.54,7.59 -41.54,7.59 0,0 16.09,13.59 25.82,9.59 9.73,-4 14.97,-7.19 15.72,-17.18z"/>
    <path class="fil23 str5" d="M829.67 1394.78c-8.98,-21.18 17.59,-25.97 17.59,-25.97 0,0 13.1,32.37 2.25,34.36 -10.86,1.99 -19.84,-8.39 -19.84,-8.39z"/>
    <path class="fil23 str5" d="M774.66 1273.71c-22.83,4.79 -31.81,7.99 -14.97,31.97 16.84,23.97 22.45,23.18 22.45,23.18 0,0 20.21,-27.97 11.98,-40.36 -8.23,-12.38 -4.12,-17.98 -19.46,-14.78z"/>
    <path class="fil23 str5" d="M864.11 1282.1c10.11,-22.78 23.95,-26.77 29.94,-13.98 5.99,12.79 7.11,32.76 7.11,32.76 0,0 -28.44,3.19 -36.3,-3.6 -7.86,-6.79 -0.75,-15.18 -0.75,-15.18z"/>
    <path class="fil23 str5" d="M850.26 1176.61c-7.48,-15.58 -12.72,-29.97 4.87,-28.37 17.59,1.6 36.3,5.99 36.3,5.99 0,0 -16.47,39.15 -23.58,39.15 -7.11,0 -17.59,-16.78 -17.59,-16.78z"/>
    <path class="fil23 str5" d="M748.46 1178.61c7.86,-18.38 30.69,-23.57 15.72,-32.76 -14.97,-9.19 -44.17,-11.99 -44.17,-11.99 0,0 7.86,37.96 14.97,42.75 7.11,4.8 13.48,2 13.48,2z"/>
   </g>
   <path class="fil25 str6" d="M694.31 1329.41c129.68,0 234.84,105.17 234.84,234.85 0,129.68 -105.16,234.84 -234.84,234.84 -129.68,0 -234.84,-105.16 -234.84,-234.84 0,-129.68 105.16,-234.85 234.84,-234.85z"/>
   <path class="fil25 str6" d="M694.31 1335.65c126.24,0 228.61,102.37 228.61,228.61 0,126.24 -102.37,228.61 -228.61,228.61 -126.24,0 -228.61,-102.37 -228.61,-228.61 0,-126.24 102.37,-228.61 228.61,-228.61z"/>
   <path class="fil21 str6" d="M694.31 1342.94c122.21,0 221.31,99.11 221.31,221.32 0,122.21 -99.11,221.31 -221.31,221.31 -122.21,0 -221.31,-99.11 -221.31,-221.31 0,-122.21 99.11,-221.32 221.31,-221.32z"/>
   <g>
    <path class="fil21" d="M1431.48 1485.28c3.41,-0.84 6.92,-1.26 10.48,-1.28l78.67 0c5.85,0.03 11.6,1.18 16.99,3.44 5.38,2.25 10.22,5.49 14.35,9.63l15.76 15.76 -17.58 17.81c3.57,3.93 6.44,8.4 8.56,13.29 2.55,5.9 3.82,12.19 3.86,18.75 -0.04,6.57 -1.31,12.85 -3.88,18.76 -2.45,5.63 -5.91,10.71 -10.27,15.04 -4.32,4.29 -9.4,7.69 -15.04,10.14 -5.88,2.51 -12.2,3.78 -18.65,3.81l-77.2 0c-2.04,-0.01 -4.06,-0.15 -6.05,-0.42l0 0.42 -67.41 0 -52.25 -41.25 0 41.25 -57.41 0 0 -7.26c-3.01,1.58 -6.14,2.91 -9.39,4 -6.49,2.18 -13.27,3.23 -20.15,3.26l-41.31 0c-6.85,-0.03 -13.64,-1.08 -20.15,-3.26 -3.23,-1.08 -6.35,-2.41 -9.34,-3.97l0 7.24 -57.41 0 0 -7.27c-3.01,1.58 -6.16,2.91 -9.4,4 -6.48,2.17 -13.26,3.24 -20.13,3.27l-99.09 0 0 -126.53 99.13 0c6.69,0.03 13.34,1.03 19.77,3.07 3.35,1.08 6.6,2.42 9.72,4.01l0 -7.09 57.41 0 0 7.09c3.07,-1.58 6.28,-2.91 9.61,-4 6.42,-2.06 13.14,-3.07 19.93,-3.09l41.31 0c6.73,0.03 13.44,1.04 19.92,3.12 3.3,1.08 6.5,2.41 9.58,3.99l0 -7.11 42.77 0 52.25 41.25 0 -41.25 82.06 0 0 1.4zm-406.04 56.01l0 11.72 41.59 0c0.79,-0 1.55,-0.11 2.29,-0.43 0.77,-0.33 1.44,-0.76 2.05,-1.38 0.62,-0.63 1.08,-1.34 1.45,-2.19 0.31,-0.73 0.42,-1.56 0.42,-2.25 -0,-0.58 -0.08,-1.38 -0.37,-2.04 -0.28,-0.65 -0.64,-1.21 -1.18,-1.72 -0.55,-0.54 -1.18,-0.93 -1.92,-1.23 -0.88,-0.35 -1.83,-0.47 -2.71,-0.47l-41.63 0zm205.55 5.52c-0,-0.62 -0.08,-1.36 -0.37,-2.02 -0.29,-0.66 -0.67,-1.23 -1.21,-1.75 -0.6,-0.58 -1.26,-0.98 -1.99,-1.28 -0.87,-0.36 -1.72,-0.46 -2.6,-0.47l-41.11 0c-0.93,0 -1.82,0.11 -2.66,0.45 -0.72,0.3 -1.42,0.7 -2.05,1.32 -0.51,0.49 -0.88,1.06 -1.16,1.7 -0.29,0.66 -0.36,1.35 -0.36,1.94 0,0.84 0.1,1.62 0.44,2.39 0.34,0.79 0.78,1.49 1.44,2.15 0.57,0.58 1.23,1.01 1.96,1.32 0.78,0.33 1.53,0.44 2.33,0.45l41.13 0c0.85,-0 1.57,-0.12 2.34,-0.45 0.78,-0.33 1.41,-0.77 2.02,-1.38 0.61,-0.61 1.07,-1.31 1.43,-2.16 0.32,-0.74 0.42,-1.57 0.42,-2.22z"/>
   </g>
   <path class="fil26" d="M1108.33 1546.75c-0.02,-4.61 -0.73,-8.94 -2.11,-13.03 -1.4,-4.07 -3.36,-7.79 -5.88,-11.13 -2.52,-3.34 -5.51,-6.24 -8.94,-8.67 -3.44,-2.42 -7.21,-4.29 -11.32,-5.62 -4.11,-1.31 -8.42,-1.98 -12.98,-2l-76.64 0 0 81.68 76.64 0c4.57,-0.02 8.9,-0.73 13.03,-2.11 4.11,-1.38 7.88,-3.33 11.32,-5.84 3.42,-2.52 6.4,-5.51 8.93,-8.95 2.52,-3.42 4.46,-7.19 5.84,-11.32 1.4,-4.11 2.09,-8.44 2.11,-13.02zm-12.66 0c-0.02,3.94 -0.76,7.66 -2.24,11.09 -1.47,3.45 -3.51,6.5 -6.12,9.13 -2.6,2.63 -5.62,4.69 -9.08,6.18 -3.44,1.49 -7.15,2.26 -11.13,2.28l-64.09 0 0 -56.58 64.09 0c3.97,0.02 7.69,0.73 11.13,2.13 3.45,1.4 6.48,3.38 9.08,5.9 2.61,2.52 4.65,5.47 6.12,8.85 1.48,3.36 2.22,7.04 2.24,11.01zm35.97 41.23l0 -81.68 -12.55 0 0 81.68 12.55 0zm134.45 -41.23c-0.02,-4.57 -0.71,-8.89 -2.11,-12.94 -1.38,-4.07 -3.33,-7.77 -5.85,-11.13 -2.52,-3.34 -5.51,-6.25 -8.92,-8.68 -3.44,-2.45 -7.21,-4.33 -11.32,-5.68 -4.13,-1.32 -8.46,-2 -13.04,-2.01l-41.23 0c-4.59,0.02 -8.94,0.69 -13.07,2.01 -4.11,1.34 -7.88,3.23 -11.32,5.68 -3.44,2.43 -6.4,5.34 -8.91,8.68 -2.52,3.36 -4.46,7.06 -5.84,11.13 -1.38,4.05 -2.07,8.37 -2.09,12.94 0.02,4.6 0.71,8.95 2.09,13.08 1.38,4.11 3.33,7.88 5.84,11.31 2.51,3.44 5.47,6.41 8.91,8.91 3.44,2.52 7.21,4.46 11.32,5.84 4.13,1.38 8.48,2.07 13.07,2.09l41.23 0c4.58,-0.02 8.91,-0.71 13.04,-2.09 4.11,-1.38 7.88,-3.33 11.32,-5.84 3.42,-2.5 6.4,-5.47 8.92,-8.91 2.52,-3.44 4.47,-7.21 5.85,-11.31 1.4,-4.13 2.09,-8.48 2.11,-13.08zm-12.66 0c-0.02,3.98 -0.76,7.7 -2.26,11.15 -1.48,3.45 -3.53,6.5 -6.14,9.11 -2.62,2.63 -5.64,4.69 -9.08,6.16 -3.46,1.48 -7.13,2.24 -11.09,2.26l-41.23 0c-3.98,-0.02 -7.68,-0.78 -11.13,-2.26 -3.44,-1.47 -6.48,-3.53 -9.08,-6.16 -2.62,-2.62 -4.65,-5.66 -6.13,-9.11 -1.48,-3.45 -2.22,-7.17 -2.24,-11.15 0.02,-3.94 0.76,-7.6 2.24,-10.98 1.48,-3.38 3.51,-6.33 6.13,-8.85 2.6,-2.54 5.64,-4.5 9.08,-5.92 3.45,-1.42 7.15,-2.13 11.13,-2.15l41.23 0c3.96,0.02 7.64,0.73 11.09,2.15 3.44,1.42 6.46,3.38 9.08,5.92 2.61,2.52 4.67,5.47 6.14,8.85 1.49,3.38 2.24,7.04 2.26,10.98zm130.97 41.23l0 -81.68 -12.55 0 0 65.1 -82.46 -65.1 -12.55 0 0 81.68 12.55 0 0 -65.1 82.46 65.1 12.55 0zm24.65 0l0 -81.68 -12.55 0 0 81.68 12.55 0zm131.09 -25.32c-0.02,-3.49 -0.69,-6.77 -2.02,-9.84 -1.32,-3.06 -3.15,-5.75 -5.49,-8.09 -2.34,-2.34 -5.02,-4.16 -8.09,-5.49 -3.06,-1.33 -6.33,-2 -9.84,-2.01l-72.72 0c-1.7,-0.02 -3.27,-0.47 -4.7,-1.34 -1.44,-0.88 -2.6,-2.04 -3.47,-3.47 -0.88,-1.44 -1.32,-3.01 -1.34,-4.7 0.02,-1.74 0.49,-3.27 1.38,-4.59 0.88,-1.33 2.04,-2.36 3.47,-3.12 1.44,-0.75 3.01,-1.12 4.67,-1.14l78.54 0c1.31,0 2.58,0.23 3.79,0.67 1.22,0.45 2.32,1.12 3.27,2.01l8.52 -8.63c-2.09,-2.09 -4.48,-3.68 -7.15,-4.8 -2.67,-1.12 -5.47,-1.68 -8.42,-1.7l-78.54 0c-3.03,0.02 -5.87,0.61 -8.52,1.77 -2.67,1.18 -5.02,2.78 -7.08,4.82 -2.03,2.05 -3.64,4.41 -4.82,7.06 -1.16,2.67 -1.75,5.51 -1.78,8.53 0.02,3.04 0.64,5.84 1.81,8.4 1.2,2.58 2.8,4.82 4.87,6.72 2.06,1.9 4.41,3.38 7.08,4.44 2.65,1.05 5.46,1.59 8.42,1.61l72.72 0c1.72,0.02 3.36,0.35 4.89,1.05 1.53,0.69 2.87,1.64 4.05,2.84 1.2,1.2 2.13,2.56 2.8,4.11 0.67,1.53 1.03,3.18 1.03,4.89 0,1.72 -0.35,3.34 -1.03,4.88 -0.67,1.53 -1.61,2.89 -2.8,4.07 -1.18,1.2 -2.52,2.11 -4.05,2.8 -1.53,0.67 -3.18,1.01 -4.89,1.02l-76.97 0c-1.7,-0.02 -3.33,-0.35 -4.86,-1.02 -1.55,-0.67 -2.91,-1.59 -4.11,-2.78l-8.85 8.85c2.39,2.37 5.1,4.2 8.14,5.51 3.04,1.31 6.22,1.98 9.56,2l77.09 0c3.51,-0.02 6.78,-0.69 9.84,-2 3.06,-1.33 5.75,-3.14 8.09,-5.45 2.34,-2.32 4.17,-5.01 5.49,-8.05 1.33,-3.06 2,-6.33 2.02,-9.82z"/>
   <path class="fil26" d="M706 1556.58c-0.02,-4.05 -0.63,-7.86 -1.87,-11.44 -1.22,-3.6 -2.94,-6.87 -5.17,-9.85 -2.23,-2.95 -4.87,-5.53 -7.89,-7.68 -3.04,-2.16 -6.38,-3.83 -10.01,-5.02 -3.65,-1.17 -7.48,-1.77 -11.53,-1.78l-32.5 0c-4.06,0.02 -7.91,0.61 -11.56,1.78 -3.63,1.19 -6.97,2.86 -10.01,5.02 -3.04,2.15 -5.66,4.73 -7.88,7.68 -2.23,2.98 -3.94,6.25 -5.17,9.85 -1.22,3.58 -1.83,7.4 -1.85,11.44 0.02,4.06 0.63,7.91 1.85,11.56 1.23,3.63 2.94,6.97 5.17,10.01 2.22,3.04 4.84,5.66 7.88,7.88 3.04,2.23 6.38,3.94 10.01,5.17 3.65,1.22 7.5,1.83 11.56,1.85l32.5 0c4.05,-0.02 7.88,-0.63 11.53,-1.85 3.63,-1.23 6.97,-2.94 10.01,-5.17 3.02,-2.22 5.66,-4.84 7.89,-7.88 2.23,-3.04 3.95,-6.38 5.17,-10.01 1.24,-3.65 1.85,-7.5 1.87,-11.56zm-11.2 0c-0.02,3.52 -0.67,6.8 -2,9.86 -1.31,3.06 -3.12,5.75 -5.43,8.06 -2.31,2.33 -4.99,4.14 -8.03,5.45 -3.06,1.3 -6.31,1.98 -9.81,1.99l-32.5 0c-3.52,-0.01 -6.79,-0.69 -9.84,-1.99 -3.04,-1.31 -5.73,-3.12 -8.03,-5.45 -2.31,-2.31 -4.12,-5.01 -5.42,-8.06 -1.3,-3.05 -1.96,-6.34 -1.98,-9.86 0.02,-3.48 0.68,-6.72 1.98,-9.71 1.31,-2.99 3.11,-5.6 5.42,-7.83 2.29,-2.25 4.98,-3.98 8.03,-5.23 3.05,-1.26 6.32,-1.89 9.84,-1.9l32.5 0c3.5,0.02 6.75,0.65 9.81,1.9 3.04,1.26 5.71,2.99 8.03,5.23 2.31,2.23 4.13,4.84 5.43,7.83 1.32,2.99 1.98,6.23 2,9.71zm108.31 18.43c-0.02,-2.68 -0.52,-5.17 -1.51,-7.48 -0.99,-2.31 -2.38,-4.35 -4.12,-6.11 -1.77,-1.75 -3.8,-3.12 -6.11,-4.11 -2.31,-0.99 -4.81,-1.5 -7.48,-1.52 -2.66,0.02 -5.16,0.53 -7.48,1.52 -2.31,0.99 -4.35,2.36 -6.11,4.11 -1.75,1.77 -3.12,3.8 -4.11,6.11 -0.99,2.31 -1.5,4.8 -1.52,7.48 0.02,2.68 0.53,5.15 1.52,7.48 0.99,2.31 2.36,4.35 4.11,6.11 1.77,1.75 3.8,3.12 6.11,4.11 2.33,0.99 4.82,1.5 7.48,1.52 2.67,-0.02 5.17,-0.53 7.48,-1.52 2.31,-0.99 4.34,-2.36 6.11,-4.11 1.75,-1.77 3.13,-3.8 4.12,-6.11 0.99,-2.33 1.49,-4.81 1.51,-7.48zm-16.15 -54.2l-11.1 0 -44.79 75.31 11.09 0 44.79 -75.31zm-33 21.11c-0.02,-2.67 -0.53,-5.17 -1.52,-7.48 -0.99,-2.31 -2.36,-4.34 -4.12,-6.11 -1.76,-1.75 -3.8,-3.12 -6.11,-4.11 -2.31,-0.99 -4.81,-1.51 -7.48,-1.52 -2.67,0.02 -5.15,0.53 -7.48,1.52 -2.31,0.99 -4.34,2.36 -6.11,4.11 -1.75,1.77 -3.12,3.8 -4.11,6.11 -0.99,2.31 -1.5,4.81 -1.52,7.48 0.02,2.66 0.53,5.15 1.52,7.48 0.99,2.31 2.36,4.34 4.11,6.11 1.77,1.75 3.8,3.12 6.11,4.11 2.33,0.99 4.81,1.51 7.48,1.52 2.68,-0.01 5.17,-0.53 7.48,-1.52 2.31,-0.99 4.35,-2.36 6.11,-4.11 1.75,-1.77 3.12,-3.8 4.12,-6.11 0.99,-2.33 1.5,-4.82 1.52,-7.48l0 0zm40.93 33c-0.02,2.03 -0.53,3.88 -1.5,5.53 -0.99,1.65 -2.3,2.98 -3.95,3.97 -1.67,0.97 -3.5,1.49 -5.55,1.5 -2.04,-0.02 -3.88,-0.53 -5.54,-1.5 -1.65,-0.99 -2.97,-2.31 -3.96,-3.97 -0.97,-1.65 -1.49,-3.5 -1.5,-5.53 0.01,-2.04 0.53,-3.88 1.5,-5.54 0.99,-1.67 2.31,-2.97 3.96,-3.96 1.65,-0.97 3.5,-1.49 5.54,-1.5 2.04,0.01 3.88,0.53 5.55,1.5 1.65,0.99 2.95,2.29 3.95,3.96 0.97,1.65 1.49,3.5 1.5,5.54l0 0zm-49.15 -33.1c-0.01,2.03 -0.53,3.88 -1.5,5.53 -0.99,1.65 -2.29,2.98 -3.96,3.97 -1.65,0.97 -3.49,1.49 -5.54,1.5 -2.03,-0.02 -3.88,-0.53 -5.53,-1.5 -1.65,-0.99 -2.98,-2.31 -3.97,-3.97 -0.98,-1.65 -1.49,-3.5 -1.5,-5.53 0.02,-2.05 0.53,-3.88 1.5,-5.53 0.99,-1.67 2.31,-2.98 3.97,-3.97 1.65,-0.97 3.5,-1.49 5.53,-1.5 2.05,0.02 3.88,0.53 5.54,1.5 1.67,0.99 2.97,2.3 3.96,3.97 0.97,1.65 1.49,3.48 1.5,5.53l0 0z"/>
   <g>
    <path class="fil26" d="M760.32 1737.28l1.16 2.49 17.63 -8.22 6.4 13.72 2.49 -1.16 -7.56 -16.22 -20.12 9.38zm-20.69 15.35l2.44 8.52 2.65 -0.76 -2.45 -8.52c-0.23,-0.83 -0.3,-1.66 -0.2,-2.48 0.1,-0.82 0.35,-1.58 0.73,-2.29 0.39,-0.72 0.9,-1.33 1.53,-1.85 0.64,-0.53 1.37,-0.9 2.2,-1.14l5.33 -1.53c0.83,-0.23 1.66,-0.3 2.48,-0.2 0.82,0.11 1.58,0.36 2.3,0.75 0.71,0.4 1.33,0.91 1.85,1.55 0.52,0.63 0.91,1.37 1.15,2.2l2.44 8.52 2.65 -0.76 -2.44 -8.52c-0.28,-0.96 -0.69,-1.83 -1.23,-2.61 -0.54,-0.79 -1.17,-1.46 -1.92,-2.03 -0.74,-0.57 -1.55,-1.02 -2.42,-1.34 -0.87,-0.33 -1.79,-0.51 -2.74,-0.55 -0.95,-0.04 -1.9,0.07 -2.87,0.34l-5.34 1.53c-0.96,0.28 -1.83,0.69 -2.61,1.23 -0.78,0.54 -1.46,1.18 -2.02,1.92 -0.57,0.74 -1.01,1.54 -1.33,2.42 -0.32,0.88 -0.49,1.78 -0.54,2.73 -0.04,0.95 0.08,1.9 0.35,2.86zm-10.63 -7.21l3.41 17.57 2.7 -0.53 2.77 -2.24 -0.6 -3.06 -2.77 2.23 -2.82 -14.51 -2.7 0.53zm-27.09 8.66c0.07,0.77 0.28,1.47 0.63,2.12 0.35,0.64 0.79,1.2 1.34,1.66 0.55,0.46 1.17,0.81 1.87,1.04 0.7,0.22 1.42,0.31 2.19,0.24l-4.49 4.48 0.24 2.69 23.47 -2.05 -0.23 -2.69 -19.2 1.68 4.44 -4.46 0 -0.02 5.99 -0.53 -0.24 -2.74 -10.22 0.89c-0.53,0.04 -1,-0.04 -1.44,-0.26 -0.44,-0.22 -0.8,-0.52 -1.09,-0.92 -0.29,-0.41 -0.45,-0.86 -0.5,-1.38 -0.04,-0.51 0.05,-0.99 0.26,-1.43 0.22,-0.45 0.53,-0.81 0.92,-1.09 0.4,-0.29 0.85,-0.46 1.37,-0.51l12.38 -1.08c0.72,-0.06 1.42,0 2.11,0.18 0.69,0.19 1.33,0.48 1.92,0.89 0.59,0.4 1.11,0.88 1.54,1.46l1.84 -2.16c-0.64,-0.73 -1.37,-1.34 -2.19,-1.83 -0.82,-0.5 -1.69,-0.86 -2.61,-1.08 -0.93,-0.22 -1.88,-0.29 -2.85,-0.21l-12.38 1.08c-0.76,0.07 -1.46,0.28 -2.11,0.62 -0.64,0.34 -1.2,0.79 -1.66,1.34 -0.47,0.55 -0.81,1.17 -1.04,1.86 -0.23,0.69 -0.32,1.42 -0.25,2.19z"/>
    <path class="fil26" d="M665.52 1746.4l-0.24 2.74 19.38 1.69 -1.32 15.09 2.74 0.24 1.56 -17.83 -22.11 -1.93zm-25.68 3.14l-2.15 8.6 2.67 0.66 2.14 -8.59c0.21,-0.84 0.57,-1.59 1.07,-2.25 0.49,-0.65 1.08,-1.2 1.78,-1.62 0.7,-0.42 1.45,-0.7 2.26,-0.84 0.81,-0.13 1.63,-0.1 2.47,0.11l5.38 1.34c0.83,0.21 1.58,0.57 2.24,1.07 0.65,0.5 1.19,1.1 1.61,1.8 0.41,0.7 0.69,1.46 0.83,2.27 0.13,0.81 0.1,1.63 -0.11,2.48l-2.14 8.6 2.67 0.66 2.14 -8.59c0.24,-0.98 0.32,-1.94 0.23,-2.88 -0.07,-0.96 -0.29,-1.85 -0.64,-2.72 -0.36,-0.87 -0.83,-1.66 -1.43,-2.37 -0.59,-0.72 -1.29,-1.33 -2.1,-1.84 -0.8,-0.51 -1.68,-0.89 -2.66,-1.14l-5.39 -1.34c-0.97,-0.24 -1.93,-0.32 -2.87,-0.24 -0.94,0.09 -1.85,0.3 -2.71,0.66 -0.86,0.35 -1.64,0.83 -2.36,1.43 -0.71,0.6 -1.32,1.3 -1.84,2.1 -0.51,0.8 -0.88,1.69 -1.13,2.65zm-5.71 -11.54l-5.83 16.92 2.6 0.9 3.52 -0.55 1.01 -2.95 -3.51 0.55 4.81 -13.98 -2.6 -0.89zm-27.81 -5.98c-0.32,0.7 -0.5,1.42 -0.52,2.15 -0.02,0.73 0.09,1.43 0.33,2.11 0.25,0.68 0.61,1.29 1.1,1.84 0.49,0.54 1.08,0.98 1.78,1.31l-6.13 1.64 -1.14 2.45 21.36 9.96 1.14 -2.45 -17.46 -8.15 6.07 -1.63 0.01 -0.03 5.45 2.54 1.17 -2.49 -9.31 -4.34c-0.47,-0.22 -0.85,-0.54 -1.12,-0.95 -0.27,-0.41 -0.43,-0.85 -0.48,-1.34 -0.05,-0.49 0.04,-0.97 0.26,-1.44 0.22,-0.47 0.54,-0.84 0.94,-1.11 0.41,-0.28 0.85,-0.44 1.34,-0.49 0.49,-0.05 0.96,0.03 1.43,0.24l11.26 5.25c0.65,0.31 1.23,0.72 1.74,1.23 0.5,0.5 0.91,1.08 1.22,1.72 0.31,0.64 0.51,1.32 0.59,2.04l2.67 -0.95c-0.19,-0.95 -0.52,-1.84 -0.98,-2.68 -0.45,-0.84 -1.03,-1.58 -1.73,-2.24 -0.69,-0.66 -1.47,-1.2 -2.35,-1.61l-11.26 -5.26c-0.7,-0.32 -1.41,-0.49 -2.14,-0.52 -0.73,-0.03 -1.43,0.09 -2.11,0.33 -0.68,0.24 -1.29,0.61 -1.83,1.09 -0.55,0.48 -0.99,1.08 -1.31,1.77zm-27.6 -24.65l-1.62 2.23 15.74 11.43 -8.9 12.25 2.22 1.62 10.52 -14.48 -17.95 -13.05zm-24.07 -10.02l-6.16 6.37 1.98 1.91 6.16 -6.37c0.6,-0.62 1.28,-1.09 2.04,-1.41 0.76,-0.32 1.54,-0.49 2.35,-0.51 0.82,-0.02 1.6,0.12 2.37,0.4 0.77,0.29 1.46,0.73 2.09,1.33l3.99 3.85c0.61,0.6 1.09,1.28 1.4,2.04 0.32,0.76 0.49,1.55 0.5,2.36 0.01,0.82 -0.12,1.61 -0.41,2.38 -0.29,0.77 -0.73,1.47 -1.33,2.1l-6.16 6.37 1.99 1.91 6.16 -6.37c0.69,-0.73 1.24,-1.52 1.64,-2.37 0.42,-0.86 0.68,-1.75 0.81,-2.68 0.12,-0.93 0.11,-1.85 -0.05,-2.77 -0.15,-0.92 -0.46,-1.8 -0.9,-2.65 -0.43,-0.84 -1.01,-1.61 -1.73,-2.31l-3.99 -3.86c-0.72,-0.69 -1.51,-1.24 -2.37,-1.65 -0.86,-0.4 -1.75,-0.67 -2.67,-0.79 -0.92,-0.12 -1.84,-0.1 -2.76,0.06 -0.92,0.16 -1.79,0.46 -2.64,0.9 -0.84,0.44 -1.61,1.02 -2.3,1.73zm1.02 -12.61l-13.72 11.5 1.77 2.1 3.3 1.34 2.39 -2 -3.3 -1.34 11.32 -9.5 -1.76 -2.1zm-21.46 -19.03c-0.63,0.45 -1.14,0.98 -1.52,1.6 -0.38,0.63 -0.64,1.29 -0.76,2 -0.12,0.7 -0.12,1.42 0.03,2.14 0.15,0.71 0.44,1.39 0.89,2.02l-6.13 -1.64 -2.21 1.55 13.52 19.3 2.22 -1.55 -11.05 -15.79 6.07 1.62 0.02 -0.01 3.45 4.93 2.25 -1.58 -5.89 -8.41c-0.3,-0.43 -0.46,-0.89 -0.49,-1.38 -0.03,-0.49 0.05,-0.95 0.25,-1.4 0.21,-0.45 0.53,-0.82 0.95,-1.13 0.42,-0.29 0.88,-0.45 1.36,-0.49 0.5,-0.03 0.97,0.05 1.41,0.25 0.45,0.2 0.82,0.51 1.12,0.93l7.12 10.18c0.41,0.6 0.71,1.23 0.9,1.93 0.18,0.69 0.24,1.38 0.19,2.1 -0.05,0.71 -0.21,1.4 -0.5,2.07l2.78 0.51c0.31,-0.92 0.48,-1.86 0.5,-2.81 0.03,-0.96 -0.1,-1.89 -0.37,-2.81 -0.27,-0.91 -0.68,-1.77 -1.23,-2.57l-7.13 -10.18c-0.44,-0.62 -0.97,-1.13 -1.59,-1.52 -0.61,-0.39 -1.28,-0.64 -1.99,-0.77 -0.7,-0.13 -1.42,-0.12 -2.13,0.03 -0.71,0.15 -1.39,0.44 -2.02,0.88zm-11.7 -34.99l-2.52 1.12 7.91 17.77 -13.83 6.16 1.11 2.51 16.35 -7.28 -9.02 -20.28zm-16.43 -20.23l-8.43 2.74 0.85 2.62 8.43 -2.74c0.82,-0.26 1.65,-0.36 2.47,-0.28 0.82,0.07 1.59,0.29 2.31,0.65 0.73,0.37 1.36,0.85 1.9,1.47 0.54,0.61 0.95,1.33 1.22,2.15l1.72 5.28c0.26,0.82 0.36,1.65 0.28,2.47 -0.08,0.82 -0.3,1.59 -0.67,2.32 -0.37,0.73 -0.87,1.36 -1.49,1.91 -0.61,0.54 -1.34,0.95 -2.16,1.23l-8.43 2.74 0.85 2.62 8.43 -2.74c0.96,-0.32 1.81,-0.76 2.57,-1.33 0.77,-0.57 1.42,-1.23 1.97,-1.98 0.54,-0.77 0.96,-1.59 1.26,-2.48 0.3,-0.88 0.45,-1.8 0.46,-2.75 0.01,-0.95 -0.14,-1.9 -0.44,-2.86l-1.72 -5.28c-0.31,-0.95 -0.75,-1.81 -1.32,-2.57 -0.57,-0.76 -1.23,-1.41 -1.99,-1.95 -0.76,-0.54 -1.58,-0.95 -2.46,-1.25 -0.89,-0.29 -1.81,-0.43 -2.76,-0.44 -0.95,-0.01 -1.9,0.15 -2.84,0.45zm7.3 -10.98l-17.44 4.03 0.62 2.68 2.33 2.69 3.04 -0.7 -2.33 -2.69 14.4 -3.33 -0.62 -2.68zm-9.36 -26.81c-0.77,0.1 -1.46,0.33 -2.09,0.7 -0.63,0.37 -1.17,0.83 -1.62,1.4 -0.44,0.57 -0.76,1.2 -0.97,1.91 -0.2,0.7 -0.26,1.43 -0.17,2.2l-4.64 -4.33 -2.69 0.33 2.87 23.39 2.68 -0.33 -2.35 -19.13 4.61 4.28 0.03 -0 0.73 5.97 2.73 -0.33 -1.25 -10.19c-0.06,-0.52 0.01,-1 0.22,-1.46 0.2,-0.44 0.49,-0.82 0.88,-1.12 0.4,-0.3 0.85,-0.48 1.36,-0.55 0.52,-0.06 0.99,0.01 1.44,0.2 0.45,0.2 0.83,0.5 1.12,0.88 0.3,0.38 0.49,0.83 0.55,1.35l1.52 12.33c0.08,0.72 0.04,1.43 -0.12,2.12 -0.16,0.69 -0.44,1.34 -0.82,1.95 -0.38,0.6 -0.85,1.13 -1.41,1.59l2.22 1.76c0.7,-0.67 1.29,-1.42 1.75,-2.25 0.47,-0.83 0.79,-1.72 0.99,-2.66 0.19,-0.94 0.23,-1.89 0.11,-2.85l-1.51 -12.33c-0.1,-0.76 -0.33,-1.46 -0.69,-2.09 -0.37,-0.63 -0.83,-1.17 -1.4,-1.61 -0.56,-0.45 -1.2,-0.77 -1.9,-0.98 -0.7,-0.2 -1.43,-0.26 -2.2,-0.17zm7.39 -36.49l-2.74 -0.24 -1.69 19.38 -15.09 -1.32 -0.24 2.74 17.83 1.56 1.93 -22.11zm-3.37 -25.95l-8.6 -2.15 -0.67 2.67 8.6 2.14c0.84,0.22 1.59,0.57 2.24,1.07 0.66,0.5 1.2,1.08 1.62,1.78 0.43,0.7 0.7,1.44 0.84,2.25 0.14,0.81 0.1,1.63 -0.11,2.47l-1.34 5.39c-0.21,0.83 -0.56,1.58 -1.06,2.24 -0.51,0.66 -1.1,1.19 -1.81,1.61 -0.7,0.42 -1.45,0.69 -2.27,0.83 -0.81,0.13 -1.64,0.1 -2.48,-0.11l-8.6 -2.14 -0.67 2.67 8.6 2.14c0.97,0.24 1.93,0.32 2.88,0.23 0.95,-0.07 1.85,-0.29 2.72,-0.64 0.86,-0.36 1.66,-0.83 2.37,-1.43 0.72,-0.59 1.33,-1.29 1.84,-2.1 0.51,-0.8 0.89,-1.68 1.14,-2.66l1.34 -5.39c0.24,-0.97 0.32,-1.93 0.24,-2.87 -0.08,-0.94 -0.29,-1.85 -0.65,-2.71 -0.36,-0.86 -0.84,-1.64 -1.43,-2.36 -0.6,-0.71 -1.3,-1.32 -2.1,-1.84 -0.8,-0.51 -1.68,-0.88 -2.65,-1.12zm11.15 -5.57l-16.92 -5.83 -0.9 2.6 0.55 3.51 2.95 1.02 -0.55 -3.51 13.98 4.81 0.89 -2.6zm4.79 -28.05c-0.72,-0.29 -1.43,-0.41 -2.17,-0.4 -0.73,0.02 -1.43,0.16 -2.09,0.44 -0.66,0.28 -1.25,0.68 -1.78,1.2 -0.52,0.52 -0.92,1.13 -1.22,1.84l-1.96 -6.04 -2.51 -1.01 -8.83 21.85 2.51 1.01 7.22 -17.87 1.96 5.98 0.02 0.01 -2.25 5.58 2.54 1.03 3.85 -9.52c0.2,-0.49 0.5,-0.88 0.89,-1.17 0.39,-0.29 0.83,-0.47 1.32,-0.55 0.49,-0.07 0.97,-0.01 1.46,0.18 0.48,0.2 0.86,0.49 1.16,0.88 0.29,0.4 0.48,0.83 0.55,1.31 0.07,0.48 0.02,0.97 -0.17,1.45l-4.65 11.52c-0.27,0.67 -0.65,1.27 -1.13,1.81 -0.48,0.53 -1.03,0.96 -1.66,1.3 -0.62,0.34 -1.29,0.58 -2,0.7l1.08 2.62c0.94,-0.24 1.81,-0.61 2.63,-1.12 0.82,-0.5 1.53,-1.11 2.15,-1.84 0.61,-0.73 1.11,-1.54 1.48,-2.43l4.65 -11.52c0.28,-0.71 0.41,-1.43 0.41,-2.16 -0.01,-0.73 -0.16,-1.43 -0.44,-2.09 -0.28,-0.67 -0.67,-1.26 -1.19,-1.78 -0.51,-0.52 -1.13,-0.93 -1.84,-1.22zm24.86 -27.86l-2.22 -1.62 -11.43 15.74 -12.25 -8.9 -1.62 2.22 14.48 10.52 13.04 -17.96zm9.02 -24.37l-6.69 -5.81 -1.81 2.07 6.69 5.81c0.65,0.57 1.16,1.23 1.51,1.97 0.36,0.73 0.57,1.51 0.64,2.32 0.06,0.81 -0.03,1.61 -0.28,2.39 -0.25,0.78 -0.65,1.5 -1.22,2.16l-3.64 4.19c-0.57,0.65 -1.23,1.16 -1.97,1.52 -0.74,0.35 -1.52,0.55 -2.34,0.61 -0.82,0.06 -1.61,-0.04 -2.4,-0.29 -0.78,-0.25 -1.51,-0.65 -2.16,-1.22l-6.69 -5.81 -1.8 2.07 6.69 5.81c0.76,0.66 1.58,1.16 2.46,1.52 0.88,0.37 1.78,0.58 2.71,0.67 0.93,0.07 1.86,0.01 2.77,-0.2 0.91,-0.2 1.77,-0.55 2.59,-1.03 0.82,-0.48 1.56,-1.09 2.22,-1.85l3.64 -4.19c0.65,-0.76 1.15,-1.58 1.52,-2.45 0.36,-0.88 0.58,-1.78 0.65,-2.71 0.07,-0.93 0,-1.84 -0.2,-2.75 -0.21,-0.91 -0.55,-1.76 -1.04,-2.59 -0.48,-0.82 -1.1,-1.55 -1.85,-2.21zm13.24 0.67l-12.2 -13.09 -2.01 1.87 -1.16 3.36 2.13 2.28 1.16 -3.37 10.08 10.81 2.01 -1.87zm17.93 -21.82c-0.48,-0.61 -1.04,-1.08 -1.68,-1.44 -0.64,-0.35 -1.32,-0.57 -2.03,-0.66 -0.72,-0.09 -1.43,-0.04 -2.13,0.15 -0.7,0.19 -1.36,0.52 -1.98,0.99l1.32 -6.21 -1.66 -2.13 -18.57 14.51 1.66 2.13 15.18 -11.86 -1.29 6.15 0.01 0.02 -4.74 3.71 1.69 2.16 8.09 -6.32c0.41,-0.32 0.87,-0.51 1.35,-0.56 0.48,-0.06 0.96,0 1.41,0.18 0.46,0.18 0.85,0.47 1.17,0.88 0.32,0.41 0.5,0.86 0.56,1.34 0.06,0.5 0,0.96 -0.18,1.42 -0.18,0.46 -0.47,0.85 -0.87,1.17l-9.79 7.65c-0.58,0.44 -1.2,0.77 -1.87,0.99 -0.68,0.21 -1.37,0.32 -2.09,0.3 -0.72,-0.02 -1.41,-0.14 -2.09,-0.4l-0.37 2.81c0.93,0.26 1.88,0.38 2.83,0.35 0.96,-0.03 1.88,-0.2 2.78,-0.52 0.9,-0.32 1.73,-0.78 2.5,-1.37l9.79 -7.65c0.6,-0.48 1.08,-1.03 1.43,-1.67 0.36,-0.64 0.58,-1.31 0.67,-2.03 0.09,-0.71 0.04,-1.42 -0.14,-2.13 -0.18,-0.7 -0.51,-1.36 -0.99,-1.98zm35.5 -12.54l-1.21 -2.47 -17.48 8.52 -6.64 -13.61 -2.46 1.2 7.84 16.09 19.95 -9.73zm20.12 -16.2l-2.74 -8.43 -2.62 0.85 2.74 8.43c0.26,0.82 0.36,1.65 0.28,2.47 -0.07,0.82 -0.29,1.59 -0.65,2.31 -0.36,0.73 -0.85,1.36 -1.46,1.9 -0.61,0.54 -1.33,0.95 -2.15,1.22l-5.28 1.72c-0.82,0.26 -1.65,0.35 -2.47,0.28 -0.82,-0.08 -1.59,-0.3 -2.32,-0.67 -0.73,-0.37 -1.36,-0.86 -1.91,-1.48 -0.54,-0.61 -0.95,-1.34 -1.23,-2.16l-2.74 -8.43 -2.62 0.85 2.74 8.43c0.31,0.95 0.76,1.81 1.33,2.57 0.56,0.77 1.23,1.42 1.98,1.97 0.76,0.54 1.59,0.96 2.48,1.26 0.88,0.3 1.8,0.44 2.75,0.45 0.95,0.01 1.9,-0.14 2.86,-0.44l5.28 -1.72c0.95,-0.31 1.81,-0.75 2.57,-1.32 0.76,-0.56 1.41,-1.23 1.95,-1.99 0.54,-0.76 0.95,-1.58 1.25,-2.46 0.29,-0.89 0.43,-1.8 0.44,-2.75 0.01,-0.95 -0.14,-1.9 -0.44,-2.85zm10.83 6.97l-4.03 -17.44 -2.68 0.61 -2.69 2.34 0.7 3.04 2.69 -2.33 3.33 14.4 2.68 -0.62zm26.76 -9.56c-0.09,-0.77 -0.33,-1.46 -0.7,-2.09 -0.37,-0.64 -0.83,-1.17 -1.4,-1.62 -0.57,-0.44 -1.2,-0.76 -1.91,-0.97 -0.7,-0.2 -1.43,-0.26 -2.19,-0.18l4.32 -4.63 -0.33 -2.69 -23.39 2.87 0.33 2.68 19.13 -2.35 -4.28 4.61 0 0.02 -5.97 0.73 0.33 2.72 10.19 -1.25c0.52,-0.06 1,0.01 1.45,0.21 0.44,0.2 0.82,0.49 1.12,0.88 0.3,0.39 0.48,0.85 0.55,1.36 0.06,0.52 -0.01,0.99 -0.2,1.44 -0.21,0.46 -0.5,0.83 -0.88,1.13 -0.39,0.3 -0.84,0.49 -1.35,0.55l-12.33 1.51c-0.72,0.09 -1.42,0.05 -2.12,-0.11 -0.69,-0.17 -1.34,-0.44 -1.94,-0.82 -0.61,-0.38 -1.14,-0.85 -1.59,-1.41l-1.76 2.22c0.67,0.7 1.42,1.29 2.25,1.75 0.83,0.47 1.72,0.79 2.66,0.99 0.93,0.19 1.89,0.23 2.85,0.12l12.33 -1.51c0.76,-0.1 1.45,-0.33 2.09,-0.7 0.63,-0.36 1.17,-0.83 1.61,-1.4 0.44,-0.56 0.77,-1.2 0.98,-1.9 0.2,-0.7 0.26,-1.43 0.17,-2.2zm36.57 6.44l0.2 -2.75 -19.4 -1.36 1.06 -15.11 -2.74 -0.19 -1.25 17.86 22.14 1.55zm25.44 -4.55l1.54 -8.73 -2.71 -0.48 -1.54 8.73c-0.16,0.85 -0.46,1.63 -0.91,2.31 -0.44,0.69 -1,1.27 -1.66,1.74 -0.66,0.47 -1.39,0.8 -2.19,0.99 -0.8,0.19 -1.62,0.21 -2.48,0.07l-5.46 -0.96c-0.85,-0.15 -1.62,-0.46 -2.31,-0.91 -0.69,-0.46 -1.26,-1.02 -1.73,-1.68 -0.47,-0.67 -0.79,-1.4 -0.99,-2.21 -0.19,-0.8 -0.22,-1.63 -0.07,-2.48l1.54 -8.73 -2.71 -0.48 -1.54 8.73c-0.17,0.99 -0.18,1.96 -0.04,2.89 0.15,0.94 0.42,1.83 0.83,2.66 0.42,0.84 0.95,1.6 1.59,2.27 0.64,0.67 1.38,1.24 2.22,1.69 0.83,0.45 1.74,0.77 2.73,0.95l5.47 0.96c0.98,0.18 1.95,0.19 2.88,0.04 0.94,-0.15 1.82,-0.42 2.66,-0.85 0.83,-0.41 1.58,-0.94 2.25,-1.59 0.67,-0.65 1.23,-1.38 1.69,-2.22 0.45,-0.84 0.76,-1.75 0.94,-2.72zm6.31 11.65l4.63 -17.29 -2.66 -0.71 -3.47 0.79 -0.81 3.01 3.47 -0.8 -3.82 14.28 2.65 0.71zm27.93 4.36c0.27,-0.73 0.39,-1.45 0.37,-2.18 -0.03,-0.73 -0.18,-1.43 -0.48,-2.08 -0.29,-0.66 -0.7,-1.24 -1.23,-1.76 -0.53,-0.5 -1.14,-0.9 -1.86,-1.18l6 -2.07 0.96 -2.52 -22 -8.45 -0.97 2.52 17.99 6.91 -5.95 2.06 -0.01 0.02 -5.61 -2.15 -0.99 2.57 9.58 3.68c0.49,0.19 0.88,0.48 1.19,0.88 0.3,0.38 0.49,0.82 0.57,1.31 0.08,0.49 0.03,0.97 -0.16,1.46 -0.19,0.49 -0.47,0.87 -0.86,1.18 -0.39,0.3 -0.82,0.5 -1.31,0.58 -0.48,0.08 -0.96,0.04 -1.45,-0.15l-11.6 -4.45c-0.68,-0.26 -1.28,-0.63 -1.82,-1.1 -0.53,-0.47 -0.98,-1.01 -1.33,-1.64 -0.35,-0.61 -0.61,-1.28 -0.74,-1.99l-2.6 1.14c0.26,0.93 0.65,1.8 1.16,2.6 0.52,0.8 1.14,1.51 1.88,2.11 0.73,0.61 1.55,1.09 2.46,1.44l11.6 4.46c0.72,0.27 1.44,0.39 2.16,0.37 0.73,-0.03 1.43,-0.19 2.09,-0.48 0.66,-0.29 1.24,-0.69 1.75,-1.21 0.51,-0.52 0.91,-1.14 1.19,-1.86zm28.75 24.15l1.46 -2.33 -16.49 -10.31 8.02 -12.85 -2.33 -1.46 -9.48 15.18 18.82 11.76zm24.22 9.14l5.81 -6.69 -2.07 -1.81 -5.81 6.69c-0.57,0.65 -1.23,1.16 -1.97,1.51 -0.73,0.36 -1.51,0.57 -2.32,0.64 -0.81,0.06 -1.61,-0.03 -2.39,-0.28 -0.78,-0.25 -1.5,-0.65 -2.16,-1.22l-4.19 -3.64c-0.65,-0.57 -1.16,-1.23 -1.52,-1.97 -0.35,-0.75 -0.56,-1.52 -0.61,-2.34 -0.06,-0.82 0.04,-1.61 0.29,-2.4 0.25,-0.78 0.65,-1.51 1.22,-2.16l5.81 -6.69 -2.07 -1.8 -5.81 6.68c-0.66,0.76 -1.16,1.58 -1.52,2.46 -0.37,0.88 -0.58,1.78 -0.67,2.71 -0.07,0.93 -0.01,1.86 0.2,2.76 0.2,0.91 0.55,1.78 1.03,2.6 0.48,0.82 1.1,1.56 1.85,2.22l4.19 3.65c0.76,0.65 1.58,1.15 2.45,1.52 0.88,0.36 1.78,0.58 2.71,0.64 0.93,0.07 1.84,0 2.75,-0.2 0.91,-0.21 1.76,-0.56 2.59,-1.04 0.82,-0.48 1.55,-1.1 2.21,-1.85zm-0.48 12.81l12.87 -12.43 -1.91 -1.98 -3.39 -1.1 -2.24 2.16 3.39 1.11 -10.63 10.26 1.91 1.98zm21.98 17.94c0.6,-0.49 1.06,-1.05 1.4,-1.7 0.34,-0.65 0.55,-1.33 0.63,-2.05 0.07,-0.71 0.01,-1.42 -0.18,-2.13 -0.2,-0.7 -0.54,-1.35 -1.02,-1.96l6.22 1.21 2.1 -1.7 -14.83 -18.31 -2.1 1.7 12.12 14.98 -6.17 -1.19 -0.02 0.01 -3.79 -4.67 -2.13 1.73 6.46 7.98c0.32,0.41 0.52,0.86 0.58,1.34 0.06,0.48 0.02,0.95 -0.15,1.42 -0.18,0.47 -0.46,0.85 -0.87,1.19 -0.4,0.32 -0.85,0.52 -1.33,0.59 -0.49,0.07 -0.96,0.02 -1.42,-0.15 -0.47,-0.17 -0.86,-0.45 -1.19,-0.85l-7.82 -9.66c-0.46,-0.57 -0.79,-1.18 -1.03,-1.86 -0.23,-0.67 -0.34,-1.37 -0.33,-2.08 0,-0.71 0.12,-1.41 0.35,-2.1l-2.81 -0.32c-0.25,0.94 -0.35,1.89 -0.3,2.83 0.04,0.96 0.23,1.88 0.57,2.77 0.34,0.9 0.81,1.72 1.41,2.48l7.82 9.65c0.49,0.59 1.05,1.06 1.69,1.4 0.64,0.34 1.32,0.55 2.04,0.63 0.71,0.08 1.43,0.02 2.13,-0.18 0.7,-0.2 1.36,-0.54 1.96,-1.02zm13.15 35.15l2.45 -1.26 -8.83 -17.32 13.49 -6.88 -1.25 -2.45 -15.95 8.12 10.08 19.78zm16.46 19.74l8.38 -2.89 -0.89 -2.6 -8.38 2.88c-0.82,0.28 -1.64,0.39 -2.45,0.33 -0.82,-0.06 -1.6,-0.26 -2.33,-0.61 -0.73,-0.35 -1.37,-0.83 -1.93,-1.44 -0.55,-0.6 -0.98,-1.31 -1.26,-2.13l-1.81 -5.25c-0.27,-0.82 -0.38,-1.64 -0.32,-2.46 0.06,-0.82 0.27,-1.59 0.63,-2.34 0.36,-0.73 0.84,-1.37 1.45,-1.93 0.6,-0.55 1.32,-0.98 2.14,-1.27l8.38 -2.89 -0.9 -2.6 -8.38 2.88c-0.95,0.33 -1.8,0.79 -2.54,1.37 -0.76,0.58 -1.4,1.25 -1.93,2.01 -0.53,0.78 -0.94,1.61 -1.22,2.49 -0.28,0.89 -0.41,1.81 -0.4,2.77 0.01,0.94 0.17,1.89 0.49,2.84l1.81 5.25c0.33,0.95 0.79,1.79 1.37,2.55 0.58,0.75 1.26,1.38 2.02,1.91 0.77,0.53 1.59,0.93 2.48,1.2 0.89,0.27 1.81,0.4 2.76,0.39 0.95,-0.01 1.9,-0.18 2.83,-0.5zm-6.61 10.99l17.36 -4.33 -0.66 -2.66 -2.38 -2.65 -3.03 0.76 2.38 2.64 -14.34 3.58 0.67 2.67zm10.07 26.44c0.76,-0.12 1.45,-0.36 2.08,-0.73 0.63,-0.38 1.16,-0.85 1.59,-1.43 0.44,-0.57 0.75,-1.21 0.94,-1.92 0.19,-0.7 0.23,-1.43 0.13,-2.2l4.71 4.25 2.67 -0.38 -3.27 -23.34 -2.68 0.38 2.68 19.08 -4.68 -4.2 -0.03 0 -0.84 -5.96 -2.72 0.38 1.43 10.16c0.07,0.52 0,1.01 -0.19,1.46 -0.19,0.45 -0.47,0.83 -0.86,1.14 -0.39,0.3 -0.84,0.5 -1.35,0.57 -0.51,0.07 -0.99,0 -1.44,-0.18 -0.45,-0.19 -0.84,-0.48 -1.14,-0.86 -0.31,-0.38 -0.5,-0.83 -0.58,-1.34l-1.73 -12.3c-0.1,-0.72 -0.07,-1.42 0.08,-2.12 0.15,-0.7 0.41,-1.35 0.79,-1.96 0.36,-0.61 0.82,-1.15 1.38,-1.61l-2.25 -1.72c-0.7,0.68 -1.26,1.44 -1.72,2.28 -0.45,0.84 -0.77,1.73 -0.94,2.67 -0.17,0.94 -0.2,1.89 -0.07,2.85l1.73 12.3c0.11,0.76 0.35,1.44 0.73,2.07 0.38,0.63 0.85,1.16 1.43,1.59 0.57,0.44 1.21,0.75 1.91,0.95 0.7,0.19 1.44,0.24 2.21,0.13zm-5.6 36.97l2.75 0.05 0.34 -19.44 15.14 0.26 0.05 -2.75 -17.9 -0.31 -0.39 22.19zm4.57 25.36l8.73 1.54 0.48 -2.71 -8.73 -1.54c-0.85,-0.15 -1.63,-0.46 -2.31,-0.91 -0.69,-0.45 -1.27,-1 -1.74,-1.66 -0.47,-0.67 -0.8,-1.39 -0.99,-2.19 -0.19,-0.8 -0.21,-1.62 -0.07,-2.47l0.96 -5.47c0.15,-0.85 0.46,-1.62 0.91,-2.31 0.46,-0.69 1.01,-1.26 1.68,-1.74 0.67,-0.47 1.4,-0.79 2.21,-0.99 0.8,-0.19 1.63,-0.21 2.48,-0.07l8.73 1.54 0.48 -2.71 -8.73 -1.54c-0.99,-0.18 -1.95,-0.19 -2.89,-0.04 -0.94,0.14 -1.83,0.41 -2.67,0.83 -0.83,0.42 -1.6,0.94 -2.27,1.59 -0.68,0.64 -1.24,1.38 -1.69,2.22 -0.45,0.83 -0.77,1.74 -0.95,2.73l-0.96 5.46c-0.18,0.99 -0.19,1.95 -0.04,2.88 0.15,0.94 0.42,1.83 0.84,2.66 0.42,0.83 0.95,1.58 1.59,2.26 0.65,0.67 1.39,1.22 2.22,1.69 0.84,0.45 1.75,0.76 2.72,0.94zm-11.56 6.21l17.29 4.63 0.71 -2.66 -0.79 -3.47 -3.01 -0.81 0.8 3.47 -14.28 -3.82 -0.72 2.65zm-4.16 28.23c0.72,0.27 1.45,0.39 2.18,0.37 0.73,-0.03 1.43,-0.19 2.08,-0.48 0.66,-0.29 1.24,-0.7 1.75,-1.23 0.51,-0.53 0.9,-1.14 1.18,-1.86l2.06 6 2.52 0.96 8.45 -22 -2.52 -0.97 -6.91 17.99 -2.06 -5.95 -0.02 -0.01 2.16 -5.62 -2.57 -0.98 -3.68 9.58c-0.2,0.49 -0.49,0.88 -0.88,1.18 -0.38,0.3 -0.82,0.5 -1.31,0.57 -0.49,0.08 -0.97,0.03 -1.46,-0.15 -0.48,-0.19 -0.87,-0.47 -1.17,-0.86 -0.3,-0.39 -0.5,-0.83 -0.58,-1.31 -0.09,-0.48 -0.04,-0.96 0.14,-1.45l4.45 -11.6c0.26,-0.67 0.62,-1.28 1.1,-1.82 0.47,-0.53 1.01,-0.98 1.63,-1.33 0.62,-0.35 1.28,-0.61 1.99,-0.74l-1.14 -2.6c-0.93,0.26 -1.8,0.64 -2.6,1.16 -0.8,0.52 -1.51,1.14 -2.11,1.88 -0.61,0.74 -1.09,1.55 -1.44,2.46l-4.45 11.59c-0.27,0.72 -0.39,1.44 -0.37,2.17 0.03,0.73 0.19,1.43 0.48,2.08 0.29,0.66 0.69,1.25 1.21,1.75 0.52,0.51 1.14,0.91 1.86,1.19zm-23.37 28.94l2.33 1.46 10.31 -16.49 12.85 8.02 1.46 -2.33 -15.18 -9.48 -11.77 18.82zm-8.86 24.44l6.69 5.81 1.81 -2.07 -6.69 -5.81c-0.65,-0.57 -1.16,-1.23 -1.51,-1.97 -0.36,-0.73 -0.57,-1.51 -0.64,-2.32 -0.06,-0.81 0.03,-1.61 0.28,-2.39 0.25,-0.78 0.65,-1.5 1.22,-2.16l3.64 -4.19c0.57,-0.65 1.23,-1.16 1.97,-1.51 0.74,-0.35 1.52,-0.56 2.34,-0.62 0.82,-0.06 1.61,0.04 2.4,0.29 0.78,0.25 1.51,0.65 2.16,1.22l6.69 5.81 1.8 -2.07 -6.69 -5.81c-0.76,-0.66 -1.58,-1.16 -2.46,-1.52 -0.88,-0.37 -1.78,-0.58 -2.71,-0.67 -0.93,-0.07 -1.86,-0.01 -2.77,0.2 -0.91,0.2 -1.77,0.55 -2.59,1.03 -0.82,0.48 -1.56,1.09 -2.22,1.85l-3.64 4.19c-0.65,0.76 -1.16,1.58 -1.52,2.45 -0.36,0.88 -0.58,1.78 -0.65,2.71 -0.07,0.93 -0,1.84 0.2,2.75 0.21,0.91 0.55,1.76 1.04,2.59 0.48,0.82 1.1,1.55 1.85,2.21zm-12.71 -0.09l12.43 12.88 1.98 -1.91 1.1 -3.39 -2.16 -2.24 -1.11 3.38 -10.26 -10.63 -1.98 1.91zm-17.5 22.28c0.49,0.6 1.05,1.06 1.7,1.41 0.65,0.34 1.33,0.55 2.04,0.63 0.72,0.07 1.43,0.01 2.13,-0.19 0.7,-0.2 1.35,-0.54 1.96,-1.02l-1.21 6.23 1.7 2.1 18.32 -14.83 -1.7 -2.1 -14.98 12.12 1.19 -6.17 -0.01 -0.02 4.67 -3.79 -1.73 -2.13 -7.97 6.45c-0.41,0.33 -0.86,0.52 -1.34,0.59 -0.49,0.06 -0.96,0.02 -1.42,-0.15 -0.47,-0.18 -0.86,-0.47 -1.19,-0.87 -0.32,-0.41 -0.52,-0.85 -0.58,-1.33 -0.07,-0.49 -0.02,-0.96 0.15,-1.42 0.17,-0.46 0.44,-0.86 0.85,-1.18l9.65 -7.82c0.57,-0.45 1.19,-0.79 1.86,-1.03 0.67,-0.23 1.37,-0.34 2.09,-0.34 0.71,0 1.41,0.12 2.1,0.36l0.32 -2.81c-0.94,-0.25 -1.89,-0.35 -2.84,-0.3 -0.95,0.04 -1.88,0.23 -2.77,0.57 -0.9,0.33 -1.72,0.8 -2.48,1.41l-9.66 7.82c-0.59,0.49 -1.06,1.05 -1.4,1.69 -0.34,0.65 -0.55,1.32 -0.63,2.04 -0.08,0.71 -0.02,1.42 0.17,2.13 0.2,0.7 0.54,1.36 1.02,1.96z"/>
   </g>
   <path class="fil7" d="M1017.04 1663.21c58.25,0 61.83,25.16 52.87,47.61 -8.96,22.45 -17.92,20.66 -65.42,24.25 -47.5,3.6 -70.8,-3.59 -64.53,-21.55 6.28,-17.97 7.17,-22.46 7.17,-22.46 0,0 -25.1,40.43 -11.65,45.81 13.44,5.39 76.17,14.37 110.23,5.39 34.06,-8.99 41.23,-40.43 41.23,-52.1 0,-11.68 -27.28,-35.46 -69.91,-26.95z"/>
   <path class="fil7" d="M1127.3 1708.68c38.62,0 41,16.68 35.06,31.57 -5.94,14.89 -11.88,13.7 -43.38,16.08 -31.5,2.39 -46.95,-2.38 -42.79,-14.29 4.16,-11.91 4.76,-14.89 4.76,-14.89 0,0 -16.64,26.81 -7.73,30.38 8.91,3.57 50.51,9.53 73.09,3.57 22.58,-5.96 27.34,-26.81 27.34,-34.55 0,-7.74 -18.09,-23.51 -46.35,-17.87z"/>
   <path class="fil7" d="M1323.44 1690.03c38.62,0 41,16.68 35.06,31.57 -5.94,14.89 -11.88,13.7 -43.38,16.08 -31.5,2.39 -46.95,-2.38 -42.79,-14.29 4.16,-11.91 4.76,-14.89 4.76,-14.89 0,0 -16.64,26.8 -7.73,30.38 8.91,3.57 50.51,9.53 73.09,3.57 22.58,-5.96 27.34,-26.8 27.34,-34.54 0,-7.74 -18.09,-23.51 -46.35,-17.87z"/>
   <path class="fil7" d="M1157.35 1636.94c43.65,0 46.33,18.85 39.61,35.67 -6.71,16.82 -13.42,15.47 -49.01,18.17 -35.59,2.69 -53.05,-2.69 -48.34,-16.15 4.7,-13.46 5.37,-16.83 5.37,-16.83 0,0 -18.8,30.29 -8.73,34.33 10.07,4.03 57.07,10.77 82.59,4.03 25.52,-6.73 30.89,-30.29 30.89,-39.03 0,-8.75 -20.44,-26.57 -52.37,-20.19z"/>
   <path class="fil7" d="M1026.72 1791.07c-25.38,0 -26.94,-10.96 -23.03,-20.74 3.91,-9.78 7.81,-9 28.5,-10.57 20.7,-1.57 30.85,1.57 28.11,9.39 -2.73,7.83 -3.12,9.78 -3.12,9.78 0,0 10.93,-17.61 5.08,-19.96 -5.86,-2.35 -33.19,-6.26 -48.02,-2.35 -14.84,3.91 -17.96,17.61 -17.96,22.7 0,5.08 11.88,15.45 30.45,11.74z"/>
   <path class="fil7" d="M984.53 1661.97c-25.38,0 -26.94,-10.96 -23.03,-20.74 3.9,-9.78 7.8,-9 28.5,-10.57 20.69,-1.56 30.84,1.57 28.11,9.39 -2.73,7.83 -3.12,9.78 -3.12,9.78 0,0 10.93,-17.61 5.08,-19.96 -5.86,-2.35 -33.18,-6.26 -48.02,-2.35 -14.84,3.91 -17.96,17.61 -17.96,22.7 0,5.09 11.88,15.45 30.45,11.74z"/>
   <path class="fil7" d="M1381.37 1772.27c-25.38,0 -26.94,-10.96 -23.03,-20.74 3.9,-9.78 7.8,-9 28.5,-10.57 20.69,-1.57 30.84,1.57 28.11,9.39 -2.73,7.83 -3.12,9.78 -3.12,9.78 0,0 10.93,-17.61 5.08,-19.96 -5.86,-2.35 -33.18,-6.26 -48.02,-2.35 -14.83,3.91 -17.96,17.61 -17.96,22.7 0,5.08 11.88,15.45 30.45,11.74z"/>
  </g>
 </g>
</svg>
