<svg width="485" height="598" viewBox="0 0 485 598" fill="none" xmlns="http://www.w3.org/2000/svg">
<g opacity="0.6">
<path d="M318.807 324.392L252.166 277.07L211.468 319.819L153.992 263.705L119.249 300.565L75.9864 307.584L55.221 273.945L82.4461 292.82L80.7862 300.045L117.802 291.827L153.459 259.08L212.924 306.1L251.533 269.729L318.807 324.392Z" fill="#F8C300"/>
<path d="M124.306 503.579L81.9661 419.58L55.7383 428.929L76.8156 295.778L54.5558 276.623L41.824 244.979L25.8225 164.662L34.3173 157.486L-24.733 76.4181L-9.56887 62.0327L39.6619 156.693L29.9906 166.168L45.0846 243.434L59.9276 272.944L83.3808 292.985L69.0769 414.511L85.1876 410.606L124.306 503.579Z" fill="#F8C300"/>
<path d="M-14.0783 52.0805L-24.7328 76.4181L12.0403 126.953L14.3152 107.499L-14.0783 52.0805Z" fill="#F7B24D"/>
<path d="M428.832 363.462L391.193 350.076L356.376 348.561L330.129 321.955L358.217 343.585L392.529 345.781L428.832 363.462Z" fill="#F8C300"/>
<path d="M159.553 433.265L138.223 429.599L113.452 433.423L106.463 420.045L117.043 430.008L141.434 426.696L159.553 433.265Z" fill="#F8C300"/>
</g>
<defs>
</defs>
</svg>
